<?xml version="1.0" encoding="UTF-8" standalone="no"?>
<!-- Generator: Adobe Illustrator 24.0.1, SVG Export Plug-In . SVG Version: 6.00 Build 0)  -->

<svg
   xmlns:dc="http://purl.org/dc/elements/1.1/"
   xmlns:cc="http://creativecommons.org/ns#"
   xmlns:rdf="http://www.w3.org/1999/02/22-rdf-syntax-ns#"
   xmlns:svg="http://www.w3.org/2000/svg"
   xmlns="http://www.w3.org/2000/svg"
   xmlns:sodipodi="http://sodipodi.sourceforge.net/DTD/sodipodi-0.dtd"
   xmlns:inkscape="http://www.inkscape.org/namespaces/inkscape"
   version="1.1"
   id="Layer_1"
   x="0px"
   y="0px"
   viewBox="0 0 1129.9 144.3"
   style="enable-background:new 0 0 1129.9 144.3;"
   xml:space="preserve"
   sodipodi:docname="complete-flow-logo-hori-white.svg"
   inkscape:version="0.92.2 5c3e80d, 2017-08-06"><metadata
     id="metadata41"><rdf:RDF><cc:Work
         rdf:about=""><dc:format>image/svg+xml</dc:format><dc:type
           rdf:resource="http://purl.org/dc/dcmitype/StillImage" /><dc:title></dc:title></cc:Work></rdf:RDF></metadata><defs
     id="defs39" /><sodipodi:namedview
     pagecolor="#ffffff"
     bordercolor="#666666"
     borderopacity="1"
     objecttolerance="10"
     gridtolerance="10"
     guidetolerance="10"
     inkscape:pageopacity="0"
     inkscape:pageshadow="2"
     inkscape:window-width="904"
     inkscape:window-height="685"
     id="namedview37"
     showgrid="false"
     inkscape:zoom="0.57350207"
     inkscape:cx="564.95001"
     inkscape:cy="72.150002"
     inkscape:window-x="130"
     inkscape:window-y="26"
     inkscape:window-maximized="0"
     inkscape:current-layer="g27" /><style
     type="text/css"
     id="style2">
	.st0{fill:#FF8B2E;}
	.st1{fill:url(#SVGID_1_);}
	.st2{fill:url(#SVGID_2_);}
	.st3{fill:url(#SVGID_3_);}
	.st4{fill:url(#SVGID_4_);}
	.st5{fill:url(#SVGID_5_);}
	.st6{fill:none;stroke:#FF2C0A;stroke-width:7.7723;stroke-miterlimit:10;}
	.st7{fill:none;stroke:#FF2C0A;stroke-width:9;stroke-miterlimit:10;}
	.st8{fill:#FF2C0A;}
	.st9{fill:none;stroke:#FF2C0A;stroke-width:7;stroke-miterlimit:10;}
	.st10{fill:url(#SVGID_6_);}
	.st11{fill:url(#SVGID_7_);}
	.st12{fill:url(#SVGID_8_);}
	.st13{fill:#FFFFFF;}
	.st14{fill:none;stroke:#FF2C0A;stroke-width:8.4061;stroke-miterlimit:10;}
	.st15{fill:none;stroke:#FF2C0A;stroke-width:9.5479;stroke-miterlimit:10;}
	.st16{fill:none;stroke:#000000;stroke-width:42;stroke-linecap:round;stroke-linejoin:round;stroke-miterlimit:10;}
	.st17{fill:url(#SVGID_9_);}
	.st18{fill:url(#SVGID_10_);}
	.st19{fill:url(#SVGID_11_);}
	.st20{fill:url(#SVGID_12_);}
	.st21{fill:url(#SVGID_13_);}
	.st22{fill:url(#SVGID_14_);}
	.st23{fill:none;}
	.st24{fill:url(#SVGID_15_);}
	.st25{fill:url(#SVGID_16_);}
</style><g
     id="g27"><path
       d="M340.1,73.8c0-4.5,0.7-8.8,2.2-12.8c1.5-4,3.6-7.5,6.4-10.5c2.8-3,6.2-5.3,10.1-7.1c4-1.7,8.5-2.6,13.6-2.6   c3.3,0,6.4,0.3,9.2,0.9c2.8,0.6,5.5,1.4,8.1,2.6l-3.7,14.2c-1.7-0.6-3.5-1.2-5.5-1.7c-2-0.5-4.2-0.7-6.7-0.7   c-5.2,0-9.1,1.6-11.7,4.9c-2.6,3.3-3.9,7.5-3.9,12.9c0,5.6,1.2,10,3.6,13.1c2.4,3.1,6.6,4.6,12.7,4.6c2.1,0,4.4-0.2,6.9-0.6   c2.5-0.4,4.7-1,6.8-1.9l2.5,14.5c-2.1,0.9-4.6,1.6-7.7,2.3c-3.1,0.6-6.5,1-10.2,1c-5.7,0-10.6-0.9-14.8-2.6c-4.1-1.7-7.5-4-10.2-7   c-2.7-2.9-4.6-6.4-5.8-10.4C340.7,82.9,340.1,78.5,340.1,73.8z"
       id="path4"
       style="fill:#ffffff" /><path
       d="M458.2,73.7c0,4.9-0.7,9.4-2.1,13.5c-1.4,4.1-3.5,7.6-6.2,10.5c-2.7,2.9-5.9,5.1-9.7,6.7c-3.8,1.6-8,2.4-12.7,2.4   c-4.6,0-8.8-0.8-12.6-2.4c-3.8-1.6-7-3.8-9.7-6.7c-2.7-2.9-4.8-6.4-6.3-10.5c-1.5-4.1-2.3-8.6-2.3-13.5c0-4.9,0.8-9.4,2.3-13.5   c1.5-4,3.7-7.5,6.4-10.4s6-5.1,9.8-6.7c3.8-1.6,7.9-2.4,12.3-2.4c4.5,0,8.7,0.8,12.4,2.4c3.8,1.6,7,3.8,9.7,6.7   c2.7,2.9,4.8,6.3,6.3,10.4C457.5,64.3,458.2,68.8,458.2,73.7z M440.1,73.7c0-5.5-1.1-9.8-3.3-12.9c-2.2-3.1-5.3-4.7-9.3-4.7   s-7.2,1.6-9.4,4.7c-2.2,3.1-3.3,7.4-3.3,12.9s1.1,9.8,3.3,13c2.2,3.2,5.4,4.8,9.4,4.8s7.2-1.6,9.3-4.8   C439,83.5,440.1,79.2,440.1,73.7z"
       id="path6"
       style="fill:#ffffff" /><path
       d="M506.3,71.9c0-5.7-0.7-9.8-2.2-12.1c-1.5-2.4-4-3.6-7.6-3.6c-1.1,0-2.3,0.1-3.5,0.2c-1.2,0.1-2.3,0.3-3.5,0.4v48.3h-17.7   V44.7c1.5-0.4,3.3-0.8,5.3-1.2c2-0.4,4.2-0.8,6.4-1.2c2.3-0.4,4.6-0.6,7-0.8c2.4-0.2,4.7-0.3,7-0.3c4.5,0,8.2,0.6,11,1.7   c2.8,1.2,5.1,2.5,7,4.1c2.5-1.8,5.5-3.3,8.8-4.3c3.3-1,6.3-1.5,9.1-1.5c5,0,9.1,0.7,12.3,2.1c3.2,1.4,5.8,3.4,7.7,5.9   c1.9,2.5,3.2,5.6,3.9,9c0.7,3.5,1.1,7.4,1.1,11.7v35.4h-17.7V71.9c0-5.7-0.7-9.8-2.2-12.1c-1.5-2.4-4-3.6-7.6-3.6   c-1,0-2.3,0.2-4,0.7c-1.7,0.5-3.1,1.1-4.2,1.8c0.6,1.8,0.9,3.8,1.1,5.8c0.2,2,0.2,4.2,0.2,6.5v34.2h-17.7V71.9z"
       id="path8"
       style="fill:#ffffff" /><path
       d="M632.8,73.8c0,4.8-0.6,9.2-1.8,13.2c-1.2,4-2.9,7.4-5.2,10.2c-2.3,2.9-5.2,5.1-8.6,6.7c-3.4,1.6-7.3,2.4-11.8,2.4   c-2.5,0-4.8-0.2-6.9-0.7c-2.1-0.5-4.2-1.1-6.2-2v23.6h-17.7V44.7c1.6-0.5,3.4-0.9,5.5-1.4c2.1-0.4,4.2-0.8,6.5-1.1   c2.3-0.3,4.6-0.6,6.9-0.8c2.3-0.2,4.6-0.3,6.7-0.3c5.2,0,9.8,0.8,13.8,2.3s7.5,3.7,10.2,6.5c2.8,2.8,4.9,6.3,6.4,10.3   C632,64.3,632.8,68.8,632.8,73.8z M614.7,74.3c0-5.5-1.2-9.9-3.7-13.2c-2.5-3.3-6.1-4.9-11-4.9c-1.6,0-3.1,0.1-4.4,0.2   c-1.4,0.1-2.5,0.3-3.3,0.4v32c1.1,0.7,2.6,1.3,4.3,1.8c1.8,0.5,3.6,0.7,5.4,0.7C610.4,91.3,614.7,85.7,614.7,74.3z"
       id="path10"
       style="fill:#ffffff" /><path
       d="M671.4,106.3c-5.2-0.1-9.3-0.6-12.6-1.7c-3.2-1-5.8-2.5-7.6-4.3c-1.9-1.9-3.1-4.1-3.8-6.8c-0.7-2.7-1-5.7-1-9V15.6   l17.7-2.9V81c0,1.6,0.1,3,0.4,4.3c0.2,1.3,0.7,2.3,1.4,3.2c0.7,0.9,1.6,1.6,2.9,2.1c1.3,0.6,3,0.9,5.1,1.1L671.4,106.3z"
       id="path12"
       style="fill:#ffffff" /><path
       d="M681.1,74.3c0-5.6,0.9-10.4,2.6-14.6c1.7-4.2,3.9-7.6,6.7-10.4c2.8-2.8,6-4.9,9.6-6.3c3.6-1.4,7.3-2.1,11.1-2.1   c8.9,0,15.9,2.7,21.1,8.2c5.2,5.4,7.7,13.4,7.7,24c0,1,0,2.2-0.1,3.4c-0.1,1.2-0.2,2.3-0.2,3.3h-40.2c0.4,3.7,2.1,6.5,5.1,8.7   c3,2.1,7.1,3.2,12.1,3.2c3.3,0,6.4-0.3,9.6-0.9c3.1-0.6,5.7-1.3,7.7-2.2l2.4,14.4c-1,0.5-2.2,1-3.8,1.4c-1.6,0.5-3.4,0.9-5.3,1.2   c-1.9,0.4-4,0.7-6.2,0.9c-2.2,0.2-4.4,0.4-6.7,0.4c-5.6,0-10.5-0.8-14.7-2.5c-4.2-1.7-7.6-3.9-10.4-6.8c-2.7-2.9-4.8-6.3-6.1-10.3   C681.7,83.2,681.1,78.9,681.1,74.3z M722.8,67.5c-0.1-1.5-0.3-3-0.8-4.4c-0.4-1.4-1.1-2.7-2-3.8c-0.9-1.1-2.1-2-3.5-2.7   c-1.4-0.7-3.1-1.1-5.2-1.1c-2,0-3.7,0.3-5.1,1c-1.4,0.7-2.6,1.6-3.6,2.7c-1,1.1-1.7,2.4-2.2,3.9c-0.5,1.5-0.9,3-1.1,4.5H722.8z"
       id="path14"
       style="fill:#ffffff" /><path
       d="M753,26.9l17.7-2.9v18.5h21.3v14.8h-21.3v22c0,3.7,0.7,6.7,2,8.9c1.3,2.2,3.9,3.3,7.9,3.3c1.9,0,3.9-0.2,5.9-0.5   c2-0.4,3.9-0.9,5.5-1.5l2.5,13.8c-2.1,0.9-4.5,1.6-7.1,2.3s-5.8,1-9.6,1c-4.8,0-8.9-0.7-12-2c-3.2-1.3-5.7-3.1-7.6-5.5   c-1.9-2.3-3.2-5.2-4-8.5c-0.8-3.3-1.1-7-1.1-11.1V26.9z"
       id="path16"
       style="fill:#ffffff" /><path
       d="M801.1,74.3c0-5.6,0.9-10.4,2.6-14.6c1.7-4.2,3.9-7.6,6.7-10.4c2.8-2.8,6-4.9,9.6-6.3c3.6-1.4,7.3-2.1,11.1-2.1   c8.9,0,15.9,2.7,21.1,8.2c5.2,5.4,7.7,13.4,7.7,24c0,1,0,2.2-0.1,3.4c-0.1,1.2-0.2,2.3-0.2,3.3h-40.2c0.4,3.7,2.1,6.5,5.1,8.7   c3,2.1,7.1,3.2,12.1,3.2c3.3,0,6.4-0.3,9.6-0.9c3.1-0.6,5.7-1.3,7.7-2.2l2.4,14.4c-1,0.5-2.2,1-3.8,1.4c-1.6,0.5-3.4,0.9-5.3,1.2   c-1.9,0.4-4,0.7-6.2,0.9c-2.2,0.2-4.4,0.4-6.7,0.4c-5.6,0-10.5-0.8-14.7-2.5c-4.2-1.7-7.6-3.9-10.4-6.8c-2.7-2.9-4.8-6.3-6.1-10.3   C801.8,83.2,801.1,78.9,801.1,74.3z M842.8,67.5c-0.1-1.5-0.3-3-0.8-4.4c-0.4-1.4-1.1-2.7-2-3.8c-0.9-1.1-2.1-2-3.5-2.7   c-1.4-0.7-3.1-1.1-5.2-1.1c-2,0-3.7,0.3-5.1,1c-1.4,0.7-2.6,1.6-3.6,2.7c-1,1.1-1.7,2.4-2.2,3.9c-0.5,1.5-0.9,3-1.1,4.5H842.8z"
       id="path18"
       style="fill:#ffffff" /><linearGradient
       id="SVGID_1_"
       gradientUnits="userSpaceOnUse"
       x1="855.7458"
       y1="70.2106"
       x2="1113.9889"
       y2="70.2106"><stop
         offset="0"
         style="stop-color:#FF6800"
         id="stop20" /><stop
         offset="1"
         style="stop-color:#F8C810"
         id="stop22" /></linearGradient><path
       class="st1"
       d="M896.4,42.9h20.9l-2.8,11.9h-20.8l-9,37.3c-1,4.3-2,8.1-2.9,11.4c-0.9,3.3-2,6.4-3.2,9.2   c-1.2,2.8-2.6,5.4-4.2,7.8c-1.6,2.4-3.7,4.8-6.1,7.2l-12.5-1.9c1.5-1.9,2.9-3.8,4.2-5.8c1.3-1.9,2.5-4,3.6-6.2   c1.1-2.2,2.1-4.6,3-7.1c0.9-2.6,1.7-5.5,2.4-8.6l14.2-59.5c1-4,2.2-7.7,3.9-10.9c1.6-3.2,3.7-5.9,6.1-8.1c2.4-2.2,5.3-3.8,8.7-5   c3.4-1.1,7.3-1.7,11.7-1.7c2.8,0,5.3,0.3,7.5,0.8c2.2,0.5,4,1.1,5.4,1.7L921,26.6c-0.7-0.2-1.7-0.6-3.1-1c-1.4-0.4-3.1-0.6-5.2-0.6   c-2.4,0-4.4,0.3-6.1,1c-1.7,0.7-3.1,1.6-4.3,2.8c-1.2,1.2-2.2,2.6-2.9,4.3c-0.8,1.7-1.4,3.6-1.8,5.5L896.4,42.9z M936.8,106.3   c-3.7-0.1-6.9-0.6-9.5-1.4c-2.6-0.9-4.6-2.1-6.2-3.6c-1.5-1.5-2.7-3.3-3.3-5.4c-0.7-2.1-1-4.3-1-6.8c0-2.5,0.3-5.2,0.9-8   c0.6-2.8,1.2-5.6,2-8.4l13.8-57.6l15-2.4c-2.5,10.4-4.9,20.7-7.4,31c-2.5,10.3-5,20.6-7.5,31c-0.4,1.7-0.8,3.3-1.2,4.9   c-0.4,1.6-0.7,3.2-0.8,4.8c-0.2,1.4-0.2,2.6-0.1,3.8c0.1,1.2,0.5,2.1,1.1,3s1.5,1.5,2.7,2.1c1.2,0.6,2.7,0.9,4.6,1.1L936.8,106.3z    M973,106.8c-7.4,0-13-2.2-16.9-6.5c-3.9-4.4-5.8-10.1-5.8-17.3c0-4.6,0.7-9.4,2.1-14.3c1.4-4.9,3.6-9.4,6.5-13.5   c2.9-4,6.6-7.4,11.1-10c4.4-2.6,9.7-3.9,15.7-3.9c7.4,0,13,2.2,16.9,6.5c3.9,4.3,5.8,10.1,5.8,17.2c0,4.7-0.7,9.5-2.1,14.4   c-1.4,4.9-3.5,9.4-6.4,13.5c-2.9,4-6.6,7.4-11.1,10C984.4,105.5,979.1,106.8,973,106.8z M984,53.5c-3.1,0-5.9,0.9-8.3,2.7   c-2.4,1.8-4.4,4.1-6.1,6.8c-1.6,2.8-2.9,5.8-3.8,9.1c-0.9,3.3-1.3,6.5-1.3,9.6c0,4,0.8,7.1,2.3,9.4c1.5,2.3,4.2,3.5,8,3.5   c3.1,0,5.9-0.9,8.3-2.7c2.4-1.8,4.4-4,6.1-6.8c1.6-2.7,2.9-5.8,3.8-9.1c0.9-3.3,1.3-6.5,1.3-9.5c0-4-0.8-7.1-2.3-9.5   C990.4,54.7,987.8,53.5,984,53.5z M1063.9,65.7c-1.5,3.4-3.2,6.9-5.1,10.5c-1.9,3.6-3.9,7.1-5.9,10.6c-2.1,3.5-4.1,6.7-6.2,9.9   c-2.1,3.1-4,5.9-5.7,8.4h-11.9c-0.7-3.6-1.4-7.8-2.1-12.5c-0.7-4.7-1.3-9.7-1.9-15c-0.6-5.3-1.1-10.9-1.5-16.8   c-0.4-5.9-0.7-11.9-0.9-18h14.3c0,3.3,0,6.9,0.1,10.8c0.1,3.9,0.2,7.8,0.4,11.8c0.2,4,0.4,8,0.7,11.8c0.3,3.9,0.7,7.5,1.2,11   c2.2-3.4,4.4-7,6.6-10.9c2.2-3.8,4.3-7.7,6.3-11.7c2-3.9,3.8-7.8,5.5-11.7c1.7-3.9,3.2-7.6,4.5-11.1h12.4c0,3.3,0,6.7,0.1,10.4   c0.1,3.7,0.2,7.4,0.4,11.3c0.2,3.9,0.4,7.8,0.7,11.8c0.3,4,0.6,8,1.1,11.8c2.1-3,4.2-6.5,6.3-10.4c2.1-3.9,4.2-7.9,6.2-12   c2-4.1,3.8-8.1,5.4-12.1c1.6-4,3-7.6,4-10.9h15c-1.7,4.8-3.7,9.8-6.2,15.2c-2.4,5.4-5.2,10.8-8.2,16.3s-6.3,10.9-9.7,16.1   c-3.5,5.3-7.1,10.2-10.8,14.7h-11.8c-0.9-6.7-1.6-13.2-2.2-19.7C1064.5,79,1064.1,72.4,1063.9,65.7z"
       id="path25" /></g><linearGradient
     id="SVGID_2_"
     gradientUnits="userSpaceOnUse"
     x1="10.2573"
     y1="70.9415"
     x2="314.335"
     y2="70.9415"><stop
       offset="0"
       style="stop-color:#FF6800"
       id="stop29" /><stop
       offset="1"
       style="stop-color:#F8C810"
       id="stop31" /></linearGradient><path
     class="st2"
     d="M199.3,114.5l11.7-14c-7.1-4.2-14.2-9.5-21.4-16c-4.6-4.1-9.1-8.5-13.5-12.8c-0.3-0.3-0.6-0.5-0.8-0.8  c9.2-9.2,18-17.4,27.9-24.4c9.9-7,19.3-11.8,28.9-14.5c12.4-3.5,23.4-3.6,33.7-0.3c12.8,4.1,21.6,11.6,26.9,22.9  c2.5,5.4,3.7,11.1,3.6,16.8l18.2-0.2l0-2.9l-0.1-0.7c0-0.2-0.1-0.4-0.1-0.7l0,0c-0.6-8.4-2.8-16.2-6.6-23  c-10.7-19.1-27.9-30-51.1-32.4c-2.3-0.2-4.7-0.4-7.1-0.4c-8.4,0-17,1.5-26.1,4.5c-12.6,4.2-24.9,11.1-37.6,21.3  c-4.2,3.4-8.3,6.9-12.3,10.6L149.4,71c0,0,0,0,0,0c-4,4-8,7.8-12,11.4l0,0l0,0c-3.7,3.4-7.5,6.6-11.5,9.7  c-10.5,8.1-20.4,13.6-30.4,16.8c-12.8,4.2-24.3,4.7-35.1,1.5c-14.5-4.2-24-12.6-29.3-25.6c-6.2-15.4-1.7-32.7,11.5-44  c7.6-6.6,16.4-10.2,27-11.1c13-1.2,26,1.9,39.9,9.2c8.6,4.5,16.8,10.4,25.1,18l12.9-12.6c-0.8-0.8-1.7-1.5-2.5-2.3  c-10.4-9.3-21.1-16.4-32.4-21.7c-16.8-7.8-32.7-10.5-48.7-8.1c-14.4,2.1-26.7,8.3-36.6,18.2C8.9,49,5,76.4,17.6,98.7  c10.7,18.8,27.8,29.4,50.9,31.6c10.6,1,21.3-0.4,32.9-4.2c12.6-4.2,24.9-11.1,37.6-21.3c8.3-6.6,15.8-13.7,23.3-21.2  c1.3,1.3,2.6,2.6,3.9,3.8c8.4,8.2,18.7,17.6,30.7,25.5C197.7,113.5,198.5,114,199.3,114.5z"
     id="path34" /></svg>