<?xml version="1.0" encoding="UTF-8"?>
<svg width="179px" height="51px" viewBox="0 0 179 51" version="1.1" xmlns="http://www.w3.org/2000/svg" xmlns:xlink="http://www.w3.org/1999/xlink">
    <!-- Generator: Sketch 52.5 (67469) - http://www.bohemiancoding.com/sketch -->
    <title>loqativ-logo (1)</title>
    <desc>Created with Sketch.</desc>
    <g id="Page-1" stroke="none" stroke-width="1" fill="none" fill-rule="evenodd">
        <g id="loqativ-logo-(1)" transform="translate(0.000000, 0.558288)" fill="#001A49" fill-rule="nonzero">
            <path d="M0.945947206,37.6300309 L0.945947206,2.23003088 L9.54594721,2.23003088 L9.54594721,30.1800309 L23.2459472,30.1800309 L19.143247,37.6300309 L0.945947206,37.6300309 Z M53.1959472,25.0800309 C53.1959472,27.1133744 52.8292842,28.9550226 52.0959472,30.6050309 C51.3626102,32.2550391 50.3626202,33.6550251 49.0959472,34.8050309 C47.8292742,35.9550366 46.3626222,36.8466944 44.6959472,37.4800309 C43.0292722,38.1133674 41.2459567,38.4300309 39.3459472,38.4300309 C37.4792712,38.4300309 35.704289,38.1133674 34.0209472,37.4800309 C32.3376055,36.8466944 30.8709535,35.9550366 29.6209472,34.8050309 C28.370941,33.6550251 27.3792842,32.2550391 26.6459472,30.6050309 C25.9126102,28.9550226 25.5459472,27.1133744 25.5459472,25.0800309 C25.5459472,23.0466874 25.9126102,21.2133724 26.6459472,19.5800309 C27.3792842,17.9466894 28.370941,16.5633699 29.6209472,15.4300309 C30.8709535,14.2966919 32.3376055,13.4300339 34.0209472,12.8300309 C35.704289,12.2300279 37.4792712,11.9300309 39.3459472,11.9300309 C41.2459567,11.9300309 43.0292722,12.2300279 44.6959472,12.8300309 C46.3626222,13.4300339 47.8292742,14.2966919 49.0959472,15.4300309 C50.3626202,16.5633699 51.3626102,17.9466894 52.0959472,19.5800309 C52.8292842,21.2133724 53.1959472,23.0466874 53.1959472,25.0800309 Z M45.2959472,25.0800309 C45.2959472,24.2800269 45.1626152,23.4967014 44.8959472,22.7300309 C44.6292792,21.9633604 44.2459497,21.2883671 43.7459472,20.7050309 C43.2459447,20.1216946 42.6292842,19.6466994 41.8959472,19.2800309 C41.1626102,18.9133624 40.3126187,18.7300309 39.3459472,18.7300309 C38.3792757,18.7300309 37.5292842,18.9133624 36.7959472,19.2800309 C36.0626102,19.6466994 35.454283,20.1216946 34.9709472,20.7050309 C34.4876115,21.2883671 34.1209485,21.9633604 33.8709472,22.7300309 C33.620946,23.4967014 33.4959472,24.2800269 33.4959472,25.0800309 C33.4959472,25.8800349 33.620946,26.6633604 33.8709472,27.4300309 C34.1209485,28.1967014 34.4959447,28.8883611 34.9959472,29.5050309 C35.4959497,30.1217006 36.1126102,30.6133624 36.8459472,30.9800309 C37.5792842,31.3466994 38.4292757,31.5300309 39.3959472,31.5300309 C40.3626187,31.5300309 41.2126102,31.3466994 41.9459472,30.9800309 C42.6792842,30.6133624 43.2959447,30.1217006 43.7959472,29.5050309 C44.2959497,28.8883611 44.670946,28.1967014 44.9209472,27.4300309 C45.1709485,26.6633604 45.2959472,25.8800349 45.2959472,25.0800309 Z M76.6459472,49.6300309 L76.6459472,34.8800309 L76.5459472,34.8800309 C75.7459432,35.9467029 74.670954,36.7883611 73.3209472,37.4050309 C71.9709405,38.0217006 70.5292882,38.3300309 68.9959472,38.3300309 C67.0959377,38.3300309 65.4126212,37.9633679 63.9459472,37.2300309 C62.4792732,36.4966939 61.2459522,35.5217036 60.2459472,34.3050309 C59.2459422,33.0883581 58.4792832,31.6800389 57.9459472,30.0800309 C57.4126112,28.4800229 57.1459472,26.8133729 57.1459472,25.0800309 C57.1459472,23.3466889 57.4209445,21.6883721 57.9709472,20.1050309 C58.52095,18.5216896 59.3042755,17.1300369 60.3209472,15.9300309 C61.337619,14.7300249 62.57094,13.7800344 64.0209472,13.0800309 C65.4709545,12.3800274 67.0959382,12.0300309 68.8959472,12.0300309 C70.7626232,12.0300309 72.3709405,12.4050271 73.7209472,13.1550309 C75.070954,13.9050346 76.1292767,14.7800259 76.8959472,15.7800309 L77.0459472,15.7800309 L77.0459472,12.7300309 L84.7959472,12.7300309 L84.7959472,49.6300309 L76.6459472,49.6300309 Z M76.9459472,25.1300309 C76.9459472,24.3300269 76.804282,23.5467014 76.5209472,22.7800309 C76.2376125,22.0133604 75.8376165,21.3300339 75.3209472,20.7300309 C74.804278,20.1300279 74.1792842,19.6466994 73.4459472,19.2800309 C72.7126102,18.9133624 71.8792852,18.7300309 70.9459472,18.7300309 C69.9792757,18.7300309 69.1292842,18.9133624 68.3959472,19.2800309 C67.6626102,19.6466994 67.0459497,20.1216946 66.5459472,20.7050309 C66.0459447,21.2883671 65.6709485,21.9633604 65.4209472,22.7300309 C65.170946,23.4967014 65.0459472,24.2800269 65.0459472,25.0800309 C65.0459472,25.8800349 65.170946,26.6716936 65.4209472,27.4550309 C65.6709485,28.2383681 66.0459447,28.9300279 66.5459472,29.5300309 C67.0459497,30.1300339 67.6626102,30.6133624 68.3959472,30.9800309 C69.1292842,31.3466994 69.9792757,31.5300309 70.9459472,31.5300309 C71.8792852,31.5300309 72.7126102,31.3466994 73.4459472,30.9800309 C74.1792842,30.6133624 74.804278,30.1300339 75.3209472,29.5300309 C75.8376165,28.9300279 76.2376125,28.2467014 76.5209472,27.4800309 C76.804282,26.7133604 76.9459472,25.9300349 76.9459472,25.1300309 Z M105.945947,26.7800309 L104.895947,26.7800309 C103.995943,26.7800309 103.087618,26.8216971 102.170947,26.9050309 C101.254276,26.9883646 100.437617,27.1466964 99.7209472,27.3800309 C99.004277,27.6133654 98.4126162,27.9550286 97.9459472,28.4050309 C97.4792782,28.8550331 97.2459472,29.4466939 97.2459472,30.1800309 C97.2459472,30.6466999 97.3542795,31.0466959 97.5709472,31.3800309 C97.787615,31.7133659 98.0626122,31.9800299 98.3959472,32.1800309 C98.7292822,32.3800319 99.1126117,32.5216971 99.5459472,32.6050309 C99.9792827,32.6883646 100.395945,32.7300309 100.795947,32.7300309 C102.462622,32.7300309 103.737609,32.2717021 104.620947,31.3550309 C105.504285,30.4383596 105.945947,29.1967054 105.945947,27.6300309 L105.945947,26.7800309 Z M90.8959472,16.1300309 C92.3626212,14.7300239 94.0709375,13.6800344 96.0209472,12.9800309 C97.970957,12.2800274 99.9626037,11.9300309 101.995947,11.9300309 C104.095958,11.9300309 105.87094,12.1883616 107.320947,12.7050309 C108.770954,13.2217001 109.945943,14.0216921 110.845947,15.1050309 C111.745952,16.1883696 112.404278,17.5550226 112.820947,19.2050309 C113.237616,20.8550391 113.445947,22.8133529 113.445947,25.0800309 L113.445947,37.6300309 L105.945947,37.6300309 L105.945947,34.9800309 L105.795947,34.9800309 C105.162611,36.0133694 104.204287,36.8133614 102.920947,37.3800309 C101.637607,37.9467004 100.245955,38.2300309 98.7459472,38.2300309 C97.7459422,38.2300309 96.7126192,38.0966989 95.6459472,37.8300309 C94.5792752,37.5633629 93.604285,37.1300339 92.7209472,36.5300309 C91.8376095,35.9300279 91.1126167,35.1300359 90.5459472,34.1300309 C89.9792777,33.1300259 89.6959472,31.8967049 89.6959472,30.4300309 C89.6959472,28.6300219 90.187609,27.1800364 91.1709472,26.0800309 C92.1542855,24.9800254 93.4209395,24.1300339 94.9709472,23.5300309 C96.520955,22.9300279 98.2459377,22.5300319 100.145947,22.3300309 C102.045957,22.1300299 103.895938,22.0300309 105.695947,22.0300309 L105.695947,21.6300309 C105.695947,20.3966914 105.262618,19.4883671 104.395947,18.9050309 C103.529276,18.3216946 102.46262,18.0300309 101.195947,18.0300309 C100.029275,18.0300309 98.904286,18.2800284 97.8209472,18.7800309 C96.7376085,19.2800334 95.8126177,19.8800274 95.0459472,20.5800309 L90.8959472,16.1300309 Z M128.445947,18.8800309 L128.445947,28.3800309 C128.445947,29.5467034 128.670945,30.4216946 129.120947,31.0050309 C129.570949,31.5883671 130.379275,31.8800309 131.545947,31.8800309 C131.945949,31.8800309 132.370945,31.8466979 132.820947,31.7800309 C133.270949,31.7133639 133.645946,31.6133649 133.945947,31.4800309 L134.045947,37.4800309 C133.479278,37.6800319 132.762618,37.8550301 131.895947,38.0050309 C131.029276,38.1550316 130.162618,38.2300309 129.295947,38.2300309 C127.629272,38.2300309 126.229286,38.0216996 125.095947,37.6050309 C123.962608,37.1883621 123.054284,36.5883681 122.370947,35.8050309 C121.68761,35.0216936 121.195949,34.0883696 120.895947,33.0050309 C120.595946,31.9216921 120.445947,30.7133709 120.445947,29.3800309 L120.445947,18.8800309 L116.445947,18.8800309 L116.445947,12.7300309 L120.395947,12.7300309 L120.395947,6.18003088 L128.445947,6.18003088 L128.445947,12.7300309 L134.295947,12.7300309 L134.295947,18.8800309 L128.445947,18.8800309 Z M147.045947,4.78003088 C147.045947,5.41336738 146.920948,6.00502813 146.670947,6.55503088 C146.420946,7.10503363 146.087616,7.58002888 145.670947,7.98003088 C145.254278,8.38003288 144.754283,8.69669638 144.170947,8.93003088 C143.587611,9.16336538 142.979284,9.28003088 142.345947,9.28003088 C141.012607,9.28003088 139.895952,8.83836863 138.995947,7.95503088 C138.095943,7.07169313 137.645947,6.01337038 137.645947,4.78003088 C137.645947,4.18002788 137.762613,3.60503363 137.995947,3.05503088 C138.229282,2.50502813 138.562612,2.03003288 138.995947,1.63003088 C139.429283,1.23002888 139.929278,0.905032132 140.495947,0.655030882 C141.062617,0.405029632 141.679277,0.280030882 142.345947,0.280030882 C142.979284,0.280030882 143.587611,0.396696382 144.170947,0.630030882 C144.754283,0.863365382 145.254278,1.18002888 145.670947,1.58003088 C146.087616,1.98003288 146.420946,2.45502813 146.670947,3.00503088 C146.920948,3.55503363 147.045947,4.14669438 147.045947,4.78003088 Z M138.245947,37.6300309 L138.245947,12.7300309 L146.445947,12.7300309 L146.445947,37.6300309 L138.245947,37.6300309 Z M168.345947,37.6300309 L159.495947,37.6300309 L149.695947,12.7300309 L158.745947,12.7300309 L163.995947,28.8800309 L164.145947,28.8800309 L169.395947,12.7300309 L178.145947,12.7300309 L168.345947,37.6300309 Z" id="Loqativ-Copy"></path>
        </g>
    </g>
</svg>