<?xml version="1.0" encoding="UTF-8"?>
<svg width="1009px" height="125px" viewBox="0 0 1009 125" version="1.1" xmlns="http://www.w3.org/2000/svg" xmlns:xlink="http://www.w3.org/1999/xlink">
    <!-- Generator: Sketch 52.5 (67469) - http://www.bohemiancoding.com/sketch -->
    <title>Group 13</title>
    <desc>Created with Sketch.</desc>
    <g id="Loqativ" stroke="none" stroke-width="1" fill="none" fill-rule="evenodd">
        <g id="Group-13">
            <g id="Group-12" transform="translate(0.104037, 84.509600)">
                <polygon id="Path" fill="#3D3D3D" points="12.4139039 0.00747672206 12.1438294 0.925440361 12.1438294 27.5626194 12.4139039 27.8322108 24.7785843 20.5234809"></polygon>
                <polygon id="Path" fill="#706D6D" points="12.4139909 0.00747672206 0.0493105569 20.5234809 12.4139909 27.8323074 12.4139909 14.9034176"></polygon>
                <polygon id="Path" fill="#3D3D3D" points="12.4139039 30.1733659 12.2617152 30.3588912 12.2617152 39.8476398 12.4139039 40.2922241 24.785928 22.8683079"></polygon>
                <polygon id="Path" fill="#706D6D" points="12.4139909 40.2920888 12.4139909 30.1732306 0.0493105569 22.8681726"></polygon>
                <polygon id="Path" fill="#141414" points="12.4139039 27.8321818 24.778391 20.5235486 12.4139039 14.9034853"></polygon>
                <polygon id="Path" fill="#393939" points="0.0493975219 20.5235582 12.4138846 27.8321915 12.4138846 14.9034949"></polygon>
            </g>
            <g id="tech-Logos_ApacheSpark" transform="translate(9.604037, 2.142372)" fill="#3D3D3D">
                <path d="M75.318,8.927 C74.653,9.097 74.009,9.256 73.367,9.426 C71.72,9.862 70.07,10.295 68.426,10.747 C68.088,10.84 67.909,10.724 67.746,10.448 C66.755,8.786 65.756,7.128 64.76,5.47 C64.744,5.442 64.733,5.41 64.711,5.385 C64.601,5.256 64.57,4.988 64.355,5.044 C64.195,5.085 64.227,5.327 64.199,5.48 C63.82,7.594 63.443,9.708 63.08,11.824 C63.021,12.172 62.873,12.36 62.522,12.468 C60.421,13.114 58.329,13.785 56.234,14.447 C56.203,14.457 56.17,14.463 56.14,14.477 C56.01,14.536 55.797,14.526 55.782,14.689 C55.766,14.87 55.983,14.87 56.108,14.921 C57.615,15.525 59.125,16.123 60.633,16.724 C60.782,16.783 61.002,16.802 61.031,16.972 C61.065,17.165 60.834,17.206 60.705,17.29 C59.743,17.918 58.777,18.535 57.818,19.165 C57.582,19.319 57.381,19.384 57.095,19.252 C55.74,18.627 54.367,18.041 53.011,17.418 C52.188,17.041 51.489,16.505 51.109,15.649 C50.704,14.733 50.888,13.921 51.624,13.243 C52.029,12.87 52.495,12.604 53.019,12.437 C55.285,11.714 57.547,10.984 59.818,10.277 C60.212,10.154 60.391,9.965 60.46,9.541 C60.795,7.519 61.164,5.503 61.535,3.487 C61.713,2.52 62.048,1.626 62.795,0.929 C63.551,0.224 64.579,0.162 65.393,0.801 C65.731,1.066 66.022,1.376 66.245,1.746 C67.297,3.486 68.359,5.221 69.392,6.971 C69.605,7.333 69.833,7.363 70.202,7.264 C72.607,6.612 75.017,5.974 77.429,5.345 C78.087,5.174 78.756,5.116 79.408,5.399 C80.125,5.71 80.444,6.359 80.267,7.125 C80.114,7.788 79.722,8.311 79.295,8.814 C77.631,10.777 75.97,12.743 74.289,14.692 C74.039,14.983 74.037,15.203 74.207,15.519 C75.176,17.325 76.126,19.141 77.09,20.95 C77.466,21.657 77.785,22.38 77.613,23.201 C77.353,24.442 76.128,25.258 74.768,25.064 C73.447,24.876 72.216,24.34 70.939,23.982 C70.37,23.823 69.811,23.633 69.242,23.478 C68.955,23.4 68.794,23.252 68.747,22.951 C68.606,22.06 68.463,21.169 68.296,20.283 C68.216,19.864 68.391,19.837 68.721,19.929 C70.094,20.316 71.468,20.701 72.845,21.076 C73.042,21.13 73.305,21.296 73.446,21.133 C73.6,20.955 73.363,20.749 73.268,20.57 C72.352,18.829 71.437,17.087 70.501,15.355 C70.326,15.031 70.461,14.844 70.651,14.62 C72.111,12.913 73.567,11.203 75.016,9.488 C75.136,9.348 75.324,9.234 75.316,8.926 L75.318,8.927 Z" id="Path"></path>
                <path d="M6.095,37.702 C3.336,37.67 1.617,36.407 0.741,33.787 C0.646,33.504 0.671,33.351 0.959,33.206 C1.936,32.708 2.904,32.19 3.863,31.658 C4.11,31.52 4.203,31.528 4.309,31.808 C4.548,32.439 4.851,33.037 5.366,33.501 C6.149,34.204 7.06,34.258 7.989,33.924 C8.88,33.604 9.561,33.027 9.681,32.008 C9.783,31.145 9.293,30.516 8.761,29.93 C7.769,28.839 6.689,27.83 5.739,26.7 C4.999,25.82 4.29,24.91 4.042,23.753 C3.651,21.932 4.274,20.396 5.485,19.071 C6.793,17.642 8.433,16.841 10.373,16.774 C12.109,16.715 13.568,17.371 14.685,18.723 C14.946,19.038 15.167,19.385 15.424,19.703 C15.591,19.91 15.541,20.031 15.34,20.177 C14.414,20.853 13.489,21.53 12.584,22.232 C12.324,22.434 12.255,22.335 12.126,22.111 C11.829,21.6 11.483,21.124 10.981,20.784 C10.155,20.224 9.111,20.248 8.324,20.851 C7.643,21.373 7.51,22.14 8.005,22.844 C8.506,23.555 9.119,24.174 9.71,24.808 C10.425,25.574 11.159,26.323 11.882,27.083 C14.297,29.628 13.853,32.621 11.992,34.958 C10.532,36.792 8.376,37.727 6.095,37.699 L6.095,37.702 Z" id="Path"></path>
                <path d="M42.479,32.628 C42.306,33.985 42.146,35.23 41.991,36.475 C41.964,36.695 41.838,36.813 41.641,36.897 C38.979,38.026 35.847,37.854 33.624,35.723 C32.012,34.176 31.379,32.215 31.68,29.997 C32.158,26.469 34.145,24.051 37.381,22.718 C39.913,21.675 42.419,21.824 44.677,23.523 C46.104,24.597 46.87,26.083 47.141,27.844 C47.341,29.134 47.045,30.386 46.902,31.647 C46.713,33.318 46.452,34.981 46.257,36.652 C46.206,37.089 46.057,37.237 45.616,37.218 C44.83,37.184 44.041,37.2 43.255,37.21 C42.972,37.215 42.888,37.125 42.926,36.836 C43.211,34.7 43.52,32.565 43.749,30.423 C43.897,29.042 43.712,27.687 42.762,26.587 C41.77,25.439 40.011,25.149 38.311,25.777 C36.182,26.564 34.838,28.652 35.022,30.887 C35.167,32.643 36.712,34.104 38.471,34.193 C39.89,34.263 41.111,33.827 42.155,32.876 C42.226,32.813 42.306,32.761 42.477,32.629 L42.479,32.628 Z" id="Path"></path>
                <path d="M60.715,29.219 C60.587,30.173 60.457,31.105 60.335,32.038 C60.126,33.626 59.919,35.215 59.721,36.803 C59.684,37.095 59.574,37.222 59.255,37.216 C58.304,37.196 57.352,37.2 56.401,37.213 C56.071,37.218 55.985,37.104 56.027,36.78 C56.516,33.186 56.996,29.592 57.472,25.998 C57.72,24.119 57.957,22.238 58.192,20.357 C58.222,20.121 58.262,19.916 58.484,19.774 C59.657,19.026 60.826,18.271 61.997,17.519 C62.049,17.485 62.111,17.466 62.255,17.4 C61.873,20.331 61.498,23.199 61.105,26.211 C63.158,23.938 65.124,21.763 67.135,19.535 C67.358,20.16 67.369,20.763 67.5,21.339 C67.558,21.593 67.537,21.874 67.63,22.111 C67.931,22.876 67.592,23.368 67.059,23.89 C65.949,24.98 64.909,26.14 63.823,27.253 C63.598,27.484 63.677,27.628 63.825,27.832 C65.814,30.617 67.799,33.403 69.785,36.192 C70,36.495 70.21,36.801 70.416,37.097 C70.313,37.256 70.186,37.206 70.082,37.206 C68.9,37.209 67.72,37.2 66.539,37.212 C66.213,37.215 66.009,37.12 65.821,36.832 C64.25,34.416 62.659,32.013 61.073,29.608 C60.984,29.477 60.921,29.317 60.714,29.219 L60.715,29.219 Z" id="Path"></path>
                <path d="M54.631,25.889 C54.369,25.889 54.105,25.887 53.844,25.889 C53.148,25.895 52.636,26.282 52.532,26.964 C52.321,28.352 52.147,29.746 51.964,31.138 C51.72,33 51.482,34.863 51.245,36.727 C51.202,37.06 51.087,37.233 50.695,37.218 C49.844,37.186 48.99,37.205 48.136,37.213 C47.865,37.216 47.774,37.155 47.817,36.843 C48.15,34.399 48.457,31.952 48.777,29.506 C48.915,28.454 49.027,27.397 49.214,26.354 C49.617,24.107 51.596,22.476 53.863,22.473 C54.552,22.471 55.242,22.484 55.93,22.468 C56.232,22.46 56.295,22.592 56.259,22.855 C56.134,23.745 56.002,24.632 55.903,25.524 C55.869,25.825 55.752,25.915 55.467,25.894 C55.191,25.872 54.911,25.889 54.631,25.889 Z" id="Path"></path>
                <path d="M30.31,28.115 C29.948,24.494 27.085,22.057 23.416,22.094 C22.062,22.107 20.764,22.474 19.574,23.151 C16.959,24.636 15.294,26.804 14.845,29.82 C14.615,31.37 14.424,32.927 14.217,34.48 C13.909,36.795 13.608,39.111 13.292,41.426 C13.247,41.751 13.369,41.82 13.661,41.815 C14.497,41.801 15.333,41.801 16.17,41.815 C16.464,41.82 16.563,41.703 16.597,41.419 C16.79,39.83 17.008,38.244 17.199,36.654 C17.241,36.301 17.296,36.174 17.653,36.418 C18.821,37.216 20.136,37.553 21.539,37.576 C21.836,37.592 22.125,37.54 22.419,37.51 C26.874,37.064 30.773,32.733 30.311,28.113 L30.31,28.115 Z M26.849,30.291 C26.347,32.518 24.257,34.189 21.978,34.188 C19.464,34.188 17.75,32.108 18.213,29.621 C18.604,27.525 20.403,25.795 22.498,25.5 C25.368,25.099 27.493,27.439 26.849,30.291 Z" id="Shape" fill-rule="nonzero"></path>
            </g>
            <g id="tech-Logos_elastic" transform="translate(155.604037, 0.142372)" fill="#3D3D3D">
                <path d="M41.634,41.878 C41.33,41.635 40.941,41.601 40.592,41.482 C40.021,41.286 39.655,40.998 39.788,40.325 C39.838,40.071 39.729,39.798 39.855,39.549 C40.073,39.5 40.187,39.672 40.336,39.75 C40.75,39.965 41.153,40.212 41.613,40.317 C42.137,40.435 42.754,40.606 43.053,40.027 C43.34,39.472 42.8,39.147 42.421,38.852 C41.914,38.454 41.354,38.124 40.859,37.713 C39.919,36.935 39.671,36.001 40.099,35.052 C40.486,34.193 41.53,33.705 42.641,33.875 C42.859,33.909 43.078,33.962 43.291,34.022 C44.301,34.305 44.513,34.672 44.332,35.717 C44.264,36.11 44.098,35.908 43.927,35.83 C43.383,35.58 42.851,35.292 42.222,35.303 C41.937,35.308 41.684,35.37 41.551,35.647 C41.409,35.94 41.581,36.164 41.762,36.365 C42.322,36.986 43.083,37.34 43.735,37.84 C44.484,38.413 44.885,39.152 44.692,40.103 C44.507,41.017 43.929,41.587 42.997,41.772 C42.941,41.785 42.892,41.844 42.84,41.881 C42.439,41.878 42.038,41.878 41.636,41.878 L41.634,41.878 Z" id="Path"></path>
                <path d="M20.196,41.757 C20.045,41.722 19.887,41.705 19.743,41.651 C18.286,41.106 18.377,41.428 18.538,39.523 C19.087,39.78 19.577,40.133 20.16,40.29 C20.467,40.374 20.767,40.422 21.081,40.399 C21.368,40.378 21.585,40.255 21.713,39.983 C21.853,39.682 21.702,39.465 21.523,39.261 C21.058,38.735 20.423,38.433 19.867,38.028 C19.263,37.588 18.702,37.108 18.593,36.312 C18.399,34.888 19.275,33.887 20.72,33.849 C21.195,33.836 21.647,33.943 22.092,34.09 C22.962,34.377 23.222,34.876 23,35.759 C22.919,36.081 22.768,35.934 22.615,35.861 C22.093,35.614 21.587,35.325 20.986,35.307 C20.664,35.296 20.346,35.313 20.184,35.651 C20.012,36.01 20.269,36.24 20.481,36.463 C20.979,36.984 21.63,37.3 22.206,37.717 C23.213,38.446 23.576,39.326 23.265,40.358 C23.008,41.211 22.293,41.566 21.549,41.88 C21.326,41.88 21.103,41.88 20.879,41.88 C20.674,41.716 20.408,41.893 20.198,41.757 L20.196,41.757 Z" id="Path"></path>
                <path d="M36.009,41.878 C35.212,41.459 34.384,41.116 33.821,40.329 C32.775,38.864 32.757,36.574 33.848,35.269 C35.051,33.832 37.023,33.435 38.764,34.273 C38.955,34.365 39.109,34.451 39.099,34.704 C39.084,35.098 39.095,35.494 39.095,35.937 C37.71,35.377 36.35,34.803 35.191,36.164 C34.433,37.056 34.378,38.641 35.101,39.473 C36.343,40.899 37.772,40.336 39.166,39.658 C39.347,41.22 39.18,41.451 37.7,41.759 C37.622,41.775 37.554,41.839 37.481,41.881 C37.392,41.881 37.303,41.881 37.213,41.881 C36.901,41.77 36.588,41.77 36.275,41.881 C36.187,41.879 36.097,41.879 36.008,41.879 L36.009,41.878 Z" id="Path"></path>
                <path d="M69.087,41.878 C68.997,41.692 68.798,41.685 68.639,41.629 C66.627,40.924 65.632,38.729 66.291,36.459 C66.873,34.452 69.016,33.357 71.107,34.038 C72.351,34.443 72.198,34.001 72.135,35.915 C70.747,35.384 69.314,34.755 68.163,36.276 C67.481,37.181 67.482,38.7 68.165,39.472 C69.414,40.888 70.834,40.343 72.292,39.625 C72.292,40.008 72.26,40.318 72.3,40.616 C72.363,41.089 72.113,41.317 71.728,41.463 C71.341,41.609 70.95,41.74 70.559,41.879 C70.471,41.879 70.381,41.879 70.291,41.879 C70.023,41.769 69.756,41.769 69.488,41.879 C69.352,41.879 69.219,41.879 69.085,41.879 L69.087,41.878 Z" id="Path"></path>
                <path d="M26.368,41.878 C25.07,41.272 24.74,40.155 24.777,38.849 C24.802,37.958 24.814,37.066 24.876,36.177 C24.919,35.573 24.853,35.138 23.906,35.367 C24.791,34.224 25.572,33.215 26.486,32.033 C26.486,32.646 26.503,33.074 26.481,33.499 C26.462,33.864 26.581,34.039 26.971,34.008 C27.259,33.985 27.551,34.003 27.841,34.004 C28.557,34.006 28.85,34.439 28.604,35.114 C28.56,35.235 28.497,35.303 28.374,35.314 C28.286,35.322 28.195,35.314 28.106,35.323 C27.581,35.378 26.875,35.08 26.576,35.467 C26.303,35.822 26.423,36.492 26.402,37.024 C26.376,37.715 26.371,38.408 26.379,39.099 C26.39,40.069 26.896,40.44 27.81,40.162 C27.959,40.117 28.1,40.032 28.251,40.01 C28.571,39.964 28.85,39.418 29.149,39.767 C29.501,40.179 29.103,41.218 28.6,41.416 C28.228,41.563 27.864,41.739 27.453,41.757 C27.15,41.908 26.802,41.704 26.502,41.879 C26.457,41.878 26.412,41.878 26.367,41.878 L26.368,41.878 Z" id="Path"></path>
                <path d="M48.866,41.878 C49.222,41.67 49.58,41.679 49.937,41.878 C49.58,41.878 49.224,41.878 48.866,41.878 Z" id="Path"></path>
                <path d="M3.468,41.878 C3.78,41.663 4.093,41.671 4.406,41.878 C4.093,41.878 3.781,41.878 3.468,41.878 Z" id="Path"></path>
                <path d="M36.278,41.878 C36.59,41.664 36.903,41.67 37.216,41.878 C36.903,41.878 36.591,41.878 36.278,41.878 Z" id="Path"></path>
                <path d="M35.878,15.251 C36.279,15.696 36.667,15.936 37.068,16.158 C38.204,16.789 39.439,17.188 40.644,17.649 C41.967,18.155 42.811,19.08 43.324,20.368 C43.72,21.362 44.143,22.343 44.559,23.328 C44.655,23.558 44.825,23.792 44.356,23.791 C41.885,23.783 39.413,23.788 36.885,23.788 C37.001,23.152 37.426,22.821 37.836,22.492 C38.305,22.116 38.814,21.787 39.267,21.393 C39.838,20.896 39.774,20.222 39.104,19.87 C38.555,19.581 37.961,19.376 37.38,19.149 C36.248,18.706 35.302,18.023 34.65,16.987 C34.461,16.687 34.216,16.592 33.906,16.505 C33.627,16.428 33.541,16.478 33.427,16.751 C33.065,17.617 32.455,17.927 31.546,17.606 C31.145,17.464 30.813,17.442 30.425,17.529 C29.879,17.651 29.424,17.068 29.046,17.132 C28.519,17.221 28.058,17.26 27.566,17.087 C27.088,16.919 26.81,16.433 26.092,16.605 C25.444,16.76 24.604,15.443 24.816,14.713 C24.988,14.117 24.789,13.908 24.27,13.766 C24.019,13.697 23.768,13.562 23.564,13.397 C22.9,12.861 23.042,11.927 23.857,11.689 C24.497,11.502 24.793,11.061 25.043,10.522 C25.353,9.854 25.833,9.476 26.6,9.319 C27.391,9.157 27.897,8.464 28.073,7.731 C28.339,6.624 28.805,5.589 29.086,4.493 C29.254,3.835 29.598,3.714 30.084,4.172 C30.223,4.303 30.279,4.277 30.402,4.209 C30.898,3.937 31.153,4.148 31.256,4.647 C31.261,4.669 31.272,4.689 31.274,4.711 C31.339,5.288 32.051,4.897 32.23,5.364 C32.36,5.701 32.387,6.208 32.982,6.125 C33.291,6.082 33.466,6.307 33.643,6.511 C33.893,6.8 34.147,7.084 34.621,7.107 C34.331,6.489 34.243,5.907 34.936,5.502 C34.988,5.471 35.065,5.389 35.054,5.356 C34.685,4.245 35.884,3.919 36.19,3.137 C36.292,2.878 36.324,2.746 36.217,2.516 C35.914,1.87 36.104,1.405 36.779,1.154 C37.152,1.015 37.525,0.883 37.893,0.722 C38.817,0.317 40.22,1.175 40.316,2.181 C40.335,2.374 40.389,2.509 40.512,2.65 C40.626,2.781 40.777,2.954 40.772,3.103 C40.747,3.818 41.073,4.386 41.385,4.998 C41.804,5.816 42.223,6.517 43.269,6.538 C43.556,6.543 43.885,6.619 44.052,6.861 C44.306,7.229 44.489,7.49 45.053,7.381 C45.454,7.304 45.484,7.804 45.334,8.082 C45.043,8.622 44.673,9.119 44.339,9.636 C44.233,9.8 43.772,9.842 44.001,10.061 C44.204,10.256 44.383,10.656 44.784,10.572 C45.43,10.437 45.78,10.65 45.779,11.341 C45.779,11.542 45.949,11.571 46.094,11.631 C46.692,11.873 47.019,12.362 47.083,12.96 C47.123,13.336 47.328,13.448 47.566,13.643 C47.763,13.807 47.797,13.778 47.946,13.616 C48.808,12.681 49.917,12.462 51.085,13.002 C51.377,13.137 51.64,13.097 51.929,13.037 C52.885,12.838 53.751,13.729 53.522,14.675 C53.475,14.868 53.423,15.137 53.224,15.17 C52.572,15.278 52.492,15.831 52.207,16.27 C51.807,16.884 51.092,17.3 50.444,17.457 C49.589,17.664 48.608,17.69 47.824,17.042 C47.593,16.851 47.408,16.883 47.16,17.001 C46.225,17.444 45.428,17.309 44.675,16.568 C44.518,16.413 44.416,16.379 44.226,16.469 C43.887,16.63 43.378,16.71 43.209,16.483 C42.567,15.627 41.375,16.071 40.712,15.326 C40.556,15.151 40.361,15.247 40.247,15.486 C39.493,17.089 39.572,16.873 37.954,16.185 C37.832,16.133 37.716,16.068 37.535,15.978 C38.163,15.608 38.683,15.188 38.973,14.541 C39.072,14.321 39.133,14.125 38.971,13.919 C38.792,13.691 38.599,13.896 38.43,13.93 C38.007,14.013 37.654,14.148 37.561,14.698 C37.501,15.053 37.101,15.221 36.719,15.246 C36.483,15.264 36.246,15.251 35.88,15.251 L35.878,15.251 Z" id="Path"></path>
                <path d="M74.829,34.772 C75.68,34.195 76.438,33.731 77.4,33.906 C78.62,34.126 79.284,34.767 79.529,35.986 C79.621,36.446 79.674,36.909 79.669,37.38 C79.657,38.451 79.666,39.522 79.666,40.593 C79.666,41.641 79.414,41.828 78.374,41.624 C77.991,41.549 78.087,41.282 78.085,41.061 C78.072,39.767 78.083,38.471 78.064,37.177 C78.053,36.509 78.077,35.8 77.304,35.472 C76.636,35.189 75.566,35.462 75.011,36.008 C74.801,36.215 74.831,36.449 74.831,36.69 C74.828,38.141 74.794,39.593 74.844,41.041 C74.871,41.833 74.348,41.585 73.955,41.622 C73.518,41.663 73.217,41.648 73.223,41.023 C73.255,37.543 73.247,34.061 73.228,30.578 C73.225,30.084 73.345,29.916 73.858,29.938 C74.995,29.987 74.821,29.842 74.828,30.9 C74.837,32.15 74.829,33.399 74.829,34.774 L74.829,34.772 Z" id="Path"></path>
                <path d="M45.527,26.611 C45.104,26.515 44.522,26.856 44.149,26.256 C44.101,26.181 43.852,26.227 43.697,26.225 C41.6,26.223 39.504,26.19 37.409,26.245 C36.756,26.261 36.17,26.762 35.447,26.622 C35.053,26.547 34.823,26.538 34.519,26.095 C34.207,25.641 34.246,24.937 33.569,24.635 C33.26,24.499 33.318,23.83 33.263,23.392 C33.249,23.28 33.384,23.276 33.465,23.276 C34.048,23.275 34.682,23.109 35.033,23.814 C35.271,24.291 35.688,24.374 36.201,24.369 C39.256,24.347 42.312,24.346 45.366,24.371 C45.908,24.374 46.318,24.275 46.581,23.77 C46.926,23.106 47.55,23.275 48.116,23.28 C48.244,23.281 48.364,23.376 48.315,23.484 C48.116,23.909 48.438,24.563 47.748,24.775 C47.536,24.84 47.529,25.039 47.53,25.219 C47.532,25.759 46.837,25.966 46.89,26.54 C46.89,26.553 46.65,26.603 46.521,26.607 C46.209,26.619 45.897,26.611 45.528,26.611 L45.527,26.611 Z" id="Path"></path>
                <path d="M10.272,35.856 C10.272,37.571 10.253,39.286 10.284,40.999 C10.293,41.505 10.138,41.653 9.64,41.634 C8.519,41.588 8.695,41.731 8.692,40.66 C8.684,37.297 8.708,33.934 8.673,30.571 C8.666,29.91 8.992,29.931 9.447,29.944 C9.89,29.958 10.312,29.84 10.29,30.579 C10.236,32.336 10.272,34.097 10.272,35.856 Z" id="Path"></path>
                <path d="M62.306,35.032 C62.527,34.822 62.683,34.667 62.848,34.52 C63.782,33.696 64.79,33.696 65.739,34.497 C65.904,34.637 65.984,34.735 65.831,34.924 C65.733,35.045 65.646,35.177 65.573,35.314 C65.293,35.84 65.046,36.19 64.38,35.657 C63.857,35.241 63.132,35.518 62.722,36.145 C62.396,36.642 62.259,37.205 62.256,37.794 C62.248,38.887 62.232,39.981 62.257,41.072 C62.267,41.515 62.119,41.648 61.683,41.635 C60.436,41.597 60.666,41.744 60.656,40.605 C60.641,38.977 60.652,37.349 60.652,35.72 C60.652,35.475 60.647,35.229 60.653,34.985 C60.678,33.925 60.428,34.05 61.659,33.993 C62.5,33.955 62.154,34.585 62.306,35.034 L62.306,35.032 Z" id="Path"></path>
                <path d="M30.089,37.837 C30.089,36.744 30.122,35.65 30.078,34.559 C30.048,33.812 30.551,34.04 30.93,34.003 C31.359,33.96 31.632,34.009 31.623,34.582 C31.59,36.745 31.588,38.909 31.623,41.074 C31.634,41.749 31.222,41.616 30.84,41.624 C30.436,41.633 30.043,41.714 30.075,41.05 C30.127,39.983 30.088,38.91 30.088,37.838 L30.089,37.837 Z" id="Path"></path>
                <path d="M30.795,33.195 C30.235,33.199 29.857,32.835 29.859,32.296 C29.861,31.783 30.342,31.316 30.859,31.326 C31.329,31.335 31.751,31.806 31.745,32.318 C31.739,32.864 31.385,33.192 30.795,33.196 L30.795,33.195 Z" id="Path"></path>
                <path d="M47.792,38.087 C48.928,38.108 50.064,38.095 51.2,38.095 C52.62,38.095 52.641,38.09 52.325,36.7 C52.018,35.358 51.333,34.317 49.896,33.973 C48.559,33.653 47.414,33.99 46.55,35.071 C45.393,36.516 45.353,38.709 46.365,40.269 C46.937,41.153 47.832,41.507 48.732,41.88 C48.777,41.88 48.821,41.88 48.867,41.88 C49.223,41.767 49.581,41.767 49.938,41.88 C50.027,41.88 50.116,41.88 50.206,41.88 C50.776,41.652 51.342,41.412 51.918,41.2 C52.235,41.083 52.377,40.897 52.348,40.55 C52.321,40.228 52.343,39.9 52.343,39.515 C51.761,39.762 51.268,40.021 50.745,40.183 C49.116,40.686 47.686,40.03 47.329,38.677 C47.208,38.219 47.33,38.08 47.793,38.088 L47.792,38.087 Z M47.396,36.54 C47.613,35.768 48.273,35.291 49.154,35.294 C49.941,35.297 50.644,35.835 50.833,36.556 C50.904,36.824 50.827,36.926 50.556,36.921 C50.047,36.915 49.535,36.919 49.025,36.919 C48.582,36.921 48.137,36.905 47.694,36.925 C47.378,36.939 47.314,36.832 47.397,36.538 L47.396,36.54 Z" id="Shape" fill-rule="nonzero"></path>
                <path d="M4.576,40.33 C3.309,40.485 2.108,39.75 1.887,38.658 C1.81,38.278 1.881,38.077 2.339,38.086 C3.543,38.109 4.748,38.095 5.953,38.093 C7.086,38.093 7.086,38.093 6.948,36.988 C6.662,34.693 4.689,33.326 2.585,34.034 C1.109,34.53 0.495,35.745 0.239,37.186 C0.136,37.512 0.216,37.845 0.19,38.174 C0.206,40.161 1.214,41.401 3.201,41.879 C3.29,41.879 3.379,41.879 3.469,41.879 C3.781,41.768 4.094,41.768 4.407,41.879 C4.541,41.879 4.675,41.879 4.808,41.879 C5.105,41.622 5.5,41.616 5.843,41.478 C6.993,41.016 7.127,40.774 6.812,39.498 C6.109,39.909 5.386,40.232 4.576,40.331 L4.576,40.33 Z M2.021,36.369 C2.349,35.631 2.966,35.261 3.849,35.296 C4.554,35.323 5.112,35.777 5.382,36.488 C5.507,36.82 5.439,36.935 5.086,36.924 C4.618,36.909 4.149,36.921 3.681,36.921 C3.258,36.921 2.831,36.894 2.411,36.929 C1.916,36.969 1.832,36.794 2.02,36.369 L2.021,36.369 Z" id="Shape" fill-rule="nonzero"></path>
                <path d="M13.788,41.878 C13.789,41.872 14.091,41.804 14.096,41.799 C14.114,41.776 14.335,41.72 14.353,41.72 C14.585,41.657 14.43,41.686 14.621,41.561 C15.155,41.21 15.512,41.362 15.79,41.877 C16.013,41.877 16.236,41.877 16.46,41.877 C16.833,41.696 17.214,41.529 17.578,41.328 C17.991,41.1 17.793,40.694 17.809,40.361 C17.819,40.135 17.642,40.116 17.481,40.19 C16.92,40.45 16.835,40.083 16.777,39.67 C16.718,39.249 16.741,38.828 16.791,38.406 C16.909,37.402 16.85,36.406 16.594,35.428 C16.383,34.627 15.876,34.118 15.058,33.93 C13.908,33.667 12.915,34.072 11.967,34.662 C11.803,34.764 11.739,34.923 11.742,35.117 C11.748,35.505 11.744,35.893 11.744,36.29 C12.034,36.252 12.203,36.021 12.427,35.887 C12.987,35.552 13.549,35.241 14.234,35.304 C14.837,35.36 15.144,35.745 15.264,36.423 C15.374,37.049 15,37.162 14.54,37.292 C13.681,37.535 12.853,37.859 12.134,38.41 C11.557,38.852 11.297,39.423 11.373,40.154 C11.468,41.074 12.099,41.519 12.844,41.873 C12.889,41.873 12.933,41.873 12.978,41.873 L13.788,41.878 Z M15.263,39.759 C15.258,40.452 14.643,40.409 14.228,40.583 C13.773,40.774 13.393,40.577 13.124,40.207 C12.834,39.809 12.921,39.388 13.22,39.045 C13.74,38.45 14.454,38.224 15.263,38.056 C15.263,38.655 15.266,39.207 15.262,39.76 L15.263,39.759 Z" id="Shape" fill-rule="nonzero"></path>
                <path d="M59.567,40.334 C59.58,40.146 59.419,40.117 59.288,40.172 C58.528,40.49 58.516,39.974 58.511,39.475 C58.502,38.428 58.549,37.379 58.499,36.334 C58.414,34.567 57.258,33.592 55.653,33.885 C55.327,33.945 54.99,34.018 54.693,34.157 C53.298,34.81 53.328,34.667 53.513,36.319 C53.692,36.202 53.85,36.089 54.018,35.987 C54.608,35.632 55.186,35.243 55.929,35.302 C56.525,35.351 56.885,35.767 57.022,36.456 C57.152,37.121 56.676,37.166 56.26,37.3 C55.39,37.581 54.535,37.885 53.803,38.468 C53.14,38.997 52.998,39.691 53.175,40.448 C53.347,41.181 53.849,41.632 54.61,41.76 C54.961,41.76 55.314,41.761 55.667,41.761 C55.672,41.738 55.683,41.715 55.704,41.692 C55.897,41.537 56.137,41.476 56.352,41.365 C56.859,41.107 57.287,41.166 57.599,41.684 C57.61,41.711 57.615,41.737 57.613,41.764 C57.827,41.765 58.041,41.766 58.255,41.767 C58.663,41.709 59.018,41.515 59.359,41.31 C59.758,41.073 59.544,40.668 59.568,40.333 L59.567,40.334 Z M55.94,40.609 C55.47,40.717 55.084,40.571 54.848,40.168 C54.629,39.795 54.666,39.395 54.958,39.049 C55.191,38.772 55.481,38.567 55.809,38.412 C56.966,37.863 57.029,37.9 57.029,39.138 C57.028,40.218 56.902,40.386 55.94,40.609 Z" id="Shape" fill-rule="nonzero"></path>
            </g>
            <g id="tech-Logos_amazon" transform="translate(315.604037, 5.142372)" fill="#3D3D3D">
                <polygon id="Path" points="12.338 33.102 7.104 31.225 7.104 23.553 12.338 25.337"></polygon>
                <polygon id="Path" points="13.299 33.102 18.533 31.225 18.533 23.553 13.299 25.337"></polygon>
                <polygon id="Path" points="7.642 22.979 12.939 21.487 17.851 23.071 12.939 24.739"></polygon>
                <polygon id="Path" points="6.107 22.385 0.873 20.508 0.873 12.836 6.107 14.619"></polygon>
                <polygon id="Path" points="7.067 22.385 12.302 20.508 12.302 12.836 7.067 14.619"></polygon>
                <polygon id="Path" points="1.41 12.261 6.708 10.77 11.62 12.354 6.708 14.022"></polygon>
                <polygon id="Path" points="18.321 22.385 13.086 20.508 13.086 12.836 18.321 14.619"></polygon>
                <polygon id="Path" points="19.28 22.385 24.515 20.508 24.515 12.836 19.28 14.619"></polygon>
                <polygon id="Path" points="13.624 12.261 18.921 10.77 23.833 12.354 18.921 14.022"></polygon>
                <polygon id="Path" points="24.552 11.667 19.318 9.79 19.318 2.118 24.552 3.901"></polygon>
                <polygon id="Path" points="25.512 11.667 30.746 9.79 30.746 2.118 25.512 3.901"></polygon>
                <polygon id="Path" points="19.855 1.543 25.152 0.052 30.064 1.636 25.152 3.304"></polygon>
                <polygon id="Path" points="36.765 11.667 31.531 9.79 31.531 2.118 36.765 3.901"></polygon>
                <polygon id="Path" points="37.726 11.667 42.96 9.79 42.96 2.118 37.726 3.901"></polygon>
                <polygon id="Path" points="32.069 1.543 37.366 0.052 42.278 1.636 37.366 3.304"></polygon>
                <polygon id="Path" points="34.103 28.105 32.344 34.213 31.579 34.213 30.21 29.676 28.955 34.213 28.176 34.213 26.349 28.105 27.294 28.105 28.625 32.657 29.892 28.105 30.589 28.105 31.966 32.672 33.334 28.105 34.102 28.105"></polygon>
                <path d="M38.967,32.391 L39.852,32.573 C39.691,33.095 39.377,33.528 38.911,33.87 C38.445,34.212 37.894,34.383 37.263,34.383 C36.43,34.383 35.756,34.09 35.241,33.502 C34.726,32.914 34.469,32.145 34.469,31.193 C34.469,30.22 34.737,29.434 35.272,28.835 C35.807,28.236 36.48,27.936 37.289,27.936 C38.086,27.936 38.727,28.212 39.212,28.764 C39.697,29.316 39.945,30.141 39.958,31.241 L35.525,31.241 C35.525,32.165 35.718,32.787 36.104,33.111 C36.49,33.435 36.898,33.595 37.329,33.595 C38.105,33.596 38.652,33.194 38.969,32.393 L38.967,32.391 Z M38.915,30.532 C38.907,30.189 38.851,29.886 38.746,29.619 C38.641,29.352 38.464,29.127 38.215,28.939 C37.965,28.752 37.666,28.658 37.316,28.658 C36.846,28.658 36.446,28.827 36.118,29.166 C35.79,29.505 35.606,29.96 35.565,30.532 L38.915,30.532 Z" id="Shape" fill-rule="nonzero"></path>
                <path d="M41.663,34.213 L41.206,34.213 L41.206,25.966 L42.157,25.966 L42.157,29.123 C42.591,28.331 43.19,27.935 43.955,27.935 C44.655,27.935 45.24,28.211 45.713,28.765 C46.186,29.319 46.422,30.121 46.422,31.174 C46.422,32.082 46.19,32.844 45.725,33.459 C45.26,34.074 44.655,34.382 43.911,34.382 C43.082,34.382 42.446,33.988 42.004,33.202 L41.664,34.213 L41.663,34.213 Z M42.157,31.818 C42.202,32.445 42.393,32.9 42.734,33.184 C43.075,33.468 43.434,33.609 43.812,33.609 C44.295,33.609 44.685,33.399 44.98,32.98 C45.275,32.561 45.424,31.985 45.424,31.255 C45.424,30.468 45.281,29.85 44.995,29.4 C44.709,28.95 44.313,28.725 43.805,28.725 C43.406,28.725 43.047,28.885 42.727,29.206 C42.407,29.527 42.217,29.94 42.156,30.448 L42.156,31.818 L42.157,31.818 Z" id="Shape" fill-rule="nonzero"></path>
                <path d="M48.846,32.631 L49.753,32.443 C49.955,33.21 50.592,33.593 51.665,33.593 C52.06,33.593 52.395,33.505 52.669,33.328 C52.943,33.151 53.081,32.901 53.081,32.58 C53.081,32.102 52.732,31.798 52.034,31.669 L50.747,31.424 C50.243,31.327 49.842,31.138 49.544,30.855 C49.246,30.572 49.097,30.2 49.097,29.736 C49.097,29.224 49.3,28.796 49.707,28.451 C50.114,28.106 50.661,27.934 51.35,27.934 C52.675,27.934 53.493,28.452 53.803,29.487 L52.933,29.674 C52.683,29.04 52.17,28.722 51.394,28.722 C51.007,28.722 50.69,28.801 50.442,28.96 C50.194,29.119 50.071,29.34 50.071,29.625 C50.071,30.074 50.387,30.357 51.02,30.473 L52.21,30.692 C53.455,30.918 54.077,31.522 54.077,32.503 C54.077,33.064 53.845,33.517 53.381,33.862 C52.917,34.207 52.301,34.38 51.531,34.38 C50.083,34.382 49.188,33.798 48.845,32.629 L48.846,32.631 Z" id="Path"></path>
                <path d="M59.137,32.391 L60.022,32.573 C59.862,33.095 59.547,33.528 59.081,33.87 C58.615,34.212 58.065,34.383 57.433,34.383 C56.6,34.383 55.926,34.09 55.411,33.502 C54.896,32.914 54.639,32.145 54.639,31.193 C54.639,30.22 54.907,29.434 55.443,28.835 C55.979,28.236 56.651,27.936 57.46,27.936 C58.257,27.936 58.898,28.212 59.383,28.764 C59.868,29.316 60.117,30.141 60.129,31.241 L55.696,31.241 C55.696,32.165 55.889,32.787 56.275,33.111 C56.661,33.435 57.069,33.595 57.5,33.595 C58.275,33.596 58.822,33.194 59.14,32.393 L59.137,32.391 Z M59.086,30.532 C59.078,30.189 59.022,29.886 58.917,29.619 C58.812,29.352 58.635,29.127 58.386,28.939 C58.136,28.752 57.837,28.658 57.487,28.658 C57.017,28.658 56.617,28.827 56.289,29.166 C55.961,29.505 55.777,29.96 55.737,30.532 L59.086,30.532 Z" id="Shape" fill-rule="nonzero"></path>
                <path d="M62.101,34.213 L61.149,34.213 L61.149,28.105 L61.982,28.105 L61.982,29.529 C62.275,28.862 62.571,28.429 62.867,28.232 C63.163,28.035 63.466,27.935 63.776,27.935 C63.872,27.935 63.997,27.942 64.151,27.957 L64.151,28.864 L63.958,28.864 C63.435,28.864 63.001,29.058 62.655,29.447 C62.309,29.836 62.124,30.346 62.1,30.979 L62.1,34.214 L62.101,34.213 Z" id="Path"></path>
                <polygon id="Path" points="70.062 28.105 67.953 34.213 66.967 34.213 64.787 28.105 65.84 28.105 67.535 33.07 69.218 28.105 70.062 28.105"></polygon>
                <path d="M71.841,25.966 L71.841,27.021 L70.823,27.021 L70.823,25.966 L71.841,25.966 Z M71.819,28.105 L71.819,34.213 L70.867,34.213 L70.867,28.105 L71.819,28.105 Z" id="Shape" fill-rule="nonzero"></path>
                <path d="M76.79,32.074 L77.645,32.225 C77.524,32.9 77.256,33.429 76.841,33.811 C76.426,34.193 75.908,34.384 75.288,34.384 C74.446,34.384 73.804,34.073 73.364,33.452 C72.924,32.831 72.702,32.071 72.702,31.175 C72.702,30.247 72.934,29.475 73.4,28.859 C73.866,28.243 74.499,27.936 75.3,27.936 C75.965,27.936 76.497,28.135 76.898,28.533 C77.299,28.931 77.548,29.445 77.644,30.075 L76.789,30.238 C76.628,29.23 76.141,28.726 75.328,28.726 C74.804,28.726 74.402,28.948 74.121,29.394 C73.84,29.84 73.698,30.416 73.698,31.125 C73.698,31.906 73.838,32.513 74.117,32.946 C74.396,33.379 74.79,33.596 75.297,33.596 C76.082,33.595 76.579,33.088 76.789,32.075 L76.79,32.074 Z" id="Path"></path>
                <path d="M83.012,32.391 L83.897,32.573 C83.736,33.095 83.422,33.528 82.956,33.87 C82.49,34.212 81.94,34.383 81.308,34.383 C80.475,34.383 79.801,34.09 79.285,33.502 C78.769,32.914 78.513,32.145 78.513,31.193 C78.513,30.22 78.781,29.434 79.317,28.835 C79.853,28.236 80.525,27.936 81.334,27.936 C82.131,27.936 82.772,28.212 83.257,28.764 C83.742,29.316 83.99,30.141 84.003,31.241 L79.57,31.241 C79.57,32.165 79.763,32.787 80.149,33.111 C80.535,33.435 80.943,33.595 81.374,33.595 C82.15,33.596 82.697,33.194 83.014,32.393 L83.012,32.391 Z M82.96,30.532 C82.952,30.189 82.896,29.886 82.791,29.619 C82.686,29.352 82.509,29.127 82.26,28.939 C82.01,28.752 81.711,28.658 81.361,28.658 C80.89,28.658 80.491,28.827 80.163,29.166 C79.835,29.505 79.651,29.96 79.611,30.532 L82.96,30.532 Z" id="Shape" fill-rule="nonzero"></path>
                <path d="M84.538,32.631 L85.446,32.443 C85.648,33.21 86.285,33.593 87.357,33.593 C87.752,33.593 88.086,33.505 88.361,33.328 C88.636,33.151 88.773,32.901 88.773,32.58 C88.773,32.102 88.424,31.798 87.726,31.669 L86.439,31.424 C85.935,31.327 85.534,31.138 85.236,30.855 C84.938,30.572 84.789,30.2 84.789,29.736 C84.789,29.224 84.992,28.796 85.399,28.451 C85.806,28.106 86.353,27.934 87.042,27.934 C88.367,27.934 89.185,28.452 89.495,29.487 L88.625,29.674 C88.375,29.04 87.862,28.722 87.086,28.722 C86.699,28.722 86.382,28.801 86.135,28.96 C85.888,29.119 85.763,29.34 85.763,29.625 C85.763,30.074 86.079,30.357 86.712,30.473 L87.902,30.692 C89.147,30.918 89.769,31.522 89.769,32.503 C89.769,33.064 89.537,33.517 89.073,33.862 C88.609,34.207 87.993,34.38 87.223,34.38 C85.774,34.382 84.88,33.798 84.537,32.629 L84.538,32.631 Z" id="Path"></path>
                <path d="M63.089,15.051 L63.089,13.584 C63.09,13.361 63.258,13.211 63.461,13.212 L70.037,13.211 C70.248,13.211 70.416,13.364 70.417,13.582 L70.416,14.84 C70.414,15.051 70.237,15.327 69.921,15.763 L66.515,20.626 C67.78,20.596 69.117,20.786 70.266,21.431 C70.525,21.577 70.595,21.793 70.615,22.004 L70.615,23.569 C70.615,23.785 70.379,24.035 70.131,23.905 C68.106,22.845 65.42,22.729 63.183,23.918 C62.954,24.04 62.715,23.794 62.715,23.578 L62.715,22.089 C62.715,21.851 62.72,21.443 62.96,21.08 L66.907,15.419 L63.471,15.418 C63.26,15.419 63.091,15.269 63.09,15.049 L63.089,15.051 Z" id="Path"></path>
                <path d="M39.555,24.214 L37.555,24.214 C37.365,24.201 37.212,24.058 37.197,23.876 L37.199,13.608 C37.199,13.402 37.372,13.239 37.585,13.239 L39.448,13.238 C39.643,13.248 39.799,13.395 39.812,13.583 L39.812,14.924 L39.85,14.924 C40.335,13.627 41.251,13.022 42.483,13.022 C43.734,13.022 44.519,13.627 45.079,14.924 C45.564,13.627 46.666,13.022 47.842,13.022 C48.683,13.022 49.597,13.368 50.158,14.146 C50.793,15.01 50.663,16.264 50.663,17.366 L50.661,23.846 C50.661,24.051 50.488,24.215 50.275,24.215 L48.277,24.215 C48.076,24.202 47.918,24.043 47.918,23.846 L47.917,18.403 C47.917,17.971 47.955,16.89 47.861,16.48 C47.712,15.789 47.264,15.594 46.685,15.594 C46.2,15.594 45.695,15.918 45.49,16.437 C45.285,16.956 45.304,17.82 45.304,18.403 L45.304,23.845 C45.304,24.05 45.131,24.214 44.918,24.214 L42.92,24.214 C42.719,24.201 42.561,24.042 42.561,23.845 L42.559,18.402 C42.559,17.257 42.746,15.571 41.326,15.571 C39.888,15.571 39.944,17.213 39.944,18.402 L39.943,23.844 C39.942,24.048 39.769,24.213 39.556,24.213 L39.555,24.214 Z" id="Path"></path>
                <path d="M75.246,13.022 C78.192,13.022 79.785,15.572 79.785,18.813 C79.785,21.946 78.026,24.431 75.246,24.431 C72.356,24.431 70.781,21.881 70.781,18.705 C70.781,15.507 72.374,13.022 75.246,13.022 Z M75.265,15.383 C73.801,15.383 73.708,17.393 73.708,18.646 C73.708,19.899 73.689,22.314 75.246,22.314 C76.784,22.314 76.858,20.418 76.858,19.1 C76.858,18.236 76.821,17.198 76.561,16.377 C76.339,15.663 75.893,15.383 75.264,15.383 L75.265,15.383 Z" id="Shape" fill-rule="nonzero"></path>
                <path d="M84.049,24.214 L82.056,24.214 C81.856,24.201 81.697,24.042 81.697,23.845 L81.694,13.573 C81.711,13.385 81.876,13.238 82.078,13.238 L83.934,13.237 C84.109,13.246 84.253,13.365 84.289,13.525 L84.289,15.096 L84.327,15.096 C84.887,13.691 85.672,13.021 87.054,13.021 C87.95,13.021 88.828,13.345 89.389,14.231 C89.912,15.052 89.912,16.435 89.912,17.429 L89.912,23.89 C89.889,24.072 89.727,24.213 89.529,24.213 L87.523,24.213 C87.338,24.201 87.188,24.065 87.167,23.89 L87.167,18.315 C87.167,17.191 87.298,15.549 85.916,15.549 C85.43,15.549 84.982,15.873 84.759,16.37 C84.479,16.997 84.441,17.623 84.441,18.315 L84.441,23.844 C84.438,24.049 84.265,24.213 84.052,24.213 L84.049,24.214 Z" id="Path"></path>
                <path d="M58.073,19.311 L58.073,18.878 C56.626,18.878 55.098,19.188 55.098,20.892 C55.098,21.758 55.547,22.343 56.314,22.343 C56.876,22.343 57.381,21.997 57.699,21.434 C58.092,20.741 58.073,20.091 58.073,19.312 L58.073,19.311 Z M60.09,24.189 C59.958,24.308 59.767,24.316 59.617,24.235 C58.953,23.682 58.834,23.427 58.47,22.901 C57.372,24.019 56.594,24.355 55.171,24.355 C53.487,24.355 52.177,23.316 52.177,21.237 C52.177,19.613 53.057,18.509 54.31,17.967 C55.395,17.49 56.911,17.404 58.072,17.274 L58.072,17.014 C58.072,16.537 58.11,15.975 57.829,15.563 C57.586,15.195 57.118,15.043 56.706,15.043 C55.943,15.043 55.264,15.434 55.098,16.244 C55.064,16.424 54.932,16.602 54.751,16.612 L52.812,16.402 C52.648,16.365 52.466,16.234 52.514,15.984 C52.959,13.631 55.084,12.921 56.988,12.921 C57.961,12.921 59.234,13.181 60.001,13.917 C60.975,14.826 60.881,16.039 60.881,17.36 L60.881,20.477 C60.881,21.415 61.271,21.826 61.636,22.331 C61.764,22.513 61.793,22.729 61.63,22.862 C61.221,23.205 60.495,23.836 60.096,24.191 L60.091,24.186 L60.09,24.189 Z" id="Shape" fill-rule="nonzero"></path>
                <path d="M32.074,19.311 L32.074,18.878 C30.627,18.878 29.099,19.188 29.099,20.892 C29.099,21.758 29.548,22.343 30.315,22.343 C30.877,22.343 31.382,21.997 31.7,21.434 C32.093,20.741 32.074,20.091 32.074,19.312 L32.074,19.311 Z M34.09,24.189 C33.958,24.308 33.767,24.316 33.617,24.235 C32.953,23.682 32.834,23.427 32.47,22.901 C31.372,24.019 30.594,24.355 29.172,24.355 C27.488,24.355 26.178,23.316 26.178,21.237 C26.178,19.613 27.058,18.509 28.311,17.967 C29.396,17.49 30.912,17.404 32.073,17.274 L32.073,17.014 C32.073,16.537 32.111,15.975 31.83,15.563 C31.587,15.195 31.119,15.043 30.707,15.043 C29.944,15.043 29.265,15.434 29.099,16.244 C29.065,16.424 28.933,16.602 28.752,16.612 L26.813,16.402 C26.649,16.365 26.467,16.234 26.515,15.984 C26.96,13.631 29.085,12.921 30.988,12.921 C31.962,12.921 33.234,13.181 34.001,13.917 C34.974,14.826 34.881,16.039 34.881,17.36 L34.881,20.477 C34.881,21.415 35.271,21.826 35.636,22.331 C35.764,22.513 35.793,22.729 35.63,22.862 C35.221,23.205 34.495,23.836 34.096,24.191 L34.09,24.186 L34.09,24.189 Z" id="Shape" fill-rule="nonzero"></path>
            </g>
            <g id="tech-Logos_heroku" transform="translate(464.604037, 9.142372)" fill="#3D3D3D">
                <path d="M31.307,14.344 C31.307,11.386 31.316,8.428 31.297,5.47 C31.294,5.015 31.419,4.859 31.878,4.89 C32.423,4.928 32.974,4.919 33.521,4.892 C33.892,4.873 33.982,5.018 33.979,5.366 C33.965,7.137 33.987,8.908 33.963,10.679 C33.957,11.145 34.085,11.188 34.49,11.051 C35.843,10.59 37.241,10.322 38.67,10.304 C40.783,10.277 42.05,11.489 42.07,13.593 C42.102,16.842 42.079,20.094 42.091,23.343 C42.093,23.668 42.006,23.802 41.661,23.787 C41.096,23.764 40.527,23.75 39.964,23.79 C39.512,23.822 39.422,23.648 39.424,23.232 C39.44,20.201 39.433,17.17 39.433,14.138 C39.433,12.84 39.065,12.547 37.771,12.658 C36.636,12.755 35.539,12.975 34.463,13.34 C34.096,13.464 33.962,13.65 33.964,14.05 C33.982,17.044 33.976,20.038 33.973,23.034 C33.972,23.879 34.069,23.77 33.201,23.78 C32.763,23.783 32.322,23.753 31.887,23.788 C31.439,23.826 31.295,23.684 31.298,23.217 C31.319,20.261 31.309,17.303 31.309,14.345 L31.307,14.344 Z" id="Path"></path>
                <path d="M91.326,23.775 C90.499,23.775 89.665,23.768 88.829,23.78 C88.532,23.783 88.485,23.551 88.386,23.368 C87.427,21.624 86.381,19.936 85.191,18.336 C84.847,17.874 84.487,17.699 83.916,17.717 C82.643,17.76 82.643,17.731 82.643,19.019 C82.643,20.443 82.631,21.867 82.651,23.291 C82.657,23.671 82.545,23.808 82.159,23.788 C81.575,23.759 80.99,23.764 80.406,23.786 C80.066,23.799 79.968,23.674 79.972,23.345 C79.988,22.104 79.978,20.862 79.978,19.621 C79.978,14.928 79.988,10.236 79.965,5.543 C79.963,5.002 80.117,4.836 80.638,4.89 C81.054,4.933 81.477,4.899 81.897,4.899 C82.643,4.899 82.644,4.899 82.644,5.621 C82.644,8.744 82.659,11.865 82.631,14.987 C82.626,15.539 82.778,15.633 83.317,15.698 C84.436,15.833 85.086,15.361 85.669,14.469 C86.457,13.26 87.243,12.054 87.868,10.752 C88.032,10.411 88.214,10.25 88.608,10.278 C89.135,10.315 89.667,10.287 90.196,10.287 C90.941,10.287 90.947,10.291 90.597,10.977 C89.841,12.461 88.921,13.841 87.951,15.191 C87.611,15.664 87.018,16.128 87.002,16.61 C86.988,17.051 87.601,17.508 87.934,17.963 C89.189,19.674 90.27,21.49 91.241,23.375 C91.295,23.483 91.386,23.589 91.327,23.776 L91.326,23.775 Z" id="Path"></path>
                <path d="M104.311,16.065 C104.311,17.816 104.303,19.57 104.319,21.322 C104.321,21.637 104.231,21.831 103.946,21.967 C101.737,23.019 99.451,23.773 96.971,23.78 C94.835,23.786 93.523,22.572 93.492,20.423 C93.444,17.174 93.481,13.924 93.471,10.675 C93.469,10.349 93.594,10.274 93.889,10.282 C94.491,10.299 95.095,10.314 95.695,10.278 C96.122,10.252 96.21,10.409 96.207,10.807 C96.192,13.947 96.198,17.087 96.199,20.226 C96.2,21.182 96.547,21.516 97.499,21.441 C98.739,21.343 99.949,21.122 101.11,20.64 C101.472,20.49 101.598,20.32 101.594,19.927 C101.578,16.916 101.596,13.903 101.575,10.892 C101.572,10.428 101.66,10.234 102.168,10.278 C102.73,10.327 103.3,10.311 103.864,10.282 C104.239,10.262 104.32,10.411 104.317,10.755 C104.303,12.524 104.31,14.295 104.31,16.066 L104.311,16.065 Z" id="Path"></path>
                <path d="M56.975,17.976 C56.975,16.261 56.987,14.543 56.966,12.828 C56.961,12.453 57.063,12.221 57.403,12.052 C59.216,11.151 61.108,10.534 63.139,10.387 C63.156,10.385 63.176,10.385 63.193,10.385 C64.422,10.303 64.422,10.303 64.422,11.515 C64.422,12.641 64.42,12.624 63.299,12.708 C62.24,12.788 61.213,13.02 60.216,13.392 C59.815,13.541 59.684,13.77 59.688,14.207 C59.71,17.201 59.687,20.196 59.711,23.189 C59.715,23.683 59.572,23.825 59.096,23.79 C58.551,23.749 58,23.756 57.453,23.788 C57.059,23.811 56.964,23.664 56.969,23.289 C56.987,21.516 56.977,19.745 56.977,17.974 L56.975,17.976 Z" id="Path"></path>
                <path d="M25.21,3.462 C25.226,2.161 24.279,0.821 22.568,0.832 C16.215,0.872 9.861,0.873 3.507,0.831 C1.784,0.819 0.838,2.154 0.845,3.497 C0.88,10.727 0.861,17.957 0.862,25.186 C0.862,26.86 1.836,27.829 3.516,27.829 C9.851,27.831 16.187,27.831 22.522,27.829 C24.232,27.829 25.195,26.865 25.195,25.149 C25.197,21.552 25.196,17.956 25.196,14.359 C25.195,10.727 25.167,7.093 25.21,3.46 L25.21,3.462 Z M23.863,25.063 C23.863,26.111 23.481,26.5 22.451,26.5 C16.169,26.501 9.887,26.501 3.605,26.5 C2.577,26.5 2.195,26.109 2.194,25.062 C2.192,21.484 2.193,17.904 2.193,14.325 C2.193,10.764 2.192,7.203 2.194,3.642 C2.194,2.564 2.573,2.178 3.633,2.178 C9.897,2.177 16.16,2.177 22.424,2.178 C23.484,2.178 23.862,2.563 23.862,3.644 C23.863,10.783 23.863,17.924 23.862,25.063 L23.863,25.063 Z" id="Shape" fill-rule="nonzero"></path>
                <path d="M47.308,17.719 C48.476,17.754 49.645,17.731 50.813,17.731 C52.036,17.731 53.259,17.726 54.482,17.734 C54.757,17.736 54.933,17.698 54.923,17.356 C54.897,16.28 54.954,15.204 54.775,14.133 C54.4,11.896 53.179,10.578 50.956,10.34 C48.987,10.128 47.027,10.392 45.12,10.97 C44.831,11.058 44.754,11.273 44.69,11.539 C44.05,14.252 43.961,17.001 44.298,19.747 C44.628,22.438 46.15,23.691 48.872,23.784 C50.758,23.848 52.517,23.397 54.231,22.661 C54.559,22.52 54.618,22.328 54.542,22.023 C54.45,21.651 54.336,21.28 54.297,20.903 C54.248,20.427 54.063,20.419 53.661,20.567 C52.201,21.106 50.707,21.501 49.129,21.451 C47.782,21.406 47.262,20.973 46.997,19.653 C46.908,19.209 46.887,18.75 46.816,18.301 C46.753,17.903 46.824,17.705 47.308,17.72 L47.308,17.719 Z M46.864,15.348 C46.934,14.641 46.972,13.931 47.012,13.222 C47.025,13.005 47.117,12.862 47.327,12.844 C48.467,12.75 49.597,12.494 50.753,12.665 C51.636,12.796 52.145,13.307 52.395,14.135 C52.825,15.562 52.75,15.67 51.309,15.67 C50.78,15.67 50.25,15.67 49.721,15.67 C48.881,15.67 48.042,15.665 47.203,15.674 C46.967,15.676 46.835,15.65 46.865,15.349 L46.864,15.348 Z" id="Shape" fill-rule="nonzero"></path>
                <path d="M77.804,15.058 C77.474,12.637 76.272,11.129 74.161,10.565 C73.22,10.314 72.257,10.253 71.286,10.297 C68.483,10.425 66.636,11.946 66.015,14.674 C65.608,16.465 65.653,18.266 66.107,20.038 C66.562,21.815 67.661,23.008 69.473,23.506 C70.53,23.796 71.601,23.82 72.677,23.759 C75.171,23.621 76.961,22.138 77.599,19.729 C77.845,18.804 77.928,17.865 77.916,16.913 C77.913,16.292 77.889,15.676 77.805,15.057 L77.804,15.058 Z M74.861,19.555 C74.377,21.013 73.291,21.799 71.78,21.781 C70.259,21.763 69.232,21.018 68.809,19.52 C68.323,17.799 68.312,16.059 68.904,14.357 C69.396,12.943 70.389,12.322 71.989,12.345 C73.465,12.366 74.374,13.029 74.849,14.432 C75.135,15.273 75.21,16.14 75.179,16.971 C75.207,17.881 75.134,18.731 74.86,19.555 L74.861,19.555 Z" id="Shape" fill-rule="nonzero"></path>
                <path d="M6.918,10.724 C6.918,8.953 6.931,7.181 6.909,5.41 C6.904,4.994 7.033,4.867 7.44,4.89 C8.004,4.922 8.573,4.926 9.137,4.889 C9.567,4.861 9.65,5.031 9.646,5.424 C9.629,7.561 9.637,9.697 9.638,11.834 C9.638,12.562 9.639,12.562 10.308,12.354 C11.691,11.924 13.111,11.65 14.553,11.639 C17.257,11.618 19.079,13.092 19.13,16.012 C19.172,18.44 19.131,20.87 19.146,23.299 C19.148,23.687 19.022,23.805 18.645,23.788 C18.062,23.762 17.475,23.757 16.893,23.79 C16.492,23.811 16.41,23.652 16.412,23.284 C16.426,20.874 16.42,18.464 16.419,16.053 C16.418,14.855 15.918,14.338 14.728,14.348 C12.593,14.368 10.601,15.001 8.657,15.819 C8.27,15.983 7.891,16.16 7.51,16.336 C6.921,16.609 6.919,16.611 6.918,15.984 C6.917,14.23 6.918,12.477 6.918,10.724 Z" id="Path"></path>
                <path d="M14.374,9.287 C15.345,7.951 16.034,6.638 16.342,5.149 C16.383,4.953 16.518,4.897 16.705,4.898 C17.38,4.903 18.054,4.911 18.729,4.895 C19.055,4.887 19.095,5.057 19.05,5.308 C18.79,6.739 18.17,7.998 17.226,9.101 C17.126,9.218 17.012,9.289 16.851,9.288 C16.072,9.285 15.294,9.286 14.374,9.286 L14.374,9.287 Z" id="Path"></path>
                <path d="M6.96,18.489 C7.387,18.714 7.661,19.03 7.97,19.302 C8.558,19.822 9.145,20.342 9.736,20.858 C9.893,20.995 9.982,21.101 9.772,21.284 C8.853,22.087 7.945,22.902 6.961,23.778 C6.961,21.967 6.961,20.258 6.961,18.489 L6.96,18.489 Z" id="Path"></path>
            </g>
            <g id="tech-Logos_js" transform="translate(625.604037, 5.142372)" fill="#3D3D3D" fill-rule="nonzero">
                <path d="M0.495,0.802 L3.388,33.25 L16.37,36.854 L29.388,33.245 L32.284,0.802 L0.495,0.802 Z M15.32,29.401 C5.425,27.428 15.32,29.401 5.388,27.43 L4.831,21.182 C6.162,21.182 8.825,21.182 8.825,21.182 L9.108,24.355 L11.324,24.679 L11.324,11.137 L6.801,11.137 L6.433,7.156 L15.32,7.156 L15.32,29.401 Z M27.618,11.136 L21.655,11.136 L21.655,15.211 L27.263,15.211 L26.16,27.429 L17.494,29.401 L17.494,25.252 L22.44,24.351 L22.919,19.19 L17.493,19.19 L17.493,7.155 L27.97,7.155 L27.617,11.135 L27.618,11.136 Z" id="Shape"></path>
                <path d="M16.389,3.455 L16.389,34.095 L26.908,31.179 L29.383,3.455 L16.389,3.455 Z M27.263,15.211 L26.16,27.429 L17.494,29.401 L17.494,25.252 L22.44,24.351 L22.919,19.19 L17.493,19.19 L17.493,7.155 L27.97,7.155 L27.617,11.135 L21.654,11.135 L21.654,15.21 L27.262,15.21 L27.263,15.211 Z" id="Shape"></path>
            </g>
            <g id="tech-Logos_python" transform="translate(780.604037, 10.142372)" fill="#3D3D3D">
                <path d="M37.451,13.102 C37.451,10.094 36.593,8.55 34.878,8.465 C34.196,8.433 33.529,8.542 32.881,8.793 C32.364,8.978 32.015,9.162 31.832,9.347 L31.832,16.527 C32.929,17.216 33.904,17.536 34.753,17.485 C36.551,17.366 37.451,15.906 37.451,13.102 Z M39.567,13.227 C39.567,14.755 39.209,16.024 38.488,17.033 C37.685,18.175 36.571,18.763 35.148,18.795 C34.075,18.829 32.969,18.493 31.831,17.789 L31.831,24.315 L29.99,23.658 L29.99,9.173 C30.292,8.803 30.681,8.484 31.152,8.214 C32.248,7.575 33.578,7.247 35.145,7.232 L35.171,7.258 C36.602,7.24 37.706,7.828 38.481,9.02 C39.204,10.113 39.566,11.515 39.566,13.228 L39.567,13.227 Z" id="Shape" fill-rule="nonzero"></path>
                <path d="M50.815,17.51 C50.815,19.56 50.61,20.979 50.199,21.769 C49.787,22.558 49.001,23.189 47.841,23.657 C46.901,24.027 45.884,24.229 44.793,24.263 L44.489,23.103 C45.599,22.952 46.38,22.801 46.833,22.65 C47.725,22.348 48.337,21.885 48.673,21.265 C48.943,20.76 49.076,19.795 49.076,18.368 L49.076,17.889 C47.818,18.461 46.499,18.744 45.12,18.744 C44.214,18.744 43.415,18.461 42.726,17.889 C41.953,17.267 41.566,16.478 41.566,15.522 L41.566,7.862 L43.406,7.232 L43.406,14.942 C43.406,15.765 43.672,16.4 44.203,16.845 C44.734,17.29 45.423,17.503 46.267,17.488 C47.111,17.47 48.015,17.144 48.976,16.506 L48.976,7.511 L50.816,7.511 L50.816,17.513 L50.815,17.51 Z" id="Path"></path>
                <path d="M58,18.694 C57.781,18.712 57.579,18.72 57.394,18.72 C56.353,18.72 55.542,18.473 54.962,17.975 C54.384,17.477 54.094,16.791 54.094,15.915 L54.094,8.666 L52.833,8.666 L52.833,7.509 L54.094,7.509 L54.094,4.434 L55.932,3.78 L55.932,7.509 L58,7.509 L58,8.666 L55.932,8.666 L55.932,15.864 C55.932,16.555 56.117,17.043 56.488,17.33 C56.807,17.566 57.311,17.7 58,17.735 L58,18.694 Z" id="Path"></path>
                <path d="M69.142,18.543 L67.301,18.543 L67.301,11.439 C67.301,10.716 67.132,10.094 66.795,9.575 C66.406,8.987 65.867,8.693 65.174,8.693 C64.33,8.693 63.275,9.138 62.008,10.028 L62.008,18.544 L60.168,18.544 L60.168,1.563 L62.008,0.983 L62.008,8.717 C63.184,7.862 64.469,7.432 65.864,7.432 C66.838,7.432 67.628,7.76 68.232,8.415 C68.838,9.069 69.141,9.885 69.141,10.859 L69.141,18.543 L69.142,18.543 Z" id="Path"></path>
                <path d="M78.924,12.812 C78.924,11.656 78.705,10.702 78.267,9.947 C77.747,9.027 76.94,8.541 75.849,8.491 C73.831,8.608 72.824,10.053 72.824,12.824 C72.824,14.094 73.034,15.155 73.456,16.008 C73.996,17.093 74.805,17.629 75.884,17.611 C77.91,17.595 78.923,15.996 78.923,12.812 L78.924,12.812 Z M80.94,12.824 C80.94,14.469 80.519,15.839 79.679,16.932 C78.755,18.156 77.478,18.77 75.849,18.77 C74.234,18.77 72.976,18.156 72.067,16.932 C71.244,15.839 70.833,14.469 70.833,12.824 C70.833,11.278 71.278,9.977 72.168,8.918 C73.108,7.794 74.344,7.231 75.873,7.231 C77.402,7.231 78.646,7.794 79.604,8.918 C80.494,9.977 80.939,11.278 80.939,12.824 L80.94,12.824 Z" id="Shape" fill-rule="nonzero"></path>
                <path d="M91.491,18.543 L89.651,18.543 L89.651,11.037 C89.651,10.214 89.403,9.571 88.908,9.108 C88.413,8.647 87.752,8.423 86.929,8.441 C86.055,8.457 85.224,8.743 84.434,9.296 L84.434,18.542 L82.593,18.542 L82.593,9.068 C83.652,8.297 84.627,7.793 85.517,7.558 C86.357,7.339 87.097,7.23 87.736,7.23 C88.173,7.23 88.584,7.272 88.97,7.357 C89.693,7.524 90.281,7.834 90.734,8.289 C91.24,8.792 91.491,9.396 91.491,10.103 L91.491,18.542 L91.491,18.543 Z" id="Path"></path>
                <path d="M11.814,1.631 C10.867,1.636 9.963,1.716 9.167,1.857 C6.823,2.271 6.397,3.138 6.397,4.736 L6.397,6.847 L11.936,6.847 L11.936,7.551 L4.319,7.551 C2.709,7.551 1.3,8.518 0.859,10.359 C0.35,12.469 0.328,13.785 0.859,15.988 C1.253,17.628 2.193,18.796 3.802,18.796 L5.706,18.796 L5.706,16.265 C5.706,14.437 7.288,12.824 9.166,12.824 L14.698,12.824 C16.238,12.824 17.468,11.556 17.468,10.01 L17.468,4.736 C17.468,3.235 16.202,2.107 14.698,1.857 C13.748,1.699 12.76,1.627 11.813,1.632 L11.814,1.631 Z M8.819,3.328 C9.391,3.328 9.858,3.803 9.858,4.387 C9.858,4.968 9.391,5.44 8.819,5.44 C8.245,5.44 7.78,4.97 7.78,4.387 C7.78,3.803 8.245,3.328 8.819,3.328 Z" id="Shape" fill-rule="nonzero"></path>
                <path d="M18.16,7.55 L18.16,10.01 C18.16,11.917 16.543,13.522 14.7,13.522 L9.168,13.522 C7.653,13.522 6.398,14.819 6.398,16.337 L6.398,21.611 C6.398,23.112 7.703,23.995 9.168,24.425 C10.921,24.941 12.603,25.034 14.7,24.425 C16.095,24.021 17.47,23.209 17.47,21.611 L17.47,19.5 L11.938,19.5 L11.938,18.796 L20.24,18.796 C21.85,18.796 22.449,17.673 23.01,15.988 C23.588,14.253 23.564,12.584 23.01,10.359 C22.612,8.756 21.853,7.551 20.24,7.551 L18.161,7.551 L18.16,7.55 Z M15.048,20.907 C15.622,20.907 16.087,21.377 16.087,21.96 C16.087,22.544 15.622,23.019 15.048,23.019 C14.476,23.019 14.009,22.544 14.009,21.96 C14.009,21.378 14.476,20.907 15.048,20.907 Z" id="Shape" fill-rule="nonzero"></path>
                <path d="M95.075,5.868 L95.397,5.868 L95.397,3.844 L96.161,3.844 L96.161,3.603 L94.309,3.603 L94.309,3.844 L95.074,3.844 L95.074,5.868 L95.075,5.868 Z M96.448,5.868 L96.723,5.868 L96.723,4.019 L97.322,5.867 L97.629,5.867 L98.253,4.025 L98.253,5.867 L98.554,5.867 L98.554,3.602 L98.156,3.602 L97.474,5.542 L96.893,3.602 L96.448,3.602 L96.448,5.868 Z" id="Shape" fill-rule="nonzero"></path>
            </g>
            <g id="tech-Logos_solr" transform="translate(938.604037, 4.142372)" fill="#3D3D3D">
                <path d="M50.394,0.484 C48.736,0.685 47.139,1.119 45.64,1.76 L42.206,21.603 L50.394,0.483 L50.394,0.484 Z" id="Path"></path>
                <path d="M58.559,1.435 C57.412,1.014 56.206,0.704 54.947,0.526 C54.453,0.456 53.963,0.414 53.475,0.386 L43.426,22.118 L58.559,1.434 L58.559,1.435 Z" id="Path"></path>
                <path d="M42.867,3.257 C41.634,4.072 40.504,5.037 39.511,6.137 L40.897,21.417 L42.867,3.256 L42.867,3.257 Z" id="Path"></path>
                <path d="M37.589,8.709 C36.97,9.718 36.447,10.795 36.039,11.935 L39.585,21.58 L37.589,8.709 Z" id="Path"></path>
                <path d="M69.619,21.52 C69.705,21.116 69.782,20.71 69.84,20.295 C70.029,18.951 70.054,17.624 69.943,16.328 L45.76,25.217 L69.619,21.52 Z" id="Path"></path>
                <path d="M35.245,15.022 C35.223,15.156 35.197,15.287 35.178,15.423 C35.088,16.066 35.036,16.704 35.017,17.338 L38.357,22.075 L35.245,15.022 Z" id="Path"></path>
                <path d="M65.441,6.065 C64.251,4.76 62.861,3.632 61.31,2.73 L44.468,22.933 L65.44,6.065 L65.441,6.065 Z" id="Path"></path>
                <path d="M66.22,28.733 C67.239,27.451 68.086,26.018 68.718,24.463 L45.92,26.531 L66.219,28.732 L66.22,28.733 Z" id="Path"></path>
                <path d="M69.42,13.333 C68.955,11.601 68.226,9.964 67.276,8.473 L45.264,23.991 L69.419,13.333 L69.42,13.333 Z" id="Path"></path>
                <path d="M64.05,31.01 L45.737,27.842 L60.348,33.505 C61.685,32.834 62.928,31.994 64.051,31.01 L64.05,31.01 Z" id="Path"></path>
                <path d="M44.45,33.397 C44.776,33.564 45.107,33.723 45.444,33.87 L43.349,30.899 L44.45,33.396 L44.45,33.397 Z" id="Path"></path>
                <path d="M53.771,35.316 C55.001,35.228 56.203,35.008 57.362,34.674 L45.221,29.06 L53.772,35.316 L53.771,35.316 Z" id="Path"></path>
                <path d="M48.201,34.821 C48.811,34.975 49.435,35.1 50.073,35.19 C50.242,35.214 50.411,35.23 50.579,35.248 L44.405,30.102 L48.201,34.822 L48.201,34.821 Z" id="Path"></path>
                <path d="M35.169,20.221 C35.215,20.561 35.272,20.9 35.336,21.234 L37.3,22.871 L35.168,20.221 L35.169,20.221 Z" id="Path"></path>
                <path d="M11.818,21.401 C11.818,22.175 11.876,22.967 11.973,23.799 C10.02,22.967 8.241,22.503 6.462,22.503 C4.819,22.503 3.987,23.025 3.987,23.992 C3.987,25.036 5.089,25.249 7.333,25.655 C10.852,26.294 12.631,27.492 12.631,30.663 C12.631,33.796 10.562,35.594 6.657,35.594 C4.434,35.594 2.384,35.324 0.546,34.801 C0.507,33.331 0.45,32.055 0.295,30.953 C2.345,31.959 4.414,32.442 6.115,32.442 C7.913,32.442 8.764,32.016 8.764,30.972 C8.764,29.773 7.758,29.618 5.941,29.231 C4.258,28.864 2.905,28.612 1.88,27.877 C0.836,27.123 0.198,25.847 0.198,24.397 C0.198,21.439 2.403,19.563 6.579,19.563 C8.068,19.563 9.846,19.795 11.839,20.317 C11.819,20.704 11.819,21.09 11.819,21.399 L11.818,21.401 Z" id="Path"></path>
                <path d="M26.669,29.678 C26.669,33.294 24.194,35.595 20.327,35.595 C16.46,35.595 13.985,33.294 13.985,29.678 C13.985,26.062 16.46,23.742 20.327,23.742 C24.194,23.742 26.669,26.062 26.669,29.678 Z M17.638,29.678 C17.638,31.728 18.644,32.83 20.325,32.83 C22.006,32.83 23.012,31.728 23.012,29.678 C23.012,27.628 22.006,26.507 20.325,26.507 C18.644,26.507 17.638,27.628 17.638,29.678 Z" id="Shape" fill-rule="nonzero"></path>
                <polygon id="Path" points="32.257 20.01 32.257 35.15 28.641 35.15 28.641 20.01 32.257 20.01"></polygon>
                <path d="M42.273,27.687 C41.964,27.242 41.403,26.972 40.803,26.972 C40.049,26.972 39.372,27.339 38.638,28.074 L38.638,35.151 L35.022,35.151 L35.022,24.206 L37.98,24.206 L38.193,26.274 C38.908,24.65 40.165,23.741 41.442,23.741 C42.235,23.741 42.989,24.031 43.685,24.61 L42.273,27.686 L42.273,27.687 Z" id="Path"></path>
                <path d="M3.51,10.485 L5.935,15.602 L4.846,15.602 L4.385,14.603 L1.614,14.603 L1.165,15.602 L0.231,15.602 L2.602,10.485 L3.511,10.485 L3.51,10.485 Z M1.942,13.868 L4.049,13.868 L3.001,11.554 L1.942,13.868 Z" id="Shape" fill-rule="nonzero"></path>
                <path d="M7.617,16.408 L6.815,16.408 L6.815,11.954 L7.443,11.954 L7.556,12.392 C7.933,11.999 8.328,11.799 8.778,11.799 C9.652,11.799 10.292,12.553 10.292,13.61 C10.292,14.757 9.628,15.492 8.676,15.492 C8.269,15.492 7.916,15.35 7.616,15.073 C7.616,15.074 7.616,16.407 7.616,16.407 L7.617,16.408 Z M8.503,14.81 C9.084,14.81 9.473,14.365 9.473,13.637 C9.473,12.966 9.126,12.555 8.557,12.555 C8.216,12.555 7.899,12.735 7.617,13.097 L7.617,14.334 C7.838,14.649 8.144,14.811 8.503,14.811 L8.503,14.81 Z" id="Shape" fill-rule="nonzero"></path>
                <path d="M14.088,14.519 C14.088,14.861 14.094,15.041 14.465,15.202 L13.783,15.75 C13.603,15.686 13.49,15.55 13.388,15.324 C12.969,15.607 12.544,15.75 12.101,15.75 C11.412,15.75 11.017,15.363 11.017,14.732 C11.017,13.869 11.706,13.378 13.058,13.378 L13.286,13.378 L13.286,13.017 C13.286,12.65 13.106,12.495 12.628,12.495 C12.233,12.495 11.832,12.605 11.479,12.824 L11.281,12.173 C11.736,11.916 12.221,11.799 12.772,11.799 C13.275,11.799 13.652,11.948 13.85,12.186 C14.071,12.45 14.089,12.76 14.089,13.178 C14.088,13.179 14.088,14.519 14.088,14.519 Z M13.058,13.971 C12.244,13.971 11.836,14.19 11.836,14.648 C11.836,14.932 12.028,15.112 12.375,15.112 C12.632,15.112 12.949,15.015 13.285,14.809 L13.285,13.971 L13.057,13.971 L13.058,13.971 Z" id="Shape" fill-rule="nonzero"></path>
                <path d="M18.009,12.901 C17.668,12.63 17.302,12.495 16.949,12.495 C16.345,12.495 15.955,12.953 15.955,13.771 C15.955,14.577 16.344,15.015 17.008,15.015 C17.379,15.015 17.733,14.886 18.073,14.622 L17.971,15.512 C17.552,15.679 17.175,15.751 16.857,15.751 C15.792,15.751 15.133,15.016 15.133,13.785 C15.133,12.522 15.779,11.8 16.929,11.8 C17.282,11.8 17.635,11.871 17.946,12.007 L18.007,12.902 L18.009,12.901 Z" id="Path"></path>
                <path d="M19.991,10.555 L19.991,12.288 C20.392,11.966 20.763,11.798 21.159,11.798 C21.991,11.798 22.458,12.333 22.458,13.371 L22.458,15.601 L21.656,15.601 L21.656,13.448 C21.656,12.849 21.446,12.552 20.938,12.552 C20.549,12.552 20.267,12.694 19.993,13.029 L19.993,15.601 L19.191,15.601 L19.191,10.554 L19.992,10.554 L19.991,10.555 Z" id="Path"></path>
                <path d="M24.265,13.9 C24.271,14.609 24.72,15.041 25.492,15.041 C25.923,15.041 26.342,14.944 26.737,14.757 L26.725,15.498 C26.342,15.659 25.869,15.749 25.396,15.749 C24.187,15.749 23.462,14.956 23.462,13.771 C23.462,12.637 24.144,11.799 25.192,11.799 C26.138,11.799 26.772,12.508 26.772,13.694 C26.772,13.758 26.772,13.829 26.766,13.901 L24.265,13.901 L24.265,13.9 Z M25.175,12.457 C24.702,12.457 24.337,12.818 24.283,13.391 L25.953,13.391 C25.93,12.798 25.631,12.457 25.175,12.457 Z" id="Shape" fill-rule="nonzero"></path>
            </g>
        </g>
    </g>
</svg>