<?xml version="1.0" encoding="UTF-8"?>
<svg width="119px" height="27px" viewBox="0 0 119 27" version="1.1" xmlns="http://www.w3.org/2000/svg" xmlns:xlink="http://www.w3.org/1999/xlink">
    <!-- Generator: Sketch 52.5 (67469) - http://www.bohemiancoding.com/sketch -->
    <title>amazon-echo</title>
    <desc>Created with Sketch.</desc>
    <g id="Page-1" stroke="none" stroke-width="1" fill="none" fill-rule="evenodd">
        <g id="amazon-echo" transform="translate(0.355557, 0.586855)" fill="#1B1B1B">
            <path d="M42.9977981,21.7895281 C38.9710566,24.762102 33.1317078,26.3414413 28.1056104,26.3414413 C21.0591315,26.3414413 14.715006,23.7359777 9.91325376,19.4020362 C9.5372206,19.0616943 9.87246372,18.596433 10.3249782,18.8602935 C15.5053129,21.8749322 21.9106235,23.6900889 28.5275323,23.6900889 C32.9902174,23.6900889 37.896494,22.7633902 42.4114413,20.8488078 C43.0933997,20.5594535 43.6644603,21.2962235 42.9977981,21.7895281" id="Path"></path>
            <path d="M44.6740137,19.8762204 C44.1577648,19.2172063 41.2693203,19.5639216 39.9716872,19.7194337 C39.5790831,19.7678718 39.517898,19.4237059 39.8722615,19.1738669 C42.1768986,17.5550123 45.9538011,18.0228231 46.3935687,18.5645657 C46.8358857,19.1114072 46.277572,22.8985072 44.1169747,24.7060157 C43.784281,24.9838979 43.4694329,24.836034 43.6160221,24.4689236 C44.1004038,23.2541453 45.1902626,20.5365091 44.6740137,19.8762204" id="Path"></path>
            <path d="M40.0621901,7.73608551 L40.0621901,6.16439439 C40.0647395,5.92347823 40.2431959,5.76414215 40.4611676,5.76541684 L47.5127453,5.76414215 C47.7383652,5.76414215 47.919371,5.92857699 47.919371,6.16057032 L47.919371,7.51046562 C47.9168216,7.73608551 47.7256183,8.03181329 47.3878259,8.50089871 L43.7358428,13.71565 C45.0908369,13.6837828 46.5261363,13.887733 47.7574856,14.5786143 C48.0353677,14.735401 48.1105743,14.9661196 48.132244,15.1930142 L48.132244,16.8717792 C48.132244,17.1024978 47.878581,17.3714571 47.6121711,17.2312414 C45.4426509,16.0942191 42.5618546,15.9705743 40.1628905,17.245263 C39.9181503,17.3752812 39.6606632,17.1114207 39.6606632,16.880702 L39.6606632,15.2847918 C39.6606632,15.0298541 39.6657619,14.5926359 39.923249,14.2038558 L44.1552154,8.13378838 L40.4700905,8.13378838 C40.2444706,8.13378838 40.0647395,7.97190292 40.0621901,7.73608551" id="Path"></path>
            <path d="M14.3415222,17.5626604 L12.1974958,17.5626604 C11.9935457,17.5486389 11.8303855,17.3956762 11.8138146,17.2006489 L11.8163639,6.19116285 C11.8163639,5.97064171 12.0011938,5.79473468 12.2306378,5.79473468 L14.2293496,5.79345999 C14.4383985,5.8036575 14.6053827,5.96171889 14.6181296,6.1631197 L14.6181296,7.59969383 L14.6589197,7.59969383 C15.1789926,6.21028318 16.1605029,5.56146665 17.4823551,5.56146665 C18.8246022,5.56146665 19.6658967,6.21028318 20.2650004,7.59969383 C20.7863481,6.21028318 21.9667098,5.56146665 23.2299263,5.56146665 C24.1311311,5.56146665 25.1113667,5.93240105 25.7117451,6.76604744 C26.3937035,7.69402079 26.2534878,9.03626795 26.2534878,10.2179043 L26.2509384,17.1662323 C26.2509384,17.3854787 26.0661085,17.5613858 25.8366646,17.5613858 L23.6939129,17.5613858 C23.4797652,17.5473642 23.3102316,17.3778306 23.3102316,17.1662323 L23.3089569,11.3281582 C23.3089569,10.8654462 23.349747,9.70675419 23.2490466,9.2669866 C23.0884358,8.5251178 22.6091529,8.31734355 21.9883795,8.31734355 C21.4683065,8.31734355 20.9278385,8.66405886 20.7073174,9.21982312 C20.4867962,9.77686207 20.5071913,10.702286 20.5071913,11.3281582 L20.5071913,17.1649576 C20.5071913,17.384204 20.3223614,17.5601111 20.0929174,17.5601111 L17.9514405,17.5601111 C17.7360181,17.5460895 17.5664845,17.3765559 17.5664845,17.1649576 L17.5639351,11.3268835 C17.5639351,10.0993583 17.7627866,8.29312446 16.242083,8.29312446 C14.6997097,8.29312446 14.7608948,10.0534695 14.7608948,11.3268835 L14.7596201,17.1636829 C14.755796,17.3867534 14.5709661,17.5626604 14.3415222,17.5626604" id="Path"></path>
            <path d="M54.0098335,7.80874277 C52.4279448,7.80874277 52.3272444,9.96296661 52.3272444,11.3064885 C52.3272444,12.6500103 52.3068494,15.5231586 53.9894385,15.5231586 C55.6516325,15.5231586 55.7319379,13.2057746 55.7319379,11.7934195 C55.7319379,10.8667209 55.6911478,9.75519236 55.4107163,8.87438249 C55.1698002,8.10956929 54.6892425,7.80874277 54.0098335,7.80874277 M53.9894385,5.56146665 C57.1736107,5.56146665 58.8957151,8.29567384 58.8957151,11.7704751 C58.8957151,15.1292798 56.9938796,17.7933791 53.9894385,17.7933791 C50.8664512,17.7933791 49.1634672,15.0591719 49.1634672,11.6544785 C49.1621925,8.22556596 50.8855716,5.56146665 53.9894385,5.56146665" id="Shape" fill-rule="nonzero"></path>
            <path d="M63.0244317,17.5626604 L60.8867788,17.5626604 C60.6726311,17.5486389 60.5018229,17.3791053 60.5018229,17.167507 L60.4992735,6.15419688 C60.5171191,5.95152138 60.6943008,5.79473468 60.9109979,5.79473468 L62.9007869,5.79345999 C63.0881662,5.8036575 63.2424035,5.93112636 63.2819188,6.10193464 L63.2819188,7.78579837 L63.3227089,7.78579837 C63.9230872,6.27911637 64.7643818,5.56146665 66.24557,5.56146665 C67.2066852,5.56146665 68.1474055,5.90945666 68.7490585,6.85909971 C69.3099215,7.73863489 69.3099215,9.22109781 69.3099215,10.2880122 L69.3099215,17.2146704 C69.2857024,17.4096978 69.1110701,17.5613858 68.8981971,17.5613858 L66.7477973,17.5613858 C66.5489459,17.5486389 66.3883351,17.4020497 66.3666654,17.2146704 L66.3666654,11.2376553 C66.3666654,10.0330745 66.5068812,8.27272944 65.0244182,8.27272944 C64.5030706,8.27272944 64.0225129,8.61944476 63.7828715,9.15226462 C63.4833196,9.82402555 63.4425296,10.4957865 63.4425296,11.2376553 L63.4425296,17.1662323 C63.4374308,17.3867534 63.252601,17.5626604 63.0244317,17.5626604" id="Path"></path>
            <path d="M36.6039597,17.5346173 C36.4624693,17.6620862 36.2572444,17.671009 36.0966336,17.5843301 C35.3840827,16.9928746 35.2566138,16.7188165 34.8665591,16.1554042 C33.6900214,17.3548862 32.8563751,17.7143484 31.3305727,17.7143484 C29.5243389,17.7143484 28.119632,16.6002705 28.119632,14.37084 C28.119632,12.6296153 29.0641763,11.4454295 30.4076981,10.8654462 C31.5714889,10.354296 33.1979916,10.2612438 34.4420878,10.1223027 L34.4420878,9.84314588 C34.4420878,9.33199572 34.4828778,8.72906799 34.1807766,8.28802571 C33.9194654,7.89287222 33.4185128,7.72971207 32.9761958,7.72971207 C32.1591204,7.72971207 31.4312731,8.14908464 31.251542,9.01842231 C31.2145761,9.21217499 31.0730856,9.40337829 30.8793329,9.4135758 L28.8003157,9.18795591 C28.6244087,9.14716587 28.4293813,9.0082248 28.4803689,8.7392655 C28.9583771,6.21665662 31.2362458,5.4543928 33.2770223,5.4543928 C34.3209923,5.4543928 35.6849092,5.73227493 36.5083581,6.5225819 C37.5523281,7.49771873 37.4516277,8.79790117 37.4516277,10.2140803 L37.4516277,13.556314 C37.4516277,14.5620433 37.8697256,15.0030856 38.261055,15.5435536 C38.3987214,15.738581 38.4293139,15.9705743 38.2546816,16.1133394 C37.8161887,16.4804498 37.0386286,17.1560348 36.6103332,17.5371667 L36.6039597,17.5346173 Z M34.4420878,12.3045697 L34.4420878,11.840583 C32.8907917,11.840583 31.251542,12.1720021 31.251542,13.9986309 C31.251542,14.927879 31.7333743,15.5550258 32.5555485,15.5550258 C33.1572016,15.5550258 33.6989443,15.1840914 34.0405608,14.579889 C34.4624828,13.8367455 34.4420878,13.1407655 34.4420878,12.3045697 Z" id="Shape" fill-rule="nonzero"></path>
            <path d="M8.48432776,17.5346173 C8.34283732,17.6620862 8.13761244,17.671009 7.97700167,17.5843301 C7.26445071,16.9928746 7.13698184,16.7188165 6.74692711,16.1554042 C5.56911478,17.3548862 4.73546839,17.7143484 3.21094075,17.7143484 C1.40343222,17.7143484 -1.13686838e-13,16.6002705 -1.13686838e-13,14.37084 C-1.13686838e-13,12.6296153 0.943269613,11.4454295 2.28806616,10.8654462 C3.45185691,10.354296 5.07708496,10.2612438 6.3211811,10.1223027 L6.3211811,9.84314588 C6.3211811,9.33199572 6.36197113,8.72906799 6.05986992,8.28802571 C5.79855874,7.89287222 5.2976061,7.72971207 4.85656382,7.72971207 C4.03821369,7.72971207 3.31036647,8.14908464 3.13191005,9.01842231 C3.09494408,9.21217499 2.95345364,9.40337829 2.75970096,9.4135758 L0.680683748,9.18795591 C0.504776712,9.14716587 0.309749346,9.0082248 0.359462204,8.7392655 C0.837470454,6.21665662 3.1153391,5.45566749 5.15739034,5.45566749 C6.20136036,5.45566749 7.56527723,5.73354962 8.38872611,6.52385659 C9.43269613,7.49899342 9.33199572,8.79917586 9.33199572,10.215355 L9.33199572,13.5575887 C9.33199572,14.563318 9.75009361,15.0043603 10.141423,15.5448283 C10.2790894,15.7398556 10.3096819,15.971849 10.1350496,16.1146141 C9.69655668,16.4817245 8.91772191,17.1573094 8.48942652,17.5384414 L8.48432776,17.5346173 Z M6.3211811,12.3045697 L6.3211811,11.840583 C4.76988499,11.840583 3.13063536,12.1720021 3.13063536,13.9986309 C3.13063536,14.927879 3.61246768,15.5550258 4.43464187,15.5550258 C5.03756961,15.5550258 5.57931229,15.1840914 5.91965417,14.579889 C6.34157611,13.8367455 6.3211811,13.1407655 6.3211811,12.3045697 Z" id="Shape" fill-rule="nonzero"></path>
            <path d="M83.9038321,11.6047656 C83.9038321,7.86865314 82.1218173,5.51812724 79.0536417,5.51812724 C76.059398,5.51812724 74.1053003,8.01779171 74.1053003,11.5805465 C74.1053003,14.9215055 75.8873151,17.7666106 79.7712914,17.7666106 C81.1071651,17.7666106 82.5424646,17.3956762 83.6310487,16.7022456 L82.9376181,15.1930142 C82.1205426,15.6391552 81.1556033,15.9845959 80.0428001,15.9845959 C77.7164933,15.9845959 76.3806196,14.3517197 76.3309067,12.1490577 L83.9025574,12.1490577 L83.9025574,11.6047656 L83.9038321,11.6047656 Z M76.3309067,10.5149068 C76.3564005,8.73289205 77.369778,7.24915444 79.052367,7.24915444 C80.808888,7.24915444 81.6004697,8.88203063 81.6501825,10.5149068 L76.3309067,10.5149068 Z" id="Shape" fill-rule="nonzero"></path>
            <path d="M84.8190585,11.7781233 C84.8190585,8.2893004 87.1950782,5.51812724 90.757833,5.51812724 C92.0185001,5.51812724 93.0573714,5.86484255 93.7520767,6.26127073 L93.7520767,8.16693028 C92.9592204,7.64685731 92.0694877,7.32563576 90.9311907,7.32563576 C88.5309519,7.32563576 87.0701587,9.18158246 87.0701587,11.6557532 C87.0701587,14.4027072 88.5309519,15.9603768 90.7820521,15.9603768 C91.970062,15.9603768 92.8113565,15.5652233 93.578719,15.1433014 L94.2211621,16.6780265 C93.3543738,17.2707567 91.994281,17.7666106 90.5092687,17.7666106 C86.8228691,17.7653359 84.8190585,15.0923138 84.8190585,11.7781233" id="Path"></path>
            <path d="M95.6717578,0 L97.8476514,0 L97.8476514,7.22493536 C99.0114421,6.23577695 100.321822,5.51812724 101.831053,5.51812724 C103.662781,5.51812724 105.393808,6.60671136 105.393808,9.67488698 L105.393808,17.519321 L103.21664,17.519321 L103.21664,10.391262 C103.21664,8.73289205 102.795993,7.44673119 101.187336,7.44673119 C99.9993259,7.44673119 98.8610289,8.14016182 97.8463767,9.02989451 L97.8463767,17.5180463 L95.6704832,17.5180463 L95.6704832,0 L95.6717578,0 Z" id="Path"></path>
            <path d="M112.422442,5.51685255 C109.057264,5.51685255 106.854602,8.18859999 106.854602,11.6532038 C106.854602,15.0923138 109.057264,17.7653359 112.398223,17.7653359 C115.763401,17.7653359 117.964788,15.0923138 117.964788,11.6532038 C117.964788,8.18987468 115.737907,5.51685255 112.422442,5.51685255 Z M112.398223,15.9591021 C110.343424,15.9591021 109.106976,14.1541429 109.106976,11.6544785 C109.106976,9.13059492 110.343424,7.32436108 112.422442,7.32436108 C114.475965,7.32436108 115.713688,9.12932023 115.713688,11.6544785 C115.713688,14.1541429 114.475965,15.9591021 112.398223,15.9591021 Z" id="Shape" fill-rule="nonzero"></path>
        </g>
    </g>
</svg>