<?xml version="1.0" encoding="utf-8"?>
<!-- Generator: Adobe Illustrator 15.0.0, SVG Export Plug-In . SVG Version: 6.00 Build 0)  -->
<!DOCTYPE svg PUBLIC "-//W3C//DTD SVG 1.1//EN" "http://www.w3.org/Graphics/SVG/1.1/DTD/svg11.dtd">
<svg version="1.1" id="Layer_1" xmlns="http://www.w3.org/2000/svg" xmlns:xlink="http://www.w3.org/1999/xlink" x="0px" y="0px"
	 width="595.279px" height="841.891px" viewBox="0 0 595.279 841.891" enable-background="new 0 0 595.279 841.891"
	 xml:space="preserve">
<rect x="2.14" y="126.445" fill="#FFFFFF" width="591" height="591"/>
<g>
	<path fill="#757575" d="M279.037,484.421c-8.581,0-15.732-2.474-21.53-7.422c-5.76-4.947-8.659-11.48-8.659-19.637
		c0-8.812,3.401-15.693,10.243-20.68c6.804-4.986,15.23-7.499,25.242-7.499c8.891,0,16.234,1.662,21.917,4.947v-2.318
		c0-5.953-2.049-10.708-6.107-14.264s-9.084-5.373-14.998-5.373c-4.407,0-8.388,1.043-11.944,3.131s-6.03,4.948-7.345,8.581
		l-13.838-5.953c1.855-4.832,5.566-9.316,11.055-13.452c5.489-4.136,12.757-6.185,21.763-6.185c10.321,0,18.902,3.015,25.744,9.084
		c6.803,6.03,10.243,14.573,10.243,25.55v48.859h-14.495v-11.209h-0.657C299.523,479.821,290.672,484.421,279.037,484.421z
		 M281.51,470.583c6.262,0,11.944-2.319,17.085-6.997c5.103-4.677,7.654-10.205,7.654-16.583
		c-4.291-3.518-10.707-5.295-19.289-5.295c-7.383,0-12.91,1.584-16.66,4.793c-3.749,3.208-5.604,6.919-5.604,11.21
		c0,3.942,1.701,7.073,5.103,9.393S277.104,470.583,281.51,470.583z M377.644,484.421c-6.146,0-11.674-1.314-16.583-3.942
		c-4.909-2.629-8.542-5.953-10.978-9.896h-0.657l0.657,11.209v35.64h-15.191V400.966h14.495v11.21h0.657
		c2.436-3.943,6.069-7.267,10.979-9.896c4.909-2.628,10.397-3.942,16.582-3.942c10.438,0,19.443,4.136,27.059,12.369
		c7.576,8.233,11.364,18.477,11.364,30.692s-3.788,22.42-11.364,30.691C397.088,480.323,388.081,484.421,377.644,484.421z
		 M375.171,470.583c7.035,0,13.065-2.668,18.129-8.002s7.576-12.408,7.576-21.183c0-8.813-2.513-15.849-7.576-21.183
		c-5.063-5.334-11.094-8.001-18.129-8.001c-7.151,0-13.22,2.628-18.206,7.924c-4.987,5.295-7.499,12.37-7.499,21.26
		s2.512,16.003,7.499,21.26C361.912,467.954,368.019,470.583,375.171,470.583z M442.275,380.711
		c-2.088,2.087-4.601,3.131-7.577,3.131c-2.976,0-5.488-1.044-7.576-3.131c-2.087-2.087-3.131-4.6-3.131-7.577
		c0-2.976,1.044-5.489,3.131-7.576c2.088-2.087,4.601-3.131,7.576-3.131c2.977,0,5.489,1.043,7.577,3.131
		c2.087,2.087,3.131,4.6,3.131,7.576C445.406,376.111,444.362,378.624,442.275,380.711z M442.275,481.792h-15.191v-80.826h15.191
		V481.792z M475.363,479.473c-2.203,2.204-4.832,3.286-7.924,3.286c-3.093,0-5.722-1.082-7.925-3.286
		c-2.203-2.203-3.285-4.831-3.285-7.924c0-3.092,1.082-5.721,3.285-7.924s4.832-3.286,7.925-3.286c3.092,0,5.721,1.083,7.924,3.286
		s3.285,4.832,3.285,7.924C478.687,474.642,477.566,477.27,475.363,479.473z M518.463,484.421c-8.581,0-15.732-2.474-21.53-7.422
		c-5.76-4.947-8.659-11.48-8.659-19.637c0-8.812,3.402-15.693,10.244-20.68c6.803-4.986,15.229-7.499,25.241-7.499
		c8.891,0,16.235,1.662,21.917,4.947v-2.318c0-5.953-2.049-10.708-6.107-14.264s-9.084-5.373-14.998-5.373
		c-4.406,0-8.388,1.043-11.944,3.131c-3.556,2.087-6.03,4.948-7.344,8.581l-13.839-5.953c1.855-4.832,5.566-9.316,11.056-13.452
		c5.488-4.136,12.756-6.185,21.763-6.185c10.32,0,18.901,3.015,25.743,9.084c6.804,6.03,10.244,14.573,10.244,25.55v48.859h-14.496
		v-11.209h-0.657C538.95,479.821,530.097,484.421,518.463,484.421z M520.937,470.583c6.262,0,11.943-2.319,17.085-6.997
		c5.103-4.677,7.653-10.205,7.653-16.583c-4.291-3.518-10.707-5.295-19.288-5.295c-7.384,0-12.911,1.584-16.66,4.793
		c-3.75,3.208-5.605,6.919-5.605,11.21c0,3.942,1.701,7.073,5.103,9.393S516.53,470.583,520.937,470.583z M590.012,380.711
		c-2.087,2.087-4.6,3.131-7.576,3.131s-5.489-1.044-7.576-3.131c-2.088-2.087-3.131-4.6-3.131-7.577
		c0-2.976,1.043-5.489,3.131-7.576c2.087-2.087,4.6-3.131,7.576-3.131s5.489,1.043,7.576,3.131s3.131,4.6,3.131,7.576
		C593.143,376.111,592.099,378.624,590.012,380.711z M590.012,481.792h-15.191v-80.826h15.191V481.792z"/>
	<g>
		<defs>
			<path id="SVGID_1_" d="M178.148,349.4l-76.11-43.912c-4.948-2.86-11.017-2.86-15.965,0L9.963,349.4
				C5.053,352.261,2,357.518,2,363.239v87.901c0,5.682,3.054,10.978,7.963,13.8l38.074,21.955v44.878
				c0,3.673,3.981,5.992,7.19,4.137l122.96-70.97c4.947-2.861,7.963-8.118,7.963-13.8v-87.901
				C186.111,357.518,183.096,352.261,178.148,349.4z"/>
		</defs>
		<clipPath id="SVGID_2_">
			<use xlink:href="#SVGID_1_"  overflow="visible"/>
		</clipPath>
		<g clip-path="url(#SVGID_2_)">
			<polygon fill="#EF6C00" points="2,354.039 2,460.339 48.037,486.895 48.037,540.045 186.111,460.339 186.111,354.039 
				94.075,407.189 			"/>
			<polygon fill="#FF9800" points="2,354.039 94.075,300.889 186.111,354.039 94.075,407.189 			"/>
			<polygon opacity="0.1" fill="#BF360C" enable-background="new    " points="183.946,352.764 92.451,405.565 2.579,353.691 
				2,354.039 94.075,407.189 186.111,354.039 			"/>
			<polygon opacity="0.1" fill="#FFFFFF" enable-background="new    " points="94.075,407.189 2.579,354.348 2,354.696 
				94.075,407.846 			"/>
		</g>
	</g>
</g>
</svg>
