<?xml version="1.0" encoding="UTF-8" standalone="no"?>
<!-- Generator: Adobe Illustrator 15.0.0, SVG Export Plug-In . SVG Version: 6.00 Build 0)  -->

<svg
   xmlns:dc="http://purl.org/dc/elements/1.1/"
   xmlns:cc="http://creativecommons.org/ns#"
   xmlns:rdf="http://www.w3.org/1999/02/22-rdf-syntax-ns#"
   xmlns:svg="http://www.w3.org/2000/svg"
   xmlns="http://www.w3.org/2000/svg"
   xmlns:sodipodi="http://sodipodi.sourceforge.net/DTD/sodipodi-0.dtd"
   xmlns:inkscape="http://www.inkscape.org/namespaces/inkscape"
   version="1.1"
   id="Layer_1"
   x="0px"
   y="0px"
   width="595.279px"
   height="245px"
   viewBox="0 425.445 595.279 245"
   enable-background="new 0 425.445 595.279 245"
   xml:space="preserve"
   sodipodi:docname="Cabinet_Office_logo2.svg"
   inkscape:version="0.92.2 5c3e80d, 2017-08-06"><metadata
     id="metadata151"><rdf:RDF><cc:Work
         rdf:about=""><dc:format>image/svg+xml</dc:format><dc:type
           rdf:resource="http://purl.org/dc/dcmitype/StillImage" /><dc:title></dc:title></cc:Work></rdf:RDF></metadata><defs
     id="defs149" /><sodipodi:namedview
     pagecolor="#ffffff"
     bordercolor="#666666"
     borderopacity="1"
     objecttolerance="10"
     gridtolerance="10"
     guidetolerance="10"
     inkscape:pageopacity="0"
     inkscape:pageshadow="2"
     inkscape:window-width="640"
     inkscape:window-height="480"
     id="namedview147"
     showgrid="false"
     inkscape:zoom="0.5442826"
     inkscape:cx="297.6395"
     inkscape:cy="122.5"
     inkscape:window-x="187"
     inkscape:window-y="14"
     inkscape:window-maximized="0"
     inkscape:current-layer="Layer_1" /><rect
     x="3.7"
     y="436.34"
     fill="#2D68B2"
     width="7.568"
     height="223.766"
     id="rect2" /><g
     enable-background="new    "
     id="g30"><path
       fill="#FFFFFF"
       d="M87.612,605.261c-3.29-2.304-7.13-3.399-11.627-3.399c-3.839,0-7.13,0.768-9.872,2.192   s-4.937,3.4-6.69,5.813s-3.07,5.154-3.948,8.337c-0.877,3.071-1.206,6.36-1.206,9.651c0,3.619,0.438,7.131,1.206,10.312   c0.878,3.291,2.084,6.143,3.948,8.556c1.756,2.413,4.06,4.389,6.802,5.813c2.741,1.425,6.031,2.193,9.872,2.193   c2.852,0,5.265-0.438,7.458-1.427c2.193-0.877,4.059-2.193,5.703-3.839c1.536-1.646,2.853-3.619,3.729-5.923   s1.426-4.717,1.646-7.35h8.557c-0.878,8.116-3.62,14.368-8.337,18.865c-4.716,4.498-11.188,6.691-19.414,6.691   c-4.938,0-9.324-0.877-13.055-2.522c-3.729-1.755-6.801-4.059-9.214-7.021s-4.276-6.472-5.483-10.641   c-1.206-4.059-1.864-8.445-1.864-13.053c0-4.606,0.658-8.995,1.975-13.163c1.316-4.059,3.29-7.678,5.813-10.749   c2.521-3.07,5.703-5.483,9.543-7.238c3.839-1.757,8.116-2.634,13.053-2.634c3.4,0,6.473,0.438,9.543,1.316   c2.961,0.877,5.703,2.193,8.007,3.948c2.305,1.755,4.278,3.948,5.813,6.472c1.536,2.633,2.522,5.595,3.071,8.995h-8.557   C92.987,610.964,90.793,607.562,87.612,605.261z"
       id="path4" /><path
       fill="#FFFFFF"
       d="M152.438,660.104c-1.316,0.77-3.182,1.207-5.484,1.207c-1.975,0-3.51-0.549-4.717-1.646   c-1.206-1.097-1.755-2.962-1.755-5.375c-2.084,2.522-4.497,4.278-7.35,5.375c-2.742,1.097-5.813,1.646-8.994,1.646   c-2.084,0-4.06-0.22-5.924-0.768c-1.864-0.549-3.51-1.207-4.937-2.194c-1.426-0.986-2.413-2.304-3.29-3.947   c-0.768-1.646-1.207-3.62-1.207-5.925c0-2.632,0.439-4.825,1.316-6.472c0.878-1.646,2.084-3.071,3.51-4.059   c1.427-1.098,3.182-1.864,5.046-2.413c1.865-0.548,3.839-0.987,5.812-1.316c2.084-0.438,4.06-0.768,5.924-0.986   c1.864-0.22,3.511-0.549,4.937-0.878c1.426-0.438,2.522-0.986,3.4-1.755c0.877-0.768,1.206-1.864,1.206-3.291   c0-1.646-0.329-3.07-0.986-4.059c-0.658-0.987-1.427-1.755-2.414-2.303c-0.986-0.55-2.084-0.878-3.29-1.099   c-1.207-0.219-2.413-0.219-3.62-0.219c-3.181,0-5.923,0.658-8.117,1.864c-2.192,1.207-3.29,3.51-3.51,6.91h-7.678   c0.109-2.853,0.768-5.266,1.755-7.239c1.097-1.976,2.522-3.619,4.277-4.826c1.756-1.206,3.84-2.084,6.143-2.633   c2.304-0.548,4.717-0.769,7.35-0.769c2.085,0,4.169,0.109,6.253,0.438s3.948,0.878,5.595,1.865   c1.645,0.877,3.071,2.192,4.058,3.947c0.987,1.646,1.536,3.841,1.536,6.582v23.803c0,1.756,0.109,3.07,0.329,3.948   s0.877,1.207,2.084,1.207c0.658,0,1.426-0.109,2.304-0.329v5.703h0.438V660.104z M140.043,636.303   c-0.986,0.769-2.193,1.206-3.729,1.535c-1.536,0.329-3.182,0.549-4.938,0.768c-1.755,0.221-3.399,0.439-5.154,0.77   c-1.756,0.219-3.29,0.658-4.718,1.314c-1.426,0.55-2.521,1.428-3.398,2.523c-0.878,1.097-1.316,2.633-1.316,4.497   c0,1.207,0.219,2.304,0.769,3.181c0.549,0.878,1.206,1.536,1.975,2.084c0.768,0.55,1.755,0.878,2.852,1.207   c1.098,0.221,2.193,0.329,3.4,0.329c2.522,0,4.717-0.329,6.472-0.987c1.756-0.657,3.291-1.534,4.389-2.633   c1.097-0.986,1.975-2.192,2.521-3.399c0.549-1.206,0.769-2.413,0.769-3.4v-7.787L140.043,636.303L140.043,636.303z"
       id="path6" /><path
       fill="#FFFFFF"
       d="M166.259,596.266v23.912h0.22c1.207-2.521,3.181-4.387,5.923-5.594c2.743-1.207,5.704-1.755,8.886-1.755   c3.619,0,6.69,0.658,9.323,1.975c2.633,1.315,4.826,3.071,6.689,5.374c1.757,2.194,3.071,4.826,3.949,7.788   s1.316,6.033,1.316,9.323c0,3.291-0.438,6.362-1.316,9.324c-0.878,2.961-2.192,5.483-3.949,7.678   c-1.755,2.194-3.947,3.949-6.689,5.155c-2.633,1.207-5.704,1.864-9.323,1.864c-1.098,0-2.414-0.109-3.84-0.328   c-1.426-0.221-2.742-0.658-4.168-1.207s-2.633-1.316-3.949-2.193c-1.206-0.878-2.303-2.084-3.071-3.4h-0.219v6.144h-7.679v-64.06   H166.259z M193.681,630.379c-0.55-2.084-1.427-3.948-2.634-5.484c-1.206-1.646-2.633-2.852-4.497-3.839   c-1.864-0.986-3.948-1.426-6.361-1.426c-2.522,0-4.717,0.548-6.581,1.535c-1.755,0.987-3.291,2.304-4.388,3.949   c-1.098,1.645-1.976,3.51-2.413,5.594c-0.549,2.084-0.769,4.168-0.769,6.362c0,2.304,0.22,4.497,0.769,6.581   s1.426,3.948,2.522,5.595c1.206,1.645,2.632,2.961,4.497,3.948c1.864,0.986,4.06,1.426,6.69,1.426c2.633,0,4.826-0.548,6.582-1.535   c1.755-0.987,3.181-2.413,4.276-4.059c1.097-1.646,1.865-3.62,2.305-5.704c0.438-2.193,0.768-4.389,0.768-6.69   C194.558,634.547,194.229,632.463,193.681,630.379z"
       id="path8" /><path
       fill="#FFFFFF"
       d="M211.012,605.59v-9.324h7.678v9.324H211.012z M218.58,613.926v46.398h-7.679v-46.398H218.58z"
       id="path10" /><path
       fill="#FFFFFF"
       d="M236.569,613.926v7.351h0.22c3.182-5.596,8.228-8.446,15.027-8.446c3.071,0,5.594,0.438,7.678,1.206   c2.085,0.878,3.729,1.975,4.938,3.511c1.206,1.535,2.084,3.29,2.633,5.374c0.548,2.085,0.768,4.388,0.768,6.911v30.493h-7.679   v-31.371c0-2.853-0.877-5.155-2.522-6.801c-1.645-1.646-3.948-2.522-6.909-2.522c-2.305,0-4.389,0.329-6.033,1.098   c-1.755,0.768-3.071,1.755-4.277,3.07c-1.098,1.316-1.975,2.853-2.522,4.606c-0.549,1.756-0.877,3.729-0.877,5.812v26.216h-7.68   v-46.508H236.569z"
       id="path12" /><path
       fill="#FFFFFF"
       d="M311.048,657.362c-3.511,2.633-7.788,3.948-13.054,3.948c-3.729,0-6.91-0.549-9.652-1.755   c-2.741-1.207-5.046-2.853-6.909-5.046c-1.865-2.193-3.291-4.717-4.168-7.679c-0.878-2.961-1.428-6.252-1.536-9.762   c0-3.511,0.549-6.802,1.646-9.652c1.098-2.962,2.633-5.484,4.497-7.679c1.976-2.193,4.278-3.84,6.91-5.047   c2.633-1.205,5.595-1.755,8.775-1.755c4.168,0,7.567,0.878,10.311,2.523c2.742,1.755,4.937,3.839,6.581,6.472   c1.646,2.632,2.742,5.484,3.4,8.665s0.878,6.033,0.768,8.885h-34.881c-0.109,2.084,0.22,3.948,0.769,5.813   c0.548,1.864,1.427,3.4,2.632,4.826c1.207,1.426,2.742,2.521,4.607,3.399c1.864,0.878,4.059,1.207,6.581,1.207   c3.182,0,5.923-0.769,7.897-2.193c2.084-1.535,3.399-3.729,4.059-6.802h7.568C316.752,650.781,314.448,654.73,311.048,657.362z    M309.183,627.527c-0.658-1.646-1.646-2.962-2.742-4.168c-1.207-1.207-2.522-2.084-4.168-2.742   c-1.536-0.658-3.291-0.987-5.267-0.987c-1.974,0-3.729,0.329-5.374,0.987c-1.535,0.658-2.962,1.645-4.059,2.852   s-2.084,2.633-2.742,4.168c-0.658,1.536-1.098,3.291-1.207,5.046h26.654C310.28,630.928,309.842,629.173,309.183,627.527z"
       id="path14" /><path
       fill="#FFFFFF"
       d="M345.052,613.926v6.691h-9.214v28.848c0,0.878,0.108,1.646,0.219,2.194   c0.109,0.548,0.438,0.985,0.878,1.206c0.438,0.329,0.987,0.438,1.755,0.549c0.768,0.109,1.755,0.109,2.962,0.109h3.51v6.69h-5.812   c-1.976,0-3.619-0.11-5.046-0.438c-1.426-0.329-2.522-0.769-3.4-1.427c-0.877-0.768-1.535-1.755-1.974-3.07   c-0.439-1.316-0.658-3.071-0.658-5.155v-29.506h-7.896v-6.691h7.896v-13.931h7.678v13.931H345.052z"
       id="path16" /><path
       fill="#FFFFFF"
       d="M375.873,615.681c1.316-4.059,3.182-7.567,5.813-10.749c2.521-3.07,5.812-5.595,9.652-7.459   c3.839-1.864,8.337-2.741,13.382-2.741c5.046,0,9.543,0.877,13.383,2.741c3.839,1.864,7.02,4.389,9.652,7.459   c2.521,3.071,4.497,6.69,5.812,10.749c1.316,4.06,1.976,8.228,1.976,12.614s-0.658,8.557-1.976,12.614s-3.181,7.567-5.812,10.75   c-2.522,3.071-5.813,5.594-9.652,7.349c-3.84,1.865-8.337,2.742-13.383,2.742c-5.045,0-9.543-0.877-13.382-2.742   c-3.84-1.863-7.021-4.276-9.652-7.349c-2.522-3.071-4.497-6.691-5.813-10.75c-1.315-4.06-1.975-8.228-1.975-12.614   C374.01,623.907,374.666,619.739,375.873,615.681z M383.771,637.838c0.878,3.182,2.194,5.923,3.949,8.446   c1.755,2.521,4.059,4.497,6.91,6.032s6.143,2.304,10.091,2.304c3.84,0,7.24-0.769,10.092-2.304s5.155-3.511,6.91-6.032   c1.755-2.523,3.071-5.375,3.949-8.446c0.877-3.181,1.206-6.362,1.206-9.543s-0.438-6.361-1.206-9.543   c-0.878-3.181-2.194-5.923-3.949-8.446c-1.755-2.521-4.06-4.497-6.91-6.031c-2.852-1.536-6.143-2.305-10.092-2.305   c-3.839,0-7.239,0.769-10.091,2.305c-2.853,1.534-5.155,3.51-6.91,6.031c-1.755,2.523-3.071,5.375-3.949,8.446   c-0.877,3.181-1.206,6.362-1.206,9.543S382.894,634.657,383.771,637.838z"
       id="path18" /><path
       fill="#FFFFFF"
       d="M438.725,620.617v-6.691h7.788v-6.91c0-3.729,1.097-6.58,3.29-8.556c2.193-1.975,5.375-2.962,9.543-2.962   c0.769,0,1.536,0.109,2.414,0.22c0.877,0.109,1.755,0.329,2.413,0.548v6.691c-0.658-0.22-1.428-0.438-2.194-0.438   c-0.768-0.11-1.535-0.11-2.193-0.11c-1.864,0-3.291,0.329-4.277,1.098c-0.987,0.769-1.535,2.084-1.535,4.168v6.473h8.994v6.689   h-8.994v39.708h-7.679v-39.708h-7.568L438.725,620.617L438.725,620.617z"
       id="path20" /><path
       fill="#FFFFFF"
       d="M462.637,620.617v-6.691h7.788v-6.91c0-3.729,1.097-6.58,3.29-8.556c2.193-1.975,5.375-2.962,9.543-2.962   c0.769,0,1.536,0.109,2.414,0.22c0.877,0.109,1.755,0.329,2.413,0.548v6.691c-0.658-0.22-1.428-0.438-2.194-0.438   c-0.769-0.11-1.535-0.11-2.193-0.11c-1.865,0-3.291,0.329-4.277,1.098c-0.987,0.769-1.535,2.084-1.535,4.168v6.473h8.994v6.689   h-8.994v39.708h-7.68v-39.708h-7.567L462.637,620.617L462.637,620.617z"
       id="path22" /><path
       fill="#FFFFFF"
       d="M493.24,605.59v-9.324h7.679v9.324H493.24z M500.809,613.926v46.398h-7.679v-46.398H500.809z"
       id="path24" /><path
       fill="#FFFFFF"
       d="M539.31,622.043c-1.865-1.646-4.498-2.413-7.679-2.413c-2.742,0-5.047,0.548-6.91,1.535   c-1.865,0.987-3.291,2.413-4.389,4.059c-1.097,1.646-1.863,3.62-2.412,5.813c-0.438,2.193-0.769,4.388-0.769,6.801   c0,2.193,0.219,4.278,0.769,6.252c0.549,2.084,1.315,3.84,2.412,5.375c1.098,1.536,2.522,2.853,4.169,3.839   c1.755,0.987,3.839,1.428,6.143,1.428c3.729,0,6.691-0.987,8.885-2.962c2.084-1.976,3.4-4.718,3.949-8.338h7.788   c-0.878,5.704-2.962,10.201-6.362,13.272c-3.399,3.071-8.117,4.717-14.04,4.717c-3.51,0-6.69-0.549-9.322-1.755   c-2.742-1.097-5.047-2.742-6.802-4.826c-1.864-2.084-3.182-4.606-4.169-7.459c-0.877-2.852-1.426-6.033-1.426-9.543   s0.439-6.69,1.316-9.763c0.878-3.071,2.304-5.703,4.059-7.897c1.865-2.192,4.059-4.059,6.91-5.265   c2.742-1.316,5.924-1.975,9.653-1.975c2.632,0,5.045,0.328,7.349,0.986s4.388,1.646,6.143,2.962   c1.756,1.316,3.182,2.961,4.389,4.937c1.097,1.975,1.863,4.388,2.192,7.13h-7.896C542.49,625.882,541.175,623.578,539.31,622.043z"
       id="path26" /><path
       fill="#FFFFFF"
       d="M591.521,657.362c-3.51,2.633-7.787,3.948-13.053,3.948c-3.729,0-6.91-0.549-9.652-1.755   c-2.742-1.207-5.046-2.853-6.91-5.046s-3.291-4.717-4.169-7.679c-0.877-2.961-1.426-6.252-1.535-9.762   c0-3.511,0.55-6.802,1.646-9.652c1.097-2.962,2.633-5.484,4.497-7.679c1.975-2.193,4.278-3.84,6.91-5.047   c2.633-1.205,5.595-1.755,8.774-1.755c4.168,0,7.568,0.878,10.312,2.523c2.742,1.755,4.937,3.839,6.581,6.472   c1.646,2.632,2.742,5.484,3.399,8.665c0.658,3.071,0.878,6.033,0.77,8.885H564.32c-0.108,2.084,0.22,3.948,0.769,5.813   c0.549,1.864,1.426,3.4,2.633,4.826c1.206,1.426,2.742,2.521,4.605,3.399c1.865,0.878,4.06,1.207,6.582,1.207   c3.182,0,5.924-0.769,7.897-2.193c2.084-1.535,3.399-3.729,4.059-6.802h7.568C597.225,650.781,595.031,654.73,591.521,657.362z    M589.656,627.527c-0.658-1.646-1.646-2.962-2.742-4.168c-1.206-1.207-2.521-2.084-4.168-2.742   c-1.536-0.658-3.291-0.987-5.266-0.987c-1.974,0-3.729,0.329-5.374,0.987c-1.536,0.658-2.962,1.645-4.059,2.852   c-1.098,1.207-2.084,2.633-2.742,4.168c-0.658,1.536-1.098,3.291-1.207,5.046h26.765   C590.754,630.928,590.315,629.173,589.656,627.527z"
       id="path28" /></g><g
     id="g3093"
     transform="matrix(1.2700026,0,0,-1.2700026,-350.48962,427.55068)"><g
       id="g3551"
       transform="matrix(1.0089141,0,0,1.0089141,362.11571,-731.87265)"><g
         id="g3111"
         transform="translate(76.2633,810.1241)"><path
           id="path3113"
           fill="#FFFFFF"
           d="M-77.086-108.345c-0.55-1.098-1.097-1.755-0.989-2.523     c0.111-0.878,0.989-1.426,1.316-2.304c0.329,0.988,0.988,1.755,0.878,2.523C-75.77-109.879-76.868-108.893-77.086-108.345" /></g><g
         id="g3115"
         transform="translate(80.777,810.1241)"><path
           id="path3117"
           fill="#FFFFFF"
           d="M-67.106-108.345c0.548-1.098,1.097-1.755,0.987-2.523     c-0.11-0.878-0.987-1.426-1.315-2.304c-0.329,0.988-0.987,1.755-0.877,2.523C-68.313-109.879-67.326-108.893-67.106-108.345" /></g><g
         id="g3119"
         transform="translate(73.6659,810.3188)"><path
           id="path3121"
           fill="#FFFFFF"
           d="M-82.823-107.887c0.55,0,0.989,0.438,0.989,0.987c0,0.548-0.439,0.987-0.989,0.987     c-0.548,0-0.987-0.439-0.987-0.987C-83.81-107.449-83.371-107.887-82.823-107.887" /></g><g
         id="g3123"
         transform="translate(73.8695,809.8832)"><path
           id="path3125"
           fill="#FFFFFF"
           d="M-82.364-108.916c0,0.548-0.438,0.987-0.987,0.987c-0.55,0-0.987-0.439-0.987-0.987     c0-0.549,0.437-0.988,0.987-0.988C-82.802-109.794-82.364-109.465-82.364-108.916" /></g><g
         id="g3127"
         transform="translate(74.0184,809.1441)"><path
           id="path3129"
           fill="#FFFFFF"
           d="M-82.021-110.524c0,0.548-0.438,0.987-0.987,0.987c-0.549,0-0.987-0.439-0.987-0.987     c0-0.55,0.438-0.987,0.987-0.987C-82.459-111.511-82.021-111.072-82.021-110.524" /></g><g
         id="g3131"
         transform="translate(75.3542,811.7728)"><path
           id="path3133"
           fill="#FFFFFF"
           d="M-79.039-104.675c0.548,0,0.987,0.439,0.987,0.987c0,0.549-0.439,0.989-0.987,0.989     c-0.549,0-0.988-0.439-0.988-0.989C-80.027-104.236-79.588-104.675-79.039-104.675" /></g><g
         id="g3135"
         transform="translate(74.5958,811.539)"><path
           id="path3137"
           fill="#FFFFFF"
           d="M-80.758-105.246c0.549,0,0.988,0.439,0.988,0.987c0,0.549-0.439,0.987-0.988,0.987     c-0.548,0-0.987-0.438-0.987-0.987C-81.745-104.807-81.306-105.246-80.758-105.246" /></g><g
         id="g3139"
         transform="translate(73.9997,811.0167)"><path
           id="path3141"
           fill="#FFFFFF"
           d="M-82.023-106.394c0.549,0,0.988,0.439,0.988,0.987c0,0.549-0.439,0.988-0.988,0.988     c-0.548,0-0.987-0.439-0.987-0.988C-83.01-105.955-82.571-106.394-82.023-106.394" /></g><g
         id="g3143"
         transform="translate(76.1498,811.6996)"><path
           id="path3145"
           fill="#FFFFFF"
           d="M-77.317-104.9c0.549,0,0.988,0.437,0.988,0.986c0,0.55-0.439,0.988-0.988,0.988     c-0.548,0-0.987-0.438-0.987-0.988C-78.304-104.463-77.865-104.9-77.317-104.9" /></g><g
         id="g3147"
         transform="translate(76.9063,811.4808)"><path
           id="path3149"
           fill="#FFFFFF"
           d="M-75.598-105.362c0.549,0,0.987,0.439,0.987,0.988c0,0.548-0.438,0.987-0.987,0.987     c-0.55,0-0.987-0.439-0.987-0.987C-76.585-104.923-76.147-105.362-75.598-105.362" /></g><g
         id="g3151"
         transform="translate(77.618,811.1467)"><path
           id="path3153"
           fill="#FFFFFF"
           d="M-74.104-106.052c0.549,0,0.988,0.439,0.988,0.987c0,0.549-0.439,0.987-0.988,0.987     c-0.548,0-0.987-0.438-0.987-0.987C-75.091-105.613-74.652-106.052-74.104-106.052" /></g><g
         id="g3155"
         transform="translate(83.0592,810.624)"><path
           id="path3157"
           fill="#FFFFFF"
           d="M-62.059-107.199c0-0.549,0.438-0.988,0.987-0.988s0.987,0.439,0.987,0.988     c0,0.548-0.438,0.987-0.987,0.987S-62.059-106.651-62.059-107.199" /></g><g
         id="g3159"
         transform="translate(83.4658,810.1884)"><path
           id="path3161"
           fill="#FFFFFF"
           d="M-61.142-108.229c-0.548,0-0.987-0.438-0.987-0.987c0-0.549,0.439-0.987,0.987-0.987     c0.549,0,0.988,0.438,0.988,0.987C-60.154-108.667-60.593-108.229-61.142-108.229" /></g><g
         id="g3163"
         transform="translate(83.3168,809.4493)"><path
           id="path3165"
           fill="#FFFFFF"
           d="M-61.486-109.836c-0.548,0-0.987-0.439-0.987-0.988c0-0.548,0.439-0.987,0.987-0.987     c0.549,0,0.987,0.439,0.987,0.987C-60.499-110.275-60.937-109.836-61.486-109.836" /></g><g
         id="g3167"
         transform="translate(81.6768,811.7728)"><path
           id="path3169"
           fill="#FFFFFF"
           d="M-65.045-104.675c0.55,0,0.989,0.439,0.989,0.987c0,0.549-0.439,0.989-0.989,0.989     c-0.548,0-0.987-0.439-0.987-0.989C-66.032-104.236-65.593-104.675-65.045-104.675" /></g><g
         id="g3171"
         transform="translate(82.4348,811.539)"><path
           id="path3173"
           fill="#FFFFFF"
           d="M-63.436-105.246c0.549,0,0.987,0.439,0.987,0.987c0,0.549-0.438,0.987-0.987,0.987     c-0.548,0-0.987-0.438-0.987-0.987C-64.423-104.807-63.984-105.246-63.436-105.246" /></g><g
         id="g3175"
         transform="translate(83.031,811.0167)"><path
           id="path3177"
           fill="#FFFFFF"
           d="M-62.062-106.394c0.549,0,0.987,0.439,0.987,0.987c0,0.549-0.438,0.988-0.987,0.988     c-0.548,0-0.987-0.439-0.987-0.988C-63.049-105.955-62.61-106.394-62.062-106.394" /></g><g
         id="g3179"
         transform="translate(80.8801,811.6996)"><path
           id="path3181"
           fill="#FFFFFF"
           d="M-66.877-104.9c0.55,0,0.987,0.437,0.987,0.986c0,0.55-0.437,0.988-0.987,0.988     c-0.549,0-0.987-0.438-0.987-0.988C-67.864-104.463-67.426-104.9-66.877-104.9" /></g><g
         id="g3183"
         transform="translate(80.1244,811.4808)"><path
           id="path3185"
           fill="#FFFFFF"
           d="M-68.485-105.362c0.548,0,0.987,0.439,0.987,0.988c0,0.548-0.439,0.987-0.987,0.987     c-0.549,0-0.988-0.439-0.988-0.987C-69.473-104.923-69.034-105.362-68.485-105.362" /></g><g
         id="g3187"
         transform="translate(79.1082,811.4523)"><path
           id="path3189"
           fill="#FFFFFF"
           d="M-70.778-105.363c0-0.549,0.438-0.988,0.987-0.988c0.548,0,0.987,0.439,0.987,0.988     c0,0.549-0.439,0.986-0.987,0.986C-70.339-104.377-70.778-104.816-70.778-105.363" /></g><g
         id="g3191"
         transform="translate(77.9948,809.8021)"><path
           id="path3193"
           fill="#FFFFFF"
           d="M-73.189-109.034h1.097v4.168c-0.439,0.11-0.767,0.219-1.097,0.328V-109.034z" /></g><g
         id="g3195"
         transform="translate(79.0367,811.2139)"><path
           id="path3197"
           fill="#FFFFFF"
           d="M-70.894-105.935c-0.329-0.111-0.659-0.329-1.097-0.329v-4.168h1.097V-105.935z" /></g><g
         id="g3199"
         transform="translate(78.3197,812.6555)"><path
           id="path3201"
           fill="#FFFFFF"
           d="M-72.5-102.725v2.523c-1.206-0.22-2.193-1.206-2.413-2.523H-72.5z" /></g><g
         id="g3203"
         transform="translate(78.7158,812.6555)"><path
           id="path3205"
           fill="#FFFFFF"
           d="M-71.693-102.725h2.413c-0.22,1.206-1.206,2.193-2.413,2.523V-102.725z" /></g><g
         id="g3207"
         transform="translate(77.5795,812.2815)"><path
           id="path3209"
           fill="#FFFFFF"
           d="M-74.107-103.529c0.329-1.426,1.536-2.413,2.962-2.413c1.426,0,2.741,0.987,2.962,2.413     H-74.107z" /></g><g
         id="g3211"
         transform="translate(79.0405,813.5522)"><path
           id="path3213"
           fill="#FFFFFF"
           d="M-70.894-100.773c-0.658,0.549-1.206,1.316-1.316,2.194     c0.768-0.11,1.645-0.767,2.194-1.426v3.4c-0.549-0.658-1.426-1.316-2.194-1.426c0.111,0.768,0.55,1.536,1.316,2.413h-3.29     c0.658-0.876,1.206-1.645,1.316-2.413c-0.768,0.11-1.645,0.768-2.194,1.426v-3.4c0.55,0.659,1.426,1.316,2.194,1.426     c-0.11-0.878-0.659-1.646-1.316-2.194H-70.894z" /></g><g
         id="g3215"
         transform="translate(80.1627,792.6023)"><path
           id="path3217"
           fill="#FFFFFF"
           d="M-68.482-147.117c-3.071,0.767-6.801,2.084-10.201,3.619l0,0     c0.11,0.659-0.111,1.426-0.658,2.084c-0.549,0.658-1.206,0.988-1.975,0.988c-0.329,0-0.658-0.11-0.987-0.219     c-0.549,0.439-0.988,0.876-1.426,1.426c-1.316,1.536-2.304,3.289-3.071,5.265c-0.439,1.097-0.658,2.302-0.876,3.51     c-0.111-0.987-1.316-2.303-3.181-2.303c0,0.219,0,0.658-0.219,0.768c-0.548-0.549-1.316-1.207-2.962-0.549     c0.219-1.316,0.659-2.742,1.097-3.949c0.987-2.741,2.523-5.265,4.387-7.458c0.658-0.659,1.315-1.316,1.975-1.974     c0-0.111,0-0.22,0-0.439c0-0.767,0.658-1.866,1.645-2.413c0.767-0.439,1.754-0.329,2.523,0.328     c1.536-0.767,3.4-1.536,5.484-2.084c2.303-0.658,4.497-0.987,6.252-0.987c1.536,0,3.51,0.658,5.484,1.974     c0.767,0.549,1.536,1.098,2.084,1.536c0.11,0.111,0.11,0.111,0.219,0.219C-64.314-147.995-66.508-147.556-68.482-147.117      M-79.78-142.401l-0.328,0.219c-0.548,0.439-1.098,0.439-1.645,0c-0.219-0.219-0.437-0.439-0.658-0.767l-0.329-0.329l0.22-0.219     c0.658-0.55,0.767-1.098,0.549-1.426c-0.11-0.111-0.219-0.219-0.329-0.219c-0.328-0.11-0.767,0-1.206,0.329l-0.22,0.11     l-0.11-0.219c0-0.11-0.11-0.11-0.11-0.219c0-0.111-0.111-0.111-0.219-0.219c-0.219-0.438-0.439-0.877-0.439-1.097     c0-0.11,0-0.11,0-0.219c0.11-0.328,0.329-0.548,0.659-0.659l0.11-0.11c0.329-0.219,0.658-0.439,0.987-0.55     c-0.548-0.328-1.097-0.328-1.645-0.11c-0.877,0.439-1.426,1.426-1.426,1.865c0,0.767,0.328,1.645,0.878,2.632l0.11,0.11     l-0.11,0.11c-0.219,0.329-0.329,0.548-0.439,0.877c0.328,0,0.659-0.11,0.987-0.219h0.11l0.11,0.11     c0.329,0.439,1.645,1.755,2.852,1.755c0.55,0,1.097-0.329,1.536-0.767c0.329-0.328,0.549-0.767,0.549-1.206     C-79.341-142.73-79.56-142.62-79.78-142.401 M-77.696-148.324c-0.767,0-1.316,0.549-1.316,1.317c0,0.767,0.549,1.316,1.316,1.316     s1.315-0.549,1.315-1.316C-76.38-147.775-77.038-148.324-77.696-148.324 M-71.992-150.078c-0.659,0-1.206,0.548-1.206,1.206     c0,0.658,0.55,1.206,1.206,1.206c0.659,0,1.206-0.55,1.206-1.206C-70.786-149.53-71.334-150.078-71.992-150.078" /></g><g
         id="g3219"
         transform="translate(79.5636,789.7679)"><path
           id="path3221"
           fill="#FFFFFF"
           d="M-69.747-153.315c-0.219,0-0.437,0-0.658-0.111v3.729c-1.645,0-3.51,0.329-5.375,0.767     v-4.497c-0.219,0.11-0.439,0.11-0.659,0.11c-1.316,0-2.084-1.098-2.084-2.084s0.548-1.864,1.097-2.413     c0.219,0.549,0.439,0.987,0.767,0.987c0.659,0,0.329-3.18,2.194-3.29c-0.11-0.11-0.11-0.328-0.11-0.549     c0-0.767,0.658-1.426,1.426-1.426c0.767,0,1.426,0.658,1.426,1.426c0,0.219,0,0.329-0.111,0.549     c1.864,0.111,1.536,3.29,2.193,3.29c0.328,0,0.549-0.438,0.767-0.987c0.438,0.549,0.987,1.426,0.987,2.413     C-67.662-154.412-68.431-153.315-69.747-153.315 M-73.147-161.431c-0.439,0-0.768,0.328-0.768,0.767s0.329,0.767,0.768,0.767     c0.438,0,0.767-0.328,0.767-0.767C-72.27-160.993-72.599-161.431-73.147-161.431 M-68.759-156.715     c-0.219,0.439-0.55,0.659-0.878,0.659c-1.316,0-0.767-3.291-2.303-3.291c-0.658,0-0.987,0.439-0.987,0.877     c0,0.439,0.328,0.659,0.328,0.988c0,0.329-0.328,0.548-0.658,0.548s-0.659-0.11-0.659-0.548c0-0.328,0.329-0.549,0.329-0.988     c0-0.438-0.329-0.877-0.987-0.877c-1.536,0-0.987,3.291-2.303,3.291c-0.329,0-0.659-0.22-0.878-0.659     c-0.22,0.439-0.439,0.987-0.439,1.315c0,0.658,0.439,1.426,1.426,1.426c1.645,0,1.316-2.302,2.084-2.302     c0.328,0,0.658,0.22,0.658,0.548c0,0.659-1.206,1.315-1.206,2.193c0,0.877,0.878,1.755,1.755,2.523     c0.987-0.767,1.755-1.536,1.755-2.523c0-0.987-1.206-1.536-1.206-2.193c0-0.328,0.219-0.548,0.658-0.548     c0.768,0,0.439,2.302,2.084,2.302c0.987,0,1.426-0.876,1.426-1.426C-68.321-155.728-68.431-156.276-68.759-156.715" /></g><g
         id="g3223"
         transform="translate(93.0506,788.3863)"><path
           id="path3225"
           fill="#FFFFFF"
           d="M-39.921-156.411c-0.11,0.219-0.329,0.328-0.439,0.219     c-4.278-1.206-9.653,2.304-14.808,5.814c-4.388,2.852-8.446,5.594-11.956,5.594c-1.316,0-2.413-0.328-3.51-0.767     c-1.206-0.658-2.193-1.754-2.741-3.18c-0.548-1.426-1.206-2.413-1.754-3.181c-0.549-0.987-0.988-1.645-0.988-2.523     c0-0.658,0.329-1.316,0.878-1.975c0.548-0.548,1.206-0.987,2.303-1.535c0.219-0.111,0.439-0.219,0.659-0.329     c0.877-0.439,1.426-0.659,1.535-1.206c-1.754-0.768-3.949-1.426-6.471-1.865c-2.852-0.55-5.923-0.767-9.214-0.767     s-6.362,0.219-9.214,0.767c-2.523,0.439-4.717,1.097-6.472,1.865c0.111,0.767,0.55,0.987,1.536,1.426     c0.219,0.11,0.439,0.219,0.658,0.328c0.877,0.439,1.645,0.878,2.193,1.426c0.659,0.549,0.878,1.097,0.878,1.865     c0,0.877-0.439,1.536-0.988,2.523c-0.548,0.768-1.097,1.755-1.754,3.181c-0.55,1.426-1.536,2.523-2.742,3.18     c-0.988,0.549-2.194,0.767-3.401,0.767c-3.51,0-7.679-2.742-12.066-5.704c-5.155-3.4-10.53-7.02-14.808-5.814     c-0.219,0.11-0.439,0-0.439-0.219c-0.11-0.219,0-0.439,0.219-0.549c1.316-0.549,2.523-1.536,3.619-2.303     c1.536-1.206,3.071-2.414,4.606-2.414c1.536,0,3.181,0.439,5.155,1.536c1.755,0.878,3.51,2.084,5.265,3.291     c3.401,2.303,6.91,4.716,10.311,5.045c-0.329-0.329-0.659-0.658-0.988-0.987c-0.987-0.877-1.864-1.645-1.864-3.181     c0-1.206,0.438-2.084,0.987-3.29c0.22-0.328,0.329-0.767,0.549-1.206c0.328-0.878,0.548-1.536,0.767-2.414     c0.11-0.438,0.219-0.877,0.328-1.316c0.22-0.767,0.658-2.303,3.071-3.51c2.852-1.426,7.788-2.194,14.588-2.194     c6.8,0,11.736,0.768,14.588,2.194c2.414,1.206,2.852,2.741,3.071,3.51c0.11,0.549,0.219,0.988,0.329,1.316     c0.219,0.878,0.329,1.536,0.767,2.414c0.22,0.658,0.55,1.097,0.768,1.535c0.548,0.988,0.877,1.755,0.877,2.852     c0,1.536-0.877,2.304-1.975,3.291c-0.328,0.329-0.658,0.658-1.097,0.987c3.401-0.219,6.91-2.632,10.311-5.045     c1.754-1.206,3.51-2.413,5.265-3.291c1.974-1.097,3.619-1.536,5.154-1.536c1.645,0,3.071,1.097,4.607,2.414     c1.098,0.876,2.303,1.754,3.619,2.302C-40.031-156.849-39.921-156.629-39.921-156.411" /></g><g
         id="g3227"
         transform="translate(84.9701,799.1515)"><path
           id="path3229"
           fill="#FFFFFF"
           d="M-57.815-132.552c-0.439,0.329-1.206,1.098-1.645,1.975     c-0.548,1.097-2.632,5.265-2.962,5.813c-0.328,0.439-0.438,0.878-0.438,1.206c0,0.439,0.22,0.768,0.438,1.098     c0.219,0.219,0.659,0.658,0.768,0.987c0.11,0.219,0.219,0.328,0.328,0.548c-0.767,1.317-1.536,2.414-2.632,3.51     c-1.206,1.426-2.632,2.632-4.167,3.619c0.767,0.549,1.645,1.315,1.645,2.632c0,0.768-0.328,1.316-0.877,1.865     c0.877,2.742,2.413,6.143,3.729,7.568l-2.742,1.206c0.768-1.098,0.768-2.414,0.659-3.18c-0.767,0.549-1.315,1.206-1.536,2.084     c-0.11-0.877-0.549-2.193-0.987-2.961c0.767,0.328,1.426,0.548,2.303,0.219c-0.439-0.658-1.645-1.645-3.51-1.206     c-0.987,0.219-1.974,0.768-1.974,1.536c0,0.439,0.329,0.987,0.987,0.987c0.659-0.11,0.659-0.987,0.439-1.426     c0.767,0.439,1.645,2.742,0.329,3.071c-0.988,0.22-1.865-1.097-2.194-2.084c-0.219,1.206-0.658,2.413-1.645,2.413     c-1.316-0.11-0.877-2.413-0.438-3.071c0.111,0.878,0.548,1.316,0.877,1.206c0.329,0,0.768-0.219,0.658-0.987     c-0.11-0.767-1.097-1.206-2.414-1.206c-1.206,0-3.18,0.329-3.4,2.632c0.767-0.11,1.974-0.767,2.413-1.426     c-0.11,1.316-0.11,2.303,0,3.729c-0.658-0.877-1.645-1.316-2.413-1.426c0.22,0.988,1.097,1.975,1.974,2.632h-5.045     c0.987-0.658,1.754-1.645,1.975-2.632c-0.768,0.11-1.755,0.549-2.414,1.426c0.11-1.426,0.11-2.413,0-3.729     c0.549,0.767,1.645,1.316,2.414,1.426c-0.219-2.302-2.304-2.632-3.401-2.632c-1.206,0-2.303,0.439-2.413,1.206     c-0.111,0.768,0.328,0.987,0.767,0.987c0.329,0,0.878-0.437,0.878-1.206c0.438,0.549,0.877,2.962-0.439,3.071     c-0.987,0.111-1.536-1.097-1.645-2.413c-0.328,0.987-1.206,2.413-2.193,2.084c-1.206-0.329-0.439-2.632,0.329-3.071     c-0.22,0.439-0.111,1.316,0.438,1.426c0.659,0.111,0.988-0.437,0.988-0.987c0-0.767-0.988-1.315-1.975-1.536     c-1.865-0.438-2.962,0.549-3.51,1.206c0.877,0.329,1.426,0.219,2.303-0.219c-0.439,0.767-0.877,2.193-0.987,2.961     c-0.219-0.877-0.878-1.645-1.536-2.084c-0.11,0.767-0.11,2.084,0.659,3.18l-2.742-1.206c1.316-1.425,2.852-4.826,3.73-7.568     c-0.549-0.439-0.878-1.097-0.878-1.755c0-1.315,0.878-2.084,1.645-2.632c-1.536-0.987-2.962-2.193-4.167-3.619     c-1.865-2.084-3.4-4.606-4.388-7.349c0.439-0.438,2.084-2.193,2.414-2.742c0.658-0.876,1.097-1.754,1.097-2.413     c0-1.206,0.328-1.754,0.987-2.632c0.219-0.219,0.549-1.206,0.549-1.865h13.82v-15.137c-0.548,0-1.097-0.219-1.535-0.767     c1.645-0.658,3.071-1.206,4.606-1.645c0.11,0.987,0.328,1.536,0.878,2.194c0,0-1.975,0.219-3.071,0.219v15.027h13.492     c0-2.084-0.439-4.058-1.097-5.923c-0.659-1.975-1.754-3.73-3.071-5.265c-1.316-1.536-2.742-2.741-4.497-3.51     c-0.219-0.11-0.219-0.329-0.548-0.439c-0.22-0.219-0.439-0.658-0.659-1.206c-0.219-0.438-0.219-0.767-0.329-1.316     c0.659-0.219,0.989-0.328,1.536-0.438c4.717-1.206,5.923-0.878,6.143-0.658l0,0c1.097,0.768,2.084,1.755,2.962,2.742     c1.864,2.193,3.4,4.606,4.387,7.458c1.097,2.852,1.645,5.923,1.645,9.104C-57.815-133.32-57.815-133.21-57.815-132.552      M-78.766-133.649h-13.821c0,2.084,0.439,4.168,1.097,6.142c0.658,1.975,1.754,3.73,3.071,5.265     c1.316,1.536,2.852,2.741,4.497,3.51c1.645,0.767,3.401,1.206,5.155,1.316L-78.766-133.649L-78.766-133.649z M-78.546-110.614     c-4.606,0-7.788-1.316-9.653-2.632c-1.098,0.658-1.536,1.206-1.536,1.974c0,2.633,7.349,2.852,11.079,2.852l0,0l0,0     c3.728,0,11.079-0.219,11.079-2.852c0-0.767-0.439-1.315-1.536-1.974C-70.759-112.04-73.939-110.614-78.546-110.614      M-77.888-133.649v16.234c1.645-0.11,3.29-0.439,4.826-1.206c1.645-0.878,3.181-1.975,4.497-3.51     c1.316-1.536,2.303-3.289,3.071-5.265c0.658-1.974,1.097-4.058,1.097-6.141C-64.506-133.649-77.888-133.649-77.888-133.649z" /></g><g
         id="g3231"
         transform="translate(82.2329,799.6543)"><path
           id="path3233"
           fill="#FFFFFF"
           d="M-63.894-131.516c0.219-0.11,0.11-0.549-0.11-0.439c-0.329,2.413-1.206,4.827-2.632,6.801     l0,0c0.22,0.11,0.548,0.328,0.548,0.659c-0.437,0-0.658-0.11-0.876-0.328c-0.111,0.11-0.219,0.22-0.329,0.328     c-0.877,1.098-1.864,1.974-2.961,2.742c-0.988,0.658-2.084,1.206-3.291,1.536c0,0.22,0.329,0.328,0.549,0.111     c0,0.437-0.328,0.658-0.549,0.548c-0.11,0-0.219-0.111-0.219-0.329c-0.111,0.11-0.329,0.329-0.659,0.329     c0-0.329,0.109-0.438,0.219-0.659c-0.219,0-0.328-0.11-0.328-0.22c-0.11-0.219,0-0.549,0.438-0.658     c-0.22,0.219-0.11,0.549,0.11,0.439v-5.265c-0.219,0.111-0.548,0-0.876-0.219c0.328-0.329,0.658-0.329,0.876-0.22v-5.704     c-0.328,0-0.328,0.329-0.11,0.439c-0.438,0-0.658-0.439-0.548-0.549c0.11-0.11,0.219-0.219,0.438-0.219     c-0.111-0.111-0.219-0.329-0.219-0.659c0.219,0,0.438,0.11,0.548,0.22c0-0.22,0.111-0.329,0.219-0.439     c0.219-0.111,0.549,0.11,0.549,0.549c-0.11-0.22-0.549-0.11-0.549,0.11h3.949c-0.11-0.219,0-0.549,0.219-0.878     c0.219,0.329,0.329,0.659,0.219,0.878h4.388c0-0.328-0.329-0.328-0.439-0.11c0-0.439,0.439-0.549,0.548-0.549     c0.11,0.11,0.219,0.22,0.219,0.439c0.111-0.111,0.329-0.22,0.659-0.22c0,0.22-0.11,0.439-0.22,0.549     c0.22,0,0.329,0.111,0.439,0.22C-63.236-131.845-63.455-131.516-63.894-131.516 M-67.623-124.496     c-0.11-0.11-0.219-0.22-0.11-0.329c0-0.11,0.11-0.219,0.438-0.219c-0.111-0.11-0.22-0.329-0.328-0.548c0.22,0,0.438,0,0.659,0.11     c0-0.219,0-0.328,0.11-0.439c0.11-0.11,0.219-0.11,0.329,0c0.987-1.645,1.754-3.51,1.974-5.484     c-0.111,0.11-0.328,0.11-0.548,0.11c0-0.328,0.11-0.439,0.219-0.658h-3.401c0,0.219-0.11,0.439-0.22,0.439     c-0.11,0-0.328,0-0.437-0.111c0,0.219-0.111,0.439-0.22,0.549c-0.219-0.22-0.219-0.439-0.219-0.549     c-0.111,0.219-0.329,0.219-0.439,0.111c-0.111,0-0.22-0.22-0.22-0.439h-2.852c0.111,0.11,0.219,0.328,0.219,0.549     c-0.219,0-0.438-0.11-0.548-0.219v4.606c0.219,0,0.437,0.111,0.437,0.22c0,0.11,0,0.328-0.11,0.439     c0.219,0,0.439,0.11,0.549,0.22c-0.219,0.219-0.439,0.219-0.549,0.219c0.219,0.11,0.219,0.328,0.11,0.439     c0,0.109-0.219,0.219-0.437,0.219v3.949c0.11-0.11,0.328-0.219,0.548-0.219c0,0.219,0,0.438-0.111,0.548     c0.878-0.329,1.755-0.767,2.632-1.316C-69.378-122.741-68.501-123.509-67.623-124.496" /></g><g
         id="g3235"
         transform="translate(81.4982,800.1064)"><path
           id="path3237"
           fill="#FFFFFF"
           d="M-65.5-130.485c0.219,0.111,0.328,0.219,0.328,0.329c-0.219-0.11-0.328,0-0.328,0     c0.11,0.11,0.328,0,0.11,0.219c-0.11,0.22-0.219,0.22-0.439,0.111c-0.11-0.219-1.206,0-1.206,0.878     c0.11-0.111,0.22-0.22,0.328-0.329c0,0,0.111,0,0.111-0.11h0.11c0.11,0,0.219,0,0.329,0c0,0,0,0,0.11,0l0,0     c0.219,0,0.439,0.219,0.439,0.439c0,0.437-0.329,0.658-0.878,0.987c-0.219,0.11-0.328,0.328-0.438,0.439     c-0.11,0.328,0,0.658-0.439,1.206c0,0.11,0,0.329-0.11,0.548c-0.219-0.328-0.329-1.097,0.219-1.645     c0.439-0.55,1.426-0.989,1.316-1.426c0-0.111-0.11-0.22-0.22-0.22h-0.11c0,0,0,0-0.11,0c-0.111,0-0.111,0-0.219,0.11     c-0.11,0.111-0.219,0.111-0.328,0.219c-0.439,0.328-0.768,0.876-0.988,1.206c-0.438,0.548-0.219,1.097-0.219,1.536     c0.328,0.438-0.219,1.316-0.439,1.535c0,0,0.111,0.22,0,0.439c-0.11,0-0.22,0-0.22,0c-0.111,0.111-0.111,0.22-0.219,0.22     c-0.219,0-0.219,0.11-0.219,0.219c-0.11-0.11-0.11-0.219-0.219-0.219c-0.111,0-0.219,0-0.329,0c-0.11-0.11-0.11-0.11-0.329-0.11     c-0.22,0-0.22-0.111-0.11-0.22c0-0.11,0-0.219,0.11-0.219l0,0l0.111-0.22l0.11,0.22c0.11,0.11,0.329,0.11,0.329-0.111     c0-0.109,0-0.109-0.111-0.219c-0.11,0-0.219,0-0.439,0c-0.11,0-0.11-0.11-0.11-0.22c0-0.11,0.11-0.11,0.329-0.11     c0.219,0,0.548,0.11,0.548-0.11c0-0.439-0.548-0.439-0.659-0.987c-0.11,0.11-0.219,0.219-0.328,0.328     c-0.111,0.11-0.219,0.329-0.439,0.549c-0.109,0.111-0.219,0.22-0.438,0.329c-0.219,0.11-0.219,0.22-0.219,0.438     c0,0.22,0.111,0.328,0.111,0.439v0.11c0,0.11-0.219,0.219-0.219,0.11c0,0,0.111-0.11,0.111-0.22l-0.111-0.111v-0.11l0,0     c0,0,0,0,0-0.11l0,0c0,0.11-0.11,0.328-0.219,0.328c0,0,0,0-0.11,0l0,0c0,0.111-0.111,0.22-0.328,0.111h0.109v-0.111     c0-0.11,0.111-0.219,0.22-0.219l0,0l0,0l0,0c-0.22,0.11-0.328,0-0.328-0.11v-0.111c-0.111,0-0.111-0.219,0-0.219v0.11l0,0     c0,0,0,0,0.109-0.11c0,0,0,0,0.11,0l0,0c0,0,0,0,0.11,0l0,0c-0.11-0.11-0.11-0.22,0-0.329c-0.11-0.11-0.328-0.11-0.328,0.111     c-0.22-0.329,0.11-0.549,0.328-0.439c0-0.111,0-0.329,0-0.329s0,0.11,0.111,0.11l0,0c0-0.11,0-0.11,0.11-0.219v0.11     c0-0.11,0.11-0.11,0.11-0.219c0.111-0.219,0.329-0.767,0.987-0.987c-0.328-0.22-0.437-0.438-0.658-0.658     c-0.11-0.111-0.439-0.329-0.549-0.219c-0.111,0-0.111,0.111-0.219,0.219c-0.11,0-0.11,0.11-0.219,0h-0.11     c-0.111,0-0.219,0-0.329-0.111c0.11,0,0.11,0,0.219,0v-0.11c0-0.11,0-0.11,0.328-0.11l0,0c0,0-0.109-0.111-0.109,0     c-0.111,0-0.22,0.11-0.329,0c0,0,0,0-0.11-0.111l0,0c-0.111,0-0.22-0.219-0.111-0.328c0,0,0,0.11,0.111,0.22     c0,0,0-0.11,0.11-0.11c0.11-0.11,0.219-0.22,0.329,0.11l0,0c0-0.11-0.111-0.328,0-0.328c0,0,0,0,0.109,0l0,0     c0-0.111,0.219-0.219,0.328-0.111c-0.11,0-0.11,0.111-0.219,0.219h0.11c0.111,0.11,0,0.22,0,0.328l0,0     c0-0.11,0.111-0.219,0.329-0.11c0.11,0,0.11,0.11,0.11,0.219c0.219,0.111,0.329,0.111,0.55,0.111c0,0.11,0.109,0.219,0.328,0.328     c0.219,0.111,0.329,0,0.329-0.11c0,0.11,0.11,0.22,0.219,0.328c0-0.876,1.097-0.767,1.426-1.315     c-0.329,0.11-0.768,0.219-0.877,0.219c-0.328,0-0.767-0.329-0.767-0.658c0-0.22,0.219-0.768,0.439-0.878     c-0.329-0.111-0.439,0-0.768,0l0,0c-0.219,0-0.328,0.439-0.548,0.328c0,0-0.11,0-0.11-0.11l0,0c-0.111,0-0.329-0.11-0.219-0.22     c0,0,0.111,0.111,0.219,0.111v-0.111c0,0,0-0.11,0.11-0.11s0.11,0,0.11,0l0,0c0-0.109-0.328,0.11-0.328-0.219     c0,0,0-0.111,0.11-0.111c0-0.11,0.11-0.219,0.22-0.11l-0.111,0.11h0.111l0,0l0,0l0,0c0,0,0,0,0-0.11v-0.11     c0-0.111,0.11-0.22,0.328-0.111c0,0-0.11,0-0.11,0.111h0.11v0.11l0,0h0.11l0,0c0-0.11,0.111-0.11,0.219-0.11     c0.11,0,0.11,0.11,0.11,0.11s0.11,0,0.11-0.11c0,0.11,0,0.219,0.329,0l0.219,0.11c0,0,0.219-0.11,0.328,0     c0.109,0.11,0.11,0.11,0.11,0.329c-0.11,0.219-0.219,0.219-0.219,0.437c-0.109,0.439,0.549,0.659,0.878,0.55     c0.11-0.22,0.438-0.987,1.097-1.206c0.439-0.11,0.55,0.328,0.659,0.22c0,0,0,0,0.11-0.11c0-0.22,0-0.329,0-0.439     c0-0.111-0.219,0-0.438,0c-0.11,0-0.11,0-0.11-0.111c-0.11,0-0.219-0.11-0.219-0.219c0,0,0.111,0.11,0.219,0.11c0,0,0,0,0-0.11     s0.219-0.22,0.329-0.11c0,0,0.109,0,0,0c-0.111-0.111-0.22-0.22-0.111-0.329c0,0,0,0,0.111,0c0-0.109,0.109-0.219,0.109-0.219     s0,0.11,0,0.219h0.11c0.11,0,0.11,0.22,0.219,0.22l0,0c0-0.111-0.11-0.22,0-0.328c0,0,0,0,0.111,0c0-0.11,0.11-0.11,0.328-0.11     c0,0-0.11,0-0.11,0.11l0.11,0.109c0.111,0.22-0.11,0.22-0.11,0.329c0,0.11,0.219,0,0.219,0.329l0,0     C-65.72-130.595-65.61-130.595-65.5-130.485C-65.282-130.595-65.5-130.485-65.5-130.485L-65.5-130.485z" /></g><g
         id="g3239"
         transform="translate(77.9625,797.7405)"><path
           id="path3241"
           fill="#FFFFFF"
           d="M-73.302-135.76h-0.219v0.219c0,0.768-0.439,1.426-1.316,1.426     c-0.768,0-2.304-0.987-4.388-0.987c-0.878,0-1.975,0.439-2.632,0.767l-0.219-0.658c0,0,0,0,0,0.11     c0,0.329-0.219,0.548-0.549,0.548c-0.328,0-0.548-0.219-0.548-0.548c0-0.328,0.219-0.549,0.548-0.549     c0.11,0,0.328,0.11,0.439,0.219l-0.22-0.658c0.11,0,0.22-0.11,0.22-0.11c-0.329-3.181,2.084-7.24,6.143-8.446     c0.658,0.11,1.206,0.11,1.206-0.549c0-0.438-0.219-0.548-0.549-0.548c-0.22,0-0.439,0.11-0.439,0.328     c0,0.329,0.439,0.11,0.549,0.329c0.11,0.219-0.11,0.328-0.439,0.328c-0.328,0-0.767-0.219-0.767-0.658     c0-0.548,0.439-0.877,0.987-0.877c0.439,0,1.426,0.22,1.315,1.426c0.219,0,0.439,0,0.55,0.219v0.658h-0.22l0.22,7.24h0.11     c0.219,0,0.548,0.111,0.548,0.439C-72.863-135.869-73.083-135.76-73.302-135.76 M-80.761-136.308l5.045-7.24     C-78.458-142.451-81.09-140.038-80.761-136.308 M-75.606-142.78l-4.606,6.581c0.109,0,0.328,0,0.437,0c0.219,0,0.439,0,0.658,0     l3.728-5.265C-75.496-142.012-75.606-142.451-75.606-142.78 M-75.276-140.696l-3.291,4.607c0.329,0.11,0.659,0.219,0.988,0.328     l2.413-3.51C-75.167-139.709-75.167-140.257-75.276-140.696 M-74.509-135.651h-0.219c-0.219,0-0.439-0.111-0.549-0.328     c0-0.328,0.219-0.439,0.439-0.439h0.11c0-0.11,0-0.11,0-0.22c-0.11-0.439-0.219-1.097-0.329-1.865l-2.084,2.962     c0.988,0.329,1.755,0.768,2.194,0.768C-74.509-134.773-74.399-134.992-74.509-135.651" /></g><g
         id="g3243"
         transform="translate(77.6883,802.3008)"><path
           id="path3245"
           fill="#FFFFFF"
           d="M-73.877-125.665c0.988,0,1.426,0.328,1.426,0.658c0,1.097-2.742,0.439-2.742,1.097     c0,0.111,0.11,0.22,0.219,0.329l0,0c1.316,0.11,1.427,1.097,2.303,1.206c-1.206,0.22-1.316-0.767-1.864-0.767     c0.22,0.11,0.329,0.438,0.329,0.548c-0.219-0.328-0.768-0.328-1.097-0.658c0-0.111-0.111-0.111,0-0.219     c-0.22-0.11-0.328-0.22-0.328-0.439c0-0.987,2.742-0.328,2.742-1.097c0-0.22-0.439-0.439-1.207-0.439     c-0.548,0-0.987,0.439-1.974,0.11c0,0.219,0.329,0.549,0.219,0.659c0.11,0,0.219,0.11,0.219,0.219     c-0.11,0.111-0.11,0.111-0.219,0.111v0.11c0,0,0,0.109-0.111,0.109c0,0-0.11,0.11-0.219,0.11c-0.11,0.111-0.22,0.111-0.22,0.111     h-0.11c-0.11,0-0.11,0-0.11-0.111c0,0-0.111,0.111-0.219,0.111c0-0.111-0.109-0.111,0-0.328c-0.109,0-0.219-0.22-0.328-0.22     c0-0.111,0.11-0.111,0.11-0.111c-0.11-0.11-0.11-0.328-0.219-0.328c0,0,0-0.111,0.11-0.111c-0.11-0.22-0.11-0.439-0.11-0.658l0,0     c-0.11,0.109-0.11,0.109-0.219,0.219c-0.111,0.111-0.111,0.219-0.111,0.329c0,0.11,0.111,0.22,0.111,0.329v0.11     c0,0.11-0.111,0.11-0.22,0.11l0.111-0.11l-0.111-0.11c0,0-0.11-0.111,0-0.111l0,0c0,0,0,0,0-0.11l0,0c0,0.11,0,0.219-0.11,0.219     h-0.11l0,0c0,0.111-0.111,0.22-0.219,0.111h0.111v-0.111c0-0.11,0-0.11,0.219-0.11l0,0l0,0l0,0c-0.219,0.11-0.328,0-0.328-0.11     c0,0,0,0,0-0.111c-0.109,0-0.109-0.11,0-0.219c0,0,0,0.11,0.11,0.11l0,0l0,0c0,0,0,0,0.11,0l0,0l0,0l0,0     c-0.11-0.11-0.11-0.219,0-0.219l0,0c0-0.219-0.328-0.219-0.328,0c-0.22-0.219,0.11-0.438,0.328-0.328l0,0     c0,0,0-0.111,0.111-0.111c0,0,0,0,0.11,0l0,0c0,0,0-0.11,0.11-0.11v0.11c0,0,0.111-0.219,0.219-0.329     c-0.219-0.11-0.55-0.22-0.659-0.22c0,0-0.328,0-0.438,0c-0.11-0.11-0.549-0.22-0.658-0.11c0,0,0,0.11-0.111,0.219l-0.11,0.11     h-0.11c-0.111,0.111-0.219,0.111-0.219,0c0,0,0.109,0,0.109-0.11v-0.11c0,0,0-0.111,0.219-0.22l0,0h-0.111     c-0.11,0.11-0.11,0.22-0.219,0.11c0,0,0,0-0.11,0l0,0c-0.111,0-0.219-0.11-0.219-0.22c0,0,0,0.11,0.111,0.11v-0.11     c0-0.111,0.11-0.219,0.328,0l0,0c-0.109-0.111-0.219-0.219-0.109-0.328c0,0,0,0,0.109,0l0,0c0-0.11,0.11-0.219,0.219-0.219     c0,0-0.11,0.11-0.11,0.219h0.11c0.111,0,0.111,0.22,0.111,0.22l0,0c0-0.109,0-0.22,0.219-0.22c0.11,0,0.219,0.111,0.219,0.22l0,0     l0.111-0.109c0,0,0.11,0,0.11,0.109c0-0.109,0-0.109,0-0.22c0,0,0.219,0.111,0.219,0.22c0,0,0,0,0-0.109l0,0     c0.109,0,0.109,0,0.328,0l0,0c0-0.111,0-0.111,0-0.111v0.111c0,0,0-0.111,0.11-0.22c0,0.328,0.22,0.22,0.439,0.328l0,0     c0,0,0-0.109-0.11-0.109c0.11,0,0.328,0.109,0.328,0.219l0.111,0.11c0.11,0,0.22,0,0.22,0.11c0,0,0-0.11,0-0.22     c0.219,0,0.438,0.22,0.548,0.328c0.55,0.111-0.328,0.439,0.768,0.439c0.109,0,0.219,0,0.328,0.111     c-0.111-0.111-0.111-0.439,0.11-0.549c0.11,0,0.219-0.11,0.219-0.11l0,0c-0.11,0-0.219,0-0.219-0.11     c-0.22-0.111-0.22,0.328-0.548,0.22c0,0,0,0-0.111,0c-0.11,0-0.219-0.11-0.219-0.22c0,0,0.11,0.11,0.219,0.11l0,0     c0,0,0-0.11,0.111-0.11h0.11l0,0c0-0.111-0.329,0-0.219-0.219v-0.11c0-0.11,0.11-0.22,0.219-0.11c0,0-0.11,0-0.11,0.11     c0,0,0,0,0.11,0l0,0l0,0l0,0c0,0,0,0,0-0.11v-0.111c0-0.11,0.109-0.219,0.328-0.11c0,0-0.111,0-0.111,0.11h0.111c0,0,0,0,0,0.111     l0,0c0,0,0,0,0.11,0l0,0c0-0.111,0.11-0.111,0.219-0.111c0.219,0.111,0,0.22,0.219,0.22h0.11c0.11,0,0.329,0,0.329,0     c0,0.11,0,0.328-0.111,0.438c-0.11,0,0,0.11-0.11,0.328c0.11-0.11,0.329-0.11,0.548-0.11c0.329,0,0,0.11,0.219,0.11     c0.22,0.111,0.439,0.111,0.439,0c0,0,0.111,0,0.111-0.11c0-0.219,0-0.219,0-0.329c0-0.11-0.219,0-0.329,0s-0.11,0-0.11,0     c-0.111,0-0.22-0.11-0.22-0.219c0,0,0.11,0.109,0.22,0.109l0,0c0-0.109,0.11-0.219,0.219-0.109l0,0     c-0.11-0.11-0.219-0.22-0.11-0.22c0,0,0,0,0.11,0c0-0.11,0-0.219,0.11-0.219v0.11h0.111c0.11,0,0,0.111,0.11,0.22l0,0     c0-0.11,0-0.22,0-0.22s0,0,0.11,0c0-0.11,0.111-0.11,0.22-0.11c0,0-0.109,0-0.109,0.11l0.109,0.111     c0,0.22-0.109,0.22-0.109,0.328c0,0.11,0.219,0,0.219,0.22c0,0,0,0.11-0.11,0.11l0,0l0,0c0,0,0.11,0,0.11,0.11     c-0.11,0-0.11,0.111-0.11,0.22l0,0c0,0,0.11,0.11,0.11,0.219c0-0.11-0.219-0.11-0.219,0c0,0,0,0.111-0.111,0.111     C-73.329-125.885-73.438-125.665-73.877-125.665C-73.987-125.665-73.987-125.665-73.877-125.665 M-76.948-124.569     L-76.948-124.569L-76.948-124.569 M-76.181-124.349c0,0,0.219-0.11,0.328-0.11c-0.11,0-0.11-0.11-0.219-0.11     C-76.18-124.569-76.181-124.459-76.181-124.349 M-76.4-124.239c0-0.111-0.11-0.111-0.219-0.111c-0.11,0.111,0,0.111-0.11,0.22     C-76.62-124.13-76.4-124.239-76.4-124.239 M-76.729-124.898C-76.729-124.898-76.62-124.788-76.729-124.898     c0.11,0.11,0.11,0.11,0.219,0.22c0,0.11,0,0.11-0.11,0.11c0.11,0,0.11,0,0.11,0.11h-0.11c0,0,0,0,0.11,0.111c0,0,0,0,0.11,0     l0.22-0.111c0,0,0,0,0-0.11v-0.11c0,0,0,0.11-0.11,0.11c0,0,0,0,0-0.11c-0.111,0-0.111,0-0.111,0v-0.111v-0.11     C-76.4-125.008-76.51-125.008-76.729-124.898C-76.729-125.117-76.729-125.008-76.729-124.898" /></g><g
         id="g3247"
         transform="translate(78.1122,801.1567)"><path
           id="path3249"
           fill="#FFFFFF"
           d="M-72.958-128.189c0,0.328-0.329,0.439-1.316,0.439c-0.988,0-3.181-0.329-3.181,0.219     c0,0.22,0.439,0.22,0.877,0.22c0,0,0.11-0.111,0.219-0.111c1.206-0.328,2.742,0.329,3.51,0.111c-0.878,0.658-1.645,0-2.523,0.219     c0.55,0,0.768,0.11,0.768,0.329c-0.439-0.329-1.206,0.11-1.755-0.22c0,0-0.11,0-0.11-0.11c-0.658,0-1.206,0-1.206-0.439     c0-0.987,2.632-0.438,3.401-0.438c0.767,0,0.987-0.11,0.987-0.22c0-0.219-0.767-0.328-1.206-0.328     c-0.659,0-2.852,0.328-4.058,0.11c0.111,0.219,0.329,0.439,0.22,0.658c0.11,0,0.219,0.109,0.219,0.22     c-0.109,0.11-0.109,0.11-0.219,0.11c0,0.11,0,0.11-0.111,0.22c0,0,0,0.11-0.11,0.11c0,0-0.11,0.11-0.329,0.22     c-0.11,0.11-0.219,0.11-0.328,0.11c0,0-0.111,0-0.22,0c-0.109,0-0.109,0-0.109-0.11c-0.11,0.11-0.11,0.11-0.219,0.11     c0-0.11-0.11-0.22,0-0.329c-0.11,0-0.219-0.328-0.329-0.219c0-0.11,0.111-0.11,0.111-0.11c-0.111-0.219-0.111-0.328-0.22-0.328     c0.111-0.11,0.111-0.11,0.111-0.11c0-0.11,0-0.219,0-0.329l-0.219,0.111l0,0c0,0,0,0-0.11,0h0.11h-0.11     c-0.11,0.11-0.219,0.219-0.439,0.328c-0.219,0.109-0.219,0.22-0.219,0.438c0,0.219,0.11,0.329,0.11,0.439v0.11     c0,0.111-0.11,0.22-0.219,0.22c0,0,0.11-0.11,0.11-0.22l-0.11-0.11c0,0,0-0.11,0-0.22l0,0c0,0,0,0,0-0.11l0,0     c0,0.11-0.111,0.329-0.22,0.329h-0.11l0,0c0,0.11-0.111,0.219-0.329,0.11h0.11v-0.11c0-0.111,0.111-0.22,0.22-0.22l0,0     c0,0,0,0,0-0.11l0,0c-0.22,0.11-0.329,0-0.329-0.11v-0.111c-0.11-0.11-0.11-0.219,0-0.219v0.11l0,0l0,0h0.11l0,0c0,0,0,0,0.111,0     l0,0c-0.111-0.11-0.111-0.328,0-0.328l0,0c0-0.219-0.439-0.219-0.329,0c-0.22-0.329,0.11-0.549,0.439-0.439l0,0     c0,0,0-0.111,0.11-0.111c0,0,0,0.111,0.111,0.111l0,0c0-0.111,0-0.111,0.11-0.22v0.11c0,0,0.219-0.22,0.438-0.328     c0.219-0.111,0.328-0.22,0.439-0.111c0-0.22,0.11-0.438,0.11-0.438c-0.11,0-0.549,0-0.659,0     c-0.219-0.111-0.658-0.219-0.767-0.111c0,0.111,0,0.111-0.11,0.22c0,0.109-0.111,0.109-0.111,0.109h-0.11     c-0.11,0.11-0.22,0.11-0.328,0c0,0,0.109,0,0.219-0.109v-0.11c0-0.111,0-0.111,0.219-0.219l0,0h-0.11     c-0.11,0.111-0.11,0.219-0.22,0.111c0,0,0,0-0.109,0l0,0c-0.11,0-0.328-0.111-0.219-0.329l0.11,0.11v-0.11     c0-0.11,0.111-0.219,0.438-0.11l0,0c-0.11-0.111-0.22-0.22-0.11-0.329c0,0,0,0,0.11,0l0,0c0-0.219,0.11-0.328,0.219-0.328     c0,0-0.11,0.109-0.11,0.219h0.11c0.111,0.11,0.111,0.22,0.111,0.329l0,0c0-0.111,0-0.22,0.219-0.22c0.11,0,0.22,0.11,0.22,0.22     l0,0c0,0,0.11-0.111,0.11-0.22c0,0,0.11,0,0.11,0.11c0-0.11,0-0.219-0.11-0.328c0.11,0,0.219,0.11,0.219,0.328     c0,0,0-0.11,0.111-0.11l0,0c0,0,0.219,0,0.328,0l0,0c0-0.11,0-0.11,0-0.11s0,0.11,0.111,0.11c0,0,0-0.11,0.11-0.219     c0,0.439,0.219,0.219,0.549,0.439l0,0c0,0,0-0.111-0.11-0.111c0.328-0.11,0.767,0.329,0.877,0.55c0.11,0,0.219,0,0.328,0     c0.877-0.111,0.219,0.767,1.645,0.548c0.109,0,0.219,0.11,0.328,0.11c-0.11-0.22-0.11-0.548,0.11-0.548     c0.111,0,0.219-0.11,0.329-0.11l0,0c-0.11,0-0.22,0-0.22-0.111c-0.328-0.22-0.328,0.439-0.548,0.329c0,0-0.11,0-0.11-0.11     c-0.11,0-0.329-0.111-0.219-0.219c0,0,0.11,0.111,0.219,0.111v-0.111c0,0,0-0.11,0.11-0.11c0.111,0,0.111,0,0.111,0l0,0     c0-0.11-0.439,0.11-0.329-0.219v-0.111c0-0.11,0.11-0.219,0.22-0.11l-0.111,0.11h0.111l0,0l0,0l0,0c0,0,0,0,0-0.11v-0.11     c0-0.109,0.109-0.22,0.328-0.109c0,0-0.11,0-0.219,0.109h0.109v0.11l0,0c0,0,0,0,0.11,0c0,0,0,0,0.11,0     c0-0.11,0.111-0.11,0.219-0.11c0.219,0.11,0,0.219,0.219,0.328h0.111c0.11,0,0.439,0,0.439,0c0,0.111,0,0.329-0.111,0.439     c-0.11,0,0,0.219-0.11,0.329c0.219-0.11,0.328-0.11,0.548-0.11c0.439,0,0.549,0.11,0.768,0.22c0.219,0.109,0.437,0.109,0.548,0     c0,0,0.11,0,0.11-0.11c0-0.22,0-0.22,0-0.329s-0.219,0-0.329,0c-0.109,0-0.109,0-0.109-0.11c-0.11,0-0.219-0.11-0.219-0.22     c0,0,0.11,0.111,0.219,0.111l0,0c0-0.111,0.22-0.219,0.328-0.111l0,0c-0.111-0.11-0.22-0.219-0.111-0.219c0,0,0,0,0.111,0     c0-0.11,0.11-0.22,0.11-0.22s0,0.111,0,0.22h0.11c0.111,0,0,0.219,0.111,0.219l0,0c0-0.11-0.111-0.219,0-0.328c0,0,0,0,0.11,0     c0-0.111,0.11-0.111,0.219-0.111c0,0-0.11,0-0.11,0.111l0.11,0.11c0.111,0.219-0.11,0.219-0.11,0.329c0,0.11,0.219,0,0.219,0.22     c0,0,0,0.111-0.11,0.111l0,0l0,0c0.11,0,0.11,0,0.219,0.11c-0.219,0-0.11,0.11-0.11,0.219l0,0c0.11,0,0.11,0.111,0.11,0.22     c-0.11-0.11-0.219-0.22-0.219,0c0,0,0,0.11-0.219,0.11c-0.329,0-0.55,0-1.097,0.111     C-73.946-128.628-72.958-128.519-72.958-128.189 M-80.527-128.738L-80.527-128.738L-80.527-128.738 M-78.991-127.312     c0,0,0.219-0.11,0.329-0.11c-0.22,0-0.111-0.11-0.22-0.11S-78.991-127.422-78.991-127.312 M-79.211-127.202     c0-0.111-0.11-0.111-0.219-0.111c-0.109,0.111,0,0.111-0.109,0.219C-79.43-127.093-79.211-127.202-79.211-127.202      M-79.539-127.97C-79.539-127.86-79.43-127.86-79.539-127.97c0.219,0.11,0.219,0.11,0.219,0.219c0,0.109,0,0.109-0.11,0.109     c0.11,0,0.11,0,0.11,0.111h-0.11c0,0,0,0.11,0.11,0.11c0,0,0,0,0.111,0l0.328-0.11c0,0,0.111,0,0.111-0.111v-0.109     c0,0,0,0.109-0.111,0.109c0,0,0,0,0-0.109c-0.11,0-0.11,0.109-0.219,0c0-0.11,0-0.11,0-0.11v-0.11c0-0.111-0.11-0.22-0.219-0.111     C-79.649-128.189-79.649-128.08-79.539-127.97 M-78.772-129.725C-78.772-129.725-78.772-129.615-78.772-129.725L-78.772-129.725" /></g><g
         id="g3251"
         transform="translate(77.9788,799.8422)"><path
           id="path3253"
           fill="#FFFFFF"
           d="M-73.3-131.059c0,0.329-0.329,0.439-1.206,0.439c-0.878,0-3.729-0.328-3.729,0.22     c0,0.328,0.987,0.219,1.645,0.219c0,0,0.111-0.11,0.219-0.11c1.206-0.328,2.413,0.439,3.291,0.22     c-0.659,0.658-1.536-0.111-2.413,0.11c0.548,0,1.097,0.11,1.097,0.219c-0.439-0.219-1.536,0.22-2.084-0.11     c0,0-0.111,0-0.111-0.11c-0.876,0-1.974,0.11-1.974-0.438c0-0.878,3.18-0.329,3.949-0.329c0.767,0,0.987-0.11,0.987-0.22     c0-0.219-0.767-0.219-1.206-0.219c-0.658,0-3.728,0.439-4.936,0c0.11,0.219,0.328,0.549,0.219,0.659     c0.109,0,0.219,0.11,0.219,0.219c-0.111,0.111-0.111,0.111-0.219,0.111v0.11c0,0,0,0.11-0.11,0.11c0,0-0.11,0.111-0.219,0.219     c-0.111,0.11-0.22,0.11-0.22,0.11s-0.11,0-0.219,0c-0.111,0-0.111,0-0.111-0.11c0,0-0.11,0.11-0.219,0.11     c0-0.11-0.11-0.22,0-0.329c-0.11,0-0.219-0.328-0.328-0.22c0-0.111,0.109-0.111,0.109-0.111c-0.109-0.11-0.109-0.328-0.219-0.328     l0.111-0.11c0-0.111,0-0.22,0-0.329h-0.111c-0.11,0-0.11,0-0.11,0h-0.11c-0.111,0-0.219,0.22-0.55,0.439     c-0.219,0.11-0.219,0.219-0.219,0.328s0.11,0.329,0.11,0.439v0.111c0,0.11-0.22,0.22-0.22,0.11l0.111-0.11l-0.111-0.111v-0.11     l0,0c0,0,0,0,0-0.11l0,0c0,0.11-0.109,0.328-0.219,0.328c0,0,0,0-0.11,0l0,0c0,0.111-0.111,0.22-0.22,0.111h0.111v-0.111     c0-0.11,0.11-0.11,0.219-0.219l0,0l0,0l0,0c-0.219,0.11-0.329,0-0.329-0.11v-0.111c-0.11-0.11-0.11-0.11,0-0.219v0.109l0,0     c0,0,0,0,0.111,0c0,0,0,0,0.11,0l0,0c0,0,0,0,0.11,0l0,0c-0.11-0.109-0.11-0.219,0.111-0.328l0,0c0-0.219-0.329-0.219-0.329,0     c-0.22-0.329,0.11-0.549,0.438-0.329l0,0c0,0,0-0.11,0.11-0.11c0,0,0,0,0.11,0l0,0c0-0.111,0-0.111,0.111-0.22v0.111     c0,0,0.219-0.329,0.658-0.55c0.11,0,0.22,0,0.22,0.111c0,0,0-0.111,0.109-0.111c0-0.219,0.11-0.328,0.11-0.328s-0.658,0-0.767,0     c-0.219-0.11-0.55-0.22-0.767-0.11c0,0.11,0,0.11-0.11,0.22c0,0.109-0.111,0.109-0.111,0.109h-0.11     c-0.11,0.111-0.219,0.111-0.329,0c0,0,0.111,0,0.22-0.109v-0.11c0-0.11,0-0.11,0.219-0.22l0,0h-0.11     c-0.11,0.111-0.11,0.22-0.219,0.111c0,0,0,0-0.111,0l0,0c-0.11,0-0.329-0.111-0.219-0.329l0.11,0.11v-0.11     c0-0.11,0.11-0.219,0.329-0.11l0,0c-0.11-0.111-0.22-0.219-0.11-0.329c0,0,0,0,0.11,0l0,0c0-0.11,0.11-0.328,0.219-0.219     c0,0-0.11,0.109-0.11,0.219h0.11c0.111,0,0.111,0.22,0.111,0.22l0,0c0-0.111,0-0.22,0.219-0.22c0.11,0,0.22,0.11,0.22,0.22l0,0     c0,0,0.11-0.111,0.11-0.22l0.11,0.11c0-0.11,0-0.22-0.11-0.22c0.11,0,0.219,0.11,0.219,0.22v-0.11l0,0c0,0,0.111,0,0.329,0l0,0     c0-0.11,0-0.11,0-0.11s0,0.11,0.11,0.11c0,0,0-0.11,0.111-0.219c0,0.437,0.548,0.219,0.767,0.328l0,0c0,0,0-0.11-0.11-0.11     c0.11,0,0.219,0,0.328,0.11l0,0l0.439,0.219v0.111h0.111l0,0c0.219,0,0.219,0.22,0.328,0.22c1.536-0.22,0.658,0.659,2.414,0.439     c0.109,0,0.109,0,0.219,0.109c-0.111-0.219-0.111-0.437,0.11-0.437c0.11,0,0.219-0.111,0.329-0.111l0,0     c-0.111,0-0.219,0-0.219-0.11c-0.328-0.22-0.328,0.439-0.548,0.329c0,0-0.11,0-0.11-0.111c-0.11,0-0.329-0.11-0.219-0.219     c0,0,0.11,0.11,0.219,0.11c0,0,0,0,0-0.11c0,0,0-0.11,0.11-0.11c0.111,0,0.111,0,0.111,0l0,0c0-0.111-0.329,0.11-0.329-0.219     v-0.11c0-0.11,0.11-0.22,0.219-0.11l-0.11,0.11h0.11l0,0l0,0l0,0c0,0,0,0,0-0.11v-0.111c0-0.109,0.111-0.219,0.328-0.109     c0,0-0.111,0-0.111,0.109h0.111v0.111l0,0c0,0,0,0,0.11,0c0,0,0,0,0.11,0c0-0.111,0.111-0.111,0.219-0.111     c0.219,0.111,0,0.22,0.219,0.329h0.111c0.11,0,0.437,0,0.437,0c0,0.11,0,0.329-0.109,0.439c-0.11,0,0,0.22-0.11,0.329     c0.219-0.111,0.328-0.111,0.548-0.111c0.439,0,0.549,0.111,0.658,0.219c0.22,0.109,0.438,0.109,0.548,0c0,0,0.111,0,0.111-0.111     c0-0.22,0-0.22,0-0.328s-0.219,0-0.329,0c-0.109,0-0.109,0-0.109-0.111c-0.11,0-0.22-0.11-0.22-0.22c0,0,0.111,0.11,0.22,0.11     l0,0c0-0.11,0.219-0.219,0.219-0.11l0,0c-0.11-0.111-0.219-0.219-0.11-0.219c0,0,0,0,0.11,0c0-0.11,0.111-0.22,0.111-0.22     s0,0.11,0,0.22h0.11c0.11,0,0,0.219,0.11,0.219l0,0c0-0.111,0-0.219,0-0.219s0,0,0.111,0c0-0.11,0.11-0.11,0.219-0.11     c0,0-0.11,0-0.11,0.11l0.11,0.111c0.111,0.219-0.11,0.219-0.11,0.328c0,0.111,0.219,0,0.219,0.219c0,0,0,0.11-0.11,0.11l0,0l0,0     c0.11,0,0.11,0,0.11,0.11c-0.219,0-0.11,0.111-0.11,0.219l0,0c0,0,0.11,0.11,0.11,0.22c0-0.11-0.219-0.22-0.219,0     c0,0,0,0.111-0.22,0.111c-0.328,0-0.439,0-0.987,0.11C-74.178-131.498-73.3-131.388-73.3-131.059 M-79.991-130.292     c0,0,0.219-0.109,0.329-0.109c-0.111,0-0.111-0.11-0.219-0.11S-79.991-130.401-79.991-130.292 M-80.211-130.182     c0-0.11-0.11-0.11-0.22-0.11c-0.111,0.11,0,0.11-0.111,0.22C-80.43-130.071-80.211-130.182-80.211-130.182 M-80.54-130.949     C-80.54-130.84-80.54-130.84-80.54-130.949c0.219,0.11,0.219,0.11,0.219,0.22c0,0.111,0,0.111-0.11,0.111     c0.11,0,0.11,0,0.11,0.11h-0.11c0,0,0,0,0.11,0.11c0,0,0,0,0.11,0l0.329-0.11c0,0,0.11,0,0.11-0.11v-0.111     c0,0,0,0.111-0.11,0.111c0,0,0,0,0-0.111c-0.11,0-0.11,0-0.219,0v-0.11v-0.11c0-0.111-0.111-0.111-0.22-0.111     C-80.54-131.059-80.54-130.949-80.54-130.949" /></g><g
         id="g3255"
         transform="translate(82.0435,797.6415)"><path
           id="path3257"
           fill="#FFFFFF"
           d="M-64.241-135.879L-64.241-135.879c0.109,0.11,0.109,0.11,0.109,0.328     c-0.109-0.11-0.219-0.22-0.219,0c0,0,0,0.111-0.219,0.111c-0.329,0-0.55,0-1.097,0.11c0,0-0.11,0,0,0     c0.548,0,1.535,0.11,1.535,0.438c0,0.328-0.328,0.439-1.206,0.439c-0.877,0-3.729-0.329-3.729,0.219     c0,0.329,0.987,0.22,1.645,0.22c0,0,0.11-0.111,0.219-0.111c1.206-0.328,2.523,0.548,3.29,0.329     c-0.877,0.328-1.536-0.219-2.413,0c0.549,0,1.097,0.109,1.097,0.219c-0.438-0.219-1.536,0.22-2.084-0.11c0,0-0.111,0-0.111-0.109     c-0.876,0-1.975,0.109-1.975-0.439c0-0.877,3.181-0.329,3.949-0.329c0.768,0,0.989-0.11,0.989-0.219     c0-0.22-0.768-0.328-1.206-0.328c-0.767,0-3.73,0.437-4.936,0c0.11,0.219,0.329,0.548,0.219,0.658     c0.111,0,0.219,0.11,0.219,0.219c-0.111,0.111-0.111,0.111-0.219,0.111v0.11c0,0,0,0.11-0.11,0.11c0,0-0.11,0.111-0.219,0.22     c-0.111,0.11-0.219,0.11-0.219,0.11h-0.109c-0.11,0-0.11,0-0.11-0.11c-0.11,0-0.11,0.11-0.219,0.11c0-0.11-0.111-0.219,0-0.328     c-0.111,0-0.219-0.329-0.329-0.22c0-0.11,0.11-0.11,0.11-0.11c-0.11-0.11-0.11-0.329-0.219-0.329c0.11-0.11,0.11-0.11,0.11-0.11     c0-0.11,0-0.219,0-0.219h-0.11c-0.111,0-0.111,0-0.111,0h-0.11c-0.11,0-0.219,0.219-0.548,0.439     c-0.22,0.11-0.22,0.219-0.22,0.328c0,0.111,0.111,0.329,0.111,0.438v0.11c0,0.111-0.111,0.22-0.219,0.111l0.111-0.111     l-0.111-0.11v-0.109l0,0c0,0,0,0,0-0.11l0,0c0,0.11-0.11,0.219-0.219,0.328h-0.11l0,0c0,0.11-0.111,0.22-0.22,0.11h0.111v-0.11     c0-0.11,0.11-0.219,0.219-0.219l0,0l0,0l0,0c-0.219,0.109-0.329,0-0.329-0.111v-0.11c-0.11,0-0.11-0.11,0-0.22v0.111l0,0     c0,0,0,0,0.111,0c0,0,0,0,0.11,0l0,0c0,0,0,0,0.11,0l0,0c-0.11-0.111-0.11-0.329,0.111-0.329l0,0c0-0.22-0.329-0.22-0.329,0     c-0.219-0.329,0.11-0.549,0.439-0.329l0,0c0,0,0-0.11,0.11-0.11c0,0,0,0,0.111,0l0,0c0-0.11,0-0.11,0.11-0.219     c0,0.109,0,0.109,0,0.109s0.219-0.328,0.548-0.548c0,0,0.11,0.11,0.22,0.11c0-0.11,0.11-0.11,0.11-0.219h0.11     c0-0.22,0.219-0.329,0.111-0.329s-0.439,0-0.55,0c-0.219-0.11-0.548-0.22-0.767-0.11c0,0.11,0,0.11-0.11,0.219     c0,0.11-0.111,0.11-0.111,0.11h-0.11c-0.11,0.111-0.219,0.111-0.329,0c0,0,0.111,0,0.111-0.11v-0.11c0-0.111,0-0.111,0.219-0.22     l0,0h-0.11c-0.111,0.11-0.111,0.22-0.219,0.11c0,0,0,0-0.11,0l0,0c-0.11,0-0.328-0.11-0.219-0.328l0.109,0.11v-0.11     c0-0.109,0.11-0.22,0.328-0.109l0,0c-0.11-0.111-0.219-0.219-0.11-0.329c0,0,0,0,0.11,0l0,0c0-0.11,0.111-0.22,0.219-0.22     c0,0-0.111,0.111-0.111,0.22h0.111c0.11,0,0.11,0.219,0.11,0.219l0,0c0-0.11,0-0.219,0.219-0.219c0.111,0,0.22,0.11,0.22,0.219     l0,0c0,0,0.11-0.11,0.11-0.219l0.109,0.11c0-0.11,0-0.22-0.109-0.328c0.109,0,0.219,0.11,0.219,0.328c0,0,0-0.11,0.11-0.11l0,0     c0,0,0.11,0,0.329,0l0,0c0-0.11,0-0.11,0-0.11s0,0.11,0.11,0.11c0,0,0-0.11,0.11-0.22c0,0.439,0.219,0.22,0.548,0.439l0,0     c0,0,0-0.11-0.109-0.11c0.109-0.11,0.438,0.11,0.438,0.328c0,0,0.11,0,0.219,0.111c0.219,0,0.219,0.219,0.329,0.219     c1.536-0.219,0.658,0.659,2.413,0.439c0.111,0,0.111,0.111,0.22,0.219c-0.11-0.219-0.11-0.549,0.11-0.549     c0.111,0,0.219-0.11,0.329-0.11l0,0c-0.11,0-0.219,0-0.219-0.11c-0.219-0.219-0.329,0.439-0.55,0.328c0,0-0.11,0-0.11-0.11     c-0.11,0-0.219-0.11-0.219-0.22c0,0,0.111,0.111,0.219,0.111v-0.111c0,0,0-0.11,0.11-0.11c0.11,0,0.11,0,0.11,0l0,0     c0-0.11-0.328,0.11-0.328-0.219c0,0,0-0.111,0.11-0.111c0-0.11,0.11-0.219,0.219-0.11l-0.11,0.11h0.11l0,0l0,0l0,0     c0,0,0,0,0-0.11v-0.11c0-0.111,0.111-0.22,0.329-0.111c0,0-0.11,0-0.11,0.111h0.11v0.11l0,0c0,0,0,0,0.111,0l0,0     c0-0.11,0.11-0.11,0.219-0.11c0.219,0.11,0,0.219,0.219,0.219h0.111c0.11,0,0.328,0,0.439,0c0,0.11,0,0.328-0.111,0.438     c-0.11,0,0,0.22-0.11,0.329c0.219-0.111,0.329-0.111,0.549-0.111c0.438,0,0.548,0.111,0.767,0.219     c0.219,0.111,0.439,0.111,0.549,0c0,0,0.11,0,0.11-0.11c-0.11-0.219,0-0.219,0-0.329c0-0.11-0.219,0-0.328,0     c-0.111,0-0.111,0-0.111-0.11c-0.11,0-0.219-0.11-0.219-0.219c0,0,0.11,0.109,0.219,0.109l0,0c0-0.109,0.111-0.22,0.219-0.109     l0,0c-0.111-0.111-0.219-0.219-0.111-0.219c0,0,0,0,0.111,0c0-0.111,0-0.22,0.11-0.22c0,0,0,0.11,0,0.22h0.11     c0.111,0,0.111,0.219,0.22,0.219l0,0c0-0.111-0.111-0.219,0-0.219c0,0,0,0,0.109,0c0-0.111,0.11-0.111,0.219-0.111     c0,0-0.11,0-0.11,0.111l0.11,0.11c0.11,0.219-0.11,0.219-0.11,0.328s0.219,0,0.219,0.22c0,0,0,0.11-0.11,0.11l0,0l0,0     c0.11,0,0.11,0,0.219,0.111C-64.351-136.209-64.241-135.989-64.241-135.879 M-70.933-134.234c0,0,0.219-0.11,0.329-0.11     c-0.111-0.111-0.111-0.111-0.111-0.111C-70.823-134.453-70.933-134.344-70.933-134.234 M-71.151-134.124     c0-0.11-0.11-0.11-0.219-0.11c-0.111,0.11,0,0.11-0.111,0.22C-71.371-134.014-71.151-134.124-71.151-134.124 M-71.481-134.892     C-71.481-134.783-71.371-134.783-71.481-134.892c0.219,0.11,0.219,0.11,0.219,0.219s0,0.11-0.11,0.11c0.11,0,0.11,0,0.11,0.111     h-0.11v0.11c0,0,0,0,0.11,0l0.328-0.11c0,0,0,0,0-0.111v-0.11c0,0,0,0.11-0.109,0.11c0,0,0,0,0-0.11c-0.111,0-0.111,0.11-0.22,0     v-0.11v-0.111C-71.261-135.002-71.371-135.002-71.481-134.892C-71.481-135.002-71.481-134.892-71.481-134.892 M-71.7-134.453     L-71.7-134.453L-71.7-134.453z M-71.59-134.124L-71.59-134.124L-71.59-134.124 M-70.274-136.209L-70.274-136.209L-70.274-136.209     " /></g><g
         id="g3259"
         transform="translate(80.7611,796.9224)"><path
           id="path3261"
           fill="#FFFFFF"
           d="M-67.108-137.485c0-0.11,0.11-0.11,0.219-0.11c1.098-0.328,2.413,0.549,3.071,0.328     c-0.877,0.329-1.425-0.219-2.303,0c0.549,0,0.987,0.111,1.097,0.22c-0.437-0.22-1.426,0.11-1.974-0.11c0,0,0,0-0.11,0     c-0.659,0-1.097,0-1.097-0.439c0-0.877,2.302-0.328,3.071-0.328s0.659-0.11,0.659-0.22c0-0.219-0.877-0.219-1.206-0.219     c-0.659,0-2.523,0.329-3.728,0.111c0.11,0.219,0.328,0.439,0.219,0.548c0.11,0,0.219,0.11,0.219,0.22     c-0.11,0.111-0.11,0.111-0.219,0.111v0.11c0,0,0,0.11-0.109,0.11c0,0-0.11,0.111-0.219,0.219c-0.111,0.11-0.219,0.11-0.219,0.11     h-0.11c-0.11,0-0.11,0-0.11-0.11c0,0-0.111,0.11-0.22,0.11c0-0.11-0.11-0.22,0-0.329c-0.11,0-0.219-0.22-0.329-0.22     c0-0.111,0.111-0.111,0.111-0.111c-0.111-0.11-0.111-0.328-0.219-0.328l0.111-0.11c0-0.111,0-0.22-0.111-0.329h-0.109l0,0     c-0.11,0-0.219,0-0.439,0.11c-0.219,0.111-0.219,0.22-0.219,0.329s0.11,0.328,0.11,0.438v0.11c0,0.11-0.11,0.22-0.219,0.11     l0.11-0.11l-0.11-0.11v-0.111l0,0c0,0,0,0,0-0.11l0,0c0,0.11-0.11,0.219-0.219,0.219c0,0,0,0-0.11,0l0,0     c0,0.111-0.11,0.22-0.219,0.111h0.109v-0.111c0-0.11,0.11-0.11,0.219-0.11l0,0l0,0l0,0c-0.219,0.11-0.328,0-0.328-0.11v-0.111     c-0.11,0-0.11-0.109,0-0.219v0.11l0,0l0,0c0,0,0,0,0.109,0l0,0c0,0,0,0,0.11,0l0,0c-0.11-0.11-0.11-0.22,0.111-0.328l0,0     c0-0.219-0.328-0.219-0.328,0c-0.219-0.329,0.109-0.549,0.438-0.329l0,0c0,0,0-0.11,0.11-0.11l0,0l0,0     c0-0.111,0-0.111,0.111-0.111v0.111c0,0,0,0.11,0.328-0.111c0,0,0-0.11,0.111-0.11h0.219c0-0.219,0-0.438,0-0.438     s-0.439,0-0.549,0c-0.11-0.11-0.549-0.219-0.659-0.11c0,0.11,0,0.11-0.109,0.219c0,0.109-0.11,0.109-0.11,0.109h-0.11     c-0.111,0.111-0.219,0.111-0.329,0c0,0,0.11,0,0.11-0.109v-0.11c0,0,0-0.11,0.219-0.219l0,0h-0.111     c-0.11,0.11-0.11,0.219-0.219,0.11c0,0,0,0-0.111,0l0,0c-0.11,0-0.328-0.11-0.219-0.219c0,0,0,0.11,0.11,0.11v-0.11     c0-0.111,0.111-0.219,0.329,0l0,0c-0.11-0.111-0.22-0.219-0.11-0.329c0,0,0,0,0.11,0l0,0c0-0.11,0.11-0.219,0.219-0.219     c0,0-0.11,0.11-0.11,0.219h0.11c0.111,0,0.111,0.219,0.111,0.219l0,0c0-0.11,0-0.219,0.219-0.219c0.11,0,0.22,0.11,0.22,0.219     l0,0c0,0,0.11-0.11,0.11-0.219l0.11,0.11c0-0.11,0-0.219-0.11-0.219c0.11,0,0.219,0.11,0.219,0.219c0,0,0-0.11,0.111-0.11l0,0     c0,0,0.11,0,0.328,0l0,0c0-0.11,0-0.11,0-0.11s0,0.11,0.111,0.11c0,0,0-0.11,0.11-0.219c0,0.439,0.328,0.328,0.548,0.439l0,0     c0,0,0-0.111-0.11-0.111c0.219-0.11,0.549,0.219,0.658,0.439c0,0,0,0,0.111,0.111v-0.111c0.219,0,0.219,0.219,0.328,0.219     c0.768-0.111,0.219,0.658,1.426,0.437c0.111,0,0.22,0.111,0.329,0.111c-0.11-0.111-0.11-0.548,0.11-0.548     c0.111,0,0.219-0.111,0.329-0.111l0,0c-0.11,0-0.219,0-0.219-0.11c-0.219-0.219-0.219,0.438-0.55,0.329h-0.11     c-0.109,0-0.219-0.111-0.219-0.219c0,0,0.11,0.111,0.219,0.111c0,0,0,0,0-0.111c0,0,0-0.11,0.11-0.11c0.111,0,0.111,0,0.111,0     l0,0c0-0.11-0.328,0.11-0.328-0.219v-0.111c0-0.11,0.109-0.219,0.219-0.11l-0.111,0.11h0.111l0,0l0,0l0,0c0,0,0,0,0-0.11v-0.11     c0-0.111,0.11-0.219,0.328-0.111c0,0-0.11,0-0.11,0.111h0.11v0.11l0,0c0,0,0,0,0.111,0l0,0c0-0.11,0.11-0.11,0.219-0.11     c0.219,0.11,0,0.219,0.219,0.219h0.111c0.11,0,0.328,0,0.437,0c0,0.11,0,0.329-0.11,0.439c-0.11,0,0,0.11-0.11,0.328     c0.11-0.109,0.328-0.109,0.549-0.109c0.439,0,0.549,0,0.768,0.109c0.219,0.111,0.437,0.111,0.548,0c0,0,0.11,0,0-0.109     c-0.111-0.219,0-0.219-0.111-0.328c-0.11-0.111-0.219,0-0.328,0c-0.109,0-0.109,0-0.109,0c-0.111,0-0.219-0.111-0.219-0.219     c0,0,0.111,0.111,0.219,0.111l0,0c0-0.111,0.109-0.22,0.219-0.111l0,0c-0.11-0.11-0.328-0.219-0.219-0.219c0,0,0,0,0.109,0     c0-0.11,0-0.219,0.11-0.219c0,0,0,0.11,0.11,0.219h0.111c0.11,0,0.11,0.219,0.219,0.219l0,0c-0.11-0.11-0.11-0.219,0-0.219     c0,0,0,0,0.11,0c0-0.11,0.111-0.11,0.22-0.11c0,0-0.111,0-0.111,0.11l0.111,0.11c0.11,0.22-0.111,0.22,0,0.329     c0,0.11,0.219,0,0.328,0.219c0,0,0,0.111-0.11,0.111l0,0l0,0c0.11,0,0.11,0,0.219,0.109c-0.109,0-0.109,0.11-0.109,0.219l0,0     c0.109,0,0.109,0.11,0.109,0.219c-0.109-0.11-0.219-0.11-0.219,0c0,0,0,0.111-0.11,0.111c-0.219,0-0.659,0-1.097,0.11l0,0     c0.548,0,1.535,0.11,1.535,0.439c0,0.219,0,0.438-0.876,0.438c-0.877,0-2.852-0.329-2.852,0.22     C-67.985-137.485-67.547-137.485-67.108-137.485 M-69.96-137.485c0-0.11-0.11-0.11-0.22-0.11c-0.11,0.11,0,0.11-0.11,0.219     C-70.179-137.375-70.069-137.485-69.96-137.485 M-69.74-138.033C-69.85-138.033-69.85-137.923-69.74-138.033     C-69.96-137.923-69.85-137.923-69.74-138.033c-0.111,0-0.22,0-0.22,0c0-0.11,0-0.11,0-0.11v-0.111c0,0-0.11-0.11-0.219-0.11     c-0.111,0-0.111,0.11-0.111,0.219c0,0.109,0.111,0.111,0.111,0.111c0.11,0,0.11,0,0.11,0.11c0,0.11,0,0.11-0.11,0.11     c0.11,0,0.11,0,0.11,0.109h-0.11c0,0,0,0,0,0.111c0,0,0,0,0.11,0l0.329-0.111C-69.74-137.813-69.74-137.813-69.74-138.033     C-69.74-137.923-69.74-137.923-69.74-138.033 M-69.63-137.813c-0.11,0-0.11,0.109-0.11,0.219c0,0,0.219-0.11,0.328-0.11     C-69.521-137.704-69.521-137.813-69.63-137.813" /></g><g
         id="g3263"
         transform="translate(80.4738,795.6606)"><path
           id="path3265"
           fill="#FFFFFF"
           d="M-67.794-140.349c0-0.111,0.11-0.111,0.219-0.111c1.097-0.328,2.413,0.55,3.071,0.329     c-0.877,0.329-1.425-0.22-2.303,0c0.549,0,0.987,0.11,1.097,0.219c-0.437-0.219-1.426,0.219-1.974-0.11c0,0-0.11,0-0.11-0.11     c-0.329-0.111-0.659-0.22-0.659-0.548c0-0.768,2.852-0.111,2.852-0.439c0-0.219-0.548-0.439-1.315-0.439     c-0.548,0-1.536,0.328-2.852,0.11l0,0c0.11,0.219,0.328,0.549,0.219,0.658c0.11,0,0.219,0.111,0.219,0.219     c-0.11,0.11-0.11,0.11-0.219,0.11c0,0.11,0,0.11,0,0.11s0,0.111-0.11,0.111c0,0-0.111,0.11-0.22,0.11     c-0.109,0.11-0.219,0-0.219,0.11h-0.111c0,0-0.11,0-0.11-0.11c0,0-0.11,0.11-0.219,0.11c0-0.11-0.111-0.219,0-0.328     c-0.111,0-0.22-0.219-0.329-0.219c0-0.109,0.11-0.109,0.11-0.109c-0.11-0.11-0.11-0.328-0.219-0.328l0.11-0.111     c0-0.219-0.11-0.549,0-0.658c-0.219,0.219-0.439,0.549-0.658,0.658c-0.219,0.111-0.219,0.22-0.219,0.329     c0,0.11,0.11,0.219,0.11,0.438v0.11c0,0.11-0.11,0.11-0.219,0.11l0.11-0.11l-0.11-0.11v-0.111l0,0c0,0,0,0,0-0.11l0,0     c0,0.11-0.111,0.219-0.219,0.219c0,0,0,0-0.11,0l0,0c0,0.111-0.11,0.22-0.22,0.111h0.111v-0.111c0-0.11,0.11-0.11,0.219-0.11l0,0     l0,0l0,0c-0.219,0.11-0.219,0-0.329-0.11v-0.109c-0.11,0-0.11-0.111,0-0.219v0.111l0,0l0,0c0,0,0,0,0.111,0l0,0c0,0,0,0,0.11,0     l0,0c-0.11-0.111-0.11-0.219,0.11-0.219l0,0c0-0.219-0.328-0.219-0.328,0c-0.219-0.219,0.11-0.439,0.328-0.328l0,0     c0,0,0-0.111,0.111-0.111l0,0l0,0c0-0.11,0-0.11,0.11-0.11v0.11c0,0,0-0.328,0.329-0.548c0.11-0.219,0.219-0.328,0.437-0.328     c0.111-0.111,0.111-0.219,0.111-0.219s-0.438,0-0.548,0c-0.111,0-0.219-0.11-0.329-0.11l0,0l0,0c-0.11,0-0.219,0-0.329,0.11     c0,0,0,0.111-0.11,0.219c0,0.11-0.11,0.11-0.11,0.11h-0.111c-0.11,0.11-0.219,0.11-0.219,0c0,0,0.109,0,0.109-0.11v-0.111     c0,0,0-0.11,0.219-0.219l0,0h-0.11c-0.11,0.11-0.11,0.219-0.219,0.11c0,0,0,0-0.111,0l0,0c-0.11,0-0.219-0.11-0.219-0.219     c0,0,0,0.11,0.11,0.11v-0.11c0-0.11,0.111-0.219,0.328,0l0,0c-0.109-0.11-0.219-0.219-0.109-0.329l0,0l0,0     c0-0.11,0.109-0.219,0.219-0.219c0,0-0.11,0.11-0.11,0.219h0.11c0.11,0,0.11,0.219,0.11,0.219l0,0c0-0.111,0-0.219,0.22-0.219     c0.11,0,0.219,0.111,0.219,0.219l0,0l0.111-0.111c0,0,0.11,0,0.11,0.111c0-0.111,0-0.111-0.11-0.219c0,0,0.219,0.111,0.219,0.219     c0,0,0,0,0-0.111l0,0c0,0,0.11,0,0.328,0l0,0v-0.11c0,0,0,0.11,0.111,0.11c0,0,0-0.11,0.11-0.219     c0,0.329,0.219,0.219,0.439,0.329l0,0c0,0,0-0.111-0.11-0.111c0.11,0,0.328,0.111,0.328,0.219c0,0,0.219,0.219,0.219,0.658h0.11     c0.328,0,0.438,0.219,0.767,0.219c-0.11-0.109-0.11-0.328-0.11-0.437c0-0.111,0.219-0.329,0.329-0.439l0,0     c-0.111,0-0.22,0-0.22-0.111c-0.219-0.11-0.219,0.329-0.549,0.22c0,0,0,0-0.109-0.11c-0.11,0-0.219-0.111-0.219-0.219     c0,0,0.11,0.111,0.219,0.111l0,0c0,0,0-0.111,0.109-0.111h0.11l0,0c0-0.11-0.328,0.111-0.219-0.219v-0.11     c0-0.109,0.109-0.219,0.219-0.109l-0.11,0.109h0.11l0,0l0,0l0,0c0,0,0,0,0-0.109v-0.111c0-0.11,0.111-0.219,0.329-0.11     c0,0-0.11,0-0.11,0.11h0.11v0.111l0,0c0,0,0,0,0.11,0l0,0c0,0,0.111-0.111,0.22-0.111c0.219,0.111,0,0.219,0.219,0.219h0.111     c0.11,0,0.219-0.109,0.328,0c0,0.11,0,0.328-0.11,0.439c-0.109,0,0.11,0.549-0.328,0.878c0.219,0,0.877-0.111,0.987,0     c0.219,0,0.439-0.219,0.439-0.219v-0.11c-0.219-0.11-0.11-0.11-0.219-0.219l0,0c0,0-0.11,0.11-0.219,0.219     c-0.111,0-0.111,0-0.111,0c-0.11,0-0.219,0-0.219-0.11c0,0,0.11,0,0.219,0l0,0v-0.111l0,0l0,0l0,0l0,0     c-0.11,0-0.328,0-0.219-0.11c0,0,0,0,0-0.11c-0.111,0-0.111-0.111,0-0.219c0,0,0,0.111,0.11,0.111c0,0,0,0,0-0.111     c0,0,0.11,0.111,0.219,0.111l0,0c-0.11,0-0.219-0.111-0.11-0.219c0,0,0,0,0-0.11c0-0.109,0-0.219,0.11-0.219v0.11h0.111     c0.219,0.109,0.11,0.219,0.11,0.328c0.11,0.111,0.11-0.11,0.329,0v0.111l0,0l0,0c0,0,0.11-0.111,0.11,0     c-0.11,0.11,0,0.11,0.109,0.219l0,0c0,0,0.11,0,0.219,0.111c-0.11,0-0.328,0.11-0.219,0.11c0.219,0.11,0.219,0.219,0.11,0.329     c-0.11,0.219-0.437,0.219-0.437,0.437c0.11,0,0.219,0,0.328,0c0.988,0,1.645,0.219,1.536,0.549c0,0.658-2.962,0-2.962,0.439     C-68.123-140.459-68.013-140.349-67.794-140.349 M-69.878-140.349c0,0,0.22-0.111,0.328-0.111c-0.11,0-0.11-0.11-0.219-0.11     C-69.878-140.569-69.878-140.459-69.878-140.349 M-70.097-140.349c0-0.111-0.11-0.111-0.219-0.111     c-0.11,0.111,0,0.111-0.11,0.219C-70.316-140.24-70.097-140.24-70.097-140.349 M-70.316-141.007     C-70.316-140.897-70.316-140.897-70.316-141.007c0.11,0.111,0.219,0.111,0.219,0.111c0,0.11,0,0.11-0.11,0.11     c0.11,0,0.11,0,0.11,0.11h-0.11v0.109c0,0,0,0,0.11,0l0.219-0.109c0,0,0,0,0-0.11v-0.11c0,0,0,0.11-0.111,0.11c0,0,0,0,0-0.11     c-0.109,0-0.109,0-0.109,0v-0.111v-0.11c0-0.11-0.11-0.11-0.219-0.11C-70.426-141.117-70.426-141.007-70.316-141.007" /></g><g
         id="g3267"
         transform="translate(65.8166,811.4315)"><path
           id="path3269"
           fill="#FFFFFF"
           d="M-100.146-105.476c0,0.439-0.328,0.659-0.659,0.659c-0.438,0-0.659-0.329-0.659-0.659     c0-0.328,0.329-0.658,0.659-0.658C-100.475-106.134-100.146-105.805-100.146-105.476" /></g><g
         id="g3271"
         transform="translate(65.7403,812.0159)"><path
           id="path3273"
           fill="#FFFFFF"
           d="M-100.373-104.103c0,0.437-0.328,0.658-0.658,0.658c-0.439,0-0.658-0.329-0.658-0.658     c0-0.329,0.328-0.659,0.658-0.659C-100.592-104.871-100.373-104.542-100.373-104.103" /></g><g
         id="g3275"
         transform="translate(65.8646,812.2751)"><path
           id="path3277"
           fill="#FFFFFF"
           d="M-100.032-103.529c0.439,0,0.658,0.328,0.658,0.658c0,0.328-0.328,0.658-0.658,0.658     c-0.439,0-0.659-0.328-0.659-0.658C-100.69-103.2-100.471-103.529-100.032-103.529" /></g><g
         id="g3279"
         transform="translate(66.4486,812.3138)"><path
           id="path3281"
           fill="#FFFFFF"
           d="M-98.768-103.525c0.437,0,0.658,0.328,0.658,0.658c0,0.439-0.329,0.659-0.658,0.659     c-0.439,0-0.659-0.329-0.659-0.659C-99.427-103.196-99.097-103.525-98.768-103.525" /></g><g
         id="g3283"
         transform="translate(68.9408,812.7192)"><path
           id="path3285"
           fill="#FFFFFF"
           d="M-93.262-102.609c0.329-0.219,0.768-0.219,0.988,0c0.22,0.22,0.22,0.767,0,0.988     c-0.328,0.328-0.767,0.328-0.988,0C-93.481-101.841-93.481-102.28-93.262-102.609" /></g><g
         id="g3287"
         transform="translate(68.8917,813.1867)"><path
           id="path3289"
           fill="#FFFFFF"
           d="M-93.376-101.576c0.329,0.219,0.329,0.767,0,0.987c-0.329,0.22-0.768,0.329-0.987,0     c-0.329-0.219-0.219-0.767,0-0.987C-94.035-101.796-93.596-101.796-93.376-101.576" /></g><g
         id="g3291"
         transform="translate(68.3103,813.2815)"><path
           id="path3293"
           fill="#FFFFFF"
           d="M-94.639-101.348c0.219,0.219,0.219,0.767,0,0.987c-0.329,0.329-0.767,0.329-0.987,0     c-0.219-0.328-0.219-0.767,0-0.987C-95.407-101.677-94.969-101.677-94.639-101.348" /></g><g
         id="g3295"
         transform="translate(67.8139,812.913)"><path
           id="path3297"
           fill="#FFFFFF"
           d="M-95.785-102.152c0.219,0.22,0.219,0.768,0,0.989c-0.328,0.219-0.767,0.219-0.987,0     c-0.219-0.329-0.219-0.768,0-0.989C-96.442-102.48-96.003-102.48-95.785-102.152" /></g><g
         id="g3299"
         transform="translate(66.415,813.2148)"><path
           id="path3301"
           fill="#FFFFFF"
           d="M-98.882-101.464l0.549-1.206l0.659,0.876h0.11c0.11-0.437,0.11-1.097,0.11-1.536     c0-0.548,0.439-0.877,0.878-0.877c0.438,0,0.877,0.439,0.877,0.877c0,0.329-0.219,0.659-0.439,0.768     c-0.329,0.22-0.767,0.658-0.987,0.876v0.111l1.206-0.111l-0.439,1.316l-0.876-0.767l0,0l-0.111,1.315l-1.206-0.439l0.767-0.987     v-0.11L-98.882-101.464z" /></g><g
         id="g3303"
         transform="translate(68.955,812.5322)"><path
           id="path3305"
           fill="#FFFFFF"
           d="M-93.261-103.066c0.22-0.439,0.328-0.658,0.439-0.987c-0.219,0.11-0.439,0.328-0.768,0.658     l0.11-1.645c0.219,0.328,0.329,0.439,0.55,0.549c-0.111-1.097-0.439-1.536-0.878-1.536c-0.438-0.111-0.767,0.219-0.877,0.549     c-0.11,0.438,0.329,0.767,0.767,0.328c0.111,0.988-0.767,0.988-1.097,0.549c0.439,0.987,0.219,1.536-0.548,2.085     c-0.549-0.878-0.329-1.426,0.328-2.193c-0.658,0.328-1.206-0.22-0.658-0.987c0.11,0.658,0.658,0.439,0.767,0     c0.111-0.439-0.328-0.987-0.987-1.206c-0.987-0.328-1.315,0.328-1.536,0.877c0.219,0.11,0.768,0.11,1.316-0.329l-0.439,1.645     c-0.219-0.548-0.548-0.767-0.987-0.987c0,0.439,0.328,1.426,0.328,1.426l-1.975-0.768c0,0,0.878-0.438,1.206-0.767     c-0.437-0.111-0.767-0.219-1.315,0l0.767-1.536c0.111,0.659,0.439,1.098,0.767,1.098c0.219-0.548,0.439-1.206-0.548-1.754     c-0.659-0.328-1.316-0.219-1.536,0.111c-0.219,0.437,0,0.987,0.548,0.548c-0.109,0.876-0.876,0.876-1.097,0.22     c0,0.987-0.22,1.536-1.206,1.755c-0.22-0.988,0.11-1.536,0.987-1.865c-0.548,0.11-1.098-0.439-0.328-1.097     c0,0.548,0.548,0.658,0.767,0.219c0.219-0.329,0.11-0.768-0.219-0.988c-0.328-0.22-0.876-0.22-1.754,0.549     c0.219,0.11,0.438,0.11,0.877,0l-0.987,1.316c0.11-0.439,0-0.767-0.111-0.987c-0.219,0.219-0.328,0.437-0.439,0.987l-0.767-0.658     c0.767-0.439,1.645-1.206,2.632-2.632c1.098,0.659,3.071,1.645,4.278,2.193c1.206,0.548,3.29,1.206,4.606,1.426     c-0.219,1.755-0.11,2.852,0.11,3.729L-93.261-103.066z" /></g><g
         id="g3307"
         transform="translate(73.7679,798.5743)"><path
           id="path3309"
           fill="#FFFFFF"
           d="M-82.593-133.815c0.329,0.767-1.097,1.646-1.316,2.632c-0.219,0.987,0,2.085-1.315,3.51     c-1.206,1.426-5.375,5.923-6.692,7.349c0.329,0,1.097,0.22,1.865-0.548c0.438-0.439,1.316-1.316,2.193-2.085     c1.097,2.852,2.523,4.936,4.497,7.24c0.22,0.328,0.548,0.549,0.767,0.876c-0.767-0.219-1.864-0.437-2.523-0.876     c0,1.206,0,2.193-0.767,3.071c0.328,1.754,0,3.839-3.84,6.362c1.975-0.439,3.181-2.303,4.718-0.877     c-1.316,0-1.426,2.961-6.362,5.484c1.864,0,3.29-2.962,5.484-1.315c-2.084,0.219-2.742,3.839-6.472,5.045     c1.315-0.11,2.632-0.768,3.73,0.767c-1.316-0.328-2.084,0.878-3.401,0.988c0.55,1.645,0.439,2.632-0.11,3.728     c-0.987-0.11-1.974-0.328-2.632-0.987c-0.111,0.877-0.987,0.877-1.865,0.877c0-0.329,0.219-0.877-0.219-0.987     c-0.659-0.11-2.852-0.768-4.606-1.426c-1.645-0.658-3.619-1.865-4.168-2.304c-0.329-0.219-0.659,0.329-0.877,0.549     c-0.549-0.549-1.206-1.206-0.767-1.865c-0.987-0.11-1.974-0.328-2.852-0.987c0-1.097,0.878-2.193,2.304-2.741     c-2.304-2.303-0.219-4.388-2.194-6.362c2.852-0.11,2.304,3.839,3.729,4.388c-0.109-2.742-1.645-3.291-1.645-6.253     c0-1.645,0.987-3.29,0.111-4.388c2.413,0.659,1.754,5.923,3.18,7.459c0.219-0.877,0.11-1.755-0.22-2.632     c-0.876-2.413,0.111-5.814-1.206-6.801c2.414,0.22,2.742,4.058,4.717,5.484c-1.755-3.51-3.401-10.859-6.033-14.589     c-4.058-5.593-6.581-12.285-10.31-12.285c-1.645,0-2.962,0.989-2.962,3.071c0,6.253,10.859,10.64,10.859,17.331     c0,2.961-2.413,4.167-3.949,4.167c-0.987,0-2.303-0.548-3.291-1.316c-0.438,0.219-0.877,0.329-1.316,0.329     c-3.839,0-2.852-6.91-6.142-6.801c1.316-0.767,3.619,0.659,4.936,2.632c-0.548-4.497-7.02-3.29-6.471-8.665     c0.877,4.167,11.079,3.619,11.079,9.98c0,0.768-0.329,1.316-0.878,1.755c0.767,0.439,1.536,0.658,2.193,0.658     c1.206,0,2.303-0.878,2.303-2.741c0-5.594-10.749-10.421-10.749-17.331c0-1.206,0.328-2.193,0.876-2.852     c-0.767-0.328-1.535-0.219-2.193,0.549c-0.11-1.755,2.523-2.853,4.058-1.975c0.329-0.11,0.767-0.219,1.097-0.219     c-0.438-1.317-2.084-1.755-2.962-1.645c2.632-2.084,7.24,0.659,7.02,2.962c2.084,1.645,3.401,4.606,4.936,6.471     c-0.111-0.439-0.219-0.878-0.219-1.315c-1.536-2.853-2.962-5.266-3.401-8.996c-0.328-3.071-1.864-5.923-4.058-5.923     c-0.437,0-1.206,0.658-1.645,0.328c-0.659-0.548,0-1.206,0-1.754c0-0.878-1.645-1.755-1.645-4.497     c0-1.206,0.658-2.632,0.437-3.51c0.658,0.328,1.645,1.536,1.975,2.961c0.767-3.619-1.536-3.4,0.11-6.581     c0.219,1.098,1.206,1.536,1.865,1.098c0.658-0.438,0.328-0.767-0.11-1.206c-0.439-0.438-0.878-2.853,1.206-2.742     c-0.439,0.219-0.439,0.878,0.658,1.098c1.536,0.328,1.975-0.439,3.51-0.439c0.987,0,1.206,1.316,2.084,1.316     c0.768,0,0.768-0.658,0.55-1.097c1.206,0.328,1.536,0.987,1.536,1.754c0,0.658-0.549,1.097-0.11,1.426     c0.437,0.219,1.863,0,1.315-1.206c0.767,0.11,1.206,0.658,1.206,1.645c0,0.877-1.097,1.426-1.975,1.316     c-0.219,0.549-0.987,0.877-1.754,0.877c-1.755,0-1.536-1.425-2.742-1.425c-1.975,0-3.84,2.523-3.84,6.8     c0,2.304,2.414,2.852,4.168,3.62c1.754,0.767,4.717,2.632,6.582,5.704c1.424,2.413,1.424,5.045,1.315,8.117     c2.413-1.426,2.742-3.401,2.742-4.827c0-1.863-0.988-2.632-1.755-2.962c-0.658-0.328-0.878-0.219-0.987-0.548     c-0.11-0.439,0.219-0.768,0.548-0.878c0.878-0.438,0.658-1.316,0.987-2.193c0.219-0.877,1.098-2.303,2.414-3.4     c0.11,0.548,0.11,1.426,0,2.632c1.863-0.878,0.328-4.717,4.058-4.717c-0.659,0.439-0.439,1.316-0.11,1.536     c0.328,0.219,0.876-0.219,1.536-1.206c0.658-0.987,0.548-0.878,2.193-0.878c1.754,0,0.987,0.549,1.865,0.549     c0.876,0,0.876-1.097,0.328-1.863c1.536,0.437,1.975,1.645,1.426,2.85c1.316,0.768,2.084-0.328,2.304-1.097     c1.316,1.316,0,2.962-1.097,3.071c0,0.439-0.439,0.987-0.989,1.097c-0.548,0-1.097,0.11-1.754,0     c-0.658,0-0.988-0.987-1.755-0.987c-2.304,0-6.801,4.167-6.801,5.923c0,1.754,4.278,2.851,4.278,5.593     c0,3.619-3.51,4.827-6.582,7.13c1.097,1.206,4.167,1.536,5.923,0.659c0.219,0.987,0.877,0.767,1.097,2.523     c0.659-1.536,0-2.852,0.659-3.51c0.548,0.768,1.755,0.659,1.755,2.523c0.438-1.207-0.549-2.962,0.438-3.84     c0.11,0.988,0.767,1.207,1.097,1.207c0.329,0,0.658-0.22,0.658-0.878c0-1.426-1.754-0.767-1.754-2.413     c0-0.658,0.878-0.877,0.878-1.316s-0.659-1.097-1.536-0.549c0.328-0.658,0.877-1.207,1.645-1.207     c0.767,0,1.645,0.659,1.974,1.426c0.439-0.987,0.11-2.193-0.659-2.302c0.767-0.439,2.632,0,2.413,2.413     c1.097-0.22,1.645-0.877,0.987-2.193c0.877,0.219,1.645,0.659,1.645,1.536C-82.154-135.021-82.923-134.802-82.593-133.815      M-102.995-101.237c-0.987-0.111-0.987,0.878-2.742,1.315c1.206,0.219,2.742,0.878,4.168,1.426     C-101.24-99.702-101.789-101.128-102.995-101.237 M-95.975-108.586c-1.316-0.549-2.303,0.548-2.523,1.316     c-0.219,0.767-0.439,1.426-0.11,1.645c0.548,0.549,0.767,0.988,0.439,1.645c-0.329,0.767-1.207,0.439-2.084,0.22     c0.439,0.768,0.439,1.316-0.111,1.206c-0.658-0.111-0.658-1.206-1.097-0.987c-0.329,0.11-0.11,0.767-0.11,1.097     c0,0.439,0.328,0.659,0.767,0.878l3.62,1.426c0.437,0.219,0.767,0.219,1.097-0.11c0.219-0.22,0.877-0.55,0.658-0.878     c-0.219-0.329-0.988,0.439-1.536,0c-0.439-0.329-0.11-0.659,0.767-0.987c-0.767-0.439-1.645-0.767-1.315-1.645     c0.219-0.658,0.659-0.877,1.426-0.877c0.439,0,0.658-0.549,1.097-1.315C-94.769-106.722-94.659-108.038-95.975-108.586      M-95.756-98.385c-0.988-0.767-2.304-0.111-2.852,0.987c1.316,0.549,2.962,1.206,3.949,1.865     C-95.646-97.069-94.988-97.727-95.756-98.385" /></g><g
         id="g3311"
         transform="translate(95.226,793.1646)"><path
           id="path3313"
           fill="#FFFFFF"
           d="M-35.104-145.856c0-1.645,1.315-3.071,3.071-3.071c1.645,0,3.071,1.315,3.071,3.071     s-1.315,3.071-3.071,3.071S-35.104-144.101-35.104-145.856 M-34.335-145.856c0,1.206,0.987,2.303,2.302,2.303     c1.206,0,2.303-0.987,2.303-2.303s-1.097-2.193-2.413-2.193C-33.348-148.049-34.335-147.062-34.335-145.856" /></g><g
         id="g3315"
         transform="translate(91.6944,792.2925)"><path
           id="path3317"
           fill="#FFFFFF"
           d="M-42.904-147.696c-0.439-0.329-0.659-0.659-0.767-1.098     c-0.11-0.549,0.111-1.097,0.438-1.536c0.329-0.439,0.878-0.658,1.536-0.767c0.658-0.111,1.206,0,1.755,0.219     c0.549,0.329,0.877,0.768,0.987,1.316c0.219,1.098-0.658,2.084-1.974,2.304C-41.698-147.257-42.465-147.366-42.904-147.696      M-41.588-150.438c-0.876,0.11-1.426,0.768-1.315,1.426c0.11,0.329,0.219,0.549,0.439,0.658c0.328,0.219,0.876,0.328,1.315,0.219     c0.767-0.111,1.426-0.658,1.426-1.316v-0.109C-39.943-150.218-40.71-150.657-41.588-150.438" /></g><g
         id="g3319"
         transform="translate(86.4812,805.5724)"><path
           id="path3321"
           fill="#FFFFFF"
           d="M-54.488-118.438c-0.987-0.767-1.206-1.975-0.659-2.742l0,0     c0.659-0.767,1.865-0.767,2.852-0.111c0.548,0.439,0.877,0.988,0.877,1.536c0,0.439,0,0.877-0.329,1.206     c-0.219,0.329-0.658,0.549-1.097,0.549C-53.281-117.78-53.939-117.999-54.488-118.438 M-54.597-120.194     c0,0.439,0.219,0.878,0.658,1.206c0.329,0.219,0.767,0.439,1.097,0.329c0.22,0,0.439-0.111,0.55-0.329     c0.11-0.219,0.219-0.438,0.11-0.658c0-0.329-0.329-0.768-0.658-0.987c-0.548-0.439-1.426-0.439-1.754,0     C-54.597-120.522-54.597-120.413-54.597-120.194" /></g><g
         id="g3323"
         transform="translate(90.583,793.8654)"><path
           id="path3325"
           fill="#FFFFFF"
           d="M-45.425-144.253c-0.438-0.438-0.767-1.097-0.767-1.864v-0.11     c0-0.658,0.219-1.316,0.658-1.755c0.328-0.328,0.767-0.548,1.206-0.548c0.438,0,0.877,0.219,1.206,0.548     c0.438,0.439,0.767,1.098,0.767,1.865c0,0.658-0.219,1.206-0.548,1.645c-0.328,0.437-0.878,0.767-1.426,0.767     C-44.657-143.704-45.096-143.924-45.425-144.253 M-44.219-147.763L-44.219-147.763c-0.328,0-0.548,0.219-0.658,0.328     c-0.329,0.329-0.439,0.767-0.439,1.316c0,0.548,0.219,0.987,0.549,1.316c0.11,0.11,0.439,0.328,0.658,0.328     c0.658,0,1.207-0.767,1.097-1.645c0-0.549-0.219-0.987-0.549-1.316C-43.67-147.543-43.89-147.763-44.219-147.763 M-44.219-148.53     L-44.219-148.53L-44.219-148.53z" /></g><g
         id="g3327"
         transform="translate(85.9512,801.5124)"><path
           id="path3329"
           fill="#FFFFFF"
           d="M-55.636-127.387c-0.438-0.111-0.877-0.439-0.987-0.877     c-0.439-0.988,0.11-2.194,1.316-2.742c0.658-0.328,1.315-0.328,1.975-0.11c0.438,0.11,0.877,0.439,0.987,0.877     c0.219,0.439,0.219,0.878,0,1.315c-0.219,0.549-0.658,1.098-1.316,1.426C-54.32-127.168-55.088-127.168-55.636-127.387      M-55.088-130.349c-0.767,0.329-1.206,1.207-0.877,1.755c0.111,0.329,0.438,0.439,0.548,0.439c0.439,0.11,0.878,0.11,1.316-0.11     c0.439-0.22,0.768-0.55,0.988-0.989c0.111-0.219,0.111-0.437,0-0.767c-0.11-0.329-0.439-0.439-0.549-0.439     C-54.101-130.569-54.539-130.569-55.088-130.349" /></g><g
         id="g3331"
         transform="translate(95.898,802.4852)"><path
           id="path3333"
           fill="#FFFFFF"
           d="M-33.613-125.209c0.988-2.742,2.962-3.73,4.497-2.962c-3.4,0.439-0.658,6.141-4.936,6.141     c-0.219,0-0.439,0-0.659-0.109c-0.767,0.767-1.536,1.098-2.852,1.098c-1.864,0-4.936-1.755-4.936-5.375     c0-7.788,9.104-8.556,9.104-15.466c0-1.975-1.536-3.291-3.29-3.291c-1.536,0-2.742,1.754-4.058,4.388     c-0.658,1.316-1.975,3.071-3.291,4.827c0.439-0.328,0.876-0.439,1.315-0.439s0.987,0.111,1.316,0.439     c0.329,0.328,0.549,0.767,0.549,1.206v0.11c0,0.658-0.219,1.206-0.767,1.754c-0.548,0.549-1.098,0.878-1.754,0.878     c-0.439,0-0.988-0.11-1.315-0.439c-0.329-0.328-0.55-0.767-0.55-1.206v-0.11c0-0.219,0-0.549,0.111-0.767     c-1.975,2.523-3.729,5.045-3.729,6.471c0,1.206,0.877,2.303,1.864,3.51l0.328-0.22l0.219,0.328     c0.328,0.439,1.097,1.206,2.741,2.962l0.111,0.11l0,0l0.328,0.439l-0.988,0.767c0.219,0.55,0.439,1.206,0.659,1.975     c0.328-1.206,0.987-2.084,1.863-1.755c-0.548,1.316,0.55,3.071-0.219,6.252c0.767-1.206,1.864-1.864,2.632-1.645     c-1.975,1.754,0.548,4.276-1.975,8.117c0.877-0.329,1.426-0.111,1.865,0.328c-2.414,0.329-1.316,3.401-5.484,4.497     c1.097,0.22,1.645,0.767,1.536,1.315c-1.098-0.767-2.084,1.536-5.704,1.426c-0.219,1.316-1.536,2.852-2.962,3.51     c0.219-1.098,0-1.974-0.219-2.851l-11.846,11.627c-0.328,0.329-0.549,0.439-0.659,0.329c-0.111-0.11-0.111-0.329,0.11-0.549     l10.201-12.833c-0.767-0.22-1.536-0.549-2.304-0.878c-0.548-0.22-0.876-0.658-0.876-1.316c-1.865-0.987-3.51-2.084-4.388-2.852     c-0.658-0.548-1.097-0.658-0.548-1.974c0.219-0.439-0.439-1.645,0.987-0.768c0.987,0.549,3.181,1.755,3.51,0.989     c0.219-0.439-0.877-0.878-1.645-1.207c-0.767-0.329-1.536-0.878-1.426-1.207c0.111-0.328,0.658,0,0.767-0.328     c0-0.329,0.328-0.658,0.549-0.658c0.328,0,0.658,0.658,0.877,0.439c0.219-0.22-0.111-1.645-0.329-1.975     c1.206,0.111,1.865,1.206,1.975,2.084c0,0.876,0.219,1.097,0.438,1.206c0.22,0.11,0.439-0.878,0.11-1.536     c0.659,0.11,1.206,0.987,1.206,2.413c0.328,0.219,0.659,0.439,0.878,0.439c0.439,0,1.206-1.098,2.303-1.098     c1.975,0,3.18,1.645,3.291,2.413c0.11,0.659,0,1.206-0.329,1.645c0.767-0.549,0.987-1.536,0.987-2.194     c0-2.852-5.045-4.168-7.13-6.142c-0.109-0.11-0.109-0.11-0.219-0.22l-2.414,0.876l-0.109-0.548c0,0,0-0.11-0.11-0.439     c-0.22-0.767-0.768-2.523-1.098-3.51l-0.11-0.439l0.219-0.11c-1.426-1.865-2.523-3.949-2.742-6.143     c-0.548,0.549-1.097,1.098-1.754,1.536c0.11,0.219,0.11,0.439,0.11,0.658c0,0.658-0.11,1.207-0.549,1.646     c-0.329,0.328-0.659,0.548-1.097,0.548c-0.439,0-0.768-0.11-1.206-0.438c-0.11-0.11-0.11-0.11-0.219-0.22     c-0.11,0.11-0.22,0.11-0.22,0.22c-0.767,0.659-1.754,1.316-2.302,1.974c-0.22,0.329-0.55,0.439-0.989,0.439     c-0.219,0-0.658,0-1.097,0c-0.329,0-0.548-0.219-0.987-0.658c-0.219-0.22-0.768-0.548-1.316-1.098     c0.329-0.328,0.548-0.548,0.877-0.876c0.11-0.219,0.329-0.329,0.439-0.549c0.11,0.111,0.329,0.22,0.439,0.329     c0.219,0.219,0.548,0.219,0.877,0.219c0.328,0,0.767-0.219,0.987-0.658c0.219-0.329,2.084-2.852,3.728-4.606     c-0.219-0.111-0.328-0.111-0.548-0.22c-0.658-0.329-2.193-0.219-2.852-0.219c-0.659,0.11-0.767,0.219-1.315-0.55     c-0.22-0.328-0.439-0.658-0.659-0.876c-0.219-0.329-0.438-0.549,0.11-1.426c0.659-1.206,2.414-4.278,3.071-5.705     c0.549-1.426,1.206-1.645,2.413-2.084c1.097-0.439,2.962-1.536,3.18-1.755l0.111,1.098c-0.329,0.328-1.426,0.767-1.755,0.878     c-0.438,0.109-0.548,0.328,0,0.328c0.439,0,1.755-0.438,2.742-0.877c-0.329,1.097-1.316,2.193-1.864,2.852     c-0.768,0.219-1.645,0.219-1.975,0c0-0.22-0.111-0.549-0.439-0.549s-0.548,0.22-0.438,0.549c0.11,0.329,0.548,0.439,0.438,0.988     c-0.111,0.659-0.877,0.659-1.316,0.767c-0.658,0.987-1.426,2.413-1.864,2.961c-0.328,0.549-0.11,0.878,0.111,1.098     c0.548,0.438,1.754-0.22,4.167-0.439c0.877,0,1.864-0.11,2.961-0.11c0.329-2.852,1.426-5.484,5.375-6.471     c1.865-0.439,3.84-1.865,4.497-3.73c-7.788,0.11-8.994-2.851-8.994-5.813c0-3.291,2.742-3.071,2.742-5.484     c0-2.084-6.581-2.962-8.556-3.291c-1.645-0.219-2.632-0.658-3.401-1.426c-0.767-0.767-1.645-1.536-3.071-3.071     c0,0,0.659-0.11,1.206-0.11l1.097,1.426c0.329,0.439,0.549,0.878,0.767,0.878c0.22,0,0.111-0.439-0.219-0.878l-0.878-1.535     c3.839-0.219,4.058,1.206,4.058,1.754c0,0.55-0.987,0.989-0.437,1.316c0.548,0.329,0.987,0.11,1.426-0.438     c0.437-0.549,0.548-0.988,1.645-0.549c0,0,8.336,3.51,9.433,3.949c0.988,0.439,0.659,0.877,0.11,1.316     c-0.658,0.549-0.767,1.316-0.767,2.194c0,2.523,1.536,3.289,4.278,3.289c0-0.439-0.11-0.876-0.11-1.206     c0-3.949,6.032-7.788,7.567-7.788c0.768,0,1.645,0.548,1.755-1.866c0-1.754,0.439-2.962,0.11-5.045     c-0.328-1.975-0.876-2.303-2.084-3.181c-1.207-0.876-2.414-3.51-2.852-4.058c0.548-0.329,1.097-0.439,1.535,0.877     c0.329,1.098,0.768,1.865,1.317,2.084c-0.439-1.206-0.768-2.962-1.097-3.51c1.536-0.219,4.058,1.097,4.058,2.193     c0,1.096-0.877,0.987-0.877,1.755c0,0.328,0.439,0.658,0.877,0.658c0.658,0,1.097-0.439,1.097-0.767     c0.658,0.328,1.097,0.987,1.097,2.632c0,0.658,0,1.206-0.111,1.864c0-0.109,0.111-0.219,0.111-0.219     c0.328-0.439,0.767-0.768,1.426-0.768c0.548,0,1.206,0.11,1.645,0.439c0.548,0.439,0.987,0.987,1.097,1.645     c0,0.11,0,0.219,0,0.438c0,0.329-0.11,0.658-0.328,0.988c-0.219,0.328-0.659,0.658-1.097,0.767c-0.658,0.11-1.315,0-1.975-0.439     c-0.548-0.328-0.987-0.877-1.097-1.426c-0.111,2.193-0.329,4.167-0.219,5.045c0.111,1.206,0.111,1.754-0.219,1.974     c-0.438,0.219-0.877-0.548-1.426-0.548c-0.548,0-2.303,1.645-2.303,3.29c0,1.755,1.865,3.949,1.755,6.253     c0,0.767,0.438,1.098,0.767,0.438c0.329-0.767,0.878-1.864,1.645-2.742c-0.439-2.962,2.741-5.813,5.375-3.728     c-1.316-0.22-2.193,0.987-2.852,2.193c0.219,0,0.439-0.109,0.768-0.109c0.11,0,0.219,0,0.437,0     c0.989-1.207,3.949-1.097,4.718,1.864c-0.55-0.658-1.645-1.097-2.413-0.987c1.097,0.876,1.754,2.302,1.754,3.839     c0,7.459-9.104,8.336-9.104,15.137c0,2.523,2.193,4.167,3.728,4.167c0.55,0,0.989-0.219,1.427-0.439     c-0.549-0.548-0.877-1.536-0.877-2.632c0.219-5.375,8.994-5.155,9.104-7.678C-26.921-129.267-33.393-130.474-33.613-125.209      M-56.976-104.587c0.437,0.767,0,2.084,1.535,2.084c0.767,0,1.426-0.767,2.304-0.987     C-54.672-103.71-55.989-104.039-56.976-104.587 M-64.983-121.041c0-0.439-0.219-0.878-0.438-1.098     c-0.11-0.11-0.328-0.219-0.549-0.219c-0.548,0-0.877,0.658-0.877,1.316v0.11c0,0.438,0.22,0.877,0.438,1.097     c0.11,0.111,0.329,0.22,0.549,0.22c0.22,0,0.439-0.22,0.55-0.329C-65.093-120.273-64.983-120.602-64.983-121.041      M-39.097-158.774c0.111,0.439,0.439,0.878,0.768,1.097c0.439,0.328,0.877,0.438,1.316,0.328c0.22,0,0.439-0.111,0.658-0.438l0,0     c0.219-0.219,0.11-0.549,0.11-0.768c-0.11-0.439-0.437-0.876-0.767-1.097c-0.767-0.439-1.645-0.439-1.975,0.11     C-39.206-159.212-39.097-158.993-39.097-158.774 M-44.581-133.765c0,0.22,0.11,0.439,0.329,0.659     c0.219,0.219,0.549,0.219,0.658,0.219c0.438,0,0.877-0.219,1.206-0.658c0.328-0.328,0.548-0.878,0.548-1.315     c0-0.219-0.109-0.439-0.328-0.658l0,0c-0.219-0.22-0.549-0.22-0.659-0.22c-0.438,0-0.877,0.22-1.206,0.659     C-44.362-134.642-44.581-134.204-44.581-133.765 M-59.389-116.872c0.439,1.315,1.206,3.949,1.206,3.949l1.426-0.549     c-0.438-0.111-0.877-0.548-1.316-0.987c0.329-0.111,0.878-0.111,1.206,0.11l-0.548-1.426c-0.111,0.219-0.55,0.767-0.877,0.767     c-0.329-1.097,0.438-1.536,0.877-1.754c0.876-0.439,1.426-0.549,1.645-0.11c0.219,0.437-0.329,1.097-0.988,0.876     c-0.111,0.767,0.328,1.098,0.767,1.098c0.329,0,0.658-0.329,0.767-0.767c0,1.206,0.439,2.084,1.536,2.413     c0.439-1.097,0.11-1.865-0.767-2.741c0.437,0.219,0.987,0.11,1.206-0.111c0.219-0.439,0.219-0.987-0.439-1.315     c-0.11,0.767-0.987,0.767-1.316,0.328c-0.219-0.439,0.111-0.987,0.877-1.426c0.878-0.549,1.645-0.219,2.084,0.548     c-0.328,0.111-0.767,0-1.315-0.219l0.876,1.754c0-0.219,0.219-0.658,0.55-0.987c0.11,0.439,0.328,1.098,0,1.646l1.974-1.097     c-0.658-0.111-1.206-0.55-1.426-0.878c0.439-0.219,0.878-0.111,1.207,0l-0.989-1.645c0,0.548-0.219,0.987-0.438,1.206     c-0.439-0.768-0.328-1.536,0.549-2.084c0.767-0.439,1.315-0.548,1.645-0.11c0.329,0.439-0.22,1.206-0.877,0.988     c0,0.767,0.438,1.098,0.877,1.098s0.658-0.439,0.767-0.988c0.329,1.207,0.768,1.865,1.975,2.084     c0.219-1.098-0.329-1.975-1.316-2.523c0.439,0.111,0.877,0.111,1.097-0.219c0.219-0.439,0.111-0.987-0.548-1.206     c-0.11,0.767-0.988,0.876-1.206,0.437c-0.219-0.437,0.11-0.876,0.878-1.315c0.437-0.328,1.206-0.658,1.974,0.11     c-0.219,0.329-0.877,0.439-1.206,0.439l0.878,1.206c0-0.439,0.219-0.876,0.548-1.097c0.111,0.549,0.22,1.206,0.111,1.645     l1.206-0.878c0,0-1.864-1.974-2.742-3.071L-59.389-116.872z M-47.104-147.805c-0.549-0.658-1.316-0.987-1.864-0.548     c-0.55,0.438-0.55,1.316-0.111,1.974c0.438,0.658,1.316,0.989,1.864,0.549C-46.665-146.269-46.665-147.147-47.104-147.805      M-43.594-142.211c-0.549-0.658-1.316-0.987-1.865-0.548c-0.548,0.438-0.548,1.316-0.11,1.974     c0.549,0.659,1.315,0.987,1.865,0.549C-43.155-140.565-43.046-141.443-43.594-142.211" /></g></g></g></svg>