<?xml version="1.0" encoding="UTF-8"?>
<svg width="4039px" height="912px" viewBox="0 0 4039 912" version="1.1" xmlns="http://www.w3.org/2000/svg" xmlns:xlink="http://www.w3.org/1999/xlink">
    <!-- Generator: Sketch 52.5 (67469) - http://www.bohemiancoding.com/sketch -->
    <title>Group 18</title>
    <desc>Created with Sketch.</desc>
    <g id="Page-1" stroke="none" stroke-width="1" fill="none" fill-rule="evenodd">
        <g id="Group-18" transform="translate(-1.000000, -1.000000)" fill="#FFFFFF">
            <g id="main-Logo" transform="translate(0.742279, 0.741629)">
                <path d="M416.813,908.347 C415.960827,908.353074 415.273831,909.046777 415.276038,909.898969 C415.278245,910.751161 415.968824,911.441298 416.821017,911.442958 C417.673211,911.444618 418.366473,910.757177 418.372,909.905 C418.373067,909.491293 418.209126,909.094238 417.916497,908.801796 C417.623867,908.509353 417.226706,908.345668 416.813,908.347 Z" id="_Path_"></path>
                <path d="M373.66,893.348 C372.835702,893.340998 372.04313,893.665355 371.460243,894.248243 C370.877355,894.83113 370.552998,895.623702 370.56,896.448 C370.56,898.160083 371.947917,899.548 373.66,899.548 C375.372083,899.548 376.76,898.160083 376.76,896.448 C376.76,894.735917 375.372083,893.348 373.66,893.348 Z" id="_Path_2"></path>
                <path d="M332.165,873.914 C329.591353,873.914 327.505,876.000353 327.505,878.574 C327.505,881.147647 329.591353,883.234 332.165,883.234 C334.738647,883.234 336.825,881.147647 336.825,878.574 C336.825,876.000353 334.738647,873.914 332.165,873.914 Z" id="_Path_3"></path>
                <path d="M292.773,850.2 C289.339801,850.217652 286.569284,853.011999 286.581036,856.445224 C286.592789,859.878448 289.382372,862.653762 292.815612,862.647909 C296.248852,862.642055 299.028955,859.857245 299.029,856.424 C299.031974,854.766827 298.372786,853.177138 297.197985,852.008346 C296.023184,850.839555 294.430136,850.188528 292.773,850.2 Z" id="_Path_4"></path>
                <path d="M255.964,822.488 C252.817588,822.485978 249.979961,824.380041 248.774947,827.286561 C247.569933,830.19308 248.234982,833.539318 250.459832,835.764168 C252.684682,837.989018 256.03092,838.654067 258.937439,837.449053 C261.843959,836.244039 263.738022,833.406412 263.736,830.26 C263.732691,825.969014 260.254986,822.491309 255.964,822.488 Z" id="_Path_5"></path>
                <path d="M222.076,791 C216.928931,791.012151 212.763979,795.190234 212.768029,800.337316 C212.772079,805.484398 216.943602,809.655921 222.090684,809.659971 C227.237766,809.664021 231.415849,805.499069 231.428,800.352 C231.435198,797.869496 230.452213,795.486593 228.69681,793.73119 C226.941407,791.975787 224.558504,790.992802 222.076,791 Z" id="_Path_6"></path>
                <path d="M191.545,756.151 C185.532607,756.157074 180.662954,761.034931 180.667002,767.047326 C180.671051,773.059721 185.547267,777.931016 191.559663,777.928994 C197.572059,777.926971 202.444997,773.052396 202.445,767.04 C202.444205,764.150395 201.295209,761.37953 199.250918,759.337303 C197.206628,757.295075 194.434604,756.148878 191.545,756.151 Z" id="_Path_7"></path>
                <path d="M164.721,718.188 C157.838886,718.191314 152.261897,723.771884 152.263002,730.653999 C152.264106,737.536114 157.842886,743.114894 164.725001,743.115998 C171.607116,743.117103 177.187686,737.540114 177.191,730.658 C177.193124,727.3501 175.880007,724.177072 173.540967,721.838033 C171.201928,719.498993 168.0289,718.185876 164.721,718.188 Z" id="_Path_8"></path>
                <path d="M156.743,691.167 C156.740238,683.429819 150.466849,677.159265 142.729667,677.160001 C134.992485,677.160738 128.72029,683.432486 128.719001,691.169668 C128.717713,698.906849 134.987819,705.180686 142.725,705.184 C150.460376,705.169145 156.727593,698.902375 156.743,691.167 Z" id="_Path_9"></path>
                <path d="M141.723,649.126 C141.729064,640.52531 134.763014,633.547487 126.162326,633.539026 C117.561638,633.530565 110.581874,640.49467 110.571016,649.095355 C110.560159,657.696041 117.522318,664.677746 126.123,664.691 C130.255777,664.695777 134.221169,663.058548 137.146766,660.139515 C140.072363,657.220482 141.718494,653.258778 141.723,649.126 Z" id="_Path_10"></path>
                <path d="M132.348,605.286 C132.344686,595.827347 124.675321,588.161712 115.216668,588.163001 C105.758014,588.164289 98.0907376,595.832014 98.0900011,605.290667 C98.0892646,614.74932 105.755347,622.418238 115.214,622.421 C124.675865,622.417688 132.34524,614.747865 132.348,605.286 Z" id="_Path_11"></path>
                <path d="M128.817,560.423 C128.829948,552.862937 124.285253,546.04029 117.303951,543.139231 C110.322649,540.238171 102.281081,541.830632 96.9322938,547.173403 C91.583507,552.516174 89.9819969,560.555946 92.8751981,567.540508 C95.7683993,574.52507 102.585927,579.07744 110.146,579.073 C115.09625,579.079637 119.845965,577.117535 123.348293,573.619147 C126.85062,570.120758 128.818066,565.373254 128.817,560.423 Z" id="_Path_12"></path>
                <path d="M110.963,535.462 C122.129984,535.449849 131.175037,526.391664 131.170987,515.224675 C131.166936,504.057685 122.115315,495.006064 110.948325,495.002013 C99.781336,494.997963 90.7231506,504.043016 90.711,515.21 C90.7048875,520.583036 92.8366113,525.737764 96.6359238,529.537076 C100.435236,533.336389 105.589964,535.468113 110.963,535.462 Z" id="_Path_13"></path>
                <path d="M95.9,470.564 C95.9121503,482.596293 105.675026,492.341113 117.70732,492.33099 C129.739615,492.320867 139.48608,482.559633 139.477984,470.527337 C139.469888,458.495041 129.710297,448.746932 117.678,448.753 C111.894678,448.7474 106.347099,451.044597 102.260768,455.137119 C98.1744373,459.229642 95.8856433,464.780694 95.9,470.564 Z" id="_Path_14"></path>
                <path d="M749.891,804.275 C749.329334,804.270959 748.820927,804.606779 748.60421,805.124967 C748.387494,805.643154 748.505452,806.240933 748.902764,806.637956 C749.300076,807.034979 749.897941,807.152502 750.41597,806.935408 C750.934,806.718314 751.26945,806.209663 751.265,805.648 C751.25061,804.895367 750.643643,804.288842 749.891,804.275 Z" id="_Path_15"></path>
                <path d="M709.878,823.916 C709.147008,823.905045 708.441993,824.186883 707.919999,824.698734 C707.398005,825.210584 707.102389,825.909934 707.099,826.641 C707.099,828.169724 708.338276,829.409 709.867,829.409 C711.395724,829.409 712.635,828.169724 712.635,826.641 C712.622897,825.128565 711.390473,823.910446 709.878,823.916 Z" id="_Path_16"></path>
                <path d="M667.892,839.231 C666.217237,839.228988 664.706563,840.237148 664.065761,841.78447 C663.424958,843.331792 663.780524,845.11283 664.966339,846.295487 C666.152154,847.478144 667.934133,847.82896 669.479741,847.184034 C671.025349,846.539108 672.029478,845.025751 672.023,843.351 C672.019137,841.072893 670.17011,839.228789 667.892,839.231 Z" id="_Path_17"></path>
                <path d="M624.368,850.054 C621.327672,850.054 618.863,852.518672 618.863,855.559 C618.863,858.599328 621.327672,861.064 624.368,861.064 C627.408328,861.064 629.873,858.599328 629.873,855.559 C629.873,852.518672 627.408328,850.054 624.368,850.054 Z" id="_Path_18"></path>
                <path d="M579.831,856.2 C577.036809,856.173243 574.503243,857.837009 573.417417,860.411731 C572.33159,862.986454 572.908623,865.962039 574.878144,867.944261 C576.847665,869.926483 579.81948,870.522632 582.401129,869.453378 C584.982778,868.384124 586.662796,865.861305 586.654,863.067 C586.640514,859.297184 583.600651,856.237718 579.831,856.2 Z" id="_Path_19"></path>
                <path d="M534.728,857.629 C530.170521,857.631768 526.477114,861.326529 526.476016,865.884008 C526.474917,870.441488 530.166543,874.138028 534.72402,874.142994 C539.281496,874.147959 542.981168,870.459471 542.99,865.902 C543.002839,863.705862 542.136859,861.595797 540.584962,860.041833 C539.033064,858.48787 536.924153,857.619083 534.728,857.629 Z" id="_Path_20"></path>
                <path d="M489.558,854.326 C484.245162,854.344219 479.951881,858.663745 479.96604,863.976595 C479.9802,869.289445 484.296445,873.586026 489.609304,873.575926 C494.922163,873.565826 499.222041,869.252865 499.216,863.94 C499.216561,861.382402 498.197794,858.930041 496.385175,857.12568 C494.572556,855.321319 492.115568,854.31376 489.558,854.326 Z" id="_Path_21"></path>
                <path d="M444.892,846.174 C440.442372,846.17724 436.432946,848.860872 434.7337,852.973263 C433.034454,857.085655 433.98011,861.816734 437.129618,864.959948 C440.279127,868.103163 445.012088,869.039352 449.121072,867.331882 C453.230057,865.624412 455.905662,861.609626 455.9,857.16 C455.898411,854.243006 454.73743,851.446262 452.672741,849.3857 C450.608052,847.325137 447.808992,846.169754 444.892,846.174 Z" id="_Path_22"></path>
                <path d="M401.422,832.429 C394.592586,832.438394 389.063815,837.982244 389.073022,844.811658 C389.082228,851.641072 394.625925,857.169996 401.455339,857.160978 C408.284754,857.151959 413.81383,851.608414 413.805,844.779 C413.785162,837.953635 408.247394,832.430624 401.422,832.429 Z" id="_Path_23"></path>
                <path d="M359.981,813.07 C354.417738,813.063527 349.398764,816.410041 347.265776,821.548162 C345.132788,826.686283 346.306143,832.603419 350.238391,836.538816 C354.170639,840.474214 360.086834,841.652306 365.226661,839.523433 C370.366488,837.394559 373.717019,832.378266 373.715,826.815 C373.717122,823.170855 372.271184,819.675194 369.695416,817.097363 C367.119647,814.519532 363.625146,813.070795 359.981,813.07 Z" id="_Path_24"></path>
                <path d="M336.372,803.523 C336.376854,797.397351 332.689999,791.872381 327.031604,789.52586 C321.373209,787.17934 314.858394,788.473708 310.526762,792.805054 C306.19513,797.136399 304.900331,803.651128 307.246478,809.309679 C309.592624,814.968229 315.117351,818.655449 321.243,818.651 C325.256833,818.65605 329.107737,817.063865 331.946041,814.225749 C334.784346,811.387632 336.376785,807.536833 336.372,803.523 Z" id="_Path_25"></path>
                <path d="M285.928,758.888 C279.256013,758.883551 273.238726,762.899823 270.683411,769.063085 C268.128097,775.226346 269.538298,782.322086 274.256106,787.039894 C278.973914,791.757702 286.069654,793.167903 292.232915,790.612589 C298.396177,788.057274 302.412449,782.039987 302.408,775.368 C302.377272,766.279106 295.016894,758.918728 285.928,758.888 Z" id="_Path_26"></path>
                <path d="M254.558,724.956 C247.319454,724.949527 240.790156,729.305208 238.016065,735.991089 C235.241975,742.676971 236.769703,750.375654 241.886555,755.495655 C247.003408,760.615656 254.70115,762.14812 261.388737,759.378143 C268.076324,756.608166 272.43602,750.081549 272.434,742.843 C272.436762,732.967434 264.433565,724.959313 254.558,724.956 Z" id="_Path_27"></path>
                <path d="M227.722,725.774 C238.359002,725.780073 246.986919,717.162004 246.992994,706.525002 C246.999068,695.888 238.381,687.260082 227.743998,687.254006 C217.106996,687.247931 208.479077,695.865998 208.473,706.503 C208.459699,711.614239 210.482736,716.520287 214.094875,720.136555 C217.707015,723.752823 222.610749,725.781463 227.722,725.774 Z" id="_Path_28"></path>
                <path d="M226.414,667 C226.407373,655.619856 217.178815,646.39861 205.798669,646.401003 C194.418523,646.403396 185.193845,655.628522 185.192004,667.008668 C185.190163,678.388814 194.411855,687.616925 205.792,687.623 C217.180234,687.619688 226.41124,678.388235 226.414,667 Z" id="_Path_29"></path>
                <path d="M911.7,495.2 C911.023839,495.198539 910.468681,495.734218 910.446,496.41 C910.456559,497.099796 911.01031,497.657962 911.7,497.674 C912.02959,497.668479 912.343467,497.532161 912.572488,497.295075 C912.801508,497.057989 912.926885,496.739584 912.921,496.41 C912.921013,496.087173 912.792023,495.777726 912.562719,495.550488 C912.333415,495.32325 912.022814,495.197065 911.7,495.2 Z" id="_Path_30"></path>
                <path d="M898.26,537.119 C897.265866,537.114552 896.36735,537.71057 895.984854,538.628185 C895.602358,539.545801 895.811526,540.603543 896.514492,541.306508 C897.217457,542.009474 898.275199,542.218642 899.192815,541.836146 C900.11043,541.45365 900.706448,540.555134 900.702,539.561 C900.703064,538.913016 900.446124,538.291265 899.98793,537.83307 C899.529735,537.374876 898.907984,537.117936 898.26,537.119 Z" id="_Path_31"></path>
                <path d="M880.34,577.362 C878.294581,577.374153 876.645768,579.041164 876.656066,581.086592 C876.666364,583.132021 878.331878,584.782345 880.377315,584.773903 C882.422753,584.765461 884.074587,583.101444 884.068,581.056 C884.066431,580.070869 883.672065,579.127037 882.972287,578.433641 C882.27251,577.740246 881.325104,577.354544 880.34,577.362 Z" id="_Path_32"></path>
                <path d="M858.214,615.555 C855.503082,615.56384 853.312301,617.768051 853.32003,620.478972 C853.327759,623.189893 855.531072,625.381577 858.241996,625.374959 C860.95292,625.368342 863.145507,623.165927 863.14,620.455 C863.140018,619.150922 862.620202,617.900631 861.695643,616.980952 C860.771084,616.061273 859.51806,615.54808 858.214,615.555 Z" id="_Path_33"></path>
                <path d="M832.043,651.132 C828.646337,651.138089 825.896027,653.893345 825.896039,657.290013 C825.896052,660.686681 828.646383,663.441916 832.043046,663.44798 C835.439709,663.454044 838.19986,660.708646 838.212,657.312 C838.209257,653.904309 835.45068,651.140814 832.043,651.132 Z" id="_Path_34"></path>
                <path d="M802.123,683.766 C799.128163,683.761956 796.426155,685.563424 795.278212,688.32952 C794.130268,691.095617 794.762745,694.280912 796.880417,696.398583 C798.998088,698.516255 802.183383,699.148732 804.94948,698.000788 C807.715576,696.852845 809.517044,694.150837 809.513,691.156 C809.51486,689.195481 808.73687,687.314724 807.350573,685.928427 C805.964276,684.54213 804.083519,683.76414 802.123,683.766 Z" id="_Path_35"></path>
                <path d="M768.824,713.119 C764.065549,713.133935 760.220165,717.003521 760.235085,721.761972 C760.250004,726.520423 764.119577,730.365819 768.878028,730.350915 C773.636479,730.336012 777.481888,726.466451 777.467,721.708 C777.468924,719.420091 776.557206,717.226125 774.934347,715.613406 C773.311489,714.000687 771.111852,713.102737 768.824,713.119 Z" id="_Path_36"></path>
                <path d="M732.462,738.658 C728.468545,738.63614 724.855936,741.024326 723.31151,744.707112 C721.767083,748.389897 722.59561,752.640534 725.410112,755.473684 C728.224614,758.306835 732.469687,759.163415 736.162591,757.643343 C739.855495,756.123271 742.267487,752.526512 742.272,748.533 C742.262864,743.108291 737.88653,738.702961 732.462,738.658 Z" id="_Path_37"></path>
                <path d="M692.994,759.422 C688.505023,759.415125 684.454553,762.114837 682.733518,766.260799 C681.012484,770.406762 681.960302,775.181318 685.134492,778.355508 C688.308682,781.529698 693.083238,782.477516 697.229201,780.756482 C701.375163,779.035447 704.074875,774.984977 704.068,770.496 C704.043883,764.390016 699.099984,759.446117 692.994,759.422 Z" id="_Path_38"></path>
                <path d="M650.942,774.78 C645.945821,774.764216 641.433226,777.762872 639.51238,782.375073 C637.591534,786.987275 638.641597,792.302613 642.172006,795.837902 C645.702415,799.37319 651.016297,800.430593 655.631148,798.516119 C660.245998,796.601645 663.250883,792.093196 663.242,787.097 C663.240354,780.301826 657.737165,774.791031 650.942,774.78 Z" id="_Path_39"></path>
                <path d="M607.1,784.48 C601.614319,784.470697 596.663432,787.767498 594.556769,792.83255 C592.450107,797.897603 593.602727,803.732981 597.47697,807.616668 C601.351213,811.500356 607.183768,812.667181 612.253935,810.572857 C617.324101,808.478533 620.632947,803.535687 620.637,798.05 C620.628242,790.571998 614.577959,784.506965 607.1,784.48 Z" id="_Path_40"></path>
                <path d="M562.2,788.318 C554.041531,788.318571 547.426545,794.929556 547.421038,803.088023 C547.415531,811.24649 554.021586,817.8664 562.180046,817.877985 C570.338507,817.889571 576.963336,811.28845 576.981,803.13 C576.987632,794.958915 570.371081,788.328487 562.2,788.318 Z" id="_Path_41"></path>
                <path d="M533.028,802.291 C533.027991,793.45744 525.869215,786.295245 517.035656,786.291018 C508.202097,786.286792 501.03647,793.442133 501.028007,802.275689 C501.019545,811.109245 508.171449,818.278302 517.005,818.291 C525.841869,818.28276 533.007066,811.127848 533.028,802.291 Z" id="_Path_42"></path>
                <path d="M489.6,795.6 C489.605521,786.077087 481.890248,778.352713 472.367335,778.347007 C462.844422,778.341301 455.119898,786.056423 455.114006,795.579336 C455.108115,805.102249 462.823087,812.826923 472.346,812.833 C476.919707,812.837245 481.307613,811.023665 484.543683,807.791534 C487.779752,804.559403 489.598675,800.173709 489.6,795.6 Z" id="_Path_43"></path>
                <path d="M447.42,783.1 C447.415029,772.890048 439.135955,764.616346 428.926001,764.618002 C418.716048,764.619659 410.439659,772.896048 410.438002,783.106001 C410.436346,793.315955 418.710048,801.595029 428.92,801.6 C433.827644,801.603718 438.535352,799.655811 442.005581,796.185581 C445.475811,792.715352 447.423718,788.007644 447.42,783.1 Z" id="_Path_44"></path>
                <path d="M407.178,765.057 C407.175166,757.088367 402.371996,749.906234 395.008545,746.860135 C387.645095,743.814036 379.171747,745.503963 373.54022,751.141784 C367.908693,756.779605 366.228232,765.254835 369.282553,772.614879 C372.336875,779.974922 379.524369,784.770067 387.493,784.764 C392.718579,784.767195 397.730729,782.69125 401.423708,778.994144 C405.116687,775.297038 407.187032,770.282572 407.178,765.057 Z" id="_Path_45"></path>
                <path d="M807.42,164.594 C807.869819,164.612172 808.293468,164.382553 808.523788,163.995745 C808.754108,163.608938 808.754108,163.127062 808.523788,162.740255 C808.293468,162.353447 807.869819,162.123828 807.42,162.142 C806.742899,162.142 806.194,162.690899 806.194,163.368 C806.194,164.045101 806.742899,164.594 807.42,164.594 Z" id="_Path_46"></path>
                <path d="M828.48,205.84 C829.843585,205.84331 830.951673,204.74059 830.954985,203.377005 C830.958298,202.01342 829.85558,200.90533 828.491995,200.902015 C827.12841,200.8987 826.020318,202.001415 826.017,203.365 C826.007265,204.022261 826.26324,204.655625 826.726913,205.121558 C827.190587,205.587491 827.8227,205.84654 828.48,205.84 Z" id="_Path_47"></path>
                <path d="M845.145,249.057 C847.179617,249.057 848.829,247.407617 848.829,245.373 C848.829,243.338383 847.179617,241.689 845.145,241.689 C843.110383,241.689 841.461,243.338383 841.461,245.373 C841.460469,246.35022 841.848433,247.287569 842.539432,247.978568 C843.230431,248.669567 844.16778,249.057531 845.145,249.057 Z" id="_Path_48"></path>
                <path d="M857.353,293.8 C859.350616,293.806065 861.154609,292.606542 861.921774,290.762101 C862.688939,288.91766 862.267748,286.792608 860.85507,285.380217 C859.442392,283.967827 857.317255,283.547068 855.47297,284.314608 C853.628685,285.082148 852.429529,286.886386 852.436,288.884 C852.434405,290.188466 852.951964,291.439949 853.874455,292.362252 C854.796946,293.284556 856.048534,293.801861 857.353,293.8 Z" id="_Path_49"></path>
                <path d="M858.715,333.445 C858.726599,336.845194 861.491425,339.592715 864.891625,339.582965 C868.291826,339.573215 871.040849,336.809883 871.032948,333.409678 C871.025046,330.009473 868.263209,327.258947 864.863,327.265 C861.461009,327.279325 858.711664,330.042981 858.715,333.445 Z" id="_Path_50"></path>
                <path d="M867.675,371.136 C863.605181,371.147599 860.313167,374.452147 860.317033,378.52198 C860.3209,382.591813 863.619187,385.8901 867.68902,385.893967 C871.758853,385.897833 875.063401,382.605819 875.075,378.536 C875.075,374.449093 871.761907,371.136 867.675,371.136 Z" id="_Path_51"></path>
                <path d="M865.713,415.052 C862.218256,415.054029 859.069056,417.161627 857.734577,420.39155 C856.400097,423.621473 857.143299,427.337262 859.61746,429.805412 C862.091622,432.273562 865.809207,433.007722 869.035874,431.665389 C872.262541,430.323056 874.362473,427.168738 874.356,423.674 C874.358408,421.382924 873.447909,419.185298 871.825903,417.567234 C870.203897,415.949169 868.004064,415.044019 865.713,415.052 Z" id="_Path_52"></path>
                <path d="M858.966,458.52 C853.531422,458.535452 849.136641,462.950356 849.146016,468.384948 C849.155391,473.819539 853.565377,478.219255 858.999975,478.215958 C864.434574,478.212662 868.839219,473.807599 868.842,468.373 C868.84762,465.754113 867.808182,463.241205 865.954187,461.391527 C864.100192,459.54185 861.584867,458.508274 858.966,458.52 Z" id="_Path_53"></path>
                <path d="M857.669,511.831 C857.668988,507.339106 854.961738,503.290008 850.810759,501.573473 C846.65978,499.856939 841.883439,500.811383 838.710917,503.991354 C835.538395,507.171325 834.595154,511.949891 836.321418,516.096833 C838.047682,520.243774 842.103118,522.941522 846.595,522.931 C849.538319,522.936887 852.362403,521.768481 854.441206,519.684798 C856.52001,517.601114 857.681789,514.774297 857.669,511.831 Z" id="_Path_54"></path>
                <path d="M828.588,540.977 C821.785509,540.977 816.271,546.491509 816.271,553.294 C816.271,560.096491 821.785509,565.611 828.588,565.611 C835.390491,565.611 840.905,560.096491 840.905,553.294 C840.90952,550.025945 839.613291,546.890441 837.302425,544.579575 C834.991559,542.268709 831.856055,540.97248 828.588,540.977 Z" id="_Path_55"></path>
                <path d="M805.327,578.495 C799.850391,578.49055 794.91057,581.786155 792.811679,586.844605 C790.712787,591.903055 791.868324,597.727794 795.739299,601.601916 C799.610273,605.476038 805.43407,606.636309 810.494224,604.54153 C815.554379,602.446751 818.853998,597.50961 818.854,592.033 C818.853451,584.560691 812.799306,578.501623 805.327,578.495 Z" id="_Path_56"></path>
                <path d="M777.162,612.589 C771.18307,612.586582 765.792026,616.187784 763.504837,621.711947 C761.217647,627.236109 762.485208,633.594198 766.715958,637.818932 C770.946707,642.043665 777.306593,643.302178 782.827495,641.007131 C788.348398,638.712083 791.941925,633.315921 791.931,627.337 C791.93127,623.421864 790.37467,619.667312 787.604282,616.900864 C784.833894,614.134415 781.077131,612.583159 777.162,612.589 Z" id="_Path_57"></path>
                <path d="M744.637,642.684 C735.793921,642.687317 728.626741,649.856591 728.626008,658.69967 C728.625275,667.54275 735.791265,674.713213 744.634343,674.717997 C753.477422,674.72278 760.651166,667.560076 760.66,658.717 C760.665578,654.46481 758.979556,650.385028 755.973739,647.377335 C752.967922,644.369642 748.889193,642.681075 744.637,642.684 Z" id="_Path_58"></path>
                <path d="M708.319,668.309 C698.805777,668.315631 691.097457,676.029778 691.098013,685.543003 C691.098569,695.056228 698.80779,702.769473 708.321014,702.774993 C717.834238,702.780512 725.552405,695.076218 725.564,685.563 C725.567716,680.987376 723.752318,676.597959 720.517706,673.361659 C717.283095,670.125359 712.894625,668.307671 708.319,668.309 Z" id="_Path_59"></path>
                <path d="M668.8,688.944 C658.590858,688.937928 650.309635,697.208857 650.303009,707.417999 C650.296383,717.627141 658.566863,725.908813 668.776005,725.915992 C678.985147,725.923172 687.267267,717.653141 687.275,707.444 C687.279511,702.540445 685.33529,697.836066 681.870296,694.366383 C678.405303,690.896701 673.703557,688.94612 668.8,688.944 Z" id="_Path_60"></path>
                <path d="M626.744,704.28 C615.862997,704.292147 607.05091,713.120643 607.059005,724.00165 C607.067101,734.882658 615.892316,743.698031 626.773325,743.693986 C637.654335,743.689942 646.472993,734.86801 646.473,723.987 C646.462513,713.09888 637.632125,704.278339 626.744,704.28 Z" id="_Path_61"></path>
                <path d="M498.235,2.786 C498.910572,2.77180093 499.449523,2.21770625 499.445,1.542 C499.426046,0.878257071 498.882514,0.350024991 498.2185,0.350024991 C497.554486,0.350024991 497.010954,0.878257071 496.992,1.542 C496.989856,1.87240832 497.120094,2.18991965 497.353639,2.42365246 C497.587184,2.65738526 497.90459,2.78787824 498.235,2.786 Z" id="_Path_62"></path>
                <path d="M541.377,17.457 C542.732646,17.4443238 543.823174,16.3384814 543.816944,14.9827902 C543.810715,13.627099 542.710071,12.5313252 541.354365,12.5311077 C539.99866,12.5308902 538.897664,13.6263108 538.891,14.982 C538.888573,15.6410625 539.150066,16.2736724 539.617129,16.7386686 C540.084191,17.2036648 540.717955,17.4623497 541.377,17.457 Z" id="_Path_63"></path>
                <path d="M582.883,36.575 C584.923679,36.5689159 586.573045,34.9096898 586.566967,32.869011 C586.560889,30.8283322 584.901668,29.1789607 582.860989,29.1850328 C580.82031,29.1911049 579.170934,30.8503211 579.177,32.891 C579.179383,33.8711405 579.571303,34.8101309 580.266429,35.5011306 C580.961555,36.1921304 581.902863,36.5784532 582.883,36.575 Z" id="_Path_64"></path>
                <path d="M622.275,59.945 C624.993343,59.9334137 627.188696,57.7224166 627.18098,55.0040596 C627.173264,52.2857027 624.965395,50.087204 622.24703,50.0910497 C619.528665,50.0948953 617.327025,52.2996321 617.327,55.018 C617.323229,56.3295203 617.844001,57.5881059 618.77336,58.5135203 C619.702718,59.4389348 620.963508,59.9543487 622.275,59.945 Z" id="_Path_65"></path>
                <path d="M659.084,87.326 C662.473123,87.3166178 665.214137,84.563828 665.20899,81.1746961 C665.203843,77.7855641 662.454481,75.0411122 659.065345,75.0420238 C655.676209,75.0429353 652.928324,77.7888658 652.925,81.178 C652.920721,82.8117674 653.568593,84.3796931 654.724877,85.5339121 C655.881162,86.688131 657.450243,87.3331993 659.084,87.326 Z" id="_Path_66"></path>
                <path d="M692.95,118.5 C695.944717,118.512542 698.651758,116.718862 699.807607,113.956164 C700.963456,111.193467 700.340214,108.006474 698.22878,105.882719 C696.117347,103.758965 692.934034,103.117191 690.164658,104.256946 C687.395282,105.396702 685.585883,108.093261 685.581,111.088 C685.57929,115.165478 688.872581,118.477987 692.95,118.5 Z" id="_Path_67"></path>
                <path d="M723.535,153.03 C727.025176,153.018638 730.164655,150.905438 731.488867,147.676209 C732.813079,144.446981 732.061102,140.738008 729.583734,138.279532 C727.106367,135.821056 723.391747,135.097493 720.172749,136.446385 C716.953752,137.795277 714.864645,140.95084 714.88,144.441 C714.899844,149.202121 718.773866,153.046602 723.535,153.03 Z" id="_Path_68"></path>
                <path d="M750.35,190.656 C755.794737,190.649373 760.204386,186.232413 760.201993,180.787672 C760.1996,175.342932 755.786071,170.929849 750.34133,170.928008 C744.896589,170.926166 740.480076,175.336262 740.474,180.781 C740.468141,183.401978 741.506795,185.917281 743.360205,187.770503 C745.213615,189.623725 747.729023,190.662125 750.35,190.656 Z" id="_Path_69"></path>
                <path d="M772.323,231.356 C778.43403,231.332273 783.370949,226.363166 783.354962,220.252111 C783.338975,214.141056 778.376126,209.197847 772.265056,209.206094 C766.153985,209.21434 761.204494,214.170924 761.205,220.282 C761.209237,223.225335 762.383361,226.046258 764.468738,228.123382 C766.554114,230.200506 769.379671,231.363434 772.323,231.356 Z" id="_Path_70"></path>
                <path d="M776.6,262.29 C776.584622,267.276667 779.576362,271.780983 784.178801,273.700523 C788.781241,275.620063 794.0869,274.576344 797.619321,271.056531 C801.151742,267.536718 802.214424,262.234824 800.311352,257.625551 C798.40828,253.016278 793.91469,250.008452 788.928,250.006 C785.663193,249.996704 782.528787,251.286515 780.216087,253.590961 C777.903387,255.895406 776.602377,259.02518 776.6,262.29 Z" id="_Path_71"></path>
                <path d="M786.3,306.173 C786.314904,313.654484 792.388805,319.709 799.870298,319.699989 C807.351791,319.690978 813.41109,313.621848 813.407972,306.14035 C813.404854,298.658852 807.340498,292.594775 799.859,292.592 C796.256089,292.582107 792.798212,294.010488 790.252626,296.560205 C787.707039,299.109922 786.284266,302.57011 786.3,306.173 Z" id="_Path_72"></path>
                <path d="M790.112,351.058 C790.112005,357.04586 793.720078,362.443738 799.252914,364.73332 C804.785751,367.022902 811.153061,365.753007 815.384254,361.516089 C819.615447,357.27917 820.87673,350.910149 818.579669,345.380413 C816.282607,339.850678 810.879855,336.249908 804.892,336.258 C800.968877,336.258794 797.206956,337.818969 794.434765,340.59491 C791.662575,343.370852 790.107488,347.13488 790.112,351.058 Z" id="_Path_73"></path>
                <path d="M820.064,396.228 C820.072898,389.750757 816.178536,383.906151 810.197323,381.420222 C804.21611,378.934294 797.326324,380.296762 792.741499,384.872145 C788.156673,389.447528 786.780003,396.33449 789.253596,402.320816 C791.727188,408.307141 797.563753,412.213544 804.041,412.218 C808.289151,412.232102 812.367854,410.553033 815.374861,407.552218 C818.381869,404.551403 820.069344,400.476171 820.064,396.228 Z" id="_Path_74"></path>
                <path d="M814.592,440.895 C814.585519,433.921884 810.378587,427.639497 803.933365,424.978015 C797.488142,422.316532 790.074286,423.800244 785.149703,428.737132 C780.225119,433.674019 778.759911,441.091554 781.437468,447.530115 C784.115025,453.968677 790.40789,458.159919 797.381,458.149 C806.896989,458.134099 814.600844,450.410996 814.592,440.895 Z" id="_Path_75"></path>
                <path d="M803.387,484.331 C803.389427,476.855952 798.888647,470.115521 791.983454,467.252888 C785.078262,464.390256 777.128584,465.969197 771.841497,471.253425 C766.554409,476.537652 764.971166,484.486474 767.830062,491.393215 C770.688957,498.299956 777.426952,502.804382 784.902,502.806 C795.107308,502.806553 803.382031,494.536307 803.387,484.331 Z" id="_Path_76"></path>
                <path d="M766.852,506.033 C755.966232,506.050666 747.154239,514.886523 747.166012,525.772299 C747.177784,536.658074 756.008869,545.47485 766.894649,545.468971 C777.78043,545.463092 786.601986,536.636782 786.602,525.751 C786.602273,520.515831 784.52054,515.49547 780.815716,511.796649 C777.110892,508.097827 772.087162,506.024238 766.852,506.033 Z" id="_Path_77"></path>
                <path d="M165.179,107.011 C165.852201,107.00826 166.39726,106.463201 166.4,105.79 C166.412777,105.34166 166.180889,104.921798 165.794605,104.693859 C165.408321,104.465919 164.928679,104.465919 164.542395,104.693859 C164.156111,104.921798 163.924223,105.34166 163.937,105.79 C163.935853,106.11784 164.067024,106.432277 164.300812,106.662112 C164.534599,106.891946 164.851227,107.017737 165.179,107.011 Z" id="_Path_78"></path>
                <path d="M205.16,87.227 C206.511263,87.2175835 207.599103,86.1146427 207.589891,84.7633779 C207.580679,83.4121132 206.477903,82.3241064 205.126637,82.3331138 C203.775371,82.3421211 202.687197,83.4447326 202.696,84.796 C202.707552,86.146686 203.809281,87.2336598 205.16,87.227 Z" id="_Path_79"></path>
                <path d="M247.146,71.782 C248.652771,71.7973906 250.01926,70.9001279 250.604047,69.5113797 C251.188834,68.1226316 250.875807,66.5181425 249.811897,65.4510467 C248.747987,64.3839508 247.144441,64.0661267 245.753951,64.6467582 C244.36346,65.2273898 243.462115,66.5911892 243.473,68.098 C243.472991,70.128329 245.11568,71.7759377 247.146,71.782 Z" id="_Path_80"></path>
                <path d="M290.658,60.817 C293.379107,60.817 295.585,58.611107 295.585,55.89 C295.585,53.168893 293.379107,50.963 290.658,50.963 C287.936893,50.963 285.731,53.168893 285.731,55.89 C285.723767,57.1989255 286.240538,58.4563338 287.166102,59.381898 C288.091666,60.3074622 289.349075,60.8242325 290.658,60.817 Z" id="_Path_81"></path>
                <path d="M335.217,54.506 C338.61233,54.4971693 341.358771,51.7396972 341.353991,48.3443591 C341.349211,44.949021 338.595018,42.1992923 335.199677,42.200021 C331.804335,42.2007496 329.051322,44.9516601 329.048,48.347 C329.04184,49.9840846 329.69013,51.5557518 330.84867,52.7124142 C332.007211,53.8690767 333.579928,54.5148161 335.217,54.506 Z" id="_Path_82"></path>
                <path d="M380.32,52.947 C384.399929,52.9348495 387.698088,49.6186395 387.687969,45.5387049 C387.677851,41.4587704 384.363283,38.1589605 380.283344,38.1670473 C376.203405,38.175134 372.901945,41.4880574 372.908,45.568 C372.903419,47.5321626 373.683916,49.4167172 375.075887,50.8024915 C376.467859,52.1882658 378.355877,52.9603452 380.32,52.947 Z" id="_Path_83"></path>
                <path d="M425.467,56.108 C428.952822,56.1124415 432.097465,54.0148754 433.432453,50.7948167 C434.767442,47.574758 434.029398,43.8674874 431.562971,41.4042152 C429.096544,38.9409429 425.388332,38.2076444 422.169984,39.5467531 C418.951637,40.8858618 416.858097,44.0331869 416.867,47.519 C416.865135,49.7994228 417.770957,51.9868208 419.384491,53.5982915 C420.998026,55.2097622 423.186581,56.1127838 425.467,56.108 Z" id="_Path_84"></path>
                <path d="M470.147,64.108 C474.134067,64.1164978 477.733268,61.7212867 479.264944,58.0401537 C480.79662,54.3590207 479.958831,50.11763 477.142552,47.2953358 C474.326273,44.4730416 470.086679,43.6262046 466.402287,45.1500231 C462.717894,46.6738417 460.315009,50.2679244 460.315,54.255 C460.309955,56.8660829 461.343532,59.3719797 463.187879,61.2202661 C465.032226,63.0685526 467.535912,64.1074738 470.147,64.108 Z" id="_Path_85"></path>
                <path d="M513.626,77.733 C519.747421,77.7385167 524.714544,72.7810862 524.720984,66.6596659 C524.727423,60.5382456 519.770742,55.5703753 513.649323,55.5630125 C507.527904,55.5556497 502.559286,60.5115819 502.551,66.633 C502.570669,72.7454519 507.513608,77.6995491 513.626,77.733 Z" id="_Path_86"></path>
                <path d="M555.077,96.939 C560.061832,96.9527602 564.563482,93.9605596 566.480637,89.3591184 C568.397792,84.7576773 567.35241,79.454349 563.832463,75.9246584 C560.312516,72.3949679 555.012098,71.3349309 550.405375,73.2393592 C545.798652,75.1437874 542.794019,79.6371486 542.794,84.622 C542.786299,87.8851357 544.076836,91.0173331 546.381037,93.3279118 C548.685237,95.6384904 551.813855,96.9376813 555.077,96.939 Z" id="_Path_87"></path>
                <path d="M580.257,107.894 C580.250933,113.372447 583.54608,118.314937 588.605532,120.416214 C593.664984,122.517491 599.492056,121.363614 603.368909,117.49277 C607.245762,113.621926 608.408676,107.796651 606.315249,102.733945 C604.221823,97.6712401 599.28445,94.3684305 593.806,94.366 C586.330603,94.3643378 580.266933,100.41861 580.257,107.894 Z" id="_Path_88"></path>
                <path d="M629.154,150.85 C637.300883,150.825711 643.889436,144.208978 643.878955,136.062066 C643.868474,127.915153 637.262919,121.315395 629.116,121.312067 C620.969082,121.308739 614.358137,127.903099 614.341,136.05 C614.338339,139.978273 615.898551,143.746228 618.677479,146.522717 C621.456407,149.299206 625.225731,150.85611 629.154,150.85 Z" id="_Path_89"></path>
                <path d="M660.491,184.618 C666.974784,184.627306 672.825103,180.728142 675.311763,174.740148 C677.798422,168.752154 676.431228,161.855743 671.848215,157.269292 C667.265201,152.682842 660.369817,151.310478 654.379961,153.792647 C648.390104,156.274817 644.486555,162.122211 644.491,168.606 C644.502003,177.439939 651.657072,184.600374 660.491,184.618 Z" id="_Path_90"></path>
                <path d="M687.326,187.669 C677.807018,187.671761 670.09208,195.389684 670.093001,204.908666 C670.093921,214.427649 677.810351,222.144079 687.329334,222.144999 C696.848316,222.14592 704.566239,214.430982 704.569,204.912 C704.570327,200.338465 702.754085,195.95187 699.520107,192.717893 C696.28613,189.483915 691.899535,187.667673 687.326,187.669 Z" id="_Path_91"></path>
                <path d="M690.771,244.458 C690.783702,254.647738 699.053242,262.898477 709.242983,262.887987 C719.432724,262.877497 727.685258,254.609748 727.67698,244.420005 C727.668701,234.230262 719.402744,225.975934 709.213,225.982 C704.315409,225.980128 699.61837,227.927188 696.158441,231.393496 C692.698512,234.859804 690.760107,239.560421 690.771,244.458 Z" id="_Path_92"></path>
                <path d="M706.074,286.466 C706.065728,297.344311 714.876364,306.170301 725.754672,306.180971 C736.632981,306.19164 745.460913,297.38295 745.47398,286.504644 C745.487047,275.626338 736.680303,266.796465 725.802,266.781 C714.922386,266.778772 706.095512,275.586407 706.074,286.466 Z" id="_Path_93"></path>
                <path d="M736.648,309.356 C725.080949,309.353239 715.701763,318.727948 715.699001,330.295 C715.69624,341.862051 725.070949,351.241237 736.638,351.243999 C748.205052,351.24676 757.584238,341.872051 757.587,330.305 C757.583141,318.74069 748.212307,309.365381 736.648,309.356 Z" id="_Path_94"></path>
                <path d="M3.349,412.7 C2.50812244,412.682547 1.72354172,413.121165 1.29798385,413.846617 C0.872425994,414.572069 0.872425994,415.470931 1.29798385,416.196383 C1.72354172,416.921835 2.50812244,417.360453 3.349,417.343 C4.61235469,417.316778 5.62281546,416.285127 5.62281546,415.0215 C5.62281546,413.757873 4.61235469,412.726222 3.349,412.7 Z" id="_Path_95"></path>
                <path d="M16.81,367.234 C14.931199,367.225104 13.232222,368.349378 12.5059436,370.082148 C11.7796652,371.814918 12.1692578,373.814601 13.4929072,375.147989 C14.8165566,376.481377 16.8133298,376.885619 18.5513774,376.172062 C20.289425,375.458505 21.4261231,373.767816 21.431,371.889 C21.4240146,369.334246 19.364634,367.259713 16.81,367.234 Z" id="_Path_96"></path>
                <path d="M41.661,330.392 C41.6725805,326.533212 38.5538088,323.395655 34.6950208,323.384063 C30.8362329,323.372471 27.6986668,326.491233 27.6870631,330.350021 C27.6754593,334.208809 30.7942122,337.346385 34.653,337.358 C38.5088749,337.362452 41.642274,334.247832 41.661,330.392 Z" id="_Path_97"></path>
                <path d="M56.812,300.287 C61.9435678,300.290312 66.1063134,296.133234 66.1099942,291.001667 C66.113675,285.870099 61.9568973,281.707055 56.82533,281.703005 C51.6937628,281.698955 47.5304191,285.855433 47.526,290.987 C47.5347792,296.114146 51.6848726,300.270497 56.812,300.287 Z" id="_Path_98"></path>
                <path d="M82.994,265.778 C87.6924247,265.780427 91.9294678,262.951765 93.7286918,258.611489 C95.5279158,254.271213 94.5348361,249.274449 91.2126908,245.952017 C87.8905455,242.629586 82.8938664,241.636075 78.5534357,243.434926 C74.213005,245.233776 71.3839779,249.470575 71.386,254.169 C71.3812134,257.24919 72.6026264,260.204615 74.7805583,262.382734 C76.9584902,264.560854 79.9138098,265.782521 82.994,265.778 Z" id="_Path_99"></path>
                <path d="M112.9,234.212 C118.534159,234.212 123.613543,230.818064 125.769642,225.61278 C127.925741,220.407496 126.73395,214.415955 122.749997,210.432003 C118.766045,206.44805 112.774504,205.256259 107.56922,207.412358 C102.363936,209.568457 98.97,214.647841 98.97,220.282 C98.969204,223.97671 100.436569,227.520322 103.049124,230.132876 C105.661678,232.745431 109.20529,234.212796 112.9,234.212 Z" id="_Path_100"></path>
                <path d="M146.213,206.025 C152.801753,206.034306 158.74691,202.072498 161.274767,195.987953 C163.802624,189.903408 162.415031,182.89517 157.759369,178.232923 C153.103706,173.570675 146.097436,172.173179 140.009324,174.692434 C133.921213,177.211689 129.951007,183.151241 129.951,189.74 C129.94702,194.056285 131.658321,198.197265 134.708239,201.251496 C137.758157,204.305728 141.896714,206.02288 146.213,206.025 Z" id="_Path_101"></path>
                <path d="M182.51,181.489 C190.034161,181.508022 196.827747,176.989413 199.718907,170.042863 C202.610068,163.096313 201.028543,155.091976 195.71273,149.766989 C190.396916,144.442002 182.395318,142.846677 175.443793,145.725855 C168.492269,148.605033 163.961953,155.390817 163.968,162.915 C163.982264,173.15474 172.2703,181.45708 182.51,181.489 Z" id="_Path_102"></path>
                <path d="M221.848,161.531 C233.39198,161.534307 242.753731,152.180306 242.759985,140.636327 C242.766239,129.092348 233.414629,119.728209 221.870652,119.719007 C210.326675,119.709806 200.960149,129.059026 200.948,140.603 C200.943224,146.150063 203.142755,151.471712 207.062495,155.396704 C210.982236,159.321696 216.300936,161.528349 221.848,161.531 Z" id="_Path_103"></path>
                <path d="M263.7,146.838 C275.166626,146.811504 284.89155,138.406813 286.579,127.065 C291.683499,134.400963 300.259623,138.524677 309.177008,137.930949 C318.094392,137.337221 326.048117,132.112934 330.135,124.165 C335.097967,130.799939 342.766162,134.870039 351.04261,135.262276 C359.319059,135.654513 367.337801,132.327846 372.906,126.192 C382.463104,139.707549 401.135528,142.978751 414.718,133.517 C415.821146,135.327483 417.122867,137.009221 418.599,138.531 C411.168592,139.31169 404.203291,142.521929 398.783,147.664 C392.001378,141.467882 382.900631,138.455391 373.761449,139.381469 C364.622267,140.307548 356.310821,145.084428 350.91,152.515 C345.562221,148.284468 338.938786,145.990765 332.12,146.008 C320.248979,146.023489 309.461375,152.913284 304.455,163.677 C296.607247,158.336894 286.62916,157.215391 277.79177,160.680143 C268.95438,164.144896 262.39727,171.749125 260.27,181 C251.952522,175.923548 241.542332,175.733087 233.044729,180.501897 C224.547126,185.270706 219.286169,194.25573 219.286,204 L219.286,204.1 C211.502955,199.60645 201.913254,199.608963 194.132564,204.10659 C186.351875,208.604218 181.563564,216.912915 181.573,225.9 C181.582257,228.263991 181.918786,230.615317 182.573,232.887 C178.923896,230.608125 174.71121,229.392874 170.409,229.378 C157.503963,229.371379 147.03648,239.826633 147.028015,252.731669 C147.019551,265.636706 157.47331,276.105682 170.378345,276.115989 C183.28338,276.126297 193.753849,265.674033 193.766,252.769 C193.737674,250.810544 193.470705,248.862844 192.971,246.969 C200.568847,251.928076 210.249201,252.408869 218.301047,248.227063 C226.352892,244.045257 231.527058,235.849623 231.84,226.782 C236.144385,229.528772 241.143877,230.988721 246.25,230.99 C246.719,230.99 247.231,230.924 247.732,230.924 C241.902912,236.216943 238.324134,243.542701 237.732,251.394 C229.08071,249.762946 220.152448,252.069651 213.373896,257.68716 C206.595344,263.304668 202.67082,271.649299 202.667,280.453 C202.65945,281.613066 202.739679,282.77204 202.907,283.92 C201.830687,283.773216 200.745244,283.703704 199.659,283.712 C184.195027,283.712 171.659,296.248027 171.659,311.712 C171.642599,314.745722 172.139961,317.760325 173.13,320.628 C172.563,320.607 172.018,320.552 171.473,320.552 C161.880654,320.523034 153.026791,325.697467 148.344029,334.069187 C143.661267,342.440906 143.885962,352.693475 148.931,360.852 C148.678182,360.821283 148.423674,360.806587 148.169,360.808 C137.940612,360.793517 128.74622,367.042408 124.994914,376.558071 C121.243609,386.073734 123.700338,396.91578 131.187,403.885 C130.816,403.885 130.478,403.777 130.14,403.777 C118.934591,403.742204 109.27127,411.642151 107.077754,422.630822 C104.884238,433.619494 110.773911,444.624069 121.133904,448.894075 C131.493897,453.164081 143.427192,449.505473 149.613615,440.16253 C155.800038,430.819587 154.509647,418.404925 146.534,410.534 C147.058,410.566 147.614,410.6 148.169,410.6 C155.102463,410.603839 161.720305,407.702231 166.415,402.6 C166.415,402.884 166.394,403.177 166.394,403.451 C166.399088,409.61505 168.369136,415.61697 172.018,420.585 C162.778176,423.872309 155.99441,431.839873 154.22268,441.485687 C152.450949,451.131501 155.960496,460.989727 163.429,467.346 C154.362584,471.48381 148.443903,480.423481 148.175017,490.385864 C147.906132,500.348247 153.333981,509.594163 162.164,514.215 C152.873166,518.921295 147.529227,528.946451 148.801259,539.283314 C150.073292,549.620177 157.688341,558.050627 167.843,560.364 C158.189518,565.226692 153.143107,576.085956 155.650826,586.600082 C158.158544,597.114208 167.562968,604.526811 178.372,604.509 C179.810656,604.50191 181.245283,604.356237 182.656,604.074 C171.885523,607.66074 165.689024,618.931743 168.43143,629.947508 C171.173837,640.963273 181.931458,648.013499 193.126429,646.131878 C204.3214,644.250256 212.18306,634.07055 211.173511,622.763531 C210.163962,611.456512 200.623238,602.83058 189.272,602.962 C187.929188,602.964228 186.589697,603.095498 185.272,603.354 C195.055862,600.380248 201.751135,591.366787 201.772,581.141 C201.772,580.552 201.641,580.05 201.587,579.462 C205.256879,583.492773 210.072586,586.30368 215.387,587.517 C208.846713,595.189753 207.371475,605.967844 211.60944,615.115857 C215.847406,624.263871 225.02305,630.107768 235.105,630.08 C235.324,630.08 235.487,630.08 235.672,630.07 C230.224315,637.554824 229.442782,647.465223 233.64992,655.711425 C237.857058,663.957627 246.339595,669.141581 255.597,669.124 C258.018772,669.117463 260.426925,668.761461 262.747,668.067 C257.990618,675.249168 257.563968,684.463554 261.636316,692.054516 C265.708663,699.645478 273.621673,704.385859 282.236,704.395 C287.538321,704.386248 292.674771,702.545746 296.776,699.185 C288.981445,708.246432 289.783765,721.858161 298.588868,729.941156 C307.393971,738.02415 321.024504,737.661634 329.387514,729.122038 C337.750525,720.582441 337.828189,706.947309 329.563,698.313 C332.462413,698.256969 335.336508,697.760982 338.087,696.842 L338.087,697.142 C338.090694,707.315062 343.789826,716.629681 352.846,721.264 C351.513369,720.978058 350.153959,720.83558 348.791,720.839 C338.094545,720.740258 329.004726,728.635623 327.60548,739.240622 C326.206234,749.845622 332.937172,759.82841 343.293187,762.507376 C353.649202,765.186341 364.376675,759.719813 368.295565,749.766613 C372.214456,739.813412 368.093539,728.500604 358.691,723.4 C360.815176,723.943282 362.998459,724.221399 365.191,724.228 C370.247164,724.224614 375.201176,722.804233 379.491,720.128 C380.32095,730.261507 387.019379,738.965099 396.602608,742.361937 C406.185836,745.758776 416.87037,743.21669 423.897,735.868 C425.559348,746.3097 433.704993,754.522942 444.132598,756.271526 C454.560203,758.02011 464.939465,752.913271 469.917,743.585 C472.188088,754.896749 482.382189,762.852727 493.906796,762.307816 C505.431404,761.762906 514.82935,752.88057 516.023,741.405 C516.848438,753.32697 526.998119,762.435212 538.939578,761.970154 C550.881037,761.505095 560.291611,751.635081 560.187356,739.685024 C560.083101,727.734968 550.501755,718.030644 538.554,717.774 C540.569659,715.667079 542.255357,713.267656 543.554,710.657 C550.715761,717.994308 561.407678,720.656835 571.174,717.535 C562.589343,723.346259 559.547929,734.563577 564.02135,743.915345 C568.494771,753.267113 579.136774,757.938964 589.048697,754.902378 C598.960619,751.865792 605.159519,742.034614 603.626969,731.78189 C602.094418,721.529166 593.291631,713.940401 582.925,713.935 C580.886673,713.954079 578.863263,714.284907 576.925,714.916 C583.185196,711.128817 587.650263,704.973573 589.307,697.847 C593.957719,701.812758 599.873024,703.985155 605.985,703.972 C620.278647,703.982508 631.878617,692.411628 631.904,678.118 C631.904,677.918 631.839,677.726 631.839,677.562 C636.022336,680.614965 641.069116,682.256596 646.248,682.249 C652.783319,682.255634 659.05337,679.664754 663.677728,675.046773 C668.302086,670.428792 670.901615,664.162322 670.904,657.627 C670.919289,655.20282 670.559018,652.790898 669.836,650.477 C679.414428,656.934739 692.276932,655.407756 700.077163,646.886895 C707.877394,638.366033 708.264801,625.419003 700.988,616.447 C704.963061,619.947397 710.078408,621.877697 715.375,621.876 C723.331231,621.929435 730.706062,617.715486 734.699683,610.833956 C738.693304,603.952425 738.693304,595.458575 734.699683,588.577044 C730.706062,581.695514 723.331231,577.481565 715.375,577.535 C709.668635,577.525667 704.184699,579.747449 700.094,583.726 C700.0259,580.811468 699.537533,577.922019 698.644,575.147 L698.895,575.147 C709.073008,575.142894 718.393499,569.445516 723.038,560.389 C722.769011,561.720564 722.626709,563.074607 722.613,564.433 C722.471127,575.150944 730.347773,584.290321 740.969261,585.732012 C751.590748,587.173702 761.618567,580.46456 764.338759,570.09658 C767.058952,559.7286 761.616515,548.960609 751.655343,545.002136 C741.694171,541.043663 730.345223,545.138922 725.207,554.546 C725.745631,552.426036 726.023684,550.248291 726.035,548.061 C726.016518,542.98854 724.586107,538.021402 721.904,533.716 C732.036944,532.889809 740.741585,526.193634 744.138882,516.611489 C747.536178,507.029343 744.993524,496.345503 737.644,489.321 C748.073913,487.647911 756.274085,479.507668 758.023632,469.090308 C759.77318,458.672949 754.682128,448.300506 745.371,443.312 C756.690079,441.055466 764.657473,430.860815 764.112098,419.331891 C763.566723,407.802968 754.672547,398.405952 743.191,397.228 C755.104087,396.478766 764.319144,386.48909 764.106483,374.554361 C763.893822,362.619632 754.328721,352.964595 742.396505,352.640252 C730.464288,352.31591 720.388812,361.437077 719.528123,373.34263 C718.667434,385.248184 727.326206,395.723706 739.181,397.119 C728.809213,397.733119 720.103732,405.153921 717.855271,415.297665 C715.60681,425.441408 720.361179,435.845719 729.502,440.785 C720.457058,442.34782 713.036692,448.820515 710.260117,457.569458 C707.483543,466.318402 709.813512,475.885474 716.302,482.378 C707.736849,483.528627 700.315763,488.889154 696.531762,496.65878 C692.74776,504.428406 693.102946,513.576171 697.478,521.029 C683.103253,521.794962 671.835728,533.665869 671.82,548.061 C671.819485,550.724341 672.231364,553.371703 673.041,555.909 C672.628436,555.858671 672.213553,555.829633 671.798,555.822 C656.148013,555.825864 643.462312,568.512013 643.459,584.162 C643.461495,584.839337 643.501222,585.516024 643.578,586.189 C642.104414,585.945496 640.613566,585.821426 639.12,585.818 C624.437459,585.816426 611.985482,596.605753 609.897,611.139 C607.266984,610.427889 604.556389,610.058186 601.832,610.039 C589.870505,610.068239 579.006059,617.015466 573.961,627.861 C567.448775,622.556144 558.836461,620.588883 550.666788,622.540037 C542.497114,624.491191 535.703236,630.137896 532.291,637.813 C526.357883,631.346945 517.659709,628.156189 508.952738,629.251812 C500.245766,630.347434 492.609238,635.593632 488.463,643.328 C483.560635,637.20143 476.248603,633.493901 468.409189,633.159815 C460.569774,632.82573 452.968825,635.897725 447.563,641.585 C444.214444,634.210815 437.753011,628.713119 429.937774,626.588617 C422.122537,624.464114 413.76704,625.93396 407.146,630.598 C405.344865,622.644703 400.065465,615.921576 392.766151,612.285777 C385.466837,608.649979 376.920157,608.486317 369.487,611.84 C369.260639,604.03305 365.674729,596.703955 359.649771,591.734088 C353.624812,586.76422 345.747525,584.637553 338.04,585.9 C339.906041,577.892739 338.040542,569.471241 332.967519,563.001096 C327.894496,556.530951 320.161235,552.710167 311.94,552.612 C315.075521,545.423128 314.937789,537.227493 311.562482,530.148039 C308.187175,523.068585 301.906368,517.801815 294.347,515.712 C299.121377,509.513445 300.988956,501.556245 299.470844,493.880823 C297.952732,486.205402 293.196586,479.5583 286.422,475.644 C292.878262,470.686954 296.77368,463.0978 297.037645,454.962325 C297.301611,446.826851 293.906346,439.001141 287.785,433.636 C294.86967,430.07028 300.056124,423.602995 301.998,415.913 C303.917079,408.271236 302.400332,400.172423 297.846,393.743 C305.423136,392.032721 311.90341,387.155939 315.644635,380.348497 C319.38586,373.541054 320.028973,365.456293 317.411,358.143 C325.550442,358.560848 333.44729,355.301405 338.922365,349.264132 C344.397441,343.22686 346.871936,335.049999 345.663,326.99 C353.343237,328.861102 361.45755,327.296805 367.891789,322.704678 C374.326028,318.112551 378.442984,310.947373 379.17,303.076 C386.102649,306.720117 394.271519,307.191893 401.577592,304.370102 C408.883665,301.548311 414.614668,295.708053 417.298,288.35 C422.965764,293.520198 430.576199,296.015876 438.205,295.206 L438.161,295.206 C446.493856,294.422887 453.983572,289.795026 458.412,282.693 C462.975669,289.224255 470.186333,293.411693 478.120825,294.138477 C486.055316,294.865261 493.906729,292.05748 499.581,286.464 C502.592617,294.023683 508.845362,299.827431 516.608106,302.268424 C524.370849,304.709418 532.819877,303.52864 539.616,299.053 C541.122092,307.065854 546.139937,313.981997 553.29,317.9 L553.235,317.9 C559.161168,321.164134 566.095198,322.089623 572.67,320.494 C573.4,321.508 574.186,322.478 574.992,323.394 C575.353446,329.405511 577.743312,335.116653 581.771,339.594 C581.950536,339.789107 582.143688,339.97123 582.349,340.139 C596.181,354.614 628.303,389.766 622.297,436.821 C620.771,448.549 627.354,454.467 635.769,445.41 C686.769,390.431 678.791,322.91 677.647,315.059 C677.373604,310.029418 676.258114,305.081374 674.347,300.421 C674.940142,297.511582 675.241634,294.55026 675.247,291.581 C675.240534,277.927564 668.848564,265.062966 657.971,256.811 C658.472477,254.209926 658.731587,251.56794 658.745,248.919 C658.748887,231.856219 648.388069,216.501582 632.564,210.119 C632.187065,190.722271 617.9415,174.394406 598.775,171.391 C595.43745,153.339662 579.70228,140.234868 561.345,140.218 C560.658,140.218 560.026,140.283 559.296,140.305 C554.479574,125.439623 540.631176,115.372467 525.005,115.377 C521.947277,115.377891 518.902685,115.776912 515.948,116.564 C512.123099,108.171947 505.067246,101.683175 496.384843,98.5731421 C487.70244,95.4631092 478.131384,95.9961289 469.848,100.051 C465.11203,91.9980965 457.121316,86.390205 447.93791,84.6744762 C438.754505,82.9587474 429.278049,85.3032607 421.954,91.103 C416.449625,83.4609311 407.686946,78.8341389 398.271859,78.5985654 C388.856772,78.3629919 379.87367,82.5457696 373.994,89.903 C367.917644,82.3993811 358.385052,78.5831053 348.809296,79.8205607 C339.233539,81.0580161 330.984242,87.172209 327.015,95.974 C320.435214,88.1673987 309.838026,85.0300515 300.068839,87.9964628 C290.299652,90.9628742 283.236145,99.4628872 282.108,109.61 C275.511999,100.951305 263.780495,98.0472114 253.906881,102.62891 C244.033266,107.210609 238.676539,118.044234 241.029955,128.671636 C243.383371,139.299037 252.813148,146.858221 263.698,146.843 L263.7,146.838 Z" id="_Path_104"></path>
                <path d="M107.584,746.288 C106.596878,746.300078 105.806332,747.109873 105.818,748.097 C105.818252,749.079313 106.601977,749.882121 107.584,749.906 C108.583231,749.898066 109.394534,749.096073 109.414,748.097 C109.406296,747.092921 108.588101,746.284115 107.584,746.288 Z" id="_Path_105"></path>
                <path d="M86.613,704.5 C85.6610915,704.495215 84.746428,704.869528 84.0709774,705.540288 C83.3955267,706.211048 83.0148482,707.123081 83.013,708.075 C83.013,710.055493 84.6185069,711.661 86.599,711.661 C88.5794931,711.661 90.185,710.055493 90.185,708.075 C90.18793,707.126476 89.8126325,706.215913 89.1422032,705.54492 C88.4717739,704.873928 87.5615261,704.497866 86.613,704.5 Z" id="_Path_106"></path>
                <path d="M69.9,660.68 C66.9200091,660.680017 64.5033334,663.094031 64.5000333,666.07402 C64.4967332,669.054009 66.9080565,671.47337 69.88804,671.479987 C72.8680235,671.486603 75.2900667,669.077974 75.3,666.098 C75.3027672,663.111601 72.886392,660.687171 69.9,660.68 Z" id="_Path_107"></path>
                <path d="M57.706,615.38 C53.7403762,615.386073 50.5299567,618.604696 50.5340037,622.570322 C50.5380508,626.535948 53.7550332,629.748012 57.7206611,629.745991 C61.686289,629.743969 64.8999953,626.528628 64.9,622.563 C64.9021336,620.655389 64.1445294,618.825456 62.7946124,617.477603 C61.4446954,616.12975 59.6136053,615.374947 57.706,615.38 Z" id="_Path_108"></path>
                <path d="M59.145,578.037 C59.1534927,574.396267 56.9657811,571.109693 53.603801,569.712519 C50.2418208,568.315345 46.369114,569.083327 43.7947203,571.65772 C41.2203266,574.232114 40.4523449,578.104821 41.8495189,581.466801 C43.2466929,584.828781 46.5332674,587.016493 50.174,587.008 C55.1239835,586.997001 59.1340012,582.986983 59.145,578.037 Z" id="_Path_109"></path>
                <path d="M58.164,532.912 C58.1524073,526.955043 53.3159908,522.134284 47.3590272,522.142009 C41.4020637,522.149734 36.578166,526.983019 36.5820227,532.939986 C36.5858794,538.896954 41.4160314,543.723989 47.373,543.724 C50.2396561,543.727472 52.9895934,542.588796 55.0146554,540.559793 C57.0397174,538.53079 58.1730452,535.778644 58.164,532.912 Z" id="_Path_110"></path>
                <path d="M36.746,487.786 C36.749318,494.72701 42.3766606,500.352257 49.3176715,500.35299 C56.2586825,500.353722 61.8872124,494.729663 61.8919956,487.788654 C61.8967787,480.847645 56.2760054,475.215834 49.335,475.207 C45.9945865,475.196075 42.7876918,476.517529 40.4247118,478.878632 C38.0617317,481.239735 36.7377296,484.445579 36.746,487.786 Z" id="_Path_111"></path>
                <path d="M56.093,457.474 C64.0323289,457.459096 70.4580014,451.014038 70.4489899,443.0747 C70.4399783,435.135362 63.9996913,428.704908 56.0603491,428.708026 C48.1210068,428.711145 41.685774,435.146658 41.683,443.086 C41.6800667,446.906648 43.198021,450.571333 45.9016908,453.270875 C48.6053606,455.970417 52.2723612,457.482771 56.093,457.474 Z" id="_Path_112"></path>
                <path d="M68.476,383.452 C61.9322441,383.442697 56.0274673,387.376867 53.5158976,393.419453 C51.0043279,399.462039 52.3807631,406.422607 57.0031778,411.054465 C61.6255926,415.686323 68.583337,417.076961 74.6310362,414.577729 C80.6787355,412.078497 84.624948,406.181761 84.629,399.638 C84.6290186,390.71159 77.4023909,383.470199 68.476,383.452 Z" id="_Path_113"></path>
                <path d="M86.428,376.149 C93.7053326,376.162353 100.273501,371.788816 103.067579,365.069227 C105.861658,358.349639 104.33091,350.608484 99.1896348,345.458044 C94.0483592,340.307604 86.3099434,338.763073 79.5853891,341.54518 C72.8608349,344.327286 68.4756076,350.887655 68.476,358.165 C68.4792859,368.083439 76.5095822,376.12805 86.428,376.149 Z" id="_Path_114"></path>
                <path d="M109.721,339.211 C120.641198,339.190015 129.477898,330.322583 129.46097,319.402378 C129.444042,308.482172 120.579893,299.642179 109.659682,299.65505 C98.7394716,299.667921 89.8961859,308.528785 89.905,319.449 C89.9023138,324.700396 91.990932,329.736691 95.7092934,333.44492 C99.4276549,337.153149 104.469631,339.228016 109.721,339.211 Z" id="_Path_115"></path>
                <path d="M159.445,284.111 C159.449044,275.386255 154.196977,267.518188 146.137873,264.175729 C138.078769,260.833271 128.799764,262.674676 122.627721,268.841285 C116.455678,275.007894 114.6061,284.285273 117.941458,292.347318 C121.276817,300.409364 129.140255,305.668359 137.865,305.672 C149.772923,305.664844 159.427355,296.018912 159.445,284.111 Z" id="_Path_116"></path>
            </g>
            <path d="M1269.70228,628.894629 C1246.789,628.990118 1224.09877,624.393401 1203.02928,615.387629 C1182.74016,606.712769 1164.31234,594.21026 1148.75328,578.563629 C1133.23541,562.791886 1120.85583,544.215061 1112.27328,523.821629 C1094.31544,480.991123 1094.31544,432.742135 1112.27328,389.911629 C1129.4868,348.747906 1161.98951,315.861296 1202.94828,298.165629 C1245.83753,279.718388 1294.44178,279.805959 1337.26428,298.407629 C1357.84815,307.512311 1376.51299,320.448064 1392.26428,336.525629 C1395.72162,340.101321 1398.32049,344.416469 1399.86428,349.144629 C1401.80262,354.8527 1400.99621,361.136023 1397.67928,366.169629 C1393.96817,371.891366 1387.69523,375.438562 1380.87928,375.669629 L1380.63628,375.669629 C1372.62828,375.669629 1367.02728,373.323629 1362.51728,368.713629 C1349.57744,357.856393 1335.46249,348.482317 1320.43628,340.766629 C1304.77128,332.609874 1287.36059,328.377051 1269.69928,328.431629 C1252.65594,328.376757 1235.78388,331.832184 1220.13428,338.582629 C1205.01174,345.150554 1191.30487,354.586064 1179.77128,366.367629 C1168.30974,378.227543 1159.16125,392.12154 1152.79528,407.336629 C1139.47364,439.043875 1139.47364,474.778383 1152.79528,506.485629 C1165.50728,537.124675 1189.68529,561.58581 1220.17428,574.653629 C1235.80579,581.415778 1252.66695,584.871833 1269.69828,584.804629 C1287.52074,584.915832 1305.16892,581.293063 1321.50628,574.169629 C1337.17099,567.267176 1351.25784,557.232751 1362.90028,544.683629 C1366.50328,540.673796 1371.26829,537.888901 1376.53028,536.717629 C1378.21164,536.302899 1379.93559,536.085433 1381.66728,536.069629 C1385.69544,536.090237 1389.62021,537.346831 1392.91128,539.669629 C1398.32812,543.880918 1401.40867,550.425454 1401.20228,557.283629 C1401.20228,564.160629 1399.10228,569.943629 1394.97328,574.493629 C1379.32411,591.613535 1360.26296,605.266257 1339.01728,614.572629 C1317.17195,624.153569 1293.55587,629.03317 1269.70228,628.894629 Z" id="_Path_117"></path>
            <path d="M1627.44828,628.329629 C1604.52067,628.438231 1581.81252,623.862367 1560.71628,614.882629 C1519.83099,597.531488 1487.27778,564.986521 1469.91628,524.105629 C1452.06692,481.435737 1452.06692,433.391521 1469.91628,390.721629 C1478.62576,370.450203 1491.03085,351.976173 1506.49828,336.242629 C1522.03607,320.604167 1540.44427,308.109302 1560.71428,299.442629 C1603.36275,281.485175 1651.4508,281.485175 1694.09928,299.442629 C1735.21065,316.89055 1767.94325,349.616701 1785.39928,390.724629 C1803.38154,433.367743 1803.38154,481.465515 1785.39928,524.108629 C1776.76278,544.409139 1764.27038,562.841586 1748.61428,578.384629 C1732.86656,593.832049 1714.37838,606.209955 1694.09628,614.884629 C1673.02913,623.862861 1650.34854,628.438251 1627.44828,628.329629 Z M1627.44828,330.013629 C1610.43749,329.947836 1593.58796,333.311485 1577.90628,339.903629 C1562.78051,346.222666 1549.05129,355.466105 1537.50628,367.103629 C1526.00057,378.852499 1516.81999,392.67086 1510.44828,407.830629 C1497.34469,439.566912 1497.34469,475.201345 1510.44828,506.937629 C1538.00421,571.3391 1612.35281,601.45182 1676.95828,574.377629 C1692.12019,568.010798 1705.9393,558.830404 1717.68528,547.321629 C1754.04152,510.577083 1764.78807,455.599722 1744.94428,407.869629 C1738.49505,392.69329 1729.23208,378.874496 1717.64428,367.142629 C1705.95587,355.536253 1692.14256,346.288338 1676.95828,339.903629 C1661.28457,333.321991 1644.4477,329.958358 1627.44828,330.012629 L1627.44828,330.013629 Z" id="_Compound_Path_" fill-rule="nonzero"></path>
            <path d="M2101.81628,629.381629 C2095.96987,629.394927 2090.35881,627.079638 2086.22298,622.947375 C2082.08715,618.815111 2079.76702,613.206048 2079.77528,607.359629 L2079.77528,411.224629 C2079.8612,400.253661 2077.65724,389.385441 2073.30428,379.314629 C2064.71623,359.389163 2048.80527,343.521882 2028.85628,334.988629 C2008.50767,326.252341 1985.46489,326.252341 1965.11628,334.988629 C1955.3434,339.220026 1946.4741,345.288939 1938.99028,352.865629 C1931.50776,360.532498 1925.50244,369.512845 1921.27528,379.356629 C1916.94306,389.42095 1914.7265,400.26856 1914.76328,411.225629 L1914.76328,607.359629 C1914.76328,619.533089 1904.89474,629.401629 1892.72128,629.401629 C1880.54782,629.401629 1870.67928,619.533089 1870.67928,607.359629 L1870.67928,411.224629 C1870.60905,394.319118 1873.94507,377.572689 1880.48828,361.984629 C1886.76027,346.90848 1895.94768,333.219289 1907.52328,321.702629 C1919.06723,310.147611 1932.73099,300.926959 1947.76628,294.545629 C1979.21152,280.994663 2014.85277,281.008772 2046.28728,294.584629 C2076.63086,307.470693 2100.80721,331.604037 2113.74728,361.924629 C2120.47165,377.486477 2123.90032,394.272301 2123.81728,411.224629 L2123.81728,607.358629 C2123.92605,613.205634 2121.63099,618.841178 2117.46828,622.948629 C2113.33074,627.114151 2107.68724,629.43364 2101.81628,629.381629 Z" id="_Path_118"></path>
            <path d="M2318.35428,629.381629 C2302.11976,629.482024 2285.99378,626.730218 2270.71128,621.251629 C2256.39818,616.099954 2243.11487,608.444862 2231.48128,598.643629 C2220.40455,589.312728 2211.35484,577.81342 2204.88928,564.853629 C2198.42348,551.958853 2195.09122,537.720488 2195.16328,523.295629 C2195.16328,511.703172 2204.56082,502.305629 2216.15328,502.305629 C2227.74574,502.305629 2237.14328,511.703172 2237.14328,523.295629 C2237.11143,531.825885 2239.18835,540.231785 2243.18928,547.765629 C2247.37697,555.588781 2253.12353,562.470697 2260.07428,567.986629 C2267.82154,573.983358 2276.5153,578.645062 2285.79728,581.779629 C2296.12671,585.207594 2306.94603,586.928174 2317.82928,586.873629 C2328.81928,586.921096 2339.74486,585.193872 2350.18428,581.758629 C2359.7181,578.587051 2368.67687,573.895939 2376.71428,567.866629 C2383.91294,562.525937 2389.82735,555.644295 2394.02528,547.724629 C2397.94605,540.355359 2399.69873,532.026056 2399.08028,523.701629 C2398.45767,515.738777 2395.90326,508.047744 2391.63828,501.294629 C2387.00592,493.926372 2381.13602,487.413353 2374.28728,482.042629 C2366.77174,476.142256 2358.43302,471.373712 2349.53628,467.888629 C2340.0334,464.065364 2330.14144,461.291255 2320.03628,459.615629 C2305.47716,458.599116 2291.10596,455.738586 2277.26728,451.102629 C2264.27129,446.849216 2251.96737,440.71764 2240.74628,432.902629 C2230.50796,425.852973 2221.77754,416.833245 2215.06528,406.370629 C2208.43966,396.060671 2204.95455,384.046739 2205.03428,371.791629 C2204.98152,359.545075 2208.20747,347.507584 2214.37728,336.928629 C2220.77572,326.042926 2229.35521,316.597314 2239.57728,309.184629 C2250.73775,301.055869 2263.14796,294.799593 2276.32028,290.661629 C2305.39053,281.600265 2336.53003,281.600265 2365.60028,290.661629 C2378.74571,294.851196 2391.14168,301.103528 2402.32428,309.184629 C2412.51509,316.618993 2421.07616,326.060805 2427.48028,336.928629 C2433.69544,347.492401 2436.95045,359.535232 2436.90328,371.791629 C2436.91504,377.637448 2434.59506,383.246599 2430.4574,387.376188 C2426.31973,391.505777 2420.70606,393.814805 2414.86028,393.791629 C2408.91065,393.906846 2403.21329,391.391151 2399.29028,386.916629 C2395.46828,382.690629 2393.34528,377.047629 2392.85928,370.116629 C2392.49027,364.725912 2390.52674,359.566642 2387.21828,355.294629 C2383.06008,349.8016 2377.90874,345.136998 2372.03128,341.542629 C2364.86114,337.124456 2357.07975,333.785677 2348.93728,331.633629 C2339.82756,329.163201 2330.42902,327.918896 2320.99028,327.933629 C2311.26903,327.890097 2301.58483,329.134247 2292.19028,331.633629 C2284.04736,333.726681 2276.27294,337.054241 2269.13728,341.500629 C2263.26483,345.270003 2258.21585,350.188705 2254.29428,355.960629 C2250.92241,360.75885 2249.10201,366.475172 2249.07828,372.339629 C2249.07828,377.758629 2251.09928,382.633629 2255.34628,387.283629 C2260.42619,392.773658 2266.42815,397.331817 2273.08028,400.751629 C2280.79659,404.854232 2288.88907,408.206287 2297.24628,410.761629 C2305.25187,413.283662 2313.45842,415.116669 2321.77628,416.240629 C2337.66206,417.93971 2353.23811,421.818831 2368.06528,427.768629 C2381.84744,433.281578 2394.70828,440.864074 2406.20428,450.254629 C2416.95519,459.123209 2425.76594,470.109414 2432.08828,482.529629 C2438.37106,495.022646 2441.60016,508.82804 2441.51028,522.811629 C2441.56917,537.305699 2438.23853,551.612795 2431.78428,564.590629 C2425.40135,577.619979 2416.33939,589.154867 2405.19128,598.440629 C2380.78786,618.64705 2350.04172,629.602878 2318.35928,629.381629 L2318.35428,629.381629 Z" id="_Path_119"></path>
            <path d="M2540.61528,629.381629 C2534.76245,629.409102 2529.14079,627.099108 2524.99822,622.96443 C2520.85566,618.829752 2518.53496,613.212502 2518.55128,607.359629 L2518.55128,306.474629 C2518.48269,300.593278 2520.82035,294.939309 2525.02228,290.823629 C2529.10675,286.615553 2534.75186,284.287351 2540.61528,284.392629 L2724.27128,284.392629 C2730.12587,284.368332 2735.74622,286.690315 2739.87648,290.839746 C2744.00674,294.989177 2746.30268,300.620211 2746.25128,306.474629 C2746.36026,312.312453 2744.04702,317.934804 2739.86128,322.005629 C2735.76174,326.1896 2730.1284,328.513397 2724.27128,328.436629 L2562.65628,328.436629 L2562.65628,433.793629 L2677.05628,433.793629 C2689.22974,433.793629 2699.09828,443.662168 2699.09828,455.835629 C2699.09828,468.009089 2689.22974,477.877629 2677.05628,477.877629 L2562.65628,477.877629 L2562.65628,585.296629 L2724.27128,585.296629 C2730.12543,585.262338 2735.74856,587.578364 2739.88043,591.725646 C2744.0123,595.872929 2746.30737,601.504644 2746.25128,607.358629 C2746.36417,613.21448 2744.0516,618.856566 2739.86128,622.948629 C2735.76131,627.132077 2730.12835,629.45608 2724.27128,629.380629 L2540.61528,629.381629 Z" id="_Path_120"></path>
            <path d="M3036.57928,629.381629 C3030.72518,629.402364 3025.10374,627.091352 3020.95693,622.959177 C3016.81012,618.827001 3014.47924,613.213766 3014.47928,607.359629 L3014.47928,411.224629 C3014.5652,400.253661 3012.36124,389.385441 3008.00828,379.314629 C2999.42025,359.402646 2983.52729,343.53939 2963.59928,334.988629 C2943.2647,326.251663 2920.23385,326.251663 2899.89928,334.988629 C2890.10637,339.185256 2881.22977,345.258471 2873.77028,352.865629 C2866.28721,360.53248 2860.25813,369.494109 2855.97628,379.314629 C2851.67074,389.40026 2849.46881,400.258485 2849.50528,411.224629 L2849.50528,607.358629 C2849.52298,613.215049 2847.20024,618.835838 2843.05348,622.971334 C2838.90672,627.10683 2833.27963,629.414264 2827.42328,629.380629 C2821.58689,629.451101 2815.97294,627.144297 2811.87228,622.990629 C2807.66663,618.889975 2805.34594,613.231407 2805.46128,607.358629 L2805.46128,411.224629 C2805.35227,360.385926 2835.68401,314.419798 2882.46828,294.524629 C2913.96098,280.994365 2949.63306,281.016064 2981.10928,294.584629 C2996.11331,300.961966 3009.7489,310.168927 3021.27128,321.702629 C3032.80643,333.259299 3042.03068,346.910706 3048.44928,361.924629 C3055.19381,377.481551 3058.63673,394.268783 3058.56028,411.224629 L3058.56028,607.358629 C3058.58641,613.200436 3056.28,618.811091 3052.15284,622.945572 C3048.02568,627.080054 3042.41912,629.396408 3036.57728,629.380629 L3036.57928,629.381629 Z" id="_Path_121"></path>
            <path d="M3253.13628,629.381629 C3236.90238,629.478489 3220.77733,626.726786 3205.49428,621.251629 C3191.17202,616.118434 3177.8849,608.461547 3166.26228,598.643629 C3155.2023,589.288316 3146.13804,577.802999 3139.60928,564.871629 C3133.17276,551.959849 3129.84223,537.722728 3129.88328,523.295629 C3129.84249,517.736982 3132.05294,512.398418 3136.01128,508.495629 C3142.01882,502.472311 3151.06135,500.657127 3158.92804,503.89535 C3166.79473,507.133572 3171.93898,514.788558 3171.96528,523.295629 C3171.9154,531.807806 3173.97217,540.200112 3177.95228,547.724629 C3182.10089,555.556494 3187.83817,562.436465 3194.79728,567.924629 C3202.53291,573.964082 3211.2366,578.648138 3220.53828,581.777629 C3230.87988,585.215024 3241.71456,586.935791 3252.61228,586.871629 C3263.60228,586.919096 3274.52786,585.191872 3284.96728,581.756629 C3294.4927,578.593562 3303.43994,573.901584 3311.45828,567.864629 C3318.63861,562.488038 3324.56498,555.61551 3328.82728,547.722629 C3332.73904,540.351508 3334.47156,532.019106 3333.82228,523.699629 C3333.18094,515.740868 3330.62872,508.054357 3326.38228,501.292629 C3321.7605,493.917059 3315.89655,487.397429 3309.05028,482.022629 C3301.55142,476.101872 3293.20825,471.337378 3284.29828,467.887629 C3274.78768,464.043506 3264.87914,461.268792 3254.75528,459.614629 C3240.21444,458.607788 3225.86187,455.746952 3212.04628,451.101629 C3199.03189,446.861178 3186.71228,440.728833 3175.48328,432.901629 C3165.26057,425.840012 3156.53886,416.822266 3149.82228,406.369629 C3143.19337,396.060135 3139.7016,384.047186 3139.77128,371.790629 C3139.78218,359.552403 3143.00377,347.531209 3149.11428,336.927629 C3155.53031,326.043035 3164.12187,316.598378 3174.35228,309.183629 C3185.50948,301.086498 3197.89399,294.832628 3211.03328,290.660629 C3240.11751,281.599285 3271.27005,281.599285 3300.35428,290.660629 C3313.50923,294.841276 3325.91283,301.094218 3337.09728,309.183629 C3347.31262,316.591265 3355.87929,326.038505 3362.25528,336.927629 C3368.44443,347.502365 3371.69781,359.537864 3371.67928,371.790629 C3371.72409,377.668247 3369.36381,383.308632 3365.14628,387.402629 C3361.10247,391.615369 3355.47405,393.934235 3349.63628,393.792629 C3343.65937,393.911843 3337.93615,391.379744 3334.00428,386.876629 C3330.22328,382.751629 3328.05928,377.090629 3327.63428,370.153629 C3327.25549,364.761647 3325.28535,359.603293 3321.97328,355.331629 C3317.79691,349.836918 3312.64099,345.161395 3306.76528,341.540629 C3299.60813,337.111207 3291.83161,333.771624 3283.69128,331.631629 C3274.57096,329.112382 3265.14592,327.867241 3255.68428,327.931629 C3245.96377,327.900061 3236.28114,329.144011 3226.88428,331.631629 C3218.75875,333.701991 3211.00729,337.031273 3203.91128,341.498629 C3198.04307,345.273338 3192.99507,350.191084 3189.06828,355.958629 C3185.69232,360.75607 3183.86488,366.471507 3183.83128,372.337629 C3183.83128,377.777629 3185.91528,382.631629 3190.05828,387.281629 C3195.18356,392.749419 3201.20303,397.303929 3207.85828,400.749629 C3215.5815,404.867799 3223.68912,408.220436 3232.06528,410.759629 C3240.04143,413.263299 3248.21287,415.096011 3256.49428,416.238629 C3272.38793,417.928005 3287.97157,421.807424 3302.80228,427.766629 C3316.60183,433.268499 3329.47715,440.851779 3340.98028,450.252629 C3351.6729,459.124888 3360.45059,470.077947 3366.78028,482.446629 C3373.1123,494.953828 3376.36911,508.791192 3376.28028,522.809629 C3376.3349,537.300804 3373.01204,551.605359 3366.57528,564.588629 C3360.13861,577.600792 3351.06139,589.129098 3339.92228,598.438629 C3315.5282,618.636093 3284.79689,629.591302 3253.12728,629.379629 L3253.13628,629.381629 Z" id="_Path_122"></path>
            <path d="M3585.06028,629.381629 C3579.20739,629.409913 3573.58546,627.100114 3569.44304,622.965202 C3565.30061,618.83029 3562.98062,613.212564 3562.99828,607.359629 L3562.99828,495.229629 L3427.31028,319.941629 C3423.6775,315.500992 3421.96668,309.794424 3422.55728,304.087629 C3422.92641,298.297179 3425.75234,292.940436 3430.32328,289.366629 C3434.31371,286.097711 3439.31993,284.324047 3444.47828,284.351629 C3452.12128,284.877629 3457.17828,287.627629 3460.97828,292.317629 L3585.14228,451.952629 L3711.65028,292.341629 C3715.22751,287.712846 3720.61399,284.835447 3726.45028,284.435629 L3726.81328,284.435629 C3733.58828,284.435629 3738.28028,286.093629 3742.34428,289.328629 C3746.97734,292.919755 3749.87249,298.305288 3750.31228,304.150629 C3750.75695,309.872129 3748.9907,315.54632 3745.37728,320.004629 L3607.10028,495.269629 L3607.10028,607.360629 C3607.21935,613.234104 3604.89807,618.8941 3600.68928,622.992629 C3596.56223,627.15459 3590.92101,629.460673 3585.06028,629.381629 Z" id="_Path_123"></path>
            <path d="M3916.29728,629.381629 C3900.04467,629.476042 3883.901,626.724511 3868.59728,621.251629 C3854.2964,616.099118 3841.02603,608.443883 3829.40628,598.643629 C3818.35672,589.276688 3809.30069,577.786202 3802.77528,564.853629 C3796.31989,551.956617 3793.00052,537.717746 3793.08728,523.295629 C3793.08333,514.797878 3798.20629,507.137163 3806.06118,503.89487 C3813.91607,500.652578 3822.95106,502.469264 3828.94228,508.495629 C3832.91729,512.38877 3835.13686,517.731897 3835.09028,523.295629 C3835.05696,531.818548 3837.11148,540.219938 3841.07428,547.765629 C3845.2839,555.592013 3851.05133,562.47365 3858.02128,567.986629 C3865.7515,573.996581 3874.44003,578.659652 3883.72128,581.779629 C3894.04803,585.218591 3904.86917,586.93946 3915.75328,586.873629 C3926.74964,586.922986 3937.68177,585.195739 3948.12728,581.758629 C3957.65761,578.5919 3966.6112,573.900315 3974.63928,567.866629 C3981.80298,562.483171 3987.71526,555.611549 3991.96928,547.724629 C3995.92186,540.367381 3997.6703,532.026874 3997.00528,523.701629 C3996.34275,515.753044 3993.80685,508.074431 3989.60528,501.294629 C3984.93802,493.941493 3979.06553,487.427029 3972.23428,482.024629 C3964.72394,476.120898 3956.38341,471.357914 3947.48228,467.889629 C3937.9702,464.069107 3928.07059,461.295109 3917.95828,459.616629 C3903.40393,458.615707 3889.03771,455.754764 3875.21028,451.103629 C3862.19157,446.859288 3849.86624,440.727283 3838.62828,432.903629 C3828.41074,425.842062 3819.69525,416.824073 3812.98628,406.371629 C3806.36964,396.058666 3802.89201,384.045382 3802.97628,371.792629 C3802.95299,359.55554 3806.16111,347.529233 3812.27628,336.929629 C3818.70232,326.052422 3827.29217,316.609648 3837.51428,309.185629 C3848.66463,301.077269 3861.05102,294.822447 3874.19528,290.662629 C3903.28667,281.601285 3934.44589,281.601285 3963.53728,290.662629 C3976.67685,294.822479 3989.0524,301.091652 4000.17928,309.224629 C4010.4516,316.593081 4019.0694,326.02838 4025.47928,336.924629 C4031.62907,347.51383 4034.86637,359.542177 4034.86228,371.787629 C4034.83029,383.957034 4024.94872,393.801463 4012.77928,393.787629 C4006.83683,393.922933 4001.14328,391.402611 3997.24828,386.912629 C3993.42628,382.787629 3991.20128,377.124629 3990.73728,370.147629 C3990.40471,364.758893 3988.4595,359.594656 3985.15428,355.325629 C3980.99966,349.789467 3975.81593,345.10689 3969.88728,341.534629 C3962.7465,337.116309 3954.9921,333.777257 3946.87528,331.625629 C3937.75437,329.109298 3928.32973,327.864211 3918.86828,327.925629 C3909.15487,327.88647 3899.47885,329.130563 3890.09128,331.625629 C3881.96466,333.692784 3874.21272,337.022275 3867.11828,341.492629 C3861.21808,345.233581 3856.15758,350.157202 3852.25628,355.952629 C3848.87105,360.745574 3847.04202,366.463794 3847.01728,372.331629 C3847.01728,377.750629 3848.99828,382.625629 3853.24628,387.275629 C3858.35805,392.747806 3864.37013,397.303121 3871.02128,400.743629 C3878.73164,404.858098 3886.82496,408.210639 3895.18628,410.753629 C3903.18209,413.260118 3911.37369,415.092851 3919.67528,416.232629 C3935.57461,417.926464 3951.16425,421.805702 3966.00328,427.760629 C3979.78624,433.285057 3992.65233,440.866478 4004.16328,450.246629 C4014.91141,459.112821 4023.71603,470.099883 4030.02728,482.521629 C4036.3097,495.016511 4039.55271,508.818377 4039.49228,522.803629 C4039.53265,537.297903 4036.1958,551.602285 4029.74628,564.582629 C4023.32246,577.603456 4014.2425,589.134371 4003.09128,598.432629 C3978.69339,618.622024 3947.96574,629.576183 3916.29828,629.373629 L3916.29728,629.381629 Z" id="_Path_124"></path>
        </g>
    </g>
</svg>