<?xml version="1.0" encoding="UTF-8"?>
<svg width="118px" height="28px" viewBox="0 0 118 28" version="1.1" xmlns="http://www.w3.org/2000/svg" xmlns:xlink="http://www.w3.org/1999/xlink">
    <!-- Generator: Sketch 52.5 (67469) - http://www.bohemiancoding.com/sketch -->
    <title>consensys-logo</title>
    <desc>Created with Sketch.</desc>
    <g id="Page-1" stroke="none" stroke-width="1" fill="none" fill-rule="evenodd">
        <g id="consensys-logo" transform="translate(0.420010, 0.741551)" fill="#FFFFFF">
            <g id="main-Logo" transform="translate(0.021444, 0.021426)">
                <path d="M12.0500936,26.24207 C12.0208168,26.2422787 11.9972147,26.2661112 11.9972906,26.2953887 C11.9973664,26.3246662 12.0210915,26.3483763 12.0503691,26.3484333 C12.0796466,26.3484903 12.1034639,26.3248729 12.1036538,26.2955959 C12.1036905,26.2813828 12.0980582,26.2677418 12.0880048,26.2576948 C12.0779514,26.2476478 12.0643067,26.2420243 12.0500936,26.24207 Z" id="_Path_"></path>
                <path d="M10.7950066,25.8087501 C10.7711927,25.8085478 10.7482954,25.8179185 10.7314558,25.8347581 C10.7146162,25.8515976 10.7052456,25.874495 10.7054479,25.8983089 C10.7054479,25.9477708 10.7455447,25.9878676 10.7950066,25.9878676 C10.8444685,25.9878676 10.8845654,25.9477708 10.8845654,25.8983089 C10.8845654,25.8488469 10.8444685,25.8087501 10.7950066,25.8087501 Z" id="_Path_2"></path>
                <path d="M9.59621948,25.2473035 C9.52186703,25.2473035 9.46159247,25.307578 9.46159247,25.3819305 C9.46159247,25.4562829 9.52186703,25.5165575 9.59621948,25.5165575 C9.67057193,25.5165575 9.7308465,25.4562829 9.7308465,25.3819305 C9.7308465,25.307578 9.67057193,25.2473035 9.59621948,25.2473035 Z" id="_Path_3"></path>
                <path d="M8.45818785,24.5622079 C8.35900301,24.5627179 8.278963,24.6434464 8.27930252,24.742632 C8.27964206,24.8418175 8.36023288,24.9219961 8.4594189,24.921827 C8.55860493,24.9216579 8.63892187,24.841205 8.63892317,24.7420188 C8.63900909,24.6941432 8.6199652,24.6482172 8.5860253,24.6144509 C8.5520854,24.5806846 8.50606237,24.5618765 8.45818785,24.5622079 Z" id="_Path_4"></path>
                <path d="M7.39477887,23.7616106 C7.30387929,23.7615521 7.22190048,23.8162715 7.18708772,23.9002406 C7.15227497,23.9842097 7.17148818,24.0808822 7.23576391,24.145158 C7.30003964,24.2094337 7.39671218,24.2286469 7.48068128,24.1938341 C7.5646504,24.1590214 7.61936973,24.0770426 7.61931131,23.986143 C7.61921571,23.8621768 7.5187451,23.7617061 7.39477887,23.7616106 Z" id="_Path_5"></path>
                <path d="M6.41575734,22.8519248 C6.26705894,22.8522759 6.14673382,22.9729803 6.14685083,23.1216791 C6.14696783,23.2703779 6.26748279,23.3908928 6.41618156,23.3910099 C6.56488034,23.3911269 6.68558481,23.2708017 6.68593585,23.1221033 C6.6861438,23.050384 6.65774545,22.9815421 6.607032,22.9308287 C6.55631855,22.8801152 6.48747668,22.8517169 6.41575734,22.8519248 Z" id="_Path_6"></path>
                <path d="M5.53371927,21.8451401 C5.36002173,21.8453156 5.21933786,21.9862365 5.2194548,22.159934 C5.21957178,22.3336316 5.36044526,22.474363 5.53414288,22.4743045 C5.70784051,22.4742461 5.84861928,22.33342 5.84861937,22.1597224 C5.8485964,22.076242 5.815402,21.9961919 5.7563426,21.9371921 C5.69728323,21.8781923 5.61719969,21.8450788 5.53371927,21.8451401 Z" id="_Path_7"></path>
                <path d="M4.75877612,20.7483921 C4.55995241,20.7484879 4.39883366,20.9097101 4.39886558,21.1085338 C4.39889748,21.3073576 4.56006797,21.4685281 4.75889171,21.46856 C4.95771544,21.4685919 5.11893765,21.3074731 5.11903339,21.1086494 C5.11909475,21.0130845 5.08115891,20.9214159 5.01358424,20.8538413 C4.94600959,20.7862666 4.85434108,20.7483308 4.75877612,20.7483921 Z" id="_Path_8"></path>
                <path d="M4.52829236,19.9677577 C4.52821256,19.7442312 4.34697487,19.5630754 4.12344832,19.5630966 C3.89992177,19.5631179 3.71871857,19.7443082 3.71868133,19.9678348 C3.71864412,20.1913613 3.89978697,20.3726119 4.12331349,20.3727077 C4.34678787,20.3722785 4.52784725,20.191232 4.52829236,19.9677577 Z" id="_Path_9"></path>
                <path d="M4.09436579,18.7531967 C4.09454098,18.5047234 3.89329237,18.3031347 3.6448192,18.3028903 C3.39634604,18.3026458 3.19470123,18.5038382 3.19438754,18.7523113 C3.19407388,19.0007844 3.39521008,19.2024853 3.64368308,19.2028682 C3.76307867,19.2030062 3.87763851,19.1557068 3.96215877,19.0713762 C4.04667903,18.9870456 4.09423561,18.8725923 4.09436579,18.7531967 Z" id="_Path_10"></path>
                <path d="M3.82352282,17.4866627 C3.82342707,17.213403 3.60185975,16.9919434 3.32860005,16.9919806 C3.05534031,16.9920178 2.83383333,17.2135378 2.83381205,17.4867975 C2.83379077,17.7600572 3.05526326,17.9816116 3.32852297,17.9816914 C3.60187547,17.9815957 3.82344308,17.7600152 3.82352282,17.4866627 Z" id="_Path_11"></path>
                <path d="M3.72151252,16.1905743 C3.72188658,15.9721647 3.59059072,15.775059 3.38890148,15.6912476 C3.18721224,15.6074362 2.954892,15.6534423 2.80036598,15.8077945 C2.64583997,15.9621467 2.59957248,16.1944151 2.68315682,16.3961985 C2.76674117,16.5979819 2.96369898,16.7294995 3.18210886,16.7293713 C3.32512118,16.729563 3.46234005,16.672878 3.56352202,16.5718099 C3.66470396,16.4707417 3.72154331,16.3335867 3.72151252,16.1905743 Z" id="_Path_12"></path>
                <path d="M3.20571193,15.4694531 C3.52832518,15.469102 3.78963601,15.2074118 3.78951901,14.8847984 C3.78940197,14.562185 3.52790139,14.3006844 3.20528797,14.3005674 C2.88267458,14.3004504 2.62098435,14.5617612 2.62063332,14.8843744 C2.62045673,15.039601 2.68204205,15.1885207 2.79180388,15.2982825 C2.90156569,15.4080443 3.05048536,15.4696297 3.20571193,15.4694531 Z" id="_Path_13"></path>
                <path d="M2.7705431,13.5945552 C2.77089412,13.9421671 3.05294279,14.2236942 3.40055478,14.2234017 C3.74816679,14.2231093 4.02974136,13.941108 4.02950747,13.593496 C4.02927357,13.245884 3.74731979,12.9642619 3.39970772,12.9644372 C3.23262803,12.9642754 3.07235893,13.0306412 2.95430516,13.1488739 C2.8362514,13.2671065 2.77012833,13.427476 2.7705431,13.5945552 Z" id="_Path_14"></path>
                <path d="M21.6775819,23.2354388 C21.6559996,23.2352835 21.6364637,23.2481876 21.6281362,23.2680993 C21.6198088,23.288011 21.6243414,23.310981 21.6396084,23.3262368 C21.6548753,23.3414927 21.6778486,23.3460086 21.6977542,23.3376666 C21.7176598,23.3293247 21.7305497,23.3097794 21.7303787,23.2881972 C21.7298258,23.2592768 21.7065027,23.2359707 21.6775819,23.2354388 Z" id="_Path_15"></path>
                <path d="M20.5083169,23.8028654 C20.4871986,23.8025489 20.4668308,23.8106911 20.4517504,23.8254785 C20.4366701,23.8402658 20.4281298,23.8604699 20.4280318,23.8815904 C20.4280318,23.9257551 20.4638344,23.9615577 20.5079991,23.9615577 C20.5521639,23.9615577 20.5879664,23.9257551 20.5879664,23.8815904 C20.5876168,23.8378963 20.5520122,23.8027049 20.5083169,23.8028654 Z" id="_Path_16"></path>
                <path d="M19.2953448,24.2453144 C19.2469611,24.2452563 19.2033178,24.274382 19.1848051,24.319084 C19.1662924,24.363786 19.1765646,24.41524 19.2108227,24.4494069 C19.2450808,24.4835738 19.2965621,24.4937088 19.3412146,24.4750769 C19.385867,24.4564451 19.4148762,24.4127243 19.4146891,24.3643409 C19.4145775,24.2985266 19.3611593,24.2452506 19.2953448,24.2453144 Z" id="_Path_17"></path>
                <path d="M18.0379401,24.55799 C17.9501053,24.55799 17.8789011,24.6291942 17.8789011,24.717029 C17.8789011,24.8048638 17.9501053,24.876068 18.0379401,24.876068 C18.1257749,24.876068 18.1969791,24.8048638 18.1969791,24.717029 C18.1969791,24.6291942 18.1257749,24.55799 18.0379401,24.55799 Z" id="_Path_18"></path>
                <path d="M16.7512698,24.7355475 C16.6705459,24.7347744 16.5973514,24.7828405 16.5659819,24.857224 C16.5346125,24.9316076 16.5512829,25.017572 16.6081822,25.0748382 C16.6650815,25.1321044 16.750937,25.1493271 16.8255206,25.1184365 C16.9001043,25.0875458 16.9486398,25.0146618 16.9483857,24.9339345 C16.9479961,24.8250248 16.8601747,24.7366371 16.7512698,24.7355475 Z" id="_Path_19"></path>
                <path d="M15.4482479,24.7768311 C15.3165827,24.7769111 15.2098804,24.8836525 15.2098487,25.0153176 C15.209817,25.1469829 15.3164677,25.2537756 15.4481329,25.2539191 C15.579798,25.2540625 15.6866812,25.1475024 15.6869364,25.0158374 C15.6873073,24.9523912 15.6622892,24.8914316 15.617455,24.8465377 C15.5726208,24.8016438 15.5116945,24.7765446 15.4482479,24.7768311 Z" id="_Path_20"></path>
                <path d="M14.1432903,24.6814077 C13.9898028,24.6819341 13.8657703,24.8067248 13.8661793,24.9602126 C13.8665884,25.1137004 13.9912844,25.2378283 14.1447725,25.2375365 C14.2982605,25.2372447 14.4224836,25.1126436 14.4223091,24.9591554 C14.4223253,24.8852666 14.3928932,24.8144181 14.3405268,24.7622903 C14.2881604,24.7101624 14.2171782,24.6810541 14.1432903,24.6814077 Z" id="_Path_21"></path>
                <path d="M12.8528932,24.4458971 C12.7243438,24.4459907 12.6085119,24.5235207 12.5594208,24.6423273 C12.5103297,24.761134 12.5376496,24.8978144 12.6286386,24.9886216 C12.7196277,25.0794289 12.8563626,25.1064753 12.9750708,25.0571466 C13.093779,25.0078179 13.171077,24.8918311 13.1709134,24.7632818 C13.1708675,24.6790101 13.1373269,24.5982124 13.0776782,24.5386829 C13.0180295,24.4791534 12.9371649,24.4457745 12.8528932,24.4458971 Z" id="_Path_22"></path>
                <path d="M11.5970485,24.0488052 C11.3997473,24.0490766 11.2400216,24.209238 11.2402875,24.4065392 C11.2405535,24.6038404 11.4007105,24.7635706 11.5980117,24.76331 C11.7953129,24.7630495 11.9550475,24.6028969 11.9547924,24.4055957 C11.9542192,24.2084115 11.7942336,24.0488521 11.5970485,24.0488052 Z" id="_Path_23"></path>
                <path d="M10.3998214,23.4895253 C10.2390992,23.4893383 10.0941015,23.5860188 10.0324797,23.7344587 C9.97085781,23.8828986 10.0047559,24.0538442 10.1183583,24.1675375 C10.2319606,24.2812308 10.402879,24.3152658 10.5513681,24.2537628 C10.6998573,24.1922598 10.7966539,24.0473395 10.7965956,23.8866172 C10.7966569,23.7813382 10.7548838,23.6803488 10.6804701,23.6058755 C10.6060564,23.5314022 10.5051005,23.4895483 10.3998214,23.4895253 Z" id="_Path_24"></path>
                <path d="M9.71775937,23.2137133 C9.7178996,23.0367438 9.61138666,22.8771278 9.44791609,22.809337 C9.28444553,22.7415463 9.09623306,22.7789405 8.97109257,22.9040727 C8.84595208,23.0292049 8.80854544,23.2174149 8.87632543,23.3808899 C8.9441054,23.544365 9.10371431,23.6508885 9.2806838,23.6507599 C9.39664311,23.6509058 9.50789541,23.6049077 9.58989377,23.5229148 C9.67189217,23.4409218 9.7178976,23.3296726 9.71775937,23.2137133 Z" id="_Path_25"></path>
                <path d="M8.26043636,21.9242118 C8.06768321,21.9240833 7.89384428,22.040113 7.82002144,22.2181692 C7.74619863,22.3962253 7.78693922,22.6012206 7.92323631,22.7375177 C8.05953339,22.8738148 8.26452873,22.9145554 8.44258484,22.8407326 C8.62064097,22.7669097 8.73667073,22.5930708 8.7365422,22.4003176 C8.73565447,22.1377402 8.52301376,21.9250995 8.26043636,21.9242118 Z" id="_Path_26"></path>
                <path d="M7.35415965,20.9439191 C7.14503865,20.9437321 6.95640777,21.0695674 6.87626451,21.2627219 C6.79612128,21.4558765 6.84025721,21.6782908 6.98808264,21.8262072 C7.13590811,21.9741236 7.35829524,22.0183964 7.55149908,21.938372 C7.74470291,21.8583476 7.87065417,21.6697941 7.87059581,21.4606731 C7.87067561,21.1753688 7.63946391,20.9440148 7.35415965,20.9439191 Z" id="_Path_27"></path>
                <path d="M6.57886982,20.9675511 C6.88617193,20.9677265 7.13543174,20.7187512 7.13560725,20.4114491 C7.13578272,20.104147 6.88680745,19.8548871 6.57950534,19.8547116 C6.27220323,19.8545361 6.02294336,20.1035113 6.02276779,20.4108135 C6.02238353,20.5584767 6.0808289,20.7002121 6.1851833,20.8046857 C6.28953773,20.9091594 6.4312062,20.9677667 6.57886982,20.9675511 Z" id="_Path_28"></path>
                <path d="M6.5410818,19.269575 C6.54089035,18.9408036 6.27427807,18.6744026 5.94550659,18.6744717 C5.61673511,18.6745409 5.35023492,18.941054 5.35018174,19.2698255 C5.35012855,19.5985969 5.61654247,19.8651963 5.94531392,19.8653718 C6.27431907,19.8652761 6.54100207,19.5985802 6.5410818,19.269575 Z" id="_Path_29"></path>
                <path d="M26.3565965,14.3062879 C26.3275407,14.3062251 26.3036846,14.3292548 26.3027099,14.3583079 C26.3031637,14.3879634 26.3269593,14.4119599 26.3565965,14.4126494 C26.3707596,14.412412 26.3842474,14.4065515 26.3940889,14.3963588 C26.4039303,14.386166 26.4093179,14.3724772 26.409065,14.3583079 C26.4090656,14.344429 26.4035227,14.3311253 26.3936691,14.321356 C26.3838155,14.3115866 26.3704684,14.3061617 26.3565965,14.3062879 Z" id="_Path_30"></path>
                <path d="M25.9506574,15.5173237 C25.9219369,15.5171952 25.8959789,15.5344141 25.8849286,15.5609239 C25.8738783,15.5874337 25.8799212,15.6179918 25.9002298,15.6383004 C25.9205384,15.658609 25.9510965,15.6646519 25.9776063,15.6536016 C26.0041162,15.6425513 26.0213351,15.6165933 26.0212066,15.5878728 C26.0212373,15.5691526 26.0138143,15.5511903 26.0005771,15.5379531 C25.9873399,15.5247159 25.9693776,15.5172929 25.9506574,15.5173237 Z" id="_Path_31"></path>
                <path d="M25.4329501,16.6799406 C25.3738581,16.6802917 25.326224,16.7284515 25.3265215,16.7875438 C25.326819,16.846636 25.3749356,16.8943138 25.4340281,16.8940699 C25.4931206,16.893826 25.540842,16.8457527 25.5406517,16.78666 C25.5406064,16.7581996 25.5292131,16.7309324 25.5089966,16.7109002 C25.4887801,16.6908681 25.4614096,16.6797252 25.4329501,16.6799406 Z" id="_Path_32"></path>
                <path d="M24.7937317,17.7833332 C24.7154136,17.7835886 24.6521221,17.8472681 24.6523454,17.9255864 C24.6525686,18.0039047 24.7162222,18.0672222 24.7945406,18.067031 C24.8728589,18.0668399 24.9362026,18.0032123 24.9360435,17.9248938 C24.936044,17.8872191 24.9210266,17.8510983 24.8943161,17.8245289 C24.8676057,17.7979594 24.8314059,17.7831333 24.7937317,17.7833332 Z" id="_Path_33"></path>
                <path d="M24.0376537,18.8111498 C23.9395244,18.8113257 23.8600682,18.8909249 23.8600685,18.9890543 C23.8600689,19.0871838 23.9395257,19.1667823 24.037655,19.1669575 C24.1357844,19.1671327 24.2155249,19.0878183 24.2158756,18.9896895 C24.2157964,18.8912416 24.1361013,18.8114045 24.0376537,18.8111498 Z" id="_Path_34"></path>
                <path d="M23.1732674,19.7539434 C23.0867468,19.7538266 23.008686,19.8058708 22.975522,19.8857831 C22.942358,19.9656954 22.9606302,20.0577183 23.0218096,20.1188977 C23.0829889,20.1800771 23.1750118,20.1983493 23.2549242,20.1651853 C23.3348364,20.1320213 23.3868807,20.0539605 23.3867639,19.9674399 C23.3868176,19.9108007 23.3643415,19.8564657 23.3242915,19.8164157 C23.2842415,19.7763657 23.2299066,19.7538897 23.1732674,19.7539434 Z" id="_Path_35"></path>
                <path d="M22.211262,20.6019492 C22.0737908,20.6023806 21.9626979,20.7141726 21.963129,20.8516439 C21.96356,20.9891152 22.0753516,21.1002083 22.2128229,21.0997778 C22.3502941,21.0993472 22.4613877,20.9875559 22.4609576,20.8500847 C22.4610132,20.7839872 22.4346737,20.7206037 22.3877894,20.6740123 C22.3409052,20.627421 22.2773579,20.6014793 22.211262,20.6019492 Z" id="_Path_36"></path>
                <path d="M21.1607668,21.3397688 C21.0453962,21.3391372 20.9410283,21.4081317 20.8964099,21.5145271 C20.8517916,21.6209225 20.8757276,21.743723 20.9570384,21.8255725 C21.0383491,21.907422 21.1609889,21.9321685 21.2676766,21.8882538 C21.3743643,21.844339 21.4440465,21.7404289 21.4441769,21.6250567 C21.443913,21.4683373 21.3174811,21.3410677 21.1607668,21.3397688 Z" id="_Path_37"></path>
                <path d="M20.0205396,21.939639 C19.8908534,21.9394404 19.7738356,22.0174348 19.7241151,22.1372113 C19.6743946,22.2569879 19.7017769,22.3949244 19.793479,22.4866265 C19.8851811,22.5783286 20.0231176,22.605711 20.1428942,22.5559904 C20.2626707,22.5062699 20.3406651,22.3892521 20.3404665,22.259566 C20.3397698,22.0831646 20.1969409,21.9403357 20.0205396,21.939639 Z" id="_Path_38"></path>
                <path d="M18.8056607,22.3833304 C18.6613215,22.3828744 18.530953,22.4695053 18.47546,22.6027514 C18.4199669,22.7359975 18.4503031,22.8895572 18.5522963,22.9916914 C18.6542896,23.0938256 18.8078072,23.1243739 18.9411298,23.0690649 C19.0744525,23.0137559 19.1612634,22.8835072 19.1610067,22.7391675 C19.1609592,22.5428555 19.0019725,22.383649 18.8056607,22.3833304 Z" id="_Path_39"></path>
                <path d="M17.539069,22.6635626 C17.3805881,22.6632938 17.2375574,22.7585381 17.1766961,22.904867 C17.1158348,23.051196 17.1491339,23.2197796 17.2610604,23.331979 C17.372987,23.4441784 17.541489,23.4778879 17.6879657,23.4173831 C17.8344424,23.3568782 17.9300347,23.2140798 17.9301518,23.0555987 C17.9298988,22.8395599 17.7551066,22.6643416 17.539069,22.6635626 Z" id="_Path_40"></path>
                <path d="M16.2419117,22.7744421 C16.0062142,22.7744586 15.8151078,22.9654494 15.8149487,23.2011468 C15.8147896,23.4368443 16.005638,23.6280929 16.2413352,23.6284276 C16.4770325,23.6287623 16.6684232,23.4380565 16.6689336,23.2023595 C16.6691251,22.9662976 16.4779735,22.774745 16.2419117,22.7744421 Z" id="_Path_41"></path>
                <path d="M15.399135,23.1781209 C15.3991347,22.9229201 15.1923183,22.7160048 14.9371175,22.7158827 C14.6819167,22.7157606 14.4749023,22.9224778 14.4746578,23.1776786 C14.4744134,23.4328793 14.6810313,23.6399927 14.9362319,23.6403596 C15.1915283,23.6401215 15.3985302,23.4334167 15.399135,23.1781209 Z" id="_Path_42"></path>
                <path d="M14.1445037,22.9848184 C14.1446632,22.7097023 13.9217696,22.4865457 13.6466534,22.4863809 C13.3715372,22.4862161 13.1483764,22.7091053 13.1482061,22.9842215 C13.1480359,23.2593376 13.3709208,23.4825028 13.646037,23.4826784 C13.778171,23.482801 13.9049373,23.4304069 13.9984271,23.3370309 C14.0919168,23.2436549 14.1444654,23.1169525 14.1445037,22.9848184 Z" id="_Path_43"></path>
                <path d="M12.9259269,22.6236945 C12.9257833,22.3287298 12.6866016,22.0897032 12.3916368,22.0897511 C12.0966721,22.0897989 11.8575679,22.3289031 11.8575201,22.6238678 C11.8574722,22.9188326 12.0964988,23.1580143 12.3914635,23.158158 C12.5332449,23.1582654 12.6692502,23.1019905 12.7695048,23.0017358 C12.8697595,22.9014812 12.9260343,22.7654759 12.9259269,22.6236945 Z" id="_Path_44"></path>
                <path d="M11.7633389,22.1024337 C11.763257,21.8722205 11.6244938,21.6647293 11.4117643,21.5767278 C11.1990349,21.4887262 10.9542405,21.5375481 10.7915462,21.7004243 C10.6288518,21.8633004 10.5803034,22.1081491 10.6685425,22.3207802 C10.7567816,22.5334112 10.9644277,22.6719426 11.1946408,22.6717673 C11.3456074,22.6718596 11.490408,22.6118857 11.5970978,22.5050766 C11.7037877,22.3982675 11.7635998,22.2534 11.7633389,22.1024337 Z" id="_Path_45"></path>
                <path d="M23.3429863,4.79056013 C23.3621047,4.79134776 23.3801108,4.78139542 23.3899,4.76463007 C23.3996892,4.74786477 23.3996892,4.7269789 23.3899,4.71021359 C23.3801108,4.69344824 23.3621047,4.68349591 23.3429863,4.68428353 C23.3142078,4.68428353 23.2908782,4.70807436 23.2908782,4.73742183 C23.2908782,4.7667693 23.3142078,4.79056013 23.3429863,4.79056013 Z" id="_Path_46"></path>
                <path d="M23.9347189,5.94670064 C23.9741128,5.94679627 24.0061254,5.91493878 24.0062211,5.87554492 C24.0063168,5.83615106 23.9744593,5.80413843 23.9350655,5.80404266 C23.8956716,5.80394689 23.8636589,5.83580424 23.8635631,5.87519809 C23.8632818,5.89418631 23.8706769,5.91248414 23.8840724,5.92594491 C23.8974679,5.93940568 23.9157296,5.94688958 23.9347189,5.94670064 Z" id="_Path_47"></path>
                <path d="M24.4161694,7.19523621 C24.4749493,7.19523621 24.5225999,7.14758567 24.5225999,7.08880575 C24.5225999,7.03002584 24.4749493,6.9823753 24.4161694,6.9823753 C24.3573895,6.9823753 24.309739,7.03002584 24.309739,7.08880575 C24.3097236,7.11703756 24.3209319,7.14411749 24.3408948,7.1640804 C24.3608577,7.1840433 24.3879376,7.19525155 24.4161694,7.19523621 Z" id="_Path_48"></path>
                <path d="M24.7688575,8.48785779 C24.8265685,8.48803301 24.8786857,8.45337889 24.900849,8.40009314 C24.9230124,8.34680739 24.9108442,8.28541482 24.870032,8.24461096 C24.8292199,8.20380712 24.7678249,8.19165143 24.7145436,8.2138256 C24.6612624,8.23599977 24.6266189,8.28812405 24.6268058,8.34583496 C24.6267597,8.38352087 24.641712,8.41967611 24.6683627,8.44632137 C24.6950133,8.47296666 24.7311716,8.48791156 24.7688575,8.48785779 Z" id="_Path_49"></path>
                <path d="M24.8082056,9.63319858 C24.8085407,9.7314299 24.8884163,9.81080556 24.9866478,9.81052388 C25.0848793,9.8102422 25.1642984,9.73040977 25.1640701,9.63217813 C25.1638418,9.53394648 25.0840526,9.45448401 24.9858208,9.45465889 C24.8875376,9.45507273 24.8081092,9.53491453 24.8082056,9.63319858 Z" id="_Path_50"></path>
                <path d="M25.0670593,10.7220885 C24.9494825,10.7224236 24.8543765,10.8178917 24.8544882,10.9354688 C24.8545999,11.053046 24.9498872,11.1483332 25.0674643,11.1484449 C25.1850414,11.1485566 25.2805096,11.0534506 25.2808446,10.9358739 C25.2808446,10.8178034 25.1851297,10.7220885 25.0670593,10.7220885 Z" id="_Path_51"></path>
                <path d="M25.0103772,11.9908181 C24.9094144,11.9908767 24.8184342,12.051765 24.7798813,12.1450772 C24.7413282,12.2383895 24.7627993,12.3457383 24.8342776,12.4170429 C24.9057559,12.4883476 25.0131567,12.5095574 25.1063748,12.4707775 C25.1995929,12.4319976 25.2602598,12.3408696 25.2600728,12.239907 C25.2601424,12.173718 25.2338381,12.1102287 25.1869785,12.063483 C25.1401189,12.0167372 25.0765659,11.9905875 25.0103772,11.9908181 Z" id="_Path_52"></path>
                <path d="M24.815457,13.246605 C24.6584525,13.2470514 24.5314876,13.3745976 24.5317584,13.5316026 C24.5320293,13.6886074 24.6594334,13.8157149 24.8164385,13.8156196 C24.9734436,13.8155244 25.1006934,13.6882625 25.1007738,13.5312574 C25.1009362,13.4555979 25.0709069,13.3830002 25.0173451,13.3295632 C24.9637834,13.2761262 24.8911158,13.2462663 24.815457,13.246605 Z" id="_Path_53"></path>
                <path d="M24.7779867,14.7867554 C24.7779864,14.656985 24.6997742,14.5400069 24.5798527,14.4904163 C24.4599313,14.4408258 24.3219432,14.4683996 24.2302893,14.5602687 C24.1386354,14.6521378 24.1113852,14.7901902 24.1612569,14.909995 C24.2111285,15.0297998 24.3282897,15.1077375 24.4580598,15.1074335 C24.543092,15.1076036 24.6246796,15.0738484 24.684736,15.013651 C24.7447925,14.9534535 24.7783562,14.871787 24.7779867,14.7867554 Z" id="_Path_54"></path>
                <path d="M23.937839,15.628781 C23.7413156,15.628781 23.5820019,15.7880947 23.5820019,15.9846181 C23.5820019,16.1811415 23.7413156,16.3404552 23.937839,16.3404552 C24.1343625,16.3404552 24.2936762,16.1811415 24.2936762,15.9846181 C24.2938067,15.8902042 24.2563588,15.7996198 24.1895981,15.7328591 C24.1228373,15.6660983 24.0322529,15.6286504 23.937839,15.628781 Z" id="_Path_55"></path>
                <path d="M23.2658307,16.7126729 C23.1076119,16.7125443 22.9649009,16.8077541 22.9042641,16.9538923 C22.8436273,17.1000305 22.8770106,17.2683067 22.9888428,17.3802298 C23.1006749,17.4921529 23.2689239,17.525673 23.4151114,17.465155 C23.5612988,17.404637 23.6566245,17.2620034 23.6566246,17.1037846 C23.6566087,16.8879102 23.481705,16.7128642 23.2658307,16.7126729 Z" id="_Path_56"></path>
                <path d="M22.4521461,17.6976457 C22.2794154,17.6975759 22.1236685,17.8016143 22.0575918,17.9612069 C21.9915151,18.1207995 22.0281348,18.3044842 22.1503609,18.4265364 C22.2725868,18.5485886 22.4563234,18.5849469 22.6158218,18.5186432 C22.7753203,18.4523395 22.879137,18.2964448 22.8788213,18.1237142 C22.8788291,18.0106063 22.8338591,17.9021376 22.7538228,17.8222151 C22.6737865,17.7422926 22.565254,17.697477 22.4521461,17.6976457 Z" id="_Path_57"></path>
                <path d="M21.5125016,18.5670878 C21.2570258,18.5671836 21.0499665,18.7743034 21.0499453,19.0297792 C21.0499242,19.285255 21.256949,19.4924091 21.5124248,19.4925473 C21.7679006,19.4926855 21.9751495,19.2857556 21.9754047,19.0302799 C21.9755659,18.9074344 21.9268568,18.7895699 21.840019,18.7026779 C21.7531812,18.6157859 21.6353471,18.5670033 21.5125016,18.5670878 Z" id="_Path_58"></path>
                <path d="M20.4632775,19.3073919 C20.1884413,19.3075835 19.9657486,19.5304446 19.9657647,19.8052809 C19.9657807,20.0801172 20.1884995,20.3029522 20.4633357,20.3031116 C20.738172,20.3032711 20.9611492,20.0806947 20.9614842,19.8058586 C20.9615915,19.6736692 20.9091448,19.5468593 20.8156972,19.4533628 C20.7222495,19.3598664 20.595467,19.3073536 20.4632775,19.3073919 Z" id="_Path_59"></path>
                <path d="M19.3215769,19.9035354 C19.0266356,19.90336 18.7873918,20.1423064 18.7872003,20.4372477 C18.7870089,20.732189 19.0259424,20.9714458 19.3208837,20.9716532 C19.615825,20.9718606 19.8550947,20.7329401 19.8553181,20.4379989 C19.8554484,20.2963356 19.7992801,20.1604264 19.6991767,20.0601876 C19.5990733,19.9599488 19.4632403,19.9035966 19.3215769,19.9035354 Z" id="_Path_60"></path>
                <path d="M18.1065825,20.3465912 C17.7922312,20.3469421 17.5376508,20.6019966 17.5378846,20.916348 C17.5381185,21.2306994 17.7930783,21.4853748 18.1074297,21.485258 C18.4217812,21.4851411 18.6765515,21.2302763 18.6765517,20.9159248 C18.6762487,20.6013679 18.4211396,20.3465432 18.1065825,20.3465912 Z" id="_Path_61"></path>
                <path d="M14.4119544,0.116474956 C14.441247,0.115854978 14.4646157,0.0916613629 14.4644196,0.0621577827 C14.4635977,0.033176561 14.4400304,0.0101121932 14.4112389,0.0101121932 C14.3824475,0.0101121932 14.3588801,0.033176561 14.3580583,0.0621577827 C14.3579653,0.0765845079 14.3636124,0.0904481076 14.3737389,0.100653659 C14.3838653,0.110859209 14.3976279,0.116556967 14.4119544,0.116474956 Z" id="_Path_62"></path>
                <path d="M15.6403369,0.504331292 C15.6795014,0.503965077 15.7110067,0.472017381 15.7108267,0.432851574 C15.7106467,0.393685767 15.6788492,0.362028953 15.639683,0.362022669 C15.6005168,0.362016385 15.5687091,0.393662996 15.5685166,0.432828746 C15.5684465,0.451869007 15.576001,0.470145055 15.5894944,0.483578757 C15.6029878,0.497012459 15.6212972,0.504485844 15.6403369,0.504331292 Z" id="_Path_63"></path>
                <path d="M16.8394418,1.05664874 C16.8983969,1.05647297 16.9460469,1.00853806 16.9458713,0.94958302 C16.9456958,0.890627977 16.897761,0.84297777 16.8388059,0.843153193 C16.7798509,0.843328615 16.7322006,0.891263235 16.7323758,0.95021828 C16.7324447,0.978534458 16.7437672,1.00566181 16.7638493,1.02562474 C16.7839315,1.04558767 16.8111258,1.0567485 16.8394418,1.05664874 Z" id="_Path_64"></path>
                <path d="M17.9774735,1.73180611 C18.0560062,1.73147138 18.1194298,1.66759586 18.1192068,1.58906275 C18.1189839,1.51052964 18.0551988,1.4470152 17.9766654,1.4471263 C17.8981321,1.4472374 17.8345269,1.51093206 17.8345262,1.58946549 C17.8344172,1.6273552 17.8494623,1.66371563 17.8763114,1.69045078 C17.9031605,1.71718593 17.9395846,1.73207619 17.9774735,1.73180611 Z" id="_Path_65"></path>
                <path d="M19.0408825,2.52284094 C19.1387939,2.52256989 19.2179816,2.44304202 19.2178329,2.34513028 C19.2176842,2.24721854 19.1382554,2.16793155 19.0403435,2.16795788 C18.9424317,2.16798422 18.8630455,2.24731392 18.8629495,2.34522573 C18.8628258,2.39242514 18.8815428,2.43772238 18.9149478,2.47106767 C18.9483527,2.50441296 18.9936834,2.52304893 19.0408825,2.52284094 Z" id="_Path_66"></path>
                <path d="M20.0192684,3.42345524 C20.1057855,3.42381757 20.1839917,3.37199831 20.2173841,3.29218419 C20.2507765,3.2123701 20.2327711,3.12029813 20.1717719,3.05894303 C20.1107728,2.99758795 20.0188071,2.97904715 19.9388001,3.01197458 C19.8587931,3.04490204 19.8065197,3.1228054 19.8063786,3.20932317 C19.8063292,3.32712117 19.9014721,3.42281928 20.0192684,3.42345524 Z" id="_Path_67"></path>
                <path d="M20.9028665,4.42102409 C21.0036974,4.42069584 21.0943967,4.35964567 21.1326531,4.26635351 C21.1709095,4.17306138 21.1491849,4.06590946 21.077614,3.99488429 C21.006043,3.92385912 20.898728,3.90295544 20.8057314,3.94192482 C20.7127348,3.9808942 20.6523807,4.07205815 20.6528243,4.17288859 C20.6533976,4.31043698 20.7653178,4.42150372 20.9028665,4.42102409 Z" id="_Path_68"></path>
                <path d="M21.6775497,5.50803613 C21.8348477,5.50784468 21.9622421,5.38023907 21.9621729,5.22294095 C21.9621038,5.06564286 21.8345973,4.93814925 21.6772992,4.93809607 C21.5200011,4.93804285 21.3924084,5.06545016 21.3922328,5.22274819 C21.3920636,5.29846803 21.4220702,5.37113493 21.4756151,5.42467436 C21.5291599,5.47821379 21.6018299,5.50821308 21.6775497,5.50803613 Z" id="_Path_69"></path>
                <path d="M22.3123478,6.68385578 C22.488895,6.68317031 22.6315222,6.53961321 22.6310603,6.36306534 C22.6305984,6.18651746 22.4872221,6.04370856 22.3106738,6.04394682 C22.1341255,6.04418504 21.9911351,6.18738035 21.9911497,6.36392883 C21.9912721,6.44896154 22.0251925,6.53045777 22.0854389,6.59046571 C22.1456852,6.65047365 22.2273153,6.68407055 22.3123478,6.68385578 Z" id="_Path_70"></path>
                <path d="M22.43591,7.57753649 C22.4354657,7.72160089 22.5218969,7.85173021 22.6548609,7.90718556 C22.7878251,7.96264091 22.9411051,7.93248795 23.0431565,7.83080085 C23.1452078,7.72911374 23.1759086,7.57594246 23.120929,7.44278094 C23.0659494,7.30961942 22.93613,7.22272358 22.7920649,7.22265274 C22.6977449,7.22238418 22.6071922,7.25964671 22.5403785,7.32622197 C22.4735648,7.3927972 22.4359787,7.48321611 22.43591,7.57753649 Z" id="_Path_71"></path>
                <path d="M22.7161422,8.84531274 C22.7165728,9.0614522 22.8920473,9.23636667 23.108187,9.23610634 C23.3243267,9.23584601 23.4993794,9.06050935 23.4992893,8.84436949 C23.4991992,8.62822963 23.3240005,8.45303894 23.1078606,8.45295877 C23.0037728,8.45267296 22.903875,8.49393877 22.8303333,8.56759989 C22.7567915,8.641261 22.7156877,8.74122555 22.7161422,8.84531274 Z" id="_Path_72"></path>
                <path d="M22.8262706,10.1420367 C22.8262707,10.3150255 22.9305077,10.4709697 23.0903508,10.5371156 C23.250194,10.6032614 23.4341451,10.5665742 23.5563839,10.44417 C23.6786227,10.3217658 23.7150611,10.1377653 23.6486992,9.97801167 C23.5823373,9.81825809 23.4262522,9.71423214 23.2532636,9.71446591 C23.1399249,9.71448885 23.0312433,9.75956218 22.9511549,9.83975889 C22.8710666,9.91995562 22.8261402,10.0286981 22.8262706,10.1420367 Z" id="_Path_73"></path>
                <path d="M23.6915814,11.4469943 C23.6918385,11.2598673 23.5793307,11.0910171 23.4065339,11.0191988 C23.2337372,10.9473805 23.0346918,10.9867421 22.9022366,11.1189246 C22.7697813,11.251107 22.7300095,11.4500708 22.8014714,11.6230152 C22.8729332,11.7959597 23.0415511,11.9088153 23.2286782,11.9089441 C23.351407,11.9093515 23.4692404,11.8608433 23.5561126,11.77415 C23.6429848,11.6874567 23.6917358,11.5697236 23.6915814,11.4469943 Z" id="_Path_74"></path>
                <path d="M23.5334958,12.7374202 C23.5333085,12.5359675 23.4117706,12.3544698 23.2255687,12.2775798 C23.0393667,12.2006898 22.825181,12.2435541 22.6829102,12.3861804 C22.5406394,12.5288067 22.4983097,12.7430987 22.5756641,12.9291081 C22.6530185,13.1151177 22.8348188,13.2362023 23.0362714,13.2358869 C23.3111875,13.2354564 23.5337513,13.0123366 23.5334958,12.7374202 Z" id="_Path_75"></path>
                <path d="M23.2097842,13.9922827 C23.2098544,13.7763292 23.0798272,13.5815987 22.8803367,13.4988974 C22.6808463,13.4161962 22.4511808,13.4618117 22.2984373,13.6144726 C22.1456937,13.7671335 22.099954,13.9967743 22.1825472,14.1963095 C22.2651405,14.3958447 22.4598006,14.5259772 22.6757541,14.5260239 C22.9705846,14.5260399 23.2096407,14.2871132 23.2097842,13.9922827 Z" id="_Path_76"></path>
                <path d="M22.1542911,14.6192517 C21.8398022,14.619762 21.5852244,14.8750292 21.5855645,15.1895184 C21.5859046,15.5040075 21.8410339,15.7587235 22.1555232,15.7585536 C22.4700125,15.7583838 22.7248666,15.5033924 22.724867,15.1889031 C22.7248749,15.0376595 22.6647338,14.8926217 22.5577017,14.785763 C22.4506696,14.6789044 22.3055345,14.6189985 22.1542911,14.6192517 Z" id="_Path_77"></path>
                <path d="M4.78974699,3.12601072 C4.81880705,3.1258936 4.84233561,3.10259528 4.84245388,3.07381958 C4.84300543,3.05465547 4.83299552,3.03670864 4.8163208,3.02696549 C4.79964609,3.01722228 4.77894139,3.01722228 4.76226667,3.02696549 C4.74559195,3.03670864 4.73558205,3.05465547 4.73613359,3.07381958 C4.73608408,3.08783297 4.74174633,3.10127345 4.75183826,3.11109765 C4.76193014,3.12092181 4.77559802,3.12629869 4.78974699,3.12601072 Z" id="_Path_78"></path>
                <path d="M5.9270555,2.51998084 C5.96609337,2.5197088 5.99752098,2.48784493 5.99725485,2.448807 C5.99698871,2.40976908 5.96512961,2.37833665 5.92609164,2.37859687 C5.88705368,2.37885709 5.85561642,2.41071145 5.85587074,2.44974945 C5.85620448,2.48877066 5.88803334,2.52017324 5.9270555,2.51998084 Z" id="_Path_79"></path>
                <path d="M7.14002758,2.07377607 C7.18355807,2.0742207 7.22303582,2.04829885 7.23993027,2.00817803 C7.25682472,1.96805721 7.24778139,1.92170366 7.21704512,1.89087535 C7.18630885,1.86004703 7.13998254,1.85086512 7.0998114,1.86763952 C7.05964023,1.88441392 7.03360044,1.92381397 7.03391491,1.96734561 C7.03391465,2.02600165 7.0813718,2.07360093 7.14002758,2.07377607 Z" id="_Path_80"></path>
                <path d="M8.39708567,1.75699812 C8.47569823,1.75699812 8.5394263,1.69327005 8.5394263,1.6146575 C8.5394263,1.53604494 8.47569823,1.47231687 8.39708567,1.47231687 C8.31847311,1.47231687 8.25474505,1.53604494 8.25474505,1.6146575 C8.25453609,1.65247224 8.26946556,1.68879867 8.29620503,1.71553814 C8.32294449,1.74227761 8.35927094,1.75720707 8.39708567,1.75699812 Z" id="_Path_81"></path>
                <path d="M9.68439151,1.57467385 C9.78248231,1.57441873 9.86182677,1.49475559 9.86168867,1.39666455 C9.86155058,1.29857351 9.78198217,1.21913408 9.68389105,1.21915513 C9.5857999,1.21917618 9.50626558,1.29864976 9.50616961,1.39674085 C9.50599165,1.44403609 9.52472069,1.48944142 9.55819082,1.5228573 C9.59166097,1.55627319 9.63709664,1.57492855 9.68439151,1.57467385 Z" id="_Path_82"></path>
                <path d="M10.9874135,1.52963447 C11.1052823,1.52928344 11.2005658,1.43347841 11.2002735,1.31560943 C11.1999812,1.19774046 11.1042236,1.10240922 10.9863545,1.10264285 C10.8684854,1.10287648 10.7731065,1.19858656 10.7732814,1.31645577 C10.7731491,1.37320026 10.7956975,1.42764489 10.8359115,1.46767979 C10.8761254,1.5077147 10.9306701,1.53002001 10.9874135,1.52963447 Z" id="_Path_83"></path>
                <path d="M12.2917066,1.6209555 C12.3924117,1.62108381 12.4832602,1.5604853 12.5218279,1.46745807 C12.5603956,1.37443084 12.5390735,1.2673281 12.4678187,1.19616437 C12.3965638,1.12500063 12.2894339,1.1038157 12.1964561,1.14250244 C12.1034783,1.18118918 12.0429961,1.27211514 12.0432533,1.37281999 C12.0431994,1.43870122 12.0693685,1.50189497 12.1159834,1.54845023 C12.1625983,1.59500548 12.2258255,1.6210937 12.2917066,1.6209555 Z" id="_Path_84"></path>
                <path d="M13.5825081,1.85207484 C13.6976941,1.85232034 13.8016748,1.78312289 13.8459247,1.67677526 C13.8901747,1.57042763 13.8659711,1.4478942 13.784609,1.36635835 C13.7032469,1.28482251 13.5807654,1.26035746 13.4743236,1.30438045 C13.3678818,1.34840344 13.2984627,1.45223619 13.2984624,1.56742248 C13.2983167,1.64285645 13.3281766,1.7152516 13.3814597,1.76864844 C13.4347427,1.82204529 13.507074,1.85205964 13.5825081,1.85207484 Z" id="_Path_85"></path>
                <path d="M14.8386128,2.24569997 C15.0154602,2.24585934 15.1589599,2.10263958 15.159146,1.92579226 C15.159332,1.74894493 15.0161339,1.60542356 14.8392866,1.60521085 C14.6624393,1.60499814 14.5188964,1.74817462 14.518657,1.92502188 C14.5192252,2.10161011 14.6620263,2.24473357 14.8386128,2.24569997 Z" id="_Path_86"></path>
                <path d="M16.0361288,2.80055972 C16.1801402,2.80095725 16.3101925,2.71451283 16.3655789,2.58157757 C16.4209654,2.44864231 16.3907644,2.2954296 16.2890734,2.19345713 C16.1873824,2.09148466 16.0342538,2.06086028 15.9011659,2.11587905 C15.7680781,2.17089783 15.6812745,2.30071066 15.6812739,2.44472261 C15.6810515,2.53899433 15.718335,2.62948325 15.7849031,2.69623568 C15.8514713,2.76298811 15.9418568,2.80052163 16.0361288,2.80055972 Z" id="_Path_87"></path>
                <path d="M16.7635769,3.11704877 C16.7634016,3.27532065 16.8585982,3.41810878 17.0047653,3.4788145 C17.1509325,3.53952022 17.3192761,3.50618481 17.4312781,3.39435644 C17.54328,3.28252808 17.5768765,3.11423637 17.5163976,2.96797521 C17.4559187,2.82171408 17.3132784,2.72629618 17.1550064,2.72622596 C16.9390428,2.72617794 16.7638639,2.90108537 16.7635769,3.11704877 Z" id="_Path_88"></path>
                <path d="M18.1762072,4.35804407 C18.41157,4.35734236 18.6019128,4.16618549 18.60161,3.93082188 C18.6013072,3.69545823 18.4104732,3.50479177 18.1751094,3.50469562 C17.9397456,3.50459947 17.748756,3.69510999 17.7482609,3.93047329 C17.748184,4.04396077 17.7932584,4.15281668 17.8735414,4.23302922 C17.9538244,4.31324176 18.0627199,4.35822059 18.1762072,4.35804407 Z" id="_Path_89"></path>
                <path d="M19.0815306,5.33359881 C19.2688466,5.33386766 19.4378618,5.22122113 19.5097012,5.04822848 C19.5815406,4.87523582 19.5420424,4.67599908 19.4096396,4.54349689 C19.2772367,4.41099473 19.0780296,4.37134724 18.9049832,4.4430569 C18.7319367,4.51476659 18.6191635,4.68369732 18.6192919,4.87101345 C18.6196098,5.12622522 18.8263191,5.33308959 19.0815306,5.33359881 Z" id="_Path_90"></path>
                <path d="M19.8567915,5.42174195 C19.5817889,5.42182171 19.358905,5.64479187 19.3589316,5.91979448 C19.3589582,6.19479711 19.5818852,6.41772414 19.8568878,6.41775072 C20.1318904,6.41777733 20.3548606,6.1948934 20.3549404,5.9198908 C20.3549787,5.78776175 20.3025076,5.66103338 20.2090783,5.56760405 C20.1156489,5.47417469 19.9889206,5.42170361 19.8567915,5.42174195 Z" id="_Path_91"></path>
                <path d="M19.9563173,7.06237148 C19.9566842,7.35675217 20.1955906,7.59511534 20.4899713,7.59481228 C20.7843521,7.59450923 21.0227671,7.35565464 21.022528,7.06127381 C21.0222888,6.76689297 20.783486,6.52842611 20.4891051,6.52860136 C20.3476141,6.52854728 20.2119171,6.58479768 20.11196,6.68493903 C20.0120029,6.78508039 19.9560026,6.92088082 19.9563173,7.06237148 Z" id="_Path_92"></path>
                <path d="M20.3984197,8.27597914 C20.3981807,8.59025265 20.6527193,8.84523477 20.9669927,8.84554302 C21.2812661,8.84585125 21.5363044,8.59136892 21.5366819,8.27709556 C21.5370594,7.96282219 21.2826333,7.70772789 20.96836,7.70728111 C20.6540488,7.70721674 20.3990412,7.96166859 20.3984197,8.27597914 Z" id="_Path_93"></path>
                <path d="M21.2817,8.93726935 C20.9475289,8.93718959 20.676565,9.20802416 20.6764852,9.54219534 C20.6764054,9.87636649 20.94724,10.1473304 21.2814111,10.1474102 C21.6155823,10.14749 21.8865462,9.87665539 21.886626,9.54248423 C21.8865145,9.20839227 21.6157919,8.93754037 21.2817,8.93726935 Z" id="_Path_94"></path>
                <path d="M0.0967523341,11.922869 C0.0724594506,11.9223648 0.0497929783,11.9350364 0.0374986465,11.9559947 C0.0252043151,11.9769529 0.0252043151,12.002921 0.0374986465,12.0238792 C0.0497929783,12.0448375 0.0724594506,12.0575091 0.0967523341,12.0570049 C0.133250547,12.0562473 0.162442675,12.026443 0.162442675,11.9899369 C0.162442675,11.9534309 0.133250547,11.9236265 0.0967523341,11.922869 Z" id="_Path_95"></path>
                <path d="M0.485639515,10.60936 C0.431361109,10.609103 0.382277803,10.6415832 0.36129568,10.6916428 C0.340313557,10.7417023 0.351568855,10.799473 0.389808977,10.8379945 C0.428049099,10.876516 0.485735713,10.8881945 0.535947765,10.8675799 C0.586159817,10.8469653 0.618998931,10.7981214 0.619139824,10.7438426 C0.618938017,10.6700359 0.559442681,10.6101028 0.485639515,10.60936 Z" id="_Path_96"></path>
                <path d="M1.20358286,9.54499766 C1.20391742,9.43351759 1.11381636,9.34287383 1.00233629,9.34253894 C0.890856228,9.34220404 0.800212202,9.43230482 0.799876972,9.54378489 C0.799541739,9.65526496 0.889642253,9.74590927 1.00112231,9.74624482 C1.11251822,9.74637344 1.20304186,9.65639233 1.20358286,9.54499766 Z" id="_Path_97"></path>
                <path d="M1.641294,8.67526669 C1.78954457,8.67536237 1.90980595,8.55526473 1.90991229,8.40701418 C1.91001862,8.25876361 1.78992966,8.13849361 1.6416791,8.1383766 C1.49342855,8.1382596 1.37314989,8.25833991 1.37302222,8.40659045 C1.37327585,8.55471328 1.49317171,8.67478992 1.641294,8.67526669 Z" id="_Path_98"></path>
                <path d="M2.39768982,7.67830452 C2.53342692,7.67837464 2.65583475,7.59665483 2.70781418,7.47126461 C2.75979362,7.34587439 2.73110363,7.20151829 2.63512712,7.10553351 C2.53915062,7.00954875 2.39479697,6.9808463 2.26940229,7.03281495 C2.1440076,7.08478358 2.06227724,7.20718436 2.06233566,7.34292147 C2.06219737,7.4319079 2.09748389,7.51728989 2.16040417,7.58021557 C2.22332444,7.64314127 2.30870338,7.67843513 2.39768982,7.67830452 Z" id="_Path_99"></path>
                <path d="M3.2616717,6.76636538 C3.42444209,6.76636538 3.57118507,6.66831485 3.63347459,6.51793463 C3.69576412,6.3675544 3.66133337,6.19445927 3.5462373,6.07936323 C3.43114125,5.96426715 3.25804613,5.92983641 3.1076659,5.99212593 C2.95728568,6.05441546 2.85923515,6.20115844 2.85923515,6.36392883 C2.85921215,6.4706687 2.9016042,6.57304336 2.9770807,6.64851983 C3.05255717,6.72399632 3.15493183,6.76638838 3.2616717,6.76636538 Z" id="_Path_100"></path>
                <path d="M4.22408152,5.95204527 C4.41443005,5.95231412 4.58618515,5.83785782 4.65921473,5.66207581 C4.73224431,5.48629381 4.69215686,5.28382639 4.55765517,5.14913446 C4.42315345,5.0144425 4.22074289,4.97406896 4.04485783,5.04685002 C3.86897281,5.11963109 3.75427389,5.29122426 3.75427368,5.48157297 C3.7541587,5.60627008 3.80359805,5.72590266 3.89170993,5.81413914 C3.97982181,5.90237565 4.09938438,5.95198403 4.22408152,5.95204527 Z" id="_Path_101"></path>
                <path d="M5.27269886,5.24320226 C5.49007125,5.2437518 5.68633739,5.11320956 5.76986277,4.9125243 C5.85338817,4.71183904 5.80769804,4.48059441 5.65412464,4.32675597 C5.50055122,4.17291754 5.26938571,4.12682873 5.06855672,4.21000794 C4.86772777,4.29318716 4.73684731,4.4892279 4.73702201,4.70660093 C4.7374341,5.00242617 4.97687477,5.24228009 5.27269886,5.24320226 Z" id="_Path_102"></path>
                <path d="M6.40917044,4.66661728 C6.74267507,4.66671282 7.01313529,4.3964765 7.01331596,4.0629719 C7.01349664,3.7294673 6.7433294,3.45893809 6.40982486,3.45867225 C6.07632031,3.45840643 5.80572215,3.72850463 5.80537116,4.06200909 C5.80523318,4.22226328 5.86877745,4.37600528 5.98201842,4.48939797 C6.09525941,4.60279067 6.24891622,4.66654069 6.40917044,4.66661728 Z" id="_Path_103"></path>
                <path d="M7.61827127,4.24213772 C7.94954115,4.24137225 8.23049341,3.99856142 8.2792437,3.67089738 C8.42671225,3.88283275 8.67447577,4.0019665 8.93209829,3.98481375 C9.18972078,3.967661 9.41950324,3.81673178 9.53757295,3.58711662 C9.68095266,3.77879946 9.90248618,3.89638431 10.1415921,3.90771601 C10.380698,3.9190477 10.6123588,3.82294057 10.7732236,3.64567648 C11.0493276,4.03613958 11.5887724,4.13064434 11.9811688,3.85729513 C12.0130386,3.90959983 12.0506453,3.95818511 12.0932906,4.00214918 C11.8786267,4.02470325 11.6773998,4.11744679 11.520808,4.26600079 C11.3248875,4.08699545 11.0619677,3.99996484 10.7979375,4.02671916 C10.5339073,4.0534735 10.2937903,4.19147717 10.137761,4.40614578 C9.98326409,4.28392606 9.7919136,4.21766117 9.59491944,4.21815909 C9.25196662,4.21860657 8.94031363,4.41765218 8.79567986,4.72861504 C8.56895893,4.57433982 8.28069282,4.54193969 8.02538135,4.64203609 C7.77006988,4.74213252 7.58063551,4.96181807 7.51917886,5.22907509 C7.2788876,5.08241681 6.97813807,5.0769144 6.73264302,5.21468493 C6.48714797,5.35245543 6.33515935,5.61203203 6.33515447,5.89354319 L6.33515447,5.89643218 C6.11030294,5.76661389 5.83325727,5.76668649 5.60847378,5.89662257 C5.38369031,6.02655867 5.2453564,6.26659624 5.24562901,6.52623239 C5.24589644,6.59452789 5.25561874,6.66245751 5.27451893,6.72808624 C5.16909661,6.66224973 5.04739246,6.62714123 4.92310197,6.62671152 C4.55027651,6.62652024 4.24787179,6.92857167 4.24762724,7.30139709 C4.24738271,7.67422255 4.54939095,7.9766704 4.92221635,7.97696817 C5.29504175,7.97726597 5.59753273,7.67530092 5.59788377,7.30247558 C5.59706544,7.24589595 5.58935273,7.18962706 5.57491629,7.13491406 C5.79441746,7.27818136 6.07408209,7.29207143 6.30669926,7.1712594 C6.5393164,7.05044737 6.68879763,6.81367618 6.6978385,6.55171329 C6.82219183,6.63106731 6.96662674,6.67324512 7.11414221,6.67328207 C7.12769158,6.67328207 7.14248322,6.67137533 7.15695707,6.67137533 C6.9885552,6.82428802 6.88516459,7.03592857 6.86805789,7.26275195 C6.61812284,7.21563093 6.36018608,7.28227145 6.16435427,7.44456082 C5.96852247,7.60685016 5.85514329,7.84792587 5.85503293,8.10226406 C5.85481481,8.13577827 5.85713262,8.16926094 5.86196651,8.20242541 C5.83087192,8.19818483 5.79951356,8.19617663 5.76813206,8.1964163 C5.32137915,8.1964163 4.95921437,8.55858109 4.95921437,9.005334 C4.95874054,9.09297798 4.97310929,9.18006961 5.00171144,9.2629165 C4.98533085,9.26230981 4.96958585,9.26072087 4.95384084,9.26072087 C4.67671876,9.25988404 4.42093138,9.40937299 4.28564678,9.65123129 C4.15036217,9.89308956 4.15685359,10.1892854 4.30260432,10.4249845 C4.29530043,10.4240971 4.28794771,10.4236726 4.2805902,10.4237134 C3.98509292,10.423295 3.71946769,10.6038249 3.61109277,10.8787316 C3.50271787,11.1536384 3.57369257,11.4668642 3.78998162,11.6682044 C3.77926346,11.6682044 3.76949867,11.6650843 3.75973388,11.6650843 C3.43601053,11.664079 3.15683799,11.8923078 3.09346749,12.2097696 C3.03009699,12.5272315 3.20024916,12.8451527 3.49954851,12.9685128 C3.79884785,13.091873 4.14359976,12.9861761 4.32232501,12.7162592 C4.50105026,12.4463424 4.46377097,12.0876838 4.23335519,11.8602934 C4.2484935,11.8612179 4.2645563,11.8622002 4.2805902,11.8622002 C4.48089738,11.8623111 4.67208629,11.7784839 4.80771564,11.6310808 C4.80771564,11.6392856 4.80710895,11.6477503 4.80710895,11.6556661 C4.80725594,11.833745 4.86417047,12.00714 4.96958585,12.150666 C4.70264809,12.2456361 4.50666565,12.4758184 4.45548052,12.7544851 C4.40429536,13.0331519 4.50568588,13.3179552 4.72145034,13.5015874 C4.45952233,13.6211284 4.28853213,13.8793948 4.28076403,14.1672072 C4.27299597,14.4550196 4.42980608,14.7221334 4.6849046,14.855629 C4.41649317,14.9915935 4.26210721,15.2812194 4.29885611,15.5798505 C4.33560504,15.8784816 4.55560318,16.1220366 4.84897044,16.1888698 C4.57008214,16.3293526 4.42429174,16.6430758 4.49673954,16.946828 C4.5691873,17.2505803 4.84088034,17.4647298 5.15315238,17.4642152 C5.19471504,17.4640104 5.23616129,17.4598019 5.27691679,17.4516481 C4.9657586,17.5552687 4.78674225,17.8808871 4.86597014,18.1991316 C4.94519805,18.5173761 5.25598483,18.7210566 5.57940662,18.6666967 C5.90282841,18.6123368 6.12995112,18.3182459 6.10078533,17.9915871 C6.07161955,17.6649283 5.79598882,17.4157258 5.46805249,17.4195225 C5.42925876,17.4195869 5.39056097,17.4233792 5.35249281,17.4308473 C5.63514778,17.3449359 5.82857367,17.0845378 5.82917646,16.7891156 C5.82917646,16.7720994 5.82539188,16.7575967 5.82383182,16.7406094 C5.92985432,16.8570581 6.0689797,16.938265 6.22251268,16.9733177 C6.03356433,17.1949829 5.99094483,17.5063611 6.11337929,17.7706464 C6.23581377,18.0349318 6.50089737,18.2037615 6.79216408,18.2029593 C6.79849097,18.2029593 6.80320003,18.2029593 6.80854466,18.2026704 C6.65116149,18.4189063 6.62858307,18.7052169 6.75012694,18.943449 C6.87167081,19.1816811 7.1167306,19.3314451 7.38417627,19.3309372 C7.45414106,19.3307484 7.52371241,19.3204635 7.59073918,19.3004006 C7.4533277,19.5078928 7.44100181,19.7740957 7.55865161,19.9933979 C7.67630138,20.2127002 7.90490759,20.3496494 8.15377479,20.3499135 C8.3069584,20.3496607 8.45535002,20.2964887 8.57383419,20.199397 C8.34865014,20.4611811 8.37182909,20.8544228 8.62620779,21.0879399 C8.88058649,21.3214569 9.27437147,21.3109838 9.51597814,21.0642756 C9.75758484,20.8175673 9.75982855,20.4236495 9.52104792,20.174205 C9.60481172,20.1725863 9.68784409,20.1582573 9.76730557,20.131708 L9.76730557,20.1403749 C9.76741229,20.4342739 9.93205975,20.7033724 10.1936919,20.8372575 C10.1551923,20.8289967 10.115919,20.8248805 10.0765433,20.8249793 C9.76752355,20.8221267 9.50491943,21.0502231 9.46449532,21.3566007 C9.42407122,21.6629782 9.61852747,21.9513802 9.91771189,22.0287753 C10.2168963,22.1061703 10.5268121,21.9482428 10.6400285,21.6606957 C10.753245,21.3731485 10.634192,21.0463224 10.3625534,20.8989664 C10.4239207,20.9146618 10.4869956,20.9226965 10.5503379,20.9228872 C10.6964101,20.9227894 10.8395311,20.8817547 10.9634637,20.8044386 C10.9874409,21.0971948 11.180958,21.3486408 11.4578167,21.4467752 C11.7346753,21.5449096 12.0433506,21.4714689 12.2463494,21.2591659 C12.2943745,21.5608257 12.5297015,21.7981056 12.8309542,21.8486221 C13.1322068,21.8991385 13.4320628,21.7516024 13.5758634,21.4821094 C13.641475,21.8089049 13.9359817,22.0387524 14.2689266,22.02301 C14.6018716,22.0072676 14.8733775,21.7506576 14.907862,21.4191294 C14.9317088,21.7635541 15.2249322,22.0266905 15.56992,22.013255 C15.9149078,21.9998195 16.1867785,21.7146756 16.1837666,21.3694394 C16.1807546,21.0242033 15.9039503,20.7438461 15.5587807,20.7364317 C15.6170129,20.6755629 15.6657126,20.6062438 15.7032303,20.5308222 C15.910133,20.7427964 16.2190216,20.8197166 16.5011698,20.729527 C16.2531598,20.8974138 16.1652936,21.2214812 16.2945303,21.491653 C16.4237671,21.7618248 16.7312137,21.8967942 17.0175683,21.8090675 C17.3039229,21.7213408 17.4830086,21.4373189 17.4387334,21.1411185 C17.3944581,20.8449182 17.1401463,20.6256794 16.8406552,20.6255233 C16.7817681,20.6260745 16.723312,20.6356321 16.6673157,20.6538643 C16.8481723,20.5444529 16.9771677,20.3666284 17.0250307,20.1607423 C17.1593896,20.2753128 17.3302822,20.3380731 17.5068567,20.3376931 C17.919799,20.3379967 18.2549212,20.0037149 18.2556545,19.5907731 C18.2556545,19.5849952 18.2537767,19.5794483 18.2537767,19.5747104 C18.3746329,19.6629103 18.5204339,19.7103368 18.6700515,19.7101174 C18.8588563,19.7103091 19.0399976,19.6354587 19.1735949,19.5020457 C19.3071922,19.3686326 19.3822924,19.1875948 19.3823613,18.9987898 C19.382803,18.9287555 19.3723948,18.8590753 19.3515068,18.7922269 C19.6282268,18.9787905 19.9998235,18.9346761 20.2251716,18.6885091 C20.4505196,18.4423421 20.4617117,18.0683035 20.2514856,17.809103 C20.3663247,17.9102292 20.5141067,17.9659954 20.6671248,17.9659464 C20.8969797,17.9674901 21.1100379,17.8457495 21.2254133,17.6469427 C21.3407887,17.4481358 21.3407887,17.2027492 21.2254133,17.0039423 C21.1100379,16.8051355 20.8969797,16.6833948 20.6671248,16.6849386 C20.5022684,16.6846689 20.3438379,16.748856 20.225658,16.863796 C20.2236906,16.7795955 20.2095817,16.6961195 20.1837676,16.6159494 L20.191019,16.6159494 C20.4850608,16.6158308 20.754329,16.451234 20.8885082,16.189592 C20.8807372,16.2280608 20.8766261,16.267179 20.87623,16.3064229 C20.8721313,16.6160634 21.099687,16.8800992 21.4065409,16.9217496 C21.7133948,16.9633999 22.0030976,16.7695733 22.0816838,16.4700432 C22.1602699,16.1705131 22.0030384,15.8594268 21.7152609,15.7450668 C21.4274835,15.6307068 21.0996133,15.7490185 20.9511705,16.0207882 C20.9667315,15.9595427 20.9747644,15.8966278 20.9750913,15.8334371 C20.9745574,15.6868942 20.9332329,15.543394 20.8557471,15.4190113 C21.148487,15.3951427 21.3999634,15.2016907 21.498111,14.9248634 C21.5962586,14.6480359 21.5228015,14.3393807 21.3104744,14.1364434 C21.6117937,14.088108 21.848696,13.852937 21.8992403,13.5519803 C21.9497846,13.2510237 21.8027045,12.9513647 21.5337068,12.8072472 C21.860714,12.7420561 22.0908914,12.4475334 22.0751356,12.1144638 C22.0593797,11.7813941 21.8024277,11.5099151 21.4707268,11.4758842 C21.8148949,11.4542389 22.0811171,11.165638 22.0749733,10.8208446 C22.0688296,10.4760513 21.7924946,10.1971181 21.4477739,10.1877478 C21.1030531,10.1783776 20.8119734,10.4418874 20.7871082,10.7858378 C20.762243,11.1297883 21.0123942,11.4324253 21.3548782,11.4727352 C21.0552381,11.490477 20.8037375,11.7048634 20.7387796,11.9979153 C20.6738218,12.2909672 20.8111751,12.5915469 21.0752527,12.7342423 C20.813945,12.7793921 20.5995713,12.9663877 20.5193563,13.2191439 C20.4391413,13.4719002 20.5064539,13.7482921 20.6939058,13.9358607 C20.4464593,13.9691022 20.2320647,14.1239674 20.1227452,14.3484312 C20.0134257,14.5728951 20.023687,14.8371733 20.150082,15.0524849 C19.7347967,15.0746135 19.4092788,15.417563 19.4088244,15.8334371 C19.4088096,15.9103808 19.4207087,15.9868629 19.444099,16.0601652 C19.4321801,16.0587112 19.4201942,16.0578723 19.4081889,16.0576518 C18.956062,16.0577634 18.5895732,16.4242652 18.5894775,16.876392 C18.5895496,16.8959603 18.5906973,16.9155097 18.5929154,16.9349519 C18.5503436,16.9279171 18.5072731,16.9243327 18.4641241,16.9242338 C18.0399467,16.9241883 17.6802102,17.235891 17.6198741,17.6557554 C17.5438931,17.6352114 17.4655843,17.6245307 17.3868769,17.6239764 C17.0413103,17.6248212 16.7274373,17.825526 16.581686,18.1388526 C16.3935484,17.9855957 16.1447393,17.9287617 15.9087181,17.9851304 C15.6726969,18.0414991 15.4764223,18.2046319 15.3778431,18.426365 C15.2064359,18.2395612 14.9551463,18.1473805 14.7036027,18.179033 C14.452059,18.2106854 14.2314403,18.3622477 14.1116558,18.5856929 C13.9700269,18.4086968 13.7587829,18.3015866 13.5323029,18.2919349 C13.3058228,18.2822832 13.086232,18.3710329 12.9300582,18.5353378 C12.8333187,18.3222982 12.6466484,18.1634702 12.4208669,18.1020935 C12.1950853,18.0407168 11.9536957,18.0831805 11.7624144,18.2179243 C11.7103798,17.9881542 11.5578583,17.7939236 11.3469817,17.6888856 C11.1361052,17.5838477 10.8891923,17.5791196 10.674449,17.6760072 C10.6679094,17.450465 10.5643128,17.2387281 10.3902523,17.095149 C10.2161917,16.95157 9.98861751,16.8901307 9.76594775,16.9266027 C9.81985752,16.6952736 9.76596341,16.4519772 9.61940419,16.2650553 C9.47284497,16.0781333 9.2494317,15.9677512 9.0119209,15.9649151 C9.10250584,15.7572292 9.09852678,15.520458 9.00101443,15.3159332 C8.90350209,15.1114083 8.7220501,14.9592518 8.50366058,14.8988772 C8.64159194,14.7198014 8.69554614,14.4899186 8.65168801,14.2681763 C8.60782988,14.046434 8.47042521,13.8543998 8.27470798,13.741316 C8.46122886,13.5981073 8.57376716,13.3788573 8.58139309,13.1438241 C8.58901905,12.9087909 8.49093012,12.6827068 8.31408494,12.5277083 C8.51876047,12.424695 8.6685967,12.2378556 8.72469734,12.0156923 C8.78013937,11.7949224 8.73632068,11.5609483 8.6047464,11.3752028 C8.82364923,11.325793 9.01086382,11.1849032 9.1189475,10.9882367 C9.22703118,10.7915703 9.24561066,10.5580022 9.16997764,10.3467218 C9.40512545,10.3587934 9.63326473,10.2646283 9.7914392,10.090212 C9.94961369,9.91579571 10.0211017,9.67956687 9.98617559,9.44671416 C10.208057,9.50077014 10.4424788,9.45557773 10.6283635,9.32291156 C10.8142481,9.19024539 10.9331866,8.98324399 10.9541901,8.75584067 C11.1544737,8.86111891 11.3904717,8.87474848 11.6015435,8.79322717 C11.8126154,8.71170586 11.9781836,8.54298129 12.0557048,8.33040774 C12.2194461,8.47977434 12.4393109,8.55187427 12.6597063,8.52847702 L12.6584352,8.52847702 C12.8991707,8.50585295 13.115548,8.37215442 13.2434849,8.16697748 C13.3753289,8.3556649 13.5836444,8.47663964 13.8128712,8.49763637 C14.042098,8.5186331 14.2689247,8.43751653 14.4328539,8.27592136 C14.5198593,8.49431998 14.7005006,8.66198978 14.9247656,8.73250986 C15.1490306,8.80302998 15.3931223,8.7689174 15.5894618,8.63961653 C15.6329727,8.87110722 15.7779378,9.07091402 15.9845025,9.18410481 L15.9829136,9.18410481 C16.1541201,9.27840537 16.3544436,9.30514267 16.5443891,9.25904525 C16.5654788,9.28833963 16.5881862,9.31636285 16.6114715,9.34282601 C16.6219136,9.51649807 16.6909567,9.68149249 16.8073163,9.81084268 C16.812503,9.8164793 16.8180832,9.82174082 16.8240146,9.82658768 C17.22362,10.2447692 18.1516219,11.2603076 17.9781091,12.6197227 C17.934023,12.9585437 18.1242054,13.1295142 18.367314,12.8678582 C19.8406998,11.2795194 19.6102161,9.32884329 19.577166,9.10202855 C19.5692676,8.95672434 19.5370412,8.81377576 19.4818293,8.67913794 C19.4989651,8.59508509 19.5076752,8.50953274 19.5078302,8.42375107 C19.5076434,8.02930442 19.3229799,7.65764725 19.008728,7.41924863 C19.0232156,7.34410382 19.0307013,7.26777706 19.0310888,7.1912494 C19.0312011,6.69830706 18.7318779,6.25471287 18.2747218,6.0703206 C18.2638322,5.50995069 17.852279,5.03824002 17.2985604,4.95147187 C17.2021389,4.4299702 16.7475511,4.05137378 16.2172108,4.05088647 C16.1973634,4.05088647 16.179105,4.05276431 16.1580154,4.05339989 C16.0188692,3.62394037 15.6187901,3.33310107 15.1673512,3.33323202 C15.0790138,3.33325776 14.9910558,3.34478545 14.9056952,3.36752436 C14.7951941,3.12507864 14.5913511,2.93761855 14.3405172,2.84776995 C14.0896833,2.75792136 13.8131763,2.77332025 13.57387,2.89046515 C13.4370482,2.65781743 13.2061972,2.4958059 12.9408893,2.44623864 C12.6755815,2.39667138 12.4018075,2.46440417 12.1902163,2.63195816 C12.0311954,2.41117942 11.7780423,2.27751178 11.5060412,2.27070608 C11.2340401,2.26390038 10.974519,2.38474048 10.8046558,2.59729026 C10.6291104,2.38051133 10.3537146,2.27025944 10.0770718,2.30600942 C9.80042899,2.34175941 9.56210748,2.51839794 9.44743641,2.77268095 C9.25734693,2.54714888 8.95119504,2.45651118 8.66896403,2.54221056 C8.38673303,2.62790994 8.18266889,2.87347462 8.15007688,3.16662387 C7.95951895,2.91647488 7.62059677,2.83257586 7.33534887,2.96494075 C7.05010095,3.09730566 6.89534555,3.41028819 6.96333554,3.71731296 C7.03132553,4.0243377 7.30375102,4.2427219 7.61821349,4.24228217 L7.61827127,4.24213772 Z" id="_Path_104"></path>
                <path d="M3.10930685,21.5601988 C3.08011047,21.5605539 3.05672828,21.5843605 3.05707339,21.6133805 C3.05708084,21.6422588 3.08026129,21.6658601 3.10930685,21.6665621 C3.13886137,21.6663288 3.1628575,21.6427515 3.16343325,21.6133805 C3.16320539,21.5838622 3.13900542,21.5600846 3.10930685,21.5601988 Z" id="_Path_105"></path>
                <path d="M2.50224243,20.352947 C2.47474188,20.3528087 2.44831732,20.3636226 2.42880361,20.3830008 C2.4092899,20.402379 2.39829212,20.4287275 2.39823873,20.4562284 C2.39823873,20.5134447 2.44462169,20.5598277 2.50183797,20.5598277 C2.55905426,20.5598277 2.60543722,20.5134447 2.60543722,20.4562284 C2.60552187,20.4288256 2.59467955,20.4025195 2.57531091,20.3831346 C2.55594226,20.3637497 2.52964527,20.3528853 2.50224243,20.352947 Z" id="_Path_106"></path>
                <path d="M2.01940524,19.0869908 C1.93331355,19.0869913 1.86349599,19.1567319 1.86340065,19.2428236 C1.86330531,19.3289152 1.93296824,19.3988103 2.01905972,19.3990015 C2.1051512,19.3991926 2.17512382,19.3296075 2.1754108,19.2435163 C2.17549074,19.1572395 2.10568186,19.0871979 2.01940524,19.0869908 Z" id="_Path_107"></path>
                <path d="M1.66712159,17.7782775 C1.55255504,17.7784529 1.45980629,17.8714387 1.4599232,17.9860053 C1.46004012,18.1005719 1.55297848,18.1933682 1.66754514,18.1933098 C1.78211181,18.1932514 1.87495552,18.1003604 1.87495565,17.9857938 C1.87501729,17.9306831 1.85313017,17.8778164 1.81413118,17.8388771 C1.77513219,17.7999377 1.72223215,17.7781315 1.66712159,17.7782775 Z" id="_Path_108"></path>
                <path d="M1.70869418,16.6994413 C1.70893953,16.5942608 1.64573672,16.499312 1.54860939,16.4589477 C1.45148206,16.4185835 1.33959988,16.4407704 1.26522586,16.5151444 C1.19085184,16.5895185 1.16866491,16.7014006 1.20902915,16.798528 C1.24939339,16.8956553 1.34434226,16.9588581 1.44952273,16.9586128 C1.59252734,16.958295 1.70837642,16.8424459 1.70869418,16.6994413 Z" id="_Path_109"></path>
                <path d="M1.68035317,15.3957838 C1.68001826,15.2236878 1.54029458,15.0844164 1.36819839,15.0846396 C1.19610221,15.0848628 1.0567402,15.224496 1.05685162,15.3965923 C1.05696304,15.5686886 1.19650573,15.7081412 1.36860207,15.7081416 C1.45141953,15.7082419 1.53086499,15.6753456 1.58936886,15.6167279 C1.64787274,15.5581102 1.68061448,15.4786009 1.68035317,15.3957838 Z" id="_Path_110"></path>
                <path d="M1.06158891,14.0920973 C1.06168477,14.2926226 1.22425823,14.4551355 1.42478347,14.4551567 C1.6253087,14.4551778 1.78791647,14.2926992 1.78805465,14.092174 C1.78819284,13.8916488 1.62580916,13.7289463 1.42528409,13.7286911 C1.32877981,13.7283755 1.23613289,13.7665522 1.16786659,13.8347642 C1.09960029,13.9029763 1.06134998,13.9955929 1.06158891,14.0920973 Z" id="_Path_111"></path>
                <path d="M1.62052215,13.2163862 C1.84988871,13.2159556 2.03552586,13.0297584 2.03526551,12.8003916 C2.03500517,12.5710248 1.84894581,12.3852495 1.61957887,12.3853395 C1.39021192,12.3854297 1.20429858,12.5713511 1.20421844,12.800718 C1.20413369,12.9110962 1.24798727,13.0169687 1.32609607,13.0949582 C1.40420486,13.1729478 1.51014421,13.2166396 1.62052215,13.2163862 Z" id="_Path_112"></path>
                <path d="M1.978266,11.0778967 C1.78921743,11.0776279 1.61862891,11.1912858 1.54606987,11.3658556 C1.47351083,11.5404254 1.51327593,11.7415156 1.64681711,11.8753296 C1.78035829,12.0091436 1.98136696,12.049319 2.15608449,11.9771164 C2.33080202,11.9049138 2.44480778,11.7345576 2.44492484,11.5455089 C2.44492537,11.2876256 2.2361487,11.0784225 1.978266,11.0778967 Z" id="_Path_113"></path>
                <path d="M2.4968978,10.8669136 C2.70713934,10.8672994 2.89689318,10.7409483 2.97761387,10.5468199 C3.05833458,10.3526915 3.01411139,10.1290502 2.86558038,9.98025443 C2.71704935,9.83145864 2.49348715,9.78683727 2.29921533,9.86721211 C2.10494352,9.94758692 1.97825466,10.1371154 1.978266,10.3473573 C1.97836093,10.6339002 2.21035553,10.8663084 2.4968978,10.8669136 Z" id="_Path_114"></path>
                <path d="M3.16983065,9.79977784 C3.48531427,9.79917159 3.74060581,9.54299221 3.74011676,9.22750838 C3.73962771,8.91202453 3.48354317,8.65663786 3.16805918,8.6570097 C2.8525752,8.65738155 2.5970934,8.91337118 2.59734804,9.22885529 C2.59727044,9.38056769 2.65761045,9.52606583 2.7650336,9.63319627 C2.87245676,9.7403267 3.01811903,9.80026943 3.16983065,9.79977784 Z" id="_Path_115"></path>
                <path d="M4.60635291,8.20794338 C4.60646974,7.95588622 4.45473796,7.72857841 4.22191111,7.63201504 C3.98908426,7.53545171 3.72101457,7.58864975 3.54270476,7.76680257 C3.36439494,7.9449554 3.31096079,8.21297811 3.407319,8.44588993 C3.50367725,8.67880177 3.73085133,8.83073371 3.98290849,8.83083889 C4.32692741,8.83063216 4.60584315,8.55196198 4.60635291,8.20794338 Z" id="_Path_116"></path>
            </g>
            <path d="M36.6815943,18.168714 C36.0196315,18.1714727 35.3641126,18.0386739 34.7554168,17.7784979 C34.1692658,17.5278819 33.6368876,17.1666855 33.1873876,16.7146556 C32.7390776,16.2590112 32.3814326,15.7223283 32.1334834,15.1331637 C31.6146829,13.8957939 31.6146829,12.5018846 32.1334834,11.2645148 C32.6307806,10.0752983 33.5697812,9.12520682 34.7530767,8.61398045 C35.9921436,8.08104118 37.3963164,8.0835711 38.6334549,8.62097181 C39.2281212,8.88400533 39.7673469,9.25771817 40.2224003,9.72219769 C40.3222826,9.82549914 40.3973637,9.95016341 40.4419637,10.0867596 C40.4979622,10.2516653 40.4746651,10.4331899 40.3788392,10.5786104 C40.2716256,10.7439109 40.0904009,10.8463891 39.8934886,10.8530646 L39.8864684,10.8530646 C39.6551179,10.8530646 39.4933055,10.7852889 39.363012,10.6521064 C38.989181,10.3384417 38.5814013,10.0676254 38.1472953,9.84471983 C37.6947348,9.60907185 37.1917414,9.48678595 36.6815076,9.4883627 C36.1891269,9.48677745 35.7016945,9.58660445 35.2495788,9.78162425 C34.8126899,9.97137107 34.4166995,10.2439622 34.0834951,10.5843306 C33.7523721,10.9269626 33.488073,11.328359 33.3041607,11.7679216 C32.9192996,12.6839414 32.9192996,13.7163084 33.3041607,14.6323281 C33.6714093,15.5174876 34.36991,16.2241678 35.2507344,16.601696 C35.7023275,16.7970539 36.189445,16.8968991 36.6814787,16.8949575 C37.1963681,16.8981702 37.7062226,16.7935087 38.1782075,16.5877133 C38.6307597,16.388302 39.0377277,16.0984083 39.3740768,15.7358652 C39.4781672,15.6200214 39.6158279,15.539566 39.7678464,15.5057281 C39.8164207,15.4937466 39.8662255,15.487464 39.9162539,15.4870074 C40.0326271,15.4876028 40.1460134,15.5239057 40.2410921,15.5910111 C40.3975842,15.7126749 40.486581,15.901746 40.4806184,16.0998781 C40.4806184,16.2985541 40.4199496,16.4656245 40.3006631,16.5970736 C39.8485599,17.0916663 39.2978848,17.4860923 38.6840989,17.7549526 C38.0529891,18.0317452 37.3707225,18.1727165 36.6815943,18.168714 Z" id="_Path_117"></path>
            <path d="M47.0168467,18.1523912 C46.35447,18.1555287 45.6984334,18.0233324 45.0889647,17.7639085 C43.9077921,17.2626355 42.9673325,16.322414 42.4657602,15.1413684 C41.9500937,13.9086388 41.9500937,12.5206453 42.4657602,11.2879157 C42.7173764,10.7022758 43.0757584,10.1685626 43.5226112,9.71402185 C43.9714967,9.26222797 44.503308,8.90125235 45.088907,8.65087288 C46.3210177,8.13208351 47.7102775,8.13208351 48.9423886,8.65087288 C50.1300927,9.15494188 51.0757348,10.1003977 51.5800381,11.2880023 C52.0995441,12.5199584 52.0995441,13.9094991 51.5800381,15.1414551 C51.3305303,15.7279352 50.9696259,16.260447 50.5173225,16.7094843 C50.0623721,17.155759 49.5282501,17.5133557 48.9423019,17.7639663 C48.3336737,18.0233467 47.6784333,18.1555293 47.0168467,18.1523912 Z M47.0168467,9.53406655 C46.5254064,9.5321658 46.0386249,9.62934134 45.5855824,9.81978784 C45.1486002,10.0023443 44.7519641,10.2693865 44.4184297,10.6055936 C44.0860307,10.9450175 43.8208045,11.3442288 43.6367264,11.7821933 C43.2581647,12.6990519 43.2581647,13.7285277 43.6367264,14.6453863 C44.4328149,16.5059395 46.5807398,17.3758935 48.4471865,16.5937224 C48.8852129,16.4097852 49.2844458,16.1445643 49.6237862,15.8120768 C50.674115,14.7505299 50.9845819,13.1622384 50.4112965,11.78332 C50.2249788,11.3448768 49.9573723,10.945653 49.6226017,10.6067203 C49.2849245,10.2714131 48.8858591,10.0042416 48.4471865,9.81978784 C47.9943743,9.62964486 47.5079586,9.53246978 47.0168467,9.53403766 L47.0168467,9.53406655 Z" id="_Compound_Path_" fill-rule="nonzero"></path>
            <path d="M60.7212992,18.1827834 C60.5523968,18.1831676 60.3902938,18.1162791 60.27081,17.9968983 C60.1513262,17.8775176 60.0842978,17.7154722 60.0845365,17.5465696 L60.0845365,11.8802456 C60.0870187,11.5632953 60.0233465,11.2493133 59.8975898,10.9583684 C59.6494818,10.3827233 59.1898154,9.92431887 58.6134908,9.67779389 C58.0256211,9.42540325 57.3599171,9.42540325 56.7720474,9.67779389 C56.4897097,9.8000386 56.2334764,9.975369 56.0172694,10.1942589 C55.8011,10.4157542 55.6276068,10.6751956 55.5054845,10.9595818 C55.3803271,11.2503392 55.3162908,11.5637257 55.3173534,11.8802745 L55.3173534,17.5465696 C55.3173534,17.8982599 55.0322521,18.1833612 54.6805618,18.1833612 C54.3288716,18.1833612 54.0437703,17.8982599 54.0437703,17.5465696 L54.0437703,11.8802456 C54.0417413,11.3918468 54.1381187,10.9080439 54.3271515,10.4577061 C54.5083487,10.0221574 54.7737723,9.6266778 55.1081904,9.29396245 C55.4416942,8.96013893 55.8364391,8.69375505 56.2708073,8.50939895 C57.1792577,8.11791266 58.2089305,8.11832027 59.1170709,8.51052566 C59.9936944,8.88280299 60.6921472,9.58001331 61.0659848,10.4559727 C61.2602513,10.9055532 61.3593052,11.3904943 61.3569062,11.8802456 L61.3569062,17.5465407 C61.3600486,17.7154602 61.2937445,17.8782706 61.1734841,17.9969346 C61.053951,18.1172762 60.8909107,18.184286 60.7212992,18.1827834 Z" id="_Path_118"></path>
            <path d="M66.9770641,18.1827834 C66.5080502,18.1856838 66.042172,18.1061844 65.6006618,17.9479084 C65.1871575,17.7990769 64.8034038,17.5779219 64.4673103,17.2947651 C64.1473045,17.0251962 63.8858591,16.6929821 63.6990696,16.3185748 C63.5122732,15.9460458 63.4160045,15.5347006 63.4180863,15.1179676 C63.4180863,14.7830625 63.6895804,14.5115682 64.0244857,14.5115682 C64.3593909,14.5115682 64.630885,14.7830625 64.630885,15.1179676 C64.6299649,15.364406 64.6899669,15.6072518 64.8055535,15.8249039 C64.9265355,16.0509141 65.0925531,16.2497321 65.2933597,16.4090869 C65.5171774,16.5823319 65.7683394,16.7170082 66.0364951,16.8075655 C66.3349115,16.9065992 66.6474807,16.9563066 66.9618969,16.9547308 C67.2793971,16.9561021 67.5950362,16.9062027 67.8966302,16.8069589 C68.1720615,16.7153322 68.4308796,16.5798064 68.6630797,16.4056201 C68.8710484,16.251328 69.0419152,16.0525179 69.1631931,15.8237194 C69.2764638,15.6108218 69.3270986,15.3701889 69.3092316,15.1296969 C69.2912445,14.8996508 69.2174478,14.6774575 69.0942329,14.4823605 C68.9604044,14.2694922 68.7908234,14.0813316 68.5929639,13.9261718 C68.3758406,13.7557105 68.1349356,13.6179477 67.8779095,13.5172639 C67.6033721,13.4068101 67.3175942,13.3266663 67.025657,13.2782577 C66.6050452,13.2488907 66.1898624,13.1662502 65.7900641,13.0323178 C65.414611,12.909437 65.0591518,12.7322963 64.7349754,12.5065213 C64.4391912,12.3028573 64.1869701,12.0422781 63.9930534,11.740014 C63.8016398,11.4421602 63.7009553,11.0950786 63.7032587,10.7410295 C63.7017344,10.3872276 63.7949319,10.0394655 63.9731772,9.73384033 C64.1580276,9.41935327 64.4058883,9.14647032 64.7012031,8.93231846 C65.0236282,8.69747925 65.3821581,8.51673595 65.7627053,8.39719051 C66.6025425,8.13540845 67.5021601,8.13540845 68.3419972,8.39719051 C68.7217676,8.51822676 69.0798861,8.69885611 69.4029505,8.93231846 C69.6973622,9.14709662 69.9446908,9.41986979 70.1297053,9.73384033 C70.3092607,10.0390268 70.4032977,10.3869432 70.401935,10.7410295 C70.4022747,10.9099148 70.3352507,11.0719627 70.215714,11.1912662 C70.0961771,11.3105696 69.9339986,11.3772773 69.7651145,11.3766077 C69.5932302,11.3799363 69.4286339,11.3072581 69.3152985,11.1779895 C69.2048812,11.0559007 69.1435479,10.8928749 69.1295074,10.6926389 C69.1188468,10.5369015 69.0621206,10.3878507 68.9665394,10.2644326 C68.8464094,10.1057394 68.6975876,9.97097944 68.5277882,9.86713841 C68.3206435,9.73949776 68.0958398,9.64304071 67.8606045,9.58086822 C67.5974254,9.50949776 67.3259024,9.47354989 67.053218,9.47397552 C66.7723718,9.47271789 66.4925961,9.50866128 66.2211883,9.58086822 C65.98594,9.64133632 65.7613377,9.73746925 65.5551891,9.86592503 C65.3855345,9.97482194 65.2396698,10.1169228 65.126376,10.2836732 C65.028963,10.4222935 64.9763718,10.5874375 64.9756862,10.7568612 C64.9756862,10.9134157 65.0340727,11.054254 65.1567682,11.1885921 C65.3035264,11.3471986 65.4769225,11.4788835 65.669102,11.5776815 C65.8920256,11.6962054 66.1258166,11.793046 66.3672558,11.8668696 C66.5985366,11.9397309 66.8356231,11.9926864 67.0759254,12.0251575 C67.5348643,12.0742438 67.9848551,12.1863113 68.4132108,12.3582004 C68.8113763,12.5174691 69.1829249,12.7365268 69.5150434,13.0078191 C69.8256363,13.2640317 70.0801781,13.5814222 70.26283,13.9402412 C70.444339,14.3011635 70.5376274,14.7000002 70.5350308,15.1039849 C70.5367322,15.5227174 70.4405102,15.9360482 70.2540475,16.3109768 C70.0696452,16.6873936 69.8078459,17.0206356 69.4857779,17.2889005 C68.7807651,17.8726623 67.8925117,18.1891753 66.9772086,18.1827834 L66.9770641,18.1827834 Z" id="_Path_119"></path>
            <path d="M73.3981661,18.1827834 C73.2290783,18.1835771 73.066669,18.1168416 72.9469905,17.9973911 C72.8273123,17.8779405 72.7602675,17.7156587 72.760739,17.5465696 L72.760739,8.85402678 C72.7587574,8.68411503 72.8262922,8.52077234 72.9476856,8.40187068 C73.0656856,8.28029971 73.2287724,8.21303815 73.3981661,8.21607962 L78.7039728,8.21607962 C78.8731114,8.21537768 79.0354829,8.28245958 79.1548058,8.4023363 C79.2741286,8.52221302 79.3404581,8.68489313 79.3389732,8.85402678 C79.3421216,9.02268103 79.2752923,9.18511029 79.1543666,9.30271609 C79.0359313,9.42359067 78.8731845,9.49072497 78.7039728,9.48850715 L74.0349288,9.48850715 L74.0349288,12.5322622 L77.3399354,12.5322622 C77.6916256,12.5322622 77.9767269,12.8173635 77.9767269,13.1690538 C77.9767269,13.520744 77.6916256,13.8058453 77.3399354,13.8058453 L74.0349288,13.8058453 L74.0349288,16.9091714 L78.7039728,16.9091714 C78.8730987,16.9081807 79.0355505,16.9750905 79.1549199,17.0949052 C79.2742893,17.2147198 79.3405936,17.3774196 79.3389732,17.5465407 C79.3422346,17.7157158 79.2754246,17.8787152 79.1543666,17.9969346 C79.0359188,18.117794 78.8731831,18.1849343 78.7039728,18.1827545 L73.3981661,18.1827834 Z" id="_Path_120"></path>
            <path d="M87.7265252,18.1827834 C87.5574007,18.1833824 87.3949978,18.1166175 87.2751968,17.9972393 C87.1553958,17.8778611 87.0880569,17.7156952 87.088058,17.5465696 L87.088058,11.8802456 C87.0905402,11.5632953 87.026868,11.2493133 86.9011114,10.9583684 C86.6530039,10.3831128 86.1938576,9.92482467 85.618139,9.67779389 C85.0306747,9.42538366 84.3653153,9.42538366 83.7778513,9.67779389 C83.4949349,9.7990341 83.2384907,9.97448878 83.0229866,10.1942589 C82.8068013,10.4157536 82.6326217,10.6746544 82.5089194,10.9583684 C82.3845327,11.2497414 82.3209191,11.5634347 82.3219728,11.8802456 L82.3219728,17.5465407 C82.3224841,17.7157322 82.2553803,17.8781164 82.1355808,17.9975905 C82.0157812,18.1170646 81.8532151,18.1837262 81.6840256,18.1827545 C81.5154128,18.1847904 81.3532262,18.1181471 81.2347585,17.9981479 C81.1132576,17.8796804 81.0462131,17.7162048 81.0495452,17.5465407 L81.0495452,11.8802456 C81.0463959,10.4115197 81.9226774,9.08356206 83.2742711,8.50879226 C84.1840926,8.11790405 85.2146561,8.11853093 86.1240015,8.51052566 C86.5574667,8.6947664 86.9513977,8.96075475 87.2842783,9.29396245 C87.6175279,9.62783369 87.8840157,10.0222217 88.0694485,10.4559727 C88.2642974,10.9054109 88.3637631,11.3903927 88.3615545,11.8802456 L88.3615545,17.5465407 C88.3623094,17.7153101 88.2956774,17.8774014 88.1764441,17.9968462 C88.0572108,18.1162911 87.8952377,18.1832104 87.7264674,18.1827545 L87.7265252,18.1827834 Z" id="_Path_121"></path>
            <path d="M93.9828391,18.1827834 C93.5138431,18.1855817 93.0479917,18.1060852 92.6064656,17.9479084 C92.1926967,17.7996108 91.8088329,17.578404 91.4730564,17.2947651 C91.1535345,17.0244909 90.8916688,16.692681 90.7030534,16.3190948 C90.5171029,15.9460746 90.4208841,15.5347653 90.4220701,15.1179676 C90.4208917,14.9573788 90.4847514,14.8031481 90.5991075,14.6903968 C90.7726648,14.5163837 91.0339028,14.4639431 91.2611708,14.5574951 C91.4884388,14.6510471 91.6370558,14.872199 91.6378156,15.1179676 C91.6363746,15.3638837 91.6957945,15.6063367 91.8107795,15.8237194 C91.9306325,16.0499813 92.0963821,16.2487431 92.2974302,16.4072957 C92.5209119,16.581775 92.7723608,16.717097 93.0410856,16.8075078 C93.3398535,16.9068138 93.6528665,16.9565266 93.9677008,16.954673 C94.285201,16.9560443 94.6008401,16.906145 94.9024341,16.8069011 C95.1776227,16.7155203 95.4361077,16.5799695 95.6677569,16.4055623 C95.875196,16.2502331 96.0464083,16.0516863 96.1695458,15.8236616 C96.2825563,15.6107105 96.3326086,15.3699881 96.313851,15.1296391 C96.2953227,14.8997112 96.2215893,14.6776485 96.09891,14.4823027 C95.9653872,14.2692231 95.7959781,14.0808716 95.5981899,13.925594 C95.3815485,13.7545439 95.140515,13.616898 94.8831067,13.5172351 C94.6083463,13.4061787 94.3220893,13.3260174 94.0296119,13.2782288 C93.6095282,13.2491412 93.1948836,13.1664919 92.7957524,13.0322889 C92.4197677,12.9097826 92.0638552,12.7326197 91.7394503,12.5064924 C91.4441171,12.3024829 91.1921476,12.0419609 90.9981061,11.7399851 C90.8065975,11.4421447 90.7057205,11.0950916 90.7077336,10.7410006 C90.7080485,10.3874393 90.80112,10.040148 90.9776521,9.73381144 C91.1630107,9.41935642 91.4112201,9.14650105 91.7067758,8.93228957 C92.0291064,8.69836412 92.3868939,8.51769033 92.7664869,8.39716162 C93.6067279,8.13538014 94.5067222,8.13538014 95.3469632,8.39716162 C95.7270086,8.51794017 96.0853476,8.69858715 96.4084655,8.93228957 C96.7035858,9.14629556 96.9510762,9.41922555 97.135278,9.73381144 C97.314082,10.0393147 97.4080719,10.3870193 97.4075366,10.7410006 C97.4088312,10.9108045 97.3406429,11.0737548 97.2187988,11.19203 C97.1019734,11.3137357 96.9393688,11.3807276 96.7707161,11.3766366 C96.5980437,11.3800807 96.4327003,11.3069286 96.3191089,11.1768339 C96.2098762,11.057663 96.1473584,10.8941172 96.1350802,10.6937078 C96.124137,10.5379339 96.0672198,10.3889095 95.9715343,10.2655015 C95.8508794,10.1067597 95.7019253,9.97168426 95.5321765,9.86708063 C95.325407,9.73911499 95.100744,9.64263472 94.8655705,9.58081044 C94.6020852,9.5080296 94.3297966,9.47205758 94.0564506,9.47391774 C93.7756259,9.47300575 93.4958955,9.50894336 93.224421,9.58081044 C92.9896751,9.64062303 92.765736,9.73680571 92.5607329,9.86586725 C92.3912008,9.97491829 92.2453645,10.1169916 92.1319198,10.2836155 C92.0343886,10.4222131 91.9815941,10.5873316 91.9806234,10.7568034 C91.9806234,10.9139646 92.0408299,11.0541962 92.1605209,11.1885344 C92.3085898,11.3464984 92.4824918,11.4780778 92.6747614,11.5776238 C92.8978846,11.6965974 93.1321131,11.7934548 93.3740996,11.8668118 C93.60453,11.9391427 93.8406022,11.9920896 94.0798514,12.0250997 C94.5390177,12.0739056 94.9892277,12.1859817 95.4176857,12.3581427 C95.8163536,12.5170912 96.1883205,12.7361716 96.520645,13.0077614 C96.8295539,13.2640802 97.0831407,13.5805132 97.2660049,13.9378434 C97.4489364,14.2991753 97.5430254,14.6989356 97.5404591,15.1039271 C97.5420371,15.522576 97.4460399,15.9358334 97.2600825,16.310919 C97.0741276,16.6868393 96.8118875,17.0198911 96.4900795,17.2888427 C95.7853365,17.8723458 94.8975115,18.1888408 93.9825791,18.1827256 L93.9828391,18.1827834 Z" id="_Path_122"></path>
            <path d="M103.572096,18.1827834 C103.403007,18.1836005 103.240589,18.1168706 103.120915,17.9974134 C103.001241,17.8779561 102.934217,17.7156604 102.934727,17.5465696 L102.934727,14.3071432 L99.0147116,9.2430873 C98.9097609,9.11479766 98.8603354,8.94993538 98.8773978,8.78506655 C98.888062,8.61778092 98.9697028,8.46302506 99.1017569,8.35977807 C99.2170401,8.2653393 99.3616694,8.21409829 99.5106937,8.21489513 C99.7314993,8.23009123 99.8775957,8.3095385 99.9873773,8.44503222 L103.574465,13.0568742 L107.229271,8.44572557 C107.332617,8.31200042 107.488232,8.2288726 107.656842,8.21732189 L107.667329,8.21732189 C107.863058,8.21732189 107.998609,8.26522137 108.116018,8.35868025 C108.249867,8.46242759 108.333507,8.61801519 108.346213,8.78688661 C108.359059,8.95218028 108.308032,9.11610719 108.203641,9.24490737 L104.20883,14.3082988 L104.20883,17.5465985 C104.21227,17.7162827 104.145208,17.8797996 104.023617,17.9982057 C103.904386,18.1184444 103.741412,18.185067 103.572096,18.1827834 Z" id="_Path_123"></path>
            <path d="M113.141506,18.1827834 C112.671969,18.185511 112.20558,18.1060195 111.763457,17.9479084 C111.350305,17.7990528 110.966926,17.5778936 110.631232,17.2947651 C110.312011,17.024155 110.050383,16.6921958 109.861865,16.3185748 C109.675369,15.9459812 109.579473,15.5346214 109.581979,15.1179676 C109.581865,14.8724683 109.729867,14.6511509 109.956794,14.5574813 C110.183721,14.4638117 110.444741,14.5162956 110.617827,14.6903968 C110.732665,14.8028693 110.796788,14.9572318 110.795442,15.1179676 C110.79448,15.364194 110.853835,15.6069095 110.968319,15.8249039 C111.089935,16.0510075 111.256556,16.2498174 111.457917,16.4090869 C111.681242,16.5827139 111.932253,16.7174297 112.200388,16.8075655 C112.498727,16.9069169 112.811349,16.9566326 113.12579,16.9547308 C113.443474,16.9561567 113.759302,16.9062567 114.061072,16.8069589 C114.336402,16.7154723 114.595071,16.5799328 114.827001,16.4056201 C115.03396,16.2500925 115.204765,16.0515719 115.327664,15.8237194 C115.441853,15.6111691 115.492366,15.3702126 115.473153,15.1296969 C115.454013,14.9000629 115.380751,14.6782284 115.259368,14.4823605 C115.124531,14.269929 114.954875,14.0817267 114.757521,13.9256518 C114.540548,13.7550935 114.299591,13.6174913 114.042438,13.5172928 C113.767635,13.4069183 113.481636,13.3267777 113.189492,13.2782865 C112.769018,13.24937 112.353979,13.1667176 111.954506,13.0323467 C111.578396,12.909728 111.222318,12.7325749 110.897655,12.5065502 C110.602471,12.3025421 110.350681,12.0420131 110.156859,11.7400429 C109.965705,11.4421022 109.865237,11.0950394 109.867671,10.7410584 C109.866999,10.3875299 109.959681,10.0400909 110.136348,9.73386922 C110.321995,9.41962761 110.570155,9.14682664 110.865471,8.93234735 C111.187604,8.69809749 111.545446,8.5173962 111.925182,8.3972194 C112.76563,8.13543792 113.665818,8.13543792 114.506265,8.3972194 C114.885867,8.51739713 115.243395,8.69851302 115.56485,8.93347405 C115.861616,9.14634802 116.110584,9.41893304 116.295765,9.73372477 C116.473432,10.0396459 116.566957,10.3871439 116.566839,10.740914 C116.565915,11.0924871 116.280437,11.3768918 115.928863,11.3764922 C115.757186,11.3804011 115.5927,11.3075892 115.480173,11.177874 C115.369756,11.0587031 115.305476,10.8950995 115.292071,10.6935345 C115.282463,10.5378544 115.226266,10.38866 115.130779,10.2653281 C115.010752,10.1053889 114.860995,9.97010962 114.689716,9.86690729 C114.48342,9.73926239 114.259396,9.64279745 114.024902,9.5806371 C113.761399,9.5079405 113.489122,9.47197004 113.215782,9.4737444 C112.935162,9.4726131 112.655623,9.50855485 112.384417,9.5806371 C112.149639,9.64035704 111.925686,9.73654576 111.720728,9.86569391 C111.550272,9.97376971 111.404075,10.1160127 111.291367,10.2834421 C111.193568,10.4219099 111.140727,10.5871088 111.140012,10.7566301 C111.140012,10.9131845 111.197243,11.0540229 111.319968,11.188361 C111.467646,11.3464518 111.641335,11.4780544 111.833486,11.5774504 C112.056237,11.6963171 112.290053,11.7931717 112.531611,11.8666385 C112.762609,11.9390508 112.999264,11.9919983 113.239096,12.0249264 C113.698426,12.0738611 114.14881,12.185932 114.577508,12.3579693 C114.975697,12.5175696 115.347397,12.7365962 115.679947,13.007588 C115.99046,13.2637316 116.244825,13.5811469 116.427156,13.9400101 C116.608655,14.3009862 116.702345,14.699721 116.700599,15.1037538 C116.701765,15.5224921 116.605364,15.9357446 116.419038,16.3107456 C116.233454,16.6869163 115.971135,17.0200434 115.648977,17.2886693 C114.944124,17.8719393 114.056405,18.1884041 113.141535,18.1825523 L113.141506,18.1827834 Z" id="_Path_124"></path>
        </g>
    </g>
</svg>