<?xml version="1.0" encoding="UTF-8"?>
<svg width="65px" height="80px" viewBox="0 0 65 80" version="1.1" xmlns="http://www.w3.org/2000/svg" xmlns:xlink="http://www.w3.org/1999/xlink">
    <!-- Generator: Sketch 52.5 (67469) - http://www.bohemiancoding.com/sketch -->
    <title>danone-logo-colour</title>
    <desc>Created with Sketch.</desc>
    <g id="Page-1" stroke="none" stroke-width="1" fill="none" fill-rule="evenodd">
        <g id="Artboard" transform="translate(-4801.000000, -2005.000000)" fill="#FFFFFF">
            <g id="danone-logo-colour" transform="translate(4801.000000, 2005.000000)">
                <path d="M14.82,15.586 L12.278,14.391 L13.923,17.83 L11.979,22.017 L14.671,20.521 L17.96,24.857 L17.362,19.475 L20.503,17.829 L17.362,16.484 L17.81,11.848 L14.82,15.586 Z M24.446,56.818 C12.182,53.503 3.257,42.318 3.257,29.006 C3.257,13.083 16.167,0.173 32.09,0.173 C48.014,0.173 60.923,13.084 60.923,29.006 C60.923,36.691 57.916,43.674 53.014,48.841 C53.014,48.841 51.007,46.238 50.408,45.343 C49.81,44.446 48.913,44.333 49.062,43.1 C49.244,41.608 50.408,40.108 50.408,40.108 L50.708,41.305 C50.708,41.305 59.104,32.48 58.184,26.501 C57.586,22.614 55.194,22.165 55.194,22.165 C55.194,22.165 55.793,18.576 50.259,15.884 C44.727,13.194 40.54,13.642 40.54,13.642 L42.932,15.436 C42.932,15.436 40.053,14.921 38.596,15.287 C37.4,15.585 37.4,15.585 37.4,15.585 L38.951,16.334 C38.951,16.334 35.792,16.476 33.662,18.128 C31.997,19.419 31.868,20.221 31.868,20.221 L33.065,20.221 C33.065,20.221 32.018,22.015 31.719,23.809 C31.42,25.604 31.551,26.09 31.551,26.09 C31.551,26.09 31.551,26.931 30.037,28.052 C28.929,28.873 27.85,29.061 27.514,29.51 C27.007,30.188 28.579,31.285 28.579,31.285 C28.579,31.285 28.467,32.09 27.738,32.986 C27.405,33.396 28.579,34.107 28.972,34.276 L28.019,35.061 C28.019,35.061 27.682,35.396 28.243,35.79 C28.805,36.182 28.579,37.024 28.356,37.92 C28.131,38.818 27.683,40.219 30.71,40.556 C33.738,40.892 33.907,41.452 34.187,41.845 C34.468,42.238 36.206,47.172 35.309,47.957 C34.077,49.035 31.909,48.718 27.739,51.546 C24.595,53.68 24.446,56.818 24.446,56.818 Z" id="Shape"></path>
                <path d="M34.073,24.913 C34.073,24.913 35.08,26.428 35.474,26.707 C35.867,26.988 35.978,27.38 35.698,27.436 C35.417,27.492 33.454,27.436 33.454,27.436 L33.567,27.099 C33.567,27.099 33.399,26.651 33.567,26.202 C33.735,25.753 34.184,25.585 34.184,25.585 L34.073,24.913 Z" id="Path"></path>
                <path d="M0,67.883 L4.353,67.883 C7.676,67.883 8.362,71.026 8.362,73.1 C8.362,75.451 7.524,78.838 4.27,78.838 L0,78.838 L0,67.883 Z M2.018,76.946 L4.023,76.946 C5.698,76.946 6.261,75.068 6.261,73.268 C6.261,70.034 4.874,69.775 3.996,69.775 L2.018,69.775 L2.018,76.946 Z" id="Shape"></path>
                <path d="M12.048,78.838 L9.879,78.838 L13.394,67.883 L15.769,67.883 L19.244,78.838 L17.005,78.838 L16.372,76.579 L12.734,76.579 L12.048,78.838 Z M13.284,74.688 L15.797,74.688 L14.575,70.355 L14.548,70.355 L13.284,74.688 Z" id="Shape"></path>
                <polygon id="Path" points="28 67.883 29.923 67.883 29.923 78.838 27.863 78.838 23.841 71.025 23.812 71.025 23.812 78.838 21.89 78.838 21.89 67.883 24.06 67.883 27.973 75.512 28 75.512"></polygon>
                <path d="M38.114,67.506 C39.551,67.506 43.336,68.144 43.336,73.39 C43.336,78.633 39.551,79.273 38.114,79.273 C36.676,79.273 32.891,78.633 32.891,73.39 C32.891,68.144 36.676,67.506 38.114,67.506 Z M38.114,77.296 C39.34,77.296 41.064,76.519 41.064,73.39 C41.064,70.261 39.34,69.484 38.114,69.484 C36.887,69.484 35.161,70.261 35.161,73.39 C35.161,76.519 36.888,77.296 38.114,77.296 Z" id="Shape"></path>
                <polygon id="Path" points="52.521 67.883 54.442 67.883 54.442 78.838 52.385 78.838 48.36 71.025 48.334 71.025 48.334 78.838 46.411 78.838 46.411 67.883 48.581 67.883 52.494 75.512 52.521 75.512"></polygon>
                <polygon id="Path" points="63.918 69.82 60.052 69.82 60.052 72.124 63.493 72.124 63.493 74.062 60.052 74.062 60.052 76.899 64.152 76.899 64.152 78.838 58.034 78.838 58.034 67.883 63.918 67.883"></polygon>
            </g>
        </g>
    </g>
</svg>