<?xml version="1.0" encoding="utf-8"?>
<!-- Generator: Adobe Illustrator 15.0.0, SVG Export Plug-In . SVG Version: 6.00 Build 0)  -->
<!DOCTYPE svg PUBLIC "-//W3C//DTD SVG 1.1//EN" "http://www.w3.org/Graphics/SVG/1.1/DTD/svg11.dtd">
<svg version="1.1" id="Layer_1" xmlns="http://www.w3.org/2000/svg" xmlns:xlink="http://www.w3.org/1999/xlink" x="0px" y="0px"
	 width="85.04px" height="85.04px" viewBox="0 0 85.04 85.04" enable-background="new 0 0 85.04 85.04" xml:space="preserve">
<g>
	<path fill-rule="evenodd" clip-rule="evenodd" fill="#283375" d="M18.82,19.586l-2.542-1.195l1.645,3.439l-1.944,4.187l2.692-1.496
		l3.289,4.336l-0.598-5.382l3.141-1.646l-3.141-1.345l0.448-4.636L18.82,19.586L18.82,19.586z M28.446,60.818
		c-12.264-3.315-21.189-14.5-21.189-27.812c0-15.923,12.91-28.833,28.833-28.833c15.924,0,28.833,12.911,28.833,28.833
		c0,7.685-3.007,14.668-7.909,19.835c0,0-2.007-2.603-2.606-3.498c-0.598-0.897-1.495-1.01-1.346-2.243
		c0.182-1.492,1.346-2.992,1.346-2.992l0.3,1.197c0,0,8.396-8.825,7.476-14.804c-0.598-3.887-2.99-4.336-2.99-4.336
		s0.599-3.589-4.935-6.281c-5.532-2.69-9.719-2.242-9.719-2.242l2.392,1.794c0,0-2.879-0.515-4.336-0.149
		c-1.196,0.298-1.196,0.298-1.196,0.298l1.551,0.749c0,0-3.159,0.142-5.289,1.794c-1.665,1.291-1.794,2.093-1.794,2.093h1.197
		c0,0-1.047,1.794-1.346,3.588c-0.299,1.795-0.168,2.281-0.168,2.281s0,0.841-1.514,1.962c-1.108,0.821-2.187,1.009-2.523,1.458
		c-0.507,0.678,1.065,1.775,1.065,1.775s-0.112,0.805-0.841,1.701c-0.333,0.41,0.841,1.121,1.234,1.29l-0.953,0.785
		c0,0-0.337,0.335,0.224,0.729c0.562,0.392,0.336,1.234,0.113,2.13c-0.225,0.898-0.673,2.299,2.354,2.636
		c3.028,0.336,3.197,0.896,3.477,1.289c0.281,0.393,2.019,5.327,1.122,6.112c-1.232,1.078-3.4,0.761-7.57,3.589
		C28.595,57.68,28.446,60.818,28.446,60.818L28.446,60.818z"/>
	<path fill-rule="evenodd" clip-rule="evenodd" fill="#283375" d="M38.073,28.913c0,0,1.007,1.515,1.401,1.794
		c0.393,0.281,0.504,0.673,0.224,0.729c-0.281,0.056-2.244,0-2.244,0l0.113-0.337c0,0-0.168-0.448,0-0.897
		c0.168-0.449,0.617-0.617,0.617-0.617L38.073,28.913L38.073,28.913z"/>
	<path fill-rule="evenodd" clip-rule="evenodd" fill="#283375" d="M4,71.883h4.353c3.323,0,4.009,3.143,4.009,5.217
		c0,2.351-0.838,5.738-4.092,5.738H4V71.883L4,71.883z M6.018,80.946h2.005c1.675,0,2.238-1.878,2.238-3.678
		c0-3.234-1.387-3.493-2.265-3.493H6.018V80.946L6.018,80.946z"/>
	<path fill-rule="evenodd" clip-rule="evenodd" fill="#283375" d="M16.048,82.838h-2.169l3.515-10.955h2.375l3.475,10.955h-2.239
		l-0.633-2.259h-3.638L16.048,82.838L16.048,82.838z M17.284,78.688h2.513l-1.222-4.333h-0.027L17.284,78.688L17.284,78.688z"/>
	<polygon fill-rule="evenodd" clip-rule="evenodd" fill="#283375" points="32,71.883 33.923,71.883 33.923,82.838 31.863,82.838 
		27.841,75.025 27.812,75.025 27.812,82.838 25.89,82.838 25.89,71.883 28.06,71.883 31.973,79.512 32,79.512 32,71.883 	"/>
	<path fill-rule="evenodd" clip-rule="evenodd" fill="#283375" d="M42.114,71.506c1.437,0,5.222,0.638,5.222,5.884
		c0,5.243-3.785,5.883-5.222,5.883c-1.438,0-5.223-0.64-5.223-5.883C36.891,72.144,40.676,71.506,42.114,71.506L42.114,71.506z
		 M42.114,81.296c1.226,0,2.95-0.777,2.95-3.906s-1.724-3.906-2.95-3.906c-1.227,0-2.953,0.777-2.953,3.906
		S40.888,81.296,42.114,81.296L42.114,81.296z"/>
	<polygon fill-rule="evenodd" clip-rule="evenodd" fill="#283375" points="56.521,71.883 58.442,71.883 58.442,82.838 
		56.385,82.838 52.36,75.025 52.334,75.025 52.334,82.838 50.411,82.838 50.411,71.883 52.581,71.883 56.494,79.512 56.521,79.512 
		56.521,71.883 	"/>
	<polygon fill-rule="evenodd" clip-rule="evenodd" fill="#283375" points="67.918,73.82 64.052,73.82 64.052,76.124 67.493,76.124 
		67.493,78.062 64.052,78.062 64.052,80.899 68.152,80.899 68.152,82.838 62.034,82.838 62.034,71.883 67.918,71.883 67.918,73.82 	
		"/>
</g>
</svg>
