<?xml version="1.0" encoding="utf-8"?>
<!-- Generator: Adobe Illustrator 15.0.0, SVG Export Plug-In . SVG Version: 6.00 Build 0)  -->
<!DOCTYPE svg PUBLIC "-//W3C//DTD SVG 1.1//EN" "http://www.w3.org/Graphics/SVG/1.1/DTD/svg11.dtd">
<svg version="1.1" xmlns="http://www.w3.org/2000/svg" xmlns:xlink="http://www.w3.org/1999/xlink" x="0px" y="0px"
	 width="126.972px" height="66px" viewBox="0 0 126.972 66" enable-background="new 0 0 126.972 66" xml:space="preserve">
<g id="fondo">
</g>
<g id="info">
</g>
<g id="Livello_1">
	<path fill="none" d="M18.566,45.107c-1.604-0.65-2.051-1.973-2.051-3.035c0,0-0.102-4.123-0.102-8.649
		c0-4.496,0.102-10.393,0.102-10.393c0-1.057,0.447-2.382,2.051-3.029c10.182-4.15,27.318-8.098,46.734-8.098
		c19.41,0,36.55,3.947,46.722,8.098c1.605,0.647,2.055,1.973,2.055,3.029c0,0,0.105,5.896,0.105,10.393
		c0,4.526-0.105,8.649-0.105,8.649c0,1.062-0.449,2.385-2.055,3.035c-10.172,4.143-27.312,9.857-46.722,9.857
		C45.885,54.964,28.748,49.25,18.566,45.107z"/>
	<defs>
		<filter id="Adobe_OpacityMaskFilter" filterUnits="userSpaceOnUse" x="23.51" y="21.872" width="86.333" height="18.249">
			<feColorMatrix  type="matrix" values="1 0 0 0 0  0 1 0 0 0  0 0 1 0 0  0 0 0 1 0"/>
		</filter>
	</defs>
	<mask maskUnits="userSpaceOnUse" x="23.51" y="21.872" width="86.333" height="18.249" id="SVGID_1_">
		<g filter="url(#Adobe_OpacityMaskFilter)">
			<g>
				<g>
					<defs>
						<rect id="SVGID_2_" x="23.51" y="21.872" width="86.333" height="18.249"/>
					</defs>
					<clipPath id="SVGID_3_">
						<use xlink:href="#SVGID_2_"  overflow="visible"/>
					</clipPath>
					<g>
						<defs>
							<rect id="SVGID_4_" x="23.51" y="21.872" width="86.333" height="18.249"/>
						</defs>
						<clipPath id="SVGID_5_" clip-path="url(#SVGID_3_)">
							<use xlink:href="#SVGID_4_"  overflow="visible"/>
						</clipPath>
						<g transform="matrix(1 0 0 1 -1.907349e-06 0)" clip-path="url(#SVGID_5_)">
							
								<image overflow="visible" width="1476" height="312" xlink:href="495B01A2.jpg"  transform="matrix(0.0585 0 0 0.0585 23.5098 21.8721)">
							</image>
						</g>
					</g>
				</g>
			</g>
		</g>
	</mask>
	<g mask="url(#SVGID_1_)">
		<polyline fill="#0054A4" points="23.51,21.872 109.843,21.872 109.843,40.121 23.51,40.121 23.51,21.872 		"/>
	</g>
	<g>
		<path fill="#FFFFFF" stroke="#FFFFFF" d="M64.1,37.693h-2.848c-0.006,0.01-0.012,0.01-0.012,0.01
			c-1.199-4.213-3.926-7.772-6.623-10.104v10.094h-3.189V22.967h2.668c0.932,0.63,2.275,1.843,3.518,3.104
			c1.152,1.168,2.275,2.523,3.301,4.077v-7.182H64.1V37.693z M93.253,22.967h-3.176v7.182c-1.039-1.554-2.16-2.909-3.312-4.077
			c-1.25-1.262-2.586-2.475-3.516-3.104h-2.676v14.726h3.199V27.599c2.695,2.332,5.426,5.891,6.617,10.104c0,0,0.008,0,0.02-0.01
			h2.844V22.967z M104.355,34.185l3.043,0.721c-2.09,2.943-4.699,3.262-6.137,3.355c-2.109,0.137-3.887-0.559-5.102-1.77
			c-1.48-1.469-2.09-3.702-2.07-6.159c0.027-2.411,0.809-4.514,2.203-5.916c1.215-1.219,2.863-1.911,4.766-1.911
			c1.508,0,3.68,0.244,5.176,2.264c1.258,1.695,1.484,3.44,1.504,5.028c0.004,0.604-0.082,1.28-0.152,1.724l-10.34,0.015v0.006
			c0.199,1.627,1.305,3.762,3.809,3.858C102.089,35.447,103.312,35.267,104.355,34.185z M97.296,29.007h0.434l6.598-0.004h0.395
			l-0.016-0.321c-0.035-0.522-0.215-1.638-1.121-2.489c-0.645-0.605-1.652-0.91-2.445-0.91c-1.238,0-3.312,0.889-3.777,3.373
			L97.296,29.007z M72.343,22.458c-4.109,0-7.448,3.527-7.448,7.875c0,4.342,3.339,7.872,7.448,7.872
			c4.122,0,7.454-3.529,7.454-7.872C79.796,25.985,76.464,22.458,72.343,22.458z M76.847,30.333c0,2.75-2.02,4.983-4.504,4.983
			s-4.496-2.233-4.496-4.983c0-2.754,2.012-4.985,4.496-4.985S76.847,27.579,76.847,30.333z M37.158,30.085
			c-0.117,6.708-6.02,8.112-9.287,8.129c-1.713,0.012-3.396-0.223-3.783-0.365c0.057-0.494,0.166-1.998,0.166-7.506
			c0-5.502-0.07-6.89-0.24-7.48c0.619-0.12,2.355-0.357,4.375-0.357C31.176,22.505,37.279,23.249,37.158,30.085z M34.104,30.314
			c0-4.364-3.871-5.008-5.479-4.996c-0.439,0.007-0.854,0.017-1.203,0.034v9.995c0.275,0.027,0.592,0.047,0.938,0.047
			C30.326,35.41,34.104,34.687,34.104,30.314z M50.809,37.693h-3.338c-0.09-1.08-0.225-2.154-0.426-3.221H40.26
			c-0.195,1.066-0.332,2.141-0.416,3.221h-3.236c0.467-5.364,2.186-11.065,5.561-14.726h3.113
			C48.662,26.628,50.342,32.329,50.809,37.693z M46.404,31.765c-0.635-2.197-1.547-4.275-2.76-6.115
			c-1.213,1.84-2.123,3.918-2.756,6.115H46.404z"/>
		<path fill="#FFFFFF" stroke="#FFFFFF" d="M65.123,51.794c-16.168,0-28.805-9.205-27.436-10.568
			c1.252-1.252,10.922,6.314,27.436,6.314c16.509,0,26.181-7.566,27.427-6.314C93.914,42.589,81.281,51.794,65.123,51.794z"/>
		<path fill="#FFFFFF" stroke="#FFFFFF" d="M65.297,57.98c-21.16,0-38.186-7.461-47.277-11.434
			c-2.322-1.021-3.037-1.891-3.037-3.992c0,0-0.316-4.605-0.316-9.136c0-4.495,0.316-10.745,0.316-10.745
			c0-2.108,0.715-3.264,3.037-4.277c9.092-3.971,26.117-9.518,47.277-9.518c21.152,0,38.179,5.547,47.265,9.518
			c2.328,1.014,3.043,2.169,3.043,4.277c0,0,0.309,6.25,0.309,10.745c0,4.531-0.309,9.136-0.309,9.136
			c0,2.102-0.715,2.971-3.043,3.992C103.476,50.519,86.449,57.98,65.297,57.98z M65.297,54.962c19.414,0,36.546-5.717,46.726-9.857
			c1.602-0.65,2.047-1.973,2.047-3.035c0,0,0.105-4.121,0.105-8.652c0-4.495-0.105-10.392-0.105-10.392
			c0-1.055-0.445-2.378-2.047-3.027c-10.18-4.15-27.312-8.102-46.726-8.102c-19.416,0-36.551,3.951-46.734,8.102
			c-1.602,0.649-2.049,1.973-2.049,3.027c0,0-0.102,5.896-0.102,10.392c0,4.531,0.102,8.652,0.102,8.652
			c0,1.062,0.447,2.385,2.049,3.035C28.746,49.246,45.881,54.962,65.297,54.962z"/>
	</g>
</g>
</svg>
