<?xml version="1.0" encoding="utf-8"?>
<!-- Generator: Adobe Illustrator 15.0.0, SVG Export Plug-In . SVG Version: 6.00 Build 0)  -->
<!DOCTYPE svg PUBLIC "-//W3C//DTD SVG 1.1//EN" "http://www.w3.org/Graphics/SVG/1.1/DTD/svg11.dtd">
<svg version="1.1" id="Layer_1" xmlns="http://www.w3.org/2000/svg" xmlns:xlink="http://www.w3.org/1999/xlink" x="0px" y="0px"
	 width="180.28px" height="80.89px" viewBox="0 0 180.28 80.89" enable-background="new 0 0 180.28 80.89" xml:space="preserve">
<path fill="#050606" d="M48.244,55.5h-2.372v-2.91c-0.763,0.898-3,3.361-7.031,3.361c-4.032,0-6.942-2.689-6.942-6.273
	c0-3.582,2.688-6.046,8.283-6.271l5.69-0.224v-1.121c0-3.807-2.555-5.686-5.82-5.686c-3.226,0-5.688,1.433-6.138,1.791l-0.896-1.701
	c1.347-0.898,3.808-2.107,6.942-2.107c3.138,0,5.019,0.987,6.269,2.331c1.211,1.343,2.016,2.911,2.016,6.494V55.5z M45.872,44.975
	l-5.913,0.357c-4.344,0.227-5.732,2.105-5.732,4.346s1.703,4.256,5.063,4.256c3.356,0,5.595-2.24,6.581-3.809V44.975z"/>
<path fill="#050606" d="M62.569,55.277c0,0-1.125,0.674-3.141,0.674s-3.179-0.854-3.938-2.242c-0.715-1.389-0.76-2.912-0.76-6.271
	V36.914h-3.136v-2.107h3.136v-6.628h2.372v6.628h5.24v2.107h-5.285v11.914c0,2.283,0.27,5.014,3.046,5.014
	c1.341,0,2.238-0.58,2.238-0.58L62.569,55.277z"/>
<path fill="#050606" d="M81.159,55.5h-2.371v-2.91c-0.766,0.898-3.003,3.361-7.034,3.361c-4.029,0-6.943-2.689-6.943-6.273
	c0-3.582,2.686-6.046,8.285-6.271l5.691-0.224v-1.121c0-3.807-2.556-5.686-5.822-5.686c-3.228,0-5.691,1.433-6.139,1.791
	l-0.896-1.701c1.343-0.898,3.806-2.107,6.943-2.107c3.135,0,5.018,0.987,6.267,2.331c1.213,1.343,2.018,2.911,2.018,6.494V55.5z
	 M78.788,44.975l-5.914,0.357c-4.344,0.227-5.732,2.105-5.732,4.346s1.704,4.256,5.061,4.256c3.36,0,5.598-2.24,6.585-3.809V44.975z
	"/>
<path fill="#050606" d="M100.271,53.824c-1.508,1.174-3.558,1.799-6.317,1.799c-3.096,0-6.357-0.963-8.704-3.18l2.511-3.975
	c1.673,1.422,4.438,2.512,6.107,2.512c1.677,0,2.845-0.42,2.845-1.758s-3.011-2.008-3.763-2.26c-0.794-0.207-1.968-0.543-2.93-0.961
	s-3.513-1.716-3.513-5.398c0-4.016,3.513-6.484,7.82-6.484c4.31,0,6.737,1.589,7.911,2.552l-2.178,3.932
	c-1.172-0.92-3.515-2.008-5.187-2.008c-1.593,0-2.469,0.42-2.469,1.508c0,1.087,1.589,1.588,3.013,2.006
	c1.421,0.418,2.048,0.629,2.927,0.962c0.922,0.335,1.969,0.879,2.678,1.55c0.672,0.67,1.675,2.008,1.675,4.184
	C102.699,50.938,101.776,52.613,100.271,53.824"/>
<path fill="#050606" d="M125.777,46.461h-14.684c0.293,2.973,2.55,4.311,5.268,4.311c2.68,0,5.024-1.172,6.193-1.967l2.638,3.473
	c-0.669,0.502-3.391,3.346-9.79,3.346c-6.361,0-11.002-3.932-11.002-10.75c0-6.82,5.021-10.71,11.13-10.71
	c6.107,0,10.332,4.057,10.332,10.081C125.862,45.25,125.777,46.461,125.777,46.461 M119.626,42.654
	c-0.04-1.882-1.419-4.142-4.224-4.142c-2.764,0-4.182,2.175-4.269,4.142H119.626z"/>
<path fill="#050606" d="M149.555,46.461h-14.684c0.292,2.973,2.552,4.311,5.271,4.311c2.677,0,5.019-1.172,6.191-1.967l2.636,3.473
	c-0.669,0.502-3.39,3.346-9.791,3.346c-6.359,0-11-3.932-11-10.75c0-6.82,5.022-10.71,11.127-10.71
	c6.109,0,10.334,4.057,10.334,10.081C149.64,45.25,149.555,46.461,149.555,46.461 M143.404,42.654
	c-0.04-1.882-1.42-4.142-4.226-4.142c-2.76,0-4.182,2.175-4.268,4.142H143.404z"/>
<path fill="#050606" d="M167.929,26.335v9.353c-1.303-0.974-3.509-1.544-5.533-1.544c-5.931,0-10.741,4.808-10.741,10.741
	c0,5.932,4.812,10.74,10.743,10.74c2.024,0,4.229-0.568,5.531-1.543v1.535h6.507V26.335H167.929z M162.391,49.77
	c-2.692,0-4.882-2.191-4.882-4.885S159.698,40,162.391,40c2.695,0,4.887,2.191,4.887,4.885S165.086,49.77,162.391,49.77"/>
<path fill="#050606" d="M25.424,26.335v11.664c-1.952-2.344-4.903-3.836-8.195-3.836c-5.889,0-10.665,4.774-10.665,10.664
	c0,5.889,4.777,10.662,10.666,10.662c3.292,0,6.241-1.492,8.193-3.834v3.963h2.603V26.335H25.424z M17.229,53.375
	c-4.713,0-8.55-3.834-8.55-8.549c0-4.714,3.839-8.549,8.552-8.549c3.865,0,6.892,2.579,8.193,6.104v4.889
	C24.123,50.797,21.094,53.375,17.229,53.375"/>
</svg>
