<?xml version="1.0" encoding="UTF-8"?>
<svg width="691px" height="181px" viewBox="0 0 691 181" version="1.1" xmlns="http://www.w3.org/2000/svg" xmlns:xlink="http://www.w3.org/1999/xlink">
    <!-- Generator: Sketch 52.5 (67469) - http://www.bohemiancoding.com/sketch -->
    <title>Group 10</title>
    <desc>Created with Sketch.</desc>
    <defs>
        <path d="M136.05,35.577 L77.27,1.657 C73.4567502,-0.551749174 68.7532498,-0.551749174 64.94,1.657 L6.15,35.577 C2.34320138,37.7914864 0.000872532236,41.862949 1.0658141e-14,46.267 L1.0658141e-14,114.157 C0.00335849977,118.55253 2.34644983,122.613888 6.15,124.817 L35.56,141.817 L35.56,176.477 C35.5650913,177.796328 36.2723184,179.013129 37.4161723,179.670587 C38.5600262,180.328046 39.9674253,180.326679 41.11,179.667 L136.11,124.847 C139.918075,122.648408 142.262819,118.584184 142.26,114.187 L142.26,46.257 C142.237026,41.8458396 139.872315,37.7789929 136.05,35.577 Z" id="path-1"></path>
    </defs>
    <g id="Loqativ" stroke="none" stroke-width="1" fill="none" fill-rule="evenodd">
        <g id="Group-10">
            <g id="Clipped" transform="translate(0.000000, 0.531859)">
                <mask id="mask-2" fill="white">
                    <use xlink:href="#path-1"></use>
                </mask>
                <g id="Path"></g>
                <g id="Group" mask="url(#mask-2)">
                    <g transform="translate(0.000000, -2.000000)">
                        <polygon id="Path" fill="#1B1B1B" points="142.2 41.157 71.12 82.207 -1.42108547e-14 41.157 -1.42108547e-14 123.257 35.56 143.767 35.56 184.827 142.2 123.257"></polygon>
                        <g id="Group" stroke-width="1" fill="none">
                            <path d="M29.2528076,58.0415297 L71.1,82.2071434 L71.1,82.717 L2.13162821e-14,41.6785439 L0.443040061,41.4127198 L2.84217094e-14,41.157 L0.45,40.887 L0.458889601,40.8921319 L71.12,0.107 L140.507878,40.1797686 L140.53,40.167 L142.2,41.157 L71.12,82.207 L29.2528076,58.0415297 Z" id="Combined-Shape" fill="#595959"></path>
                        </g>
                    </g>
                </g>
            </g>
            <path d="M672.33,121.621859 L661.73,121.621859 L647.97,79.2118591 L634.32,121.621859 L623.83,121.621859 L606.01,66.3618591 L616.84,66.3618591 L629.13,108.091859 L629.24,108.091859 L642.89,66.3618591 L653.59,66.3618591 L667.24,108.091859 L667.35,108.091859 L679.59,66.3618591 L690.19,66.3618591 L672.33,121.621859 Z M555.7,72.9618591 C561.033333,67.3618591 567.836667,64.5618591 576.11,64.5618591 C584.383333,64.5618591 591.186667,67.3618591 596.52,72.9618591 C601.853333,78.5618591 604.52,85.5618591 604.52,93.9618591 C604.52,102.361859 601.853333,109.361859 596.52,114.961859 C591.186667,120.561859 584.383333,123.361859 576.11,123.361859 C567.836667,123.361859 561.033333,120.561859 555.7,114.961859 C550.366667,109.361859 547.7,102.361859 547.7,93.9618591 C547.7,85.5618591 550.366667,78.5618591 555.7,72.9618591 Z M563.43,108.491859 C566.726679,111.984575 571.317172,113.964113 576.12,113.964113 C580.922828,113.964113 585.513321,111.984575 588.81,108.491859 C592.376667,104.845192 594.163333,100.015192 594.17,94.0018591 C594.176667,87.9885258 592.39,83.1585258 588.81,79.5118591 C585.513321,76.0191434 580.922828,74.0396051 576.12,74.0396051 C571.317172,74.0396051 566.726679,76.0191434 563.43,79.5118591 C559.856667,83.1585258 558.07,87.9885258 558.07,94.0018591 C558.07,100.015192 559.853333,104.845192 563.42,108.491859 L563.43,108.491859 Z M539.78,121.621859 L529.41,121.621859 L529.41,40.8918591 L539.79,40.8918591 L539.78,121.621859 Z M513.28,40.1918591 C516.120247,40.1113251 518.947297,40.608015 521.59,41.6518591 L517.98,50.5618591 C516.489652,49.9032094 514.868044,49.5953093 513.24,49.6618591 C510.79067,49.5699147 508.402999,50.442402 506.59,52.0918591 C504.856667,53.7118591 503.993333,56.0451924 504,59.0918591 L504,66.0918591 L518.44,66.0918591 L518.44,75.5618591 L504.03,75.5618591 L504.03,121.391859 L493.65,121.391859 L493.65,75.6018591 L483.28,75.6018591 L483.28,66.1318591 L493.66,66.1318591 L493.66,58.8018591 C493.66,53.1618591 495.463333,48.6518591 499.07,45.2718591 C502.676667,41.8918591 507.413333,40.1985258 513.28,40.1918591 Z M446.95,147.561859 C440.41,147.561859 435.076667,145.925192 430.95,142.651859 C427.08258,139.721815 424.01781,135.862476 422.04,131.431859 L431.51,127.481859 C432.606642,130.548407 434.638999,133.19292 437.32,135.041859 C440.127931,137.050851 443.507925,138.102716 446.96,138.041859 C452.673333,138.041859 457.166667,136.331859 460.44,132.911859 C463.713333,129.491859 465.35,124.848526 465.35,118.981859 L465.35,113.681859 L464.9,113.681859 C462.936171,116.532454 460.302385,118.857191 457.23,120.451859 C453.79697,122.288454 449.952977,123.221061 446.06,123.161859 C438.913333,123.161859 432.746667,120.341859 427.56,114.701859 C422.373333,109.061859 419.78,102.061859 419.78,93.7018591 C419.78,85.3551924 422.373333,78.3551924 427.56,72.7018591 C432.746667,67.0485258 438.913333,64.2285258 446.06,64.2418591 C449.952682,64.1852898 453.796026,65.1177393 457.23,66.9518591 C460.302385,68.5465271 462.936171,70.8712641 464.9,73.7218591 L465.35,73.7218591 L465.35,66.0518591 L475.27,66.0518591 L475.27,118.491859 C475.27,127.965192 472.526667,135.165192 467.04,140.091859 C461.542995,145.056044 454.354886,147.728776 446.95,147.561859 Z M447.74,113.731859 C452.476396,113.795908 457.012954,111.826183 460.2,108.321859 C463.62,104.715192 465.33,99.8651924 465.33,93.7718591 C465.33,87.6785258 463.62,82.8285258 460.2,79.2218591 C456.986917,75.7609599 452.47433,73.7993797 447.751873,73.8107728 C443.029417,73.822166 438.526347,75.8054969 435.33,79.2818591 C431.87,82.9285258 430.14,87.7585258 430.14,93.7718591 C430.14,99.7851924 431.87,104.615192 435.33,108.261859 C438.493324,111.77584 443.012114,113.763962 447.74,113.721859 L447.74,113.731859 Z M363.59,72.7218591 C368.923333,67.1218591 375.726667,64.3218591 384,64.3218591 C392.273333,64.3218591 399.076667,67.1218591 404.41,72.7218591 C409.743333,78.3218591 412.41,85.3218591 412.41,93.7218591 C412.41,102.121859 409.743333,109.121859 404.41,114.721859 C399.076667,120.321859 392.273333,123.121859 384,123.121859 C375.726667,123.121859 368.923333,120.345192 363.59,114.791859 C358.256667,109.191859 355.59,102.191859 355.59,93.7918591 C355.59,85.3918591 358.256667,78.3685258 363.59,72.7218591 Z M371.32,108.251859 C374.616679,111.744575 379.207172,113.724113 384.01,113.724113 C388.812828,113.724113 393.403321,111.744575 396.7,108.251859 C400.266667,104.605192 402.053333,99.7751924 402.06,93.7618591 C402.066667,87.7485258 400.28,82.9185258 396.7,79.2718591 C393.403321,75.7791434 388.812828,73.7996051 384.01,73.7996051 C379.207172,73.7996051 374.616679,75.7791434 371.32,79.2718591 C367.746667,82.9185258 365.96,87.7485258 365.96,93.7618591 C365.96,99.7751924 367.753333,104.605192 371.34,108.251859 L371.32,108.251859 Z M346.7,121.391859 L336.33,121.391859 L336.33,40.6418591 L346.71,40.6418591 L346.7,121.391859 Z M299.06,123.191859 C293.69554,123.366578 288.454877,121.55798 284.34,118.111859 C280.414962,114.781674 278.23322,109.835901 278.42,104.691859 C278.215855,99.0961147 280.848229,93.7749592 285.42,90.5418591 C290.086667,87.1218591 295.836667,85.4118591 302.67,85.4118591 C308.763333,85.4118591 313.763333,86.5385258 317.67,88.7918591 L317.67,87.2118591 C317.820095,83.4966715 316.288351,79.9115835 313.5,77.4518591 C310.660967,74.9856426 306.999133,73.6758053 303.24,73.7818591 C300.370164,73.7438379 297.543548,74.4833194 295.06,75.9218591 C292.741503,77.2086908 290.965879,79.2897219 290.06,81.7818591 L280.59,77.7418591 C281.87,74.4085258 284.39,71.3451924 288.15,68.5518591 C291.91,65.7585258 296.873333,64.3485258 303.04,64.3218591 C310.106667,64.3218591 315.97,66.3885258 320.63,70.5218591 C325.29,74.6551924 327.623333,80.4818591 327.63,88.0018591 L327.63,121.391859 L317.71,121.391859 L317.71,113.721859 L317.26,113.721859 C313.1,120.035192 307.033333,123.191859 299.06,123.191859 Z M300.75,113.721859 C305.121499,113.683143 309.307919,111.951943 312.43,108.891859 C315.752961,106.065832 317.668501,101.924025 317.67,97.5618591 C314.736667,95.1551924 310.336667,93.9518591 304.47,93.9518591 C299.43,93.9518591 295.633333,95.0418591 293.08,97.2218591 C290.695801,99.0568343 289.284322,101.883477 289.25,104.891859 C289.196444,107.503578 290.527556,109.949021 292.75,111.321859 C295.111503,112.922669 297.907316,113.760366 300.76,113.721859 L300.75,113.721859 Z M268.59,52.2618591 C266.115807,54.7482489 262.229474,55.1398346 259.308995,53.1970101 C256.388516,51.2541856 255.247858,47.5184359 256.584975,44.2756155 C257.922091,41.0327951 261.364314,39.186711 264.805394,39.8669571 C268.246474,40.5472031 270.727347,43.5641878 270.73,47.0718591 C270.763521,49.0230633 269.989045,50.901347 268.59,52.2618591 Z M268.59,121.391859 L258.24,121.391859 L258.24,66.1318591 L268.59,66.1318591 L268.59,121.391859 Z M184.21,121.391859 L184.21,40.6418591 L208.91,40.6418591 C221.316667,40.6418591 231.24,44.3818591 238.68,51.8618591 C246.12,59.3418591 249.843333,69.0585258 249.85,81.0118591 C249.85,92.9651924 246.126667,102.681859 238.68,110.161859 C231.233333,117.641859 221.31,121.385192 208.91,121.391859 L184.21,121.391859 Z M194.59,111.471859 L208.91,111.471859 C218.243333,111.471859 225.63,108.805192 231.07,103.471859 C236.51,98.1385258 239.236667,90.6585258 239.25,81.0318591 C239.25,71.4851924 236.523333,64.0218591 231.07,58.6418591 C225.616667,53.2618591 218.23,50.5751924 208.91,50.5818591 L194.59,50.5818467 L194.59,111.471859 Z" id="Shape" fill="#1B1B1B" fill-rule="nonzero"></path>
        </g>
    </g>
</svg>