<?xml version="1.0" encoding="UTF-8"?>
<svg width="691px" height="181px" viewBox="0 0 691 181" version="1.1" xmlns="http://www.w3.org/2000/svg" xmlns:xlink="http://www.w3.org/1999/xlink">
    <!-- Generator: Sketch 52.5 (67469) - http://www.bohemiancoding.com/sketch -->
    <title>Dialogflow_logo</title>
    <desc>Created with Sketch.</desc>
    <defs>
        <path d="M136.05,35.577 L77.27,1.657 C73.4567502,-0.551749174 68.7532498,-0.551749174 64.94,1.657 L6.15,35.577 C2.34320138,37.7914864 0.000872532236,41.862949 1.0658141e-14,46.267 L1.0658141e-14,114.157 C0.00335849977,118.55253 2.34644983,122.613888 6.15,124.817 L35.56,141.817 L35.56,176.477 C35.5650913,177.796328 36.2723184,179.013129 37.4161723,179.670587 C38.5600262,180.328046 39.9674253,180.326679 41.11,179.667 L136.11,124.847 C139.918075,122.648408 142.262819,118.584184 142.26,114.187 L142.26,46.257 C142.237026,41.8458396 139.872315,37.7789929 136.05,35.577 Z" id="path-1"></path>
    </defs>
    <g id="Loqativ" stroke="none" stroke-width="1" fill="none" fill-rule="evenodd">
        <g id="Dialogflow_logo">
            <g id="Clipped">
                <mask id="mask-2" fill="white">
                    <use xlink:href="#path-1"></use>
                </mask>
                <g id="Path"></g>
                <g id="Group" mask="url(#mask-2)">
                    <g transform="translate(0.000000, -2.000000)">
                        <polygon id="Path" fill="#EF6C00" points="142.2 41.157 71.12 82.207 -1.42108547e-14 41.157 -1.42108547e-14 123.257 35.56 143.767 35.56 184.827 142.2 123.257"></polygon>
                        <g id="Group" stroke-width="1" fill="none">
                            <polygon id="Path" fill="#FF9800" points="71.12 82.207 0 41.157 71.12 0.107 142.2 41.157"></polygon>
                            <polygon id="Path" fill="#FF9800" points="69.86 80.957 0.45 40.887 2.66453526e-15 41.157 71.12 82.207 142.2 41.157 140.53 40.167"></polygon>
                            <polygon id="Path" fill="#FF9800" points="71.12 82.717 71.12 82.207 0.45 41.397 2.66453526e-15 41.667"></polygon>
                        </g>
                    </g>
                </g>
            </g>
            <path d="M672.33,121.09 L661.73,121.09 L647.97,78.68 L634.32,121.09 L623.83,121.09 L606.01,65.83 L616.84,65.83 L629.13,107.56 L629.24,107.56 L642.89,65.83 L653.59,65.83 L667.24,107.56 L667.35,107.56 L679.59,65.83 L690.19,65.83 L672.33,121.09 Z M555.7,72.43 C561.033333,66.83 567.836667,64.03 576.11,64.03 C584.383333,64.03 591.186667,66.83 596.52,72.43 C601.853333,78.03 604.52,85.03 604.52,93.43 C604.52,101.83 601.853333,108.83 596.52,114.43 C591.186667,120.03 584.383333,122.83 576.11,122.83 C567.836667,122.83 561.033333,120.03 555.7,114.43 C550.366667,108.83 547.7,101.83 547.7,93.43 C547.7,85.03 550.366667,78.03 555.7,72.43 Z M563.43,107.96 C566.726679,111.452716 571.317172,113.432254 576.12,113.432254 C580.922828,113.432254 585.513321,111.452716 588.81,107.96 C592.376667,104.313333 594.163333,99.4833333 594.17,93.47 C594.176667,87.4566667 592.39,82.6266667 588.81,78.98 C585.513321,75.4872843 580.922828,73.507746 576.12,73.507746 C571.317172,73.507746 566.726679,75.4872843 563.43,78.98 C559.856667,82.6266667 558.07,87.4566667 558.07,93.47 C558.07,99.4833333 559.853333,104.313333 563.42,107.96 L563.43,107.96 Z M539.78,121.09 L529.41,121.09 L529.41,40.36 L539.79,40.36 L539.78,121.09 Z M513.28,39.66 C516.120247,39.579466 518.947297,40.0761559 521.59,41.12 L517.98,50.03 C516.489652,49.3713503 514.868044,49.0634502 513.24,49.13 C510.79067,49.0380556 508.402999,49.9105429 506.59,51.56 C504.856667,53.18 503.993333,55.5133333 504,58.56 L504,65.56 L518.44,65.56 L518.44,75.03 L504.03,75.03 L504.03,120.86 L493.65,120.86 L493.65,75.07 L483.28,75.07 L483.28,65.6 L493.66,65.6 L493.66,58.27 C493.66,52.63 495.463333,48.12 499.07,44.74 C502.676667,41.36 507.413333,39.6666667 513.28,39.66 Z M446.95,147.03 C440.41,147.03 435.076667,145.393333 430.95,142.12 C427.08258,139.189956 424.01781,135.330617 422.04,130.9 L431.51,126.95 C432.606642,130.016548 434.638999,132.661061 437.32,134.51 C440.127931,136.518992 443.507925,137.570857 446.96,137.51 C452.673333,137.51 457.166667,135.8 460.44,132.38 C463.713333,128.96 465.35,124.316667 465.35,118.45 L465.35,113.15 L464.9,113.15 C462.936171,116.000595 460.302385,118.325332 457.23,119.92 C453.79697,121.756595 449.952977,122.689202 446.06,122.63 C438.913333,122.63 432.746667,119.81 427.56,114.17 C422.373333,108.53 419.78,101.53 419.78,93.17 C419.78,84.8233333 422.373333,77.8233333 427.56,72.17 C432.746667,66.5166667 438.913333,63.6966667 446.06,63.71 C449.952682,63.6534307 453.796026,64.5858802 457.23,66.42 C460.302385,68.014668 462.936171,70.339405 464.9,73.19 L465.35,73.19 L465.35,65.52 L475.27,65.52 L475.27,117.96 C475.27,127.433333 472.526667,134.633333 467.04,139.56 C461.542995,144.524185 454.354886,147.196917 446.95,147.03 Z M447.74,113.2 C452.476396,113.264049 457.012954,111.294324 460.2,107.79 C463.62,104.183333 465.33,99.3333333 465.33,93.24 C465.33,87.1466667 463.62,82.2966667 460.2,78.69 C456.986917,75.2291008 452.47433,73.2675206 447.751873,73.2789137 C443.029417,73.2903069 438.526347,75.2736378 435.33,78.75 C431.87,82.3966667 430.14,87.2266667 430.14,93.24 C430.14,99.2533333 431.87,104.083333 435.33,107.73 C438.493324,111.243981 443.012114,113.232103 447.74,113.19 L447.74,113.2 Z M363.59,72.19 C368.923333,66.59 375.726667,63.79 384,63.79 C392.273333,63.79 399.076667,66.59 404.41,72.19 C409.743333,77.79 412.41,84.79 412.41,93.19 C412.41,101.59 409.743333,108.59 404.41,114.19 C399.076667,119.79 392.273333,122.59 384,122.59 C375.726667,122.59 368.923333,119.813333 363.59,114.26 C358.256667,108.66 355.59,101.66 355.59,93.26 C355.59,84.86 358.256667,77.8366667 363.59,72.19 Z M371.32,107.72 C374.616679,111.212716 379.207172,113.192254 384.01,113.192254 C388.812828,113.192254 393.403321,111.212716 396.7,107.72 C400.266667,104.073333 402.053333,99.2433333 402.06,93.23 C402.066667,87.2166667 400.28,82.3866667 396.7,78.74 C393.403321,75.2472843 388.812828,73.267746 384.01,73.267746 C379.207172,73.267746 374.616679,75.2472843 371.32,78.74 C367.746667,82.3866667 365.96,87.2166667 365.96,93.23 C365.96,99.2433333 367.753333,104.073333 371.34,107.72 L371.32,107.72 Z M346.7,120.86 L336.33,120.86 L336.33,40.11 L346.71,40.11 L346.7,120.86 Z M299.06,122.66 C293.69554,122.834719 288.454877,121.026121 284.34,117.58 C280.414962,114.249815 278.23322,109.304042 278.42,104.16 C278.215855,98.5642556 280.848229,93.2431001 285.42,90.01 C290.086667,86.59 295.836667,84.88 302.67,84.88 C308.763333,84.88 313.763333,86.0066667 317.67,88.26 L317.67,86.68 C317.820095,82.9648124 316.288351,79.3797244 313.5,76.92 C310.660967,74.4537835 306.999133,73.1439462 303.24,73.25 C300.370164,73.2119787 297.543548,73.9514602 295.06,75.39 C292.741503,76.6768317 290.965879,78.7578628 290.06,81.25 L280.59,77.21 C281.87,73.8766667 284.39,70.8133333 288.15,68.02 C291.91,65.2266667 296.873333,63.8166667 303.04,63.79 C310.106667,63.79 315.97,65.8566667 320.63,69.99 C325.29,74.1233333 327.623333,79.95 327.63,87.47 L327.63,120.86 L317.71,120.86 L317.71,113.19 L317.26,113.19 C313.1,119.503333 307.033333,122.66 299.06,122.66 Z M300.75,113.19 C305.121499,113.151283 309.307919,111.420084 312.43,108.36 C315.752961,105.533973 317.668501,101.392166 317.67,97.03 C314.736667,94.6233333 310.336667,93.42 304.47,93.42 C299.43,93.42 295.633333,94.51 293.08,96.69 C290.695801,98.5249752 289.284322,101.351618 289.25,104.36 C289.196444,106.971719 290.527556,109.417162 292.75,110.79 C295.111503,112.39081 297.907316,113.228507 300.76,113.19 L300.75,113.19 Z M268.59,51.73 C266.115807,54.2163898 262.229474,54.6079755 259.308995,52.665151 C256.388516,50.7223265 255.247858,46.9865768 256.584975,43.7437564 C257.922091,40.500936 261.364314,38.6548519 264.805394,39.335098 C268.246474,40.015344 270.727347,43.0323287 270.73,46.54 C270.763521,48.4912042 269.989045,50.3694879 268.59,51.73 Z M268.59,120.86 L258.24,120.86 L258.24,65.6 L268.59,65.6 L268.59,120.86 Z M184.21,120.86 L184.21,40.11 L208.91,40.11 C221.316667,40.11 231.24,43.85 238.68,51.33 C246.12,58.81 249.843333,68.5266667 249.85,80.48 C249.85,92.4333333 246.126667,102.15 238.68,109.63 C231.233333,117.11 221.31,120.853333 208.91,120.86 L184.21,120.86 Z M194.59,110.94 L208.91,110.94 C218.243333,110.94 225.63,108.273333 231.07,102.94 C236.51,97.6066667 239.236667,90.1266667 239.25,80.5 C239.25,70.9533333 236.523333,63.49 231.07,58.11 C225.616667,52.73 218.23,50.0433333 208.91,50.05 L194.59,50.0499876 L194.59,110.94 Z" id="Shape" fill="#757575" fill-rule="nonzero"></path>
        </g>
    </g>
</svg>