<?xml version="1.0" encoding="UTF-8"?>
<svg width="97px" height="14px" viewBox="0 0 97 14" version="1.1" xmlns="http://www.w3.org/2000/svg" xmlns:xlink="http://www.w3.org/1999/xlink">
    <!-- Generator: Sketch 52.5 (67469) - http://www.bohemiancoding.com/sketch -->
    <title>logo</title>
    <desc>Created with Sketch.</desc>
    <g id="final" stroke="none" stroke-width="1" fill="none" fill-rule="evenodd">
        <g id="2" transform="translate(-705.000000, -30.000000)">
            <g id="bg" transform="translate(-13.000000, -10.000000)">
                <g id="logo" transform="translate(718.000000, 40.000000)">
                    <path d="M5.41799733,10.0559792 C4.77914186,10.0559792 4.18675749,9.93111387 3.64082645,9.68137945 C3.09489541,9.43164504 2.62156868,9.08899134 2.22083206,8.65340806 C1.82009545,8.21782478 1.50648019,7.7154596 1.27997689,7.14629745 C1.05347358,6.57713531 0.94022363,5.96732786 0.94022363,5.31685684 C0.94022363,4.67800136 1.05347358,4.07690546 1.27997689,3.51355108 C1.50648019,2.95019671 1.8171916,2.45654307 2.21212044,2.03257535 C2.60704928,1.60860762 3.07747216,1.27466545 3.6234032,1.03073882 C4.16933424,0.786812181 4.75591093,0.664850693 5.38315085,0.664850693 C6.02200632,0.664850693 6.61148685,0.789716026 7.15161011,1.03945044 C7.69173337,1.28918485 8.15925241,1.62603087 8.55418125,2.04999859 C8.94911009,2.47396631 9.2598215,2.96761996 9.4863248,3.53097433 C9.71282811,4.0943287 9.82607806,4.68961692 9.82607806,5.31685684 C9.82607806,5.37493461 9.82317422,5.44753073 9.81736644,5.53464739 C9.81155866,5.62176404 9.80865482,5.6769371 9.80865482,5.7001682 L1.84623232,5.7001682 C1.88107898,6.22286814 2.00304047,6.70781025 2.21212044,7.15500908 C2.42120041,7.60220791 2.6854503,7.98841929 3.00487804,8.3136548 C3.32430578,8.63889032 3.69309409,8.89442867 4.11125403,9.08027754 C4.52941398,9.2661264 4.9766061,9.35904944 5.45284382,9.35904944 C5.76646378,9.35904944 6.07717519,9.31549177 6.38498737,9.22837511 C6.69279956,9.14125846 6.97737636,9.02220081 7.23872633,8.87119861 C7.5000763,8.72019641 7.73238389,8.53725417 7.93565609,8.32236642 C8.13892829,8.10747867 8.29863976,7.87226723 8.4147953,7.61672504 L9.18141803,7.82580397 C9.04203138,8.15103948 8.84747377,8.45013551 8.59773936,8.72310104 C8.34800495,8.99606656 8.05762045,9.231278 7.72657716,9.42874242 C7.39553387,9.62620684 7.03255325,9.78011062 6.63762441,9.89045838 C6.24269557,10.0008061 5.83615728,10.0559792 5.41799733,10.0559792 Z M8.97233911,5.00323844 C8.93749244,4.46892296 8.8184348,3.981077 8.6151626,3.53968595 C8.41189041,3.0982949 8.15054436,2.71789121 7.83111662,2.39846347 C7.51168889,2.07903573 7.14290058,1.82930507 6.72474063,1.64926398 C6.30658069,1.46922289 5.85938856,1.3792037 5.38315085,1.3792037 C4.90691313,1.3792037 4.459721,1.46922289 4.04156106,1.64926398 C3.62340111,1.82930507 3.2546128,2.07903573 2.93518507,2.39846347 C2.61575733,2.71789121 2.36021897,3.10119874 2.16856233,3.54839757 C1.97690569,3.9955964 1.86365573,4.48053851 1.82880907,5.00323844 L8.97233911,5.00323844 Z M11.1153981,5.31685684 C11.1153981,4.67800136 11.2257442,4.07400161 11.4464398,3.50483946 C11.6671353,2.93567731 11.9778467,2.44202367 12.3785833,2.02386372 C12.7793199,1.60570378 13.2526466,1.27466545 13.7985777,1.03073882 C14.3445087,0.786812181 14.9427008,0.664850693 15.5931718,0.664850693 C16.4178762,0.664850693 17.1409336,0.85069677 17.7623657,1.2223945 C18.3837978,1.59409223 18.8571246,2.11097663 19.1823601,2.77306322 L18.3286211,3.05183512 C18.0614634,2.55236629 17.6781558,2.16034722 17.178687,1.87576615 C16.6792182,1.59118508 16.1332953,1.44889667 15.5409021,1.44889667 C15.0414333,1.44889667 14.5768181,1.5476274 14.1470426,1.74509182 C13.7172671,1.94255624 13.3426711,2.21551767 13.0232433,2.56398429 C12.7038156,2.91245091 12.4540849,3.32189305 12.2740438,3.79232299 C12.0940028,4.26275293 12.0039836,4.7709258 12.0039836,5.31685684 C12.0039836,5.86278788 12.0998104,6.37676844 12.2914671,6.85881393 C12.4831237,7.34085942 12.7386621,7.7590131 13.0580898,8.1132875 C13.3775176,8.4675619 13.7521136,8.74923486 14.1818891,8.95831483 C14.6116646,9.1673948 15.0704721,9.27193322 15.5583253,9.27193322 C15.8719453,9.27193322 16.1826567,9.2254717 16.4904689,9.13254727 C16.7982811,9.03962284 17.0828579,8.91766135 17.3442078,8.76665915 C17.6055578,8.61565694 17.8320577,8.4385224 18.0237144,8.2352502 C18.215371,8.03197801 18.346044,7.81999733 18.4157373,7.5993018 L19.2694763,7.84322721 C19.1533208,8.15684717 18.9761862,8.45013551 18.7380674,8.72310104 C18.4999485,8.99606656 18.2182755,9.231278 17.89304,9.42874242 C17.5678045,9.62620684 17.2106316,9.78011062 16.8215105,9.89045838 C16.4323895,10.0008061 16.028755,10.0559792 15.6105951,10.0559792 C14.9717396,10.0559792 14.3793552,9.93111387 13.8334242,9.68137945 C13.2874931,9.43164504 12.8141664,9.08899134 12.4134298,8.65340806 C12.0126932,8.21782478 11.6961741,7.7154596 11.463863,7.14629745 C11.2315519,6.57713531 11.1153981,5.96732786 11.1153981,5.31685684 Z M24.9494538,10.0559792 C24.3105984,10.0559792 23.7211178,9.93111387 23.1809946,9.68137945 C22.6408713,9.43164504 22.1733523,9.09189518 21.7784234,8.66211968 C21.3834946,8.23234418 21.075687,7.73288285 20.8549915,7.1637207 C20.634296,6.59455855 20.5239499,5.99636649 20.5239499,5.36912657 C20.5239499,4.73027109 20.6371998,4.12627134 20.8637031,3.55710919 C21.0902064,2.98794705 21.4038217,2.48848571 21.8045583,2.05871021 C22.2052949,1.62893471 22.672814,1.28918485 23.2071294,1.03945044 C23.7414449,0.789716026 24.3222139,0.664850693 24.9494538,0.664850693 C25.5766938,0.664850693 26.1603666,0.789716026 26.7004899,1.03945044 C27.2406131,1.28918485 27.711036,1.62893471 28.1117726,2.05871021 C28.5125092,2.48848571 28.8261245,2.98794705 29.0526278,3.55710919 C29.2791311,4.12627134 29.3923811,4.73027109 29.3923811,5.36912657 C29.3923811,5.99636649 29.2791311,6.59455855 29.0526278,7.1637207 C28.8261245,7.73288285 28.5154131,8.23234418 28.1204842,8.66211968 C27.7255554,9.09189518 27.2551325,9.43164504 26.7092015,9.68137945 C26.1632704,9.93111387 25.5766938,10.0559792 24.9494538,10.0559792 Z M21.4125353,5.40397306 C21.4125353,5.93828854 21.5054583,6.44065372 21.6913072,6.91108366 C21.8771561,7.3815136 22.1297906,7.79095574 22.4492183,8.13942236 C22.7686461,8.48788898 23.1432421,8.76375426 23.5730176,8.96702645 C24.0027931,9.17029865 24.4616006,9.27193322 24.9494538,9.27193322 C25.4373071,9.27193322 25.8961146,9.17029865 26.3258901,8.96702645 C26.7556656,8.76375426 27.1302616,8.48208129 27.4496894,8.12199912 C27.7691171,7.76191694 28.0246554,7.34666711 28.2163121,6.87623717 C28.4079687,6.40580723 28.5037956,5.89763437 28.5037956,5.35170332 C28.5037956,4.81738784 28.4079687,4.31502266 28.2163121,3.84459272 C28.0246554,3.37416278 27.7691171,2.9618168 27.4496894,2.6075424 C27.1302616,2.253268 26.7556656,1.97159504 26.3258901,1.76251506 C25.8961146,1.55343509 25.4373071,1.44889667 24.9494538,1.44889667 C24.4732161,1.44889667 24.0202163,1.55343509 23.5904408,1.76251506 C23.1606653,1.97159504 22.7831655,2.25617184 22.4579299,2.61625402 C22.1326944,2.9763362 21.8771561,3.39739371 21.6913072,3.87943921 C21.5054583,4.3614847 21.4125353,4.86965757 21.4125353,5.40397306 Z M38.8532025,9.88174676 L37.9820403,9.88174676 L37.9820403,4.82900601 C37.9820403,3.65583504 37.8165212,2.80210463 37.4854779,2.26778914 C37.1544346,1.73347365 36.623031,1.46631992 35.8912511,1.46631992 C35.5079378,1.46631992 35.1275341,1.5360122 34.7500286,1.67539884 C34.3725231,1.81478549 34.0240617,2.01224695 33.7046339,2.26778914 C33.3852062,2.52333133 33.1035332,2.82242736 32.8596066,3.1650862 C32.61568,3.50774505 32.4356416,3.87653336 32.319486,4.2714622 L32.319486,9.88174676 L31.4483238,9.88174676 L31.4483238,0.821659889 L32.2497931,0.821659889 L32.2497931,2.98214214 C32.4356419,2.63367552 32.6679495,2.31715642 32.9467228,2.03257535 C33.2254961,1.74799427 33.5333037,1.50407129 33.8701548,1.3007991 C34.2070058,1.0975269 34.5699864,0.940719275 34.9591075,0.830371511 C35.3482286,0.720023747 35.7460553,0.664850693 36.1525997,0.664850693 C37.1399218,0.664850693 37.8368446,1.01040824 38.243389,1.70153371 C38.6499334,2.39265918 38.8532025,3.38287031 38.8532025,4.67219681 L38.8532025,9.88174676 Z M45.2475331,10.0559792 C44.6086776,10.0559792 44.0191971,9.93111387 43.4790738,9.68137945 C42.9389506,9.43164504 42.4714315,9.09189518 42.0765027,8.66211968 C41.6815738,8.23234418 41.3737663,7.73288285 41.1530707,7.1637207 C40.9323752,6.59455855 40.8220291,5.99636649 40.8220291,5.36912657 C40.8220291,4.73027109 40.9352791,4.12627134 41.1617824,3.55710919 C41.3882857,2.98794705 41.7019009,2.48848571 42.1026375,2.05871021 C42.5033742,1.62893471 42.9708932,1.28918485 43.5052087,1.03945044 C44.0395242,0.789716026 44.6202932,0.664850693 45.2475331,0.664850693 C45.874773,0.664850693 46.4584458,0.789716026 46.9985691,1.03945044 C47.5386924,1.28918485 48.0091152,1.62893471 48.4098519,2.05871021 C48.8105885,2.48848571 49.1242037,2.98794705 49.350707,3.55710919 C49.5772103,4.12627134 49.6904603,4.73027109 49.6904603,5.36912657 C49.6904603,5.99636649 49.5772103,6.59455855 49.350707,7.1637207 C49.1242037,7.73288285 48.8134923,8.23234418 48.4185635,8.66211968 C48.0236346,9.09189518 47.5532118,9.43164504 47.0072807,9.68137945 C46.4613497,9.93111387 45.874773,10.0559792 45.2475331,10.0559792 Z M41.7106146,5.40397306 C41.7106146,5.93828854 41.8035376,6.44065372 41.9893865,6.91108366 C42.1752353,7.3815136 42.4278698,7.79095574 42.7472976,8.13942236 C43.0667253,8.48788898 43.4413213,8.76375426 43.8710968,8.96702645 C44.3008723,9.17029865 44.7596798,9.27193322 45.2475331,9.27193322 C45.7353864,9.27193322 46.1941939,9.17029865 46.6239694,8.96702645 C47.0537449,8.76375426 47.4283409,8.48208129 47.7477686,8.12199912 C48.0671963,7.76191694 48.3227347,7.34666711 48.5143913,6.87623717 C48.706048,6.40580723 48.8018749,5.89763437 48.8018749,5.35170332 C48.8018749,4.81738784 48.706048,4.31502266 48.5143913,3.84459272 C48.3227347,3.37416278 48.0671963,2.9618168 47.7477686,2.6075424 C47.4283409,2.253268 47.0537449,1.97159504 46.6239694,1.76251506 C46.1941939,1.55343509 45.7353864,1.44889667 45.2475331,1.44889667 C44.7712954,1.44889667 44.3182955,1.55343509 43.88852,1.76251506 C43.4587445,1.97159504 43.0812447,2.25617184 42.7560092,2.61625402 C42.4307737,2.9763362 42.1752353,3.39739371 41.9893865,3.87943921 C41.8035376,4.3614847 41.7106146,4.86965757 41.7106146,5.40397306 Z M65.0577615,9.88174676 L64.1865993,9.88174676 L64.1865993,4.82900601 C64.1865993,3.67906615 64.0094647,2.83114342 63.6551903,2.28521238 C63.3009159,1.73928134 62.7578969,1.46631992 62.026117,1.46631992 C61.6428038,1.46631992 61.282727,1.5360122 60.9458759,1.67539884 C60.6090248,1.81478549 60.3041211,2.00934311 60.0311556,2.25907752 C59.7581901,2.50881193 59.5200748,2.80500412 59.3168026,3.14766296 C59.1135304,3.49032181 58.9538189,3.8707255 58.8376634,4.28888544 L58.8376634,9.88174676 L57.9665012,9.88174676 L57.9665012,4.82900601 C57.9665012,3.6674506 57.7922705,2.81662403 57.4438039,2.27650076 C57.0953372,1.7363775 56.5552221,1.46631992 55.8234422,1.46631992 C55.4517444,1.46631992 55.0974754,1.53310835 54.7606243,1.66668722 C54.4237732,1.80026609 54.1159657,1.99191986 53.8371924,2.24165427 C53.5584191,2.49138869 53.3144961,2.78758087 53.1054161,3.13023972 C52.8963361,3.47289856 52.7337208,3.85330225 52.6175653,4.2714622 L52.6175653,9.88174676 L51.7464031,9.88174676 L51.7464031,0.821659889 L52.5478723,0.821659889 L52.5478723,2.98214214 C52.9311856,2.25036224 53.4248392,1.68120862 54.028848,1.27466423 C54.6328569,0.86811984 55.3007412,0.664850693 56.0325211,0.664850693 C56.7991477,0.664850693 57.4176666,0.8913506 57.8880966,1.34435721 C58.3585265,1.79736382 58.6401995,2.38974819 58.7331239,3.12152809 C59.615906,1.48373497 60.8006748,0.664850693 62.2874657,0.664850693 C63.2864033,0.664850693 63.9978454,1.01621593 64.4218131,1.71895695 C64.8457808,2.42169798 65.0577615,3.40610142 65.0577615,4.67219681 L65.0577615,9.88174676 Z M68.2636384,12.9656609 C68.3681784,12.9656609 68.5220822,12.9598533 68.7253543,12.9482377 C68.9286265,12.9366221 69.0825303,12.901776 69.1870703,12.8436982 C69.2335325,12.8204671 69.2887056,12.7652941 69.3525911,12.6781774 C69.4164767,12.5910608 69.5006882,12.4429647 69.6052282,12.2338847 C69.7097682,12.0248047 69.843345,11.7315164 70.0059628,11.3540109 C70.1685805,10.9765054 70.3718497,10.4857556 70.6157763,9.88174676 L66.5735837,0.821659889 L67.4970156,0.821659889 L71.0862039,9.02800781 L74.44889,0.821659889 L75.302629,0.821659889 L70.3370044,12.7391588 C70.1627711,13.1573187 69.9333674,13.433184 69.6487863,13.5667629 C69.3642052,13.7003417 69.0186477,13.7671302 68.6121033,13.7671302 L68.4378708,13.7671302 C68.3797931,13.7671302 68.3217162,13.7613225 68.2636384,13.7497069 L68.2636384,12.9656609 Z M76.0518284,9.88174676 L76.0518284,8.40077102 L76.8184512,8.40077102 L76.8184512,9.88174676 L76.0518284,9.88174676 Z" id="economy.os" fill="#1C1E2A"></path>
                    <path d="M83.2824747,10.0559792 C82.5390792,10.0559792 81.8711949,9.92821002 81.2788016,9.67266783 C80.6864084,9.41712564 80.1840432,9.07156809 79.771691,8.63598482 C79.3593389,8.20040154 79.0428198,7.69803636 78.8221242,7.12887421 C78.6014287,6.55971206 78.4910826,5.96152 78.4910826,5.33428008 C78.4910826,4.69542461 78.6014287,4.09142486 78.8221242,3.52226271 C79.0428198,2.95310056 79.3593389,2.45073538 79.771691,2.0151521 C80.1840432,1.57956882 80.6864084,1.23401127 81.2788016,0.978469085 C81.8711949,0.722926895 82.5390792,0.595157717 83.2824747,0.595157717 C84.0258702,0.595157717 84.6908507,0.722926895 85.2774361,0.978469085 C85.8640216,1.23401127 86.3634829,1.57956882 86.7758351,2.0151521 C87.1881873,2.45073538 87.5047064,2.95310056 87.7254019,3.52226271 C87.9460974,4.09142486 88.0564435,4.69542461 88.0564435,5.33428008 C88.0564435,5.96152 87.9460974,6.55971206 87.7254019,7.12887421 C87.5047064,7.69803636 87.1910911,8.20040154 86.7845467,8.63598482 C86.3780023,9.07156809 85.878541,9.41712564 85.2861478,9.67266783 C84.6937545,9.92821002 84.0258702,10.0559792 83.2824747,10.0559792 Z M80.8954903,5.33428008 C80.8954903,5.74082447 80.956471,6.10961278 81.0784343,6.44065607 C81.2003976,6.77169936 81.3688207,7.05918002 81.5837084,7.30310665 C81.7985962,7.54703329 82.0512307,7.73578321 82.3416195,7.86936208 C82.6320084,8.00294095 82.9456236,8.06972939 83.2824747,8.06972939 C83.6193258,8.06972939 83.932941,8.00294095 84.2233299,7.86936208 C84.5137187,7.73578321 84.7663532,7.54703329 84.981241,7.30310665 C85.1961287,7.05918002 85.3645517,6.76879552 85.4865151,6.43194445 C85.6084784,6.09509338 85.6694591,5.72340123 85.6694591,5.31685684 C85.6694591,4.921928 85.6084784,4.55604353 85.4865151,4.21919247 C85.3645517,3.8823414 85.1961287,3.5919569 84.981241,3.34803027 C84.7663532,3.10410363 84.5137187,2.91535371 84.2233299,2.78177484 C83.932941,2.64819597 83.6193258,2.58140753 83.2824747,2.58140753 C82.9456236,2.58140753 82.6320084,2.65109981 82.3416195,2.79048646 C82.0512307,2.92987311 81.7985962,3.12152688 81.5837084,3.36545351 C81.3688207,3.60938015 81.2003976,3.89976464 81.0784343,4.23661571 C80.956471,4.57346678 80.8954903,4.93935124 80.8954903,5.33428008 Z M93.1440308,10.0559792 C92.7723331,10.0559792 92.3861217,10.0269408 91.9853851,9.96886298 C91.5846484,9.91078521 91.1926294,9.82947755 90.8093161,9.72493756 C90.4260028,9.62039758 90.0601183,9.4926284 89.7116517,9.3416262 C89.3631851,9.19062399 89.0553775,9.02220099 88.7882198,8.83635212 L89.729075,7.25083692 C90.8906304,8.00584793 92.0115145,8.38334778 93.0917611,8.38334778 C93.5796143,8.38334778 93.9629219,8.29623243 94.2416952,8.12199912 C94.5204685,7.94776581 94.659853,7.69803514 94.659853,7.37279963 C94.659853,7.04756411 94.4943339,6.80654498 94.1632906,6.649735 C93.8322473,6.49292502 93.2776129,6.32159817 92.4993708,6.1357493 C91.9069775,5.99636266 91.4017085,5.85117041 90.9835485,5.7001682 C90.5653886,5.549166 90.2285426,5.3749353 89.9730004,5.17747088 C89.7174582,4.98000647 89.5316121,4.75350656 89.4154566,4.49796437 C89.299301,4.24242218 89.2412241,3.9404223 89.2412241,3.59195568 C89.2412241,3.12733352 89.3341472,2.70917985 89.519996,2.33748212 C89.7058449,1.96578439 89.9642871,1.64926528 90.2953304,1.38791532 C90.6263737,1.12656535 91.0154889,0.92620005 91.4626877,0.786813401 C91.9098866,0.647426752 92.3948287,0.577734473 92.9175286,0.577734473 C93.5679996,0.577734473 94.2155571,0.679369047 94.8602203,0.882641243 C95.5048836,1.08591344 96.1059795,1.36177871 96.6635261,1.71024533 L95.7052477,3.15637458 C95.1941633,2.83113907 94.712125,2.59592763 94.2591184,2.4507332 C93.8061118,2.30553878 93.353112,2.23294265 92.9001054,2.23294265 C92.4819454,2.23294265 92.1305802,2.31425031 91.8459991,2.47686807 C91.561418,2.63948582 91.4191296,2.90083187 91.4191296,3.26091405 C91.4191296,3.57453401 91.5556103,3.80103391 91.8285759,3.94042056 C92.1015414,4.07980721 92.5864835,4.23661484 93.2834167,4.41084815 C93.9338878,4.57346591 94.4885222,4.73608122 94.9473365,4.89869898 C95.4061509,5.06131674 95.7836508,5.24716282 96.0798474,5.45624279 C96.376044,5.66532276 96.5909286,5.90634189 96.7245074,6.17930741 C96.8580863,6.45227293 96.9248747,6.78040741 96.9248747,7.1637207 C96.9248747,7.60511175 96.8348555,8.00584236 96.6548145,8.36592453 C96.4747734,8.72600671 96.2221389,9.03091043 95.8969033,9.28064484 C95.5716678,9.53037926 95.1738411,9.72203302 94.7034111,9.85561189 C94.2329812,9.98919077 93.7131929,10.0559792 93.1440308,10.0559792 Z" id="Combined-Shape" fill="#FECA2F"></path>
                </g>
            </g>
        </g>
    </g>
</svg>