<?xml version="1.0" encoding="UTF-8"?>
<svg width="116px" height="36px" viewBox="0 0 116 36" version="1.1" xmlns="http://www.w3.org/2000/svg" xmlns:xlink="http://www.w3.org/1999/xlink">
    <!-- Generator: Sketch 52.5 (67469) - http://www.bohemiancoding.com/sketch -->
    <title>Group 2</title>
    <desc>Created with Sketch.</desc>
    <g id="Page-1" stroke="none" stroke-width="1" fill="none" fill-rule="evenodd">
        <g id="sprite-clients" transform="translate(-888.330447, -681.427933)" fill="#FFFFFF">
            <g id="Group-2" transform="translate(888.835336, 681.509910)">
                <path d="M114.422331,13.3142857 C113.755664,10.8190476 108.631855,5.12380952 104.898521,0.514285714 C104.822331,0.438095238 104.612807,0.0761904762 104.174712,0.0761904762 C103.812807,0.0761904762 103.508045,0.438095238 103.660426,0.742857143 C103.812807,1.02857143 107.393759,8.4952381 106.727093,10.9142857 C106.060426,13.4095238 102.784236,12.8952381 102.26995,12.8952381 C101.984236,12.8952381 102.193759,13.1238095 102.498521,13.4095238 C104.327093,15.0285714 105.508045,17.2952381 105.508045,20.2095238 L105.508045,22.4 C105.508045,22.4761905 105.508045,22.4761905 105.584236,22.4761905 C109.755664,22.0952381 116.117569,19.5428571 114.422331,13.3142857" id="Path"></path>
                <path d="M98.2509023,27.7333333 C98.2509023,29.847619 95.3937594,31.0285714 93.565188,31.0285714 C91.5842356,31.0285714 88.8032832,29.8666667 88.8032832,27.7333333 L88.8032832,20.2666667 C88.8032832,18.152381 91.5842356,17.2 93.565188,17.2 C95.3937594,17.2 98.2509023,18.2285714 98.2509023,20.2666667 L98.2509023,27.7333333 Z M93.565188,12.5142857 C89.165188,12.5904762 84.0413785,15.0666667 84.0413785,20.1904762 L84.0413785,28.0190476 C84.0413785,33.2190476 89.165188,35.6952381 93.565188,35.6952381 C97.8889975,35.6190476 103.012807,33.2 103.012807,28.0190476 L103.012807,20.2666667 C103.012807,15.1428571 97.8889975,12.5904762 93.565188,12.5142857 Z" id="Shape" fill-rule="nonzero"></path>
                <path d="M65.1842356,27.7333333 C65.1842356,29.847619 62.3270928,31.0285714 60.4985213,31.0285714 C58.517569,31.0285714 55.7366166,29.8666667 55.7366166,27.7333333 L55.7366166,20.2666667 C55.7366166,18.152381 58.517569,17.2 60.4985213,17.2 C62.3270928,17.2 65.1842356,18.2285714 65.1842356,20.2666667 L65.1842356,27.7333333 Z M60.4223309,12.5142857 C56.0223309,12.5904762 50.8985213,15.0666667 50.8985213,20.1904762 L50.8985213,28.0190476 C50.8985213,33.2190476 56.0223309,35.6952381 60.4223309,35.6952381 C64.7461404,35.6190476 69.8699499,33.2 69.8699499,28.0190476 L69.8699499,20.2666667 C69.8509023,15.1428571 64.7270928,12.5904762 60.4223309,12.5142857 Z" id="Shape" fill-rule="nonzero"></path>
                <path d="M12.6889975,13.3904762 C12.9747118,13.1047619 13.2032832,12.8761905 12.917569,12.8761905 C12.4032832,12.8761905 9.10804515,13.3904762 8.4604261,10.8952381 C7.81280706,8.4 11.3937594,1.00952381 11.5270928,0.723809524 C11.6032832,0.438095238 11.3747118,0.0571428571 10.9366166,0.0571428571 C10.5747118,0.0571428571 10.2699499,0.495238095 10.2128071,0.495238095 C6.5556642,5.1047619 1.3556642,10.8190476 0.688997532,13.2952381 C-0.987192944,19.5238095 5.52709277,22.0761905 9.62233087,22.5142857 C9.69852134,22.5142857 9.69852134,22.4380952 9.69852134,22.4380952 L9.69852134,20.247619 C9.77471182,17.2761905 10.8604261,14.9904762 12.6889975,13.3904762" id="Path"></path>
                <path d="M50.6128071,14.2666667 C47.1080452,13.3142857 44.5366166,12.952381 40.7270928,12.952381 C36.9937594,12.952381 34.365188,13.3142857 30.8413785,14.2666667 C30.6889975,14.3428571 30.6128071,14.4952381 30.6889975,14.552381 C31.8509023,15.5809524 32.365188,16.8952381 32.5937594,18.3619048 C34.4985213,17.9238095 36.2509023,17.6380952 38.3080452,17.4857143 L38.3080452,35.5619048 C38.3080452,35.6380952 38.3842356,35.6380952 38.4604261,35.6380952 L42.9937594,35.6380952 C43.0699499,35.6380952 43.1461404,35.6380952 43.1461404,35.5619048 L43.1461404,17.4857143 C45.1270928,17.6380952 46.7270928,17.847619 48.6318547,18.3619048 C48.917569,16.8952381 49.5080452,15.5047619 50.7461404,14.552381 C50.765188,14.4190476 50.6889975,14.2666667 50.6128071,14.2666667" id="Path"></path>
                <path d="M84.2128071,12.7238095 C83.8509023,12.647619 82.8985213,12.4952381 82.0223309,12.5714286 C77.6985213,12.7238095 72.8032832,15.2761905 72.8032832,20.247619 L72.8032832,20.6857143 L72.8032832,28.0761905 L72.8032832,35.6952381 C72.8032832,35.7714286 72.8794737,35.7714286 72.9556642,35.7714286 L77.4889975,35.7714286 C77.565188,35.7714286 77.6413785,35.7714286 77.6413785,35.6952381 L77.6413785,35.2571429 L77.6413785,20.247619 C77.6413785,18.5714286 79.6985213,17.6190476 81.3747118,17.2380952 C81.8889975,15.6190476 82.8413785,14.3809524 84.3080452,13.2190476 C84.4985213,13.0285714 84.4223309,12.7238095 84.2128071,12.7238095" id="Path"></path>
                <path d="M25.7937594,21.5809524 C25.7937594,21.6571429 25.7937594,21.6571429 25.717569,21.7333333 C25.717569,21.8095238 25.6413785,21.8095238 25.565188,21.8095238 L16.9366166,21.8095238 L16.9366166,20.2666667 C16.9366166,18.152381 19.4889975,17.1238095 21.4699499,17.1238095 C23.3747118,17.1238095 25.7937594,18.152381 25.7937594,20.2666667 L25.7937594,21.5809524 Z M21.4889975,12.3619048 C17.0318547,12.4380952 12.117569,14.9904762 12.117569,20.1904762 L12.117569,28.0952381 C12.117569,33.3714286 17.0128071,35.847619 21.4889975,35.9238095 C24.7080452,35.9238095 28.2889975,34.6095238 30.0604261,31.752381 C30.1366166,31.6761905 30.0604261,31.5238095 29.9842356,31.4666667 C28.4413785,30.5904762 27.565188,30.0761905 26.0413785,29.2761905 C25.965188,29.2761905 25.965188,29.2761905 25.8889975,29.352381 C25.0889975,30.7428571 22.9556642,31.4666667 21.4889975,31.4666667 C19.5080452,31.4666667 16.9556642,30.2285714 16.9556642,28.0952381 L16.9556642,25.752381 L29.317569,25.752381 C29.9842356,25.752381 30.4794737,25.2380952 30.4794737,24.5904762 L30.4794737,20.2666667 C30.4794737,14.9904762 25.8699499,12.4380952 21.4889975,12.3619048 Z" id="Shape" fill-rule="nonzero"></path>
            </g>
        </g>
    </g>
</svg>