<?xml version="1.0" encoding="UTF-8"?>
<svg width="140px" height="45px" viewBox="0 0 140 45" version="1.1" xmlns="http://www.w3.org/2000/svg" xmlns:xlink="http://www.w3.org/1999/xlink">
    <!-- Generator: Sketch 52.5 (67469) - http://www.bohemiancoding.com/sketch -->
    <title>Group 2</title>
    <desc>Created with Sketch.</desc>
    <g id="Page-1" stroke="none" stroke-width="1" fill="none" fill-rule="evenodd">
        <g id="sprite-clients" transform="translate(-432.330447, -782.427933)" fill="#FFFFFF">
            <g id="Group-2" transform="translate(432.000000, 783.000000)">
                <path d="M139.849516,16.2730159 C139.034701,13.2232804 132.772267,6.26243386 128.209304,0.628571429 C128.116182,0.535449735 127.860098,0.0931216931 127.324648,0.0931216931 C126.88232,0.0931216931 126.509833,0.535449735 126.696076,0.907936508 C126.88232,1.25714286 131.259039,10.3830688 130.444224,13.3396825 C129.62941,16.389418 125.625177,15.7608466 124.996605,15.7608466 C124.647399,15.7608466 124.903484,16.0402116 125.275971,16.389418 C127.510891,18.368254 128.954277,21.1386243 128.954277,24.7005291 L128.954277,27.3777778 C128.954277,27.4708995 128.954277,27.4708995 129.047399,27.4708995 C134.145812,27.005291 141.921473,23.8857143 139.849516,16.2730159" id="Path"></path>
                <path d="M120.084436,33.8962963 C120.084436,36.4804233 116.592373,37.9238095 114.357452,37.9238095 C111.936288,37.9238095 108.537346,36.5037037 108.537346,33.8962963 L108.537346,24.7703704 C108.537346,22.1862434 111.936288,21.0222222 114.357452,21.0222222 C116.592373,21.0222222 120.084436,22.2793651 120.084436,24.7703704 L120.084436,33.8962963 Z M114.357452,15.2952381 C108.979674,15.3883598 102.71724,18.4148148 102.71724,24.6772487 L102.71724,34.2455026 C102.71724,40.6010582 108.979674,43.6275132 114.357452,43.6275132 C119.642108,43.5343915 125.904542,40.5777778 125.904542,34.2455026 L125.904542,24.7703704 C125.904542,18.5079365 119.642108,15.3883598 114.357452,15.2952381 Z" id="Shape" fill-rule="nonzero"></path>
                <path d="M79.6696213,33.8962963 C79.6696213,36.4804233 76.1775578,37.9238095 73.9426372,37.9238095 C71.5214732,37.9238095 68.1225314,36.5037037 68.1225314,33.8962963 L68.1225314,24.7703704 C68.1225314,22.1862434 71.5214732,21.0222222 73.9426372,21.0222222 C76.1775578,21.0222222 79.6696213,22.2793651 79.6696213,24.7703704 L79.6696213,33.8962963 Z M73.8495155,15.2952381 C68.4717377,15.3883598 62.2093039,18.4148148 62.2093039,24.6772487 L62.2093039,34.2455026 C62.2093039,40.6010582 68.4717377,43.6275132 73.8495155,43.6275132 C79.1341716,43.5343915 85.3966054,40.5777778 85.3966054,34.2455026 L85.3966054,24.7703704 C85.373325,18.5079365 79.1108912,15.3883598 73.8495155,15.2952381 Z" id="Shape" fill-rule="nonzero"></path>
                <path d="M15.5087748,16.3661376 C15.8579811,16.0169312 16.1373462,15.7375661 15.7881398,15.7375661 C15.1595684,15.7375661 11.1320552,16.3661376 10.3405208,13.3164021 C9.5489864,10.2666667 13.925706,1.23386243 14.0886689,0.884656085 C14.1817906,0.535449735 13.9024256,0.0698412698 13.3669758,0.0698412698 C12.9246478,0.0698412698 12.552161,0.605291005 12.4823197,0.605291005 C8.01247846,6.23915344 1.65692291,13.2232804 0.842108095,16.2497354 C-1.20656915,23.8624339 6.75533561,26.9820106 11.7606266,27.5174603 C11.8537483,27.5174603 11.8537483,27.4243386 11.8537483,27.4243386 L11.8537483,24.7470899 C11.94687,21.1153439 13.2738541,18.3216931 15.5087748,16.3661376" id="Path"></path>
                <path d="M61.8600975,17.437037 C57.5764996,16.2730159 54.4336425,15.8306878 49.7775578,15.8306878 C45.2145949,15.8306878 42.0018965,16.2730159 37.6950181,17.437037 C37.5087748,17.5301587 37.4156531,17.7164021 37.5087748,17.7862434 C38.9288806,19.0433862 39.557452,20.6497354 39.8368171,22.442328 C42.1648594,21.9068783 44.3066584,21.557672 46.8209441,21.3714286 L46.8209441,43.4645503 C46.8209441,43.557672 46.9140658,43.557672 47.0071875,43.557672 L52.5479282,43.557672 C52.6410499,43.557672 52.7341716,43.557672 52.7341716,43.4645503 L52.7341716,21.3714286 C55.1553356,21.557672 57.1108912,21.8137566 59.4389335,22.442328 C59.7881398,20.6497354 60.509833,18.9502646 62.0230605,17.7862434 C62.0463409,17.6232804 61.9532192,17.437037 61.8600975,17.437037" id="Path"></path>
                <path d="M102.926764,15.5513228 C102.484436,15.4582011 101.320415,15.2719577 100.249516,15.3650794 C94.9648594,15.5513228 88.9817906,18.6708995 88.9817906,24.7470899 L88.9817906,25.2825397 L88.9817906,34.3153439 L88.9817906,43.6275132 C88.9817906,43.7206349 89.0749123,43.7206349 89.168034,43.7206349 L94.7087748,43.7206349 C94.8018965,43.7206349 94.8950181,43.7206349 94.8950181,43.6275132 L94.8950181,43.0920635 L94.8950181,24.7470899 C94.8950181,22.6984127 97.4093039,21.5343915 99.4579811,21.0687831 C100.086553,19.0899471 101.250574,17.5767196 103.043166,16.1566138 C103.275971,15.9238095 103.182849,15.5513228 102.926764,15.5513228" id="Path"></path>
                <path d="M31.525706,26.3767196 C31.525706,26.4698413 31.525706,26.4698413 31.4325843,26.562963 C31.4325843,26.6560847 31.3394626,26.6560847 31.2463409,26.6560847 L20.7003092,26.6560847 L20.7003092,24.7703704 C20.7003092,22.1862434 23.8198859,20.9291005 26.2410499,20.9291005 C28.5690922,20.9291005 31.525706,22.1862434 31.525706,24.7703704 L31.525706,26.3767196 Z M26.2643303,15.1089947 C20.8167113,15.2021164 14.8103621,18.3216931 14.8103621,24.6772487 L14.8103621,34.3386243 C14.8103621,40.7873016 20.7934308,43.8137566 26.2643303,43.9068783 C30.1987219,43.9068783 34.5754414,42.3005291 36.7405208,38.8084656 C36.8336425,38.7153439 36.7405208,38.5291005 36.6473991,38.4592593 C34.7616848,37.3883598 33.6907853,36.7597884 31.8283515,35.7820106 C31.7352298,35.7820106 31.7352298,35.7820106 31.6421081,35.8751323 C30.6643303,37.5746032 28.0569229,38.4592593 26.2643303,38.4592593 C23.8431663,38.4592593 20.7235896,36.9460317 20.7235896,34.3386243 L20.7235896,31.4751323 L35.8325843,31.4751323 C36.6473991,31.4751323 37.2526901,30.8465608 37.2526901,30.0550265 L37.2526901,24.7703704 C37.2526901,18.3216931 31.6188277,15.2021164 26.2643303,15.1089947 Z" id="Shape" fill-rule="nonzero"></path>
            </g>
        </g>
    </g>
</svg>