<?xml version="1.0" encoding="utf-8"?>
<!-- Generator: Adobe Illustrator 15.0.0, SVG Export Plug-In . SVG Version: 6.00 Build 0)  -->
<!DOCTYPE svg PUBLIC "-//W3C//DTD SVG 1.1//EN" "http://www.w3.org/Graphics/SVG/1.1/DTD/svg11.dtd">
<svg version="1.1" id="Layer_1" xmlns="http://www.w3.org/2000/svg" xmlns:xlink="http://www.w3.org/1999/xlink" x="0px" y="0px"
	 width="496px" height="74px" viewBox="0 0 496 74" enable-background="new 0 0 496 74" xml:space="preserve">
<g>
	<text transform="matrix(1 0 0 1 158.8906 56.207)" fill="#109AD7" font-family="'Raleway-Light'" font-size="64.8784">hippocamp</text>
</g>
<polygon fill="#6CC9F2" points="88.597,66.182 85.253,71.884 96.461,70.704 "/>
<polygon fill="#43BFEE" points="96.461,60.479 96.461,70.704 88.597,66.182 "/>
<polygon fill="#086FB0" points="85.253,59.447 88.597,66.182 96.461,60.479 "/>
<polygon fill="#108AC8" points="85.253,71.884 87.417,66.182 85.253,59.447 88.597,66.182 "/>
<polygon fill="#1C3F73" points="96.461,60.479 102.164,50.599 93.906,53.548 "/>
<polygon fill="#43BFEE" points="85.253,59.447 93.906,53.548 96.461,60.479 "/>
<polygon fill="#015090" points="76.307,57.014 85.253,59.447 86.925,48.682 "/>
<polygon fill="#109AD7" points="73.652,44.553 76.307,57.014 80.723,53.548 "/>
<polygon fill="#086FB0" points="70.605,49.641 75.351,52.525 73.652,44.553 "/>
<polygon fill="#43BFEE" points="86.925,48.682 73.652,44.553 80.723,53.548 "/>
<polygon fill="#1C3F73" points="93.906,53.548 86.925,48.682 85.253,59.447 "/>
<polygon fill="#108AC8" points="102.164,50.599 86.925,48.682 93.906,53.548 "/>
<polygon fill="#6CC9F2" points="112.634,49.051 103.49,43.667 111.38,42.192 "/>
<polygon fill="#015090" points="86.925,48.682 103.49,43.667 102.164,50.599 "/>
<polygon fill="#086FB0" points="112.634,49.051 104.671,46.617 102.164,50.599 103.49,43.667 "/>
<polygon fill="#108AC8" points="73.652,44.553 86.925,44.553 86.925,48.682 "/>
<polygon fill="#108AC8" points="67.951,41.014 73.652,44.553 80.289,38.851 "/>
<polygon fill="#086FB0" points="86.925,35.605 80.289,38.851 73.652,44.553 86.925,44.553 "/>
<polygon fill="#43BFEE" points="103.49,43.667 86.925,44.553 86.925,48.682 "/>
<polygon fill="#6CC9F2" points="86.925,35.605 103.49,43.667 86.925,44.553 "/>
<polygon fill="#43BFEE" points="123.473,43.078 112.634,49.051 111.38,42.192 "/>
<polygon fill="#108AC8" points="118.901,32.238 111.38,42.192 123.473,43.078 "/>
<polygon fill="#086FB0" points="103.49,43.667 118.901,32.238 111.38,42.192 "/>
<polygon fill="#108AC8" points="86.925,35.605 118.901,32.238 103.49,43.667 "/>
<polygon fill="#015090" points="80.289,38.851 84.271,31.477 86.925,35.605 "/>
<polygon fill="#43BFEE" points="90.857,26.463 97.052,31.477 103.49,25.873 "/>
<polygon fill="#1C3F73" points="64.214,32.238 67.951,41.014 77.188,29.019 "/>
<polygon fill="#109AD7" points="84.271,31.477 77.188,29.019 80.289,38.851 "/>
<polygon fill="#43BFEE" points="67.951,41.014 77.188,29.019 80.289,38.851 "/>
<polygon fill="#086FB0" points="84.271,31.477 90.857,26.463 86.925,35.605 "/>
<polygon fill="#6CC9F2" points="97.052,31.477 86.925,35.605 90.857,26.463 "/>
<polygon fill="#086FB0" points="118.901,32.238 97.052,31.477 86.925,35.605 "/>
<polygon fill="#1C3F73" points="128.708,37.658 123.473,43.078 118.901,32.238 "/>
<polygon fill="#109AD7" points="103.49,25.873 118.901,32.238 97.052,31.477 "/>
<polygon fill="#108AC8" points="142.079,22.629 128.708,24.693 136.082,37.658 "/>
<polygon fill="#015090" points="77.188,29.019 80.729,22.137 90.857,26.463 84.271,31.477 "/>
<polygon fill="#43BFEE" points="75.351,13.485 80.729,22.137 72.978,18.893 "/>
<polygon fill="#108AC8" points="64.214,32.238 72.978,18.893 77.188,29.019 "/>
<polygon fill="#6CC9F2" points="80.729,22.137 77.188,29.019 72.978,18.893 "/>
<polygon fill="#015090" points="75.351,13.485 69.327,17.811 68.873,25.145 72.978,18.893 "/>
<polygon fill="#086FB0" points="75.351,13.485 90.169,17.319 80.729,22.137 "/>
<polygon fill="#43BFEE" points="83.607,4.662 75.351,13.485 69.327,17.811 75.351,9.233 "/>
<polygon fill="#1C3F73" points="94.544,2.081 79.562,8.985 83.607,4.662 "/>
<polygon fill="#108AC8" points="79.562,8.985 90.169,17.319 75.351,13.485 "/>
<polygon fill="#6CC9F2" points="103.49,25.873 90.169,17.319 80.729,22.137 "/>
<polygon fill="#1C3F73" points="90.857,26.463 80.729,22.137 103.49,25.873 "/>
<polygon fill="#6CC9F2" points="94.544,2.081 90.169,17.319 79.562,8.985 "/>
<polygon fill="#086FB0" points="90.169,17.319 102.164,14.567 103.49,25.873 "/>
<polygon fill="#1C3F73" points="94.544,2.081 104.72,2.769 90.169,17.319 "/>
<polygon fill="#015090" points="113.273,2.081 104.72,2.769 90.169,17.319 102.164,14.567 "/>
<polygon fill="#086FB0" points="126.545,7.488 113.273,2.081 120.207,12.239 "/>
<polygon fill="#1C3F73" points="134.214,12.239 126.545,7.488 132.395,18.893 "/>
<polygon fill="#015090" points="142.079,22.629 132.395,18.893 128.708,24.693 "/>
<polygon fill="#1C3F73" points="142.079,22.629 145.126,31.477 136.082,37.658 "/>
<polygon fill="#6CC9F2" points="103.49,25.873 120.207,12.239 102.164,14.567 "/>
<polygon fill="#109AD7" points="128.708,24.693 103.49,25.873 120.207,12.239 "/>
<polygon fill="#108AC8" points="113.273,2.081 102.164,14.567 120.207,12.239 "/>
<polygon fill="#109AD7" points="128.708,37.658 136.082,37.658 128.708,24.693 "/>
<polygon fill="#6CC9F2" points="126.545,7.488 128.708,24.693 120.207,12.239 "/>
<polygon fill="#43BFEE" points="132.395,18.893 128.708,24.693 126.545,7.488 "/>
<polygon fill="#109AD7" points="134.214,12.239 142.079,22.629 132.395,18.893 "/>
<polygon fill="#6CC9F2" points="70.605,49.641 67.951,41.014 73.652,44.553 "/>
<polygon fill="#6CC9F2" points="128.708,24.693 118.901,32.238 103.49,25.873 "/>
<polygon fill="#43BFEE" points="128.708,37.658 118.901,32.238 128.708,24.693 "/>
<polygon fill="#109AD7" points="58.852,35.312 60.866,28.767 52.809,32.04 "/>
<polygon fill="#34BFF0" points="49.956,47.23 49.956,37.663 35.521,42.446 "/>
<polygon fill="#086FB0" points="49.956,25.914 39.549,22.725 47.438,18.529 "/>
<polygon fill="#108AC8" points="29.814,37.663 22.765,43.705 22.765,32.963 "/>
<polygon fill="#1C3F73" points="38.207,32.04 17.562,23.229 24.947,9.801 "/>
<polygon fill="#6CC9F2" points="12.695,48.236 14.708,29.774 0.778,41.188 "/>
</svg>
