<?xml version="1.0" encoding="utf-8"?>
<!-- Generator: Adobe Illustrator 15.0.0, SVG Export Plug-In . SVG Version: 6.00 Build 0)  -->
<!DOCTYPE svg PUBLIC "-//W3C//DTD SVG 1.1//EN" "http://www.w3.org/Graphics/SVG/1.1/DTD/svg11.dtd">
<svg version="1.1" id="Layer_1" xmlns="http://www.w3.org/2000/svg" xmlns:xlink="http://www.w3.org/1999/xlink" x="0px" y="0px"
	 width="496px" height="74px" viewBox="0 0 496 74" style="enable-background:new 0 0 496 74;" xml:space="preserve">
<style type="text/css">
<![CDATA[
	.st0{fill:#108AC8;}
	.st1{fill:#109AD7;}
	.st2{fill:#1C3F73;}
	.st3{enable-background:new    ;}
	.st4{fill:#34BFF0;}
	.st5{fill:#6CC9F2;}
	.st6{fill:#015090;}
	.st7{fill:#086FB0;}
	.st8{fill:#43BFEE;}
]]>
</style>
<g>
	<g class="st3">
		<path class="st1" d="M191.5,56.2h-3.2V37.4c0-8.3-2.9-12.5-8.4-12.5c-5.5,0-11.1,4.5-12.7,10.4v20.9h-3.2V8.8h3.2v21.7
			c2.7-5.3,8-8.6,13.6-8.6c7.5,0,10.7,5.7,10.7,14.9V56.2z"/>
		<path class="st1" d="M201.1,14.8v-6h3.2v6H201.1z M201.1,56.2V22.5h3.2v33.7H201.1z"/>
		<path class="st1" d="M217.5,48.9V70h-3.2V22.5h2.9v6.7c2.8-4.3,7.7-7.3,12.8-7.3c9.3,0,16.1,8.6,16.1,17.5
			c0,9.4-6.2,17.5-15.4,17.5C224.9,56.9,220.3,53.4,217.5,48.9z M242.8,39.4c0-7.7-5.9-14.6-13.4-14.6c-4.7,0-11.4,4.3-11.9,9.1V45
			c2.1,5,7.1,9,12.5,9C237.8,53.9,242.8,46.7,242.8,39.4z"/>
		<path class="st1" d="M257.2,48.9V70h-3.2V22.5h2.9v6.7c2.8-4.3,7.7-7.3,12.8-7.3c9.3,0,16.1,8.6,16.1,17.5
			c0,9.4-6.2,17.5-15.4,17.5C264.6,56.9,259.9,53.4,257.2,48.9z M282.5,39.4c0-7.7-5.9-14.6-13.4-14.6c-4.7,0-11.4,4.3-11.9,9.1V45
			c2.1,5,7.1,9,12.5,9C277.4,53.9,282.5,46.7,282.5,39.4z"/>
		<path class="st1" d="M291.3,39.4c0-9.5,7.2-17.5,16.5-17.5c9.3,0,16.5,8,16.5,17.5c0,9.4-7.1,17.5-16.5,17.5
			C298.3,56.9,291.3,48.8,291.3,39.4z M307.8,53.9c7.2,0,13.2-6.6,13.2-14.6c0-7.9-6-14.5-13.2-14.5c-7.1,0-13.2,6.7-13.2,14.7
			C294.6,47.5,300.5,53.9,307.8,53.9z"/>
		<path class="st1" d="M346.4,21.9c6.1,0,11,3,13.4,7.9l-3.2,1c-2-3.7-6-6-10.4-6c-7.4,0-13.2,6.2-13.2,14.4c0,8.1,6,14.7,13.2,14.7
			c4.7,0,9.6-2.9,10.6-6.2l3.2,0.9c-1.7,4.7-7.4,8.2-13.6,8.2c-9.5,0-16.7-8-16.7-17.6C329.7,29.6,336.7,21.9,346.4,21.9z"/>
		<path class="st1" d="M364.6,46.4c0-5.8,5.8-10,14.1-10c3.6,0,7.6,0.7,10.5,1.8v-3.3c0-6.4-4-10.4-10.1-10.4c-3.4,0-7.1,1.4-10.8,4
			l-1.3-2.2c4.3-2.9,8.4-4.4,12.3-4.4c8.1,0,13.2,5.1,13.2,13.3v16.5c0,1.1,0.5,1.6,1.4,1.6v2.9c-0.5,0.1-0.8,0.1-1.2,0.1
			c-1.6,0-3.1-1.2-3.1-2.9v-2.8c-3.1,4-8.2,6.3-13.8,6.3C369.5,56.9,364.6,52.3,364.6,46.4z M388.1,49.1c0.7-0.8,1.1-1.8,1.1-2.6v-6
			c-3.2-1.2-6.6-1.8-10.1-1.8c-6.7,0-11.3,3-11.3,7.5c0,4.5,3.8,8,8.6,8C381.4,54.3,386,52.2,388.1,49.1z"/>
		<path class="st1" d="M451.9,56.2h-3.2V37.4c0-8.5-2.7-12.5-8-12.5c-5.6,0-10.2,4.3-11.9,10.5v20.8h-3.2V37.4
			c0-8.6-2.6-12.5-8-12.5c-5.5,0-10.2,4.2-11.9,10.4v20.9h-3.2V22.5h3v8c2.9-5.5,7.6-8.6,13-8.6c5.6,0,9.3,3.7,10.1,9.1
			c3.2-6,7.7-9.1,13.2-9.1c7.4,0,10.3,5.5,10.3,14.9V56.2z"/>
		<path class="st1" d="M464.8,48.9V70h-3.2V22.5h2.9v6.7c2.8-4.3,7.7-7.3,12.8-7.3c9.3,0,16.1,8.6,16.1,17.5
			c0,9.4-6.2,17.5-15.4,17.5C472.2,56.9,467.5,53.4,464.8,48.9z M490.1,39.4c0-7.7-5.9-14.6-13.4-14.6c-4.7,0-11.4,4.3-11.9,9.1V45
			c2.1,5,7.1,9,12.5,9C485,53.9,490.1,46.7,490.1,39.4z"/>
	</g>
</g>
<polygon class="st5" points="88.6,66.2 85.3,71.9 96.5,70.7 "/>
<polygon class="st8" points="96.5,60.5 96.5,70.7 88.6,66.2 "/>
<polygon class="st7" points="85.3,59.4 88.6,66.2 96.5,60.5 "/>
<polygon class="st0" points="85.3,71.9 87.4,66.2 85.3,59.4 88.6,66.2 "/>
<polygon class="st2" points="96.5,60.5 102.2,50.6 93.9,53.5 "/>
<polygon class="st8" points="85.3,59.4 93.9,53.5 96.5,60.5 "/>
<polygon class="st6" points="76.3,57 85.3,59.4 86.9,48.7 "/>
<polygon class="st1" points="73.7,44.6 76.3,57 80.7,53.5 "/>
<polygon class="st7" points="70.6,49.6 75.4,52.5 73.7,44.6 "/>
<polygon class="st8" points="86.9,48.7 73.7,44.6 80.7,53.5 "/>
<polygon class="st2" points="93.9,53.5 86.9,48.7 85.3,59.4 "/>
<polygon class="st0" points="102.2,50.6 86.9,48.7 93.9,53.5 "/>
<polygon class="st5" points="112.6,49.1 103.5,43.7 111.4,42.2 "/>
<polygon class="st6" points="86.9,48.7 103.5,43.7 102.2,50.6 "/>
<polygon class="st7" points="112.6,49.1 104.7,46.6 102.2,50.6 103.5,43.7 "/>
<polygon class="st0" points="73.7,44.6 86.9,44.6 86.9,48.7 "/>
<polygon class="st0" points="68,41 73.7,44.6 80.3,38.9 "/>
<polygon class="st7" points="86.9,35.6 80.3,38.9 73.7,44.6 86.9,44.6 "/>
<polygon class="st8" points="103.5,43.7 86.9,44.6 86.9,48.7 "/>
<polygon class="st5" points="86.9,35.6 103.5,43.7 86.9,44.6 "/>
<polygon class="st8" points="123.5,43.1 112.6,49.1 111.4,42.2 "/>
<polygon class="st0" points="118.9,32.2 111.4,42.2 123.5,43.1 "/>
<polygon class="st7" points="103.5,43.7 118.9,32.2 111.4,42.2 "/>
<polygon class="st0" points="86.9,35.6 118.9,32.2 103.5,43.7 "/>
<polygon class="st6" points="80.3,38.9 84.3,31.5 86.9,35.6 "/>
<polygon class="st8" points="90.9,26.5 97.1,31.5 103.5,25.9 "/>
<polygon class="st2" points="64.2,32.2 68,41 77.2,29 "/>
<polygon class="st1" points="84.3,31.5 77.2,29 80.3,38.9 "/>
<polygon class="st8" points="68,41 77.2,29 80.3,38.9 "/>
<polygon class="st7" points="84.3,31.5 90.9,26.5 86.9,35.6 "/>
<polygon class="st5" points="97.1,31.5 86.9,35.6 90.9,26.5 "/>
<polygon class="st7" points="118.9,32.2 97.1,31.5 86.9,35.6 "/>
<polygon class="st2" points="128.7,37.7 123.5,43.1 118.9,32.2 "/>
<polygon class="st1" points="103.5,25.9 118.9,32.2 97.1,31.5 "/>
<polygon class="st0" points="142.1,22.6 128.7,24.7 136.1,37.7 "/>
<polygon class="st6" points="77.2,29 80.7,22.1 90.9,26.5 84.3,31.5 "/>
<polygon class="st8" points="75.4,13.5 80.7,22.1 73,18.9 "/>
<polygon class="st0" points="64.2,32.2 73,18.9 77.2,29 "/>
<polygon class="st5" points="80.7,22.1 77.2,29 73,18.9 "/>
<polygon class="st6" points="75.4,13.5 69.3,17.8 68.9,25.1 73,18.9 "/>
<polygon class="st7" points="75.4,13.5 90.2,17.3 80.7,22.1 "/>
<polygon class="st8" points="83.6,4.7 75.4,13.5 69.3,17.8 75.4,9.2 "/>
<polygon class="st2" points="94.5,2.1 79.6,9 83.6,4.7 "/>
<polygon class="st0" points="79.6,9 90.2,17.3 75.4,13.5 "/>
<polygon class="st5" points="103.5,25.9 90.2,17.3 80.7,22.1 "/>
<polygon class="st2" points="90.9,26.5 80.7,22.1 103.5,25.9 "/>
<polygon class="st5" points="94.5,2.1 90.2,17.3 79.6,9 "/>
<polygon class="st7" points="90.2,17.3 102.2,14.6 103.5,25.9 "/>
<polygon class="st2" points="94.5,2.1 104.7,2.8 90.2,17.3 "/>
<polygon class="st6" points="113.3,2.1 104.7,2.8 90.2,17.3 102.2,14.6 "/>
<polygon class="st7" points="126.5,7.5 113.3,2.1 120.2,12.2 "/>
<polygon class="st2" points="134.2,12.2 126.5,7.5 132.4,18.9 "/>
<polygon class="st6" points="142.1,22.6 132.4,18.9 128.7,24.7 "/>
<polygon class="st2" points="142.1,22.6 145.1,31.5 136.1,37.7 "/>
<polygon class="st5" points="103.5,25.9 120.2,12.2 102.2,14.6 "/>
<polygon class="st1" points="128.7,24.7 103.5,25.9 120.2,12.2 "/>
<polygon class="st0" points="113.3,2.1 102.2,14.6 120.2,12.2 "/>
<polygon class="st1" points="128.7,37.7 136.1,37.7 128.7,24.7 "/>
<polygon class="st5" points="126.5,7.5 128.7,24.7 120.2,12.2 "/>
<polygon class="st8" points="132.4,18.9 128.7,24.7 126.5,7.5 "/>
<polygon class="st1" points="134.2,12.2 142.1,22.6 132.4,18.9 "/>
<polygon class="st5" points="70.6,49.6 68,41 73.7,44.6 "/>
<polygon class="st5" points="128.7,24.7 118.9,32.2 103.5,25.9 "/>
<polygon class="st8" points="128.7,37.7 118.9,32.2 128.7,24.7 "/>
<polygon class="st1" points="58.9,35.3 60.9,28.8 52.8,32 "/>
<polygon class="st4" points="50,47.2 50,37.7 35.5,42.4 "/>
<polygon class="st7" points="50,25.9 39.5,22.7 47.4,18.5 "/>
<polygon class="st0" points="29.8,37.7 22.8,43.7 22.8,33 "/>
<polygon class="st2" points="38.2,32 17.6,23.2 24.9,9.8 "/>
<polygon class="st5" points="12.7,48.2 14.7,29.8 0.8,41.2 "/>
</svg>
