<?xml version="1.0" encoding="UTF-8"?>
<svg width="171px" height="44px" viewBox="0 0 171 44" version="1.1" xmlns="http://www.w3.org/2000/svg" xmlns:xlink="http://www.w3.org/1999/xlink">
    <!-- Generator: Sketch 52.5 (67469) - http://www.bohemiancoding.com/sketch -->
    <title>client-hscic</title>
    <desc>Created with Sketch.</desc>
    <g id="Page-1" stroke="none" stroke-width="1" fill="none" fill-rule="evenodd">
        <g id="client-hscic" transform="translate(-0.454239, -0.412158)">
            <path d="M5.617,0.516 C3.03,0.516 0.932,2.576 0.932,5.117 L0.932,38.861 L0.941,43.485 L60.665,43.461 C63.253,43.461 65.35,41.401 65.35,38.86 L65.35,0.516 L5.616,0.516 L5.617,0.516 Z" id="Path" fill="#FFFFFF"></path>
            <path d="M10.021,24.689 L10.074,24.689 C10.578,23.628 11.853,22.593 13.817,22.593 C17.241,22.593 18.462,25.008 18.462,27.609 L18.462,35.651 L15.276,35.651 L15.276,29.201 C15.276,27.795 15.171,25.458 12.94,25.458 C10.842,25.458 10.021,26.997 10.021,28.697 L10.021,35.65 L6.835,35.65 L6.835,15.583 L10.021,15.583 L10.021,24.688 L10.021,24.689 Z" id="Path" fill="#000000"></path>
            <path d="M27.223,26.442 C26.613,25.592 25.816,25.142 24.728,25.142 C23.878,25.142 22.869,25.539 22.869,26.494 C22.869,28.777 29.745,26.919 29.745,31.882 C29.745,34.91 26.851,35.971 24.251,35.971 C22.285,35.971 20.587,35.466 19.287,34.006 L21.411,32.015 C22.233,32.918 23.083,33.583 24.437,33.583 C25.367,33.583 26.561,33.13 26.561,32.122 C26.561,29.495 19.685,31.565 19.685,26.707 C19.685,23.867 22.233,22.593 24.809,22.593 C26.508,22.593 28.313,23.123 29.349,24.529 L27.225,26.441 L27.223,26.442 Z" id="Path" fill="#000000"></path>
            <path d="M39.382,26.734 C38.639,25.965 37.816,25.46 36.967,25.46 C34.631,25.46 33.224,27.292 33.224,29.282 C33.224,31.272 34.631,33.105 36.967,33.105 C37.949,33.105 38.851,32.679 39.436,31.909 L41.56,34.193 C40.259,35.493 38.082,35.972 36.968,35.972 C33.119,35.972 30.04,33.29 30.04,29.282 C30.04,25.274 33.119,22.593 36.968,22.593 C38.587,22.593 40.366,23.177 41.586,24.53 L39.383,26.734 L39.382,26.734 Z" id="Path" fill="#000000"></path>
            <path d="M42.781,22.912 L45.966,22.912 L45.966,35.653 L42.781,35.653 L42.781,22.912 Z M44.346,16.673 C45.514,16.673 46.417,17.496 46.417,18.584 C46.417,19.672 45.514,20.496 44.346,20.496 C43.178,20.496 42.329,19.593 42.329,18.584 C42.329,17.575 43.178,16.673 44.346,16.673 Z" id="Shape" fill="#000000" fill-rule="nonzero"></path>
            <path d="M56.531,26.734 C55.788,25.965 54.965,25.46 54.116,25.46 C51.779,25.46 50.373,27.292 50.373,29.282 C50.373,31.272 51.779,33.105 54.116,33.105 C55.098,33.105 56,32.679 56.585,31.909 L58.708,34.193 C57.408,35.493 55.232,35.972 54.117,35.972 C50.267,35.972 47.188,33.29 47.188,29.282 C47.188,25.274 50.267,22.593 54.117,22.593 C55.736,22.593 57.515,23.177 58.735,24.53 L56.531,26.734 Z" id="Path" fill="#000000"></path>
            <polygon id="Path" fill="#FFFFFF" points="71.239 15.635 72.363 15.635 72.363 19.078 76.662 19.078 76.662 15.635 77.785 15.635 77.785 23.927 76.662 23.927 76.662 20.132 72.363 20.132 72.363 23.927 71.239 23.927"></polygon>
            <path d="M83.033,20.694 C83.008,19.769 82.495,19.077 81.428,19.077 C80.385,19.077 79.706,19.956 79.706,20.694 L83.032,20.694 L83.033,20.694 Z M79.707,21.538 C79.707,22.51 80.609,23.153 81.581,23.153 C82.224,23.153 82.694,22.825 83.103,22.322 L83.9,22.93 C83.314,23.692 82.507,24.066 81.44,24.066 C79.684,24.066 78.582,22.801 78.582,21.15 C78.582,19.486 79.789,18.234 81.452,18.234 C83.408,18.234 84.158,19.734 84.158,21.162 L84.158,21.538 L79.707,21.538 Z" id="Shape" fill="#FFFFFF" fill-rule="nonzero"></path>
            <path d="M87.941,21.256 C86.945,21.256 85.728,21.431 85.728,22.322 C85.728,22.954 86.197,23.224 86.922,23.224 C88.093,23.224 88.502,22.358 88.502,21.608 L88.502,21.256 L87.941,21.256 Z M84.965,19.055 C85.551,18.504 86.394,18.235 87.166,18.235 C88.806,18.235 89.486,19.124 89.486,20.086 L89.486,22.92 C89.486,23.306 89.497,23.635 89.533,23.928 L88.595,23.928 C88.572,23.646 88.56,23.366 88.56,23.084 L88.537,23.084 C88.069,23.8 87.435,24.068 86.592,24.068 C85.561,24.068 84.671,23.483 84.671,22.404 C84.671,20.976 86.041,20.484 87.729,20.484 L88.5,20.484 L88.5,20.249 C88.5,19.676 88.079,19.078 87.177,19.078 C86.369,19.078 85.982,19.419 85.595,19.71 L84.963,19.056 L84.965,19.055 Z" id="Shape" fill="#FFFFFF" fill-rule="nonzero"></path>
            <polygon id="Path" fill="#FFFFFF" points="90.506 15.073 91.56 15.073 91.56 23.928 90.506 23.928"></polygon>
            <path d="M96.057,19.289 L94.546,19.289 L94.546,21.808 C94.546,22.428 94.546,23.083 95.343,23.083 C95.589,23.083 95.881,23.049 96.092,22.92 L96.092,23.88 C95.845,24.021 95.353,24.068 95.142,24.068 C93.514,24.068 93.491,23.073 93.491,22.182 L93.491,19.289 L92.273,19.289 L92.273,18.376 L93.491,18.376 L93.491,16.819 L94.546,16.819 L94.546,18.376 L96.057,18.376 L96.057,19.289 Z" id="Path" fill="#FFFFFF"></path>
            <path d="M96.865,15.073 L97.919,15.073 L97.919,19.231 L97.942,19.231 C98.213,18.646 98.915,18.235 99.771,18.235 C100.847,18.235 101.784,18.879 101.784,20.355 L101.784,23.927 L100.73,23.927 L100.73,20.647 C100.73,19.604 100.134,19.219 99.465,19.219 C98.587,19.219 97.919,19.781 97.919,21.07 L97.919,23.928 L96.865,23.928 L96.865,15.073 Z" id="Path" fill="#FFFFFF"></path>
            <path d="M109.058,16.479 C108.461,16.479 107.957,16.83 107.957,17.452 C107.957,18.001 108.414,18.471 108.777,18.832 C109.352,18.517 110.065,18.119 110.065,17.369 C110.064,16.818 109.643,16.48 109.058,16.48 L109.058,16.479 Z M108.507,20.015 C107.84,20.401 107.114,20.846 107.114,21.701 C107.114,22.51 107.875,23.154 108.672,23.154 C109.479,23.154 110.077,22.616 110.511,22.101 L108.507,20.015 Z M113.708,23.927 L112.197,23.927 L111.178,22.826 C110.475,23.669 109.749,24.138 108.636,24.138 C106.763,24.138 105.92,22.944 105.92,21.738 C105.92,20.578 106.798,19.841 107.805,19.36 C107.278,18.798 106.832,18.247 106.832,17.439 C106.832,16.174 107.862,15.495 109.046,15.495 C110.206,15.495 111.189,16.116 111.189,17.369 C111.189,18.412 110.3,19.068 109.469,19.501 L111.108,21.21 L112.151,19.511 L113.427,19.511 L111.822,21.995 L113.708,23.926 L113.708,23.927 Z" id="Shape" fill="#FFFFFF" fill-rule="nonzero"></path>
            <path d="M117.901,22.195 C118.3,22.803 118.99,23.084 119.659,23.084 C120.396,23.084 121.31,22.616 121.31,21.702 C121.31,19.793 117.221,20.976 117.221,17.744 C117.221,16.771 118.041,15.424 120.033,15.424 C120.935,15.424 121.802,15.612 122.422,16.372 L121.508,17.204 C121.227,16.77 120.677,16.478 120.033,16.478 C118.791,16.478 118.417,17.227 118.417,17.743 C118.417,19.839 122.503,18.585 122.503,21.573 C122.503,23.177 121.215,24.138 119.622,24.138 C118.556,24.138 117.537,23.775 116.976,22.989 L117.901,22.195 Z" id="Path" fill="#FFFFFF"></path>
            <path d="M126.029,23.083 C127.153,23.083 127.856,22.276 127.856,21.152 C127.856,20.028 127.153,19.219 126.029,19.219 C124.903,19.219 124.202,20.028 124.202,21.152 C124.202,22.276 124.904,23.083 126.029,23.083 Z M126.029,18.235 C127.681,18.235 128.981,19.535 128.981,21.151 C128.981,22.766 127.681,24.067 126.029,24.067 C124.377,24.067 123.078,22.767 123.078,21.151 C123.078,19.535 124.377,18.235 126.029,18.235 Z" id="Shape" fill="#FFFFFF" fill-rule="nonzero"></path>
            <path d="M133.677,19.851 C133.291,19.442 132.88,19.231 132.295,19.231 C131.146,19.231 130.561,20.156 130.561,21.198 C130.561,22.24 131.264,23.082 132.353,23.082 C132.939,23.082 133.348,22.872 133.7,22.462 L134.45,23.213 C133.899,23.822 133.15,24.067 132.343,24.067 C130.632,24.067 129.437,22.884 129.437,21.174 C129.437,19.464 130.608,18.246 132.343,18.246 C133.15,18.246 133.924,18.527 134.474,19.124 L133.677,19.851 Z" id="Path" fill="#FFFFFF"></path>
            <path d="M135.306,18.376 L136.36,18.376 L136.36,23.928 L135.306,23.928 L135.306,18.376 Z M135.832,15.611 C136.254,15.611 136.606,15.962 136.606,16.384 C136.606,16.805 136.254,17.158 135.832,17.158 C135.41,17.158 135.06,16.806 135.06,16.384 C135.06,15.962 135.411,15.611 135.832,15.611 Z" id="Shape" fill="#FFFFFF" fill-rule="nonzero"></path>
            <path d="M140.412,21.256 C139.417,21.256 138.198,21.431 138.198,22.322 C138.198,22.954 138.667,23.224 139.392,23.224 C140.564,23.224 140.974,22.358 140.974,21.608 L140.974,21.256 L140.412,21.256 Z M137.437,19.055 C138.022,18.504 138.866,18.235 139.638,18.235 C141.278,18.235 141.958,19.124 141.958,20.086 L141.958,22.92 C141.958,23.306 141.97,23.635 142.004,23.928 L141.068,23.928 C141.044,23.646 141.032,23.366 141.032,23.084 L141.009,23.084 C140.54,23.8 139.908,24.068 139.065,24.068 C138.034,24.068 137.144,23.483 137.144,22.404 C137.144,20.976 138.514,20.484 140.201,20.484 L140.974,20.484 L140.974,20.249 C140.974,19.676 140.552,19.078 139.651,19.078 C138.843,19.078 138.457,19.419 138.07,19.71 L137.437,19.056 L137.437,19.055 Z" id="Shape" fill="#FFFFFF" fill-rule="nonzero"></path>
            <polygon id="Path" fill="#FFFFFF" points="143.165 15.073 144.218 15.073 144.218 23.928 143.165 23.928"></polygon>
            <path d="M154.983,17.428 C154.513,16.818 153.741,16.479 152.979,16.479 C151.118,16.479 149.887,17.967 149.887,19.853 C149.887,21.598 151.047,23.086 152.979,23.086 C153.928,23.086 154.653,22.664 155.147,21.973 L156.095,22.687 C155.848,23.027 154.853,24.14 152.957,24.14 C150.321,24.14 148.693,21.938 148.693,19.853 C148.693,17.276 150.462,15.425 153.015,15.425 C154.103,15.425 155.252,15.835 155.919,16.714 L154.983,17.43 L154.983,17.428 Z" id="Path" fill="#FFFFFF"></path>
            <path d="M159.796,21.256 C158.8,21.256 157.582,21.431 157.582,22.322 C157.582,22.954 158.051,23.224 158.776,23.224 C159.947,23.224 160.358,22.358 160.358,21.608 L160.358,21.256 L159.796,21.256 Z M156.82,19.055 C157.407,18.504 158.248,18.235 159.022,18.235 C160.662,18.235 161.341,19.124 161.341,20.086 L161.341,22.92 C161.341,23.306 161.353,23.635 161.387,23.928 L160.451,23.928 C160.427,23.646 160.415,23.366 160.415,23.084 L160.392,23.084 C159.923,23.8 159.291,24.068 158.448,24.068 C157.418,24.068 156.528,23.483 156.528,22.404 C156.528,20.976 157.898,20.484 159.584,20.484 L160.358,20.484 L160.358,20.249 C160.358,19.676 159.936,19.078 159.034,19.078 C158.227,19.078 157.84,19.419 157.452,19.71 L156.82,19.056 L156.82,19.055 Z" id="Shape" fill="#FFFFFF" fill-rule="nonzero"></path>
            <path d="M162.443,18.376 L163.496,18.376 L163.496,19.231 L163.52,19.231 C163.789,18.646 164.492,18.235 165.182,18.235 C165.346,18.235 165.511,18.259 165.652,18.304 L165.605,19.441 C165.429,19.394 165.254,19.359 165.089,19.359 C164.058,19.359 163.496,19.921 163.496,21.14 L163.496,23.927 L162.443,23.927 L162.443,18.375 L162.443,18.376 Z" id="Path" fill="#FFFFFF"></path>
            <path d="M170.208,20.694 C170.185,19.769 169.67,19.077 168.603,19.077 C167.56,19.077 166.883,19.956 166.883,20.694 L170.208,20.694 Z M166.882,21.538 C166.882,22.51 167.784,23.153 168.755,23.153 C169.399,23.153 169.868,22.825 170.278,22.322 L171.075,22.93 C170.489,23.692 169.681,24.066 168.614,24.066 C166.859,24.066 165.756,22.801 165.756,21.15 C165.756,19.486 166.963,18.234 168.625,18.234 C170.582,18.234 171.331,19.734 171.331,21.162 L171.331,21.538 L166.881,21.538 L166.882,21.538 Z" id="Shape" fill="#FFFFFF" fill-rule="nonzero"></path>
            <polygon id="Path" fill="#FFFFFF" points="71.215 27.347 72.339 27.347 72.339 35.639 71.215 35.639"></polygon>
            <path d="M73.651,30.087 L74.705,30.087 L74.705,30.943 L74.728,30.943 C74.998,30.356 75.701,29.947 76.555,29.947 C77.633,29.947 78.57,30.59 78.57,32.067 L78.57,35.639 L77.517,35.639 L77.517,32.359 C77.517,31.316 76.92,30.931 76.252,30.931 C75.374,30.931 74.706,31.493 74.706,32.781 L74.706,35.639 L73.652,35.639 L73.652,30.087 L73.651,30.087 Z" id="Path" fill="#FFFFFF"></path>
            <path d="M80.375,31.002 L79.181,31.002 L79.181,30.088 L80.375,30.088 L80.375,28.846 C80.375,27.372 80.89,26.645 82.272,26.645 C82.507,26.645 82.765,26.657 83.057,26.727 L82.94,27.664 C82.741,27.583 82.554,27.559 82.343,27.559 C81.569,27.559 81.441,28.039 81.441,28.812 L81.441,30.087 L82.694,30.087 L82.694,31.001 L81.43,31.001 L81.43,35.64 L80.376,35.64 L80.376,31.002 L80.375,31.002 Z" id="Path" fill="#FFFFFF"></path>
            <path d="M85.786,34.796 C86.91,34.796 87.614,33.988 87.614,32.863 C87.614,31.74 86.911,30.931 85.786,30.931 C84.661,30.931 83.958,31.74 83.958,32.863 C83.958,33.988 84.66,34.796 85.786,34.796 Z M85.786,29.948 C87.437,29.948 88.737,31.247 88.737,32.863 C88.737,34.479 87.437,35.781 85.786,35.781 C84.134,35.781 82.835,34.48 82.835,32.863 C82.835,31.248 84.135,29.948 85.786,29.948 Z" id="Shape" fill="#FFFFFF" fill-rule="nonzero"></path>
            <path d="M89.65,30.087 L90.705,30.087 L90.705,30.943 L90.727,30.943 C90.997,30.356 91.701,29.947 92.391,29.947 C92.555,29.947 92.718,29.97 92.86,30.015 L92.813,31.152 C92.638,31.105 92.462,31.07 92.298,31.07 C91.268,31.07 90.706,31.632 90.706,32.85 L90.706,35.638 L89.651,35.638 L89.651,30.086 L89.65,30.087 Z" id="Path" fill="#FFFFFF"></path>
            <path d="M93.598,30.087 L94.581,30.087 L94.581,30.954 L94.605,30.954 C94.711,30.625 95.389,29.948 96.386,29.948 C97.205,29.948 97.768,30.298 98.119,30.978 C98.482,30.298 99.208,29.948 99.875,29.948 C101.585,29.948 101.984,31.166 101.984,32.408 L101.984,35.64 L100.93,35.64 L100.93,32.548 C100.93,31.705 100.754,30.931 99.736,30.931 C98.718,30.931 98.319,31.621 98.319,32.605 L98.319,35.639 L97.265,35.639 L97.265,32.735 C97.265,31.681 97.112,30.931 96.093,30.931 C95.332,30.931 94.653,31.505 94.653,32.757 L94.653,35.639 L93.6,35.639 L93.6,30.087 L93.598,30.087 Z" id="Path" fill="#FFFFFF"></path>
            <path d="M106.095,32.969 C105.099,32.969 103.881,33.145 103.881,34.035 C103.881,34.667 104.35,34.937 105.075,34.937 C106.246,34.937 106.655,34.07 106.655,33.321 L106.655,32.969 L106.094,32.969 L106.095,32.969 Z M103.121,30.767 C103.706,30.217 104.549,29.948 105.322,29.948 C106.962,29.948 107.642,30.837 107.642,31.799 L107.642,34.632 C107.642,35.018 107.653,35.346 107.688,35.64 L106.751,35.64 C106.728,35.358 106.716,35.078 106.716,34.796 L106.693,34.796 C106.223,35.51 105.592,35.779 104.749,35.779 C103.718,35.779 102.829,35.195 102.829,34.116 C102.829,32.687 104.199,32.195 105.885,32.195 L106.657,32.195 L106.657,31.96 C106.657,31.387 106.236,30.789 105.334,30.789 C104.527,30.789 104.139,31.129 103.752,31.422 L103.122,30.767 L103.121,30.767 Z" id="Shape" fill="#FFFFFF" fill-rule="nonzero"></path>
            <path d="M111.88,31.002 L110.369,31.002 L110.369,33.521 C110.369,34.14 110.369,34.796 111.166,34.796 C111.411,34.796 111.704,34.761 111.915,34.631 L111.915,35.592 C111.668,35.733 111.176,35.779 110.965,35.779 C109.337,35.779 109.314,34.784 109.314,33.893 L109.314,31 L108.095,31 L108.095,30.086 L109.314,30.086 L109.314,28.529 L110.368,28.529 L110.368,30.086 L111.879,30.086 L111.879,31.001 L111.88,31.002 Z" id="Path" fill="#FFFFFF"></path>
            <path d="M112.678,30.087 L113.731,30.087 L113.731,35.638 L112.678,35.638 L112.678,30.087 Z M113.203,27.324 C113.626,27.324 113.977,27.675 113.977,28.098 C113.977,28.521 113.626,28.872 113.203,28.872 C112.782,28.872 112.431,28.52 112.431,28.098 C112.431,27.676 112.782,27.324 113.203,27.324 Z" id="Shape" fill="#FFFFFF" fill-rule="nonzero"></path>
            <path d="M117.443,34.796 C118.569,34.796 119.271,33.988 119.271,32.863 C119.271,31.74 118.568,30.931 117.443,30.931 C116.318,30.931 115.618,31.74 115.618,32.863 C115.618,33.988 116.319,34.796 117.443,34.796 Z M117.443,29.948 C119.096,29.948 120.396,31.247 120.396,32.863 C120.396,34.479 119.097,35.781 117.443,35.781 C115.793,35.781 114.492,34.48 114.492,32.863 C114.492,31.248 115.793,29.948 117.443,29.948 Z" id="Shape" fill="#FFFFFF" fill-rule="nonzero"></path>
            <path d="M121.098,30.087 L122.151,30.087 L122.151,30.943 L122.175,30.943 C122.446,30.356 123.147,29.947 124.003,29.947 C125.081,29.947 126.018,30.59 126.018,32.067 L126.018,35.639 L124.964,35.639 L124.964,32.359 C124.964,31.316 124.367,30.931 123.699,30.931 C122.821,30.931 122.152,31.493 122.152,32.781 L122.152,35.639 L121.099,35.639 L121.099,30.087 L121.098,30.087 Z" id="Path" fill="#FFFFFF"></path>
            <path d="M136.747,29.14 C136.277,28.53 135.505,28.191 134.743,28.191 C132.881,28.191 131.651,29.677 131.651,31.563 C131.651,33.309 132.811,34.796 134.743,34.796 C135.693,34.796 136.418,34.375 136.911,33.683 L137.859,34.399 C137.612,34.739 136.616,35.85 134.72,35.85 C132.084,35.85 130.456,33.649 130.456,31.563 C130.456,28.986 132.225,27.136 134.779,27.136 C135.868,27.136 137.016,27.546 137.683,28.425 L136.747,29.141 L136.747,29.14 Z" id="Path" fill="#FFFFFF"></path>
            <path d="M142.426,32.408 C142.402,31.483 141.888,30.79 140.821,30.79 C139.778,30.79 139.101,31.668 139.101,32.408 L142.426,32.408 Z M139.101,33.249 C139.101,34.222 140.003,34.867 140.975,34.867 C141.618,34.867 142.087,34.538 142.497,34.036 L143.294,34.644 C142.709,35.405 141.9,35.78 140.835,35.78 C139.077,35.78 137.977,34.514 137.977,32.864 C137.977,31.2 139.184,29.948 140.846,29.948 C142.802,29.948 143.553,31.446 143.553,32.876 L143.553,33.25 L139.102,33.25 L139.101,33.249 Z" id="Shape" fill="#FFFFFF" fill-rule="nonzero"></path>
            <path d="M144.312,30.087 L145.366,30.087 L145.366,30.943 L145.389,30.943 C145.66,30.356 146.361,29.947 147.217,29.947 C148.295,29.947 149.232,30.59 149.232,32.067 L149.232,35.639 L148.178,35.639 L148.178,32.359 C148.178,31.316 147.581,30.931 146.913,30.931 C146.035,30.931 145.367,31.493 145.367,32.781 L145.367,35.639 L144.313,35.639 L144.313,30.087 L144.312,30.087 Z" id="Path" fill="#FFFFFF"></path>
            <path d="M153.342,31.002 L151.831,31.002 L151.831,33.521 C151.831,34.14 151.831,34.796 152.627,34.796 C152.873,34.796 153.165,34.761 153.377,34.631 L153.377,35.592 C153.131,35.733 152.64,35.779 152.428,35.779 C150.8,35.779 150.777,34.784 150.777,33.893 L150.777,31 L149.559,31 L149.559,30.086 L150.777,30.086 L150.777,28.529 L151.831,28.529 L151.831,30.086 L153.342,30.086 L153.342,31.001 L153.342,31.002 Z" id="Path" fill="#FFFFFF"></path>
            <path d="M154.174,30.087 L155.228,30.087 L155.228,30.943 L155.251,30.943 C155.521,30.356 156.223,29.947 156.914,29.947 C157.078,29.947 157.242,29.97 157.384,30.015 L157.337,31.152 C157.161,31.105 156.985,31.07 156.821,31.07 C155.791,31.07 155.229,31.632 155.229,32.85 L155.229,35.638 L154.175,35.638 L154.175,30.086 L154.174,30.087 Z" id="Path" fill="#FFFFFF"></path>
            <path d="M161.939,32.408 C161.916,31.483 161.401,30.79 160.335,30.79 C159.292,30.79 158.613,31.668 158.613,32.408 L161.939,32.408 Z M158.613,33.249 C158.613,34.222 159.515,34.867 160.487,34.867 C161.13,34.867 161.599,34.538 162.009,34.036 L162.806,34.644 C162.219,35.405 161.413,35.78 160.345,35.78 C158.59,35.78 157.487,34.514 157.487,32.864 C157.487,31.2 158.694,29.948 160.357,29.948 C162.312,29.948 163.063,31.446 163.063,32.876 L163.063,33.25 L158.612,33.25 L158.613,33.249 Z" id="Shape" fill="#FFFFFF" fill-rule="nonzero"></path>
        </g>
    </g>
</svg>