<?xml version="1.0" encoding="UTF-8"?>
<svg width="289px" height="82px" viewBox="0 0 289 82" version="1.1" xmlns="http://www.w3.org/2000/svg" xmlns:xlink="http://www.w3.org/1999/xlink">
    <!-- Generator: Sketch 52.5 (67469) - http://www.bohemiancoding.com/sketch -->
    <title>Group</title>
    <desc>Created with Sketch.</desc>
    <g id="Page-1" stroke="none" stroke-width="1" fill="none" fill-rule="evenodd">
        <g id="Group" fill="#FFFFFF">
            <polygon id="Path" points="1.03075872 59.6436691 4.72475872 59.6436691 4.72475872 73.3366691 12.9067587 73.3366691 12.9067587 76.4426691 1.03075872 76.4426691"></polygon>
            <path d="M19.7107587,74.2556691 C21.9937587,74.2556691 22.6727587,72.3016691 22.6727587,70.3736691 C22.6727587,68.4216691 21.9947587,66.4686691 19.7107587,66.4686691 C17.4507587,66.4686691 16.7697587,68.4206691 16.7697587,70.3736691 C16.7677587,72.3016691 17.4497587,74.2556691 19.7107587,74.2556691 Z M19.7107587,63.9506691 C23.5427587,63.9506691 26.0127587,66.4916691 26.0127587,70.3746691 C26.0127587,74.2306691 23.5437587,76.7706691 19.7107587,76.7706691 C15.9017587,76.7706691 13.4287587,74.2296691 13.4287587,70.3746691 C13.4287587,66.4906691 15.9017587,63.9506691 19.7107587,63.9506691 Z" id="Shape" fill-rule="nonzero"></path>
            <path d="M35.1657587,68.5596691 C34.9517587,67.1976691 34.0817587,66.4666691 32.6967587,66.4666691 C30.5547587,66.4666691 29.8477587,68.6296691 29.8477587,70.4196691 C29.8477587,72.1616691 30.5257587,74.2566691 32.6287587,74.2566691 C34.1757587,74.2566691 35.0697587,73.2686691 35.2837587,71.7876691 L38.5067587,71.7876691 C38.0837587,75.0066691 35.8497587,76.7706691 32.6457587,76.7706691 C28.9797587,76.7706691 26.5097587,74.1856691 26.5097587,70.5376691 C26.5097587,66.7516691 28.7667587,63.9516691 32.7197587,63.9516691 C35.5887587,63.9516691 38.2217587,65.4566691 38.4377587,68.5606691 L35.1667587,68.5606691 L35.1657587,68.5596691 Z" id="Path"></path>
            <path d="M47.1377587,70.4856691 C46.5737587,70.9836691 45.3977587,71.0026691 44.3677587,71.1926691 C43.3267587,71.4046691 42.3857587,71.7576691 42.3857587,72.9826691 C42.3857587,74.2306691 43.3517587,74.5306691 44.4337587,74.5306691 C47.0447587,74.5306691 47.1397587,72.4636691 47.1397587,71.7366691 L47.1397587,70.4856691 L47.1377587,70.4856691 Z M39.4217587,68.0166691 C39.6097587,64.8866691 42.4117587,63.9466691 45.1417587,63.9466691 C47.5597587,63.9466691 50.4817587,64.4896691 50.4817587,67.4096691 L50.4817587,73.7376691 C50.4817587,74.8406691 50.5967587,75.9456691 50.9067587,76.4416691 L47.5147587,76.4416691 C47.4007587,76.0676691 47.3077587,75.6656691 47.2797587,75.2636691 C46.2217587,76.3706691 44.6737587,76.7706691 43.1867587,76.7706691 C40.8797587,76.7706691 39.0467587,75.6166691 39.0467587,73.1276691 C39.0467587,70.3746691 41.1137587,69.7136691 43.1867587,69.4296691 C45.2327587,69.1286691 47.1367587,69.1946691 47.1367587,67.8326691 C47.1367587,66.3986691 46.1497587,66.1866691 44.9737587,66.1866691 C43.7037587,66.1866691 42.8767587,66.7036691 42.7637587,68.0186691 L39.4187587,68.0186691 L39.4217587,68.0166691 Z" id="Shape" fill-rule="nonzero"></path>
            <polygon id="Path" points="52.3367587 59.6436691 55.6797587 59.6436691 55.6797587 76.4426691 52.3367587 76.4426691"></polygon>
            <polygon id="Path" points="68.9927587 76.4396691 65.2757587 76.4396691 61.1177587 64.2766691 64.6197587 64.2766691 67.1827587 72.5816691 67.2307587 72.5816691 69.7957587 64.2766691 73.1137587 64.2766691"></polygon>
            <path d="M79.1097587,74.2556691 C81.3927587,74.2556691 82.0717587,72.3016691 82.0717587,70.3736691 C82.0717587,68.4216691 81.3937587,66.4686691 79.1097587,66.4686691 C76.8567587,66.4686691 76.1687587,68.4206691 76.1687587,70.3736691 C76.1667587,72.3016691 76.8567587,74.2556691 79.1097587,74.2556691 Z M79.1097587,63.9506691 C82.9417587,63.9506691 85.4157587,66.4916691 85.4157587,70.3746691 C85.4157587,74.2306691 82.9417587,76.7706691 79.1097587,76.7706691 C75.3007587,76.7706691 72.8277587,74.2296691 72.8277587,70.3746691 C72.8277587,66.4906691 75.2987587,63.9506691 79.1097587,63.9506691 Z" id="Shape" fill-rule="nonzero"></path>
            <path d="M86.3797587,64.2816691 L89.7197587,64.2816691 L89.7197587,76.4486691 L86.3797587,76.4486691 L86.3797587,64.2816691 Z M89.7207587,62.3966691 L86.3807587,62.3966691 L86.3807587,59.6436691 L89.7207587,59.6436691 L89.7207587,62.3966691 Z" id="Shape" fill-rule="nonzero"></path>
            <path d="M99.3397587,68.5596691 C99.1287587,67.1976691 98.2637587,66.4666691 96.8707587,66.4666691 C94.7327587,66.4666691 94.0257587,68.6296691 94.0257587,70.4196691 C94.0257587,72.1616691 94.7097587,74.2566691 96.8027587,74.2566691 C98.3547587,74.2566691 99.2467587,73.2686691 99.4597587,71.7876691 L102.682759,71.7876691 C102.259759,75.0066691 100.021759,76.7706691 96.8217587,76.7706691 C93.1557587,76.7706691 90.6857587,74.1856691 90.6857587,70.5376691 C90.6857587,66.7516691 92.9457587,63.9516691 96.8957587,63.9516691 C99.7627587,63.9516691 102.402759,65.4566691 102.615759,68.5606691 L99.3407587,68.5606691 L99.3397587,68.5596691 Z" id="Path"></path>
            <path d="M111.929759,69.0566691 C111.619759,67.3626691 110.896759,66.4656691 109.270759,66.4656691 C107.156759,66.4656691 106.544759,68.1116691 106.492759,69.0566691 L111.929759,69.0566691 Z M106.490759,71.1716691 C106.595759,73.2896691 107.627759,74.2556691 109.482759,74.2556691 C110.825759,74.2556691 111.905759,73.4276691 112.118759,72.6796691 L115.059759,72.6796691 C114.118759,75.5466691 112.118759,76.7666691 109.364759,76.7666691 C105.529759,76.7666691 103.152759,74.1356691 103.152759,70.3726691 C103.152759,66.7256691 105.672759,63.9486691 109.364759,63.9486691 C113.504759,63.9486691 115.503759,67.4306691 115.268759,71.1716691 L106.489759,71.1716691 L106.490759,71.1716691 Z" id="Shape" fill-rule="nonzero"></path>
            <path d="M119.009759,72.4896691 C119.037759,73.9516691 120.259759,74.5356691 121.574759,74.5356691 C122.540759,74.5356691 123.765759,74.1616691 123.765759,72.9816691 C123.765759,71.9716691 122.371759,71.6196691 119.975759,71.0986691 C118.043759,70.6806691 116.118759,69.9956691 116.118759,67.8536691 C116.118759,64.7516691 118.796759,63.9466691 121.410759,63.9466691 C124.071759,63.9466691 126.521759,64.8426691 126.771759,67.8306691 L123.598759,67.8306691 C123.502759,66.5376691 122.512759,66.1846691 121.315759,66.1846691 C120.561759,66.1846691 119.458759,66.3236691 119.458759,67.3126691 C119.458759,68.5156691 121.341759,68.6776691 123.242759,69.1256691 C125.199759,69.5726691 127.104759,70.2776691 127.104759,72.5316691 C127.104759,75.7316691 124.329759,76.7676691 121.546759,76.7676691 C118.724759,76.7676691 115.975759,75.7116691 115.834759,72.4886691 L119.008759,72.4886691 L119.009759,72.4896691 Z" id="Path"></path>
            <polygon id="Path" points="127.902759 72.8136691 131.597759 72.8136691 131.597759 76.4416691 127.902759 76.4416691"></polygon>
            <path d="M149.807759,74.5356691 C148.510759,76.2036691 146.815759,76.8436691 145.186759,76.8436691 C139.989759,76.8436691 136.934759,72.9616691 136.934759,68.1096691 C136.934759,63.1286691 139.989759,59.2406691 145.186759,59.2406691 C148.627759,59.2406691 151.879759,61.3606691 152.272759,65.1696691 L148.747759,65.1696691 C148.319759,63.3126691 146.932759,62.3506691 145.186759,62.3506691 C141.877759,62.3506691 140.627759,65.1696691 140.627759,68.1086691 C140.627759,70.9156691 141.877759,73.7346691 145.186759,73.7346691 C147.589759,73.7346691 148.984759,72.4406691 149.189759,70.1116691 L145.472759,70.1116691 L145.472759,67.3566691 L152.533759,67.3566691 L152.533759,76.4416691 L150.184759,76.4416691 L149.807759,74.5346691 L149.807759,74.5356691 Z" id="Path"></path>
            <polygon id="Path" points="154.445759 59.6436691 157.785759 59.6436691 157.785759 76.4426691 154.445759 76.4426691"></polygon>
            <path d="M165.024759,74.2556691 C167.302759,74.2556691 167.982759,72.3016691 167.982759,70.3736691 C167.982759,68.4216691 167.302759,66.4686691 165.024759,66.4686691 C162.768759,66.4686691 162.087759,68.4206691 162.087759,70.3736691 C162.089759,72.3016691 162.768759,74.2556691 165.024759,74.2556691 Z M165.024759,63.9506691 C168.852759,63.9506691 171.326759,66.4916691 171.326759,70.3746691 C171.326759,74.2306691 168.852759,76.7706691 165.024759,76.7706691 C161.218759,76.7706691 158.750759,74.2296691 158.750759,70.3746691 C158.750759,66.4906691 161.219759,63.9506691 165.024759,63.9506691 Z" id="Shape" fill-rule="nonzero"></path>
            <path d="M178.260759,66.4686691 C176.293759,66.4686691 175.419759,68.3256691 175.419759,70.3736691 C175.419759,72.3996691 176.295759,74.2556691 178.260759,74.2556691 C180.242759,74.2556691 181.116759,72.3986691 181.116759,70.3736691 C181.114759,68.3276691 180.242759,66.4686691 178.260759,66.4686691 Z M172.195759,59.6436691 L175.535759,59.6436691 L175.535759,65.7616691 L175.584759,65.7616691 C176.409759,64.5136691 177.918759,63.9466691 179.417759,63.9466691 C181.840759,63.9466691 184.449759,65.8986691 184.449759,70.3466691 C184.449759,74.8146691 181.839759,76.7696691 179.417759,76.7696691 C177.632759,76.7696691 176.147759,76.2336691 175.418759,74.8866691 L175.375759,74.8866691 L175.375759,76.4436691 L172.197759,76.4436691 L172.197759,59.6426691 L172.195759,59.6436691 Z" id="Shape" fill-rule="nonzero"></path>
            <path d="M193.321759,70.4856691 C192.757759,70.9836691 191.581759,71.0026691 190.546759,71.1926691 C189.515759,71.4046691 188.571759,71.7576691 188.571759,72.9826691 C188.571759,74.2306691 189.536759,74.5306691 190.617759,74.5306691 C193.225759,74.5306691 193.323759,72.4636691 193.323759,71.7366691 L193.323759,70.4856691 L193.321759,70.4856691 Z M185.606759,68.0166691 C185.794759,64.8866691 188.594759,63.9466691 191.320759,63.9466691 C193.744759,63.9466691 196.660759,64.4896691 196.660759,67.4096691 L196.660759,73.7376691 C196.660759,74.8406691 196.780759,75.9456691 197.088759,76.4416691 L193.698759,76.4416691 C193.578759,76.0676691 193.487759,75.6656691 193.461759,75.2636691 C192.405759,76.3706691 190.857759,76.7706691 189.368759,76.7706691 C187.059759,76.7706691 185.228759,75.6166691 185.228759,73.1276691 C185.228759,70.3746691 187.301759,69.7136691 189.368759,69.4296691 C191.414759,69.1286691 193.321759,69.1946691 193.321759,67.8326691 C193.321759,66.3986691 192.336759,66.1866691 191.154759,66.1866691 C189.886759,66.1866691 189.068759,66.7036691 188.946759,68.0186691 L185.606759,68.0186691 L185.606759,68.0166691 Z" id="Shape" fill-rule="nonzero"></path>
            <polygon id="Path" points="198.520759 59.6436691 201.865759 59.6436691 201.865759 76.4426691 198.520759 76.4426691"></polygon>
            <path d="M216.730759,68.5596691 C216.519759,67.1976691 215.649759,66.4666691 214.255759,66.4666691 C212.117759,66.4666691 211.414759,68.6296691 211.414759,70.4196691 C211.414759,72.1616691 212.094759,74.2566691 214.189759,74.2566691 C215.743759,74.2566691 216.633759,73.2686691 216.845759,71.7876691 L220.069759,71.7876691 C219.646759,75.0066691 217.410759,76.7706691 214.212759,76.7706691 C210.546759,76.7706691 208.073759,74.1856691 208.073759,70.5376691 C208.073759,66.7516691 210.330759,63.9516691 214.289759,63.9516691 C217.155759,63.9516691 219.791759,65.4566691 220.007759,68.5606691 L216.732759,68.5606691 L216.730759,68.5596691 Z" id="Path"></path>
            <path d="M221.129759,59.6436691 L224.469759,59.6436691 L224.469759,65.9706691 L224.539759,65.9706691 C225.385759,64.6086691 226.848759,63.9466691 228.090759,63.9466691 C231.647759,63.9466691 232.540759,65.9496691 232.540759,68.9616691 L232.540759,76.4426691 L229.201759,76.4426691 L229.201759,69.5726691 C229.201759,67.5696691 228.606759,66.5816691 227.059759,66.5816691 C225.243759,66.5816691 224.469759,67.5916691 224.469759,70.0616691 L224.469759,76.4406691 L221.129759,76.4406691 L221.129759,59.6446691 L221.129759,59.6436691 Z" id="Path"></path>
            <path d="M241.833759,70.4856691 C241.269759,70.9836691 240.088759,71.0026691 239.052759,71.1926691 C238.021759,71.4046691 237.081759,71.7576691 237.081759,72.9826691 C237.081759,74.2306691 238.046759,74.5306691 239.122759,74.5306691 C241.738759,74.5306691 241.834759,72.4636691 241.834759,71.7366691 L241.834759,70.4856691 L241.833759,70.4856691 Z M234.113759,68.0166691 C234.299759,64.8866691 237.101759,63.9466691 239.837759,63.9466691 C242.261759,63.9466691 245.177759,64.4896691 245.177759,67.4096691 L245.177759,73.7376691 C245.177759,74.8406691 245.288759,75.9456691 245.600759,76.4416691 L242.209759,76.4416691 C242.089759,76.0676691 241.999759,75.6656691 241.974759,75.2636691 C240.913759,76.3706691 239.364759,76.7706691 237.880759,76.7706691 C235.572759,76.7706691 233.737759,75.6166691 233.737759,73.1276691 C233.737759,70.3746691 235.810759,69.7136691 237.880759,69.4296691 C239.928759,69.1286691 241.834759,69.1946691 241.834759,67.8326691 C241.834759,66.3986691 240.842759,66.1866691 239.666759,66.1866691 C238.398759,66.1866691 237.575759,66.7036691 237.454759,68.0186691 L234.114759,68.0186691 L234.113759,68.0166691 Z" id="Shape" fill-rule="nonzero"></path>
            <path d="M246.465759,64.2756691 L249.637759,64.2756691 L249.637759,65.9696691 L249.714759,65.9696691 C250.558759,64.6076691 252.018759,63.9476691 253.425759,63.9476691 C256.980759,63.9476691 257.875759,65.9466691 257.875759,68.9596691 L257.875759,76.4376691 L254.535759,76.4376691 L254.535759,69.5716691 C254.535759,67.5746691 253.945759,66.5806691 252.393759,66.5806691 C250.582759,66.5806691 249.807759,67.5906691 249.807759,70.0626691 L249.807759,76.4366691 L246.464759,76.4366691 L246.464759,64.2756691 L246.465759,64.2756691 Z" id="Path"></path>
            <path d="M267.635759,70.2096691 C267.635759,68.2326691 266.955759,66.4666691 264.794759,66.4666691 C262.908759,66.4666691 262.088759,68.1126691 262.088759,69.9276691 C262.088759,71.6656691 262.742759,73.5666691 264.794759,73.5666691 C266.690759,73.5666691 267.635759,71.9466691 267.635759,70.2106691 L267.635759,70.2096691 Z M270.814759,75.6656691 C270.814759,77.6636691 270.100759,81.0516691 264.512759,81.0516691 C262.114759,81.0516691 259.308759,79.9196691 259.147759,77.1446691 L262.465759,77.1446691 C262.766759,78.3926691 263.784759,78.8156691 264.959759,78.8156691 C266.815759,78.8156691 267.654759,77.5456691 267.635759,75.8036691 L267.635759,74.2046691 L267.595759,74.2046691 C266.860759,75.4766691 265.400759,76.0876691 263.938759,76.0876691 C260.298759,76.0876691 258.744759,73.3106691 258.744759,69.9696691 C258.744759,66.8186691 260.555759,63.9486691 263.964759,63.9486691 C265.567759,63.9486691 266.785759,64.4876691 267.594759,65.8986691 L267.634759,65.8986691 L267.634759,64.2806691 L270.811759,64.2806691 L270.811759,75.6656691 L270.814759,75.6656691 Z" id="Shape" fill-rule="nonzero"></path>
            <path d="M280.388759,69.0566691 C280.085759,67.3626691 279.352759,66.4656691 277.727759,66.4656691 C275.609759,66.4656691 275.002759,68.1116691 274.952759,69.0566691 L280.388759,69.0566691 Z M274.952759,71.1716691 C275.048759,73.2896691 276.084759,74.2556691 277.945759,74.2556691 C279.283759,74.2556691 280.363759,73.4276691 280.576759,72.6796691 L283.521759,72.6796691 C282.576759,75.5466691 280.576759,76.7666691 277.820759,76.7666691 C273.988759,76.7666691 271.615759,74.1356691 271.615759,70.3726691 C271.615759,66.7256691 274.129759,63.9486691 277.820759,63.9486691 C281.969759,63.9486691 283.959759,67.4306691 283.724759,71.1716691 L274.953759,71.1716691 L274.952759,71.1716691 Z" id="Shape" fill-rule="nonzero"></path>
            <polygon id="Path" points="284.552759 72.8136691 288.247759 72.8136691 288.247759 76.4416691 284.552759 76.4416691"></polygon>
            <polygon id="Path" points="0.846758718 0.0206690833 11.0147587 0.0206690833 11.0147587 46.2796691 0.846758718 46.2796691"></polygon>
            <path d="M17.0377587,12.7856691 L25.7807587,12.7856691 L25.7807587,17.4476691 L25.9777587,17.4476691 C28.3047587,13.6916691 32.3287587,11.8746691 36.2107587,11.8746691 C45.9927587,11.8746691 48.4567587,17.3836691 48.4567587,25.6786691 L48.4567587,46.2806691 L39.2587587,46.2806691 L39.2587587,27.3626691 C39.2587587,21.8536691 37.6317587,19.1336691 33.3607587,19.1336691 C28.3777587,19.1336691 26.2407587,21.9216691 26.2407587,28.7266691 L26.2407587,46.2826691 L17.0407587,46.2826691 L17.0407587,12.7876691 L17.0377587,12.7856691 Z" id="Path"></path>
            <path d="M65.4417587,12.7856691 L72.1727587,12.7856691 L72.1727587,18.9436691 L65.4417587,18.9436691 L65.4417587,35.5266691 C65.4417587,38.6336691 66.2157587,39.4136691 69.3237587,39.4136691 C70.3007587,39.4136691 71.1987587,39.3506691 72.1727587,39.1546691 L72.1727587,46.3476691 C70.6157587,46.6036691 68.6147587,46.6656691 66.8017587,46.6656691 C61.1627587,46.6656691 56.2397587,45.3726691 56.2397587,38.7006691 L56.2397587,18.9456691 L50.6687587,18.9456691 L50.6687587,12.7876691 L56.2397587,12.7876691 L56.2397587,2.74566908 L65.4437587,2.74566908 L65.4437587,12.7876691 L65.4417587,12.7856691 Z" id="Path"></path>
            <path d="M98.4097587,25.9366691 C97.5737587,21.2746691 95.5607587,18.8086691 91.0867587,18.8086691 C85.2617587,18.8086691 83.5747587,23.3526691 83.4447587,25.9366691 L98.4097587,25.9366691 Z M83.4447587,31.7696691 C83.7007587,37.5926691 86.5587587,40.2576691 91.6737587,40.2576691 C95.3587587,40.2576691 98.3407587,37.9876691 98.9337587,35.9156691 L107.028759,35.9156691 C104.435759,43.8166691 98.9337587,47.1896691 91.3437587,47.1896691 C80.7947587,47.1896691 74.2457587,39.9286691 74.2457587,29.5696691 C74.2457587,19.5196691 81.1717587,11.8726691 91.3437587,11.8726691 C102.751759,11.8726691 108.260759,21.4616691 107.612759,31.7686691 L83.4437587,31.7686691 L83.4447587,31.7696691 Z" id="Shape" fill-rule="nonzero"></path>
            <path d="M111.786759,12.9226691 L120.531759,12.9226691 L120.531759,19.1386691 L120.666759,19.1386691 C122.346759,14.9296691 126.882759,12.0136691 131.347759,12.0136691 C131.997759,12.0136691 132.779759,12.1426691 133.360759,12.3406691 L133.360759,20.8946691 C132.520759,20.6956691 131.158759,20.5676691 130.056759,20.5676691 C123.318759,20.5676691 120.984759,25.4306691 120.984759,31.3256691 L120.984759,46.4196691 L111.786759,46.4196691 L111.786759,12.9246691 L111.786759,12.9226691 Z" id="Path"></path>
            <path d="M136.783759,12.9546691 L145.532759,12.9546691 L145.532759,17.6166691 L145.720759,17.6166691 C148.059759,13.8606691 152.078759,12.0486691 155.965759,12.0486691 C165.742759,12.0486691 168.200759,17.5526691 168.200759,25.8556691 L168.200759,46.4526691 L159.008759,46.4526691 L159.008759,27.5376691 C159.008759,22.0266691 157.384759,19.3056691 153.115759,19.3056691 C148.124759,19.3056691 145.990759,22.0926691 145.990759,28.8946691 L145.990759,46.4526691 L136.785759,46.4526691 L136.785759,12.9546691 L136.783759,12.9546691 Z" id="Path"></path>
            <path d="M195.891759,25.9366691 C195.051759,21.2746691 193.035759,18.8086691 188.570759,18.8086691 C182.741759,18.8086691 181.052759,23.3526691 180.925759,25.9366691 L195.892759,25.9366691 L195.891759,25.9366691 Z M180.925759,31.7696691 C181.183759,37.5926691 184.033759,40.2576691 189.152759,40.2576691 C192.843759,40.2576691 195.825759,37.9876691 196.403759,35.9156691 L204.504759,35.9156691 C201.914759,43.8166691 196.403759,47.1896691 188.825759,47.1896691 C178.270759,47.1896691 171.727759,39.9286691 171.727759,29.5696691 C171.727759,19.5196691 178.651759,11.8726691 188.825759,11.8726691 C200.224759,11.8726691 205.733759,21.4616691 205.088759,31.7686691 L180.923759,31.7686691 L180.925759,31.7696691 Z" id="Shape" fill-rule="nonzero"></path>
            <polygon id="Path" points="246.600759 46.2796691 237.146759 46.2796691 231.188759 23.8006691 231.051759 23.8006691 225.350759 46.2796691 215.831759 46.2796691 205.205759 12.7816691 214.929759 12.7816691 221.081759 35.5256691 221.210759 35.5256691 226.783759 12.7816691 235.719759 12.7816691 241.426759 35.4576691 241.552759 35.4576691 247.708759 12.7816691 257.167759 12.7816691"></polygon>
            <path d="M266.227759,35.3926691 C266.302759,39.4116691 269.656759,41.0356691 273.285759,41.0356691 C275.941759,41.0356691 279.306759,39.9996691 279.306759,36.7606691 C279.306759,33.9726691 275.489759,33.0046691 268.886759,31.5766691 C263.571759,30.4096691 258.260759,28.5286691 258.260759,22.6306691 C258.260759,14.0796691 265.643759,11.8746691 272.833759,11.8746691 C280.156759,11.8746691 286.894759,14.3436691 287.602759,22.5646691 L278.858759,22.5646691 C278.600759,19.0036691 275.880759,18.0336691 272.576759,18.0336691 C270.498759,18.0336691 267.457759,18.4226691 267.457759,21.1436691 C267.457759,24.4506691 272.636759,24.8976691 277.891759,26.1296691 C283.262759,27.3676691 288.508759,29.3106691 288.508759,35.5266691 C288.508759,44.3366691 280.864759,47.1896691 273.231759,47.1896691 C265.452759,47.1896691 257.868759,44.2746691 257.482759,35.3926691 L266.227759,35.3926691 Z" id="Path"></path>
        </g>
    </g>
</svg>