<?xml version="1.0" encoding="UTF-8"?>
<svg width="355px" height="100px" viewBox="0 0 355 100" version="1.1" xmlns="http://www.w3.org/2000/svg" xmlns:xlink="http://www.w3.org/1999/xlink">
    <!-- Generator: Sketch 52.5 (67469) - http://www.bohemiancoding.com/sketch -->
    <title>loqativ-logo (1)</title>
    <desc>Created with Sketch.</desc>
    <g id="Page-1" stroke="none" stroke-width="1" fill="none" fill-rule="evenodd">
        <g id="Artboard" transform="translate(-363.000000, -68.000000)" fill="#001A49" fill-rule="nonzero">
            <g id="loqativ-logo-(1)" transform="translate(362.500000, 68.259507)">
                <path d="M0.542113577,75.1830339 L0.542113577,4.45549693 L17.7245096,4.45549693 L17.7245096,60.2982839 L45.0964659,60.2982839 L36.8994637,75.1830339 L0.542113577,75.1830339 Z M104.935159,50.1087235 C104.935159,54.1712483 104.202583,57.8507748 102.737411,61.1474139 C101.272238,64.4440528 99.2743046,67.241159 96.7435515,69.5388166 C94.2127983,71.836474 91.2824965,73.6179643 87.9525582,74.8833409 C84.6226198,76.1487175 81.0596392,76.7813963 77.2635095,76.7813963 C73.5339786,76.7813963 69.9876475,76.1487175 66.6244097,74.8833409 C63.2611721,73.6179643 60.3308703,71.836474 57.8334164,69.5388166 C55.3359627,67.241159 53.354679,64.4440528 51.8895062,61.1474139 C50.4243333,57.8507748 49.6917579,54.1712483 49.6917579,50.1087235 C49.6917579,46.0461987 50.4243333,42.3833214 51.8895062,39.1199819 C53.354679,35.8566423 55.3359627,33.0928349 57.8334164,30.8284768 C60.3308703,28.5641188 63.2611721,26.8325768 66.6244097,25.633799 C69.9876475,24.4350212 73.5339786,23.8356413 77.2635095,23.8356413 C81.0596392,23.8356413 84.6226198,24.4350212 87.9525582,25.633799 C91.2824965,26.8325768 94.2127983,28.5641188 96.7435515,30.8284768 C99.2743046,33.0928349 101.272238,35.8566423 102.737411,39.1199819 C104.202583,42.3833214 104.935159,46.0461987 104.935159,50.1087235 Z M89.15133,50.1087235 C89.15133,48.5103531 88.8849389,46.9453055 88.3521488,45.4135339 C87.8193587,43.8817622 87.0534843,42.5331573 86.0545028,41.367679 C85.0555213,40.2022005 83.8234626,39.2531824 82.3582897,38.520596 C80.8931169,37.7880095 79.1948738,37.4217218 77.2635095,37.4217218 C75.3321453,37.4217218 73.6339022,37.7880095 72.1687293,38.520596 C70.7035565,39.2531824 69.4881473,40.2022005 68.5224651,41.367679 C67.556783,42.5331573 66.8242076,43.8817622 66.3247167,45.4135339 C65.8252261,46.9453055 65.5754844,48.5103531 65.5754844,50.1087235 C65.5754844,51.7070939 65.8252261,53.2721414 66.3247167,54.8039131 C66.8242076,56.3356847 67.5734324,57.7175883 68.5724139,58.9496656 C69.5713954,60.1817427 70.8034541,61.1640599 72.268627,61.8966463 C73.7337999,62.6292327 75.4320429,62.9955205 77.3634072,62.9955205 C79.2947714,62.9955205 80.9930145,62.6292327 82.4581874,61.8966463 C83.9233603,61.1640599 85.155419,60.1817427 86.1544005,58.9496656 C87.153382,57.7175883 87.902607,56.3356847 88.4020976,54.8039131 C88.9015885,53.2721414 89.15133,51.7070939 89.15133,50.1087235 Z M151.787157,99.1584701 L151.787157,69.6886631 L151.587362,69.6886631 C149.988991,71.8198236 147.841214,73.5014172 145.143963,74.7334944 C142.446713,75.9655715 139.56636,76.581601 136.502817,76.581601 C132.706687,76.581601 129.3435,75.8490255 126.413154,74.3838527 C123.482808,72.9186798 121.018691,70.970695 119.020728,68.5398401 C117.022765,66.108985 115.491016,63.2952294 114.425436,60.0984886 C113.359855,56.9017478 112.827073,53.5718594 112.827073,50.1087235 C112.827073,46.6455876 113.376505,43.3323485 114.475385,40.1689072 C115.574264,37.0054657 117.139312,34.225009 119.170574,31.8274533 C121.201837,29.4298977 123.665954,27.5318613 126.563,26.1332872 C129.460047,24.7347131 132.706688,24.0354366 136.303021,24.0354366 C140.032552,24.0354366 143.245895,24.7846614 145.943145,26.2831337 C148.640395,27.7816059 150.754874,29.5297974 152.286645,31.5277604 L152.586338,31.5277604 L152.586338,25.4340037 L168.070474,25.4340037 L168.070474,99.1584701 L151.787157,99.1584701 Z M152.386543,50.2086211 C152.386543,48.6102507 152.103503,47.0452032 151.537413,45.5134315 C150.971324,43.9816599 150.17215,42.6164056 149.139869,41.4176278 C148.107589,40.21885 146.85888,39.2531824 145.393708,38.520596 C143.928535,37.7880095 142.26359,37.4217218 140.398825,37.4217218 C138.467461,37.4217218 136.769218,37.7880095 135.304045,38.520596 C133.838872,39.2531824 132.606813,40.2022005 131.607832,41.367679 C130.60885,42.5331573 129.859625,43.8817622 129.360135,45.4135339 C128.860644,46.9453055 128.610902,48.5103531 128.610902,50.1087235 C128.610902,51.7070939 128.860644,53.2887908 129.360135,54.8538619 C129.859625,56.4189328 130.60885,57.8008366 131.607832,58.9996144 C132.606813,60.1983922 133.838872,61.1640599 135.304045,61.8966463 C136.769218,62.6292327 138.467461,62.9955205 140.398825,62.9955205 C142.26359,62.9955205 143.928535,62.6292327 145.393708,61.8966463 C146.85888,61.1640599 148.107589,60.1983922 149.139869,58.9996144 C150.17215,57.8008366 150.971324,56.4355824 151.537413,54.9038107 C152.103503,53.3720391 152.386543,51.8069915 152.386543,50.2086211 Z M210.32718,53.5052436 L208.22933,53.5052436 C206.431164,53.5052436 204.616373,53.5884907 202.784908,53.7549877 C200.953442,53.9214846 199.321796,54.2378241 197.889923,54.7040154 C196.45805,55.1702068 195.275939,55.8528338 194.343556,56.7519173 C193.411174,57.6510005 192.944989,58.833111 192.944989,60.2982839 C192.944989,61.2306666 193.161432,62.0298398 193.594324,62.6958275 C194.027216,63.3618152 194.576648,63.8945973 195.242635,64.2941899 C195.908623,64.6937825 196.674497,64.9768229 197.540281,65.1433199 C198.406065,65.3098168 199.238537,65.3930641 200.037722,65.3930641 C203.367661,65.3930641 205.915025,64.4773447 207.679892,62.6458787 C209.44476,60.8144125 210.32718,58.3336457 210.32718,55.2035037 L210.32718,53.5052436 Z M180.257988,32.2270439 C183.188333,29.4298957 186.601469,27.332066 190.497497,25.9334919 C194.393525,24.5349178 198.372741,23.8356413 202.435266,23.8356413 C206.630989,23.8356413 210.17732,24.3517739 213.074366,25.3840549 C215.971412,26.4163356 218.318984,28.0146821 220.11715,30.1791421 C221.915318,32.3436019 223.230622,35.0741104 224.063107,38.3707495 C224.895592,41.6673883 225.311828,45.5800073 225.311828,50.1087235 L225.311828,75.1830339 L210.32718,75.1830339 L210.32718,69.8884584 L210.027487,69.8884584 C208.762112,71.9530201 206.847425,73.5513666 204.283372,74.6835456 C201.719319,75.8157247 198.938864,76.3818057 195.941919,76.3818057 C193.943956,76.3818057 191.879425,76.1154146 189.748265,75.5826245 C187.617104,75.0498343 185.669119,74.1840634 183.904252,72.9852856 C182.139385,71.7865077 180.690883,70.1881613 179.558704,68.1901983 C178.426525,66.1922353 177.860444,63.7281179 177.860444,60.7977721 C177.860444,57.2014387 178.842761,54.3044358 180.807425,52.1066765 C182.772089,49.9089172 185.302804,48.2106741 188.399646,47.0118963 C191.496489,45.8131185 194.942923,45.0139453 198.739053,44.6143527 C202.535183,44.2147601 206.231359,44.0149668 209.827692,44.0149668 L209.827692,43.2157856 C209.827692,40.7516312 208.961921,38.9368419 207.230353,37.7713636 C205.498785,36.6058851 203.367657,36.0231547 200.836903,36.0231547 C198.505948,36.0231547 196.258272,36.5226379 194.093812,37.5216194 C191.929353,38.520601 190.081264,39.7193608 188.549493,41.1179349 L180.257988,32.2270439 Z M255.281123,37.7214148 L255.281123,56.7019684 C255.281123,59.0329253 255.730659,60.7811166 256.629741,61.9465951 C257.528824,63.1120734 259.143822,63.694804 261.474778,63.694804 C262.273963,63.694804 263.123085,63.6282062 264.022168,63.4950087 C264.921251,63.3618112 265.670477,63.1620179 266.269865,62.8956228 L266.46966,74.8833409 C265.337482,75.2829335 263.905629,75.6325717 262.174061,75.9322663 C260.442493,76.2319606 258.710951,76.3818057 256.979383,76.3818057 C253.649445,76.3818057 250.852339,75.9655695 248.587981,75.133085 C246.323623,74.3006004 244.508834,73.1018405 243.143559,71.5367696 C241.778283,69.9716985 240.795968,68.106961 240.196578,65.9425012 C239.59719,63.7780411 239.297499,61.3638721 239.297499,58.6999215 L239.297499,37.7214148 L231.305687,37.7214148 L231.305687,25.4340037 L239.197601,25.4340037 L239.197601,12.3474114 L255.281123,12.3474114 L255.281123,25.4340037 L266.969148,25.4340037 L266.969148,37.7214148 L255.281123,37.7214148 Z M292.443049,9.55027713 C292.443049,10.8156537 292.193307,11.9977641 291.693817,13.0966437 C291.194327,14.1955234 290.528349,15.1445416 289.695864,15.9437268 C288.863379,16.742912 287.864412,17.3755908 286.698934,17.8417822 C285.533457,18.3079735 284.318048,18.5410657 283.05267,18.5410657 C280.388719,18.5410657 278.157695,17.6586453 276.359528,15.893778 C274.561362,14.1289106 273.662291,12.0144315 273.662291,9.55027713 C273.662291,8.35149933 273.895384,7.20268783 274.361575,6.10380817 C274.827767,5.00492852 275.493745,4.05591032 276.359528,3.25672512 C277.225313,2.45753992 278.224279,1.80821168 279.356457,1.30872093 C280.488637,0.809230176 281.720695,0.559488546 283.05267,0.559488546 C284.318048,0.559488546 285.533457,0.792580734 286.698934,1.2587721 C287.864412,1.72496347 288.863379,2.35764226 289.695864,3.15682747 C290.528349,3.95601267 291.194327,4.90503087 291.693817,6.00391052 C292.193307,7.10279018 292.443049,8.28490056 292.443049,9.55027713 Z M274.861063,75.1830339 L274.861063,25.4340037 L291.244278,25.4340037 L291.244278,75.1830339 L274.861063,75.1830339 Z M334.999449,75.1830339 L317.317564,75.1830339 L297.737625,25.4340037 L315.8191,25.4340037 L326.308353,57.7009449 L326.608046,57.7009449 L337.097299,25.4340037 L354.579388,25.4340037 L334.999449,75.1830339 Z" id="Loqativ-Copy"></path>
            </g>
        </g>
    </g>
</svg>