<?xml version="1.0" encoding="UTF-8"?>
<svg width="257px" height="104px" viewBox="0 0 257 104" version="1.1" xmlns="http://www.w3.org/2000/svg" xmlns:xlink="http://www.w3.org/1999/xlink">
    <!-- Generator: Sketch 52.5 (67469) - http://www.bohemiancoding.com/sketch -->
    <title>NHS</title>
    <desc>Created with Sketch.</desc>
    <g id="Page-1" stroke="none" stroke-width="1" fill="none" fill-rule="evenodd">
        <g id="sprite-clients" transform="translate(-741.330447, -0.427933)">
            <g id="NHS" transform="translate(741.500000, 0.536134)">
                <polygon id="Path" fill="#FFFFFF" points="0.445 0.437 256.777 0.437 256.777 103.562 0.445 103.562"></polygon>
                <polygon id="Path" fill="#000000" points="29.177 11.651 56.205 11.651 72.799 67.469 73.028 67.469 84.396 11.651 104.815 11.651 87.65 92.146 60.737 92.146 43.795 36.448 43.564 36.448 32.31 92.146 11.893 92.146"></polygon>
                <polygon id="Path" fill="#000000" points="120.619 11.651 142.321 11.651 135.933 42.444 161.578 42.444 167.955 11.651 189.649 11.651 172.827 92.146 151.133 92.146 158.324 57.664 132.688 57.664 125.491 92.146 103.8 92.146"></polygon>
                <path d="M246.727,29.876 C242.547,27.91 236.862,26.185 228.859,26.185 C220.271,26.185 213.314,27.451 213.314,33.908 C213.314,45.328 244.759,41.062 244.759,65.507 C244.759,87.764 223.988,93.532 205.194,93.532 C196.84,93.532 187.209,91.569 180.135,89.384 L185.241,73.005 C189.532,75.776 198.121,77.619 205.195,77.619 C211.923,77.619 222.48,76.356 222.48,68.045 C222.48,55.131 191.044,59.974 191.044,37.26 C191.044,16.503 209.372,10.272 227.12,10.272 C237.1,10.272 246.494,11.315 251.948,13.846 L246.728,29.877 L246.727,29.876 Z" id="Path" fill="#000000"></path>
            </g>
        </g>
    </g>
</svg>