<?xml version="1.0" encoding="UTF-8"?>
<svg width="370px" height="81px" viewBox="0 0 370 81" version="1.1" xmlns="http://www.w3.org/2000/svg" xmlns:xlink="http://www.w3.org/1999/xlink">
    <!-- Generator: Sketch 52.5 (67469) - http://www.bohemiancoding.com/sketch -->
    <title>Parity</title>
    <desc>Created with Sketch.</desc>
    <g id="Page-1" stroke="none" stroke-width="1" fill="none" fill-rule="evenodd">
        <g id="Parity" transform="translate(0.537112, 0.804201)" fill="#00000B">
            <polygon id="Path" points="111.285 41.59 118.748 41.59 115.017 32.922"></polygon>
            <path d="M175.096,30.289 L167.688,30.289 L167.688,38.906 L174.492,38.906 C174.492,38.906 178.279,37.643 178.333,34.599 C178.387,31.555 175.098,30.29 175.098,30.29 L175.096,30.289 Z" id="Path"></path>
            <path d="M64.375,31.169 C61.576,31.169 56.968,31.169 56.968,31.169 L56.968,39.619 L65.748,39.619 C65.748,39.619 68.381,38.136 68.381,35.778 C68.378,33.416 67.172,31.169 64.375,31.169 Z" id="Path"></path>
            <path d="M328.721,0.168 L224,0.168 L224,12.569 L207.027,12.569 L207.027,0.168 L39.869,0.168 C17.87,0.168 0.037,18.001 0.037,40.002 C0.037,62.001 17.87,79.832 39.869,79.832 L328.721,79.832 C350.718,79.832 368.551,62.001 368.551,40.002 C368.551,18.001 350.718,0.168 328.721,0.168 Z M69.423,48.67 L56.842,48.67 L56.842,60.961 L39.869,60.961 L39.869,21.166 L70.01,21.166 C70.01,21.166 84.933,22.044 84.933,36.09 C84.933,50.135 70.598,48.671 69.425,48.671 L69.423,48.67 Z M126.775,60.96 L122.679,53.06 L107.463,53.06 L103.367,60.96 L86.98,60.96 L103.367,21.165 L125.314,21.165 L142.286,60.96 L126.778,60.96 L126.775,60.96 Z M178.204,60.96 C178.204,60.96 178.351,47.205 172.717,47.646 L167.084,47.646 L167.084,60.96 L151.063,60.96 L151.063,21.165 L182.958,21.165 C182.958,21.165 193.785,21.456 193.785,31.113 C193.785,40.77 187.054,41.061 187.054,41.061 L187.567,42.307 C187.567,42.307 194.371,46.258 194.371,60.961 L178.204,60.961 L178.204,60.96 Z M223.999,60.96 L207.026,60.96 L207.026,20.872 L223.999,20.872 L223.999,60.96 Z M280.621,32.942 L266.061,32.942 L266.061,60.96 L248.723,60.96 L248.723,33.161 L233.948,33.161 L233.948,21.163 L280.62,20.87 L280.62,32.941 L280.621,32.942 Z M321.147,47.351 L321.147,60.74 L303.958,60.74 L303.958,47.426 L287.571,20.871 L304.98,20.871 L312.699,35.868 L320.198,20.871 L337.829,20.871 L321.147,47.351 Z" id="Shape" fill-rule="nonzero"></path>
        </g>
    </g>
</svg>