<?xml version="1.0" encoding="utf-8"?>
<!-- Generator: Adobe Illustrator 15.0.0, SVG Export Plug-In . SVG Version: 6.00 Build 0)  -->
<!DOCTYPE svg PUBLIC "-//W3C//DTD SVG 1.1//EN" "http://www.w3.org/Graphics/SVG/1.1/DTD/svg11.dtd">
<svg version="1.1" id="svg2616" xmlns:svg="http://www.w3.org/2000/svg"
	 xmlns="http://www.w3.org/2000/svg" xmlns:xlink="http://www.w3.org/1999/xlink" x="0px" y="0px" width="1024px" height="436px"
	 viewBox="0 0 1024 436" enable-background="new 0 0 1024 436" xml:space="preserve">
<path id="path2536" d="M299.775,418.892h47.05c35.911,0,67.277-8.579,67.277-44.309c0-23.342-16.949-38.105-40.978-40.015
	c22.259-5.716,36.424-17.148,36.424-40.014c0-30.733-25.295-41.923-61.97-41.923h-47.804V418.892z M325.069,343.148h16.438
	c21.755,0,45.782,3.574,45.782,29.293c0,22.389-20.488,26.916-43.25,26.916h-18.971V343.148z M325.069,272.166h26.562
	c14.668,0,32.623,4.996,32.623,24.766c0,24.539-20.739,26.682-45.271,26.682h-13.914V272.166z M570.326,256.761
	c-12.647-5.239-26.049-7.147-39.711-7.147c-53.876,0-93.335,34.063-93.335,85.276c0,52.879,37.187,86.699,93.083,86.699
	c10.366,0,26.812-0.711,40.215-5.95l-1.519-23.108c-8.848,5.005-25.797,8.093-38.444,8.093c-36.675,0-66.522-25.962-66.522-65.022
	c0-37.395,27.063-65.03,67.789-65.03c12.898,0,25.294,3.097,36.423,9.29L570.326,256.761z M202.97,306.89l-27.211,62.134h54.726
	L202.97,306.89z M239.974,390.154H165.74l-13.341,28.92h-26.083l75.518-165.383l76.421,165.383H252.51L239.974,390.154z
	 M104.899,255.763c-12.136-4.051-26.049-5.959-37.681-5.959c-31.878,0-56.661,15.727-56.661,45.263
	c0,51.689,75.883,41.445,75.883,78.606c0,19.525-20.237,27.15-34.653,27.15c-12.899,0-28.079-4.763-36.675-8.103l-2.533,22.154
	c11.632,3.574,23.776,6.913,36.172,6.913c35.408,0,64.502-14.061,64.502-49.547c0-54.787-75.883-47.405-75.883-79.317
	c0-17.392,16.689-22.154,30.854-22.154c13.159,0,20.237,2.143,33.136,6.904L104.899,255.763z"/>
<path id="path2540" fill="#FEB912" d="M580.528,25.581c0,0,154.194-52.636,313.22,39.642l1.084,55.646
	c0,0,59.158-17.366,115.056,3.253l-54.812,47.474c0,0-142.753-157.108-362.021-97.949L580.528,25.581z"/>
<path id="path2544" fill="#009247" d="M526.292,148.835l24.713,40.951c0,0,177.467-102.296,334.324,46.138l37.455-32.294
	C922.784,203.63,756.151,25.096,526.292,148.835"/>
<path id="path2548" fill="#0060AF" d="M685.331,201.46c0,0,92.528-10.591,166.624,65.665l-35.547,35.547
	c0,0-36.632-50.476-131.077-54.812V201.46z"/>
<path id="path2552" fill="#ED1C24" d="M684.247,296.163c0,0,52.384-8.422,99.866,35.548l-97.698,90.1L684.247,296.163z"/>
</svg>
