<?xml version="1.0" encoding="UTF-8"?>
<svg width="142px" height="59px" viewBox="0 0 142 59" version="1.1" xmlns="http://www.w3.org/2000/svg" xmlns:xlink="http://www.w3.org/1999/xlink">
    <!-- Generator: Sketch 52.5 (67469) - http://www.bohemiancoding.com/sketch -->
    <title>sabc-logo</title>
    <desc>Created with Sketch.</desc>
    <g id="Page-1" stroke="none" stroke-width="1" fill="none" fill-rule="evenodd">
        <g id="Artboard" transform="translate(-4751.000000, -2387.000000)">
            <g id="sabc-logo" transform="translate(4751.287745, 2387.430610)">
                <path d="M40.9488798,57.7818209 L47.5978053,57.7818209 C52.6725023,57.7818209 57.1049308,56.5694953 57.1049308,51.5203761 C57.1049308,48.2218443 54.7098141,46.1356381 51.3142002,45.8657299 C54.4596898,45.0579839 56.4613907,43.4424919 56.4613907,40.2112251 C56.4613907,35.8682478 52.8868743,34.2869535 47.7042141,34.2869535 L40.9488798,34.2869535 L40.9488798,57.7818209 Z M44.5233962,47.0781968 L46.846302,47.0781968 C49.9205698,47.0781968 53.3159011,47.5832501 53.3159011,51.2176833 C53.3159011,54.3815436 50.420677,55.0212683 47.2041069,55.0212683 L44.5232549,55.0212683 L44.5232549,47.0781968 L44.5233962,47.0781968 Z M44.5233962,37.0475061 L48.2769564,37.0475061 C50.3497378,37.0475061 52.8870156,37.7535066 52.8870156,40.5472678 C52.8870156,44.0149515 49.956322,44.3177856 46.4896275,44.3177856 L44.5233962,44.3177856 L44.5233962,37.0475061 Z M79.1814381,34.8705768 C77.3942505,34.1302372 75.5003715,33.8606117 73.5697511,33.8606117 C65.9563633,33.8606117 60.3802873,38.6741619 60.3802873,45.9112328 C60.3802873,53.3837314 65.6352998,58.1629425 73.5341402,58.1629425 C74.9989924,58.1629425 77.3230287,58.0624688 79.217049,57.3221292 L79.0023943,54.0566647 C77.7520554,54.763937 75.3569387,55.2003121 73.5697511,55.2003121 C68.387091,55.2003121 64.1693171,51.5315398 64.1693171,46.0118477 C64.1693171,40.7274421 67.9936751,36.8222529 73.7487949,36.8222529 C75.5714521,36.8222529 77.32317,37.2598998 78.8958442,38.1350522 L79.1814381,34.8705768 Z M27.2692006,41.9544643 L23.4239282,50.7348162 L31.1574322,50.7348162 L27.2692006,41.9544643 Z M32.4983528,53.7207633 L22.0081116,53.7207633 L20.1228528,57.8075399 L16.4369816,57.8075399 L27.1086689,34.4367454 L37.9079619,57.8075399 L34.2698546,57.8075399 L32.4983528,53.7207633 Z M13.4104776,34.7295463 C11.6955011,34.1570867 9.72941111,33.8874612 8.08565643,33.8874612 C3.58087549,33.8874612 0.0787114305,36.1098933 0.0787114305,40.2837188 C0.0787114305,47.5880547 10.801978,46.1404427 10.801978,51.3917811 C10.801978,54.1509205 7.94222357,55.2284334 5.90505304,55.2284334 C4.08225459,55.2284334 1.93712081,54.5553588 0.722392877,54.0833728 L0.364446641,57.2140246 C2.00820133,57.7190778 3.72430835,58.1909225 5.47602629,58.1909225 C10.4796427,58.1909225 14.5910078,56.2039181 14.5910078,51.1892793 C14.5910078,43.4471552 3.86774121,44.4903289 3.86774121,39.9807434 C3.86774121,37.5230249 6.22611655,36.8500916 8.22781747,36.8500916 C10.0873573,36.8500916 11.0875719,37.1529257 12.9103704,37.8257177 L13.4104776,34.7295463 Z" id="path2536" fill="#000000" fill-rule="nonzero"></path>
                <path d="M80.6231149,2.20180036 C80.6231149,2.20180036 102.412756,-5.23635917 124.885223,7.80373667 L125.038407,15.6672488 C125.038407,15.6672488 133.398211,13.2132045 141.297334,16.1269405 L133.551677,22.8356415 C133.551677,22.8356415 113.378799,0.634213465 82.3933449,8.99415874 L80.6231149,2.20180036 Z" id="path2540" fill="#FEB912"></path>
                <path d="M72.9588543,19.6192127 L76.4511265,25.4061279 C76.4511265,25.4061279 101.529549,10.9503568 123.695508,31.9260345 L128.988392,27.3624673 C128.988392,27.3624673 105.440956,2.13326347 72.9588543,19.6192127" id="path2544" fill="#009247"></path>
                <path d="M95.4331581,27.0558177 C95.4331581,27.0558177 108.508582,25.5591701 118.979322,36.3351464 L113.956063,41.3584054 C113.956063,41.3584054 108.77948,34.2254823 95.4331581,33.6127484 L95.4331581,27.0558177 Z" id="path2548" fill="#0060AF"></path>
                <path d="M95.2799746,40.438598 C95.2799746,40.438598 102.682523,39.2484586 109.392355,45.4619982 L95.5863416,58.194314 L95.2799746,40.438598 Z" id="path2552" fill="#ED1C24"></path>
            </g>
        </g>
    </g>
</svg>