<?xml version="1.0" encoding="UTF-8"?>
<svg width="119px" height="37px" viewBox="0 0 119 37" version="1.1" xmlns="http://www.w3.org/2000/svg" xmlns:xlink="http://www.w3.org/1999/xlink">
    <!-- Generator: Sketch 52.5 (67469) - http://www.bohemiancoding.com/sketch -->
    <title>slack</title>
    <desc>Created with Sketch.</desc>
    <g id="Page-1" stroke="none" stroke-width="1" fill="none" fill-rule="evenodd">
        <g id="slack" transform="translate(0.500000, 0.763145)" fill="#1B1B1B">
            <path d="M41.9651984,13.9488297 C41.9651984,10.4447735 44.5200521,7.99798798 49.1629619,7.99798798 C51.9959078,7.99798798 54.3140521,8.90249699 55.5699599,9.78856112 C55.7496794,9.91507415 56.0703367,10.222016 55.8780842,10.7928617 C55.6316794,11.4076914 55.1797796,12.3323006 54.8555752,12.9329419 C54.6668697,13.2829218 54.1849379,13.2368096 53.9380601,13.1117154 C53.043483,12.6583968 51.5761683,11.891515 50.2282725,11.7501042 C49.8974469,11.7153427 49.5498317,11.6964248 49.2003246,11.7056473 C48.0132305,11.7321323 47.0214629,12.1443046 46.6721924,13.049996 C46.6019599,13.2301884 46.5641242,13.4101443 46.5593948,13.5877355 C46.5267615,14.7812144 48.1877475,15.2127776 50.1998958,15.558501 C53.9406613,16.1993427 56.7707695,17.2961042 56.7707695,21.1463567 C56.7707695,24.4160681 54.1721683,27.3710341 49.0806693,27.2804649 C45.7241723,27.2125972 43.3428898,26.0784729 42.0668818,24.9779279 C42.0233707,24.9405651 41.5376553,24.4458637 41.798012,23.8508978 C42.0959679,23.0849619 42.5989459,22.2071743 42.9936192,21.7410862 C43.2130661,21.4417114 43.7921884,21.3941804 44.0932184,21.5807575 C45.1450501,22.2343687 46.8760321,23.2824168 48.8713908,23.3519399 C49.0288818,23.3573788 49.1849539,23.3583246 49.3381884,23.3543046 C51.133018,23.3107936 52.2189018,22.6302244 52.1962004,21.4838036 C52.1768096,20.4738277 50.7537154,19.8838277 48.4875952,19.4567575 C44.8733427,18.7759519 41.9656713,17.5846012 41.9656713,13.9488297" id="Path"></path>
            <path d="M74.8001764,18.9381723 C72.2514709,18.971515 69.9146453,19.6681643 69.8472505,21.659976 C69.8465411,23.2405611 71.1286974,24.0169018 72.9282565,23.9152184 C74.654509,23.748978 75.9709539,23.0003046 76.551022,22.0068818 C76.765503,21.6386934 76.7981363,20.261002 76.7851303,19.6721844 C76.7818196,19.5468537 76.533996,19.3096713 76.4254549,19.2640321 C75.8839319,19.0358357 75.4831102,18.9653667 74.7999399,18.9376994 L74.8001764,18.9381723 Z M66.3195471,10.9122806 C67.5113707,9.84578758 69.8744449,8.18574749 73.640513,8.27324248 C78.6104649,8.37658116 81.236024,10.7065491 81.4805371,16.2802164 C81.5812745,18.5787335 81.4143246,24.989988 81.3745972,26.5873627 C81.3686854,26.816505 81.2911222,26.9749419 80.9822886,26.9808537 C80.1638557,27.0137234 78.273018,27.0007174 77.4042164,26.9893667 C76.9657956,26.9680842 76.9149539,26.7505291 76.9092786,26.5228056 C76.905495,26.3738277 76.8927255,25.9320962 76.883503,25.5719479 C76.8785371,25.3808778 76.6990541,25.3863166 76.6531784,25.4352665 C75.4873667,26.6800601 73.5780842,27.2811743 71.5477275,27.2811743 C68.4617555,27.2811743 65.3852425,25.4657715 65.3947014,21.8706733 C65.4041603,18.1887896 68.0148216,16.3726774 70.8827655,15.9444248 C72.7192144,15.6710621 74.7892986,15.9141563 76.3568778,16.5370261 C76.4571423,16.5772265 76.6619279,16.5190541 76.6635832,16.3769339 C76.6699679,15.9077715 76.6472665,15.0136673 76.5571703,14.5899078 C76.3270822,13.5101723 75.4263567,12.6413707 73.5341002,12.4072625 C73.1443928,12.3592585 72.7520842,12.3434148 72.3593026,12.3746293 C70.8550982,12.4928657 69.0448978,13.6657715 68.2952786,14.1049018 C68.1188697,14.208004 67.8426693,14.1325691 67.7532826,14.0174068 C67.3158076,13.4522365 66.2162084,11.7992906 66.1296593,11.5351503 C66.0431102,11.2717194 66.1651303,11.0499078 66.3190741,10.9113347 L66.3195471,10.9122806 Z" id="Shape" fill-rule="nonzero"></path>
            <path d="M83.1192946,17.7662124 C83.0897355,12.6312024 86.6675711,8.29925451 92.4772385,8.26118236 C96.1023687,8.23753507 98.7359679,9.88102204 99.2004008,10.6561804 C99.2947535,10.8382645 99.2462766,10.9903166 99.18101,11.1735832 C98.8740681,11.821519 98.0989098,13.0734068 97.546509,13.7828257 C97.3112184,14.0850381 97.0558277,13.8261002 96.7590541,13.6286453 C95.9354188,13.0800281 94.3704409,12.4091543 92.8302926,12.4091543 C90.0361283,12.4096273 87.9554028,14.3255311 87.9785772,17.8503968 C88.0003327,21.2329058 89.9933267,23.0918196 92.839988,23.1592144 C94.3281122,23.1965772 95.7698878,22.3412545 96.545519,21.6405852 C96.7890862,21.427996 97.0411663,21.5344088 97.319495,21.7519639 C97.8657475,22.3102766 98.6491824,23.1722204 99.0835832,23.7655311 C99.3680601,24.0951743 99.1552345,24.4177234 99.0528417,24.5473106 C97.8742605,26.0387455 95.5979719,27.2939439 92.5855431,27.3109699 C86.2778637,27.3551904 83.1488537,22.9201403 83.1197675,17.7669218" id="Path"></path>
            <path d="M113.228685,27.0794629 C113.524749,27.0572345 116.684265,26.6211784 117.65404,26.3991303 C117.89477,26.3442685 117.980373,26.1418477 117.84582,25.9413186 C117.304297,25.1292705 115.880493,22.8231864 114.389295,20.7587776 C113.017752,18.8606092 111.572192,17.1911102 111.104685,16.5488497 C110.990705,16.3927776 110.996854,16.2390701 111.121002,16.117996 C112.010377,15.2477756 115.730569,11.6001804 117.129307,10.0938477 C117.67083,9.50786774 117.345679,9.25578758 116.885739,9.11886974 C115.997311,8.85402004 114.560265,8.52390381 113.743014,8.35151503 C113.398473,8.27868136 112.983463,8.30422044 112.682196,8.614 C111.283695,9.9181483 107.015595,14.2018557 105.741479,15.4823567 C105.5121,15.7133908 105.378493,15.6620762 105.377311,15.3319599 C105.366906,12.8631824 105.318192,2.29331463 105.229988,0.554765531 C105.22384,0.324913828 104.947403,0.150396794 104.791567,0.14212024 C103.990397,0.100264529 101.966425,0.0882044088 101.168802,0.135026052 C100.945335,0.160328657 100.7318,0.388052104 100.712409,0.580541082 C100.528433,3.36051703 100.790445,23.7676593 100.899695,26.6223607 C100.907499,26.8288016 101.061206,26.9888938 101.257242,27.000481 C102.052974,27.0465932 104.021138,27.043519 104.940072,27.0262565 C105.392208,27.0262565 105.447543,26.7084369 105.447543,26.7084369 L105.515647,21.2324329 C105.515647,21.2324329 105.562232,20.9888657 105.637667,20.9084649 C105.961635,20.5596673 106.857868,19.5991142 107.240008,19.2278517 C107.33176,19.1387014 107.476481,19.1450862 107.570124,19.2711263 C108.024152,19.8835912 109.318842,21.8746934 110.518942,23.6529699 C111.621615,25.2865251 112.650982,26.7363407 112.72287,26.8387335 C112.888874,27.0752064 113.082782,27.0846653 113.228922,27.0801723 L113.228922,27.0794629 L113.228685,27.0794629 Z" id="Path"></path>
            <path d="M59.4942285,27.0605451 C59.7720842,27.0697675 61.8802405,27.0674028 62.8143086,27.0662204 C63.1288176,27.0723687 63.2922204,26.8342405 63.3026253,26.624016 C63.5010261,22.6214749 63.4161323,3.56506613 63.2908016,0.555947896 C63.2803968,0.295827655 63.169018,0.198164329 62.9914269,0.174517034 C62.1897836,0.0671583166 59.9116032,0.0922244489 59.1813747,0.283294589 C59.0385451,0.320420842 58.9543607,0.428961924 58.9498677,0.568480962 C58.7710942,8.32479359 58.8916954,26.2068778 58.9295311,26.545507 C58.9671303,26.8846092 59.144485,27.0487214 59.4947014,27.0605451 L59.4942285,27.0605451 Z" id="Path"></path>
            <g id="Group" transform="translate(0.000000, 0.709419)">
                <path d="M3.07343888,18.3928657 C1.77425651,18.4027976 0.673711423,17.6285852 0.267923848,16.4202084 C0.252316633,16.3733868 0.238837675,16.327984 0.225831663,16.2823447 C-0.216372745,14.7348657 0.641078156,13.1159719 2.17791583,12.5976232 L26.8278557,4.33927856 C27.1274669,4.25343888 27.4292064,4.20969138 27.7281082,4.2077996 C29.0618156,4.19739479 30.1926293,4.98863327 30.6083487,6.2225491 L30.6452385,6.34173146 C31.1063607,7.95353106 29.9606493,9.39223246 28.5879238,9.85335471 C28.586978,9.85406413 28.3372625,9.93848497 4.07466533,18.2223687 C3.74667735,18.3337475 3.41017635,18.3900281 3.07343888,18.3928657 Z" id="Path"></path>
                <path d="M7.18215631,30.5156513 C5.87280561,30.5251102 4.76847695,29.7617756 4.36741884,28.5706613 C4.35228457,28.5252585 4.33785972,28.4796192 4.32485371,28.4337435 C3.876501,26.8678196 4.73300601,25.2318998 6.27504609,24.7128417 L30.9259319,16.3788257 C31.2444609,16.2724128 31.5733948,16.218024 31.9042204,16.2149499 C33.2171182,16.205018 34.3706333,17.0071343 34.7776032,18.2117275 L34.8154389,18.3370581 C35.0535671,19.1696794 34.9128657,20.1054028 34.4394469,20.8439078 C34.0866293,21.392998 32.9737876,21.8763487 32.9737876,21.8763487 L8.22925852,30.3371142 C7.88448096,30.4522766 7.53284569,30.5130501 7.18215631,30.5161242 L7.18215631,30.5156513 Z" id="Path"></path>
                <path d="M27.7023327,30.5683848 C26.3875431,30.5785531 25.2233868,29.749006 24.8043567,28.5056313 L16.5774629,4.06851703 L16.5363166,3.93136273 C16.0905651,2.37300601 16.9477796,0.747490982 18.4841443,0.22961523 C18.7915591,0.126276553 19.1093788,0.0723607214 19.4293267,0.0695230461 C19.9046373,0.0659759519 20.3645772,0.173098196 20.7977956,0.387106212 C21.5221122,0.747727455 22.0638717,1.36846894 22.3228096,2.13511423 L30.548994,26.5701002 L30.5728778,26.6486092 C31.0349459,28.2665571 30.1796232,29.893018 28.6432585,30.4108938 C28.3389178,30.5123407 28.0220441,30.5655471 27.7023327,30.5683848 Z" id="Path"></path>
                <path d="M15.4736072,34.6844329 C14.1588176,34.6946012 12.9937154,33.8650541 12.5744489,32.620024 L4.34968337,8.18385571 C4.33549499,8.13892585 4.32130661,8.09399599 4.30759118,8.04788377 C3.86302204,6.49 4.71763527,4.8642485 6.25352705,4.3458998 C6.55975952,4.24421643 6.87639679,4.19053707 7.19587174,4.18793587 C8.5108978,4.17753106 9.67529058,5.00684168 10.0943206,6.25068938 L18.3193226,30.6878036 C18.3346934,30.7303687 18.3486453,30.7774269 18.3611784,30.8223567 C18.8066934,32.3814228 17.9516072,34.0081202 16.4133507,34.5264689 C16.1078277,34.6283888 15.7916633,34.6815952 15.4726613,34.6841964 L15.4736072,34.6841964 L15.4736072,34.6844329 Z" id="Path"></path>
                <polygon id="Path" points="23.6465852 25.0651864 29.3829459 23.1038798 27.5077154 17.5349419 21.7647335 19.4756754"></polygon>
                <polygon id="Path" points="11.4367776 29.2398798 17.1726653 27.2788096 15.2832465 21.6673066 9.54168337 23.6087495"></polygon>
                <polygon id="Path" points="19.5626974 12.9350701 25.2995311 10.9763647 23.4462926 5.47245691 17.6988176 7.39805611"></polygon>
                <polygon id="Path" points="7.35147094 17.1040882 13.0883046 15.1453828 11.2123647 9.57124248 5.46488978 11.4966052"></polygon>
            </g>
        </g>
    </g>
</svg>