<?xml version="1.0" encoding="UTF-8"?>
<svg width="1800px" height="99px" viewBox="0 0 1800 99" version="1.1" xmlns="http://www.w3.org/2000/svg" xmlns:xlink="http://www.w3.org/1999/xlink">
    <!-- Generator: Sketch 52.5 (67469) - http://www.bohemiancoding.com/sketch -->
    <title>sprite-clients</title>
    <desc>Created with Sketch.</desc>
    <g id="Page-1" stroke="none" stroke-width="1" fill="none" fill-rule="evenodd">
        <g id="sprite-clients" transform="translate(0.669553, 0.572067)">
            <g id="client-NHS" transform="translate(0.000000, 55.000000)">
                <polygon id="Path" fill="#000000" points="0.197 0.641 91.467 0.641 91.467 37.36 0.197 37.36"></polygon>
                <polygon id="Path" fill="#FFFFFF" points="10.428 4.633 20.052 4.633 25.96 24.508 26.041 24.508 30.089 4.633 37.36 4.633 31.248 33.294 21.665 33.294 15.633 13.462 15.551 13.462 11.544 33.294 4.275 33.294"></polygon>
                <polygon id="Path" fill="#FFFFFF" points="42.986 4.633 50.713 4.633 48.438 15.597 57.569 15.597 59.84 4.633 67.564 4.633 61.574 33.294 53.85 33.294 56.41 21.016 47.282 21.016 44.72 33.294 36.996 33.294"></polygon>
                <path d="M87.888,11.123 C86.4,10.423 84.376,9.809 81.526,9.809 C78.468,9.809 75.991,10.26 75.991,12.559 C75.991,16.625 87.187,15.106 87.187,23.81 C87.187,31.735 79.792,33.789 73.1,33.789 C70.125,33.789 66.696,33.09 64.177,32.312 L65.995,26.48 C67.523,27.467 70.581,28.123 73.1,28.123 C75.496,28.123 79.254,27.673 79.254,24.714 C79.254,20.116 68.06,21.84 68.06,13.752 C68.06,6.361 74.586,4.143 80.906,4.143 C84.46,4.143 87.804,4.514 89.746,5.416 L87.888,11.124 L87.888,11.123 Z" id="Path" fill="#FFFFFF"></path>
            </g>
            <g id="client-Turner" transform="translate(223.000000, 63.000000)">
                <path d="M110.925,22.733 L12.958,22.733 C3.348,22.473 0.946,17.006 0.946,12.32 C0.946,7.894 3.616,1.126 13.226,1.126 L110.926,1.126 C120.271,1.126 121.871,10.238 121.871,12.32 C121.871,14.402 120.537,22.733 110.926,22.733 L110.925,22.733 Z" id="Path" fill="#000000"></path>
                <path d="M108.817,12.294 C108.817,10.872 110,9.717 111.459,9.717 C112.919,9.717 114.103,10.871 114.103,12.294 C114.103,13.717 112.921,14.871 111.459,14.871 C110,14.871 108.817,13.718 108.817,12.294 Z M99.28,18.021 L104.919,18.021 L108.823,9.656 L103.185,9.656 L99.28,18.021 Z" id="Shape" fill="#FFFFFF" fill-rule="nonzero"></path>
                <path d="M65.13,9.641 L61.26,18.02 L66.865,18.02 L69.068,13.269 C70.068,11.186 73.071,11.446 72.271,13.269 L70.003,18.02 L75.141,18.02 L78.345,11.187 C78.946,9.82 77.477,9.642 76.342,9.642 L70.469,9.642 C70.469,9.642 70.046,9.66 69.743,9.736 C69.182,9.891 68.718,10.131 68.556,10.342 C68.226,9.958 67.898,9.643 67.356,9.643 L65.133,9.643 L65.13,9.641 Z" id="Path" fill="#FFFFFF"></path>
                <path d="M39.802,16.044 C40.442,14.718 42.76,9.642 42.76,9.642 L37.155,9.642 L34.952,14.393 C33.951,16.476 30.948,16.216 31.749,14.393 L34.017,9.642 L28.88,9.642 L25.676,16.475 C25.076,17.842 26.544,18.021 27.678,18.021 L36.036,18.021 C38.81,18.022 39.162,17.369 39.802,16.044 Z" id="Path" fill="#FFFFFF"></path>
                <path d="M86.461,9.626 L95.937,9.626 C97.273,9.69 97.478,10.443 97.145,11.158 L95.538,14.636 L87.664,14.636 L86.728,16.589 L94.602,16.589 L93.934,18.022 L82.531,18.022 C81.519,18.007 80.713,17.592 81.332,16.201 C81.645,15.496 83.859,10.733 83.859,10.733 C84.218,9.937 85.154,9.713 86.461,9.626 Z M91.532,12.294 C91.799,11.644 90.998,11.578 90.465,11.578 C90.132,11.578 89.126,11.474 88.729,12.359 L88.196,13.466 L90.931,13.466 C90.931,13.466 91.265,12.946 91.532,12.295 L91.532,12.294 Z" id="Shape" fill="#FFFFFF" fill-rule="nonzero"></path>
                <path d="M12.073,8.892 C12.073,8.892 12.481,8.523 12.808,8.281 C13.254,7.951 14.258,7.103 15.05,7.086 C15.702,7.072 17.712,7.086 17.712,7.086 L12.625,18.021 L18.73,18.021 L23.819,7.086 L113.243,7.086 L113.843,5.784 L13.893,5.784 C12.566,5.784 11.558,6.631 11.09,7.086 L8.655,9.202 C8.196,9.664 7.915,10.296 7.915,10.991 C7.915,12.415 9.099,13.568 10.558,13.568 C12.017,13.568 13.201,12.415 13.201,10.991 C13.201,10.134 12.772,9.374 12.113,8.906 L12.073,8.892 Z" id="Path" fill="#FFFFFF"></path>
                <path d="M48.594,9.657 L54.233,9.657 L50.328,18.022 L44.69,18.022 L48.594,9.657 Z M56.876,14.87 C58.336,14.87 59.519,13.717 59.519,12.293 C59.519,10.871 58.336,9.716 56.876,9.716 C55.416,9.716 54.233,10.87 54.233,12.293 C54.233,13.717 55.416,14.87 56.876,14.87 Z" id="Shape" fill="#FFFFFF" fill-rule="nonzero"></path>
                <path d="M119.974,4.557 C117.668,1.786 114.078,0.322 109.592,0.322 L13.225,0.322 C8.737,0.322 5.147,1.786 2.843,4.557 C1.114,6.634 0.122,9.464 0.122,12.32 C0.122,15.588 1.371,23.223 12.936,23.537 L109.881,23.537 C121.447,23.224 122.695,15.588 122.695,12.32 C122.695,9.464 121.704,6.634 119.975,4.557 L119.974,4.557 Z M109.858,21.931 L12.957,21.931 C3.225,21.668 1.768,15.797 1.768,12.32 C1.768,7.527 4.768,1.928 13.224,1.928 L109.59,1.928 C118.045,1.928 121.046,7.527 121.046,12.32 C121.048,15.796 119.591,21.667 109.858,21.931 Z" id="Shape" fill="#FFFFFF" fill-rule="nonzero"></path>
            </g>
            <g id="client-Champion" transform="translate(485.000000, 0.000000)" fill="#000000">
                <path d="M50.122,25.938 C55.128,27.322 58.861,27.971 58.861,27.971 C56.714,25.822 54.796,23.612 53.129,21.52 C56.035,17.407 58.324,14.563 58.324,14.563 C55.242,15.247 52.327,16.082 49.718,16.938 C47.239,13.374 45.878,10.866 45.878,10.866 C45.157,13.54 44.809,16.219 44.688,18.735 C40.544,20.34 37.956,21.652 37.956,21.652 C40.196,22.66 42.521,23.544 44.773,24.301 C45.138,29.14 46.116,32.497 46.116,32.497 C47.373,30.252 48.753,28.023 50.125,25.935 L50.122,25.938 Z" id="Path"></path>
                <path d="M72.976,24.669 C72.293,25.737 71.25,26.499 70.035,27.036 C69.865,23.612 69.344,20.585 69.344,20.585 C68.305,23.394 67.201,25.889 66.134,28.043 C62.465,28.514 58.858,27.975 58.858,27.975 C60.836,30.345 62.369,31.753 63.612,32.7 C61.755,35.836 60.408,37.509 60.408,37.509 C63.008,36.916 65.072,35.928 66.714,34.756 C67.386,35.22 67.965,35.733 68.534,36.606 C68.534,36.606 69.596,35.103 69.957,31.62 C72.583,28.184 72.972,24.669 72.972,24.669 L72.976,24.669 Z" id="Path"></path>
                <path d="M71.778,15.185 C70.606,12.554 68.922,10.565 67.085,9.07 C65.516,5.775 63.715,4.254 63.715,4.254 C63.867,5.011 63.751,5.87 63.471,6.756 C59.565,4.821 56.006,4.552 56.006,4.552 C58.275,6.04 60.286,7.884 62.013,9.783 C60.42,12.376 58.327,14.563 58.327,14.563 C61.104,13.936 63.338,13.673 65.126,13.628 C67.868,17.407 69.345,20.584 69.345,20.584 C69.395,18.027 69.144,15.799 68.717,13.876 C71.041,14.317 71.776,15.187 71.776,15.187 L71.778,15.185 Z" id="Path"></path>
                <path d="M56.002,4.551 C54.109,3.599 52.297,2.934 50.612,2.477 C52.76,0.663 54.755,0.201 54.755,0.201 C51.307,0.066 48.347,0.688 45.868,1.641 C42.164,1.347 39.808,1.989 39.808,1.989 C40.362,2.405 40.828,3.154 41.308,4.046 C38.178,6.189 36.59,8.423 36.59,8.423 C38.476,7.488 40.478,6.776 42.45,6.233 C42.664,6.629 42.891,7.025 43.14,7.411 C44.446,9.444 45.881,10.866 45.881,10.866 C46.393,8.425 47.274,6.526 48.291,5.05 C52.693,4.439 56.006,4.548 56.006,4.548 L56.002,4.551 Z" id="Path"></path>
                <path d="M32.228,12.066 C33.406,10.925 34.846,9.696 36.586,8.427 C36.586,8.427 34.98,8.427 33.284,8.859 C34.407,6.142 35.652,4.634 35.652,4.634 C35.652,4.634 28.506,9.719 27.15,18.859 C27.15,18.859 27.749,17.206 29.787,14.715 C30.593,16.527 31.526,17.668 31.526,17.668 C31.538,15.58 31.82,13.706 32.233,12.071 L32.228,12.066 Z" id="Path"></path>
                <path d="M37.956,21.656 C35.473,21.734 33.531,21.95 32.017,22.229 C31.59,19.574 31.524,17.663 31.524,17.663 C30.298,19.536 29.505,21.337 29.015,23.016 C27.288,23.657 26.853,24.278 26.853,24.278 C27.122,25.2 27.659,26.096 28.341,26.934 C28.128,30.913 29.415,33.539 29.415,33.539 C29.703,32.147 30.281,30.787 31.007,29.517 C33.124,31.214 35.218,32.32 35.218,32.32 C34.23,30.55 33.503,28.566 32.971,26.645 C35.345,23.667 37.959,21.652 37.959,21.652 L37.956,21.656 Z" id="Path"></path>
                <path d="M50.226,41.979 C50.226,41.979 48.145,41.148 45.166,39.47 C45.271,37.677 45.549,35.398 46.113,32.502 C46.113,32.502 43.745,34.847 40.681,36.665 C38.9,35.433 37.031,33.991 35.213,32.325 C35.213,32.325 36.098,35.059 37.801,38.069 C36.184,38.674 34.517,38.955 32.992,38.582 C32.992,38.582 34.793,40.829 40.346,41.786 C41.884,43.612 43.763,45.124 45.95,45.649 C45.95,45.649 45.29,44.923 45.144,42.207 C46.658,42.227 48.344,42.163 50.223,41.981 L50.226,41.979 Z" id="Path"></path>
                <path d="M60.29,41.751 C60.767,39.553 60.412,37.509 60.412,37.509 C59.007,39.529 57.624,41.068 56.347,42.24 C52.909,42.418 50.226,41.979 50.226,41.979 C50.226,41.979 51.763,43.512 53.529,44.397 C51.191,45.843 49.624,45.972 49.624,45.972 C59.852,46.187 65.987,39.508 65.987,39.508 C64.265,40.644 62.269,41.34 60.286,41.749 L60.29,41.751 Z" id="Path"></path>
                <path d="M38.921,68.97 C41.509,66.009 45.312,64.137 49.548,64.137 C53.906,64.137 57.806,66.115 60.394,69.226 L61.077,68.585 C58.323,65.306 54.188,63.219 49.568,63.219 C45.069,63.219 41.031,65.197 38.276,68.333 L38.922,68.969 L38.921,68.97 Z" id="Path"></path>
                <polygon id="Path" points="48.348 61.487 44.216 62.347 43.178 57.343 47.249 56.496 47.443 57.412 44.768 57.968 44.983 59.017 47.539 58.486 47.729 59.402 45.177 59.933 45.426 61.135 48.161 60.568"></polygon>
                <polygon id="Path" points="56.225 58.26 53.765 57.74 53.527 58.857 55.988 59.376 55.798 60.292 53.332 59.773 52.9 61.823 51.502 61.53 52.557 56.532 56.415 57.345"></polygon>
                <path d="M62.174,66.81 L60.953,65.651 L61.147,64.552 L59.043,63.093 L58.116,63.678 L56.725,62.901 L61.685,59.94 L63.041,60.881 L62.174,66.808 L62.174,66.81 Z M61.758,61.342 L59.878,62.531 L61.367,63.568 L61.758,61.345 L61.758,61.342 Z" id="Shape" fill-rule="nonzero"></path>
                <path d="M39.487,64.764 C38.571,65.49 37.02,66.083 35.881,64.746 L34.244,62.641 L35.341,61.779 L36.951,63.847 C37.531,64.53 38.262,64.402 38.842,63.943 C39.423,63.486 39.721,62.807 39.195,62.081 L37.584,60.013 L38.681,59.151 L40.322,61.257 C41.299,62.6 40.694,63.814 39.493,64.767 L39.487,64.764 Z" id="Path"></path>
                <path d="M67.207,61.819 C62.806,57.192 56.588,54.305 49.702,54.305 C42.731,54.305 36.448,57.258 32.04,61.984 L31.296,61.226 C35.923,56.378 42.453,53.354 49.684,53.354 C56.861,53.354 63.337,56.326 67.963,61.112 L67.207,61.819 Z" id="Path"></path>
                <path d="M72.141,82.136 C69.084,82.136 67.227,79.572 67.227,76.759 C67.227,73.841 69.393,71.723 72.219,71.723 C75.35,71.723 77.241,74.212 77.241,76.946 C77.241,80.187 74.891,82.14 72.144,82.139 L72.141,82.136 Z M71.969,73.196 C70.07,73.196 69.502,75.009 69.502,76.237 C69.502,78.032 70.301,80.66 72.493,80.66 C74.056,80.66 74.965,79.263 74.965,77.589 C74.965,75.807 74.274,73.196 71.968,73.196 L71.969,73.196 Z" id="Shape" fill-rule="nonzero"></path>
                <path d="M53.427,80.677 C53.427,81.232 53.536,81.428 54.423,81.6 L54.423,81.984 C53.459,81.936 52.855,81.893 52.288,81.893 C51.72,81.893 51.122,81.936 50.445,81.984 L50.445,81.6 C51.044,81.491 51.153,81.229 51.153,80.507 L51.153,72.995 C51.153,72.563 50.964,72.366 50.445,72.349 L50.445,71.921 L54.991,71.921 C57.834,71.921 58.86,73.275 58.86,75.057 C58.86,76.962 57.414,78.128 55.437,78.128 C54.685,78.128 53.58,77.744 53.58,77.421 C53.58,77.281 53.672,77.281 53.812,77.281 C53.947,77.281 54.148,77.33 54.344,77.33 C55.957,77.33 56.585,76.426 56.585,75.146 C56.585,73.766 55.724,73.272 54.375,73.272 L53.424,73.375 L53.424,80.675 L53.427,80.677 Z" id="Path"></path>
                <path d="M61.831,72.906 C61.831,72.474 61.648,72.277 61.124,72.259 L61.124,71.857 C61.801,71.905 62.399,71.948 62.967,71.948 C63.535,71.948 64.133,71.905 64.805,71.857 L64.805,72.259 C64.287,72.277 64.098,72.473 64.098,72.906 L64.098,80.955 C64.098,81.383 64.282,81.584 64.805,81.601 L64.805,81.986 C64.128,81.942 63.531,81.895 62.967,81.895 C62.4,81.895 61.801,81.943 61.124,81.986 L61.124,81.602 C61.648,81.585 61.831,81.387 61.831,80.956 L61.831,72.906 Z" id="Path"></path>
                <path d="M80.317,72.894 C80.317,72.466 80.134,72.266 79.609,72.252 L79.609,71.849 C80.287,71.898 80.883,71.941 81.453,71.941 C81.869,71.941 82.327,71.941 82.802,71.849 L87.038,78.721 L87.069,78.72 L87.069,73.111 C87.069,72.313 86.567,72.251 86.147,72.251 L86.147,71.85 C86.654,71.894 87.143,71.941 87.623,71.941 C88.13,71.941 88.636,71.897 89.13,71.85 L89.13,72.251 C88.606,72.268 88.423,72.465 88.423,72.893 L88.423,81.985 L86.793,81.985 L81.696,74.05 L81.665,74.05 L81.665,80.733 C81.665,81.532 82.177,81.593 82.588,81.593 L82.588,81.977 C82.081,81.929 81.592,81.885 81.112,81.885 C80.605,81.885 80.099,81.933 79.61,81.977 L79.609,81.593 C80.133,81.575 80.317,81.374 80.317,80.945 L80.317,72.895 L80.317,72.894 Z" id="Path"></path>
                <path d="M92.269,78.492 C92.581,80.214 93.715,81.019 95.407,81.019 C96.34,81.019 97.683,80.75 97.683,79.566 C97.683,78.615 96.705,78.364 95.975,78.143 L94.852,77.812 C93.242,77.337 91.629,76.658 91.629,74.791 C91.629,72.339 93.999,71.598 96.354,71.598 C97.349,71.598 98.374,71.77 99.291,72.104 C99.291,73.244 99.353,74.208 99.419,75.028 L99.027,75.029 C98.691,73.575 97.507,72.894 96.085,72.894 C95.297,72.894 93.968,73.145 93.968,74.236 C93.968,75.108 94.725,75.359 95.378,75.549 L97.033,76.02 C98.632,76.478 100.116,77.064 100.116,79.12 C100.116,81.208 98.016,82.317 95.436,82.317 C94.283,82.317 93.068,82.127 92.005,81.749 C92.005,80.498 91.957,79.41 91.883,78.49 L92.268,78.49 L92.269,78.492 Z" id="Path"></path>
                <path d="M12.438,72.903 C12.438,72.47 12.255,72.273 11.731,72.257 L11.731,71.856 C12.408,71.904 13.006,71.947 13.569,71.947 C14.142,71.947 14.74,71.903 15.412,71.856 L15.412,72.257 C14.893,72.27 14.705,72.47 14.705,72.903 L14.705,75.948 L18.422,75.948 L18.422,72.903 C18.422,72.47 18.238,72.273 17.714,72.257 L17.714,71.856 C18.39,71.904 18.99,71.947 19.557,71.947 C20.124,71.947 20.723,71.903 21.4,71.856 L21.4,72.258 C20.876,72.271 20.692,72.471 20.692,72.904 L20.691,80.955 C20.691,81.383 20.879,81.584 21.399,81.602 L21.399,81.994 C20.722,81.946 20.124,81.902 19.556,81.902 C18.988,81.902 18.385,81.95 17.713,81.994 L17.713,81.602 C18.237,81.585 18.421,81.387 18.421,80.955 L18.421,77.421 L14.704,77.421 L14.704,80.955 C14.704,81.383 14.887,81.584 15.407,81.602 L15.407,81.994 C14.73,81.946 14.137,81.902 13.564,81.902 C12.997,81.902 12.398,81.95 11.721,81.994 L11.721,81.602 C12.246,81.585 12.429,81.387 12.429,80.955 L12.429,72.904 L12.438,72.903 Z" id="Path"></path>
                <path d="M27.087,77.589 C27.489,76.501 27.979,75.287 28.332,74.055 L28.363,74.055 C28.669,75.61 28.926,76.593 29.253,77.589 L27.087,77.589 Z M23.371,81.984 C23.909,81.936 24.432,81.893 24.965,81.893 C25.489,81.893 26.027,81.936 26.546,81.984 L26.546,81.6 C26.04,81.57 25.826,81.385 25.826,81.11 C25.826,80.957 25.87,80.787 25.949,80.572 L26.626,78.759 L29.622,78.759 L30.111,80.249 C30.191,80.45 30.265,80.804 30.265,81.018 C30.265,81.371 30.064,81.494 29.496,81.603 L29.496,81.987 C30.156,81.939 30.816,81.896 31.479,81.896 C32.121,81.896 32.785,81.939 33.426,81.987 L33.426,81.603 C32.968,81.48 32.736,81.28 32.504,80.603 L29.678,71.862 C29.202,71.91 28.713,71.953 28.237,71.953 C27.761,71.953 27.285,71.91 26.795,71.862 L26.795,72.264 C27.21,72.264 27.38,72.508 27.38,72.661 C27.38,72.814 27.275,73.028 27.183,73.26 L24.173,80.896 C24.019,81.293 23.819,81.542 23.373,81.603 L23.373,81.988 L23.371,81.984 Z" id="Shape" fill-rule="nonzero"></path>
                <path d="M36.527,74.347 C36.54,73.919 36.575,73.487 36.575,72.875 C36.575,72.394 36.466,72.338 35.885,72.259 L35.885,71.857 C36.343,71.905 36.898,71.948 37.453,71.948 C38.003,71.948 38.557,71.904 39.107,71.857 L41.798,78.98 L44.204,71.857 C44.741,71.905 45.266,71.948 45.798,71.948 C46.34,71.948 46.873,71.905 47.397,71.857 L47.397,72.259 C46.861,72.307 46.781,72.474 46.781,72.889 C46.781,73.317 46.842,74.007 46.89,74.536 L47.38,81.092 C47.412,81.494 47.857,81.555 48.163,81.603 L48.163,81.987 C47.504,81.939 46.827,81.896 46.166,81.896 C45.49,81.896 44.835,81.939 44.201,81.987 L44.201,81.603 C44.952,81.511 45.153,81.371 45.153,80.663 C45.153,80.296 45.105,79.602 45.062,79.095 L44.708,74.517 L44.677,74.517 L42.114,82.068 L40.825,82.068 L37.895,74.425 L37.864,74.425 L37.743,78.929 C37.726,79.728 37.694,80.142 37.694,80.554 C37.694,81.323 37.772,81.494 38.694,81.603 L38.694,81.987 C38.078,81.939 37.511,81.896 36.929,81.896 C36.362,81.896 35.793,81.939 35.317,81.987 L35.317,81.603 C35.916,81.555 36.164,81.42 36.195,80.772 L36.531,74.35 L36.527,74.347 Z" id="Path"></path>
                <path d="M9.419,81.421 C8.368,82.227 6.861,82.552 5.874,82.552 C2.213,82.552 0.144,79.707 0.144,76.797 C0.144,73.817 2.212,70.938 6.175,70.938 C7.567,70.938 8.566,71.205 8.953,71.354 C8.953,72.519 9.015,73.643 9.1,74.755 L8.656,74.755 C8.382,73.333 7.398,72.582 5.971,72.582 C4.037,72.582 2.548,74.102 2.548,76.672 C2.548,78.608 4.142,80.798 6.375,80.798 C7.327,80.798 8.694,80.28 9.605,79.51 L9.41,81.419 L9.419,81.421 Z" id="Path"></path>
                <path d="M26.039,87.54 C26.039,87.21 25.898,87.053 25.496,87.041 L25.496,86.717 C26.016,86.753 26.479,86.789 26.918,86.789 C27.418,86.789 28.138,86.753 28.481,86.717 L28.481,87.041 C27.877,87.065 27.793,87.36 27.793,87.695 L27.793,93.5 L29.984,93.5 C30.766,93.5 31.088,93.145 31.285,92.243 L31.669,92.243 C31.527,93.013 31.395,93.774 31.387,94.544 L25.492,94.544 L25.492,94.221 C25.894,94.208 26.035,94.056 26.035,93.721 L26.035,87.538 L26.039,87.54 Z" id="Path"></path>
                <path d="M33.583,87.579 C33.583,87.249 33.442,87.092 33.039,87.079 L33.039,86.755 L39.027,86.755 C39.044,87.409 39.063,87.938 39.124,88.579 L38.796,88.579 C38.679,87.926 38.514,87.7 37.874,87.7 L35.341,87.7 L35.341,89.994 L36.915,89.994 C37.447,89.994 37.531,89.816 37.603,89.39 L37.927,89.39 C37.891,89.684 37.854,90.196 37.854,90.519 C37.854,90.838 37.891,91.361 37.927,91.647 L37.603,91.647 C37.53,91.22 37.45,91.041 36.915,91.041 L35.341,91.041 L35.341,93.506 L38.003,93.506 C38.644,93.506 38.844,93.293 39.047,92.293 L39.439,92.293 C39.335,93.269 39.31,93.898 39.298,94.55 L33.036,94.55 L33.036,94.226 C33.439,94.214 33.58,94.061 33.58,93.727 L33.58,87.582 L33.583,87.579 Z" id="Path"></path>
                <path d="M40.862,94.224 C41.204,94.176 41.361,93.987 41.479,93.681 L43.799,87.802 C43.872,87.625 43.952,87.46 43.952,87.343 C43.952,87.222 43.824,87.033 43.505,87.033 L43.505,86.71 C43.883,86.746 44.25,86.782 44.617,86.782 C44.984,86.782 45.362,86.746 45.734,86.71 L47.914,93.455 C48.091,93.974 48.268,94.127 48.622,94.224 L48.622,94.546 C48.126,94.511 47.616,94.478 47.119,94.478 C46.608,94.478 46.099,94.514 45.588,94.546 L45.588,94.224 C46.028,94.139 46.181,94.046 46.181,93.773 C46.181,93.609 46.12,93.334 46.06,93.181 L45.681,92.034 L43.367,92.034 L42.847,93.431 C42.786,93.596 42.754,93.725 42.754,93.846 C42.754,94.059 42.919,94.2 43.31,94.225 L43.31,94.547 C42.908,94.512 42.492,94.479 42.088,94.479 C41.674,94.479 41.271,94.515 40.855,94.547 L40.855,94.224 L40.862,94.224 Z M45.404,91.137 C45.155,90.368 44.953,89.611 44.719,88.415 L44.695,88.415 C44.42,89.361 44.042,90.296 43.736,91.137 L45.407,91.137 L45.404,91.137 Z" id="Shape" fill-rule="nonzero"></path>
                <path d="M54.971,91.773 C54.971,91.297 54.757,91.273 54.226,91.261 L54.226,90.865 C54.709,90.901 55.197,90.937 55.697,90.937 C56.228,90.937 56.752,90.902 57.283,90.865 L57.283,91.237 C56.868,91.249 56.655,91.358 56.655,91.89 L56.655,94.545 L55.965,94.545 L55.697,93.751 C54.946,94.453 54.164,94.698 53.358,94.698 C51.131,94.698 49.708,92.86 49.708,90.724 C49.708,88.149 51.428,86.592 53.988,86.592 C54.806,86.592 55.685,86.744 56.326,87.143 C56.326,87.729 56.35,88.394 56.399,89.213 L56.057,89.213 C55.903,88.157 54.898,87.638 53.914,87.638 C52.267,87.638 51.462,88.896 51.462,90.427 C51.462,91.898 52.292,93.559 53.666,93.559 C54.508,93.559 54.972,93.168 54.972,92.62 L54.972,91.771 L54.971,91.773 Z" id="Path"></path>
                <path d="M59.664,87.54 C59.664,87.21 59.523,87.053 59.12,87.041 L59.12,86.717 C59.5,86.753 59.986,86.789 60.486,86.789 C61.102,86.789 61.59,86.753 62.061,86.717 L62.061,87.041 C61.549,87.065 61.425,87.158 61.425,87.621 L61.425,92.052 C61.425,93.395 61.98,93.657 62.944,93.657 C63.902,93.657 64.463,93.369 64.463,92.052 L64.463,87.621 C64.463,87.158 64.33,87.065 63.821,87.041 L63.821,86.717 C64.298,86.753 64.78,86.789 65.396,86.789 C65.896,86.789 66.38,86.753 66.762,86.717 L66.762,87.041 C66.358,87.054 66.213,87.207 66.213,87.54 L66.213,91.807 C66.213,93.998 65.077,94.7 62.942,94.7 C60.807,94.7 59.669,93.998 59.669,91.97 L59.669,87.539 L59.67,87.539 L59.664,87.54 Z" id="Path"></path>
                <path d="M69.265,87.579 C69.265,87.249 69.124,87.092 68.721,87.079 L68.721,86.755 L74.714,86.755 C74.726,87.409 74.75,87.938 74.807,88.579 L74.484,88.579 C74.362,87.926 74.203,87.7 73.556,87.7 L71.023,87.7 L71.023,89.958 L72.598,89.958 C73.129,89.958 73.214,89.781 73.286,89.353 L73.609,89.353 C73.573,89.651 73.541,90.16 73.541,90.481 C73.541,90.804 73.573,91.324 73.609,91.611 L73.286,91.611 C73.214,91.183 73.132,91.002 72.598,91.002 L71.023,91.002 L71.023,93.5 L73.691,93.5 C74.327,93.5 74.533,93.287 74.734,92.287 L75.13,92.287 C75.021,93.263 74.997,93.892 74.988,94.544 L68.726,94.544 L68.726,94.22 C69.13,94.208 69.27,94.055 69.27,93.721 L69.27,87.576 L69.265,87.579 Z" id="Path"></path>
                <path d="M76.967,97.745 C77.737,97.745 78.395,97.146 78.395,96.323 C78.395,95.506 77.737,94.907 76.967,94.907 C76.186,94.907 75.527,95.505 75.527,96.323 C75.527,97.142 76.186,97.745 76.967,97.745 Z M75.809,96.324 C75.809,95.653 76.315,95.146 76.968,95.146 C77.604,95.146 78.11,95.653 78.11,96.324 C78.11,97.007 77.604,97.507 76.968,97.507 C76.315,97.507 75.809,97.007 75.809,96.324 Z M76.666,96.435 L76.952,96.435 L77.385,97.143 L77.659,97.143 L77.195,96.424 C77.434,96.393 77.616,96.265 77.616,95.972 C77.616,95.65 77.427,95.508 77.041,95.508 L76.419,95.508 L76.419,97.144 L76.669,97.144 L76.669,96.436 L76.666,96.435 Z M76.666,96.226 L76.666,95.719 L77.006,95.719 C77.177,95.719 77.361,95.757 77.361,95.958 C77.361,96.213 77.172,96.226 76.964,96.226 L76.666,96.226 Z" id="Shape" fill-rule="nonzero"></path>
            </g>
            <g id="client-hscic" transform="translate(698.000000, 52.000000)">
                <path d="M5.617,0.516 C3.03,0.516 0.932,2.576 0.932,5.117 L0.932,38.861 L0.941,43.485 L60.665,43.461 C63.253,43.461 65.35,41.401 65.35,38.86 L65.35,0.516 L5.616,0.516 L5.617,0.516 Z" id="Path" fill="#000000"></path>
                <path d="M10.021,24.689 L10.074,24.689 C10.578,23.628 11.853,22.593 13.817,22.593 C17.241,22.593 18.462,25.008 18.462,27.609 L18.462,35.651 L15.276,35.651 L15.276,29.201 C15.276,27.795 15.171,25.458 12.94,25.458 C10.842,25.458 10.021,26.997 10.021,28.697 L10.021,35.65 L6.835,35.65 L6.835,15.583 L10.021,15.583 L10.021,24.688 L10.021,24.689 Z" id="Path" fill="#FFFFFF"></path>
                <path d="M27.223,26.442 C26.613,25.592 25.816,25.142 24.728,25.142 C23.878,25.142 22.869,25.539 22.869,26.494 C22.869,28.777 29.745,26.919 29.745,31.882 C29.745,34.91 26.851,35.971 24.251,35.971 C22.285,35.971 20.587,35.466 19.287,34.006 L21.411,32.015 C22.233,32.918 23.083,33.583 24.437,33.583 C25.367,33.583 26.561,33.13 26.561,32.122 C26.561,29.495 19.685,31.565 19.685,26.707 C19.685,23.867 22.233,22.593 24.809,22.593 C26.508,22.593 28.313,23.123 29.349,24.529 L27.225,26.441 L27.223,26.442 Z" id="Path" fill="#FFFFFF"></path>
                <path d="M39.382,26.734 C38.639,25.965 37.816,25.46 36.967,25.46 C34.631,25.46 33.224,27.292 33.224,29.282 C33.224,31.272 34.631,33.105 36.967,33.105 C37.949,33.105 38.851,32.679 39.436,31.909 L41.56,34.193 C40.259,35.493 38.082,35.972 36.968,35.972 C33.119,35.972 30.04,33.29 30.04,29.282 C30.04,25.274 33.119,22.593 36.968,22.593 C38.587,22.593 40.366,23.177 41.586,24.53 L39.383,26.734 L39.382,26.734 Z" id="Path" fill="#FFFFFF"></path>
                <path d="M42.781,22.912 L45.966,22.912 L45.966,35.653 L42.781,35.653 L42.781,22.912 Z M44.346,16.673 C45.514,16.673 46.417,17.496 46.417,18.584 C46.417,19.672 45.514,20.496 44.346,20.496 C43.178,20.496 42.329,19.593 42.329,18.584 C42.329,17.575 43.178,16.673 44.346,16.673 Z" id="Shape" fill="#FFFFFF" fill-rule="nonzero"></path>
                <path d="M56.531,26.734 C55.788,25.965 54.965,25.46 54.116,25.46 C51.779,25.46 50.373,27.292 50.373,29.282 C50.373,31.272 51.779,33.105 54.116,33.105 C55.098,33.105 56,32.679 56.585,31.909 L58.708,34.193 C57.408,35.493 55.232,35.972 54.117,35.972 C50.267,35.972 47.188,33.29 47.188,29.282 C47.188,25.274 50.267,22.593 54.117,22.593 C55.736,22.593 57.515,23.177 58.735,24.53 L56.531,26.734 Z" id="Path" fill="#FFFFFF"></path>
                <polygon id="Path" fill="#000000" points="71.239 15.635 72.363 15.635 72.363 19.078 76.662 19.078 76.662 15.635 77.785 15.635 77.785 23.927 76.662 23.927 76.662 20.132 72.363 20.132 72.363 23.927 71.239 23.927"></polygon>
                <path d="M83.033,20.694 C83.008,19.769 82.495,19.077 81.428,19.077 C80.385,19.077 79.706,19.956 79.706,20.694 L83.032,20.694 L83.033,20.694 Z M79.707,21.538 C79.707,22.51 80.609,23.153 81.581,23.153 C82.224,23.153 82.694,22.825 83.103,22.322 L83.9,22.93 C83.314,23.692 82.507,24.066 81.44,24.066 C79.684,24.066 78.582,22.801 78.582,21.15 C78.582,19.486 79.789,18.234 81.452,18.234 C83.408,18.234 84.158,19.734 84.158,21.162 L84.158,21.538 L79.707,21.538 Z" id="Shape" fill="#000000" fill-rule="nonzero"></path>
                <path d="M87.941,21.256 C86.945,21.256 85.728,21.431 85.728,22.322 C85.728,22.954 86.197,23.224 86.922,23.224 C88.093,23.224 88.502,22.358 88.502,21.608 L88.502,21.256 L87.941,21.256 Z M84.965,19.055 C85.551,18.504 86.394,18.235 87.166,18.235 C88.806,18.235 89.486,19.124 89.486,20.086 L89.486,22.92 C89.486,23.306 89.497,23.635 89.533,23.928 L88.595,23.928 C88.572,23.646 88.56,23.366 88.56,23.084 L88.537,23.084 C88.069,23.8 87.435,24.068 86.592,24.068 C85.561,24.068 84.671,23.483 84.671,22.404 C84.671,20.976 86.041,20.484 87.729,20.484 L88.5,20.484 L88.5,20.249 C88.5,19.676 88.079,19.078 87.177,19.078 C86.369,19.078 85.982,19.419 85.595,19.71 L84.963,19.056 L84.965,19.055 Z" id="Shape" fill="#000000" fill-rule="nonzero"></path>
                <polygon id="Path" fill="#000000" points="90.506 15.073 91.56 15.073 91.56 23.928 90.506 23.928"></polygon>
                <path d="M96.057,19.289 L94.546,19.289 L94.546,21.808 C94.546,22.428 94.546,23.083 95.343,23.083 C95.589,23.083 95.881,23.049 96.092,22.92 L96.092,23.88 C95.845,24.021 95.353,24.068 95.142,24.068 C93.514,24.068 93.491,23.073 93.491,22.182 L93.491,19.289 L92.273,19.289 L92.273,18.376 L93.491,18.376 L93.491,16.819 L94.546,16.819 L94.546,18.376 L96.057,18.376 L96.057,19.289 Z" id="Path" fill="#000000"></path>
                <path d="M96.865,15.073 L97.919,15.073 L97.919,19.231 L97.942,19.231 C98.213,18.646 98.915,18.235 99.771,18.235 C100.847,18.235 101.784,18.879 101.784,20.355 L101.784,23.927 L100.73,23.927 L100.73,20.647 C100.73,19.604 100.134,19.219 99.465,19.219 C98.587,19.219 97.919,19.781 97.919,21.07 L97.919,23.928 L96.865,23.928 L96.865,15.073 Z" id="Path" fill="#000000"></path>
                <path d="M109.058,16.479 C108.461,16.479 107.957,16.83 107.957,17.452 C107.957,18.001 108.414,18.471 108.777,18.832 C109.352,18.517 110.065,18.119 110.065,17.369 C110.064,16.818 109.643,16.48 109.058,16.48 L109.058,16.479 Z M108.507,20.015 C107.84,20.401 107.114,20.846 107.114,21.701 C107.114,22.51 107.875,23.154 108.672,23.154 C109.479,23.154 110.077,22.616 110.511,22.101 L108.507,20.015 Z M113.708,23.927 L112.197,23.927 L111.178,22.826 C110.475,23.669 109.749,24.138 108.636,24.138 C106.763,24.138 105.92,22.944 105.92,21.738 C105.92,20.578 106.798,19.841 107.805,19.36 C107.278,18.798 106.832,18.247 106.832,17.439 C106.832,16.174 107.862,15.495 109.046,15.495 C110.206,15.495 111.189,16.116 111.189,17.369 C111.189,18.412 110.3,19.068 109.469,19.501 L111.108,21.21 L112.151,19.511 L113.427,19.511 L111.822,21.995 L113.708,23.926 L113.708,23.927 Z" id="Shape" fill="#000000" fill-rule="nonzero"></path>
                <path d="M117.901,22.195 C118.3,22.803 118.99,23.084 119.659,23.084 C120.396,23.084 121.31,22.616 121.31,21.702 C121.31,19.793 117.221,20.976 117.221,17.744 C117.221,16.771 118.041,15.424 120.033,15.424 C120.935,15.424 121.802,15.612 122.422,16.372 L121.508,17.204 C121.227,16.77 120.677,16.478 120.033,16.478 C118.791,16.478 118.417,17.227 118.417,17.743 C118.417,19.839 122.503,18.585 122.503,21.573 C122.503,23.177 121.215,24.138 119.622,24.138 C118.556,24.138 117.537,23.775 116.976,22.989 L117.901,22.195 Z" id="Path" fill="#000000"></path>
                <path d="M126.029,23.083 C127.153,23.083 127.856,22.276 127.856,21.152 C127.856,20.028 127.153,19.219 126.029,19.219 C124.903,19.219 124.202,20.028 124.202,21.152 C124.202,22.276 124.904,23.083 126.029,23.083 Z M126.029,18.235 C127.681,18.235 128.981,19.535 128.981,21.151 C128.981,22.766 127.681,24.067 126.029,24.067 C124.377,24.067 123.078,22.767 123.078,21.151 C123.078,19.535 124.377,18.235 126.029,18.235 Z" id="Shape" fill="#000000" fill-rule="nonzero"></path>
                <path d="M133.677,19.851 C133.291,19.442 132.88,19.231 132.295,19.231 C131.146,19.231 130.561,20.156 130.561,21.198 C130.561,22.24 131.264,23.082 132.353,23.082 C132.939,23.082 133.348,22.872 133.7,22.462 L134.45,23.213 C133.899,23.822 133.15,24.067 132.343,24.067 C130.632,24.067 129.437,22.884 129.437,21.174 C129.437,19.464 130.608,18.246 132.343,18.246 C133.15,18.246 133.924,18.527 134.474,19.124 L133.677,19.851 Z" id="Path" fill="#000000"></path>
                <path d="M135.306,18.376 L136.36,18.376 L136.36,23.928 L135.306,23.928 L135.306,18.376 Z M135.832,15.611 C136.254,15.611 136.606,15.962 136.606,16.384 C136.606,16.805 136.254,17.158 135.832,17.158 C135.41,17.158 135.06,16.806 135.06,16.384 C135.06,15.962 135.411,15.611 135.832,15.611 Z" id="Shape" fill="#000000" fill-rule="nonzero"></path>
                <path d="M140.412,21.256 C139.417,21.256 138.198,21.431 138.198,22.322 C138.198,22.954 138.667,23.224 139.392,23.224 C140.564,23.224 140.974,22.358 140.974,21.608 L140.974,21.256 L140.412,21.256 Z M137.437,19.055 C138.022,18.504 138.866,18.235 139.638,18.235 C141.278,18.235 141.958,19.124 141.958,20.086 L141.958,22.92 C141.958,23.306 141.97,23.635 142.004,23.928 L141.068,23.928 C141.044,23.646 141.032,23.366 141.032,23.084 L141.009,23.084 C140.54,23.8 139.908,24.068 139.065,24.068 C138.034,24.068 137.144,23.483 137.144,22.404 C137.144,20.976 138.514,20.484 140.201,20.484 L140.974,20.484 L140.974,20.249 C140.974,19.676 140.552,19.078 139.651,19.078 C138.843,19.078 138.457,19.419 138.07,19.71 L137.437,19.056 L137.437,19.055 Z" id="Shape" fill="#000000" fill-rule="nonzero"></path>
                <polygon id="Path" fill="#000000" points="143.165 15.073 144.218 15.073 144.218 23.928 143.165 23.928"></polygon>
                <path d="M154.983,17.428 C154.513,16.818 153.741,16.479 152.979,16.479 C151.118,16.479 149.887,17.967 149.887,19.853 C149.887,21.598 151.047,23.086 152.979,23.086 C153.928,23.086 154.653,22.664 155.147,21.973 L156.095,22.687 C155.848,23.027 154.853,24.14 152.957,24.14 C150.321,24.14 148.693,21.938 148.693,19.853 C148.693,17.276 150.462,15.425 153.015,15.425 C154.103,15.425 155.252,15.835 155.919,16.714 L154.983,17.43 L154.983,17.428 Z" id="Path" fill="#000000"></path>
                <path d="M159.796,21.256 C158.8,21.256 157.582,21.431 157.582,22.322 C157.582,22.954 158.051,23.224 158.776,23.224 C159.947,23.224 160.358,22.358 160.358,21.608 L160.358,21.256 L159.796,21.256 Z M156.82,19.055 C157.407,18.504 158.248,18.235 159.022,18.235 C160.662,18.235 161.341,19.124 161.341,20.086 L161.341,22.92 C161.341,23.306 161.353,23.635 161.387,23.928 L160.451,23.928 C160.427,23.646 160.415,23.366 160.415,23.084 L160.392,23.084 C159.923,23.8 159.291,24.068 158.448,24.068 C157.418,24.068 156.528,23.483 156.528,22.404 C156.528,20.976 157.898,20.484 159.584,20.484 L160.358,20.484 L160.358,20.249 C160.358,19.676 159.936,19.078 159.034,19.078 C158.227,19.078 157.84,19.419 157.452,19.71 L156.82,19.056 L156.82,19.055 Z" id="Shape" fill="#000000" fill-rule="nonzero"></path>
                <path d="M162.443,18.376 L163.496,18.376 L163.496,19.231 L163.52,19.231 C163.789,18.646 164.492,18.235 165.182,18.235 C165.346,18.235 165.511,18.259 165.652,18.304 L165.605,19.441 C165.429,19.394 165.254,19.359 165.089,19.359 C164.058,19.359 163.496,19.921 163.496,21.14 L163.496,23.927 L162.443,23.927 L162.443,18.375 L162.443,18.376 Z" id="Path" fill="#000000"></path>
                <path d="M170.208,20.694 C170.185,19.769 169.67,19.077 168.603,19.077 C167.56,19.077 166.883,19.956 166.883,20.694 L170.208,20.694 Z M166.882,21.538 C166.882,22.51 167.784,23.153 168.755,23.153 C169.399,23.153 169.868,22.825 170.278,22.322 L171.075,22.93 C170.489,23.692 169.681,24.066 168.614,24.066 C166.859,24.066 165.756,22.801 165.756,21.15 C165.756,19.486 166.963,18.234 168.625,18.234 C170.582,18.234 171.331,19.734 171.331,21.162 L171.331,21.538 L166.881,21.538 L166.882,21.538 Z" id="Shape" fill="#000000" fill-rule="nonzero"></path>
                <polygon id="Path" fill="#000000" points="71.215 27.347 72.339 27.347 72.339 35.639 71.215 35.639"></polygon>
                <path d="M73.651,30.087 L74.705,30.087 L74.705,30.943 L74.728,30.943 C74.998,30.356 75.701,29.947 76.555,29.947 C77.633,29.947 78.57,30.59 78.57,32.067 L78.57,35.639 L77.517,35.639 L77.517,32.359 C77.517,31.316 76.92,30.931 76.252,30.931 C75.374,30.931 74.706,31.493 74.706,32.781 L74.706,35.639 L73.652,35.639 L73.652,30.087 L73.651,30.087 Z" id="Path" fill="#000000"></path>
                <path d="M80.375,31.002 L79.181,31.002 L79.181,30.088 L80.375,30.088 L80.375,28.846 C80.375,27.372 80.89,26.645 82.272,26.645 C82.507,26.645 82.765,26.657 83.057,26.727 L82.94,27.664 C82.741,27.583 82.554,27.559 82.343,27.559 C81.569,27.559 81.441,28.039 81.441,28.812 L81.441,30.087 L82.694,30.087 L82.694,31.001 L81.43,31.001 L81.43,35.64 L80.376,35.64 L80.376,31.002 L80.375,31.002 Z" id="Path" fill="#000000"></path>
                <path d="M85.786,34.796 C86.91,34.796 87.614,33.988 87.614,32.863 C87.614,31.74 86.911,30.931 85.786,30.931 C84.661,30.931 83.958,31.74 83.958,32.863 C83.958,33.988 84.66,34.796 85.786,34.796 Z M85.786,29.948 C87.437,29.948 88.737,31.247 88.737,32.863 C88.737,34.479 87.437,35.781 85.786,35.781 C84.134,35.781 82.835,34.48 82.835,32.863 C82.835,31.248 84.135,29.948 85.786,29.948 Z" id="Shape" fill="#000000" fill-rule="nonzero"></path>
                <path d="M89.65,30.087 L90.705,30.087 L90.705,30.943 L90.727,30.943 C90.997,30.356 91.701,29.947 92.391,29.947 C92.555,29.947 92.718,29.97 92.86,30.015 L92.813,31.152 C92.638,31.105 92.462,31.07 92.298,31.07 C91.268,31.07 90.706,31.632 90.706,32.85 L90.706,35.638 L89.651,35.638 L89.651,30.086 L89.65,30.087 Z" id="Path" fill="#000000"></path>
                <path d="M93.598,30.087 L94.581,30.087 L94.581,30.954 L94.605,30.954 C94.711,30.625 95.389,29.948 96.386,29.948 C97.205,29.948 97.768,30.298 98.119,30.978 C98.482,30.298 99.208,29.948 99.875,29.948 C101.585,29.948 101.984,31.166 101.984,32.408 L101.984,35.64 L100.93,35.64 L100.93,32.548 C100.93,31.705 100.754,30.931 99.736,30.931 C98.718,30.931 98.319,31.621 98.319,32.605 L98.319,35.639 L97.265,35.639 L97.265,32.735 C97.265,31.681 97.112,30.931 96.093,30.931 C95.332,30.931 94.653,31.505 94.653,32.757 L94.653,35.639 L93.6,35.639 L93.6,30.087 L93.598,30.087 Z" id="Path" fill="#000000"></path>
                <path d="M106.095,32.969 C105.099,32.969 103.881,33.145 103.881,34.035 C103.881,34.667 104.35,34.937 105.075,34.937 C106.246,34.937 106.655,34.07 106.655,33.321 L106.655,32.969 L106.094,32.969 L106.095,32.969 Z M103.121,30.767 C103.706,30.217 104.549,29.948 105.322,29.948 C106.962,29.948 107.642,30.837 107.642,31.799 L107.642,34.632 C107.642,35.018 107.653,35.346 107.688,35.64 L106.751,35.64 C106.728,35.358 106.716,35.078 106.716,34.796 L106.693,34.796 C106.223,35.51 105.592,35.779 104.749,35.779 C103.718,35.779 102.829,35.195 102.829,34.116 C102.829,32.687 104.199,32.195 105.885,32.195 L106.657,32.195 L106.657,31.96 C106.657,31.387 106.236,30.789 105.334,30.789 C104.527,30.789 104.139,31.129 103.752,31.422 L103.122,30.767 L103.121,30.767 Z" id="Shape" fill="#000000" fill-rule="nonzero"></path>
                <path d="M111.88,31.002 L110.369,31.002 L110.369,33.521 C110.369,34.14 110.369,34.796 111.166,34.796 C111.411,34.796 111.704,34.761 111.915,34.631 L111.915,35.592 C111.668,35.733 111.176,35.779 110.965,35.779 C109.337,35.779 109.314,34.784 109.314,33.893 L109.314,31 L108.095,31 L108.095,30.086 L109.314,30.086 L109.314,28.529 L110.368,28.529 L110.368,30.086 L111.879,30.086 L111.879,31.001 L111.88,31.002 Z" id="Path" fill="#000000"></path>
                <path d="M112.678,30.087 L113.731,30.087 L113.731,35.638 L112.678,35.638 L112.678,30.087 Z M113.203,27.324 C113.626,27.324 113.977,27.675 113.977,28.098 C113.977,28.521 113.626,28.872 113.203,28.872 C112.782,28.872 112.431,28.52 112.431,28.098 C112.431,27.676 112.782,27.324 113.203,27.324 Z" id="Shape" fill="#000000" fill-rule="nonzero"></path>
                <path d="M117.443,34.796 C118.569,34.796 119.271,33.988 119.271,32.863 C119.271,31.74 118.568,30.931 117.443,30.931 C116.318,30.931 115.618,31.74 115.618,32.863 C115.618,33.988 116.319,34.796 117.443,34.796 Z M117.443,29.948 C119.096,29.948 120.396,31.247 120.396,32.863 C120.396,34.479 119.097,35.781 117.443,35.781 C115.793,35.781 114.492,34.48 114.492,32.863 C114.492,31.248 115.793,29.948 117.443,29.948 Z" id="Shape" fill="#000000" fill-rule="nonzero"></path>
                <path d="M121.098,30.087 L122.151,30.087 L122.151,30.943 L122.175,30.943 C122.446,30.356 123.147,29.947 124.003,29.947 C125.081,29.947 126.018,30.59 126.018,32.067 L126.018,35.639 L124.964,35.639 L124.964,32.359 C124.964,31.316 124.367,30.931 123.699,30.931 C122.821,30.931 122.152,31.493 122.152,32.781 L122.152,35.639 L121.099,35.639 L121.099,30.087 L121.098,30.087 Z" id="Path" fill="#000000"></path>
                <path d="M136.747,29.14 C136.277,28.53 135.505,28.191 134.743,28.191 C132.881,28.191 131.651,29.677 131.651,31.563 C131.651,33.309 132.811,34.796 134.743,34.796 C135.693,34.796 136.418,34.375 136.911,33.683 L137.859,34.399 C137.612,34.739 136.616,35.85 134.72,35.85 C132.084,35.85 130.456,33.649 130.456,31.563 C130.456,28.986 132.225,27.136 134.779,27.136 C135.868,27.136 137.016,27.546 137.683,28.425 L136.747,29.141 L136.747,29.14 Z" id="Path" fill="#000000"></path>
                <path d="M142.426,32.408 C142.402,31.483 141.888,30.79 140.821,30.79 C139.778,30.79 139.101,31.668 139.101,32.408 L142.426,32.408 Z M139.101,33.249 C139.101,34.222 140.003,34.867 140.975,34.867 C141.618,34.867 142.087,34.538 142.497,34.036 L143.294,34.644 C142.709,35.405 141.9,35.78 140.835,35.78 C139.077,35.78 137.977,34.514 137.977,32.864 C137.977,31.2 139.184,29.948 140.846,29.948 C142.802,29.948 143.553,31.446 143.553,32.876 L143.553,33.25 L139.102,33.25 L139.101,33.249 Z" id="Shape" fill="#000000" fill-rule="nonzero"></path>
                <path d="M144.312,30.087 L145.366,30.087 L145.366,30.943 L145.389,30.943 C145.66,30.356 146.361,29.947 147.217,29.947 C148.295,29.947 149.232,30.59 149.232,32.067 L149.232,35.639 L148.178,35.639 L148.178,32.359 C148.178,31.316 147.581,30.931 146.913,30.931 C146.035,30.931 145.367,31.493 145.367,32.781 L145.367,35.639 L144.313,35.639 L144.313,30.087 L144.312,30.087 Z" id="Path" fill="#000000"></path>
                <path d="M153.342,31.002 L151.831,31.002 L151.831,33.521 C151.831,34.14 151.831,34.796 152.627,34.796 C152.873,34.796 153.165,34.761 153.377,34.631 L153.377,35.592 C153.131,35.733 152.64,35.779 152.428,35.779 C150.8,35.779 150.777,34.784 150.777,33.893 L150.777,31 L149.559,31 L149.559,30.086 L150.777,30.086 L150.777,28.529 L151.831,28.529 L151.831,30.086 L153.342,30.086 L153.342,31.001 L153.342,31.002 Z" id="Path" fill="#000000"></path>
                <path d="M154.174,30.087 L155.228,30.087 L155.228,30.943 L155.251,30.943 C155.521,30.356 156.223,29.947 156.914,29.947 C157.078,29.947 157.242,29.97 157.384,30.015 L157.337,31.152 C157.161,31.105 156.985,31.07 156.821,31.07 C155.791,31.07 155.229,31.632 155.229,32.85 L155.229,35.638 L154.175,35.638 L154.175,30.086 L154.174,30.087 Z" id="Path" fill="#000000"></path>
                <path d="M161.939,32.408 C161.916,31.483 161.401,30.79 160.335,30.79 C159.292,30.79 158.613,31.668 158.613,32.408 L161.939,32.408 Z M158.613,33.249 C158.613,34.222 159.515,34.867 160.487,34.867 C161.13,34.867 161.599,34.538 162.009,34.036 L162.806,34.644 C162.219,35.405 161.413,35.78 160.345,35.78 C158.59,35.78 157.487,34.514 157.487,32.864 C157.487,31.2 158.694,29.948 160.357,29.948 C162.312,29.948 163.063,31.446 163.063,32.876 L163.063,33.25 L158.612,33.25 L158.613,33.249 Z" id="Shape" fill="#000000" fill-rule="nonzero"></path>
            </g>
            <g id="client-Internews" transform="translate(1016.000000, 57.000000)" fill="#000000">
                <polygon id="Path" points="0.874 26.261 2.472 26.261 2.472 32.183 6.011 32.183 6.011 33.527 0.875 33.527"></polygon>
                <path d="M8.954,32.581 C9.941,32.581 10.235,31.736 10.235,30.902 C10.235,30.058 9.942,29.213 8.954,29.213 C7.976,29.213 7.682,30.057 7.682,30.902 C7.681,31.736 7.976,32.581 8.954,32.581 Z M8.954,28.124 C10.611,28.124 11.68,29.223 11.68,30.903 C11.68,32.571 10.612,33.67 8.954,33.67 C7.307,33.67 6.237,32.571 6.237,30.903 C6.237,29.223 7.307,28.124 8.954,28.124 Z" id="Shape" fill-rule="nonzero"></path>
                <path d="M15.638,30.117 C15.545,29.528 15.169,29.212 14.57,29.212 C13.643,29.212 13.338,30.147 13.338,30.922 C13.338,31.675 13.631,32.581 14.541,32.581 C15.21,32.581 15.597,32.153 15.689,31.513 L17.083,31.513 C16.9,32.905 15.934,33.668 14.548,33.668 C12.962,33.668 11.894,32.55 11.894,30.972 C11.894,29.334 12.87,28.123 14.58,28.123 C15.821,28.123 16.96,28.774 17.053,30.117 L15.638,30.117 Z" id="Path"></path>
                <path d="M20.816,30.95 C20.572,31.165 20.064,31.173 19.618,31.256 C19.168,31.348 18.76,31.5 18.76,32.03 C18.76,32.57 19.178,32.7 19.646,32.7 C20.775,32.7 20.816,31.806 20.816,31.492 L20.816,30.951 L20.816,30.95 Z M17.479,29.882 C17.56,28.528 18.772,28.122 19.953,28.122 C20.999,28.122 22.263,28.357 22.263,29.62 L22.263,32.357 C22.263,32.834 22.313,33.312 22.447,33.526 L20.98,33.526 C20.931,33.364 20.891,33.19 20.878,33.017 C20.42,33.496 19.751,33.669 19.108,33.669 C18.11,33.669 17.317,33.17 17.317,32.093 C17.317,30.902 18.211,30.616 19.108,30.494 C19.993,30.364 20.816,30.392 20.816,29.803 C20.816,29.183 20.389,29.091 19.881,29.091 C19.332,29.091 18.974,29.314 18.925,29.883 L17.478,29.883 L17.479,29.882 Z" id="Shape" fill-rule="nonzero"></path>
                <polygon id="Path" points="23.065 26.261 24.511 26.261 24.511 33.527 23.065 33.527"></polygon>
                <polygon id="Path" points="30.269 33.526 28.661 33.526 26.862 28.265 28.377 28.265 29.486 31.857 29.507 31.857 30.616 28.265 32.051 28.265"></polygon>
                <path d="M34.644,32.581 C35.631,32.581 35.925,31.736 35.925,30.902 C35.925,30.058 35.632,29.213 34.644,29.213 C33.67,29.213 33.372,30.057 33.372,30.902 C33.371,31.736 33.669,32.581 34.644,32.581 Z M34.644,28.124 C36.301,28.124 37.372,29.223 37.372,30.903 C37.372,32.571 36.302,33.67 34.644,33.67 C32.997,33.67 31.927,32.571 31.927,30.903 C31.927,29.223 32.996,28.124 34.644,28.124 Z" id="Shape" fill-rule="nonzero"></path>
                <path d="M37.789,28.267 L39.234,28.267 L39.234,33.529 L37.789,33.529 L37.789,28.267 Z M39.234,27.452 L37.789,27.452 L37.789,26.261 L39.234,26.261 L39.234,27.452 Z" id="Shape" fill-rule="nonzero"></path>
                <path d="M43.394,30.117 C43.303,29.528 42.929,29.212 42.326,29.212 C41.401,29.212 41.096,30.147 41.096,30.922 C41.096,31.675 41.392,32.581 42.297,32.581 C42.968,32.581 43.354,32.153 43.446,31.513 L44.84,31.513 C44.657,32.905 43.689,33.668 42.305,33.668 C40.719,33.668 39.651,32.55 39.651,30.972 C39.651,29.334 40.629,28.123 42.337,28.123 C43.577,28.123 44.719,28.774 44.811,30.117 L43.394,30.117 Z" id="Path"></path>
                <path d="M48.839,30.332 C48.705,29.599 48.392,29.211 47.689,29.211 C46.774,29.211 46.51,29.923 46.488,30.332 L48.839,30.332 Z M46.487,31.247 C46.532,32.163 46.979,32.581 47.781,32.581 C48.362,32.581 48.829,32.223 48.921,31.899 L50.193,31.899 C49.786,33.139 48.921,33.667 47.73,33.667 C46.071,33.667 45.043,32.529 45.043,30.902 C45.043,29.324 46.133,28.123 47.73,28.123 C49.521,28.123 50.385,29.629 50.284,31.247 L46.487,31.247 Z" id="Shape" fill-rule="nonzero"></path>
                <path d="M51.901,31.817 C51.913,32.449 52.441,32.702 53.01,32.702 C53.428,32.702 53.958,32.54 53.958,32.03 C53.958,31.593 53.355,31.441 52.319,31.216 C51.483,31.035 50.651,30.739 50.651,29.812 C50.651,28.47 51.809,28.122 52.94,28.122 C54.091,28.122 55.151,28.51 55.259,29.802 L53.887,29.802 C53.846,29.243 53.417,29.09 52.9,29.09 C52.574,29.09 52.097,29.15 52.097,29.578 C52.097,30.098 52.911,30.168 53.734,30.362 C54.581,30.556 55.404,30.86 55.404,31.835 C55.404,33.219 54.204,33.667 53,33.667 C51.779,33.667 50.59,33.21 50.529,31.816 L51.902,31.816 L51.901,31.817 Z" id="Path"></path>
                <polygon id="Path" points="55.748 31.957 57.346 31.957 57.346 33.526 55.748 33.526"></polygon>
                <path d="M65.222,32.702 C64.661,33.424 63.928,33.7 63.223,33.7 C60.975,33.7 59.654,32.021 59.654,29.923 C59.654,27.769 60.976,26.087 63.223,26.087 C64.711,26.087 66.118,27.004 66.288,28.651 L64.763,28.651 C64.578,27.848 63.978,27.432 63.223,27.432 C61.792,27.432 61.251,28.651 61.251,29.922 C61.251,31.136 61.791,32.355 63.223,32.355 C64.262,32.355 64.865,31.795 64.954,30.788 L63.346,30.788 L63.346,29.597 L66.4,29.597 L66.4,33.526 L65.384,33.526 L65.221,32.701 L65.222,32.702 Z" id="Path"></path>
                <polygon id="Path" points="67.228 26.261 68.673 26.261 68.673 33.527 67.228 33.527"></polygon>
                <path d="M71.804,32.581 C72.789,32.581 73.083,31.736 73.083,30.902 C73.083,30.058 72.789,29.213 71.804,29.213 C70.828,29.213 70.534,30.057 70.534,30.902 C70.535,31.736 70.829,32.581 71.804,32.581 Z M71.804,28.124 C73.459,28.124 74.53,29.223 74.53,30.903 C74.53,32.571 73.46,33.67 71.804,33.67 C70.158,33.67 69.09,32.571 69.09,30.903 C69.09,29.223 70.158,28.124 71.804,28.124 Z" id="Shape" fill-rule="nonzero"></path>
                <path d="M77.528,29.213 C76.677,29.213 76.299,30.016 76.299,30.902 C76.299,31.778 76.678,32.581 77.528,32.581 C78.386,32.581 78.763,31.778 78.763,30.902 C78.762,30.017 78.385,29.213 77.528,29.213 Z M74.905,26.261 L76.35,26.261 L76.35,28.907 L76.371,28.907 C76.728,28.367 77.38,28.122 78.029,28.122 C79.077,28.122 80.205,28.966 80.205,30.89 C80.205,32.823 79.076,33.668 78.029,33.668 C77.257,33.668 76.615,33.436 76.3,32.854 L76.281,32.854 L76.281,33.528 L74.907,33.528 L74.907,26.261 L74.905,26.261 Z" id="Shape" fill-rule="nonzero"></path>
                <path d="M84.042,30.95 C83.798,31.165 83.29,31.173 82.842,31.256 C82.396,31.348 81.988,31.5 81.988,32.03 C81.988,32.57 82.405,32.7 82.873,32.7 C84.001,32.7 84.043,31.806 84.043,31.492 L84.043,30.951 L84.042,30.95 Z M80.705,29.882 C80.786,28.528 81.997,28.122 83.177,28.122 C84.225,28.122 85.487,28.357 85.487,29.62 L85.487,32.357 C85.487,32.834 85.539,33.312 85.672,33.526 L84.206,33.526 C84.154,33.364 84.115,33.19 84.104,33.017 C83.647,33.496 82.978,33.669 82.334,33.669 C81.335,33.669 80.543,33.17 80.543,32.093 C80.543,30.902 81.439,30.616 82.334,30.494 C83.219,30.364 84.044,30.392 84.044,29.803 C84.044,29.183 83.618,29.091 83.107,29.091 C82.558,29.091 82.205,29.314 82.152,29.883 L80.707,29.883 L80.705,29.882 Z" id="Shape" fill-rule="nonzero"></path>
                <polygon id="Path" points="86.291 26.261 87.738 26.261 87.738 33.527 86.291 33.527"></polygon>
                <path d="M94.167,30.117 C94.076,29.528 93.699,29.212 93.097,29.212 C92.172,29.212 91.868,30.147 91.868,30.922 C91.868,31.675 92.162,32.581 93.068,32.581 C93.74,32.581 94.125,32.153 94.217,31.513 L95.611,31.513 C95.428,32.905 94.461,33.668 93.078,33.668 C91.492,33.668 90.423,32.55 90.423,30.972 C90.423,29.334 91.399,28.123 93.112,28.123 C94.351,28.123 95.492,28.774 95.585,30.117 L94.168,30.117 L94.167,30.117 Z" id="Path"></path>
                <path d="M96.07,26.261 L97.515,26.261 L97.515,28.997 L97.545,28.997 C97.911,28.408 98.544,28.122 99.081,28.122 C100.62,28.122 101.005,28.988 101.005,30.291 L101.005,33.526 L99.561,33.526 L99.561,30.555 C99.561,29.689 99.304,29.262 98.634,29.262 C97.849,29.262 97.514,29.699 97.514,30.767 L97.514,33.526 L96.069,33.526 L96.069,26.261 L96.07,26.261 Z" id="Path"></path>
                <path d="M105.024,30.95 C104.78,31.165 104.269,31.173 103.821,31.256 C103.375,31.348 102.968,31.5 102.968,32.03 C102.968,32.57 103.385,32.7 103.851,32.7 C104.982,32.7 105.024,31.806 105.024,31.492 L105.024,30.951 L105.024,30.95 Z M101.685,29.882 C101.765,28.528 102.977,28.122 104.161,28.122 C105.209,28.122 106.471,28.357 106.471,29.62 L106.471,32.357 C106.471,32.834 106.519,33.312 106.654,33.526 L105.188,33.526 C105.136,33.364 105.097,33.19 105.086,33.017 C104.627,33.496 103.957,33.669 103.315,33.669 C102.317,33.669 101.523,33.17 101.523,32.093 C101.523,30.902 102.419,30.616 103.315,30.494 C104.201,30.364 105.025,30.392 105.025,29.803 C105.025,29.183 104.596,29.091 104.087,29.091 C103.538,29.091 103.182,29.314 103.131,29.883 L101.686,29.883 L101.685,29.882 Z" id="Shape" fill-rule="nonzero"></path>
                <path d="M107.027,28.264 L108.399,28.264 L108.399,28.997 L108.432,28.997 C108.797,28.408 109.428,28.122 110.037,28.122 C111.575,28.122 111.961,28.987 111.961,30.289 L111.961,33.523 L110.516,33.523 L110.516,30.553 C110.516,29.689 110.261,29.26 109.589,29.26 C108.806,29.26 108.471,29.697 108.471,30.766 L108.471,33.523 L107.025,33.523 L107.025,28.263 L107.027,28.264 Z" id="Path"></path>
                <path d="M116.183,30.831 C116.183,29.976 115.889,29.212 114.954,29.212 C114.138,29.212 113.784,29.924 113.784,30.709 C113.784,31.461 114.067,32.283 114.954,32.283 C115.774,32.283 116.183,31.582 116.183,30.832 L116.183,30.831 Z M117.559,33.19 C117.559,34.054 117.25,35.519 114.833,35.519 C113.796,35.519 112.582,35.029 112.513,33.829 L113.948,33.829 C114.078,34.369 114.519,34.551 115.027,34.551 C115.83,34.551 116.192,34.002 116.184,33.248 L116.184,32.556 L116.167,32.556 C115.849,33.106 115.218,33.37 114.585,33.37 C113.011,33.37 112.339,32.169 112.339,30.724 C112.339,29.361 113.122,28.12 114.597,28.12 C115.29,28.12 115.817,28.353 116.167,28.964 L116.184,28.964 L116.184,28.264 L117.558,28.264 L117.558,33.188 L117.559,33.19 Z" id="Shape" fill-rule="nonzero"></path>
                <path d="M121.699,30.332 C121.568,29.599 121.251,29.211 120.548,29.211 C119.632,29.211 119.37,29.923 119.348,30.332 L121.699,30.332 Z M119.348,31.247 C119.389,32.163 119.838,32.581 120.643,32.581 C121.222,32.581 121.689,32.223 121.781,31.899 L123.055,31.899 C122.647,33.139 121.781,33.667 120.589,33.667 C118.932,33.667 117.905,32.529 117.905,30.902 C117.905,29.324 118.992,28.123 120.589,28.123 C122.384,28.123 123.244,29.629 123.143,31.247 L119.349,31.247 L119.348,31.247 Z" id="Shape" fill-rule="nonzero"></path>
                <polygon id="Path" points="123.5 31.957 125.098 31.957 125.098 33.526 123.5 33.526"></polygon>
                <polygon id="Path" points="0.795 0.473 5.193 0.473 5.193 20.481 0.795 20.481 0.795 0.473"></polygon>
                <path d="M7.798,5.994 L11.58,5.994 L11.58,8.01 L11.665,8.01 C12.671,6.385 14.412,5.599 16.091,5.599 C20.322,5.599 21.387,7.982 21.387,11.569 L21.387,20.48 L17.409,20.48 L17.409,12.298 C17.409,9.915 16.705,8.739 14.858,8.739 C12.703,8.739 11.779,9.945 11.779,12.888 L11.779,20.481 L7.8,20.481 L7.8,5.994 L7.798,5.994 Z" id="Path"></path>
                <path d="M28.733,5.994 L31.644,5.994 L31.644,8.657 L28.733,8.657 L28.733,15.829 C28.733,17.173 29.068,17.51 30.412,17.51 C30.835,17.51 31.223,17.483 31.644,17.398 L31.644,20.509 C30.97,20.62 30.105,20.646 29.321,20.646 C26.882,20.646 24.753,20.087 24.753,17.201 L24.753,8.657 L22.343,8.657 L22.343,5.994 L24.753,5.994 L24.753,1.651 L28.734,1.651 L28.734,5.994 L28.733,5.994 Z" id="Path"></path>
                <path d="M42.992,11.682 C42.63,9.666 41.76,8.599 39.825,8.599 C37.306,8.599 36.576,10.564 36.52,11.682 L42.992,11.682 Z M36.519,14.205 C36.63,16.724 37.866,17.876 40.078,17.876 C41.672,17.876 42.962,16.894 43.218,15.998 L46.719,15.998 C45.597,19.416 43.218,20.874 39.935,20.874 C35.372,20.874 32.54,17.734 32.54,13.253 C32.54,8.906 35.536,5.599 39.935,5.599 C44.869,5.599 47.252,9.747 46.972,14.204 L36.519,14.204 L36.519,14.205 Z" id="Shape" fill-rule="nonzero"></path>
                <path d="M48.778,6.053 L52.56,6.053 L52.56,8.742 L52.618,8.742 C53.345,6.921 55.307,5.66 57.237,5.66 C57.518,5.66 57.856,5.716 58.108,5.801 L58.108,9.5 C57.745,9.414 57.156,9.359 56.679,9.359 C53.765,9.359 52.755,11.462 52.755,14.012 L52.755,20.541 L48.777,20.541 L48.777,6.054 L48.778,6.053 Z" id="Path"></path>
                <path d="M59.589,6.067 L63.373,6.067 L63.373,8.083 L63.454,8.083 C64.466,6.458 66.204,5.675 67.885,5.675 C72.114,5.675 73.177,8.055 73.177,11.647 L73.177,20.555 L69.201,20.555 L69.201,12.374 C69.201,9.99 68.499,8.814 66.652,8.814 C64.493,8.814 63.57,10.019 63.57,12.962 L63.57,20.556 L59.589,20.556 L59.589,6.068 L59.589,6.067 Z" id="Path"></path>
                <path d="M85.154,11.682 C84.791,9.666 83.919,8.599 81.988,8.599 C79.467,8.599 78.736,10.564 78.682,11.682 L85.155,11.682 L85.154,11.682 Z M78.681,14.205 C78.792,16.724 80.025,17.876 82.239,17.876 C83.835,17.876 85.125,16.894 85.375,15.998 L88.879,15.998 C87.759,19.416 85.375,20.874 82.098,20.874 C77.533,20.874 74.703,17.734 74.703,13.253 C74.703,8.906 77.698,5.599 82.098,5.599 C87.028,5.599 89.411,9.747 89.132,14.204 L78.68,14.204 L78.681,14.205 Z" id="Shape" fill-rule="nonzero"></path>
                <polygon id="Path" points="107.086 20.481 102.997 20.481 100.42 10.759 100.361 10.759 97.895 20.481 93.778 20.481 89.182 5.993 93.388 5.993 96.049 15.83 96.105 15.83 98.516 5.993 102.381 5.993 104.849 15.801 104.903 15.801 107.565 5.993 111.656 5.993"></polygon>
                <path d="M115.575,15.772 C115.607,17.51 117.058,18.213 118.627,18.213 C119.776,18.213 121.231,17.765 121.231,16.364 C121.231,15.158 119.58,14.739 116.724,14.122 C114.425,13.617 112.128,12.804 112.128,10.253 C112.128,6.555 115.321,5.601 118.431,5.601 C121.598,5.601 124.513,6.669 124.819,10.224 L121.037,10.224 C120.926,8.684 119.749,8.265 118.32,8.265 C117.421,8.265 116.106,8.433 116.106,9.61 C116.106,11.04 118.346,11.234 120.619,11.766 C122.942,12.302 125.211,13.142 125.211,15.83 C125.211,19.64 121.905,20.875 118.604,20.875 C115.239,20.875 111.959,19.614 111.793,15.773 L115.575,15.773 L115.575,15.772 Z" id="Path"></path>
            </g>
            <g id="client-Parity" transform="translate(1337.000000, 60.000000)" fill="#000000">
                <polygon id="Path" points="38.599 14.546 41.159 14.546 39.879 11.572"></polygon>
                <path d="M60.492,10.668 L57.95,10.668 L57.95,13.624 L60.284,13.624 C60.284,13.624 61.583,13.191 61.602,12.146 C61.621,11.101 60.492,10.668 60.492,10.668 Z" id="Path"></path>
                <path d="M22.505,10.97 C21.545,10.97 19.964,10.97 19.964,10.97 L19.964,13.869 L22.977,13.869 C22.977,13.869 23.88,13.36 23.88,12.551 C23.879,11.741 23.465,10.97 22.506,10.97 L22.505,10.97 Z" id="Path"></path>
                <path d="M113.199,0.334 L77.27,0.334 L77.27,4.588 L71.447,4.588 L71.447,0.334 L14.097,0.334 C6.549,0.334 0.431,6.452 0.431,14.001 C0.431,21.55 6.549,27.666 14.097,27.666 L113.2,27.666 C120.747,27.666 126.865,21.548 126.865,14.001 C126.865,6.453 120.747,0.334 113.2,0.334 L113.199,0.334 Z M24.236,16.975 L19.92,16.975 L19.92,21.192 L14.097,21.192 L14.097,7.539 L24.438,7.539 C24.438,7.539 29.558,7.84 29.558,12.659 C29.558,17.478 24.64,16.975 24.237,16.975 L24.236,16.975 Z M43.913,21.191 L42.508,18.481 L37.287,18.481 L35.882,21.191 L30.26,21.191 L35.882,7.538 L43.412,7.538 L49.235,21.191 L43.914,21.191 L43.913,21.191 Z M61.558,21.191 C61.558,21.191 61.608,16.472 59.675,16.623 L57.742,16.623 L57.742,21.191 L52.245,21.191 L52.245,7.538 L63.188,7.538 C63.188,7.538 66.903,7.638 66.903,10.951 C66.903,14.264 64.594,14.364 64.594,14.364 L64.77,14.792 C64.77,14.792 67.104,16.147 67.104,21.192 L61.557,21.192 L61.558,21.191 Z M77.27,21.191 L71.447,21.191 L71.447,7.437 L77.27,7.437 L77.27,21.191 Z M96.697,11.579 L91.702,11.579 L91.702,21.192 L85.754,21.192 L85.754,11.654 L80.685,11.654 L80.685,7.538 L96.698,7.438 L96.698,11.58 L96.697,11.579 Z M110.601,16.522 L110.601,21.116 L104.703,21.116 L104.703,16.548 L99.081,7.437 L105.054,7.437 L107.703,12.583 L110.276,7.437 L116.325,7.437 L110.602,16.522 L110.601,16.522 Z" id="Shape" fill-rule="nonzero"></path>
            </g>
            <g id="client-Bank" transform="translate(1585.000000, 58.000000)" fill="#000000">
                <path d="M208.133,19.52 C211.271,19.52 212.406,17.599 212.406,15.393 C212.406,13.02 210.998,11.385 208.098,11.385 L206.827,11.385 L206.827,19.521 L208.133,19.521 L208.133,19.52 Z M205.047,9.945 L208.252,9.945 C212.22,9.945 214.307,12.168 214.307,15.376 C214.307,18.65 212.051,20.955 208.117,20.955 L205.046,20.955 L205.046,9.945 L205.047,9.945 Z M191.04,9.945 L192.787,9.945 L197.687,16.193 C198.264,16.929 198.705,17.529 199.061,18.065 L199.094,18.065 C199.077,17.48 199.061,16.862 199.061,16.178 L199.061,9.945 L200.84,9.945 L200.84,20.954 L199.264,20.954 L194.176,14.457 C193.615,13.754 193.191,13.153 192.802,12.635 L192.768,12.635 C192.802,13.12 192.821,13.687 192.821,14.405 L192.821,20.954 L191.04,20.954 L191.04,9.944 L191.04,9.945 Z M184.495,16.696 L183.595,14.189 C183.274,13.287 183.12,12.786 183.002,12.419 L182.968,12.419 C182.85,12.804 182.679,13.305 182.357,14.189 L181.425,16.696 L184.496,16.696 L184.495,16.696 Z M182.29,9.896 L183.614,9.896 L188.04,20.954 L186.141,20.954 L185.056,18.131 L180.901,18.131 L179.833,20.954 L178.001,20.954 L182.29,9.896 Z M170.249,9.945 L172.03,9.945 L172.03,19.519 L176.049,19.519 L176.049,20.954 L170.249,20.954 L170.249,9.944 L170.249,9.945 Z M166.163,20.254 C165.246,20.722 163.789,21.123 162.245,21.123 C158.683,21.123 156.496,18.819 156.496,15.644 C156.496,12.286 158.886,9.847 162.515,9.847 C163.821,9.847 164.905,10.115 165.704,10.414 L165.704,12.052 C164.857,11.634 163.856,11.333 162.652,11.333 C159.888,11.333 158.396,13.054 158.396,15.511 C158.396,18.017 159.905,19.637 162.382,19.637 C163.196,19.637 163.923,19.487 164.382,19.27 L164.382,15.661 L166.163,15.661 L166.163,20.255 L166.163,20.254 Z M142.998,9.945 L144.745,9.945 L149.647,16.193 C150.224,16.929 150.665,17.529 151.02,18.065 L151.054,18.065 C151.037,17.48 151.02,16.862 151.02,16.178 L151.02,9.945 L152.801,9.945 L152.801,20.954 L151.223,20.954 L146.135,14.456 C145.576,13.754 145.152,13.153 144.762,12.635 L144.728,12.635 C144.762,13.12 144.779,13.687 144.779,14.405 L144.779,20.954 L142.998,20.954 L142.998,9.944 L142.998,9.945 Z M132.418,9.945 L139.167,9.945 L138.676,11.381 L134.2,11.381 L134.2,14.606 L138.641,14.606 L138.641,16.043 L134.2,16.043 L134.2,19.519 L139.218,19.519 L139.218,20.954 L132.419,20.954 L132.419,9.944 L132.418,9.945 Z M117.886,9.945 L124.344,9.945 L123.855,11.381 L119.667,11.381 L119.667,14.606 L123.786,14.606 L123.786,16.043 L119.667,16.043 L119.667,20.954 L117.886,20.954 L117.886,9.944 L117.886,9.945 Z M112.289,15.492 C112.289,13.003 110.898,11.332 108.609,11.332 C106.405,11.332 104.93,12.919 104.93,15.492 C104.93,18.065 106.406,19.635 108.609,19.635 C110.814,19.635 112.289,18.064 112.289,15.492 Z M103.029,15.492 C103.029,12.15 105.353,9.844 108.608,9.844 C111.881,9.844 114.17,12.185 114.17,15.492 C114.17,18.901 111.796,21.122 108.608,21.122 C105.37,21.122 103.029,18.883 103.029,15.492 Z M88.298,9.945 L90.079,9.945 L90.079,14.757 L90.112,14.757 L94.08,9.945 L96.149,9.945 L91.621,15.324 L96.42,20.954 L94.25,20.954 L90.112,16.06 L90.079,16.06 L90.079,20.954 L88.298,20.954 L88.298,9.945 Z M74.29,9.945 L76.036,9.945 L80.937,16.193 C81.513,16.929 81.955,17.529 82.31,18.065 L82.343,18.065 C82.326,17.48 82.31,16.862 82.31,16.178 L82.31,9.945 L84.089,9.945 L84.089,20.954 L82.513,20.954 L77.425,14.456 C76.864,13.754 76.44,13.153 76.051,12.635 L76.017,12.635 C76.051,13.12 76.069,13.687 76.069,14.405 L76.069,20.954 L74.289,20.954 L74.289,9.944 L74.29,9.945 Z M67.745,16.696 L66.845,14.189 C66.523,13.287 66.37,12.786 66.252,12.419 L66.219,12.419 C66.099,12.804 65.93,13.305 65.609,14.189 L64.675,16.696 L67.746,16.696 L67.745,16.696 Z M65.541,9.896 L66.863,9.896 L71.29,20.954 L69.39,20.954 L68.305,18.131 L64.15,18.131 L63.082,20.954 L61.251,20.954 L65.541,9.896 Z M54.805,19.502 C56.196,19.502 57.026,19.002 57.026,17.765 C57.026,16.712 56.23,16.077 54.992,16.077 L53.382,16.077 L53.382,19.502 L54.806,19.502 L54.805,19.502 Z M54.431,14.623 C55.686,14.623 56.347,13.989 56.347,13.003 C56.347,12.085 55.771,11.398 54.431,11.398 L53.38,11.398 L53.38,14.623 L54.431,14.623 Z M51.6,9.945 L54.652,9.945 C57.043,9.945 58.112,11.281 58.112,12.735 C58.112,13.754 57.604,14.64 56.704,15.041 L56.704,15.074 C58.011,15.376 58.841,16.428 58.841,17.747 C58.841,19.502 57.519,20.954 54.959,20.954 L51.6,20.954 L51.6,9.945 Z" id="Shape" fill-rule="nonzero"></path>
                <path d="M21.927,26.997 C18.691,27.403 17.091,26.392 14.563,24.331 C14.77,25.554 15.663,26.504 16.404,27.037 C17.081,27.526 18.508,27.877 19.449,27.877 C20.39,27.877 21.269,27.353 21.927,26.998 L21.927,26.997 Z" id="Path"></path>
                <path d="M15.17,29.132 C15.334,29.155 15.437,28.871 15.3,28.781 C15.055,28.618 14.838,28.347 15.056,27.696 C14.776,27.714 14.083,27.36 13.8,26.167 C13.641,27.323 14.352,29.014 15.171,29.133 L15.17,29.132 Z" id="Path"></path>
                <path d="M17.286,28.39 C17.056,27.71 15.72,27.616 15.586,27.274 C15.472,27.664 15.293,27.682 15.258,28.326 C15.847,27.853 16.425,28.618 16.665,28.955 C16.905,29.292 17.505,29.035 17.286,28.39 Z" id="Path"></path>
                <path d="M18.546,29.131 C18.415,28.917 18.132,28.921 17.81,28.132 C17.456,28.556 17.658,29.003 17.875,29.196 C18.092,29.389 18.489,29.264 18.546,29.131 Z" id="Path"></path>
                <path d="M16.343,16.86 C12.893,16.86 12.361,21.855 12.361,23.806 C12.361,24.161 12.349,24.818 12.341,25.097 L11.498,21.801 C11.291,21.801 11.162,22.273 11.212,22.471 L13.553,31.693 C13.64,32.01 13.692,32.238 13.914,32.193 C14.166,32.141 14.002,31.632 13.94,31.363 L12.989,27.631 C13.208,27.195 13.396,26.627 13.493,26.071 C13.276,26.071 12.818,26.007 12.753,25.748 C13.449,25.727 13.554,25.538 13.566,25.431 C13.824,23.057 13.531,20.141 14.543,18.584 C15.561,17.019 17.722,17.264 18.529,17.178 C18.114,16.922 17.024,16.861 16.342,16.861 L16.343,16.86 Z" id="Path"></path>
                <path d="M8.752,29.712 C9.896,30.002 11.741,29.361 12.283,28.513 C12.21,28.174 12.145,27.948 12.048,27.542 C11.94,28.025 11.717,28.467 11.301,28.842 C10.483,28.311 10.255,29.486 8.751,29.712 L8.752,29.712 Z" id="Path"></path>
                <path d="M14.964,15.328 C12.916,15.65 12.321,15.158 11.662,15.245 C10.698,15.374 10.217,16.008 10.398,16.619 C10.429,16.378 10.943,15.858 11.401,15.922 C11.172,16.157 11.027,16.358 11.107,16.599 C11.098,16.573 11.288,16.735 11.564,16.502 C12.084,16.059 12.857,15.971 13.461,15.971 C14.187,15.971 14.903,15.856 15.194,15.61 C15.3,15.523 15.059,15.313 14.965,15.328 L14.964,15.328 Z" id="Path"></path>
                <path d="M34.005,6.338 C32.797,7.389 32.401,6.874 31.475,7.164 C31.428,7.179 31.456,7.052 31.405,7.07 C32.613,5.494 33.532,6.516 34.005,6.337 L34.005,6.338 Z" id="Path"></path>
                <path d="M32.928,8.089 C32.939,7.536 32.268,6.797 31.239,7.192 C32.031,7.987 32.525,7.9 32.928,8.089 Z" id="Path"></path>
                <path d="M24.126,25.886 C24.176,25.759 24.346,25.67 24.176,25.544 C23.577,25.104 24.068,24.91 23.871,24.75 C23.281,24.32 22.564,24.976 21.681,23.752 C22.106,23.929 22.648,24.319 23.19,24.15 C22.663,22.483 21.681,19.952 21.482,18.908 C21.414,18.567 21.332,18.063 20.49,18.063 C19.961,18.063 19.664,18.16 19.397,18.291 C19.466,18.113 20.091,17.762 20.504,17.712 C18.476,17.33 15.023,17.119 14.467,19.67 C14.34,20.243 15.068,21.063 17.003,20.39 C17.284,20.292 17.615,20.503 17.185,20.911 C16.755,21.319 15.318,22.295 14.063,21.433 C14.343,21.855 15.218,22.148 15.914,22.148 C16.607,22.148 17.758,22.028 18.297,20.563 C18.445,20.563 19.294,20.53 19.883,19.661 C19.699,20.886 19.273,21.305 18.837,21.626 C18.542,22.256 17.861,23.647 15.881,23.647 C15.381,23.647 15.107,23.631 14.652,23.333 C15.637,24.583 20.079,28.005 23.731,26.137 C23.687,26.33 23.252,26.758 22.778,26.942 C21.852,27.3 21.201,28.348 18.347,28.5 C18.41,29.402 19.879,29.197 20.211,29.084 C19.655,29.004 19.365,28.9 19.329,28.757 C20.375,28.815 21.509,28.693 22.817,28.112 C22.686,28.403 22.61,28.607 22.317,28.736 C24.049,28.874 24.627,27.466 25.038,27.323 C24.95,26.974 24.232,25.98 24.13,25.887 L24.126,25.886 Z" id="Path"></path>
                <path d="M16.567,13.894 C16.407,14.298 15.619,14.764 15.783,15.407 C15.783,15.214 16.712,14.401 16.927,13.991 C17.374,13.135 17.123,12.864 16.958,12.089 C16.942,12.755 16.835,13.214 16.567,13.893 L16.567,13.894 Z" id="Path"></path>
                <path d="M10.813,22.076 C10.971,22.262 11.069,22.651 11.282,22.667 C11.239,22.62 11.332,22.248 11.194,22.066 C11.086,21.508 11.136,21.251 11.205,21.206 C11.467,21.039 11.38,21.649 11.57,21.802 C11.617,21.842 11.684,21.89 11.766,21.838 C11.755,21.694 11.729,21.494 11.762,21.209 C11.647,20.952 11.566,20.424 11.566,20.4 C11.345,20.057 11.129,19.767 10.791,19.52 C10.659,19.357 10.523,19.1 10.349,18.851 C9.993,18.341 9.35,16.816 8.785,15.589 C8.404,14.761 7.978,14.344 8.108,14.107 C8.289,13.801 8.391,13.607 8.477,13.383 C8.327,12.814 7.86,11.034 7.606,10.034 C6.828,11.414 6.868,13.23 6.682,13.874 C6.483,14.557 6.731,14.606 6.779,14.924 C6.94,15.945 7.845,17.388 8.44,17.999 C8.781,18.348 9.802,19.415 9.802,19.853 C9.847,20.03 9.913,20.352 9.897,20.723 C9.952,20.89 10.043,20.864 10.143,20.965 C10.191,21.016 10.203,21.187 10.313,21.24 C10.37,21.266 10.398,21.276 10.552,21.39 C10.63,21.446 10.713,21.957 10.813,22.075 L10.813,22.076 Z" id="Path"></path>
                <path d="M18.578,15.825 C18.295,16.039 17.372,15.508 16.747,15.584 C16.323,15.648 16.111,15.912 15.892,15.943 C14.623,15.696 13.196,16.529 12.499,17.566 C12.388,17.73 12.23,17.856 12.207,18.08 C12.187,18.307 12.365,18.371 12.234,18.693 C11.964,19.597 11.973,20.333 12.076,20.958 C12.317,20.12 13.035,17.243 15.782,16.694 C15.096,16.566 14.103,16.857 13.428,17.136 C14.19,16.275 15.455,16.298 16.289,16.341 C16.334,16.337 16.12,16.168 16.044,16.008 C16.219,16.008 16.411,16.208 16.992,16.182 C17.631,16.151 17.863,16.122 18.218,16.069 C17.686,16.331 17.274,16.514 16.522,16.537 C18.637,17.181 19.03,16.406 20.141,16.236 C19.991,15.955 19.315,15.761 18.578,15.826 L18.578,15.825 Z" id="Path"></path>
                <path d="M9.531,21.534 C9.076,19.472 7.538,18.129 6.356,17.82 C6.316,17.809 5.752,19.717 5.817,21.53 C7.059,21.441 8.604,21.472 9.53,21.535 L9.531,21.534 Z" id="Path"></path>
                <path d="M6.07,23.87 C6.452,25.792 6.976,26.968 7.377,27.69 C8.345,27.215 9.531,26.092 9.724,23.759 C8.371,23.698 7.046,23.799 6.07,23.87 Z" id="Path"></path>
                <path d="M4.027,18.106 C3.034,18.667 2.027,19.962 1.917,22.113 C2.342,22.005 2.948,21.861 3.521,21.776 C3.499,20.982 3.52,19.684 4.027,18.106 Z" id="Path"></path>
                <path d="M2.2,24.341 C2.803,26.459 4.2,27.414 5.023,27.737 C4.348,26.496 3.995,25.322 3.765,24.106 C3.075,24.199 2.572,24.275 2.2,24.341 Z" id="Path"></path>
                <path d="M12.643,16.622 C11.074,16.826 11.153,18.063 11.303,18.341 C11.622,17.637 11.793,17.352 12.643,16.622 Z" id="Path"></path>
                <path d="M9.637,12.107 C9.967,11.88 9.967,11.324 9.917,11.066 C9.67,11.441 9.556,11.799 9.637,12.107 Z" id="Path"></path>
                <path d="M31.658,6.048 C30.595,6.097 30.122,6.423 29.952,7.527 C31.685,6.883 31.244,6.22 31.658,6.048 Z" id="Path"></path>
                <path d="M15.457,10.113 C15.353,10.731 14.824,10.737 14.607,11.015 C14.523,10.903 14.638,10.559 14.704,10.413 C14.099,10.817 13.724,11.447 13.724,11.96 C13.56,11.692 13.277,10.78 12.469,10.499 C12.226,10.415 12.354,10.658 12.469,10.907 C12.585,11.158 12.804,11.766 12.798,12.347 C12.792,12.741 12.563,13.113 12.433,13.168 C12.6,11.895 11.838,10.412 11.663,10.412 C11.335,10.412 10.857,12.367 11.542,13.818 C10.137,12.132 10.966,10.665 10.966,10.283 C10.966,9.843 10.915,9.628 10.552,9.317 C10.727,10.585 10.171,11.067 9.97,12.113 C9.871,12.634 9.872,13.043 10.045,13.284 C10.215,13.527 10.533,13.811 10.65,13.957 C10.765,14.103 11.229,14.729 11.598,14.729 C11.903,14.729 11.903,14.292 11.757,14.136 C11.92,14.115 12.116,14.15 12.232,14.268 C12.471,14.516 12.305,14.736 12.396,14.729 C12.858,14.698 13.48,13.071 13.623,12.566 C14.116,13.861 13.17,14.958 13.311,14.954 C13.724,14.944 14.488,14.01 14.731,13.644 C14.742,13.711 14.745,13.78 14.722,13.86 C14.646,14.14 14.582,14.504 14.704,14.504 C15.101,14.504 15.309,13.274 15.348,12.797 C15.386,12.319 16.044,12.066 15.998,11.284 C15.979,11.003 15.718,10.395 15.815,10.124 C16.103,10.285 16.326,10.399 16.517,10.502 C16.768,10.636 17.397,10.843 17.633,10.906 C18.339,11.088 19.322,11.348 19.578,11.418 C19.87,11.497 19.986,11.577 20.196,11.577 C21.288,11.577 22.898,10.722 23.058,10.6 C23.231,10.468 23.681,10.238 23.977,10.06 C24.262,9.86 24.78,9.553 25.09,9.457 C25.25,9.399 25.372,9.431 25.479,9.484 C25.832,9.657 26.026,9.743 26.427,9.786 C26.119,10.185 25.618,10.754 25.338,11.322 C25.385,11.38 25.522,11.441 25.572,11.475 C26.015,10.735 26.481,10.105 26.94,9.614 C26.971,9.581 26.753,9.542 26.786,9.397 C26.809,9.375 27.235,9.614 27.522,9.527 C27.541,9.509 27.66,9.527 27.644,9.374 C27.783,9.327 27.821,9.207 27.808,9.181 C27.464,9.124 27.2,9.074 27.086,9.082 C27.052,9.09 26.937,9.144 26.957,9.226 C26.892,9.231 26.796,9.257 26.79,9.323 C26.151,9.58 25.487,8.858 24.96,9.013 C25.137,8.676 25.997,9.037 26.395,9.044 C26.941,9.054 27.032,8.836 27.768,9.063 C28.217,9.16 28.313,8.963 27.981,8.83 C27.724,8.727 27.283,8.644 27.101,8.552 C27.425,8.548 27.745,8.499 28.168,8.669 C28.255,8.665 28.234,8.627 28.252,8.604 C28.339,8.486 29.683,7.606 31.477,7.167 L31.506,6.993 C30.672,7.137 29.879,7.397 28.117,8.38 C28.072,8.359 27.928,8.31 27.46,8.224 C26.707,8.31 25.196,8.308 24.81,8.466 C22.881,9.256 21.41,9.37 20.559,9.851 C20.075,10.127 19.454,9.587 19.252,9.448 C18.757,9.11 18.592,9.063 18.183,8.869 C18.025,8.803 17.276,8.377 17.125,8.347 C16.342,8.446 15.606,9.501 15.46,10.113 L15.457,10.113 Z" id="Path"></path>
                <path d="M10.992,9.276 C11.421,9.762 12.234,10.253 13.118,9.962 C11.843,9.689 10.856,7.107 9.419,7.02 C9.113,6.999 8.656,7.105 8.199,7.706 C9.832,7.084 10.594,8.818 10.993,9.275 L10.992,9.276 Z" id="Path"></path>
                <path d="M29.997,6.097 C29.756,6.108 28.624,6.419 28.929,7.987 C30.117,7.213 29.845,6.334 29.997,6.097 Z" id="Path"></path>
                <path d="M28.519,6.87 C27.505,7.4 27.781,7.945 27.763,8.319 L28.014,8.416 C28.766,7.674 28.424,7.051 28.519,6.869 L28.519,6.87 Z" id="Path"></path>
                <path d="M26.703,30.41 C26.102,30.272 25.704,30.437 25.156,30.066 C24.869,29.872 23.932,29.373 23.324,29.229 C22.155,29.655 21.692,29.509 21.144,29.493 C20.469,29.852 19.7,29.734 19.032,29.493 C18.402,29.95 17.864,29.743 17.59,29.529 C16.522,30.152 16.677,29.255 15.956,29.238 C14.898,29.905 14.02,29.463 13.599,29.204 C13.696,29.611 13.829,30.073 13.942,30.546 L26.83,30.552 C26.831,30.553 27.03,30.484 26.703,30.41 Z" id="Path"></path>
                <path d="M26.382,31.065 C26.136,31.064 14.076,31.064 14.076,31.064 L14.288,31.913 C14.387,32.401 14.197,32.672 13.822,32.66 C13.475,32.65 13.313,32.493 13.192,32.041 L12.946,31.065 C12.946,31.065 10.845,31.066 8.97,31.068 C9.4,31.32 12.793,33.213 17.646,33.235 C22.077,33.258 25.445,31.592 26.382,31.066 L26.382,31.065 Z" id="Path"></path>
                <path d="M6.661,9.36 C3.944,13.074 5.209,15.319 5.448,15.793 C5.317,15.235 5.078,14.15 5.448,13.206 C5.448,13.369 5.514,13.893 5.907,14.258 C5.819,13.314 5.406,12.508 7.03,9.206 C7.146,8.962 6.887,9.051 6.661,9.36 Z" id="Path"></path>
                <path d="M11.363,24.751 C11.27,24.355 10.966,23.143 10.813,22.567 C10.596,22.235 10.351,22.018 10.117,21.89 C10.144,22.008 10.169,22.129 10.19,22.253 C10.29,22.833 10.321,23.475 10.255,24.125 C10.052,26.189 8.973,28.311 6.686,28.649 C4.207,29.014 1.53,26.134 1.591,22.559 C1.649,18.984 3.815,17.34 5.466,17.324 C6.226,17.316 6.975,17.49 7.805,18.071 C7.281,17.179 7.1,16.698 6.95,16.195 C6.529,16.038 5.912,15.956 5.492,15.978 C1.678,16.168 -5.41788836e-14,20.852 0.905,24.535 C1.249,25.936 1.935,27.395 3.048,28.471 C3.608,28.985 4.502,29.749 5.598,29.921 C8.517,30.578 10.961,28.005 11.363,24.751 Z" id="Path"></path>
                <path d="M6.594,4.239 C6.648,4.389 9.935,17.425 10.011,17.727 C10.069,17.956 10.19,18.172 10.317,18.148 C10.408,18.129 10.544,17.982 10.456,17.673 C10.456,17.673 9.083,12.357 9.034,12.131 C9.442,11.487 9.534,10.541 9.915,10.056 C10.146,10.368 10.174,10.04 10.181,9.798 C10.222,8.17 9.317,7.913 9.126,7.901 C8.325,7.853 8.185,8.757 8.185,8.757 L7.024,4.148 C7.245,4.115 7.409,4.212 7.563,4.358 C7.518,3.879 7.009,2.241 6.085,1.756 C5.602,3.271 6.015,4.304 6.145,4.734 C6.192,4.544 6.308,4.304 6.594,4.24 L6.594,4.239 Z" id="Path"></path>
                <path d="M12.48,29.233 C11.477,29.919 9.782,30.308 8.833,30.34 C8.344,30.352 8.329,30.492 8.354,30.554 C8.74,30.56 12.822,30.548 12.822,30.548 C12.822,30.548 12.567,29.554 12.479,29.233 L12.48,29.233 Z" id="Path"></path>
                <path d="M30.137,7.514 C31.666,7.474 31.862,8.231 31.837,8.578 C31.699,8.449 30.53,8.545 30.137,7.514 Z" id="Path"></path>
                <path d="M25.467,5.273 C26.089,6.164 30.435,8.839 30.825,8.975 C30.368,7.836 29.331,7.971 29.07,8.029 L25.467,5.273 Z" id="Path"></path>
                <path d="M29.081,8.654 C28.85,8.543 28.356,8.415 28.099,8.557 C28.099,8.557 28.209,9.565 29.799,9.372 C29.822,9.429 29.319,8.771 29.081,8.653 L29.081,8.654 Z" id="Path"></path>
                <path d="M26.465,29.937 C26.707,29.937 27.162,30.001 27.598,29.657 C27.91,29.754 28.065,29.502 28.122,29.357 C27.839,29.228 26.969,28.746 26.526,28.359 C26.147,28.028 25.956,27.781 25.616,27.661 C25.158,27.877 24.457,28.865 24.111,28.928 C24.918,29.25 25.491,29.935 26.466,29.937 L26.465,29.937 Z" id="Path"></path>
                <path d="M26.804,21.812 C26.749,22.03 26.407,22.138 26.041,22.049 C25.675,21.96 25.422,21.712 25.475,21.493 C25.703,21.515 25.908,21.43 26.237,21.256 C26.342,21.488 26.604,21.644 26.803,21.812 L26.804,21.812 Z" id="Path"></path>
                <path d="M27.057,23.252 C27.335,23.349 27.63,23.327 27.81,23.231 C27.861,23.4 27.77,23.714 27.49,23.935 C27.171,24.187 26.743,24.237 26.619,24.083 C26.926,23.94 27.081,23.591 27.057,23.253 L27.057,23.252 Z" id="Path"></path>
                <path d="M25.92,24.455 C26.24,24.604 26.436,24.865 26.379,25.11 C26.309,25.416 25.869,25.578 25.399,25.472 C24.927,25.367 24.603,25.034 24.674,24.727 C24.708,24.575 24.834,24.46 25.007,24.394 C25.118,24.477 25.574,24.554 25.921,24.454 L25.92,24.455 Z" id="Path"></path>
                <path d="M25.605,23.31 C25.589,23.31 25.575,23.311 25.558,23.313 C25.122,23.153 25.021,22.93 25.043,22.65 C24.816,22.65 24.341,22.687 24.383,23.045 C24.41,23.269 24.672,23.469 24.975,23.527 C24.895,23.602 24.849,23.691 24.851,23.788 C24.855,24.044 25.197,24.249 25.616,24.243 C26.037,24.237 26.375,24.024 26.371,23.767 C26.368,23.51 26.025,23.306 25.605,23.311 L25.605,23.31 Z" id="Path"></path>
                <path d="M28.336,25.736 C28.159,26.02 27.686,26.053 27.282,25.808 C26.877,25.564 26.695,25.133 26.874,24.85 C27.051,24.564 27.522,24.531 27.927,24.778 C28.33,25.022 28.514,25.451 28.337,25.736 L28.336,25.736 Z" id="Path"></path>
                <path d="M30.824,28.173 C30.824,28.782 30.258,29.276 29.558,29.276 C28.858,29.276 28.29,28.783 28.29,28.173 C28.29,27.563 28.857,27.07 29.558,27.07 C30.256,27.07 30.824,27.564 30.824,28.173 Z" id="Path"></path>
                <path d="M31.43,23.728 C31.628,23.812 31.769,23.956 31.805,24.138 C31.874,24.493 31.524,24.857 31.021,24.952 C30.518,25.047 30.056,24.839 29.987,24.485 C29.954,24.31 30.021,24.133 30.159,23.987 C30.319,24.096 31.128,24.145 31.43,23.727 L31.43,23.728 Z" id="Path"></path>
                <path d="M31.936,26.122 C31.411,26.105 30.997,25.723 31.011,25.269 C31.304,25.309 31.938,25.008 31.988,24.475 C32.512,24.491 32.927,24.872 32.912,25.328 C32.898,25.782 32.462,26.138 31.936,26.122 Z" id="Path"></path>
                <path d="M28.723,26.174 C29.941,26.28 30.253,25.759 30.362,25.272 C30.427,25.3 30.487,25.332 30.542,25.369 C30.822,25.553 30.991,25.83 30.963,26.126 C30.916,26.604 30.374,26.943 29.747,26.884 C29.237,26.839 28.831,26.541 28.723,26.175 L28.723,26.174 Z" id="Path"></path>
                <path d="M26.295,27.109 C26.376,26.924 26.545,26.795 26.758,26.733 C26.769,26.968 27.061,27.791 28.315,27.585 C28.274,27.676 28.267,27.893 28.391,27.99 C28.214,28.398 27.603,28.533 27.023,28.29 C26.443,28.047 26.117,27.518 26.294,27.11 L26.295,27.109 Z" id="Path"></path>
                <path d="M26.815,26.444 C26.726,26.722 26.288,26.834 25.835,26.695 C25.382,26.556 25.084,26.216 25.173,25.94 C25.315,26.008 25.708,26.088 26.153,25.689 C26.608,25.828 26.905,26.165 26.816,26.444 L26.815,26.444 Z" id="Path"></path>
                <path d="M28.8,27.155 C28.639,27.202 28.457,27.23 28.264,27.23 C27.595,27.23 27.054,26.904 27.054,26.505 C27.178,26.472 27.73,26.629 28.361,26.048 C28.307,26.456 28.472,26.924 28.8,27.155 Z" id="Path"></path>
                <path d="M29.67,21.471 C29.091,21.829 28.656,21.893 28.483,21.763 C29.019,21.624 29.393,21.294 29.321,21.027 C29.262,20.802 28.902,20.693 28.47,20.747 C28.432,21 28.337,21.334 27.402,21.34 C27.375,21.405 27.368,21.469 27.383,21.53 C27.434,21.722 27.703,21.829 28.049,21.822 C27.88,22.223 27.422,22.384 26.934,22.321 C26.919,22.638 27.326,22.913 27.841,22.937 C28.356,22.961 28.786,22.723 28.8,22.408 C28.801,22.395 28.8,22.385 28.8,22.373 C28.897,22.398 29.002,22.417 29.114,22.422 C29.637,22.45 30.073,22.238 30.09,21.945 C30.1,21.756 29.931,21.579 29.668,21.47 L29.67,21.471 Z" id="Path"></path>
                <path d="M25.2,21.932 C25.2,21.672 24.761,21.46 24.22,21.46 C24.201,21.46 24.166,21.458 24.133,21.454 C24.05,20.318 23.966,19.078 23.979,18.359 C23.987,17.972 23.914,17.564 23.388,17.372 C22.909,17.197 21.18,16.545 20.635,16.423 C19.957,16.429 19.363,16.81 18.835,17.178 C18.989,17.173 19.032,17.152 19.168,17.156 C19.905,17.175 20.13,17.146 20.816,17.339 C21.263,17.465 21.681,17.693 21.794,17.887 C21.942,18.147 22.462,18.571 22.672,18.571 C22.882,18.571 23.186,18.373 23.58,18.096 C23.483,18.692 23.184,18.949 22.975,19.218 C22.766,19.487 22.648,20.077 22.801,20.786 C22.932,20.462 22.939,19.779 23.497,19.475 C23.244,19.93 23.236,21.219 23.236,21.731 C23.236,22.243 23.629,22.998 24.261,24.201 C24.321,23.942 24.26,23.402 24.197,22.401 C24.205,22.401 24.212,22.403 24.219,22.403 C24.758,22.403 25.198,22.191 25.198,21.931 L25.2,21.932 Z" id="Path"></path>
                <path d="M29.607,24.492 C29.414,24.748 29.234,25.213 28.546,25.342 C28.723,25.623 29.199,25.701 29.654,25.511 C29.756,25.467 29.849,25.414 29.932,25.353 C29.669,24.997 29.621,24.788 29.608,24.492 L29.607,24.492 Z" id="Path"></path>
                <path d="M31.002,22.445 C30.523,22.245 30.048,22.281 29.941,22.529 C29.894,22.635 29.966,22.882 30.122,23.013 C29.909,23.004 29.779,22.971 29.574,22.69 C29.362,22.787 29.146,22.735 29.03,22.723 C28.983,22.862 29.009,23.014 29.091,23.154 C28.848,23.063 28.529,23.104 28.253,23.287 C27.847,23.553 27.69,24.02 27.898,24.33 C28.109,24.64 28.606,24.674 29.011,24.406 C29.37,24.171 29.535,23.776 29.421,23.476 C29.495,23.52 29.578,23.559 29.667,23.588 C30.085,23.724 30.504,23.621 30.661,23.36 C31.124,23.537 31.574,23.496 31.678,23.259 C31.786,23.012 31.484,22.649 31.003,22.446 L31.002,22.445 Z" id="Path"></path>
                <path d="M11.021,4.307 C9.801,5.187 10.671,6.246 9.668,6.772 C10.834,6.735 10.52,5.079 11.021,4.307 Z M15.093,3.075 C15.124,3.064 15.06,2.836 14.667,2.858 C15.167,2.592 15.529,2.867 15.519,2.915 C15.495,3.037 15.358,3.092 15.344,3.186 C15.338,3.225 15.431,3.25 15.454,3.288 C15.407,3.286 15.326,3.323 15.284,3.325 C15.267,3.362 15.225,3.5 15.184,3.502 C14.938,3.494 14.794,3.236 14.636,3.188 C14.671,3.203 14.827,3.103 15.094,3.075 L15.093,3.075 Z M14.573,1.876 C15.063,1.715 15.031,1.44 14.846,1.092 C15.701,1.504 15.586,1.972 14.573,1.876 Z M16.371,7.761 C15.727,7.299 15.713,6.823 15.402,6.976 C15.795,7.814 15.718,8.416 14.473,9.032 C14.388,8.807 14.704,8.678 14.955,8.436 C15.237,8.165 15.334,7.763 15.172,7.127 C15.139,6.996 14.867,6.333 14.257,6.343 C14.604,6.836 14.964,7.367 14.639,8.207 C14.638,7.497 14.485,7.271 13.995,6.698 C13.854,6.872 13.51,7.084 13.478,7.482 C13.064,7.268 14.044,6.189 13.84,5.709 C13.562,5.565 13.432,5.237 13.394,4.916 C13.672,5.198 14.121,5.445 14.666,5.527 C14.917,5.565 15.173,5.538 15.222,5.366 C15.272,5.193 15.184,5.16 15.195,5.086 C15.201,5.044 15.186,4.948 15.349,4.951 C15.404,4.803 15.343,4.758 15.26,4.699 C15.426,4.699 15.48,4.596 15.491,4.56 C15.46,4.502 15.421,4.463 15.457,4.381 C15.522,4.221 15.864,4.319 15.89,4.147 C15.905,4.05 15.838,3.968 15.793,3.866 C15.719,3.699 15.716,3.702 15.58,3.374 C15.511,3.209 15.599,3.052 15.629,2.802 C15.66,2.512 15.523,2.133 15.523,2.133 C15.959,1.852 15.912,1.43 15.727,1.366 C15.269,1.236 14.575,0.378 13.676,0.313 C12.989,0.264 12.089,0.265 11.681,0.78 C11.381,1.158 10.736,1.739 10.619,2.359 C10.489,3.036 10.652,3.749 11.11,4.071 C10.958,3.512 10.949,3.198 10.961,2.874 C10.975,2.53 11.14,1.183 12.424,0.596 C13.135,0.41 14.051,0.425 14.344,0.909 C13.805,0.748 13.217,0.812 12.742,1.006 C12.267,1.2 11.728,1.683 11.88,2.489 C11.509,2.5 11.446,2.118 11.443,2.114 C11.338,2.383 11.188,3.243 11.855,3.687 C12.009,3.79 12.217,3.686 12.147,3.576 C11.873,3.137 12.088,2.78 12.183,2.744 C12.424,2.654 12.655,2.42 12.69,2.118 C12.887,2.489 12.788,2.747 12.559,2.972 C13.262,2.811 12.903,2.511 13.818,2.381 C13.252,2.703 13.445,3.128 12.844,3.318 C13.883,3.689 13.711,2.062 14.832,2.188 C13.858,2.286 13.965,4.776 11.769,5.216 C11.464,6.563 10.929,6.655 10.145,6.988 C11.741,7.449 12.401,9.491 14.102,9.19 C13.927,9.491 13.688,9.49 13.469,9.49 C13.45,9.92 13.507,10.269 13.835,10.252 C15.325,9.93 15.682,8.336 17.079,8.093 C17.024,7.922 16.611,7.955 16.37,7.762 L16.371,7.761 Z" id="Shape" fill-rule="nonzero"></path>
                <path d="M4.511,17.883 C5.013,17.705 5.588,17.673 5.94,17.744 C4.583,22.367 5.995,26.162 6.979,27.823 C6.317,28.028 5.631,27.93 5.496,27.87 C4.197,25.321 3.292,21.538 4.511,17.884 L4.511,17.883 Z" id="Path"></path>
                <path d="M1.919,22.538 C1.94,23.011 2.028,23.645 2.093,23.934 C3.816,23.623 5.99,23.396 9.752,23.325 C9.789,22.946 9.682,22.103 9.62,21.894 C7.314,21.69 3.299,22.019 1.919,22.538 Z" id="Path"></path>
                <path d="M33.579,26.463 C33.26,26.894 32.661,27.589 32.247,27.994 C31.713,27.863 31.339,27.556 31.339,27.199 C31.339,26.723 32,26.339 32.816,26.339 C33.096,26.339 33.357,26.384 33.579,26.463 Z" id="Path"></path>
                <path d="M28.214,20.651 C28.205,20.851 27.795,20.997 27.298,20.974 C26.803,20.954 26.407,20.772 26.417,20.573 C26.427,20.374 26.835,20.229 27.332,20.25 C27.828,20.27 28.223,20.45 28.214,20.651 Z" id="Path"></path>
                <path d="M26.754,20.131 C26.693,19.982 26.202,20.042 25.658,20.262 C25.118,20.483 24.728,20.783 24.789,20.93 C24.85,21.079 25.341,21.02 25.885,20.798 C26.425,20.578 26.815,20.279 26.754,20.131 Z" id="Path"></path>
                <path d="M26.498,22.344 C26.378,22.526 26.367,22.73 26.579,22.978 C26.434,23.051 26.237,23.096 26.023,23.096 C25.57,23.096 25.199,22.896 25.199,22.65 C25.199,22.404 25.569,22.205 26.023,22.205 C26.107,22.268 26.214,22.354 26.498,22.343 L26.498,22.344 Z" id="Path"></path>
            </g>
        </g>
    </g>
</svg>