<?xml version="1.0" encoding="utf-8"?>
<!-- Generator: Adobe Illustrator 15.0.0, SVG Export Plug-In . SVG Version: 6.00 Build 0)  -->
<!DOCTYPE svg PUBLIC "-//W3C//DTD SVG 1.1//EN" "http://www.w3.org/Graphics/SVG/1.1/DTD/svg11.dtd">
<svg version="1.1" id="Layer_1" xmlns="http://www.w3.org/2000/svg" xmlns:xlink="http://www.w3.org/1999/xlink" x="0px" y="0px"
	 width="85.04px" height="85.04px" viewBox="0 0 85.04 85.04" enable-background="new 0 0 85.04 85.04" xml:space="preserve">
<g>
	<g>
		<path fill="#FFFFFF" d="M14.981,74.607c-0.09-0.288-0.355-0.937-0.426-1.414c-0.159-1.059,0.395-1.757,0.903-1.916
			c0.571-0.159,0.793,0.127,1.014,0.794c0.286,1.013,0.317,2.343,0.221,4.245c-0.125,2.6-1.425,5.738-4.658,5.674
			c-2.791-0.062-4.025-1.868-4.153-4.626c-0.061-1.3,0.032-2.6,0.57-4.437c0.286-0.985,0.541-1.335,1.427-1.523
			c0.697-0.127,0.634,0.602,0.476,1.459c-0.347,1.901-0.509,2.82-0.38,4.977c0.125,2.282,1.173,3.17,2.314,3.17
			c1.712,0.033,2.472-1.395,2.791-3.456C15.331,75.906,15.141,75.114,14.981,74.607z M51.482,76.858
			c0.666,0,0.857,0.789,0.697,1.267c-0.158,0.474-0.729,1.016-1.615,1.174C50.373,78.822,50.277,76.858,51.482,76.858z
			 M39.089,77.933c0-0.536-0.286-0.98-0.632-0.98c-0.289,0-0.952,0.315-0.952,1.33c0,0.796,0.281,1.173,0.412,1.333
			C38.834,79.33,39.089,78.567,39.089,77.933z M29.229,71.468c-0.045-0.509-0.444-0.854-0.983-0.854
			c-0.602,0-1.168,0.631-1.108,1.424c0.039,0.522,0.346,0.953,0.953,0.953C28.786,72.99,29.293,72.198,29.229,71.468z
			 M34.384,73.329c-0.055-0.886-0.27-1.286-0.746-1.254c-0.631,0.038-0.922,2.024-0.794,4.112c0.082,1.363,0.285,1.572,0.474,1.56
			C33.667,77.726,34.505,75.292,34.384,73.329z M55.413,76.666c-0.393,1.63-1.584,4.027-3.36,4.027
			c-0.412,0-1.143-0.159-1.143-0.571c0-0.445,2.793-0.507,2.793-2.631c0-0.791-0.729-1.903-1.808-1.903
			c-1.427,0-2.818,1.555-2.818,3.711c0,1.932,1.2,2.565,2.405,2.565c2.092,0,3.36-1.712,4.026-3.138
			c0.318,0.95,0.504,3.138,1.3,3.138c0.316,0,0.539-0.158,0.92-1.013c0.948-2.125,1.869-4.566,3.139-4.566
			c0.474,0,0.19,0.857,1.33,0.857c0.538,0,0.918-0.442,0.918-0.952c0-0.73-0.665-1.3-1.679-1.3c-2.98,0-3.611,4.471-4.089,4.471
			c-0.792,0-0.539-3.582-1.11-3.582C55.729,75.779,55.48,76.384,55.413,76.666z M30.054,80.47c0.476,0,1.292-0.153,1.935-1.184
			c-0.368-0.816-0.629-2.467-0.667-3.067c-0.189-3.073,0.995-5.964,2.291-6.044c0.95-0.058,1.711,0.842,1.798,2.3
			c0.234,3.828-1.042,5.427-1.681,6.806c0.108,0.534,1.016,1.444,1.871,1.444c0.315,0,0.698-0.158,0.794-0.287
			c-0.064-0.22-0.129-0.506-0.129-0.919c0-2.219,1.427-4.09,2.665-4.09c0.981,0,1.552,1.3,1.552,2.157
			c0,1.013-0.856,1.839-2.125,2.632c0.224,0.22,0.634,0.381,0.984,0.381c1.808,0,2.755-2.188,3.456-4.187
			c0.126-0.381,0.349-0.919,0.793-0.919c0.76,0,1.078,5.01,2.342,5.01c0.541,0,0.984-1.112,0.984-1.966
			c0-0.634-0.223-0.697-0.223-1.618c0-1.013,0.539-1.867,1.271-1.867c0.444,0,0.604,0.441,0.604,0.979
			c0,2.029-1.461,5.802-3.613,5.802c-1.62,0-1.493-2.79-2.063-2.79c-0.637,0-1.524,2.821-4.659,2.821
			c-0.51,0-1.048-0.252-1.491-0.762c-0.76,0.51-1.396,0.73-2.126,0.73c-1.171,0-1.679-1.204-2.154-1.204
			c-0.572,0-1.203,1.235-3.107,1.235c-1.521,0-1.775-2.026-2.313-2.026c-0.477,0-1.205,2.026-1.998,2.026
			c-1.333,0-1.616-3.518-2.791-3.518c-0.918,0-3.823,3.574-4.612,3.491c-0.317-0.033-0.451-0.27-0.417-0.586
			c0.044-0.439,0.422-1.613,0.575-2.169c0.256-0.964,0.491-2.02,0.623-2.356c0.13-0.34,0.483-0.583,0.765-0.557
			c0.143,0.013,0.185,0.279,0.229,0.498c0.16,0.783,0.384,1.583,0.636,1.583c0.445,0,1.916-2.822,2.771-2.822
			c1.048,0,1.173,4.439,2.599,4.439c0.477,0,0.826-0.569,1.142-1.27c0.033-1.174,0.349-2.851,1.3-2.851
			c0.667,0,0.984,1.488,0.507,2.789C28.374,80.089,29.387,80.47,30.054,80.47"/>
	</g>
	<path fill="#FFFFFF" d="M52.134,30.759c-0.236,0-0.572,0-0.758-0.369c-0.151-0.303-0.101-0.791-0.386-1.01
		c0.285,0.083,0.588,0.083,0.824,0.083c0.758,0,1.481-0.521,2.037-0.521c0.366,0,0.484,0.236,0.484,0.47
		C54.336,30.154,52.843,30.759,52.134,30.759z M52.504,32.66c1.748,0,3.349-1.396,3.349-2.624c0-0.573-0.271-1.043-0.961-1.127
		c0.118,0.151,0.168,0.269,0.168,0.538c0,0.925-1.409,1.952-2.941,1.952c-0.557,0-0.725,0.387-0.725,0.588
		C51.394,32.458,51.848,32.66,52.504,32.66z M52.369,33.367c0.22,1.597,2.641,3.75,3.297,3.7c0.438-0.037,0.605-2.086,0.605-3.7
		c0-0.925,0.052-1.649-0.438-1.818C55.06,33.114,53.026,33.434,52.369,33.367"/>
	<path fill="#FFFFFF" d="M14.508,43.947c0.571,0,0.453-3.499,1.378-3.499c0.219,0,0.287,0.218,0.287,0.487
		c0,0.791-0.387,1.953-0.387,2.591c0,0.32,0.084,0.421,0.236,0.421c0.404,0,1.11-3.853,1.8-3.853c0.219,0,0.319,0.219,0.319,0.438
		c0,0.808-1.025,3.129-1.025,3.784c0,0.102,0.033,0.186,0.118,0.186c0.421,0,1.261-1.816,1.53-2.724
		c0.151-0.472,0.353-0.724,0.539-0.724c0.168,0,0.32,0.186,0.32,0.573c0,0.908-0.841,3.044-1.582,4.475
		c-0.571,1.109-1.463,2.706-1.463,3.598c0,0.455,0.083,0.926,0.739,1.497c-1.076-0.066-1.514-0.168-1.917-1.008
		c-1.8,3.582,3.313,3.229,1.564,6.407c-0.32-0.571-2.843-1.16-2.843-4.49c0-2.877,2.522-4.559,2.522-5.752
		c0-0.236-0.083-0.438-0.302-0.623c-0.556-0.472-0.573-0.857-1.01-0.857c-0.318,0-0.707,0.739-0.303,1.396
		c0.135,0.219,0.253,0.354,0.253,0.555c0,0.471-0.741,1.732-1.261,1.732c-0.522,0-0.925-1.294-0.925-3.38
		c0-1.852,0.42-3.718,0.942-3.718c0.15,0,0.201,0.101,0.201,0.236c0,0.219-0.067,0.656-0.067,1.396
		C14.171,43.879,14.356,43.947,14.508,43.947"/>
	<path fill="#FFFFFF" d="M18.796,48.875c0.707,0,1.295-0.523,1.295-1.681v-1.718c0-0.655,0.051-1.396,0.488-1.918
		c-0.05,0.22-0.05,0.455-0.05,0.674c0,1.446,0.807,2.439,0.807,3.835c0,0.521-0.151,0.808-0.554,0.808
		c-0.387,0-0.354-0.354-0.438-0.354c-0.067,0-0.168,0.218-0.168,0.454c0,0.353,0.252,0.908,0.959,0.908
		c0.605,0,1.093-0.556,1.093-1.177c0-1.513-1.177-3.197-1.177-4.811c0-0.707,0.185-1.177,0.337-1.548
		c0,3.347,2.842,5.787,2.842,7.182c0,0.32-0.235,0.573-0.588,0.573c-0.387,0-0.572-0.305-0.572-0.54c0-0.117-0.017-0.15-0.067-0.15
		c-0.1,0-0.403,0.336-0.403,0.774c0,0.554,0.454,1.229,1.295,1.229c0.958,0,1.48-0.81,1.48-1.532c0-1.766-3.448-4.44-3.448-7.299
		c0-0.488,0.083-1.279,0.438-1.884c-2.221,1.429-2.91,3.331-2.91,4.995c0,1.447-0.05,2.17-0.79,2.17
		c-0.388,0-0.488-0.353-0.623-0.353c-0.101,0-0.152,0.303-0.152,0.386C17.888,48.521,18.343,48.875,18.796,48.875"/>
	<path fill="#FFFFFF" d="M44.28,29.935c0.213-0.143,1.161,0.084,2.388-0.522c0.151-0.083,0.303-0.116,0.438-0.116
		c0.589,0,0.438,0.672,0.977,0.672c0.42,0,0.96-0.353,1.28-0.353c0.5,0,1.225,1.581,1.225,2.321c0,0.857-1.293,1.379-2.825,1.379
		c-2.235,0-3.583-1.952-3.583-3.213C44.179,30.002,44.23,29.968,44.28,29.935z M47.946,32.071c0.741,0,1.298-0.336,1.298-0.539
		c0-0.066-0.102-0.117-0.321-0.117c-0.219,0-0.657-0.017-1.48-0.152c-0.708-0.118-1.246-0.387-1.449-0.387
		c-0.066,0-0.101,0.034-0.101,0.084C45.893,31.399,46.701,32.071,47.946,32.071"/>
	<path fill="#FFFFFF" d="M19.15,55.216c-0.555,0.135-1.447,1.008-1.447,2.391c0,1.646,1.767,4.188,4.676,4.188
		c2.455,0,3.061-1.699,3.061-2.845c0-2.539-1.563-4.322-3.598-4.322c-1.11,0-2.103,0.808-2.103,2.001
		c0,1.111,0.841,2.776,2.843,2.776c0.941,0,1.496-0.674,1.496-1.446c0-0.757-0.689-1.799-1.699-1.799
		c-0.302,0-0.521,0.199-0.521,0.521c0,0.401,0.555,0.807,1.245,0.807c0.167,0,0.302-0.034,0.37-0.067
		c0.033,0.051,0.05,0.135,0.05,0.202c0,0.387-0.37,0.623-0.941,0.623c-0.858,0-1.683-0.639-1.683-1.65
		c0-0.604,0.522-1.042,1.278-1.042c1.497,0,2.388,1.329,2.388,2.658c0,1.193-0.655,1.884-2,1.884
		C19.873,60.095,18.562,57.672,19.15,55.216"/>
	<path fill="#FFFFFF" d="M38.351,65.071c0.806,0,0.764-0.067,1.017-0.067c0.252,0,0.271,0.151,0.271,0.253
		c0,0.37-0.825,0.824-2.288,0.824c-0.858,0-1.38-0.454-1.532-0.958c-0.84,0.538-2.119,1.026-3.38,1.026
		c-3.447,0-4.323-1.499-5.399-1.985c-0.825-0.37-2.086,0.354-3.853-1.615c0.236,0.051,0.556,0.068,0.808,0.068
		c1.547,0,2.372-0.756,2.372-1.969c0-0.152-0.018-0.318-0.034-0.47c0.471,0.186,1.548,0.992,1.801,2.421
		c0.033,0.169,0.722,0.32,1.16,0.32c0.606,0,1.379-0.253,1.498-1.244c2.018-0.169,3.382-1.362,3.667-2.878
		c0.722,0.236,1.546,0.893,1.748,1.229c0.286-0.101,0.622-0.151,1.009-0.151c0.538,0,1.144,0.101,1.867,0.32
		c0.033-0.22,0.066-0.488,0.403-0.488c0.504,0,0.369,0.555,0.54,0.873c0.083,0.169,0.504,0.269,0.504,0.605
		c0,0.32-0.271,0.438-0.438,0.438c-0.067,0-0.152-0.018-0.203-0.033c-0.336,0.118-0.353,2.538-1.766,2.538
		c-1.042,0-2.001-0.857-2.421-1.933c-0.118-0.319-0.37-0.521-0.605-0.521c-0.269,0-0.421,0.05-0.74,0.404
		c-0.908,0.99-2.422,1.848-4.289,1.848c-0.572,0-1.026-0.05-1.144-0.05c-0.068,0-0.068,0.016-0.068,0.033
		c0,0.118,0.572,0.573,1.817,0.573c2.96,0,3.684-1.666,4.155-1.666c0.068,0,0.269,0,0.386,0.27
		C35.903,64.701,37.409,65.071,38.351,65.071z M37.047,61.71c0,0.37,0.303,0.673,0.673,0.673c0.37,0,0.672-0.303,0.672-0.673
		c0-0.371-0.302-0.674-0.672-0.674C37.35,61.036,37.047,61.339,37.047,61.71"/>
	<path fill="#FFFFFF" d="M50.367,53.314c-0.234,0-0.488,0.186-0.488,0.642c0,0.503,0.388,0.823,0.606,0.923
		c0.118,0.067,0.303,0.136,0.486,0.136c0.49,0,0.876-0.136,0.876-0.54C51.848,53.956,51.09,53.314,50.367,53.314z M48.553,54.357
		c-0.353,0-2.307,2.606-3.566,2.606c-0.302,0-0.554-0.571-0.554-1.007c0-0.236,0.151-0.404,0.69-0.522
		c2.892-0.655,2.252-2.826,4.723-2.826c1.362,0,2.879,0.926,2.879,3.012c0,2.22-3.161,4.978-3.632,4.978
		c-0.389,0-0.81-0.555-0.81-0.925c0-0.116,0.052-0.269,0.388-0.402c1.613-0.641,2.537-2.121,2.537-2.878
		c0-0.169-0.084-0.335-0.303-0.335c-0.285,0-1.51,2.791-2.874,2.791c-0.943,0-1.903-0.855-1.903-1.261
		c0-0.674,2.729-1.917,2.729-2.86C48.856,54.373,48.688,54.357,48.553,54.357"/>
	<path fill="#FFFFFF" d="M15.265,32.307c0,0-0.488,0.37-1.093,0.37c-0.723,0-1.295-0.539-1.295-1.295
		c0-0.521,0.27-1.059,0.892-1.329c-0.017,0.102-0.017,0.185-0.017,0.287C13.751,31.298,14.29,32.021,15.265,32.307z M18.864,35.537
		c-0.37,0.437-0.757,1.177-0.757,1.934c0,0.908,0.556,1.665,1.414,1.665c0.824,0,1.211-0.706,1.211-1.429
		C20.732,36.579,19.706,35.788,18.864,35.537z M13.281,36.209c-0.032,0.051-0.051,0.118-0.051,0.185
		c0,0.152,0.169,0.319,0.319,0.319c0.134,0,0.219-0.033,0.286-0.033c0.403,0,0.858,0.285,1.514,0.285
		c0.386,0,0.841-0.118,1.413-0.403c1.211-0.606,1.683-2.103,1.683-2.355c0-0.32-0.257-0.278-0.472-0.572
		c-0.214-0.293-0.132-0.553-0.27-0.69c-0.078-0.079-0.319-0.084-0.623-0.118c-0.101-0.011-0.235-0.017-0.37-0.017
		c-0.554,0-1.212,0.068-1.951,0.539C13.3,34.281,13.516,35.823,13.281,36.209z M17.233,34.124c0.116,0.158,0.438,0.354,0.438,0.471
		c0,0.235-0.135,0.539-0.404,0.539c-0.589,0-1.06-0.892-1.06-1.397c0-0.319,0.186-0.352,0.437-0.352
		c0.118,0,0.168,0.017,0.252,0.067C17.048,33.535,17.048,33.871,17.233,34.124z M15.685,36.175c-0.555,0-1.16-0.689-1.16-1.312
		c0-0.336,0.252-0.757,0.437-0.757c0.067,0,0.102,0.051,0.118,0.169c0.101,0.824,0.639,1.295,1.144,1.53
		c0.05,0.033,0.084,0.05,0.084,0.083C16.308,36.007,15.988,36.175,15.685,36.175z M17.115,31.937
		c0.084-0.27,0.151-0.605,0.151-0.976c0-0.807-0.371-2.035-1.514-2.035c-0.656,0-1.128,0.521-1.128,1.144
		C14.625,31.399,15.954,31.937,17.115,31.937z M12.759,38.665c0,1.277,0.387,1.884,1.076,1.884c0.538,0,1.262-0.387,2.119-1.127
		c-0.656,0.151-1.161,0.253-1.614,0.253C13.734,39.674,13.264,39.438,12.759,38.665z M13.348,37.168
		c-0.017,0.084-0.017,0.168-0.017,0.252c0,0.79,0.42,1.228,0.976,1.228c0.419,0,0.908-0.252,1.344-0.808
		c-0.184,0.033-0.403,0.05-0.605,0.05C14.424,37.89,13.751,37.723,13.348,37.168z M17.469,36.932
		c-0.388,0.101-1.195,0.572-1.195,1.413c0,0.605,0.471,0.993,1.06,0.993c0.303,0,0.521-0.067,0.656-0.168
		c-0.47-0.454-0.639-0.959-0.639-1.463C17.351,37.353,17.401,37.134,17.469,36.932z M18.074,32.323c0,0.37,0.302,0.673,0.671,0.673
		c0.371,0,0.674-0.303,0.674-0.673c0-0.37-0.303-0.673-0.674-0.673C18.376,31.65,18.074,31.954,18.074,32.323z M18.948,33.837
		c0,0.37,0.304,0.673,0.674,0.673c0.37,0,0.672-0.303,0.672-0.673c0-0.37-0.303-0.672-0.672-0.672
		C19.251,33.165,18.948,33.468,18.948,33.837"/>
	<path fill="#FFFFFF" d="M45.189,42.096c0-0.336,0.303-0.622,0.636-0.622c0.371,0,0.657,0.286,0.657,0.622
		c0,0.387-0.286,0.656-0.657,0.656C45.492,42.752,45.189,42.483,45.189,42.096z M39.284,36.916c0,0.37,0.305,0.673,0.673,0.673
		c0.371,0,0.673-0.303,0.673-0.673c0-0.369-0.303-0.672-0.673-0.672C39.589,36.243,39.284,36.546,39.284,36.916z M38.712,39.287
		c0,0.522,0.437,0.958,0.959,0.958c0.521,0,0.959-0.437,0.959-0.958c0-0.521-0.438-0.958-0.959-0.958
		C39.148,38.328,38.712,38.766,38.712,39.287z M40.833,38.21c0,0.573,0.455,1.026,1.023,1.026c0.572,0,1.027-0.454,1.027-1.026
		c0-0.571-0.456-1.025-1.027-1.025C41.287,37.185,40.833,37.639,40.833,38.21z M40.917,36.023c0,0.354,0.287,0.641,0.637,0.641
		c0.352,0,0.638-0.287,0.638-0.641c0-0.352-0.286-0.638-0.638-0.638C41.204,35.386,40.917,35.671,40.917,36.023z M43.96,34.41
		c0,0.353,0.287,0.639,0.64,0.639c0.354,0,0.641-0.286,0.641-0.639c0-0.354-0.286-0.64-0.641-0.64
		C44.247,33.77,43.96,34.056,43.96,34.41z M42.698,36.479c0,0.588,0.488,1.076,1.077,1.076c0.591,0,1.079-0.487,1.079-1.076
		c0-0.589-0.488-1.077-1.079-1.077C43.186,35.402,42.698,35.889,42.698,36.479z M40.968,40.415c0,0.37,0.303,0.672,0.67,0.672
		c0.369,0,0.672-0.303,0.672-0.672c0-0.371-0.303-0.673-0.672-0.673C41.271,39.742,40.968,40.044,40.968,40.415z M43.17,39.068
		c0,0.371,0.302,0.674,0.672,0.674c0.37,0,0.673-0.303,0.673-0.674c0-0.369-0.304-0.672-0.673-0.672
		C43.472,38.396,43.17,38.699,43.17,39.068z M42.546,41.44c0,0.639,0.521,1.161,1.161,1.161c0.64,0,1.163-0.522,1.163-1.161
		c0-0.639-0.522-1.161-1.163-1.161C43.068,40.279,42.546,40.801,42.546,41.44z M44.97,40.009c0,0.438,0.354,0.792,0.789,0.792
		c0.438,0,0.791-0.354,0.791-0.792c0-0.437-0.354-0.79-0.791-0.79C45.324,39.22,44.97,39.573,44.97,40.009z M44.92,37.89
		c0,0.388,0.321,0.708,0.703,0.708c0.388,0,0.708-0.319,0.708-0.708c0-0.386-0.32-0.706-0.708-0.706
		C45.241,37.185,44.92,37.504,44.92,37.89"/>
	<path fill="#FFFFFF" d="M46.633,59.96c-0.437,0.337-1.46,1.093-3.161,1.093c-0.908,0-1.313-0.286-1.448-0.286
		c-0.168,0-0.353,0.168-0.538,0.388c-0.4,0.471-0.922,1.345-0.922,2.305c0,0.671,0.522,1.343,1.494,1.343
		c3.148,0,5.501-1.967,5.501-3.564C47.559,60.33,47.021,59.96,46.633,59.96z M45.759,59.774c0.136-0.115,0.168-0.302,0.168-0.488
		v-0.387c0-0.489-0.737-0.772-1.748-0.772c-1.229,0-1.885,0.554-1.885,0.79v0.773c0,0.32,0.741,0.64,1.65,0.64
		C44.669,60.33,45.324,60.146,45.759,59.774z M45.623,61.44c0.085,0,0.186,0.049,0.186,0.354c0,0.369-0.168,0.857-0.771,1.242
		c-0.422,0.287-0.994,0.522-1.835,0.538c0.135-0.402,0.236-0.824,0.236-1.226c0-0.135-0.017-0.236-0.035-0.387h0.219
		C44.955,61.962,45.526,61.44,45.623,61.44"/>
	<path fill="#FFFFFF" d="M39.2,40.886c0.185,1.429,2.103,0.706,2.103,2.438c0,0.253-0.066,0.624-0.066,0.942
		c0,0.371,0.034,0.69,0.317,0.69c0.285,0,0.352-0.201,0.352-0.471c0-0.271-0.067-0.606-0.067-0.791c0-0.59,0.421-0.723,0.674-0.723
		c0.64,0,1.128,0.656,2.087,0.656c-0.219,1.077-2.442,0.79-2.442,1.968c0,0.59,0.59,0.723,0.978,0.723
		c0.353,0,0.471-0.05,0.471-0.352c0-0.169-0.035-0.354-0.035-0.472c0-0.068,0.052-0.135,0.135-0.135
		c0.371,0,2.185,1.379,2.185,1.801c0,0.386-1.915,0.772-2.47,0.772c-0.168,0-0.203-0.117-0.203-0.185
		c0-0.117,0.286-0.472,0.286-0.672c0-0.152-0.251-0.254-0.926-0.254c-0.32,0-0.556,0.034-0.556,0.287
		c0,0.453,0.741,1.009,0.741,1.428c0,0.338-0.201,0.539-0.741,0.539c-0.455,0-1.142-0.354-1.142-0.941
		c0-0.471,0.486-0.94,0.486-1.229c0-0.084-0.065-0.218-0.266-0.218c-0.623,0-0.791,1.647-2.997,1.833
		c0.354-0.319,0.657-0.673,0.657-1.396c0-0.353-0.083-0.64-0.083-1.025c0-0.506,0.235-0.758,0.57-0.758
		c0.622,0,0.925,0.874,1.331,0.874c0.218,0,0.454-0.201,0.454-0.504c0-1.279-2.458-1.093-2.458-2.893
		C38.577,42.332,38.746,41.726,39.2,40.886z M47.222,45.813c0,0.421,0.138,0.908,0.557,0.908c0.354,0,0.656-0.537,0.656-1.127
		c0-0.673-0.116-1.194-0.116-1.464c0-0.117,0.05-0.167,0.116-0.167c0.253,0.017,0.488,0.707,0.758,0.707
		c0.303,0,0.755-0.557,0.94-0.557c0.05,0,0.066,0.068,0.066,0.085c0,0.253-0.387,0.809-0.387,1.027c0,0.185,0.976,0.218,0.976,0.386
		c0,0.253-1.023,0.253-1.511,0.472c-0.472,0.201-0.758,0.454-0.758,0.79c0,0.337,0.337,0.403,0.808,0.403
		c1.125,0,1.915-0.604,2.167-0.604c0.051,0,0.084,0.033,0.084,0.083c0,0.169-0.571,0.724-0.571,0.977c0,0.285,1.043,0.62,1.026,0.79
		c-0.018,0.05-0.084,0.067-0.202,0.067c-0.186,0-0.471-0.052-0.691-0.052c-0.133,0-0.251,0.018-0.303,0.084
		c-0.117,0.136,0.035,1.027-0.2,1.027c-0.22,0-0.791-1.984-2.084-1.984c-0.185,0-0.32,0.151-0.32,0.403
		c0,0.672,0.658,1.445,1.281,1.816c0.28,0.186,0.753,0.37,0.753,0.472c0,0.201-1.074,0.017-1.074,0.353
		c0,0.303,0.135,0.758,0.135,1.026c0,0.084-0.017,0.185-0.118,0.185c-0.201,0-0.689-0.926-0.926-0.926
		c-0.201,0-0.64,0.555-0.825,0.555c-0.05,0-0.083-0.05-0.083-0.1c0-0.388,0.623-1.261,0.623-2.12c0-0.403-0.052-1.278-0.54-1.278
		c-0.403,0-0.858,0.64-1.06,1.278c-0.117,0.37-0.034,1.801-0.304,1.801c-0.253,0-0.185-0.959-0.522-0.959
		c-0.248,0-0.787,0.454-0.972,0.454c-0.034,0-0.067-0.018-0.067-0.051c0-0.201,0.488-0.857,0.488-0.992
		c0-0.253-1.111-0.285-1.111-0.487c0-0.118,0.437-0.202,0.841-0.27c0.854-0.151,2.117-0.774,2.117-1.648
		c0-0.976-0.942-1.396-1.562-1.8c-0.321-0.201-0.674-0.369-0.674-0.504s0.404-0.135,0.572-0.135c0.252,0,0.502-0.018,0.502-0.219
		c0-0.151-0.034-0.454-0.034-0.69c0-0.168,0.017-0.303,0.085-0.303c0.252,0,0.605,0.824,0.773,0.824
		c0.271,0,0.641-0.672,0.893-0.672c0.084,0,0.118,0.05,0.118,0.202C47.543,44.501,47.222,45.207,47.222,45.813"/>
	<path fill="#FFFFFF" d="M39.688,50.473c0.774,0.101,0.959,0.369,0.959,0.588c0,0.371-0.336,0.487-0.658,0.487
		c-0.235,0-0.504-0.05-0.79-0.05c-0.371,0-0.741,0.084-1.042,0.438c0.218,0.033,0.538,0.186,0.538,0.522
		c0,0.976-2.708,0.168-2.708,2.675c0,1.327,1.379,2.775,3.464,2.775c1.078,0,1.769-0.354,1.769-0.759
		c0-0.318-0.573-0.101-0.573-0.37c0-0.117,0.202-0.336,0.202-0.521c0-0.082-0.067-0.234-0.202-0.234
		c-0.303,0-0.875,0.486-2.037,0.486c-0.908,0-1.8-0.52-1.8-1.227c0-0.15,0.068-0.235,0.169-0.235c0.1,0,0.235,0.067,0.353,0.067
		c0.101,0,0.117-0.067,0.117-0.252c0-0.187,0-0.707,0.319-0.707c0.32,0,0.926,1.177,3.25,1.177c0.77,0,2.269-0.15,2.823-0.656
		c-0.017,1.852-1.464,4.29-4.49,4.29c-3.147,0-4.829-2.523-4.829-4.845c0-2.574,2.102-4.911,4.979-4.911
		c0.739,0,1.363,0.252,1.363,0.571C40.866,50.222,39.772,49.951,39.688,50.473z M44.854,51.365c0.116,0.183,0.168,0.369,0.168,0.537
		c0,0.472-0.319,0.907-0.319,1.396c0,0.555,0.421,1.008,1.057,1.008c0.689,0,1.16-0.554,1.16-1.21
		C46.919,52.205,46.113,51.448,44.854,51.365z M39.284,52.44c0.168,0.168,0.219,0.336,0.219,0.506c0,0.251-0.118,0.521-0.118,0.807
		c0,0.403,0.303,0.756,0.74,0.756c0.473,0,0.792-0.37,0.792-0.806C40.917,53.062,40.259,52.44,39.284,52.44z M41.52,49.581
		c1.769,0.336,2.728,1.666,2.728,2.911c0,0.857-0.54,1.646-1.482,1.646c-0.859,0-1.478-0.588-1.478-1.53
		c0-0.706,0.552-1.446,0.552-2.17C41.839,50.153,41.756,49.867,41.52,49.581z M42.395,51.818c0,0.235,0.168,0.421,0.405,0.421
		c0.268,0,0.436-0.235,0.436-0.505c0-0.353-0.319-0.841-0.623-0.841c-0.134,0-0.083,0.201-0.118,0.42
		C42.479,51.481,42.395,51.684,42.395,51.818"/>
	<path fill="#FFFFFF" d="M23.827,34.511c0.572,0,1.227-3.095,1.227-3.617c0-0.135-0.05-0.236-0.168-0.236
		c-0.521,0-1.244,2.944-1.244,3.601C23.642,34.376,23.674,34.511,23.827,34.511z M27.948,35.436c0.419,0,0.891-1.615,0.891-2.625
		c0-0.219-0.033-0.454-0.135-0.454c-0.353,0-0.942,1.665-0.942,2.573C27.762,35.284,27.847,35.436,27.948,35.436z M25.205,33.938
		c0.185,0,0.421-0.203,0.859-0.689c0.033-0.219,0.033-0.421,0.033-0.673c0-0.336-0.134-0.706-0.335-0.706
		c-0.506,0-0.757,1.346-0.757,1.699C25.004,33.77,25.104,33.938,25.205,33.938z M27.509,33.249c0-0.286-0.068-0.354-0.134-0.354
		c-0.169,0-0.354,0.203-0.623,0.657c0.034,0.605,0.134,0.875,0.303,0.875C27.241,34.426,27.509,33.837,27.509,33.249z
		 M28.805,31.264c1.11,0,1.614,0.959,1.614,2.036c0,0.471-0.134,1.161-0.353,1.161c-0.219,0-0.185-0.387-0.219-0.741
		c-0.033-0.455-0.118-0.555-0.27-0.555c-0.286,0-0.47,0.672-0.47,1.295c0,0.386,0.067,0.823,0.37,0.823
		c0.168,0,0.32-0.084,0.421-0.185c-0.067,0.773-0.64,1.447-1.447,1.447c-1.48,0-2.035-1.733-2.203-2.743
		c-0.892,0.942-1.715,1.632-3.196,1.632c-1.378,0-2.001-1.009-2.001-1.968c0-0.286,0.101-1.026,0.455-1.026
		c0.42,0,0.05,1.378,0.874,1.378c0.203,0,0.571-0.168,0.774-0.723c0.117-0.337,0.185-0.689,0.185-0.993
		c0-0.455-0.101-0.74-0.437-0.74c-0.287,0-0.64,0.218-0.758,0.336c0.405-1.21,1.379-1.833,2.455-1.833
		c1.33,0,2.036,1.177,2.036,2.49c0,0.185-0.017,0.386-0.051,0.572C27.156,31.987,27.948,31.264,28.805,31.264"/>
	<path fill="#FFFFFF" d="M25.66,35.788c-0.724,0-0.757,0.876-0.757,2.641c-0.539-1.16-1.429-2.406-2.473-2.406
		c-0.706,0-0.975,0.472-0.975,1.295c0,0.168,0.017,0.421,0.05,0.572c0.084-0.285,0.353-0.403,0.689-0.403
		c0.725,0,1.599,0.555,2.17,1.312c-0.656-0.117-1.295-0.235-1.833-0.235c-0.337,0-0.64,0.034-0.892,0.151
		c-0.488,0.218-1.144,0.942-1.144,2.035c0,0.169,0.017,0.353,0.051,0.555c0.588-1.312,2.153-1.901,3.162-1.901
		c0.202,0,0.353,0.017,0.471,0.034c-0.521,0.47-0.639,1.295-0.673,1.85c-0.016,0.269-0.117,0.286-0.303,0.286
		c0,0.554,0.438,1.379,0.438,1.799c0,0.152-0.084,0.287-0.168,0.32c0,0.739,0.739,1.278,0.739,1.749c0,0.117-0.033,0.219-0.084,0.27
		c0.051,0.303,0.865,0.812,0.97,1.067c0.13,0.31,0.275,0.362,0.359,0.362c0.286,0,0.739-0.337,0.739-0.64
		c0-0.101-0.084-0.219-0.15-0.269c-0.32-0.235-0.489-0.74-0.623-1.076c-0.119,0-0.271-0.05-0.324-0.248
		c-0.092-0.349-0.096-0.997-0.231-1.384c-0.219-0.05-0.32-0.135-0.32-0.589c0-0.218,0.135-1.077,0.135-1.379
		c-0.101,0-0.235-0.067-0.235-0.269c0-0.538,0.539-0.958,0.689-1.648c0.959,0.706,1.194,1.429,1.194,2.069
		c0,0.335-0.05,0.655-0.118,0.958c0.707-0.354,1.766-0.875,1.766-1.935c0-0.624-0.286-1.312-2.187-1.582
		c0.588-0.219,1.329-0.336,1.951-0.336c1.077,0,1.699,0.336,1.833,1.093c0.219-0.336,0.387-0.723,0.387-1.076
		c0-0.825-0.69-1.362-1.564-1.362c-1.025,0-1.934,0.538-2.91,1.194c0.438-0.908,0.74-1.447,1.279-1.447
		c0.084,0,0.168,0.017,0.252,0.034C26.82,36.512,26.063,35.788,25.66,35.788"/>
	<path fill="#FFFFFF" d="M53.999,47.916c0.842,0,1.515,1.093,1.515,2.371c0,1.362-0.64,2.844-1.779,3.852
		c-0.018-2.271-2.796-1.547-2.796-3.195c0-0.706,0.506-1.178,1.111-1.178c0.539,0,0.96,0.151,1.262,0.456
		c-0.302-0.288-0.453-0.691-0.453-1.078C52.858,48.504,53.262,47.916,53.999,47.916"/>
	<path fill="#FFFFFF" d="M38.981,31.937c0.438,0.42,0.824,0.605,1.295,0.605c0.187,0,0.405-0.05,0.523-0.05
		c0.152,0,0.252,0.066,0.252,0.185c0,0.185-0.168,0.488-0.37,0.657c0.202,0.083,0.421,0.117,0.658,0.117
		c0.956,0,2.049-0.606,2.049-2.119c0.204,0.268,0.32,0.823,0.32,1.076c0,1.833-1.347,2.54-2.589,2.54
		c-0.807,0-1.212-0.27-1.314-0.27c-0.319,0-0.302,0.64-0.521,0.623c-0.387-0.067-0.74-0.925-0.74-1.833
		C38.544,32.929,38.679,32.357,38.981,31.937z M41.52,30.709c-0.134-0.219-0.637-0.336-0.872-0.336
		c-0.741,0-1.246,0.521-1.347,0.992c-0.067-0.168-0.118-0.37-0.118-0.572c0-0.74,0.506-1.648,1.735-1.648
		c1.074,0,1.495,0.572,1.646,0.572c0.168,0,0.336-0.169,0.471-0.169c0.185,0,0.185,0.286,0.185,0.489
		c0,0.672-0.303,1.833-1.061,2.254c-0.135-0.286-0.403-0.606-0.838-0.808c-0.116-0.05-0.167-0.151-0.167-0.252
		C41.153,31.045,41.32,30.81,41.52,30.709"/>
	<path fill="#FFFFFF" d="M27.291,27.042c0,0.588,2.102,3.465,2.507,3.465c0.337,0,0.589-0.589,0.589-1.095
		c0-0.133-0.034-0.268-0.101-0.369c-0.303-0.421-2.439-2.104-2.91-2.104C27.325,26.94,27.291,26.992,27.291,27.042z M14.928,25.31
		c0,0.337-1.278,1.463-1.732,1.463c-0.168,0-0.219-0.202-0.219-0.386c0-0.336,0.152-0.808,0.337-0.959
		c0.217-0.202,0.723-0.302,1.109-0.302C14.659,25.125,14.928,25.174,14.928,25.31z M30.286,26.285c0-1.01-2.729-2.843-2.759-3.632
		c-0.003-0.073,0.037-0.145,0.098-0.209c0.468-0.493,2.409-0.853,2.409-1.273c0-0.217-0.405-0.217-0.606-0.217
		c-1.563,0-3.851,0.571-3.851,1.126c0,0.573,2.051,1.968,2.051,2.658c0,0.185-0.118,0.252-0.302,0.252
		c-0.572,0-1.817-0.691-2.405-0.691c-0.27,0-0.371,0.185-0.371,0.456c0,0.807,0.959,2.338,0.959,2.791
		c0,0.051-0.017,0.118-0.084,0.118c-0.303,0-1.731-1.681-2.237-1.681c-0.185,0-0.202,0.251-0.202,0.622v0.572
		c0,0.387-0.017,0.622-0.2,0.622c-0.438,0-0.641-1.228-1.061-1.228c-0.437,0-0.522,2.186-0.942,2.186
		c-0.488,0-0.067-2.405-0.538-2.405c-0.521,0-1.111,1.598-1.481,1.598c-0.134,0-0.167-0.135-0.167-0.252
		c0-0.487,0.285-1.277,0.285-1.748c0-0.236-0.067-0.371-0.269-0.371c-0.522,0-1.665,0.841-2.102,0.841
		c-0.068,0-0.152-0.034-0.152-0.102c0-0.403,1.833-1.682,1.833-2.253c0-0.556-2.523-0.185-2.523-0.825
		c0-0.538,1.801-1.093,1.801-1.648c0-0.488-2.137-0.706-2.96-0.706c-0.993,0-1.531,0.117-1.531,0.402
		c0,0.438,2.254,0.573,2.254,0.959c0,0.371-2.338,1.363-2.338,1.935c0,0.505,3.296,0.034,3.296,0.556
		c0,0.571-2.875,3.043-2.875,3.868c0,0.185,0.134,0.27,0.319,0.27c0.875,0,3.145-1.665,3.768-1.665c0.218,0,0.236,0.269,0.236,0.504
		c0,0.438-0.151,1.11-0.151,1.598c0,0.386,0.101,0.655,0.436,0.655c0.624,0,1.194-1.059,1.616-1.059
		c0.537,0,0.217,3.111,1.025,3.111c0.689,0,0.975-3.364,1.413-3.364c0.437,0,0.791,0.976,1.194,0.976
		c0.504,0,0.27-1.699,0.808-1.699c0.588,0,2.27,2.019,3.027,2.019c0.235,0,0.319-0.185,0.319-0.421c0-0.891-1.245-2.909-1.245-3.548
		c0-0.168,0.05-0.219,0.235-0.219c0.656,0,2.574,0.908,3.482,0.908C30.101,26.672,30.286,26.504,30.286,26.285z M28.536,22.955
		c0,0.303,1.06,0.959,1.548,0.959c0.285,0,0.37-0.388,0.37-0.791c0-0.504-0.217-0.521-0.656-0.521
		C29.243,22.602,28.536,22.753,28.536,22.955z M24.583,21.239c0-0.102-0.505-0.203-1.194-0.203c-1.093,0-0.942,0.91-1.783,0.91
		c-0.875,0-0.657-0.943-1.767-0.943c-0.673,0-1.294,0.118-1.294,0.269c0,0.202,0.79,0.118,0.79,0.674
		c0,0.588-1.699,0.757-1.699,1.11c0,0.117,0.134,0.168,0.303,0.168c0.37,0,0.958-0.168,1.379-0.168c0.236,0,0.454,0.05,0.454,0.269
		c0,0.421-0.909,1.178-0.909,1.515c0,0.101,0.084,0.135,0.168,0.135c0.337,0,0.909-0.858,1.447-0.858c0.892,0,0.303,1.9,0.791,1.9
		c0.504,0,0.286-1.868,1.009-1.868c0.589,0,1.026,1.295,1.43,1.295c0.102,0,0.185-0.084,0.185-0.202
		c0-0.353-0.504-1.077-0.504-1.547c0-0.286,0.202-0.421,0.471-0.421c0.386,0,0.908,0.235,1.193,0.235
		c0.101,0,0.202-0.033,0.202-0.151c0-0.404-1.496-0.841-1.496-1.362C23.759,21.475,24.583,21.475,24.583,21.239"/>
	<path fill="#FFFFFF" d="M54.403,23.965c0,1.496-1.092,2.64-3.062,2.959c0.22,0.016,0.422,0.016,0.624,0.016
		c2.303,0,3.145-1.042,3.145-1.917C55.11,24.536,54.841,24.1,54.403,23.965z M51.562,25.663c0-1.194-2.857-1.497-2.857-1.766
		c0-0.218,1.597-0.589,2.42-0.606c-1.262-1.614-3.06-1.446-3.06-1.732c0-0.168,1.346-0.505,2.589-0.505
		c1.043,0,2.019,0.235,2.019,1.026c0,0.438-0.353,0.892-0.353,1.564c0,0.37,0.185,0.69,0.673,0.69c0.522,0,0.639-0.555,0.639-1.145
		c0-0.486-0.083-0.857-0.083-1.092c0-0.707,0.485-1.177,1.175-1.177c0.573,0,0.708,0.251,1.549,0.251
		c-0.454,0.271-0.622,0.759-0.622,0.993c0,0.707,0.455,1.195,0.455,2.642c0,2.657-2.489,3.598-5.536,3.598
		c-0.836,0-1.729-0.067-2.604-0.201c-0.134-0.017-0.169-0.05-0.169-0.134c0-0.219,1.195-0.337,1.195-1.413
		c0-0.421-0.134-0.824-0.134-0.975c0-0.085,0.066-0.135,0.134-0.135c0.254,0,0.758,0.975,1.698,0.975
		C50.938,26.521,51.562,26.437,51.562,25.663z M54.302,21.946c0,0.235,0.185,0.42,0.421,0.42s0.421-0.185,0.421-0.42
		c0-0.236-0.185-0.421-0.421-0.421S54.302,21.71,54.302,21.946"/>
	<path fill="#FFFFFF" d="M52.809,37.487c0-0.353-0.894-0.386-0.978-1.379c-0.017-0.151-0.067-0.42-0.253-0.42
		c-0.303,0-0.066,0.925-0.403,0.925c-0.774,0-1.026-1.514-1.312-1.514c-0.068,0-0.147,0.05-0.147,0.252
		c0,0.186,0.033,0.303,0.033,0.521c0,0.219-0.051,0.371-0.253,0.371c-0.453,0-0.857-1.061-1.245-1.061
		c-0.083,0-0.168,0.051-0.168,0.135c0,0.202,0.336,0.571,0.336,0.756c0,0.404-1.094,0.185-1.094,0.522
		c0,0.152,0.151,0.202,0.353,0.202c0.354,0,0.909-0.15,1.195-0.15c0.17,0,0.422,0.033,0.422,0.251c0,0.236-0.606,0.538-0.606,0.757
		c0,0.101,0.102,0.15,0.185,0.15c0.455,0,1.261-0.79,1.832-0.79c0.101,0,0.353,0.05,0.353,0.202c0,0.218-0.571,0.604-0.571,0.925
		c0,0.084,0.052,0.185,0.151,0.185c0.302,0,0.705-0.79,1.278-0.79c0.219,0,0.539,0.084,0.707,0.084
		C52.757,37.622,52.809,37.538,52.809,37.487z M53.245,45.646c0.27-0.841,0.606-1.431,1.158-2.338
		c-0.552-0.286-2.016-0.892-2.016-1.884c0-1.161,1.445-2.069,1.746-2.069c0.135,0,0.168,0.118,0.168,0.337
		c0,0.605-0.285,1.581-0.285,2.103c0,0.47,0.304,0.926,0.571,0.926c0.286,0,1.078-1.009,1.078-2.002
		c0-1.784-1.566-2.322-2.051-2.322c-0.453,0-1.279,0.74-3.215,0.74c-3.614,0-4.439-3.582-4.439-5.147
		c0-0.067,0.016-0.084,0.032-0.084c0.085,0,0.439,0.438,1.583,0.438c0.591,0,1.128-0.152,1.987-0.152
		c2.015,0,2.907,1.397,4.153,3.179c0.753,0.47,2.555,1.228,2.555,3.364c0,1.884-2.003,2.927-2.487,4.945
		c0.771-0.084,1.226-1.464,2.017-1.464c0.404,0,0.589,0.32,0.589,0.825c0,0.74-0.421,1.851-1.229,2.539
		c0.017-0.066,0.017-0.151,0.017-0.252c0-0.471-0.186-1.143-0.725-1.143c-0.838,0-1.106,0.908-1.578,1.664
		c-0.487-1.715-1.146-3.263-2.321-4.206c-1.191-0.958-3.247-0.438-3.247-2.187c0-0.471,0.304-1.143,0.304-1.682
		c0-0.185-0.034-0.353-0.135-0.488c1.617,0.606,1.044,1.681,2.038,2.792c0.619,0.707,2.334,1.38,3.329,4.289
		c0.016-0.084,0.032-0.302,0.032-0.453c0-2.49-3.294-4.93-3.581-5.939c1.914,0.219,2.251,0.69,3.16,3.213
		C52.639,43.711,53.245,45.007,53.245,45.646"/>
	<path fill="#FFFFFF" d="M44.044,27.85c-1.177,0-1.952-0.588-1.952-0.892c0-0.152,0.1-0.251,0.237-0.251
		c0.369,0,1.177,0.571,1.446,0.571c0.068,0,0.119-0.033,0.119-0.134c0-0.303-0.286-0.808-0.286-1.059
		c0-0.067,0.05-0.118,0.152-0.118c0.453,0,1.126,0.185,1.482,0.185c0.117,0,0.15-0.067,0.15-0.135c0-0.37-1.095-1.094-1.095-1.312
		c0-0.202,1.359-0.505,1.359-0.824c0-0.337-1.848-0.102-1.848-0.421c0-0.235,0.354-0.639,0.354-0.824
		c0-0.084-0.066-0.117-0.185-0.117c-0.152,0-0.959,0.319-1.296,0.319c-0.168,0-0.372-0.033-0.372-0.269
		c0-0.387,0.658-0.807,1.684-0.807c1.663,0,2.657,1.144,2.657,3.062C46.65,27.244,44.955,27.85,44.044,27.85z M40.766,24.654
		c0-0.186-0.658-0.538-0.658-0.74c0-0.033,0.033-0.05,0.084-0.05c0.186,0,0.505,0.067,0.759,0.067c0.219,0,0.253-0.942,0.417-0.942
		c0.118,0,0.319,0.892,0.506,0.892c0.218,0,0.621-0.253,0.791-0.253c0.033,0,0.067,0.017,0.067,0.051
		c0,0.118-0.421,0.571-0.421,0.706c0,0.151,0.944,0.336,0.944,0.471c0,0.168-0.96,0.151-0.96,0.303c0,0.116,0.354,0.588,0.354,0.739
		c0,0.034-0.018,0.051-0.051,0.051c-0.135,0-0.656-0.236-0.808-0.236c-0.185,0-0.486,0.69-0.636,0.69
		c-0.051,0-0.084-0.068-0.084-0.152l-0.034-0.672c0-0.067-0.033-0.135-0.118-0.135c-0.201,0-0.589-0.017-0.707-0.017
		c-0.085,0-0.118-0.017-0.118-0.051C40.092,25.242,40.766,24.772,40.766,24.654z M40.276,27.411c0.271,0,0.322,0.657,0.372,1.043
		c0.033,0.202,0.068,0.218,0.151,0.218c0.203,0,0.521-0.773,0.739-0.773c0.318,0,1.178,0.891,2.608,0.891
		c2.034,0,3.953-1.43,3.953-3.952c0-2.439-1.718-3.87-4.088-3.87c-1.128,0-1.953,0.555-2.392,0.555
		c-0.264,0.017-0.668-0.655-0.872-0.655c-0.083,0-0.167,0.167-0.167,0.454c0,0.186,0,0.774-0.203,0.774
		c-0.405,0-1.967-1.16-1.967-0.741c0,0.387,1.042,1.565,1.042,1.868s-1.026,0.589-1.026,0.79c0,0.371,1.094,0.438,1.094,0.909
		c0,0.471-1.144,0.841-1.144,1.195c0,0.286,1.144,0.084,1.144,0.437c0,0.353-0.841,1.531-0.841,1.866
		c0,0.084,0.016,0.084,0.083,0.084C39.082,28.505,40.04,27.411,40.276,27.411"/>
	<path fill="#FFFFFF" d="M32.657,56.948c0,0.151-0.051,0.32-0.186,0.488c-0.184-0.337-0.706-0.505-0.942-0.505
		c-1.732,0-1.076,2.507-2.926,2.507c-0.774,0-0.841-0.102-1.127-0.102c-0.118,0-0.186,0.051-0.186,0.151
		c0,0.438,0.623,1.514,2.355,1.514s3.398-1.059,3.398-2.372c0-0.22-0.05-0.452-0.151-0.688c0.067-0.102,0.236-0.169,0.387-0.169
		c0.269,0,0.42,0.305,0.671,0.305c0.271,0,0.472-0.203,0.472-0.471c0-0.221-0.118-0.371-0.319-0.473
		c0.134-0.102,0.235-0.27,0.235-0.453c0-0.288-0.202-0.557-0.539-0.557c-0.151,0-0.252,0.052-0.37,0.168
		c-0.033-0.302-0.202-0.587-0.521-0.587c-0.252,0-0.438,0.184-0.438,0.471C32.471,56.443,32.657,56.662,32.657,56.948"/>
	<path fill="#FFFFFF" d="M23.44,53.821c1.345,0.335,2.018,1.058,2.152,1.916c0.135,0.824,0.302,1.498,0.622,1.834
		c0.42,0.472,1.245,0.89,1.969,0.89c0.605,0,1.092-0.199,1.092-0.755c0-0.606-0.824-1.969-2.035-1.969
		c-0.118,0-0.27,0.018-0.438,0.018c-0.151,0-0.371-0.034-0.505-0.151c-0.269-0.236-0.353-1.498-0.858-2.254
		c-0.555-0.842-1.16-1.077-1.984-1.077c-0.588,0-1.245,0.319-1.245,0.79C22.211,53.35,22.363,53.551,23.44,53.821z M28.133,57.588
		c-0.506,0-1.262-0.539-1.262-0.842c0-0.253,0.235-0.388,0.42-0.388c0.421,0,1.177,0.523,1.177,0.96
		C28.468,57.437,28.384,57.588,28.133,57.588"/>
	<path fill="#FFFFFF" d="M26.584,44.485c0-1.078,2.558-1.649,2.558-2.978c0-0.219-0.084-0.605-0.236-0.891
		c0.892,0.487,1.547,1.312,1.547,1.985c0,1.161-1.21,1.699-1.21,2.422c0,0.841,1.295,0.976,1.295,2.019
		c0,0.856-1.228,1.85-1.228,2.96c0,0.857,0.605,1.563,1.53,1.682c-0.302,0.066-0.572,0.118-0.857,0.118
		c-1.7,0-3.448-1.396-3.448-3.062c0-0.823,0.353-1.545,0.891-2.067c0.472,0.404,0.942,0.672,1.245,0.672
		c0.269,0,0.387-0.134,0.387-0.336C29.058,46.386,26.584,45.813,26.584,44.485z M31.95,52.979c-0.577,0.265-0.807,0.219-0.807,0.809
		c0,0.218-0.05,0.503-0.05,0.655c0,0.201,0.033,0.319,0.268,0.319c0.606,0,1.565-1.026,1.565-1.901c0-0.234-0.135-0.334-0.287-0.334
		C32.505,52.526,32.354,52.794,31.95,52.979z M31.883,51.768c0-0.757-1.565-0.774-1.565-1.917c0-0.287,0.185-0.774,0.556-1.296
		c0.152,0.874,0.504,1.329,1.261,1.615c1.497,0.555,1.7,1.396,1.7,2.288c0,1.514-1.061,3.397-3.785,3.397
		c-2.187,0-3.752-1.952-3.752-3.6c0-0.454,0.118-0.958,0.404-0.958c0.253,0,0.337,0.2,0.539,0.402
		c0.757,0.758,1.581,0.959,2.775,0.959C31.093,52.659,31.883,52.222,31.883,51.768"/>
	<path fill="#FFFFFF" d="M19.972,52.133c0.041,0.351-0.21,0.667-0.561,0.709c-0.351,0.04-0.669-0.212-0.709-0.562
		c-0.042-0.352,0.21-0.67,0.561-0.711C19.613,51.528,19.931,51.78,19.972,52.133z M16.828,52.794
		c0.071,0.575,0.606,1.01,1.212,0.941c0.218-0.023,0.42-0.083,0.556-0.167c0.134,0.537,0.586,0.883,1.196,0.804
		c0.62-0.081,1.042-0.568,0.974-1.19c-0.018-0.168-0.05-0.27-0.101-0.388c0,0,0.082-0.009,0.144-0.021
		c0.607-0.114,1.018-0.602,0.966-1.191c-0.066-0.605-0.609-1.054-1.175-0.985c-0.219,0.027-0.422,0.111-0.557,0.229
		c-0.152-0.504-0.625-0.941-1.273-0.835c-0.585,0.098-0.972,0.594-0.914,1.223c0.01,0.103,0.034,0.219,0.085,0.335
		c0,0-0.1,0.016-0.167,0.025C17.281,51.646,16.749,52.141,16.828,52.794"/>
</g>
</svg>
