<?xml version="1.0" encoding="utf-8"?>
<!-- Generator: Adobe Illustrator 15.0.0, SVG Export Plug-In . SVG Version: 6.00 Build 0)  -->
<!DOCTYPE svg PUBLIC "-//W3C//DTD SVG 1.1//EN" "http://www.w3.org/Graphics/SVG/1.1/DTD/svg11.dtd">
<svg version="1.1" id="Layer_1" xmlns="http://www.w3.org/2000/svg" xmlns:xlink="http://www.w3.org/1999/xlink" x="0px" y="0px"
	 width="792px" height="612px" viewBox="0 0 792 612" enable-background="new 0 0 792 612" xml:space="preserve">
<g>
	<g>
		<defs>
			<rect id="SVGID_1_" x="343.106" y="246.628" width="107.566" height="119"/>
		</defs>
		<use xlink:href="#SVGID_1_"  overflow="visible" fill="#FFFFFF"/>
		<clipPath id="SVGID_2_">
			<use xlink:href="#SVGID_1_"  overflow="visible"/>
		</clipPath>
		<path clip-path="url(#SVGID_2_)" fill="#FFFFFF" d="M356.96,351.252c-0.176-0.561-0.69-1.822-0.83-2.753
			c-0.309-2.062,0.769-3.42,1.759-3.731c1.111-0.31,1.545,0.248,1.975,1.545c0.556,1.975,0.618,4.563,0.431,8.268
			c-0.243,5.061-2.775,11.173-9.069,11.046c-5.433-0.119-7.837-3.638-8.087-9.007c-0.118-2.531,0.062-5.061,1.111-8.639
			c0.556-1.916,1.052-2.598,2.777-2.965c1.356-0.248,1.234,1.17,0.927,2.842c-0.676,3.701-0.99,5.488-0.74,9.687
			c0.242,4.444,2.283,6.173,4.505,6.173c3.333,0.064,4.812-2.713,5.433-6.729C357.641,353.781,357.271,352.238,356.96,351.252z
			 M428.024,355.635c1.298,0,1.67,1.535,1.36,2.465c-0.31,0.924-1.419,1.978-3.146,2.285
			C425.866,359.457,425.68,355.635,428.024,355.635z M403.897,357.727c0-1.045-0.559-1.91-1.232-1.91
			c-0.562,0-1.853,0.615-1.853,2.591c0,1.548,0.55,2.282,0.802,2.597C403.4,360.447,403.897,358.962,403.897,357.727z
			 M384.7,345.139c-0.087-0.99-0.863-1.664-1.913-1.664c-1.171,0-2.274,1.229-2.157,2.773c0.075,1.018,0.675,1.855,1.854,1.855
			C383.837,348.104,384.824,346.561,384.7,345.139z M394.737,348.764c-0.107-1.726-0.525-2.505-1.452-2.441
			c-1.229,0.074-1.797,3.941-1.546,8.006c0.16,2.652,0.555,3.061,0.923,3.035C393.342,357.323,394.973,352.585,394.737,348.764z
			 M435.678,355.261c-0.765,3.173-3.084,7.841-6.544,7.841c-0.801,0-2.221-0.311-2.221-1.113c0-0.865,5.435-0.984,5.435-5.122
			c0-1.541-1.419-3.704-3.519-3.704c-2.777,0-5.486,3.027-5.486,7.223c0,3.762,2.337,4.997,4.682,4.997
			c4.075,0,6.544-3.335,7.839-6.11c0.62,1.852,0.984,6.11,2.533,6.11c0.615,0,1.05-0.309,1.791-1.973
			c1.847-4.138,3.639-8.89,6.109-8.89c0.923,0,0.37,1.67,2.591,1.67c1.047,0,1.785-0.864,1.785-1.856
			c0-1.421-1.294-2.528-3.267-2.528c-5.803,0-7.033,8.703-7.96,8.703c-1.544,0-1.05-6.975-2.163-6.975
			C436.295,353.533,435.81,354.71,435.678,355.261z M386.306,362.666c0.925,0,2.516-0.3,3.768-2.305
			c-0.716-1.59-1.227-4.803-1.298-5.973c-0.368-5.983,1.937-11.611,4.46-11.767c1.85-0.112,3.33,1.639,3.5,4.476
			c0.455,7.455-2.028,10.567-3.271,13.252c0.21,1.041,1.976,2.812,3.642,2.812c0.615,0,1.359-0.309,1.546-0.559
			c-0.124-0.429-0.25-0.984-0.25-1.789c0-4.32,2.778-7.963,5.186-7.963c1.913,0,3.024,2.53,3.024,4.2
			c0,1.972-1.668,3.58-4.135,5.123c0.434,0.429,1.232,0.741,1.914,0.741c3.521,0,5.363-4.26,6.727-8.15
			c0.246-0.742,0.681-1.789,1.543-1.789c1.481,0,2.101,9.752,4.562,9.752c1.053,0,1.915-2.162,1.915-3.824
			c0-1.236-0.432-1.36-0.432-3.15c0-1.973,1.05-3.638,2.473-3.638c0.863,0,1.175,0.86,1.175,1.907
			c0,3.951-2.843,11.297-7.034,11.297c-3.153,0-2.907-5.432-4.017-5.432c-1.24,0-2.968,5.493-9.072,5.493
			c-0.992,0-2.039-0.493-2.901-1.483c-1.479,0.99-2.717,1.422-4.137,1.422c-2.281,0-3.271-2.346-4.194-2.346
			c-1.113,0-2.344,2.407-6.051,2.407c-2.962,0-3.456-3.946-4.503-3.946c-0.928,0-2.347,3.946-3.889,3.946
			c-2.596,0-3.146-6.849-5.434-6.849c-1.789,0-7.444,6.956-8.979,6.797c-0.617-0.064-0.877-0.525-0.812-1.143
			c0.087-0.854,0.822-3.14,1.12-4.221c0.499-1.877,0.957-3.934,1.213-4.59c0.254-0.662,0.939-1.134,1.489-1.083
			c0.277,0.026,0.36,0.543,0.446,0.97c0.312,1.526,0.747,3.082,1.238,3.082c0.867,0,3.73-5.494,5.396-5.494
			c2.04,0,2.284,8.643,5.06,8.643c0.928,0,1.609-1.109,2.224-2.471c0.063-2.287,0.68-5.551,2.531-5.551
			c1.297,0,1.915,2.898,0.986,5.432C383.034,361.925,385.007,362.666,386.306,362.666"/>
	</g>
	<path fill="#FFFFFF" d="M429.294,265.882c-0.458,0-1.114,0-1.475-0.719c-0.296-0.59-0.196-1.541-0.753-1.966
		c0.557,0.163,1.146,0.163,1.604,0.163c1.476,0,2.886-1.015,3.968-1.015c0.713,0,0.943,0.459,0.943,0.916
		C433.582,264.704,430.672,265.882,429.294,265.882z M430.014,269.583c3.403,0,6.519-2.718,6.519-5.108
		c0-1.115-0.526-2.031-1.869-2.195c0.229,0.295,0.327,0.524,0.327,1.048c0,1.802-2.745,3.8-5.729,3.8
		c-1.082,0-1.41,0.752-1.41,1.145C427.852,269.191,428.738,269.583,430.014,269.583z M429.753,270.959
		c0.427,3.11,5.14,7.303,6.417,7.204c0.854-0.072,1.181-4.061,1.181-7.204c0-1.801,0.099-3.21-0.852-3.538
		C434.99,270.468,431.032,271.09,429.753,270.959"/>
	<path fill="#FFFFFF" d="M356.039,291.558c1.112,0,0.883-6.813,2.684-6.813c0.427,0,0.558,0.426,0.558,0.95
		c0,1.539-0.754,3.8-0.754,5.043c0,0.623,0.164,0.82,0.459,0.82c0.787,0,2.162-7.501,3.504-7.501c0.426,0,0.622,0.426,0.622,0.852
		c0,1.572-1.996,6.091-1.996,7.368c0,0.197,0.064,0.36,0.229,0.36c0.819,0,2.456-3.536,2.979-5.304
		c0.295-0.918,0.688-1.41,1.049-1.41c0.327,0,0.623,0.361,0.623,1.115c0,1.768-1.639,5.927-3.08,8.712
		c-1.112,2.161-2.848,5.27-2.848,7.006c0,0.885,0.161,1.801,1.439,2.915c-2.096-0.131-2.947-0.327-3.732-1.964
		c-3.505,6.975,6.451,6.288,3.045,12.475c-0.623-1.111-5.534-2.258-5.534-8.742c0-5.6,4.911-8.875,4.911-11.199
		c0-0.458-0.162-0.851-0.588-1.211c-1.082-0.919-1.115-1.67-1.966-1.67c-0.621,0-1.377,1.44-0.59,2.717
		c0.263,0.426,0.492,0.688,0.492,1.081c0,0.916-1.442,3.371-2.456,3.371c-1.016,0-1.8-2.518-1.8-6.581
		c0-3.604,0.817-7.237,1.833-7.237c0.294,0,0.392,0.196,0.392,0.459c0,0.426-0.13,1.276-0.13,2.717
		C355.384,291.426,355.744,291.558,356.039,291.558"/>
	<path fill="#FFFFFF" d="M364.388,301.152c1.377,0,2.522-1.017,2.522-3.273v-3.342c0-1.277,0.099-2.717,0.951-3.734
		c-0.099,0.427-0.099,0.885-0.099,1.311c0,2.817,1.571,4.75,1.571,7.467c0,1.014-0.295,1.572-1.079,1.572
		c-0.754,0-0.688-0.688-0.853-0.688c-0.13,0-0.327,0.425-0.327,0.884c0,0.688,0.491,1.768,1.866,1.768
		c1.18,0,2.128-1.08,2.128-2.292c0-2.945-2.292-6.222-2.292-9.365c0-1.376,0.36-2.292,0.655-3.014
		c0,6.518,5.534,11.266,5.534,13.983c0,0.623-0.458,1.115-1.146,1.115c-0.753,0-1.114-0.591-1.114-1.05
		c0-0.229-0.033-0.294-0.131-0.294c-0.195,0-0.785,0.655-0.785,1.508c0,1.079,0.883,2.391,2.521,2.391
		c1.865,0,2.881-1.574,2.881-2.982c0-3.437-6.713-8.645-6.713-14.211c0-0.951,0.162-2.49,0.852-3.668
		c-4.323,2.782-5.665,6.484-5.665,9.726c0,2.817-0.098,4.223-1.539,4.223c-0.754,0-0.95-0.686-1.213-0.686
		c-0.196,0-0.295,0.589-0.295,0.752C362.62,300.464,363.505,301.152,364.388,301.152"/>
	<path fill="#FFFFFF" d="M414.003,264.278c0.416-0.279,2.262,0.163,4.649-1.017c0.294-0.161,0.589-0.227,0.851-0.227
		c1.148,0,0.853,1.309,1.902,1.309c0.817,0,1.868-0.688,2.491-0.688c0.976,0,2.385,3.079,2.385,4.52c0,1.67-2.517,2.686-5.499,2.686
		c-4.353,0-6.976-3.799-6.976-6.256C413.807,264.409,413.906,264.343,414.003,264.278z M421.143,268.437
		c1.442,0,2.523-0.655,2.523-1.049c0-0.129-0.196-0.228-0.623-0.228c-0.426,0-1.278-0.032-2.884-0.295
		c-1.378-0.229-2.426-0.753-2.819-0.753c-0.131,0-0.197,0.065-0.197,0.163C417.143,267.128,418.717,268.437,421.143,268.437"/>
	<path fill="#FFFFFF" d="M365.077,313.498c-1.08,0.263-2.817,1.963-2.817,4.652c0,3.207,3.439,8.154,9.104,8.154
		c4.78,0,5.96-3.308,5.96-5.537c0-4.944-3.044-8.416-7.006-8.416c-2.162,0-4.095,1.572-4.095,3.896c0,2.164,1.638,5.405,5.534,5.405
		c1.834,0,2.914-1.312,2.914-2.814c0-1.475-1.342-3.504-3.308-3.504c-0.589,0-1.014,0.389-1.014,1.014
		c0,0.784,1.079,1.572,2.423,1.572c0.326,0,0.589-0.066,0.721-0.132c0.064,0.101,0.098,0.263,0.098,0.394
		c0,0.754-0.721,1.213-1.834,1.213c-1.67,0-3.275-1.244-3.275-3.213c0-1.176,1.016-2.027,2.489-2.027
		c2.914,0,4.649,2.586,4.649,5.175c0,2.323-1.275,3.668-3.896,3.668C366.484,322.997,363.932,318.28,365.077,313.498"/>
	<path fill="#FFFFFF" d="M402.459,332.686c1.571,0,1.489-0.131,1.981-0.131c0.49,0,0.524,0.295,0.524,0.492
		c0,0.721-1.606,1.605-4.455,1.605c-1.67,0-2.686-0.885-2.98-1.867c-1.637,1.048-4.125,1.998-6.582,1.998
		c-6.712,0-8.415-2.917-10.512-3.864c-1.605-0.721-4.061,0.688-7.5-3.144c0.459,0.099,1.082,0.131,1.573,0.131
		c3.011,0,4.616-1.471,4.616-3.831c0-0.296-0.033-0.62-0.066-0.914c0.918,0.36,3.015,1.93,3.507,4.713
		c0.064,0.328,1.406,0.622,2.258,0.622c1.18,0,2.686-0.492,2.915-2.422c3.93-0.327,6.584-2.651,7.141-5.602
		c1.406,0.459,3.011,1.736,3.404,2.393c0.557-0.196,1.211-0.295,1.964-0.295c1.048,0,2.228,0.197,3.635,0.623
		c0.066-0.426,0.131-0.95,0.787-0.95c0.982,0,0.72,1.081,1.048,1.7c0.164,0.328,0.984,0.524,0.984,1.18
		c0,0.624-0.527,0.854-0.854,0.854c-0.131,0-0.295-0.033-0.394-0.065c-0.654,0.229-0.688,4.942-3.438,4.942
		c-2.029,0-3.896-1.67-4.716-3.764c-0.229-0.622-0.72-1.016-1.179-1.016c-0.523,0-0.818,0.099-1.439,0.787
		c-1.768,1.93-4.716,3.6-8.351,3.6c-1.114,0-1.998-0.1-2.228-0.1c-0.132,0-0.132,0.033-0.132,0.065c0,0.23,1.113,1.115,3.537,1.115
		c5.764,0,7.173-3.243,8.089-3.243c0.133,0,0.523,0,0.752,0.525C397.693,331.965,400.625,332.686,402.459,332.686z M399.92,326.141
		c0,0.721,0.59,1.311,1.311,1.311s1.31-0.59,1.31-1.311c0-0.722-0.589-1.312-1.31-1.312S399.92,325.419,399.92,326.141"/>
	<path fill="#FFFFFF" d="M425.855,309.797c-0.459,0-0.95,0.361-0.95,1.247c0,0.979,0.754,1.603,1.179,1.798
		c0.23,0.133,0.591,0.264,0.948,0.264c0.951,0,1.706-0.264,1.706-1.051C428.738,311.044,427.262,309.797,425.855,309.797z
		 M422.323,311.826c-0.688,0-4.492,5.076-6.943,5.076c-0.589,0-1.081-1.113-1.081-1.961c0-0.459,0.294-0.787,1.345-1.018
		c5.631-1.277,4.385-5.503,9.195-5.503c2.652,0,5.604,1.804,5.604,5.863c0,4.323-6.153,9.692-7.071,9.692
		c-0.754,0-1.573-1.08-1.573-1.8c0-0.229,0.099-0.524,0.754-0.786c3.14-1.246,4.939-4.127,4.939-5.602
		c0-0.328-0.163-0.652-0.589-0.652c-0.556,0-2.94,5.434-5.596,5.434c-1.837,0-3.705-1.666-3.705-2.454
		c0-1.312,5.311-3.733,5.311-5.569C422.912,311.857,422.585,311.826,422.323,311.826"/>
	<path fill="#FFFFFF" d="M357.512,268.896c0,0-0.949,0.719-2.128,0.719c-1.407,0-2.521-1.047-2.521-2.521
		c0-1.016,0.524-2.062,1.735-2.588c-0.032,0.197-0.032,0.36-0.032,0.557C354.565,266.931,355.613,268.338,357.512,268.896z
		 M364.52,275.184c-0.72,0.85-1.474,2.292-1.474,3.765c0,1.768,1.082,3.241,2.752,3.241c1.604,0,2.358-1.375,2.358-2.782
		C368.156,277.214,366.158,275.673,364.52,275.184z M353.649,276.493c-0.062,0.101-0.099,0.23-0.099,0.361
		c0,0.295,0.328,0.622,0.621,0.622c0.262,0,0.426-0.065,0.557-0.065c0.785,0,1.67,0.556,2.947,0.556c0.752,0,1.637-0.23,2.75-0.785
		c2.358-1.18,3.276-4.094,3.276-4.586c0-0.623-0.5-0.541-0.918-1.114c-0.418-0.571-0.258-1.076-0.524-1.343
		c-0.151-0.153-0.621-0.163-1.212-0.229c-0.197-0.021-0.459-0.033-0.721-0.033c-1.079,0-2.36,0.133-3.798,1.049
		C353.688,272.739,354.106,275.74,353.649,276.493z M361.344,272.432c0.227,0.309,0.853,0.689,0.853,0.918
		c0,0.457-0.264,1.048-0.787,1.048c-1.147,0-2.063-1.736-2.063-2.72c0-0.621,0.361-0.686,0.851-0.686
		c0.229,0,0.328,0.033,0.491,0.131C360.983,271.287,360.983,271.941,361.344,272.432z M358.33,276.428
		c-1.08,0-2.259-1.342-2.259-2.555c0-0.654,0.491-1.474,0.851-1.474c0.131,0,0.197,0.099,0.229,0.329
		c0.196,1.604,1.245,2.522,2.228,2.979c0.098,0.065,0.164,0.098,0.164,0.163C359.543,276.1,358.92,276.428,358.33,276.428z
		 M361.115,268.175c0.163-0.525,0.294-1.178,0.294-1.9c0-1.571-0.722-3.962-2.948-3.962c-1.276,0-2.195,1.015-2.195,2.227
		C356.266,267.128,358.854,268.175,361.115,268.175z M352.633,281.274c0,2.488,0.754,3.668,2.096,3.668
		c1.048,0,2.456-0.754,4.125-2.195c-1.276,0.295-2.26,0.492-3.143,0.492C354.532,283.239,353.616,282.78,352.633,281.274z
		 M353.78,278.359c-0.032,0.165-0.032,0.328-0.032,0.491c0,1.539,0.817,2.391,1.898,2.391c0.816,0,1.768-0.491,2.617-1.573
		c-0.358,0.065-0.785,0.098-1.178,0.098C355.875,279.766,354.565,279.44,353.78,278.359z M361.803,277.901
		c-0.755,0.196-2.326,1.113-2.326,2.75c0,1.178,0.916,1.933,2.063,1.933c0.59,0,1.015-0.132,1.277-0.328
		c-0.916-0.884-1.244-1.867-1.244-2.848C361.573,278.719,361.671,278.294,361.803,277.901z M362.981,268.928
		c0,0.72,0.589,1.311,1.309,1.311c0.721,0,1.311-0.59,1.311-1.311c0-0.72-0.59-1.311-1.311-1.311
		C363.57,267.617,362.981,268.208,362.981,268.928z M364.683,271.875c0,0.721,0.591,1.311,1.312,1.311
		c0.719,0,1.309-0.59,1.309-1.311c0-0.719-0.59-1.309-1.309-1.309C365.273,270.566,364.683,271.156,364.683,271.875"/>
	<path fill="#FFFFFF" d="M415.774,287.954c0-0.654,0.59-1.211,1.237-1.211c0.722,0,1.279,0.557,1.279,1.211
		c0,0.753-0.558,1.278-1.279,1.278C416.364,289.232,415.774,288.707,415.774,287.954z M404.276,277.868
		c0,0.72,0.591,1.31,1.309,1.31c0.723,0,1.313-0.59,1.313-1.31c0-0.719-0.591-1.309-1.313-1.309
		C404.867,276.559,404.276,277.149,404.276,277.868z M403.164,282.485c0,1.016,0.849,1.866,1.866,1.866
		c1.014,0,1.868-0.85,1.868-1.866c0-1.014-0.854-1.867-1.868-1.867C404.013,280.618,403.164,281.471,403.164,282.485z
		 M407.291,280.389c0,1.115,0.885,1.998,1.992,1.998c1.113,0,2.001-0.883,2.001-1.998c0-1.113-0.888-1.997-2.001-1.997
		C408.176,278.392,407.291,279.276,407.291,280.389z M407.456,276.132c0,0.689,0.557,1.247,1.238,1.247
		c0.688,0,1.245-0.558,1.245-1.247c0-0.686-0.558-1.243-1.245-1.243C408.013,274.889,407.456,275.446,407.456,276.132z
		 M413.381,272.99c0,0.686,0.557,1.243,1.246,1.243c0.688,0,1.246-0.557,1.246-1.243c0-0.689-0.558-1.246-1.246-1.246
		C413.938,271.744,413.381,272.301,413.381,272.99z M410.923,277.018c0,1.145,0.95,2.094,2.097,2.094
		c1.148,0,2.099-0.949,2.099-2.094c0-1.148-0.95-2.096-2.099-2.096C411.873,274.922,410.923,275.87,410.923,277.018z
		 M407.553,284.68c0,0.721,0.59,1.309,1.305,1.309c0.721,0,1.312-0.588,1.312-1.309c0-0.721-0.591-1.31-1.312-1.31
		C408.143,283.37,407.553,283.959,407.553,284.68z M411.841,282.059c0,0.721,0.589,1.311,1.312,1.311c0.72,0,1.31-0.59,1.31-1.311
		c0-0.719-0.59-1.309-1.31-1.309C412.43,280.75,411.841,281.34,411.841,282.059z M410.629,286.677c0,1.244,1.015,2.26,2.261,2.26
		c1.245,0,2.263-1.016,2.263-2.26c0-1.244-1.018-2.26-2.263-2.26C411.644,284.417,410.629,285.433,410.629,286.677z
		 M415.347,283.892c0,0.853,0.689,1.541,1.535,1.541c0.852,0,1.54-0.688,1.54-1.541c0-0.85-0.688-1.538-1.54-1.538
		C416.036,282.354,415.347,283.042,415.347,283.892z M415.249,279.766c0,0.755,0.624,1.377,1.369,1.377
		c0.755,0,1.378-0.622,1.378-1.377c0-0.752-0.623-1.374-1.378-1.374C415.873,278.392,415.249,279.014,415.249,279.766"/>
	<path fill="#FFFFFF" d="M418.585,322.734c-0.852,0.656-2.844,2.127-6.155,2.127c-1.769,0-2.556-0.557-2.818-0.557
		c-0.328,0-0.688,0.327-1.049,0.754c-0.778,0.918-1.795,2.621-1.795,4.486c0,1.309,1.017,2.617,2.909,2.617
		c6.13,0,10.711-3.83,10.711-6.939C420.388,323.455,419.34,322.734,418.585,322.734z M416.882,322.374
		c0.265-0.226,0.327-0.589,0.327-0.951v-0.753c0-0.951-1.435-1.505-3.402-1.505c-2.393,0-3.671,1.078-3.671,1.538v1.506
		c0,0.624,1.443,1.246,3.213,1.246C414.758,323.455,416.036,323.095,416.882,322.374z M416.618,325.616
		c0.165,0,0.36,0.097,0.36,0.688c0,0.719-0.326,1.668-1.5,2.42c-0.819,0.559-1.934,1.018-3.572,1.047
		c0.262-0.783,0.459-1.604,0.459-2.386c0-0.263-0.032-0.46-0.065-0.754h0.426C415.315,326.632,416.43,325.616,416.618,325.616"/>
	<path fill="#FFFFFF" d="M404.112,285.598c0.36,2.782,4.097,1.374,4.097,4.746c0,0.492-0.131,1.214-0.131,1.835
		c0,0.721,0.064,1.343,0.616,1.343c0.556,0,0.688-0.392,0.688-0.917s-0.132-1.179-0.132-1.539c0-1.147,0.82-1.408,1.312-1.408
		c1.245,0,2.195,1.277,4.064,1.277c-0.427,2.096-4.753,1.539-4.753,3.832c0,1.147,1.147,1.407,1.901,1.407
		c0.688,0,0.918-0.098,0.918-0.686c0-0.329-0.066-0.689-0.066-0.918c0-0.132,0.099-0.263,0.263-0.263
		c0.723,0,4.253,2.686,4.253,3.506c0,0.752-3.729,1.505-4.81,1.505c-0.328,0-0.394-0.229-0.394-0.36
		c0-0.229,0.557-0.917,0.557-1.309c0-0.295-0.491-0.492-1.803-0.492c-0.623,0-1.082,0.066-1.082,0.558
		c0,0.882,1.442,1.964,1.442,2.781c0,0.656-0.393,1.049-1.442,1.049c-0.885,0-2.223-0.689-2.223-1.834
		c0-0.917,0.945-1.832,0.945-2.39c0-0.164-0.125-0.426-0.518-0.426c-1.214,0-1.541,3.208-5.833,3.569
		c0.688-0.622,1.276-1.31,1.276-2.716c0-0.688-0.162-1.246-0.162-1.998c0-0.983,0.457-1.475,1.112-1.475
		c1.211,0,1.801,1.702,2.59,1.702c0.427,0,0.885-0.391,0.885-0.981c0-2.489-4.783-2.129-4.783-5.633
		C402.901,288.413,403.227,287.234,404.112,285.598z M419.732,295.193c0,0.817,0.264,1.767,1.083,1.767
		c0.688,0,1.277-1.046,1.277-2.193c0-1.31-0.229-2.326-0.229-2.851c0-0.228,0.099-0.326,0.229-0.326
		c0.492,0.033,0.95,1.375,1.476,1.375c0.59,0,1.469-1.082,1.828-1.082c0.099,0,0.131,0.132,0.131,0.164
		c0,0.492-0.754,1.574-0.754,1.999c0,0.36,1.901,0.425,1.901,0.753c0,0.492-1.993,0.492-2.942,0.918
		c-0.917,0.392-1.477,0.883-1.477,1.539c0,0.655,0.656,0.785,1.574,0.785c2.188,0,3.728-1.178,4.219-1.178
		c0.098,0,0.163,0.064,0.163,0.163c0,0.328-1.113,1.408-1.113,1.9c0,0.556,2.032,1.209,1.999,1.538
		c-0.032,0.098-0.164,0.13-0.393,0.13c-0.362,0-0.918-0.098-1.345-0.098c-0.262,0-0.491,0.032-0.591,0.163
		c-0.227,0.263,0.066,1.999-0.39,1.999c-0.427,0-1.541-3.864-4.057-3.864c-0.361,0-0.623,0.295-0.623,0.786
		c0,1.309,1.278,2.815,2.491,3.536c0.549,0.361,1.468,0.721,1.468,0.919c0,0.391-2.091,0.032-2.091,0.686
		c0,0.59,0.262,1.476,0.262,1.998c0,0.164-0.033,0.359-0.229,0.359c-0.393,0-1.345-1.8-1.803-1.8c-0.393,0-1.245,1.08-1.606,1.08
		c-0.098,0-0.163-0.098-0.163-0.195c0-0.754,1.213-2.456,1.213-4.127c0-0.786-0.099-2.489-1.05-2.489
		c-0.786,0-1.672,1.244-2.065,2.489c-0.228,0.72-0.065,3.504-0.59,3.504c-0.491,0-0.36-1.866-1.017-1.866
		c-0.483,0-1.532,0.883-1.893,0.883c-0.066,0-0.132-0.033-0.132-0.098c0-0.392,0.951-1.67,0.951-1.932
		c0-0.491-2.163-0.556-2.163-0.949c0-0.23,0.852-0.393,1.638-0.525c1.666-0.295,4.123-1.506,4.123-3.208
		c0-1.899-1.835-2.719-3.041-3.505c-0.623-0.393-1.311-0.719-1.311-0.981c0-0.263,0.786-0.263,1.114-0.263
		c0.491,0,0.977-0.033,0.977-0.425c0-0.296-0.066-0.884-0.066-1.343c0-0.328,0.032-0.59,0.165-0.59c0.491,0,1.179,1.604,1.508,1.604
		c0.523,0,1.244-1.31,1.737-1.31c0.162,0,0.229,0.099,0.229,0.393C420.355,292.637,419.732,294.012,419.732,295.193"/>
	<path fill="#FFFFFF" d="M405.062,304.262c1.508,0.197,1.869,0.72,1.869,1.147c0,0.721-0.656,0.949-1.28,0.949
		c-0.457,0-0.982-0.098-1.539-0.098c-0.722,0-1.441,0.164-2.03,0.852c0.425,0.065,1.048,0.361,1.048,1.017
		c0,1.899-5.272,0.325-5.272,5.207c0,2.586,2.686,5.404,6.745,5.404c2.099,0,3.442-0.688,3.442-1.476
		c0-0.621-1.113-0.197-1.113-0.721c0-0.229,0.393-0.656,0.393-1.018c0-0.158-0.131-0.455-0.393-0.455
		c-0.592,0-1.706,0.947-3.966,0.947c-1.769,0-3.505-1.012-3.505-2.389c0-0.294,0.132-0.459,0.328-0.459
		c0.197,0,0.458,0.132,0.688,0.132c0.197,0,0.229-0.132,0.229-0.491c0-0.361,0-1.377,0.621-1.377c0.624,0,1.803,2.293,6.325,2.293
		c1.501,0,4.418-0.293,5.5-1.277c-0.033,3.603-2.853,8.351-8.745,8.351c-6.124,0-9.399-4.913-9.399-9.433
		c0-5.009,4.092-9.56,9.694-9.56c1.439,0,2.654,0.49,2.654,1.113C407.356,303.773,405.226,303.248,405.062,304.262z M415.118,306
		c0.229,0.358,0.328,0.719,0.328,1.046c0,0.918-0.623,1.769-0.623,2.72c0,1.08,0.82,1.963,2.059,1.963
		c1.343,0,2.261-1.078,2.261-2.357C419.143,307.636,417.57,306.163,415.118,306z M404.276,308.095
		c0.326,0.326,0.426,0.654,0.426,0.982c0,0.491-0.229,1.016-0.229,1.573c0,0.783,0.59,1.472,1.44,1.472
		c0.919,0,1.543-0.722,1.543-1.57C407.456,309.307,406.174,308.095,404.276,308.095z M408.629,302.527
		c3.441,0.655,5.309,3.243,5.309,5.667c0,1.671-1.048,3.207-2.884,3.207c-1.672,0-2.878-1.145-2.878-2.979
		c0-1.375,1.074-2.816,1.074-4.225C409.25,303.641,409.087,303.084,408.629,302.527z M410.333,306.883
		c0,0.458,0.328,0.819,0.787,0.819c0.523,0,0.852-0.459,0.852-0.983c0-0.687-0.623-1.637-1.213-1.637
		c-0.263,0-0.164,0.393-0.229,0.819C410.496,306.227,410.333,306.62,410.333,306.883"/>
	<path fill="#FFFFFF" d="M374.182,273.186c1.113,0,2.389-6.026,2.389-7.042c0-0.262-0.097-0.459-0.326-0.459
		c-1.016,0-2.423,5.732-2.423,7.01C373.821,272.924,373.886,273.186,374.182,273.186z M382.205,274.987
		c0.817,0,1.734-3.145,1.734-5.11c0-0.426-0.065-0.883-0.263-0.883c-0.688,0-1.834,3.242-1.834,5.01
		C381.843,274.692,382.008,274.987,382.205,274.987z M376.864,272.072c0.36,0,0.819-0.395,1.673-1.342
		c0.064-0.426,0.064-0.82,0.064-1.311c0-0.654-0.262-1.375-0.654-1.375c-0.984,0-1.474,2.62-1.474,3.309
		C376.474,271.744,376.669,272.072,376.864,272.072z M381.352,270.73c0-0.558-0.132-0.689-0.262-0.689
		c-0.328,0-0.687,0.394-1.211,1.278c0.065,1.179,0.262,1.703,0.589,1.703C380.828,273.022,381.352,271.875,381.352,270.73z
		 M383.874,266.865c2.162,0,3.143,1.867,3.143,3.963c0,0.916-0.26,2.26-0.686,2.26s-0.36-0.754-0.426-1.442
		c-0.065-0.884-0.23-1.08-0.525-1.08c-0.557,0-0.916,1.309-0.916,2.522c0,0.752,0.131,1.604,0.719,1.604
		c0.328,0,0.623-0.164,0.82-0.36c-0.131,1.505-1.246,2.817-2.817,2.817c-2.882,0-3.963-3.374-4.289-5.339
		c-1.736,1.834-3.34,3.177-6.223,3.177c-2.684,0-3.896-1.965-3.896-3.831c0-0.558,0.196-1.998,0.885-1.998
		c0.818,0,0.098,2.684,1.702,2.684c0.394,0,1.112-0.328,1.507-1.407c0.229-0.656,0.36-1.342,0.36-1.933
		c0-0.885-0.196-1.44-0.851-1.44c-0.558,0-1.246,0.424-1.475,0.654c0.787-2.358,2.686-3.569,4.779-3.569
		c2.59,0,3.964,2.292,3.964,4.847c0,0.359-0.033,0.752-0.099,1.113C380.664,268.273,382.205,266.865,383.874,266.865"/>
	<path fill="#FFFFFF" d="M377.75,275.673c-1.408,0-1.473,1.706-1.473,5.142c-1.049-2.259-2.783-4.683-4.814-4.683
		c-1.375,0-1.898,0.918-1.898,2.521c0,0.328,0.032,0.82,0.098,1.113c0.164-0.555,0.688-0.785,1.342-0.785
		c1.41,0,3.112,1.08,4.225,2.555c-1.276-0.229-2.521-0.459-3.568-0.459c-0.656,0-1.245,0.066-1.736,0.295
		c-0.95,0.425-2.227,1.834-2.227,3.963c0,0.328,0.033,0.687,0.099,1.08c1.146-2.555,4.191-3.701,6.156-3.701
		c0.394,0,0.687,0.033,0.917,0.066c-1.016,0.916-1.244,2.521-1.311,3.602c-0.031,0.524-0.229,0.558-0.59,0.558
		c0,1.079,0.853,2.685,0.853,3.503c0,0.295-0.164,0.557-0.327,0.623c0,1.441,1.439,2.489,1.439,3.405
		c0,0.229-0.064,0.426-0.164,0.525c0.1,0.59,1.684,1.581,1.889,2.078c0.252,0.604,0.535,0.706,0.699,0.706
		c0.557,0,1.439-0.656,1.439-1.246c0-0.196-0.164-0.425-0.293-0.524c-0.623-0.457-0.951-1.44-1.213-2.094
		c-0.23,0-0.526-0.097-0.63-0.483c-0.179-0.678-0.188-1.941-0.45-2.695c-0.426-0.098-0.623-0.262-0.623-1.146
		c0-0.426,0.263-2.097,0.263-2.687c-0.196,0-0.458-0.131-0.458-0.524c0-1.047,1.049-1.866,1.342-3.208
		c1.867,1.374,2.324,2.782,2.324,4.028c0,0.653-0.098,1.276-0.229,1.867c1.376-0.689,3.439-1.704,3.439-3.767
		c0-1.213-0.557-2.555-4.258-3.079c1.146-0.426,2.588-0.654,3.799-0.654c2.097,0,3.308,0.654,3.569,2.127
		c0.426-0.654,0.754-1.408,0.754-2.095c0-1.606-1.344-2.652-3.046-2.652c-1.998,0-3.766,1.046-5.666,2.325
		c0.854-1.768,1.44-2.816,2.49-2.816c0.163,0,0.327,0.033,0.491,0.066C380.01,277.083,378.537,275.673,377.75,275.673"/>
	<path fill="#FFFFFF" d="M432.926,299.285c1.64,0,2.95,2.128,2.95,4.618c0,2.652-1.246,5.535-3.467,7.498
		c-0.033-4.42-5.443-3.012-5.443-6.22c0-1.375,0.985-2.293,2.165-2.293c1.049,0,1.868,0.295,2.458,0.886
		c-0.59-0.558-0.885-1.345-0.885-2.097C430.704,300.43,431.491,299.285,432.926,299.285"/>
	<path fill="#FFFFFF" d="M403.686,268.175c0.853,0.819,1.604,1.178,2.522,1.178c0.362,0,0.789-0.097,1.019-0.097
		c0.295,0,0.49,0.13,0.49,0.359c0,0.361-0.328,0.951-0.72,1.279c0.392,0.163,0.819,0.229,1.278,0.229c1.86,0,3.99-1.18,3.99-4.126
		c0.395,0.522,0.624,1.604,0.624,2.096c0,3.569-2.623,4.944-5.041,4.944c-1.573,0-2.361-0.525-2.559-0.525
		c-0.621,0-0.588,1.246-1.014,1.213c-0.754-0.131-1.44-1.801-1.44-3.569C402.836,270.107,403.098,268.994,403.686,268.175z
		 M408.629,265.784c-0.262-0.426-1.24-0.654-1.697-0.654c-1.444,0-2.427,1.014-2.623,1.932c-0.131-0.328-0.229-0.721-0.229-1.114
		c0-1.441,0.983-3.209,3.377-3.209c2.09,0,2.909,1.113,3.205,1.113c0.327,0,0.655-0.328,0.918-0.328c0.36,0,0.36,0.557,0.36,0.951
		c0,1.309-0.591,3.569-2.065,4.388c-0.263-0.557-0.787-1.18-1.633-1.572c-0.229-0.098-0.327-0.294-0.327-0.491
		C407.914,266.439,408.241,265.98,408.629,265.784"/>
	<path fill="#FFFFFF" d="M380.926,258.645c0,1.146,4.093,6.746,4.88,6.746c0.656,0,1.146-1.146,1.146-2.13
		c0-0.26-0.066-0.521-0.195-0.719c-0.59-0.819-4.749-4.094-5.667-4.094C380.991,258.448,380.926,258.547,380.926,258.645z
		 M356.856,255.272c0,0.656-2.488,2.849-3.371,2.849c-0.327,0-0.427-0.392-0.427-0.752c0-0.654,0.295-1.572,0.656-1.868
		c0.424-0.393,1.407-0.587,2.16-0.587C356.332,254.914,356.856,255.01,356.856,255.272z M386.757,257.172
		c0-1.966-5.313-5.535-5.372-7.073c-0.006-0.141,0.071-0.281,0.19-0.406c0.91-0.96,4.689-1.66,4.689-2.478
		c0-0.424-0.787-0.424-1.18-0.424c-3.045,0-7.499,1.113-7.499,2.193c0,1.115,3.995,3.833,3.995,5.176c0,0.36-0.229,0.491-0.59,0.491
		c-1.112,0-3.536-1.344-4.682-1.344c-0.524,0-0.722,0.36-0.722,0.886c0,1.571,1.867,4.551,1.867,5.433
		c0,0.099-0.033,0.23-0.164,0.23c-0.59,0-3.371-3.273-4.355-3.273c-0.359,0-0.393,0.49-0.393,1.211v1.113
		c0,0.753-0.033,1.212-0.391,1.212c-0.854,0-1.246-2.39-2.064-2.39c-0.852,0-1.016,4.256-1.833,4.256
		c-0.951,0-0.132-4.683-1.049-4.683c-1.015,0-2.162,3.112-2.883,3.112c-0.261,0-0.326-0.263-0.326-0.492
		c0-0.949,0.555-2.488,0.555-3.404c0-0.46-0.131-0.721-0.522-0.721c-1.017,0-3.243,1.637-4.094,1.637
		c-0.131,0-0.295-0.065-0.295-0.197c0-0.784,3.569-3.274,3.569-4.387c0-1.082-4.914-0.36-4.914-1.606
		c0-1.047,3.507-2.128,3.507-3.209c0-0.95-4.16-1.374-5.764-1.374c-1.933,0-2.98,0.227-2.98,0.784c0,0.852,4.389,1.115,4.389,1.867
		c0,0.721-4.553,2.653-4.553,3.766c0,0.983,6.418,0.065,6.418,1.082c0,1.112-5.598,5.925-5.598,7.53
		c0,0.361,0.262,0.525,0.621,0.525c1.703,0,6.122-3.242,7.335-3.242c0.426,0,0.459,0.523,0.459,0.982
		c0,0.852-0.294,2.161-0.294,3.112c0,0.752,0.196,1.276,0.85,1.276c1.214,0,2.325-2.062,3.146-2.062
		c1.047,0,0.425,6.058,1.997,6.058c1.342,0,1.898-6.549,2.75-6.549s1.541,1.899,2.326,1.899c0.981,0,0.523-3.307,1.572-3.307
		c1.145,0,4.42,3.93,5.894,3.93c0.458,0,0.621-0.361,0.621-0.82c0-1.736-2.422-5.664-2.422-6.908c0-0.327,0.097-0.426,0.457-0.426
		c1.277,0,5.012,1.768,6.779,1.768C386.397,257.925,386.757,257.598,386.757,257.172z M383.35,250.688
		c0,0.589,2.063,1.867,3.014,1.867c0.556,0,0.72-0.754,0.72-1.54c0-0.982-0.424-1.015-1.277-1.015
		C384.726,250,383.35,250.295,383.35,250.688z M375.654,247.347c0-0.197-0.982-0.394-2.324-0.394c-2.129,0-1.834,1.771-3.471,1.771
		c-1.703,0-1.279-1.836-3.44-1.836c-1.31,0-2.52,0.23-2.52,0.524c0,0.394,1.538,0.23,1.538,1.312c0,1.145-3.308,1.473-3.308,2.161
		c0,0.229,0.261,0.327,0.589,0.327c0.722,0,1.866-0.327,2.686-0.327c0.459,0,0.885,0.097,0.885,0.523c0,0.819-1.77,2.293-1.77,2.948
		c0,0.197,0.163,0.263,0.327,0.263c0.656,0,1.77-1.671,2.817-1.671c1.736,0,0.591,3.7,1.539,3.7c0.982,0,0.557-3.636,1.965-3.636
		c1.148,0,1.998,2.522,2.784,2.522c0.197,0,0.36-0.163,0.36-0.393c0-0.686-0.982-2.096-0.982-3.012c0-0.557,0.393-0.82,0.917-0.82
		c0.752,0,1.768,0.459,2.323,0.459c0.196,0,0.393-0.065,0.393-0.294c0-0.786-2.912-1.637-2.912-2.652
		C374.051,247.806,375.654,247.806,375.654,247.347"/>
	<path fill="#FFFFFF" d="M433.712,252.654c0,2.913-2.123,5.14-5.959,5.762c0.427,0.032,0.82,0.032,1.214,0.032
		c4.483,0,6.123-2.029,6.123-3.731C435.09,253.766,434.565,252.916,433.712,252.654z M428.18,255.96
		c0-2.325-5.562-2.915-5.562-3.438c0-0.425,3.106-1.147,4.711-1.18c-2.456-3.143-5.956-2.815-5.956-3.372
		c0-0.328,2.621-0.984,5.041-0.984c2.03,0,3.93,0.459,3.93,1.998c0,0.853-0.688,1.738-0.688,3.046c0,0.721,0.358,1.343,1.311,1.343
		c1.018,0,1.245-1.08,1.245-2.228c0-0.948-0.163-1.669-0.163-2.128c0-1.375,0.943-2.291,2.287-2.291
		c1.114,0,1.377,0.489,3.016,0.489c-0.886,0.526-1.213,1.476-1.213,1.933c0,1.377,0.887,2.326,0.887,5.143
		c0,5.172-4.846,7.006-10.776,7.006c-1.63,0-3.369-0.131-5.074-0.392c-0.261-0.033-0.327-0.098-0.327-0.262
		c0-0.426,2.328-0.656,2.328-2.75c0-0.82-0.263-1.605-0.263-1.899c0-0.164,0.131-0.263,0.263-0.263c0.491,0,1.476,1.899,3.304,1.899
		C426.966,257.63,428.18,257.466,428.18,255.96z M433.516,248.724c0,0.457,0.36,0.817,0.819,0.817s0.82-0.36,0.82-0.817
		c0-0.459-0.361-0.82-0.82-0.82S433.516,248.265,433.516,248.724"/>
	<path fill="#FFFFFF" d="M430.606,278.981c0-0.687-1.738-0.752-1.901-2.685c-0.034-0.294-0.132-0.817-0.493-0.817
		c-0.589,0-0.131,1.801-0.786,1.801c-1.506,0-1.997-2.948-2.554-2.948c-0.132,0-0.288,0.098-0.288,0.491
		c0,0.361,0.066,0.59,0.066,1.014c0,0.427-0.1,0.722-0.492,0.722c-0.885,0-1.672-2.064-2.426-2.064
		c-0.164,0-0.327,0.099-0.327,0.263c0,0.393,0.654,1.112,0.654,1.473c0,0.787-2.13,0.36-2.13,1.016c0,0.295,0.294,0.392,0.688,0.392
		c0.689,0,1.771-0.293,2.328-0.293c0.328,0,0.819,0.065,0.819,0.489c0,0.459-1.18,1.048-1.18,1.474c0,0.197,0.196,0.294,0.36,0.294
		c0.885,0,2.451-1.538,3.565-1.538c0.196,0,0.687,0.098,0.687,0.393c0,0.425-1.113,1.177-1.113,1.8c0,0.164,0.1,0.36,0.296,0.36
		c0.586,0,1.373-1.538,2.488-1.538c0.426,0,1.049,0.164,1.378,0.164C430.508,279.244,430.606,279.08,430.606,278.981z
		 M431.458,294.864c0.525-1.636,1.181-2.784,2.254-4.552c-1.073-0.555-3.926-1.736-3.926-3.668c0-2.26,2.817-4.028,3.401-4.028
		c0.263,0,0.328,0.23,0.328,0.656c0,1.178-0.557,3.077-0.557,4.093c0,0.916,0.59,1.802,1.114,1.802c0.557,0,2.097-1.965,2.097-3.898
		c0-3.472-3.048-4.519-3.991-4.519c-0.885,0-2.491,1.44-6.259,1.44c-7.039,0-8.645-6.973-8.645-10.02
		c0-0.131,0.031-0.164,0.064-0.164c0.164,0,0.854,0.853,3.081,0.853c1.147,0,2.196-0.296,3.868-0.296
		c3.923,0,5.661,2.72,8.087,6.189c1.467,0.916,4.975,2.391,4.975,6.55c0,3.668-3.9,5.698-4.844,9.628
		c1.5-0.163,2.386-2.85,3.926-2.85c0.787,0,1.147,0.623,1.147,1.607c0,1.439-0.82,3.602-2.393,4.944
		c0.032-0.131,0.032-0.296,0.032-0.492c0-0.916-0.359-2.225-1.41-2.225c-1.631,0-2.155,1.768-3.072,3.24
		c-0.951-3.339-2.229-6.353-4.521-8.187c-2.319-1.866-6.319-0.852-6.319-4.257c0-0.918,0.591-2.227,0.591-3.275
		c0-0.36-0.066-0.688-0.264-0.95c3.147,1.18,2.032,3.274,3.968,5.436c1.205,1.377,4.547,2.686,6.48,8.351
		c0.032-0.163,0.065-0.588,0.065-0.883c0-4.847-6.416-9.597-6.973-11.562c3.727,0.426,4.382,1.344,6.152,6.256
		C430.277,291.099,431.458,293.621,431.458,294.864"/>
	<path fill="#FFFFFF" d="M413.545,260.217c-2.295,0-3.802-1.145-3.802-1.736c0-0.295,0.196-0.49,0.46-0.49
		c0.72,0,2.293,1.112,2.816,1.112c0.133,0,0.23-0.064,0.23-0.261c0-0.59-0.557-1.572-0.557-2.062c0-0.132,0.099-0.229,0.295-0.229
		c0.884,0,2.195,0.36,2.885,0.36c0.229,0,0.294-0.131,0.294-0.263c0-0.72-2.131-2.128-2.131-2.554c0-0.393,2.648-0.984,2.648-1.604
		c0-0.656-3.6-0.197-3.6-0.82c0-0.458,0.689-1.244,0.689-1.604c0-0.164-0.132-0.229-0.36-0.229c-0.295,0-1.868,0.622-2.524,0.622
		c-0.327,0-0.721-0.065-0.721-0.525c0-0.753,1.278-1.571,3.278-1.571c3.237,0,5.172,2.227,5.172,5.96
		C418.619,259.039,415.315,260.217,413.545,260.217z M407.161,253.996c0-0.361-1.28-1.048-1.28-1.441
		c0-0.065,0.064-0.098,0.163-0.098c0.362,0,0.985,0.131,1.478,0.131c0.426,0,0.491-1.834,0.812-1.834
		c0.229,0,0.621,1.736,0.984,1.736c0.425,0,1.211-0.492,1.539-0.492c0.065,0,0.131,0.032,0.131,0.099
		c0,0.229-0.819,1.112-0.819,1.374c0,0.295,1.836,0.656,1.836,0.918c0,0.328-1.869,0.295-1.869,0.59c0,0.227,0.689,1.145,0.689,1.44
		c0,0.066-0.034,0.099-0.099,0.099c-0.263,0-1.278-0.46-1.573-0.46c-0.361,0-0.944,1.343-1.239,1.343
		c-0.098,0-0.163-0.131-0.163-0.295l-0.066-1.309c0-0.131-0.064-0.263-0.229-0.263c-0.394,0-1.148-0.033-1.379-0.033
		c-0.164,0-0.229-0.032-0.229-0.098C405.848,255.141,407.161,254.225,407.161,253.996z M406.208,259.364
		c0.526,0,0.624,1.279,0.724,2.031c0.065,0.394,0.131,0.426,0.295,0.426c0.394,0,1.015-1.506,1.436-1.506
		c0.621,0,2.294,1.736,5.079,1.736c3.96,0,7.696-2.785,7.696-7.695c0-4.749-3.345-7.533-7.959-7.533
		c-2.194,0-3.802,1.081-4.654,1.081c-0.517,0.033-1.303-1.276-1.697-1.276c-0.163,0-0.327,0.325-0.327,0.883
		c0,0.361,0,1.506-0.394,1.506c-0.788,0-3.832-2.258-3.832-1.441c0,0.754,2.028,3.047,2.028,3.636s-1.996,1.147-1.996,1.539
		c0,0.72,2.128,0.851,2.128,1.769c0,0.916-2.228,1.637-2.228,2.325c0,0.556,2.228,0.164,2.228,0.851s-1.637,2.98-1.637,3.633
		c0,0.165,0.032,0.165,0.162,0.165C403.882,261.494,405.749,259.364,406.208,259.364"/>
	<path fill="#FFFFFF" d="M391.374,316.871c0,0.295-0.099,0.623-0.361,0.949c-0.358-0.654-1.375-0.982-1.834-0.981
		c-3.373,0-2.096,4.88-5.698,4.88c-1.506,0-1.638-0.197-2.193-0.197c-0.23,0-0.361,0.099-0.361,0.295
		c0,0.853,1.212,2.947,4.585,2.947s6.616-2.062,6.616-4.619c0-0.426-0.098-0.881-0.295-1.34c0.131-0.197,0.46-0.328,0.754-0.328
		c0.523,0,0.818,0.592,1.309,0.592c0.525,0,0.918-0.395,0.918-0.918c0-0.428-0.229-0.721-0.621-0.92
		c0.262-0.195,0.458-0.523,0.458-0.883c0-0.559-0.394-1.08-1.05-1.08c-0.295,0-0.49,0.1-0.719,0.324
		c-0.064-0.586-0.393-1.143-1.016-1.143c-0.491,0-0.853,0.359-0.853,0.918C391.013,315.887,391.374,316.314,391.374,316.871"/>
	<path fill="#FFFFFF" d="M373.428,310.782c2.62,0.651,3.93,2.06,4.191,3.731c0.262,1.604,0.589,2.916,1.211,3.569
		c0.819,0.919,2.424,1.733,3.833,1.733c1.179,0,2.127-0.389,2.127-1.471c0-1.18-1.604-3.832-3.962-3.832
		c-0.229,0-0.524,0.034-0.852,0.034c-0.295,0-0.721-0.065-0.982-0.295c-0.523-0.46-0.688-2.916-1.67-4.389
		c-1.08-1.638-2.259-2.097-3.863-2.097c-1.145,0-2.424,0.621-2.424,1.539C371.037,309.864,371.332,310.256,373.428,310.782z
		 M382.565,318.116c-0.984,0-2.457-1.05-2.457-1.64c0-0.492,0.459-0.754,0.817-0.754c0.82,0,2.292,1.018,2.292,1.869
		C383.218,317.82,383.054,318.116,382.565,318.116"/>
	<path fill="#FFFFFF" d="M379.551,292.605c0-2.096,4.979-3.209,4.979-5.797c0-0.426-0.164-1.178-0.459-1.735
		c1.734,0.949,3.012,2.555,3.012,3.864c0,2.26-2.357,3.308-2.357,4.717c0,1.637,2.521,1.899,2.521,3.929
		c0,1.669-2.391,3.602-2.391,5.763c0,1.67,1.18,3.044,2.979,3.274c-0.589,0.131-1.112,0.229-1.669,0.229
		c-3.309,0-6.714-2.717-6.714-5.96c0-1.604,0.688-3.01,1.734-4.026c0.919,0.786,1.835,1.309,2.425,1.309
		c0.523,0,0.754-0.261,0.754-0.654C384.366,296.305,379.551,295.193,379.551,292.605z M389.998,309.143
		c-1.123,0.514-1.571,0.426-1.571,1.573c0,0.425-0.099,0.979-0.099,1.275c0,0.393,0.065,0.623,0.523,0.623
		c1.18,0,3.047-1.997,3.047-3.701c0-0.46-0.263-0.653-0.558-0.653C391.078,308.26,390.785,308.782,389.998,309.143z
		 M389.867,306.784c0-1.473-3.046-1.506-3.046-3.733c0-0.558,0.359-1.506,1.081-2.523c0.296,1.703,0.981,2.588,2.457,3.146
		c2.913,1.079,3.307,2.716,3.307,4.454c0,2.948-2.063,6.615-7.368,6.615c-4.258,0-7.304-3.8-7.304-7.009
		c0-0.885,0.229-1.866,0.786-1.866c0.492,0,0.655,0.392,1.048,0.784c1.475,1.476,3.079,1.867,5.404,1.867
		C388.328,308.52,389.867,307.669,389.867,306.784"/>
	<path fill="#FFFFFF" d="M366.676,307.494c0.08,0.684-0.409,1.301-1.092,1.381c-0.684,0.08-1.304-0.41-1.382-1.093
		c-0.08-0.685,0.409-1.304,1.093-1.384S366.597,306.809,366.676,307.494z M360.556,308.782c0.139,1.118,1.182,1.966,2.359,1.835
		c0.425-0.047,0.819-0.163,1.082-0.327c0.262,1.047,1.141,1.721,2.329,1.565c1.206-0.157,2.026-1.107,1.896-2.319
		c-0.034-0.326-0.099-0.525-0.196-0.754c0,0,0.159-0.017,0.279-0.039c1.183-0.224,1.98-1.173,1.881-2.319
		c-0.13-1.179-1.188-2.054-2.289-1.918c-0.427,0.052-0.821,0.215-1.084,0.444c-0.296-0.981-1.219-1.834-2.479-1.626
		c-1.139,0.189-1.892,1.155-1.778,2.38c0.019,0.199,0.065,0.426,0.164,0.654c0,0-0.193,0.029-0.326,0.048
		C361.438,306.548,360.401,307.51,360.556,308.782"/>
</g>
</svg>
