<?xml version="1.0" encoding="utf-8"?>
<!-- Generator: Adobe Illustrator 15.0.0, SVG Export Plug-In . SVG Version: 6.00 Build 0)  -->
<!DOCTYPE svg PUBLIC "-//W3C//DTD SVG 1.1//EN" "http://www.w3.org/Graphics/SVG/1.1/DTD/svg11.dtd">
<svg version="1.1" id="Layer_1" xmlns="http://www.w3.org/2000/svg" xmlns:xlink="http://www.w3.org/1999/xlink" x="0px" y="0px"
	 width="595.279px" height="841.891px" viewBox="0 0 595.279 841.891" enable-background="new 0 0 595.279 841.891"
	 xml:space="preserve">
<rect x="2.14" y="182.445" fill="#FFFFFF" width="591" height="535"/>
<g>
	<path fill="#4183C4" d="M485.66,382.774c-15.93,0-33.09,2.956-44.915,7.799l4.598,32.354c8.952-4.187,23.157-7.472,33.996-7.472
		c12.317,0,18.889,3.943,18.889,13.136c0,0.658,0,3.205-0.249,5.503c-48.938,0-67.661,9.198-67.661,36.704
		c0,24.225,15.028,38.104,40.564,38.104c10.839,0,21.021,0.081,30.629-7.722h1.149l1.887,7.72h33.175
		c-5.091-9.115-5.583-28.985-5.42-40.481c0.246-14.533,1.396-31.53,1.396-43.519C533.698,393.778,511.444,382.774,485.66,382.774
		L485.66,382.774z M497.403,458.976l0.166,3.119c0.326,5.667-1.312,10.513-5.174,14.533c-3.858,3.943-8.786,6.078-14.779,6.404
		c-4.848,0.246-8.706-0.572-11.496-2.381c-2.793-1.89-4.271-4.598-4.436-8.128c-0.246-3.86,1.229-6.816,4.436-8.952
		c3.283-2.136,8.211-3.365,14.861-3.692L497.403,458.976L497.403,458.976z M345.002,416.851v-34.077h-28.985v-41.469l-39.248,15.113
		v26.358h-18.392v33.994h18.392v38.593c0,23.483,8.048,52.224,54.112,53.457l11.904-33.75c-19.132-2.136-26.685-9.361-26.685-29.231
		v-28.988H345.002 M0.374,382.854l28.001,125.881h32.681c-8.294-43.851-15.354-81.046-23.812-125.881H0.374z M69.841,382.854
		l-7.061,25.703l12.645,67.167l12.811-46.229l22.088,79.32h38.021l27.755-125.878H139.39l-13.301,70.371l-19.461-70.371H69.841
		V382.854z M235.136,352.722c0,10.838-8.786,19.707-19.707,19.707c-10.842,0-19.707-8.786-19.707-19.707
		c0-10.921,8.782-19.707,19.707-19.707C226.35,333.095,235.136,341.881,235.136,352.722z M405.845,489.191
		c0,10.841-8.783,19.707-19.704,19.707c-10.838,0-19.707-8.786-19.707-19.707c0-10.839,8.786-19.707,19.707-19.707
		c10.921,0.083,19.707,8.865,19.707,19.707H405.845z M594.87,352.722c0,10.838-8.785,19.707-19.707,19.707
		c-10.838,0-19.707-8.786-19.707-19.707c0-10.921,8.786-19.707,19.707-19.707C586.005,333.095,594.87,341.881,594.87,352.722z
		 M235.136,382.938h-39.334v125.798h39.334 M594.87,383.513h-39.331v125.223h39.334"/>
</g>
</svg>
